<?xml version="1.0" encoding="utf-8"?>
<!-- Generator: Adobe Illustrator 25.2.1, SVG Export Plug-In . SVG Version: 6.00 Build 0)  -->
<svg version="1.1" id="Layer_1" xmlns="http://www.w3.org/2000/svg" xmlns:xlink="http://www.w3.org/1999/xlink" x="0px" y="0px"
	 viewBox="0 0 1920 1080" style="enable-background:new 0 0 1920 1080;" xml:space="preserve">
<style type="text/css">
	.st0{fill:#FFFFFF;}
	.st1{stroke:#000000;stroke-width:0.8;stroke-linejoin:round;stroke-miterlimit:10;}
	.st2{fill-rule:evenodd;clip-rule:evenodd;}
	.st3{fill:none;stroke:#1F77B4;stroke-width:1.5;stroke-linecap:square;stroke-linejoin:round;stroke-miterlimit:10;}
	.st4{fill:#1F77B4;stroke:#1F77B4;stroke-miterlimit:10;}
	.st5{fill:none;stroke:#A52A2A;stroke-width:1.5;stroke-linecap:square;stroke-linejoin:round;stroke-miterlimit:10;}
	.st6{fill:#A52A2A;stroke:#A52A2A;stroke-linejoin:round;stroke-miterlimit:10;}
	.st7{fill:none;stroke:#2E8B57;stroke-width:1.5;stroke-linecap:square;stroke-linejoin:round;stroke-miterlimit:10;}
	.st8{fill:#2E8B57;}
	.st9{fill:none;stroke:#000000;stroke-width:0.8;stroke-linecap:square;stroke-miterlimit:10;}
	.st10{fill:#FFFFFF;stroke:#CCCCCC;stroke-miterlimit:10;}
</style>
<g>
	<rect x="428.8" y="259.5" class="st0" width="1116" height="543.6"/>
	<line class="st1" x1="479.53" y1="803.1" x2="479.53" y2="806.6"/>
	<path class="st2" d="M479.55,811c-0.51,0-0.89,0.25-1.15,0.75c-0.25,0.5-0.38,1.25-0.38,2.25c0,1,0.13,1.75,0.38,2.25
		c0.26,0.5,0.64,0.75,1.15,0.75c0.51,0,0.89-0.25,1.15-0.75c0.26-0.5,0.39-1.25,0.39-2.25c0-1-0.13-1.75-0.39-2.25
		C480.45,811.24,480.06,811,479.55,811 M479.55,810.21c0.82,0,1.44,0.32,1.87,0.97c0.43,0.64,0.65,1.58,0.65,2.81
		c0,1.23-0.21,2.16-0.65,2.81c-0.43,0.64-1.05,0.97-1.87,0.97c-0.82,0-1.44-0.32-1.88-0.97c-0.43-0.65-0.64-1.59-0.64-2.81
		c0-1.23,0.21-2.17,0.64-2.81C478.11,810.54,478.74,810.21,479.55,810.21L479.55,810.21z"/>
	<line class="st1" x1="606.99" y1="803.1" x2="606.99" y2="806.6"/>
	<path class="st2" d="M602.61,816.81h3.44v0.83h-4.63v-0.83c0.38-0.39,0.88-0.91,1.53-1.56c0.65-0.65,1.05-1.07,1.22-1.26
		c0.32-0.36,0.54-0.65,0.66-0.9c0.13-0.25,0.19-0.49,0.19-0.73c0-0.39-0.14-0.7-0.41-0.95c-0.27-0.24-0.63-0.37-1.06-0.37
		c-0.31,0-0.63,0.05-0.98,0.16c-0.34,0.11-0.71,0.27-1.1,0.49v-1c0.4-0.16,0.77-0.28,1.11-0.36c0.35-0.08,0.66-0.12,0.95-0.12
		c0.76,0,1.36,0.19,1.81,0.57c0.45,0.38,0.67,0.88,0.67,1.51c0,0.3-0.06,0.59-0.17,0.85c-0.11,0.27-0.31,0.58-0.61,0.95
		c-0.08,0.09-0.34,0.37-0.78,0.82C604.02,815.37,603.41,816,602.61,816.81L602.61,816.81z"/>
	<path class="st2" d="M608.01,810.35h3.87v0.83h-2.97v1.79c0.14-0.05,0.29-0.08,0.43-0.11c0.14-0.02,0.29-0.04,0.43-0.04
		c0.82,0,1.46,0.22,1.93,0.67c0.47,0.44,0.71,1.05,0.71,1.81c0,0.79-0.24,1.4-0.73,1.83c-0.49,0.43-1.18,0.65-2.07,0.65
		c-0.31,0-0.62-0.02-0.94-0.08c-0.32-0.05-0.64-0.13-0.98-0.23v-0.99c0.29,0.16,0.6,0.28,0.91,0.36c0.31,0.08,0.64,0.12,0.99,0.12
		c0.56,0,1.01-0.15,1.34-0.44c0.33-0.3,0.49-0.7,0.49-1.21c0-0.51-0.17-0.91-0.49-1.21c-0.33-0.3-0.78-0.44-1.34-0.44
		c-0.26,0-0.53,0.03-0.79,0.09c-0.26,0.06-0.53,0.15-0.8,0.27V810.35L608.01,810.35z"/>
	<line class="st1" x1="734.44" y1="803.1" x2="734.44" y2="806.6"/>
	<path class="st2" d="M729.21,810.35h3.87v0.83h-2.97v1.79c0.14-0.05,0.29-0.08,0.43-0.11c0.14-0.02,0.29-0.04,0.43-0.04
		c0.82,0,1.46,0.22,1.93,0.67c0.47,0.44,0.71,1.05,0.71,1.81c0,0.79-0.24,1.4-0.73,1.83c-0.49,0.43-1.18,0.65-2.07,0.65
		c-0.31,0-0.62-0.02-0.94-0.08c-0.32-0.05-0.64-0.13-0.98-0.23v-0.99c0.29,0.16,0.6,0.28,0.91,0.36c0.31,0.08,0.64,0.12,0.99,0.12
		c0.56,0,1.01-0.15,1.34-0.44c0.33-0.3,0.49-0.7,0.49-1.21c0-0.51-0.17-0.91-0.49-1.21c-0.33-0.3-0.78-0.44-1.34-0.44
		c-0.26,0-0.53,0.03-0.79,0.09c-0.26,0.06-0.53,0.15-0.8,0.27V810.35L729.21,810.35z"/>
	<path class="st2" d="M737.55,811c-0.51,0-0.89,0.25-1.15,0.75c-0.25,0.5-0.38,1.25-0.38,2.25c0,1,0.13,1.75,0.38,2.25
		c0.26,0.5,0.64,0.75,1.15,0.75c0.51,0,0.89-0.25,1.15-0.75c0.26-0.5,0.39-1.25,0.39-2.25c0-1-0.13-1.75-0.39-2.25
		C738.45,811.24,738.06,811,737.55,811 M737.55,810.21c0.82,0,1.44,0.32,1.87,0.97c0.43,0.64,0.65,1.58,0.65,2.81
		c0,1.23-0.21,2.16-0.65,2.81c-0.43,0.64-1.05,0.97-1.87,0.97c-0.82,0-1.44-0.32-1.88-0.97c-0.43-0.65-0.64-1.59-0.64-2.81
		c0-1.23,0.21-2.17,0.64-2.81C736.11,810.54,736.74,810.21,737.55,810.21L737.55,810.21z"/>
	<line class="st1" x1="861.9" y1="803.1" x2="861.9" y2="806.6"/>
	<polygon class="st2" points="856.39,810.35 861.08,810.35 861.08,810.77 858.43,817.64 857.4,817.64 859.89,811.18 856.39,811.18 
		856.39,810.35 	"/>
	<path class="st2" d="M862.89,810.35h3.87v0.83h-2.97v1.79c0.14-0.05,0.29-0.08,0.43-0.11c0.14-0.02,0.29-0.04,0.43-0.04
		c0.82,0,1.46,0.22,1.93,0.67c0.47,0.44,0.71,1.05,0.71,1.81c0,0.79-0.24,1.4-0.73,1.83c-0.49,0.43-1.18,0.65-2.07,0.65
		c-0.31,0-0.62-0.02-0.94-0.08c-0.32-0.05-0.64-0.13-0.98-0.23v-0.99c0.29,0.16,0.6,0.28,0.91,0.36c0.31,0.08,0.64,0.12,0.99,0.12
		c0.56,0,1.01-0.15,1.34-0.44c0.33-0.3,0.49-0.7,0.49-1.21c0-0.51-0.17-0.91-0.49-1.21c-0.33-0.3-0.78-0.44-1.34-0.44
		c-0.26,0-0.53,0.03-0.79,0.09c-0.26,0.06-0.53,0.15-0.8,0.27V810.35L862.89,810.35z"/>
	<line class="st1" x1="989.35" y1="803.1" x2="989.35" y2="806.6"/>
	<polygon class="st2" points="981.13,816.81 982.74,816.81 982.74,811.24 980.99,811.6 980.99,810.7 982.73,810.35 983.72,810.35 
		983.72,816.81 985.33,816.81 985.33,817.64 981.13,817.64 981.13,816.81 	"/>
	<path class="st2" d="M989.31,811c-0.51,0-0.89,0.25-1.15,0.75c-0.25,0.5-0.38,1.25-0.38,2.25c0,1,0.13,1.75,0.38,2.25
		c0.26,0.5,0.64,0.75,1.15,0.75c0.51,0,0.89-0.25,1.15-0.75c0.26-0.5,0.39-1.25,0.39-2.25c0-1-0.13-1.75-0.39-2.25
		C990.21,811.24,989.82,811,989.31,811 M989.31,810.21c0.82,0,1.44,0.32,1.87,0.97c0.43,0.64,0.65,1.58,0.65,2.81
		c0,1.23-0.21,2.16-0.65,2.81c-0.43,0.64-1.05,0.97-1.87,0.97s-1.44-0.32-1.88-0.97c-0.43-0.65-0.64-1.59-0.64-2.81
		c0-1.23,0.21-2.17,0.64-2.81C987.87,810.54,988.5,810.21,989.31,810.21L989.31,810.21z"/>
	<path class="st2" d="M995.79,811c-0.51,0-0.89,0.25-1.15,0.75c-0.25,0.5-0.38,1.25-0.38,2.25c0,1,0.13,1.75,0.38,2.25
		c0.26,0.5,0.64,0.75,1.15,0.75c0.51,0,0.89-0.25,1.15-0.75c0.26-0.5,0.39-1.25,0.39-2.25c0-1-0.13-1.75-0.39-2.25
		C996.69,811.24,996.3,811,995.79,811 M995.79,810.21c0.82,0,1.44,0.32,1.87,0.97c0.43,0.64,0.65,1.58,0.65,2.81
		c0,1.23-0.21,2.16-0.65,2.81c-0.43,0.64-1.05,0.97-1.87,0.97s-1.44-0.32-1.88-0.97c-0.43-0.65-0.64-1.59-0.64-2.81
		c0-1.23,0.21-2.17,0.64-2.81C994.35,810.54,994.98,810.21,995.79,810.21L995.79,810.21z"/>
	<line class="st1" x1="1116.81" y1="803.1" x2="1116.81" y2="806.6"/>
	<polygon class="st2" points="1108.57,816.81 1110.18,816.81 1110.18,811.24 1108.43,811.6 1108.43,810.7 1110.17,810.35 
		1111.16,810.35 1111.16,816.81 1112.77,816.81 1112.77,817.64 1108.57,817.64 1108.57,816.81 	"/>
	<path class="st2" d="M1115.49,816.81h3.44v0.83h-4.63v-0.83c0.38-0.39,0.88-0.91,1.53-1.56c0.65-0.65,1.05-1.07,1.22-1.26
		c0.32-0.36,0.54-0.65,0.66-0.9c0.13-0.25,0.19-0.49,0.19-0.73c0-0.39-0.14-0.7-0.41-0.95c-0.27-0.24-0.62-0.37-1.06-0.37
		c-0.31,0-0.63,0.05-0.98,0.16c-0.34,0.11-0.71,0.27-1.1,0.49v-1c0.4-0.16,0.77-0.28,1.11-0.36c0.35-0.08,0.66-0.12,0.95-0.12
		c0.76,0,1.36,0.19,1.81,0.57c0.45,0.38,0.67,0.88,0.67,1.51c0,0.3-0.06,0.59-0.17,0.85c-0.11,0.27-0.31,0.58-0.61,0.95
		c-0.08,0.09-0.34,0.37-0.78,0.82C1116.9,815.37,1116.29,816,1115.49,816.81L1115.49,816.81z"/>
	<path class="st2" d="M1121.13,810.35h3.87v0.83h-2.97v1.79c0.14-0.05,0.29-0.08,0.43-0.11c0.14-0.02,0.29-0.04,0.43-0.04
		c0.82,0,1.46,0.22,1.93,0.67c0.47,0.44,0.71,1.05,0.71,1.81c0,0.79-0.24,1.4-0.73,1.83c-0.49,0.43-1.18,0.65-2.07,0.65
		c-0.31,0-0.62-0.02-0.94-0.08c-0.32-0.05-0.64-0.13-0.98-0.23v-0.99c0.29,0.16,0.6,0.28,0.91,0.36c0.31,0.08,0.64,0.12,0.99,0.12
		c0.56,0,1.01-0.15,1.34-0.44c0.33-0.3,0.49-0.7,0.49-1.21c0-0.51-0.17-0.91-0.49-1.21c-0.33-0.3-0.78-0.44-1.34-0.44
		c-0.26,0-0.53,0.03-0.79,0.09c-0.26,0.06-0.53,0.15-0.8,0.27V810.35L1121.13,810.35z"/>
	<line class="st1" x1="1244.26" y1="803.1" x2="1244.26" y2="806.6"/>
	<polygon class="st2" points="1236.01,816.81 1237.62,816.81 1237.62,811.24 1235.87,811.6 1235.87,810.7 1237.61,810.35 
		1238.6,810.35 1238.6,816.81 1240.21,816.81 1240.21,817.64 1236.01,817.64 1236.01,816.81 	"/>
	<path class="st2" d="M1242.09,810.35h3.87v0.83H1243v1.79c0.14-0.05,0.29-0.08,0.43-0.11c0.14-0.02,0.29-0.04,0.43-0.04
		c0.82,0,1.46,0.22,1.93,0.67c0.47,0.44,0.71,1.05,0.71,1.81c0,0.79-0.24,1.4-0.73,1.83c-0.49,0.43-1.18,0.65-2.07,0.65
		c-0.31,0-0.62-0.02-0.94-0.08c-0.32-0.05-0.64-0.13-0.98-0.23v-0.99c0.29,0.16,0.6,0.28,0.91,0.36c0.31,0.08,0.64,0.12,0.99,0.12
		c0.56,0,1.01-0.15,1.34-0.44c0.33-0.3,0.49-0.7,0.49-1.21c0-0.51-0.17-0.91-0.49-1.21c-0.33-0.3-0.78-0.44-1.34-0.44
		c-0.26,0-0.53,0.03-0.79,0.09c-0.26,0.06-0.53,0.15-0.8,0.27V810.35L1242.09,810.35z"/>
	<path class="st2" d="M1250.67,811c-0.51,0-0.89,0.25-1.15,0.75c-0.25,0.5-0.38,1.25-0.38,2.25c0,1,0.13,1.75,0.38,2.25
		c0.26,0.5,0.64,0.75,1.15,0.75c0.51,0,0.89-0.25,1.15-0.75c0.26-0.5,0.39-1.25,0.39-2.25c0-1-0.13-1.75-0.39-2.25
		C1251.57,811.24,1251.18,811,1250.67,811 M1250.67,810.21c0.82,0,1.44,0.32,1.87,0.97c0.43,0.64,0.65,1.58,0.65,2.81
		c0,1.23-0.21,2.16-0.65,2.81c-0.43,0.64-1.05,0.97-1.87,0.97s-1.44-0.32-1.88-0.97c-0.43-0.65-0.64-1.59-0.64-2.81
		c0-1.23,0.21-2.17,0.64-2.81C1249.23,810.54,1249.86,810.21,1250.67,810.21L1250.67,810.21z"/>
	<line class="st1" x1="1371.72" y1="803.1" x2="1371.72" y2="806.6"/>
	<polygon class="st2" points="1363.45,816.81 1365.06,816.81 1365.06,811.24 1363.31,811.6 1363.31,810.7 1365.05,810.35 
		1366.04,810.35 1366.04,816.81 1367.65,816.81 1367.65,817.64 1363.45,817.64 1363.45,816.81 	"/>
	<polygon class="st2" points="1369.27,810.35 1373.96,810.35 1373.96,810.77 1371.31,817.64 1370.28,817.64 1372.77,811.18 
		1369.27,811.18 1369.27,810.35 	"/>
	<path class="st2" d="M1376.01,810.35h3.87v0.83h-2.97v1.79c0.14-0.05,0.29-0.08,0.43-0.11c0.14-0.02,0.29-0.04,0.43-0.04
		c0.82,0,1.46,0.22,1.93,0.67c0.47,0.44,0.71,1.05,0.71,1.81c0,0.79-0.24,1.4-0.73,1.83c-0.49,0.43-1.18,0.65-2.07,0.65
		c-0.31,0-0.62-0.02-0.94-0.08c-0.32-0.05-0.64-0.13-0.98-0.23v-0.99c0.29,0.16,0.6,0.28,0.91,0.36c0.31,0.08,0.64,0.12,0.99,0.12
		c0.56,0,1.01-0.15,1.34-0.44c0.33-0.3,0.49-0.7,0.49-1.21c0-0.51-0.17-0.91-0.49-1.21c-0.33-0.3-0.78-0.44-1.34-0.44
		c-0.26,0-0.53,0.03-0.79,0.09c-0.26,0.06-0.53,0.15-0.8,0.27V810.35L1376.01,810.35z"/>
	<line class="st1" x1="1499.17" y1="803.1" x2="1499.17" y2="806.6"/>
	<path class="st2" d="M1491.57,816.81h3.44v0.83h-4.63v-0.83c0.38-0.39,0.88-0.91,1.53-1.56c0.65-0.65,1.05-1.07,1.22-1.26
		c0.32-0.36,0.54-0.65,0.66-0.9c0.13-0.25,0.19-0.49,0.19-0.73c0-0.39-0.14-0.7-0.41-0.95c-0.27-0.24-0.62-0.37-1.06-0.37
		c-0.31,0-0.63,0.05-0.98,0.16c-0.34,0.11-0.71,0.27-1.1,0.49v-1c0.4-0.16,0.77-0.28,1.11-0.36c0.35-0.08,0.66-0.12,0.95-0.12
		c0.76,0,1.36,0.19,1.81,0.57c0.45,0.38,0.67,0.88,0.67,1.51c0,0.3-0.06,0.59-0.17,0.85c-0.11,0.27-0.31,0.58-0.61,0.95
		c-0.08,0.09-0.34,0.37-0.78,0.82C1492.98,815.37,1492.37,816,1491.57,816.81L1491.57,816.81z"/>
	<path class="st2" d="M1499.07,811c-0.51,0-0.89,0.25-1.15,0.75c-0.25,0.5-0.38,1.25-0.38,2.25c0,1,0.13,1.75,0.38,2.25
		c0.26,0.5,0.64,0.75,1.15,0.75c0.51,0,0.89-0.25,1.15-0.75c0.26-0.5,0.39-1.25,0.39-2.25c0-1-0.13-1.75-0.39-2.25
		C1499.97,811.24,1499.58,811,1499.07,811 M1499.07,810.21c0.82,0,1.44,0.32,1.87,0.97c0.43,0.64,0.65,1.58,0.65,2.81
		c0,1.23-0.21,2.16-0.65,2.81c-0.43,0.64-1.05,0.97-1.87,0.97s-1.44-0.32-1.88-0.97c-0.43-0.65-0.64-1.59-0.64-2.81
		c0-1.23,0.21-2.17,0.64-2.81C1497.63,810.54,1498.26,810.21,1499.07,810.21L1499.07,810.21z"/>
	<path class="st2" d="M1505.55,811c-0.51,0-0.89,0.25-1.15,0.75c-0.25,0.5-0.38,1.25-0.38,2.25c0,1,0.13,1.75,0.38,2.25
		c0.26,0.5,0.64,0.75,1.15,0.75c0.51,0,0.89-0.25,1.15-0.75c0.26-0.5,0.39-1.25,0.39-2.25c0-1-0.13-1.75-0.39-2.25
		C1506.45,811.24,1506.06,811,1505.55,811 M1505.55,810.21c0.82,0,1.44,0.32,1.87,0.97c0.43,0.64,0.65,1.58,0.65,2.81
		c0,1.23-0.21,2.16-0.65,2.81c-0.43,0.64-1.05,0.97-1.87,0.97s-1.44-0.32-1.88-0.97c-0.43-0.65-0.64-1.59-0.64-2.81
		c0-1.23,0.21-2.17,0.64-2.81C1504.11,810.54,1504.74,810.21,1505.55,810.21L1505.55,810.21z"/>
	<path class="st2" d="M968.4,830.72v0.66h-6.2c0.06,0.93,0.34,1.63,0.83,2.12c0.51,0.48,1.2,0.73,2.09,0.73
		c0.52,0,1.02-0.07,1.5-0.19c0.49-0.12,0.97-0.31,1.45-0.57v1.27c-0.48,0.21-0.98,0.36-1.49,0.47s-1.03,0.16-1.55,0.16
		c-1.31,0-2.34-0.38-3.11-1.14c-0.76-0.76-1.14-1.79-1.14-3.09c0-1.34,0.36-2.41,1.08-3.19c0.73-0.79,1.71-1.19,2.94-1.19
		c1.11,0,1.98,0.36,2.61,1.07C968.08,828.54,968.4,829.49,968.4,830.72 M967.06,830.32c-0.01-0.74-0.22-1.33-0.62-1.77
		s-0.93-0.66-1.6-0.66c-0.75,0-1.35,0.21-1.81,0.64c-0.45,0.42-0.71,1.03-0.78,1.79L967.06,830.32L967.06,830.32z"/>
	<path class="st2" d="M972.05,833.93v4.35h-1.35v-11.32h1.35v1.25c0.29-0.49,0.64-0.85,1.07-1.08c0.43-0.24,0.95-0.36,1.55-0.36
		c1,0,1.8,0.4,2.42,1.19s0.94,1.83,0.94,3.12s-0.31,2.33-0.94,3.12s-1.43,1.19-2.42,1.19c-0.6,0-1.12-0.12-1.55-0.35
		C972.69,834.78,972.34,834.42,972.05,833.93 M976.64,831.06c0-0.99-0.21-1.77-0.62-2.33c-0.4-0.56-0.97-0.85-1.68-0.85
		s-1.27,0.29-1.68,0.85c-0.4,0.56-0.61,1.34-0.61,2.33s0.21,1.77,0.61,2.34c0.41,0.56,0.97,0.84,1.68,0.84s1.27-0.28,1.68-0.84
		C976.43,832.83,976.64,832.05,976.64,831.06L976.64,831.06z"/>
	<path class="st2" d="M983.29,827.9c-0.73,0-1.3,0.29-1.71,0.85s-0.63,1.33-0.63,2.31s0.21,1.76,0.62,2.32s1,0.84,1.72,0.84
		c0.72,0,1.29-0.29,1.71-0.85s0.63-1.34,0.63-2.31s-0.21-1.74-0.63-2.31C984.57,828.18,984,827.9,983.29,827.9 M983.29,826.76
		c1.17,0,2.09,0.38,2.76,1.14s1,1.82,1,3.16c0,1.34-0.34,2.4-1,3.16c-0.67,0.76-1.59,1.14-2.76,1.14c-1.18,0-2.1-0.38-2.77-1.14
		c-0.67-0.77-1-1.82-1-3.16c0-1.35,0.33-2.4,1-3.16S982.11,826.76,983.29,826.76L983.29,826.76z"/>
	<path class="st2" d="M995.37,827.27v1.26c-0.38-0.21-0.76-0.37-1.15-0.47c-0.38-0.11-0.77-0.16-1.16-0.16
		c-0.87,0-1.55,0.28-2.04,0.83c-0.48,0.55-0.73,1.33-0.73,2.33s0.24,1.78,0.73,2.34c0.48,0.55,1.16,0.83,2.04,0.83
		c0.39,0,0.78-0.05,1.16-0.15c0.39-0.11,0.77-0.26,1.15-0.48v1.25c-0.37,0.18-0.77,0.31-1.17,0.4s-0.83,0.13-1.28,0.13
		c-1.24,0-2.22-0.39-2.94-1.16s-1.09-1.82-1.09-3.14c0-1.34,0.37-2.39,1.1-3.16c0.74-0.77,1.74-1.15,3.02-1.15
		c0.42,0,0.82,0.04,1.22,0.13C994.62,826.97,995,827.1,995.37,827.27L995.37,827.27z"/>
	<path class="st2" d="M1004.45,830.21v4.95h-1.35v-4.91c0-0.78-0.15-1.35-0.45-1.74s-0.75-0.58-1.36-0.58c-0.73,0-1.3,0.23-1.72,0.7
		s-0.63,1.1-0.63,1.9v4.64h-1.35v-11.4h1.35v4.47c0.32-0.49,0.7-0.86,1.14-1.11c0.44-0.24,0.94-0.37,1.52-0.37
		c0.94,0,1.66,0.29,2.14,0.88C1004.2,828.21,1004.45,829.07,1004.45,830.21L1004.45,830.21z"/>
	<path class="st2" d="M1012.46,827.2v1.27c-0.38-0.2-0.78-0.34-1.19-0.44s-0.83-0.15-1.27-0.15c-0.67,0-1.17,0.1-1.51,0.31
		c-0.33,0.21-0.5,0.51-0.5,0.92c0,0.31,0.12,0.56,0.36,0.74c0.24,0.18,0.72,0.34,1.44,0.51l0.46,0.1c0.96,0.21,1.63,0.5,2.04,0.87
		s0.61,0.89,0.61,1.56c0,0.76-0.3,1.36-0.91,1.81c-0.6,0.45-1.43,0.67-2.48,0.67c-0.44,0-0.9-0.04-1.38-0.13
		c-0.48-0.08-0.97-0.21-1.5-0.38v-1.39c0.5,0.26,0.99,0.45,1.47,0.59c0.48,0.12,0.96,0.19,1.44,0.19c0.64,0,1.12-0.11,1.46-0.32
		c0.34-0.22,0.51-0.53,0.51-0.92c0-0.37-0.12-0.64-0.37-0.84c-0.24-0.2-0.78-0.38-1.62-0.56l-0.47-0.11
		c-0.83-0.18-1.44-0.45-1.81-0.81c-0.37-0.37-0.56-0.86-0.56-1.5c0-0.77,0.27-1.37,0.82-1.79s1.33-0.63,2.33-0.63
		c0.5,0,0.97,0.04,1.41,0.11S1012.08,827.05,1012.46,827.2L1012.46,827.2z"/>
	<line class="st1" x1="428.8" y1="735.57" x2="425.3" y2="735.57"/>
	<path class="st2" d="M396.27,732.76c-0.51,0-0.89,0.25-1.15,0.75c-0.25,0.5-0.38,1.25-0.38,2.25s0.13,1.75,0.38,2.25
		c0.26,0.5,0.64,0.75,1.15,0.75c0.51,0,0.89-0.25,1.15-0.75c0.26-0.5,0.39-1.25,0.39-2.25s-0.13-1.75-0.39-2.25
		C397.17,733,396.78,732.76,396.27,732.76 M396.27,731.97c0.82,0,1.44,0.32,1.87,0.97c0.43,0.64,0.65,1.58,0.65,2.81
		c0,1.23-0.21,2.16-0.65,2.81c-0.43,0.64-1.05,0.97-1.87,0.97c-0.82,0-1.44-0.32-1.88-0.97c-0.43-0.65-0.64-1.59-0.64-2.81
		c0-1.23,0.21-2.17,0.64-2.81C394.83,732.3,395.46,731.97,396.27,731.97L396.27,731.97z"/>
	<polygon class="st2" points="400.64,738.16 401.67,738.16 401.67,739.4 400.64,739.4 400.64,738.16 	"/>
	<path class="st2" d="M405.87,732.76c-0.51,0-0.89,0.25-1.15,0.75c-0.25,0.5-0.38,1.25-0.38,2.25s0.13,1.75,0.38,2.25
		c0.26,0.5,0.64,0.75,1.15,0.75c0.51,0,0.89-0.25,1.15-0.75c0.26-0.5,0.39-1.25,0.39-2.25s-0.13-1.75-0.39-2.25
		C406.77,733,406.38,732.76,405.87,732.76 M405.87,731.97c0.82,0,1.44,0.32,1.87,0.97c0.43,0.64,0.65,1.58,0.65,2.81
		c0,1.23-0.21,2.16-0.65,2.81c-0.43,0.64-1.05,0.97-1.87,0.97c-0.82,0-1.44-0.32-1.88-0.97c-0.43-0.65-0.64-1.59-0.64-2.81
		c0-1.23,0.21-2.17,0.64-2.81C404.43,732.3,405.06,731.97,405.87,731.97L405.87,731.97z"/>
	<path class="st2" d="M412.35,732.76c-0.51,0-0.89,0.25-1.15,0.75c-0.25,0.5-0.38,1.25-0.38,2.25s0.13,1.75,0.38,2.25
		c0.26,0.5,0.64,0.75,1.15,0.75c0.51,0,0.89-0.25,1.15-0.75c0.26-0.5,0.39-1.25,0.39-2.25s-0.13-1.75-0.39-2.25
		C413.25,733,412.86,732.76,412.35,732.76 M412.35,731.97c0.82,0,1.44,0.32,1.87,0.97c0.43,0.64,0.65,1.58,0.65,2.81
		c0,1.23-0.21,2.16-0.65,2.81c-0.43,0.64-1.05,0.97-1.87,0.97c-0.82,0-1.44-0.32-1.88-0.97c-0.43-0.65-0.64-1.59-0.64-2.81
		c0-1.23,0.21-2.17,0.64-2.81C410.91,732.3,411.54,731.97,412.35,731.97L412.35,731.97z"/>
	<path class="st2" d="M416.49,732.11h3.87v0.83h-2.97v1.79c0.14-0.05,0.29-0.08,0.43-0.11c0.14-0.02,0.29-0.04,0.43-0.04
		c0.82,0,1.46,0.22,1.93,0.67c0.47,0.44,0.71,1.05,0.71,1.81c0,0.79-0.24,1.4-0.73,1.83c-0.49,0.43-1.18,0.65-2.07,0.65
		c-0.31,0-0.62-0.02-0.94-0.08c-0.32-0.05-0.64-0.13-0.98-0.23v-0.99c0.29,0.16,0.6,0.28,0.91,0.36c0.31,0.08,0.64,0.12,0.99,0.12
		c0.56,0,1.01-0.15,1.34-0.44c0.33-0.3,0.49-0.7,0.49-1.21s-0.17-0.91-0.49-1.21c-0.33-0.3-0.78-0.44-1.34-0.44
		c-0.26,0-0.53,0.03-0.79,0.09c-0.26,0.06-0.53,0.15-0.8,0.27V732.11L416.49,732.11z"/>
	<line class="st1" x1="428.8" y1="656.92" x2="425.3" y2="656.92"/>
	<path class="st2" d="M396.27,654.04c-0.51,0-0.89,0.25-1.15,0.75c-0.25,0.5-0.38,1.25-0.38,2.25s0.13,1.75,0.38,2.25
		c0.26,0.5,0.64,0.75,1.15,0.75c0.51,0,0.89-0.25,1.15-0.75c0.26-0.5,0.39-1.25,0.39-2.25s-0.13-1.75-0.39-2.25
		C397.17,654.28,396.78,654.04,396.27,654.04 M396.27,653.25c0.82,0,1.44,0.32,1.87,0.97c0.43,0.64,0.65,1.58,0.65,2.81
		c0,1.23-0.21,2.16-0.65,2.81c-0.43,0.64-1.05,0.97-1.87,0.97c-0.82,0-1.44-0.32-1.88-0.97c-0.43-0.65-0.64-1.59-0.64-2.81
		c0-1.23,0.21-2.17,0.64-2.81C394.83,653.58,395.46,653.25,396.27,653.25L396.27,653.25z"/>
	<polygon class="st2" points="400.64,659.44 401.67,659.44 401.67,660.68 400.64,660.68 400.64,659.44 	"/>
	<path class="st2" d="M405.87,654.04c-0.51,0-0.89,0.25-1.15,0.75c-0.25,0.5-0.38,1.25-0.38,2.25s0.13,1.75,0.38,2.25
		c0.26,0.5,0.64,0.75,1.15,0.75c0.51,0,0.89-0.25,1.15-0.75c0.26-0.5,0.39-1.25,0.39-2.25s-0.13-1.75-0.39-2.25
		C406.77,654.28,406.38,654.04,405.87,654.04 M405.87,653.25c0.82,0,1.44,0.32,1.87,0.97c0.43,0.64,0.65,1.58,0.65,2.81
		c0,1.23-0.21,2.16-0.65,2.81c-0.43,0.64-1.05,0.97-1.87,0.97c-0.82,0-1.44-0.32-1.88-0.97c-0.43-0.65-0.64-1.59-0.64-2.81
		c0-1.23,0.21-2.17,0.64-2.81C404.43,653.58,405.06,653.25,405.87,653.25L405.87,653.25z"/>
	<polygon class="st2" points="410.41,659.85 412.02,659.85 412.02,654.28 410.27,654.64 410.27,653.74 412.01,653.39 413,653.39 
		413,659.85 414.61,659.85 414.61,660.68 410.41,660.68 410.41,659.85 	"/>
	<path class="st2" d="M418.59,654.04c-0.51,0-0.89,0.25-1.15,0.75c-0.25,0.5-0.38,1.25-0.38,2.25s0.13,1.75,0.38,2.25
		c0.26,0.5,0.64,0.75,1.15,0.75c0.51,0,0.89-0.25,1.15-0.75c0.26-0.5,0.39-1.25,0.39-2.25s-0.13-1.75-0.39-2.25
		C419.49,654.28,419.1,654.04,418.59,654.04 M418.59,653.25c0.82,0,1.44,0.32,1.87,0.97c0.43,0.64,0.65,1.58,0.65,2.81
		c0,1.23-0.21,2.16-0.65,2.81c-0.43,0.64-1.05,0.97-1.87,0.97c-0.82,0-1.44-0.32-1.88-0.97c-0.43-0.65-0.64-1.59-0.64-2.81
		c0-1.23,0.21-2.17,0.64-2.81C417.15,653.58,417.78,653.25,418.59,653.25L418.59,653.25z"/>
	<line class="st1" x1="428.8" y1="578.27" x2="425.3" y2="578.27"/>
	<path class="st2" d="M396.27,575.32c-0.51,0-0.89,0.25-1.15,0.75c-0.25,0.5-0.38,1.25-0.38,2.25s0.13,1.75,0.38,2.25
		c0.26,0.5,0.64,0.75,1.15,0.75c0.51,0,0.89-0.25,1.15-0.75c0.26-0.5,0.39-1.25,0.39-2.25s-0.13-1.75-0.39-2.25
		C397.17,575.56,396.78,575.32,396.27,575.32 M396.27,574.53c0.82,0,1.44,0.32,1.87,0.97c0.43,0.64,0.65,1.58,0.65,2.81
		c0,1.23-0.21,2.16-0.65,2.81c-0.43,0.64-1.05,0.97-1.87,0.97c-0.82,0-1.44-0.32-1.88-0.97c-0.43-0.65-0.64-1.59-0.64-2.81
		c0-1.23,0.21-2.17,0.64-2.81C394.83,574.86,395.46,574.53,396.27,574.53L396.27,574.53z"/>
	<polygon class="st2" points="400.64,580.72 401.67,580.72 401.67,581.96 400.64,581.96 400.64,580.72 	"/>
	<path class="st2" d="M405.87,575.32c-0.51,0-0.89,0.25-1.15,0.75c-0.25,0.5-0.38,1.25-0.38,2.25s0.13,1.75,0.38,2.25
		c0.26,0.5,0.64,0.75,1.15,0.75c0.51,0,0.89-0.25,1.15-0.75c0.26-0.5,0.39-1.25,0.39-2.25s-0.13-1.75-0.39-2.25
		C406.77,575.56,406.38,575.32,405.87,575.32 M405.87,574.53c0.82,0,1.44,0.32,1.87,0.97c0.43,0.64,0.65,1.58,0.65,2.81
		c0,1.23-0.21,2.16-0.65,2.81c-0.43,0.64-1.05,0.97-1.87,0.97c-0.82,0-1.44-0.32-1.88-0.97c-0.43-0.65-0.64-1.59-0.64-2.81
		c0-1.23,0.21-2.17,0.64-2.81C404.43,574.86,405.06,574.53,405.87,574.53L405.87,574.53z"/>
	<polygon class="st2" points="410.41,581.13 412.02,581.13 412.02,575.56 410.27,575.92 410.27,575.02 412.01,574.67 413,574.67 
		413,581.13 414.61,581.13 414.61,581.96 410.41,581.96 410.41,581.13 	"/>
	<path class="st2" d="M416.49,574.67h3.87v0.83h-2.97v1.79c0.14-0.05,0.29-0.08,0.43-0.11c0.14-0.02,0.29-0.04,0.43-0.04
		c0.82,0,1.46,0.22,1.93,0.67c0.47,0.44,0.71,1.05,0.71,1.81c0,0.79-0.24,1.4-0.73,1.83c-0.49,0.43-1.18,0.65-2.07,0.65
		c-0.31,0-0.62-0.02-0.94-0.08c-0.32-0.05-0.64-0.13-0.98-0.23v-0.99c0.29,0.16,0.6,0.28,0.91,0.36c0.31,0.08,0.64,0.12,0.99,0.12
		c0.56,0,1.01-0.15,1.34-0.44c0.33-0.3,0.49-0.7,0.49-1.21s-0.17-0.91-0.49-1.21c-0.33-0.3-0.78-0.44-1.34-0.44
		c-0.26,0-0.53,0.03-0.79,0.09c-0.26,0.06-0.53,0.15-0.8,0.27V574.67L416.49,574.67z"/>
	<line class="st1" x1="428.8" y1="499.62" x2="425.3" y2="499.62"/>
	<path class="st2" d="M396.27,496.84c-0.51,0-0.89,0.25-1.15,0.75c-0.25,0.5-0.38,1.25-0.38,2.25s0.13,1.75,0.38,2.25
		c0.26,0.5,0.64,0.75,1.15,0.75c0.51,0,0.89-0.25,1.15-0.75c0.26-0.5,0.39-1.25,0.39-2.25s-0.13-1.75-0.39-2.25
		C397.17,497.08,396.78,496.84,396.27,496.84 M396.27,496.05c0.82,0,1.44,0.32,1.87,0.97c0.43,0.64,0.65,1.58,0.65,2.81
		c0,1.23-0.21,2.16-0.65,2.81c-0.43,0.64-1.05,0.97-1.87,0.97c-0.82,0-1.44-0.32-1.88-0.97c-0.43-0.65-0.64-1.59-0.64-2.81
		c0-1.23,0.21-2.17,0.64-2.81C394.83,496.38,395.46,496.05,396.27,496.05L396.27,496.05z"/>
	<polygon class="st2" points="400.64,502.24 401.67,502.24 401.67,503.48 400.64,503.48 400.64,502.24 	"/>
	<path class="st2" d="M405.87,496.84c-0.51,0-0.89,0.25-1.15,0.75c-0.25,0.5-0.38,1.25-0.38,2.25s0.13,1.75,0.38,2.25
		c0.26,0.5,0.64,0.75,1.15,0.75c0.51,0,0.89-0.25,1.15-0.75c0.26-0.5,0.39-1.25,0.39-2.25s-0.13-1.75-0.39-2.25
		C406.77,497.08,406.38,496.84,405.87,496.84 M405.87,496.05c0.82,0,1.44,0.32,1.87,0.97c0.43,0.64,0.65,1.58,0.65,2.81
		c0,1.23-0.21,2.16-0.65,2.81c-0.43,0.64-1.05,0.97-1.87,0.97c-0.82,0-1.44-0.32-1.88-0.97c-0.43-0.65-0.64-1.59-0.64-2.81
		c0-1.23,0.21-2.17,0.64-2.81C404.43,496.38,405.06,496.05,405.87,496.05L405.87,496.05z"/>
	<path class="st2" d="M411.09,502.65h3.44v0.83h-4.63v-0.83c0.38-0.39,0.88-0.91,1.53-1.56c0.65-0.65,1.05-1.07,1.22-1.26
		c0.32-0.36,0.54-0.65,0.66-0.9c0.13-0.25,0.19-0.49,0.19-0.73c0-0.39-0.14-0.7-0.41-0.95c-0.27-0.24-0.62-0.37-1.06-0.37
		c-0.31,0-0.63,0.05-0.98,0.16c-0.34,0.11-0.71,0.27-1.1,0.49v-1c0.4-0.16,0.77-0.28,1.11-0.36c0.35-0.08,0.66-0.12,0.95-0.12
		c0.76,0,1.36,0.19,1.81,0.57c0.45,0.38,0.67,0.88,0.67,1.51c0,0.3-0.06,0.59-0.17,0.85c-0.11,0.27-0.31,0.58-0.61,0.95
		c-0.08,0.09-0.34,0.37-0.78,0.82C412.5,501.21,411.89,501.84,411.09,502.65L411.09,502.65z"/>
	<path class="st2" d="M418.59,496.84c-0.51,0-0.89,0.25-1.15,0.75c-0.25,0.5-0.38,1.25-0.38,2.25s0.13,1.75,0.38,2.25
		c0.26,0.5,0.64,0.75,1.15,0.75c0.51,0,0.89-0.25,1.15-0.75c0.26-0.5,0.39-1.25,0.39-2.25s-0.13-1.75-0.39-2.25
		C419.49,497.08,419.1,496.84,418.59,496.84 M418.59,496.05c0.82,0,1.44,0.32,1.87,0.97c0.43,0.64,0.65,1.58,0.65,2.81
		c0,1.23-0.21,2.16-0.65,2.81c-0.43,0.64-1.05,0.97-1.87,0.97c-0.82,0-1.44-0.32-1.88-0.97c-0.43-0.65-0.64-1.59-0.64-2.81
		c0-1.23,0.21-2.17,0.64-2.81C417.15,496.38,417.78,496.05,418.59,496.05L418.59,496.05z"/>
	<line class="st1" x1="428.8" y1="420.97" x2="425.3" y2="420.97"/>
	<path class="st2" d="M396.27,418.12c-0.51,0-0.89,0.25-1.15,0.75c-0.25,0.5-0.38,1.25-0.38,2.25s0.13,1.75,0.38,2.25
		c0.26,0.5,0.64,0.75,1.15,0.75c0.51,0,0.89-0.25,1.15-0.75c0.26-0.5,0.39-1.25,0.39-2.25s-0.13-1.75-0.39-2.25
		C397.17,418.36,396.78,418.12,396.27,418.12 M396.27,417.33c0.82,0,1.44,0.32,1.87,0.97c0.43,0.64,0.65,1.58,0.65,2.81
		c0,1.23-0.21,2.16-0.65,2.81c-0.43,0.64-1.05,0.97-1.87,0.97c-0.82,0-1.44-0.32-1.88-0.97c-0.43-0.65-0.64-1.59-0.64-2.81
		c0-1.23,0.21-2.17,0.64-2.81C394.83,417.66,395.46,417.33,396.27,417.33L396.27,417.33z"/>
	<polygon class="st2" points="400.64,423.52 401.67,423.52 401.67,424.76 400.64,424.76 400.64,423.52 	"/>
	<path class="st2" d="M405.87,418.12c-0.51,0-0.89,0.25-1.15,0.75c-0.25,0.5-0.38,1.25-0.38,2.25s0.13,1.75,0.38,2.25
		c0.26,0.5,0.64,0.75,1.15,0.75c0.51,0,0.89-0.25,1.15-0.75c0.26-0.5,0.39-1.25,0.39-2.25s-0.13-1.75-0.39-2.25
		C406.77,418.36,406.38,418.12,405.87,418.12 M405.87,417.33c0.82,0,1.44,0.32,1.87,0.97c0.43,0.64,0.65,1.58,0.65,2.81
		c0,1.23-0.21,2.16-0.65,2.81c-0.43,0.64-1.05,0.97-1.87,0.97c-0.82,0-1.44-0.32-1.88-0.97c-0.43-0.65-0.64-1.59-0.64-2.81
		c0-1.23,0.21-2.17,0.64-2.81C404.43,417.66,405.06,417.33,405.87,417.33L405.87,417.33z"/>
	<path class="st2" d="M411.09,423.93h3.44v0.83h-4.63v-0.83c0.38-0.39,0.88-0.91,1.53-1.56c0.65-0.65,1.05-1.07,1.22-1.26
		c0.32-0.36,0.54-0.65,0.66-0.9c0.13-0.25,0.19-0.49,0.19-0.73c0-0.39-0.14-0.7-0.41-0.95c-0.27-0.24-0.62-0.37-1.06-0.37
		c-0.31,0-0.63,0.05-0.98,0.16c-0.34,0.11-0.71,0.27-1.1,0.49v-1c0.4-0.16,0.77-0.28,1.11-0.36c0.35-0.08,0.66-0.12,0.95-0.12
		c0.76,0,1.36,0.19,1.81,0.57c0.45,0.38,0.67,0.88,0.67,1.51c0,0.3-0.06,0.59-0.17,0.85c-0.11,0.27-0.31,0.58-0.61,0.95
		c-0.08,0.09-0.34,0.37-0.78,0.82C412.5,422.49,411.89,423.12,411.09,423.93L411.09,423.93z"/>
	<path class="st2" d="M416.49,417.47h3.87v0.83h-2.97v1.79c0.14-0.05,0.29-0.08,0.43-0.11c0.14-0.02,0.29-0.04,0.43-0.04
		c0.82,0,1.46,0.22,1.93,0.67c0.47,0.44,0.71,1.05,0.71,1.81c0,0.79-0.24,1.4-0.73,1.83c-0.49,0.43-1.18,0.65-2.07,0.65
		c-0.31,0-0.62-0.02-0.94-0.08c-0.32-0.05-0.64-0.13-0.98-0.23v-0.99c0.29,0.16,0.6,0.28,0.91,0.36c0.31,0.08,0.64,0.12,0.99,0.12
		c0.56,0,1.01-0.15,1.34-0.44c0.33-0.3,0.49-0.7,0.49-1.21s-0.17-0.91-0.49-1.21c-0.33-0.3-0.78-0.44-1.34-0.44
		c-0.26,0-0.53,0.03-0.79,0.09c-0.26,0.06-0.53,0.15-0.8,0.27V417.47L416.49,417.47z"/>
	<line class="st1" x1="428.8" y1="342.33" x2="425.3" y2="342.33"/>
	<path class="st2" d="M396.27,339.4c-0.51,0-0.89,0.25-1.15,0.75c-0.25,0.5-0.38,1.25-0.38,2.25s0.13,1.75,0.38,2.25
		c0.26,0.5,0.64,0.75,1.15,0.75c0.51,0,0.89-0.25,1.15-0.75c0.26-0.5,0.39-1.25,0.39-2.25s-0.13-1.75-0.39-2.25
		C397.17,339.64,396.78,339.4,396.27,339.4 M396.27,338.61c0.82,0,1.44,0.32,1.87,0.97c0.43,0.64,0.65,1.58,0.65,2.81
		c0,1.23-0.21,2.16-0.65,2.81c-0.43,0.64-1.05,0.97-1.87,0.97c-0.82,0-1.44-0.32-1.88-0.97c-0.43-0.65-0.64-1.59-0.64-2.81
		c0-1.23,0.21-2.17,0.64-2.81C394.83,338.94,395.46,338.61,396.27,338.61L396.27,338.61z"/>
	<polygon class="st2" points="400.64,344.8 401.67,344.8 401.67,346.04 400.64,346.04 400.64,344.8 	"/>
	<path class="st2" d="M405.87,339.4c-0.51,0-0.89,0.25-1.15,0.75c-0.25,0.5-0.38,1.25-0.38,2.25s0.13,1.75,0.38,2.25
		c0.26,0.5,0.64,0.75,1.15,0.75c0.51,0,0.89-0.25,1.15-0.75c0.26-0.5,0.39-1.25,0.39-2.25s-0.13-1.75-0.39-2.25
		C406.77,339.64,406.38,339.4,405.87,339.4 M405.87,338.61c0.82,0,1.44,0.32,1.87,0.97c0.43,0.64,0.65,1.58,0.65,2.81
		c0,1.23-0.21,2.16-0.65,2.81c-0.43,0.64-1.05,0.97-1.87,0.97c-0.82,0-1.44-0.32-1.88-0.97c-0.43-0.65-0.64-1.59-0.64-2.81
		c0-1.23,0.21-2.17,0.64-2.81C404.43,338.94,405.06,338.61,405.87,338.61L405.87,338.61z"/>
	<path class="st2" d="M413.23,342.11c0.47,0.1,0.84,0.31,1.1,0.63c0.27,0.32,0.4,0.71,0.4,1.18c0,0.72-0.25,1.27-0.74,1.67
		c-0.49,0.4-1.2,0.59-2.11,0.59c-0.31,0-0.62-0.03-0.95-0.09c-0.32-0.06-0.65-0.15-1-0.27v-0.95c0.27,0.16,0.57,0.28,0.9,0.36
		c0.33,0.08,0.66,0.12,1.02,0.12c0.62,0,1.09-0.12,1.41-0.37c0.33-0.24,0.49-0.6,0.49-1.06c0-0.43-0.15-0.77-0.45-1.01
		c-0.3-0.24-0.72-0.37-1.25-0.37h-0.85v-0.81h0.89c0.48,0,0.85-0.1,1.11-0.29c0.26-0.2,0.39-0.47,0.39-0.84
		c0-0.38-0.13-0.66-0.4-0.86c-0.26-0.2-0.64-0.3-1.14-0.3c-0.27,0-0.56,0.03-0.87,0.09s-0.65,0.15-1.02,0.27v-0.88
		c0.38-0.1,0.72-0.18,1.05-0.23c0.33-0.05,0.64-0.08,0.93-0.08c0.75,0,1.34,0.17,1.78,0.51c0.43,0.34,0.65,0.8,0.65,1.38
		c0,0.41-0.12,0.75-0.35,1.03C413.99,341.81,413.66,342,413.23,342.11L413.23,342.11z"/>
	<path class="st2" d="M418.59,339.4c-0.51,0-0.89,0.25-1.15,0.75c-0.25,0.5-0.38,1.25-0.38,2.25s0.13,1.75,0.38,2.25
		c0.26,0.5,0.64,0.75,1.15,0.75c0.51,0,0.89-0.25,1.15-0.75c0.26-0.5,0.39-1.25,0.39-2.25s-0.13-1.75-0.39-2.25
		C419.49,339.64,419.1,339.4,418.59,339.4 M418.59,338.61c0.82,0,1.44,0.32,1.87,0.97c0.43,0.64,0.65,1.58,0.65,2.81
		c0,1.23-0.21,2.16-0.65,2.81c-0.43,0.64-1.05,0.97-1.87,0.97c-0.82,0-1.44-0.32-1.88-0.97c-0.43-0.65-0.64-1.59-0.64-2.81
		c0-1.23,0.21-2.17,0.64-2.81C417.15,338.94,417.78,338.61,418.59,338.61L418.59,338.61z"/>
	<line class="st1" x1="428.8" y1="263.68" x2="425.3" y2="263.68"/>
	<path class="st2" d="M396.27,260.92c-0.51,0-0.89,0.25-1.15,0.75c-0.25,0.5-0.38,1.25-0.38,2.25s0.13,1.75,0.38,2.25
		c0.26,0.5,0.64,0.75,1.15,0.75c0.51,0,0.89-0.25,1.15-0.75c0.26-0.5,0.39-1.25,0.39-2.25s-0.13-1.75-0.39-2.25
		C397.17,261.16,396.78,260.92,396.27,260.92 M396.27,260.13c0.82,0,1.44,0.32,1.87,0.97c0.43,0.64,0.65,1.58,0.65,2.81
		c0,1.23-0.21,2.16-0.65,2.81c-0.43,0.64-1.05,0.97-1.87,0.97c-0.82,0-1.44-0.32-1.88-0.97c-0.43-0.65-0.64-1.59-0.64-2.81
		c0-1.23,0.21-2.17,0.64-2.81C394.83,260.46,395.46,260.13,396.27,260.13L396.27,260.13z"/>
	<polygon class="st2" points="400.64,266.32 401.67,266.32 401.67,267.56 400.64,267.56 400.64,266.32 	"/>
	<path class="st2" d="M405.87,260.92c-0.51,0-0.89,0.25-1.15,0.75c-0.25,0.5-0.38,1.25-0.38,2.25s0.13,1.75,0.38,2.25
		c0.26,0.5,0.64,0.75,1.15,0.75c0.51,0,0.89-0.25,1.15-0.75c0.26-0.5,0.39-1.25,0.39-2.25s-0.13-1.75-0.39-2.25
		C406.77,261.16,406.38,260.92,405.87,260.92 M405.87,260.13c0.82,0,1.44,0.32,1.87,0.97c0.43,0.64,0.65,1.58,0.65,2.81
		c0,1.23-0.21,2.16-0.65,2.81c-0.43,0.64-1.05,0.97-1.87,0.97c-0.82,0-1.44-0.32-1.88-0.97c-0.43-0.65-0.64-1.59-0.64-2.81
		c0-1.23,0.21-2.17,0.64-2.81C404.43,260.46,405.06,260.13,405.87,260.13L405.87,260.13z"/>
	<path class="st2" d="M413.23,263.63c0.47,0.1,0.84,0.31,1.1,0.63c0.27,0.32,0.4,0.71,0.4,1.18c0,0.72-0.25,1.27-0.74,1.67
		c-0.49,0.4-1.2,0.59-2.11,0.59c-0.31,0-0.62-0.03-0.95-0.09c-0.32-0.06-0.65-0.15-1-0.27v-0.95c0.27,0.16,0.57,0.28,0.9,0.36
		c0.33,0.08,0.66,0.12,1.02,0.12c0.62,0,1.09-0.12,1.41-0.37c0.33-0.24,0.49-0.6,0.49-1.06c0-0.43-0.15-0.77-0.45-1.01
		c-0.3-0.24-0.72-0.37-1.25-0.37h-0.85v-0.81h0.89c0.48,0,0.85-0.1,1.11-0.29c0.26-0.2,0.39-0.47,0.39-0.84
		c0-0.38-0.13-0.66-0.4-0.86c-0.26-0.2-0.64-0.3-1.14-0.3c-0.27,0-0.56,0.03-0.87,0.09s-0.65,0.15-1.02,0.27v-0.88
		c0.38-0.1,0.72-0.18,1.05-0.23c0.33-0.05,0.64-0.08,0.93-0.08c0.75,0,1.34,0.17,1.78,0.51c0.43,0.34,0.65,0.8,0.65,1.38
		c0,0.41-0.12,0.75-0.35,1.03C413.99,263.33,413.66,263.52,413.23,263.63L413.23,263.63z"/>
	<path class="st2" d="M416.49,260.27h3.87v0.83h-2.97v1.79c0.14-0.05,0.29-0.08,0.43-0.11c0.14-0.02,0.29-0.04,0.43-0.04
		c0.82,0,1.46,0.22,1.93,0.67c0.47,0.44,0.71,1.05,0.71,1.81c0,0.79-0.24,1.4-0.73,1.83c-0.49,0.43-1.18,0.65-2.07,0.65
		c-0.31,0-0.62-0.02-0.94-0.08c-0.32-0.05-0.64-0.13-0.98-0.23v-0.99c0.29,0.16,0.6,0.28,0.91,0.36c0.31,0.08,0.64,0.12,0.99,0.12
		c0.56,0,1.01-0.15,1.34-0.44c0.33-0.3,0.49-0.7,0.49-1.21s-0.17-0.91-0.49-1.21c-0.33-0.3-0.78-0.44-1.34-0.44
		c-0.26,0-0.53,0.03-0.79,0.09c-0.26,0.06-0.53,0.15-0.8,0.27V260.27L416.49,260.27z"/>
	<polygon class="st2" points="375.2,545.68 375.2,543.48 382.64,540.69 375.2,537.88 375.2,535.68 386.13,535.68 386.13,537.12 
		376.53,537.12 384.03,539.94 384.03,541.43 376.53,544.25 386.13,544.25 386.13,545.68 375.2,545.68 	"/>
	<path class="st2" d="M375.56,526.41H377c-0.27,0.56-0.47,1.09-0.6,1.59s-0.2,0.98-0.2,1.44c0,0.81,0.15,1.43,0.47,1.87
		c0.31,0.43,0.75,0.65,1.33,0.65c0.48,0,0.85-0.15,1.1-0.43c0.24-0.29,0.44-0.84,0.59-1.66l0.18-0.89c0.21-1.11,0.58-1.92,1.11-2.44
		c0.53-0.53,1.24-0.79,2.12-0.79c1.06,0,1.86,0.36,2.41,1.07s0.82,1.75,0.82,3.12c0,0.52-0.06,1.07-0.18,1.66
		c-0.12,0.58-0.29,1.19-0.52,1.81h-1.52c0.34-0.6,0.59-1.19,0.76-1.77s0.26-1.14,0.26-1.7c0-0.84-0.17-1.49-0.5-1.96
		s-0.81-0.69-1.42-0.69c-0.53,0-0.96,0.17-1.26,0.5s-0.53,0.86-0.68,1.62l-0.18,0.9c-0.22,1.11-0.56,1.9-1.03,2.4
		s-1.12,0.74-1.96,0.74c-0.97,0-1.73-0.34-2.29-1.02s-0.83-1.63-0.83-2.82c0-0.51,0.04-1.03,0.14-1.57S375.37,526.97,375.56,526.41
		L375.56,526.41z"/>
	<polygon class="st2" points="375.2,523.36 375.2,516.45 376.44,516.45 376.44,521.88 379.68,521.88 379.68,516.68 380.93,516.68 
		380.93,521.88 384.89,521.88 384.89,516.32 386.13,516.32 386.13,523.36 375.2,523.36 	"/>
	<polyline class="st3" points="479.53,355.78 484.63,548.76 489.73,671.33 494.83,602.17 499.92,586.49 505.02,602.47 
		510.12,632.42 515.22,642.4 520.32,669.91 525.41,684.34 535.61,714.13 540.71,725.58 545.81,734.47 550.91,740.22 556,747.98 
		561.1,752.71 566.2,753.17 571.3,755.92 576.4,756.13 581.5,758.09 591.69,760.51 596.79,758.5 601.89,759.52 606.99,759.96 
		612.08,760.27 617.18,762.95 622.28,763.13 627.38,761.82 632.48,763.44 637.58,762.52 642.67,764.48 647.77,761.95 652.87,764.46 
		657.97,763.64 668.16,764.42 673.26,761.44 678.36,764.13 683.46,763.29 688.56,761.95 693.66,762.17 698.75,763.61 703.85,760.52 
		708.95,758.31 714.05,757.79 719.15,756.63 724.25,758.87 729.34,753.34 734.44,753.81 739.54,752.55 749.74,750.97 754.83,752.04 
		759.93,749.55 765.03,751.55 770.13,749.39 775.23,751.95 780.33,748.19 785.42,750.18 790.52,746.99 795.62,750.31 800.72,750.43 
		805.82,749.12 810.91,753.47 816.01,751.45 821.11,753.35 826.21,749.02 831.31,751.95 836.41,752.82 841.5,751.62 846.6,755.56 
		851.7,753.65 856.8,757.69 861.9,753.98 867,751.49 872.09,757.71 877.19,755.83 882.29,758.19 887.39,755.13 892.49,757.89 
		897.58,758.63 902.68,757.79 907.78,755.74 912.88,753.54 917.98,754.46 923.08,756.64 928.17,754.54 933.27,755.86 938.37,755.55 
		943.47,751.17 953.67,753.44 958.76,748.35 963.86,754.01 968.96,750.37 974.06,752.18 979.16,752.36 984.25,752.93 994.45,742.88 
		999.55,753.72 1004.65,744.65 1009.75,742.96 1014.84,748.7 1019.94,754.11 1025.04,745.63 1030.14,743.99 1035.24,741.44 
		1040.33,742.32 1045.43,747.59 1050.53,746.9 1055.63,747.38 1060.73,743.18 1065.83,743.87 1070.92,741.55 1076.02,740.93 
		1081.12,741.86 1086.22,741.81 1091.32,747.02 1096.42,741.08 1101.51,745.25 1106.61,744.76 1111.71,740.38 1116.81,739.3 
		1121.91,738.76 1127,742.46 1132.1,738.74 1137.2,740.28 1142.3,736.01 1147.4,736.54 1152.5,739.16 1157.59,744.72 
		1162.69,737.36 1167.79,747.73 1172.89,745.93 1177.99,742.54 1183.08,746.94 1188.18,745.3 1193.28,744.62 1198.38,744.9 
		1203.48,746.92 1208.58,749.18 1213.67,744.13 1218.77,748.67 1223.87,755.71 1228.97,750.96 1234.07,748.21 1239.17,747.62 
		1244.26,752.56 1249.36,748.64 1254.46,753.6 1259.56,751.16 1264.66,750.55 1269.75,751.75 1274.85,751.84 1279.95,748.15 
		1285.05,750.34 1290.15,755.91 1295.25,757.49 1300.34,752.79 1305.44,754.79 1310.54,754.58 1315.64,748.31 1320.74,756.85 
		1325.83,757.46 1330.93,755.33 1336.03,760.18 1341.13,755.07 1346.23,756.86 1351.33,750.14 1356.42,763.71 1361.52,757.71 
		1366.62,755.46 1371.72,763.09 1376.82,760.4 1381.92,754.88 1387.01,757.1 1392.11,760.48 1397.21,760.42 1402.31,755.13 
		1407.41,750.49 1412.5,747.78 1417.6,754.45 1422.7,750.47 1427.8,752.62 1432.9,749.6 1438,756.04 1443.09,760.89 1448.19,754.79 
		1453.29,753.95 1458.39,755.8 1463.49,756.09 1468.59,753.33 1473.68,754.57 1478.78,751.15 1483.88,753.74 1488.98,750.08 
		1494.08,748.04 1494.08,748.04 	"/>
	<polygon class="st4" points="479.53,352.78 476.53,358.78 482.53,358.78 	"/>
	<polygon class="st4" points="484.63,545.76 481.63,551.76 487.63,551.76 	"/>
	<polygon class="st4" points="489.73,668.33 486.73,674.33 492.73,674.33 	"/>
	<polygon class="st4" points="494.83,599.17 491.83,605.17 497.83,605.17 	"/>
	<polygon class="st4" points="499.92,583.49 496.92,589.49 502.92,589.49 	"/>
	<polygon class="st4" points="505.02,599.47 502.02,605.47 508.02,605.47 	"/>
	<polygon class="st4" points="510.12,629.42 507.12,635.42 513.12,635.42 	"/>
	<polygon class="st4" points="515.22,639.4 512.22,645.4 518.22,645.4 	"/>
	<polygon class="st4" points="520.32,666.91 517.32,672.91 523.32,672.91 	"/>
	<polygon class="st4" points="525.41,681.34 522.41,687.34 528.41,687.34 	"/>
	<polygon class="st4" points="530.51,696.36 527.51,702.36 533.51,702.36 	"/>
	<polygon class="st4" points="535.61,711.13 532.61,717.13 538.61,717.13 	"/>
	<polygon class="st4" points="540.71,722.58 537.71,728.58 543.71,728.58 	"/>
	<polygon class="st4" points="545.81,731.47 542.81,737.47 548.81,737.47 	"/>
	<polygon class="st4" points="550.91,737.22 547.91,743.22 553.91,743.22 	"/>
	<polygon class="st4" points="556,744.98 553,750.98 559,750.98 	"/>
	<polygon class="st4" points="561.1,749.71 558.1,755.71 564.1,755.71 	"/>
	<polygon class="st4" points="566.2,750.17 563.2,756.17 569.2,756.17 	"/>
	<polygon class="st4" points="571.3,752.92 568.3,758.92 574.3,758.92 	"/>
	<polygon class="st4" points="576.4,753.13 573.4,759.13 579.4,759.13 	"/>
	<polygon class="st4" points="581.49,755.09 578.49,761.09 584.49,761.09 	"/>
	<polygon class="st4" points="586.59,756.27 583.59,762.27 589.59,762.27 	"/>
	<polygon class="st4" points="591.69,757.51 588.69,763.51 594.69,763.51 	"/>
	<polygon class="st4" points="596.79,755.5 593.79,761.5 599.79,761.5 	"/>
	<polygon class="st4" points="601.89,756.52 598.89,762.52 604.89,762.52 	"/>
	<polygon class="st4" points="606.99,756.96 603.99,762.96 609.99,762.96 	"/>
	<polygon class="st4" points="612.08,757.27 609.08,763.27 615.08,763.27 	"/>
	<polygon class="st4" points="617.18,759.95 614.18,765.95 620.18,765.95 	"/>
	<polygon class="st4" points="622.28,760.13 619.28,766.13 625.28,766.13 	"/>
	<polygon class="st4" points="627.38,758.82 624.38,764.82 630.38,764.82 	"/>
	<polygon class="st4" points="632.48,760.44 629.48,766.44 635.48,766.44 	"/>
	<polygon class="st4" points="637.58,759.52 634.58,765.52 640.58,765.52 	"/>
	<polygon class="st4" points="642.67,761.48 639.67,767.48 645.67,767.48 	"/>
	<polygon class="st4" points="647.77,758.95 644.77,764.95 650.77,764.95 	"/>
	<polygon class="st4" points="652.87,761.46 649.87,767.46 655.87,767.46 	"/>
	<polygon class="st4" points="657.97,760.64 654.97,766.64 660.97,766.64 	"/>
	<polygon class="st4" points="663.07,761.03 660.07,767.03 666.07,767.03 	"/>
	<polygon class="st4" points="668.16,761.42 665.16,767.42 671.16,767.42 	"/>
	<polygon class="st4" points="673.26,758.44 670.26,764.44 676.26,764.44 	"/>
	<polygon class="st4" points="678.36,761.13 675.36,767.13 681.36,767.13 	"/>
	<polygon class="st4" points="683.46,760.29 680.46,766.29 686.46,766.29 	"/>
	<polygon class="st4" points="688.56,758.95 685.56,764.95 691.56,764.95 	"/>
	<polygon class="st4" points="693.66,759.17 690.66,765.17 696.66,765.17 	"/>
	<polygon class="st4" points="698.75,760.61 695.75,766.61 701.75,766.61 	"/>
	<polygon class="st4" points="703.85,757.52 700.85,763.52 706.85,763.52 	"/>
	<polygon class="st4" points="708.95,755.31 705.95,761.31 711.95,761.31 	"/>
	<polygon class="st4" points="714.05,754.79 711.05,760.79 717.05,760.79 	"/>
	<polygon class="st4" points="719.15,753.63 716.15,759.63 722.15,759.63 	"/>
	<polygon class="st4" points="724.24,755.87 721.24,761.87 727.24,761.87 	"/>
	<polygon class="st4" points="729.34,750.34 726.34,756.34 732.34,756.34 	"/>
	<polygon class="st4" points="734.44,750.81 731.44,756.81 737.44,756.81 	"/>
	<polygon class="st4" points="739.54,749.55 736.54,755.55 742.54,755.55 	"/>
	<polygon class="st4" points="744.64,748.79 741.64,754.79 747.64,754.79 	"/>
	<polygon class="st4" points="749.74,747.97 746.74,753.97 752.74,753.97 	"/>
	<polygon class="st4" points="754.83,749.04 751.83,755.04 757.83,755.04 	"/>
	<polygon class="st4" points="759.93,746.55 756.93,752.55 762.93,752.55 	"/>
	<polygon class="st4" points="765.03,748.55 762.03,754.55 768.03,754.55 	"/>
	<polygon class="st4" points="770.13,746.39 767.13,752.39 773.13,752.39 	"/>
	<polygon class="st4" points="775.23,748.95 772.23,754.95 778.23,754.95 	"/>
	<polygon class="st4" points="780.33,745.19 777.33,751.19 783.33,751.19 	"/>
	<polygon class="st4" points="785.42,747.18 782.42,753.18 788.42,753.18 	"/>
	<polygon class="st4" points="790.52,743.99 787.52,749.99 793.52,749.99 	"/>
	<polygon class="st4" points="795.62,747.31 792.62,753.31 798.62,753.31 	"/>
	<polygon class="st4" points="800.72,747.43 797.72,753.43 803.72,753.43 	"/>
	<polygon class="st4" points="805.82,746.12 802.82,752.12 808.82,752.12 	"/>
	<polygon class="st4" points="810.91,750.47 807.91,756.47 813.91,756.47 	"/>
	<polygon class="st4" points="816.01,748.45 813.01,754.45 819.01,754.45 	"/>
	<polygon class="st4" points="821.11,750.35 818.11,756.35 824.11,756.35 	"/>
	<polygon class="st4" points="826.21,746.02 823.21,752.02 829.21,752.02 	"/>
	<polygon class="st4" points="831.31,748.95 828.31,754.95 834.31,754.95 	"/>
	<polygon class="st4" points="836.41,749.82 833.41,755.82 839.41,755.82 	"/>
	<polygon class="st4" points="841.5,748.62 838.5,754.62 844.5,754.62 	"/>
	<polygon class="st4" points="846.6,752.56 843.6,758.56 849.6,758.56 	"/>
	<polygon class="st4" points="851.7,750.65 848.7,756.65 854.7,756.65 	"/>
	<polygon class="st4" points="856.8,754.69 853.8,760.69 859.8,760.69 	"/>
	<polygon class="st4" points="861.9,750.98 858.9,756.98 864.9,756.98 	"/>
	<polygon class="st4" points="866.99,748.49 863.99,754.49 869.99,754.49 	"/>
	<polygon class="st4" points="872.09,754.71 869.09,760.71 875.09,760.71 	"/>
	<polygon class="st4" points="877.19,752.83 874.19,758.83 880.19,758.83 	"/>
	<polygon class="st4" points="882.29,755.19 879.29,761.19 885.29,761.19 	"/>
	<polygon class="st4" points="887.39,752.13 884.39,758.13 890.39,758.13 	"/>
	<polygon class="st4" points="892.49,754.89 889.49,760.89 895.49,760.89 	"/>
	<polygon class="st4" points="897.58,755.63 894.58,761.63 900.58,761.63 	"/>
	<polygon class="st4" points="902.68,754.79 899.68,760.79 905.68,760.79 	"/>
	<polygon class="st4" points="907.78,752.74 904.78,758.74 910.78,758.74 	"/>
	<polygon class="st4" points="912.88,750.54 909.88,756.54 915.88,756.54 	"/>
	<polygon class="st4" points="917.98,751.46 914.98,757.46 920.98,757.46 	"/>
	<polygon class="st4" points="923.08,753.64 920.08,759.64 926.08,759.64 	"/>
	<polygon class="st4" points="928.17,751.54 925.17,757.54 931.17,757.54 	"/>
	<polygon class="st4" points="933.27,752.86 930.27,758.86 936.27,758.86 	"/>
	<polygon class="st4" points="938.37,752.55 935.37,758.55 941.37,758.55 	"/>
	<polygon class="st4" points="943.47,748.17 940.47,754.17 946.47,754.17 	"/>
	<polygon class="st4" points="948.57,749.33 945.57,755.33 951.57,755.33 	"/>
	<polygon class="st4" points="953.66,750.44 950.66,756.44 956.66,756.44 	"/>
	<polygon class="st4" points="958.76,745.35 955.76,751.35 961.76,751.35 	"/>
	<polygon class="st4" points="963.86,751.01 960.86,757.01 966.86,757.01 	"/>
	<polygon class="st4" points="968.96,747.37 965.96,753.37 971.96,753.37 	"/>
	<polygon class="st4" points="974.06,749.18 971.06,755.18 977.06,755.18 	"/>
	<polygon class="st4" points="979.16,749.36 976.16,755.36 982.16,755.36 	"/>
	<polygon class="st4" points="984.25,749.93 981.25,755.93 987.25,755.93 	"/>
	<polygon class="st4" points="989.35,744.88 986.35,750.88 992.35,750.88 	"/>
	<polygon class="st4" points="994.45,739.88 991.45,745.88 997.45,745.88 	"/>
	<polygon class="st4" points="999.55,750.72 996.55,756.72 1002.55,756.72 	"/>
	<polygon class="st4" points="1004.65,741.65 1001.65,747.65 1007.65,747.65 	"/>
	<polygon class="st4" points="1009.75,739.96 1006.75,745.96 1012.75,745.96 	"/>
	<polygon class="st4" points="1014.84,745.7 1011.84,751.7 1017.84,751.7 	"/>
	<polygon class="st4" points="1019.94,751.11 1016.94,757.11 1022.94,757.11 	"/>
	<polygon class="st4" points="1025.04,742.63 1022.04,748.63 1028.04,748.63 	"/>
	<polygon class="st4" points="1030.14,740.99 1027.14,746.99 1033.14,746.99 	"/>
	<polygon class="st4" points="1035.24,738.44 1032.24,744.44 1038.24,744.44 	"/>
	<polygon class="st4" points="1040.33,739.32 1037.33,745.32 1043.33,745.32 	"/>
	<polygon class="st4" points="1045.43,744.59 1042.43,750.59 1048.43,750.59 	"/>
	<polygon class="st4" points="1050.53,743.9 1047.53,749.9 1053.53,749.9 	"/>
	<polygon class="st4" points="1055.63,744.38 1052.63,750.38 1058.63,750.38 	"/>
	<polygon class="st4" points="1060.73,740.18 1057.73,746.18 1063.73,746.18 	"/>
	<polygon class="st4" points="1065.83,740.87 1062.83,746.87 1068.83,746.87 	"/>
	<polygon class="st4" points="1070.92,738.55 1067.92,744.55 1073.92,744.55 	"/>
	<polygon class="st4" points="1076.02,737.93 1073.02,743.93 1079.02,743.93 	"/>
	<polygon class="st4" points="1081.12,738.86 1078.12,744.86 1084.12,744.86 	"/>
	<polygon class="st4" points="1086.22,738.81 1083.22,744.81 1089.22,744.81 	"/>
	<polygon class="st4" points="1091.32,744.02 1088.32,750.02 1094.32,750.02 	"/>
	<polygon class="st4" points="1096.41,738.08 1093.41,744.08 1099.41,744.08 	"/>
	<polygon class="st4" points="1101.51,742.25 1098.51,748.25 1104.51,748.25 	"/>
	<polygon class="st4" points="1106.61,741.76 1103.61,747.76 1109.61,747.76 	"/>
	<polygon class="st4" points="1111.71,737.38 1108.71,743.38 1114.71,743.38 	"/>
	<polygon class="st4" points="1116.81,736.3 1113.81,742.3 1119.81,742.3 	"/>
	<polygon class="st4" points="1121.91,735.76 1118.91,741.76 1124.91,741.76 	"/>
	<polygon class="st4" points="1127,739.46 1124,745.46 1130,745.46 	"/>
	<polygon class="st4" points="1132.1,735.74 1129.1,741.74 1135.1,741.74 	"/>
	<polygon class="st4" points="1137.2,737.28 1134.2,743.28 1140.2,743.28 	"/>
	<polygon class="st4" points="1142.3,733.01 1139.3,739.01 1145.3,739.01 	"/>
	<polygon class="st4" points="1147.4,733.54 1144.4,739.54 1150.4,739.54 	"/>
	<polygon class="st4" points="1152.5,736.16 1149.5,742.16 1155.5,742.16 	"/>
	<polygon class="st4" points="1157.59,741.72 1154.59,747.72 1160.59,747.72 	"/>
	<polygon class="st4" points="1162.69,734.36 1159.69,740.36 1165.69,740.36 	"/>
	<polygon class="st4" points="1167.79,744.73 1164.79,750.73 1170.79,750.73 	"/>
	<polygon class="st4" points="1172.89,742.93 1169.89,748.93 1175.89,748.93 	"/>
	<polygon class="st4" points="1177.99,739.54 1174.99,745.54 1180.99,745.54 	"/>
	<polygon class="st4" points="1183.08,743.94 1180.08,749.94 1186.08,749.94 	"/>
	<polygon class="st4" points="1188.18,742.3 1185.18,748.3 1191.18,748.3 	"/>
	<polygon class="st4" points="1193.28,741.62 1190.28,747.62 1196.28,747.62 	"/>
	<polygon class="st4" points="1198.38,741.9 1195.38,747.9 1201.38,747.9 	"/>
	<polygon class="st4" points="1203.48,743.92 1200.48,749.92 1206.48,749.92 	"/>
	<polygon class="st4" points="1208.58,746.18 1205.58,752.18 1211.58,752.18 	"/>
	<polygon class="st4" points="1213.67,741.13 1210.67,747.13 1216.67,747.13 	"/>
	<polygon class="st4" points="1218.77,745.67 1215.77,751.67 1221.77,751.67 	"/>
	<polygon class="st4" points="1223.87,752.71 1220.87,758.71 1226.87,758.71 	"/>
	<polygon class="st4" points="1228.97,747.96 1225.97,753.96 1231.97,753.96 	"/>
	<polygon class="st4" points="1234.07,745.21 1231.07,751.21 1237.07,751.21 	"/>
	<polygon class="st4" points="1239.16,744.62 1236.16,750.62 1242.16,750.62 	"/>
	<polygon class="st4" points="1244.26,749.56 1241.26,755.56 1247.26,755.56 	"/>
	<polygon class="st4" points="1249.36,745.64 1246.36,751.64 1252.36,751.64 	"/>
	<polygon class="st4" points="1254.46,750.6 1251.46,756.6 1257.46,756.6 	"/>
	<polygon class="st4" points="1259.56,748.16 1256.56,754.16 1262.56,754.16 	"/>
	<polygon class="st4" points="1264.66,747.55 1261.66,753.55 1267.66,753.55 	"/>
	<polygon class="st4" points="1269.75,748.75 1266.75,754.75 1272.75,754.75 	"/>
	<polygon class="st4" points="1274.85,748.84 1271.85,754.84 1277.85,754.84 	"/>
	<polygon class="st4" points="1279.95,745.15 1276.95,751.15 1282.95,751.15 	"/>
	<polygon class="st4" points="1285.05,747.34 1282.05,753.34 1288.05,753.34 	"/>
	<polygon class="st4" points="1290.15,752.91 1287.15,758.91 1293.15,758.91 	"/>
	<polygon class="st4" points="1295.25,754.49 1292.25,760.49 1298.25,760.49 	"/>
	<polygon class="st4" points="1300.34,749.79 1297.34,755.79 1303.34,755.79 	"/>
	<polygon class="st4" points="1305.44,751.79 1302.44,757.79 1308.44,757.79 	"/>
	<polygon class="st4" points="1310.54,751.58 1307.54,757.58 1313.54,757.58 	"/>
	<polygon class="st4" points="1315.64,745.31 1312.64,751.31 1318.64,751.31 	"/>
	<polygon class="st4" points="1320.74,753.85 1317.74,759.85 1323.74,759.85 	"/>
	<polygon class="st4" points="1325.83,754.46 1322.83,760.46 1328.83,760.46 	"/>
	<polygon class="st4" points="1330.93,752.33 1327.93,758.33 1333.93,758.33 	"/>
	<polygon class="st4" points="1336.03,757.18 1333.03,763.18 1339.03,763.18 	"/>
	<polygon class="st4" points="1341.13,752.07 1338.13,758.07 1344.13,758.07 	"/>
	<polygon class="st4" points="1346.23,753.86 1343.23,759.86 1349.23,759.86 	"/>
	<polygon class="st4" points="1351.33,747.14 1348.33,753.14 1354.33,753.14 	"/>
	<polygon class="st4" points="1356.42,760.71 1353.42,766.71 1359.42,766.71 	"/>
	<polygon class="st4" points="1361.52,754.71 1358.52,760.71 1364.52,760.71 	"/>
	<polygon class="st4" points="1366.62,752.46 1363.62,758.46 1369.62,758.46 	"/>
	<polygon class="st4" points="1371.72,760.09 1368.72,766.09 1374.72,766.09 	"/>
	<polygon class="st4" points="1376.81,757.4 1373.81,763.4 1379.81,763.4 	"/>
	<polygon class="st4" points="1381.91,751.88 1378.91,757.88 1384.91,757.88 	"/>
	<polygon class="st4" points="1387.01,754.1 1384.01,760.1 1390.01,760.1 	"/>
	<polygon class="st4" points="1392.11,757.48 1389.11,763.48 1395.11,763.48 	"/>
	<polygon class="st4" points="1397.21,757.42 1394.21,763.42 1400.21,763.42 	"/>
	<polygon class="st4" points="1402.31,752.13 1399.31,758.13 1405.31,758.13 	"/>
	<polygon class="st4" points="1407.4,747.49 1404.4,753.49 1410.4,753.49 	"/>
	<polygon class="st4" points="1412.5,744.78 1409.5,750.78 1415.5,750.78 	"/>
	<polygon class="st4" points="1417.6,751.45 1414.6,757.45 1420.6,757.45 	"/>
	<polygon class="st4" points="1422.7,747.47 1419.7,753.47 1425.7,753.47 	"/>
	<polygon class="st4" points="1427.8,749.62 1424.8,755.62 1430.8,755.62 	"/>
	<polygon class="st4" points="1432.89,746.6 1429.89,752.6 1435.89,752.6 	"/>
	<polygon class="st4" points="1437.99,753.04 1434.99,759.04 1440.99,759.04 	"/>
	<polygon class="st4" points="1443.09,757.89 1440.09,763.89 1446.09,763.89 	"/>
	<polygon class="st4" points="1448.19,751.79 1445.19,757.79 1451.19,757.79 	"/>
	<polygon class="st4" points="1453.29,750.95 1450.29,756.95 1456.29,756.95 	"/>
	<polygon class="st4" points="1458.39,752.8 1455.39,758.8 1461.39,758.8 	"/>
	<polygon class="st4" points="1463.48,753.09 1460.48,759.09 1466.48,759.09 	"/>
	<polygon class="st4" points="1468.58,750.33 1465.58,756.33 1471.58,756.33 	"/>
	<polygon class="st4" points="1473.68,751.57 1470.68,757.57 1476.68,757.57 	"/>
	<polygon class="st4" points="1478.78,748.15 1475.78,754.15 1481.78,754.15 	"/>
	<polygon class="st4" points="1483.88,750.74 1480.88,756.74 1486.88,756.74 	"/>
	<polygon class="st4" points="1488.98,747.08 1485.98,753.08 1491.98,753.08 	"/>
	<polygon class="st4" points="1494.07,745.04 1491.07,751.04 1497.07,751.04 	"/>
	<polyline class="st5" points="479.53,507.31 484.63,705.31 489.73,709.79 494.83,724.71 499.92,735.87 505.02,742.75 
		510.12,750.83 515.22,753.54 520.32,757.76 525.41,758.86 530.51,760.17 535.61,761.45 540.71,762.09 545.81,762.25 550.91,761.98 
		556,762.8 561.1,762.87 566.2,763.66 571.3,764.31 576.4,764.48 581.5,763.62 586.59,763.8 591.69,764.02 596.79,765.15 
		601.89,764.63 606.99,765.41 612.08,763.93 617.18,764.5 622.28,765.55 627.38,765.79 632.48,765.99 637.58,765.73 642.67,765.21 
		647.77,764.86 652.87,765.86 657.97,766.38 663.07,765.91 668.16,766.14 673.26,766.71 678.36,768.12 683.46,766.72 688.56,766.78 
		693.66,766.24 698.75,765.7 703.85,767.85 708.95,768.07 714.05,768.42 719.15,766.73 724.25,769.03 729.34,769.57 734.44,768.75 
		739.54,768.6 744.64,770.67 749.74,770.78 754.83,769.43 759.93,768.97 765.03,770.66 770.13,770.95 775.23,769.63 780.33,768.86 
		785.42,770.24 790.52,769.81 795.62,769.46 800.72,770.66 805.82,767.91 810.91,769.97 816.01,769.43 821.11,770.03 826.21,770.17 
		831.31,769.78 836.41,769.28 841.5,769.09 846.6,769.55 851.7,769.78 856.8,767.77 861.9,769.81 867,769.65 872.09,770.82 
		877.19,770.28 882.29,769.72 887.39,771.19 892.49,771.07 897.58,771.35 902.68,770.02 907.78,769.46 912.88,771.2 917.98,770.79 
		923.08,771.65 928.17,770.15 933.27,768.86 938.37,771.05 943.47,769.49 948.57,770.22 953.67,772.07 958.76,770.12 963.86,769.33 
		968.96,770.25 974.06,770.77 979.16,771.59 984.25,771.78 	"/>
	<path class="st6" d="M479.53,507.31v6.5 M479.53,507.31l5.2-3.25 M479.53,507.31l-5.2-3.25"/>
	<path class="st6" d="M484.63,705.31v6.5 M484.63,705.31l5.2-3.25 M484.63,705.31l-5.2-3.25"/>
	<path class="st6" d="M489.73,709.79v6.5 M489.73,709.79l5.2-3.25 M489.73,709.79l-5.2-3.25"/>
	<path class="st6" d="M494.83,724.71v6.5 M494.83,724.71l5.2-3.25 M494.83,724.71l-5.2-3.25"/>
	<path class="st6" d="M499.92,735.87v6.5 M499.92,735.87l5.2-3.25 M499.92,735.87l-5.2-3.25"/>
	<path class="st6" d="M505.02,742.75v6.5 M505.02,742.75l5.2-3.25 M505.02,742.75l-5.2-3.25"/>
	<path class="st6" d="M510.12,750.83v6.5 M510.12,750.83l5.2-3.25 M510.12,750.83l-5.2-3.25"/>
	<path class="st6" d="M515.22,753.54v6.5 M515.22,753.54l5.2-3.25 M515.22,753.54l-5.2-3.25"/>
	<path class="st6" d="M520.32,757.76v6.5 M520.32,757.76l5.2-3.25 M520.32,757.76l-5.2-3.25"/>
	<path class="st6" d="M525.41,758.86v6.5 M525.41,758.86l5.2-3.25 M525.41,758.86l-5.2-3.25"/>
	<path class="st6" d="M530.51,760.17v6.5 M530.51,760.17l5.2-3.25 M530.51,760.17l-5.2-3.25"/>
	<path class="st6" d="M535.61,761.45v6.5 M535.61,761.45l5.2-3.25 M535.61,761.45l-5.2-3.25"/>
	<path class="st6" d="M540.71,762.09v6.5 M540.71,762.09l5.2-3.25 M540.71,762.09l-5.2-3.25"/>
	<path class="st6" d="M545.81,762.25v6.5 M545.81,762.25l5.2-3.25 M545.81,762.25l-5.2-3.25"/>
	<path class="st6" d="M550.91,761.98v6.5 M550.91,761.98l5.2-3.25 M550.91,761.98l-5.2-3.25"/>
	<path class="st6" d="M556,762.8v6.5 M556,762.8l5.2-3.25 M556,762.8l-5.2-3.25"/>
	<path class="st6" d="M561.1,762.87v6.5 M561.1,762.87l5.2-3.25 M561.1,762.87l-5.2-3.25"/>
	<path class="st6" d="M566.2,763.66v6.5 M566.2,763.66l5.2-3.25 M566.2,763.66l-5.2-3.25"/>
	<path class="st6" d="M571.3,764.31v6.5 M571.3,764.31l5.2-3.25 M571.3,764.31l-5.2-3.25"/>
	<path class="st6" d="M576.4,764.48v6.5 M576.4,764.48l5.2-3.25 M576.4,764.48l-5.2-3.25"/>
	<path class="st6" d="M581.49,763.62v6.5 M581.49,763.62l5.2-3.25 M581.49,763.62l-5.2-3.25"/>
	<path class="st6" d="M586.59,763.8v6.5 M586.59,763.8l5.2-3.25 M586.59,763.8l-5.2-3.25"/>
	<path class="st6" d="M591.69,764.02v6.5 M591.69,764.02l5.2-3.25 M591.69,764.02l-5.2-3.25"/>
	<path class="st6" d="M596.79,765.15v6.5 M596.79,765.15l5.2-3.25 M596.79,765.15l-5.2-3.25"/>
	<path class="st6" d="M601.89,764.63v6.5 M601.89,764.63l5.2-3.25 M601.89,764.63l-5.2-3.25"/>
	<path class="st6" d="M606.99,765.41v6.5 M606.99,765.41l5.2-3.25 M606.99,765.41l-5.2-3.25"/>
	<path class="st6" d="M612.08,763.93v6.5 M612.08,763.93l5.2-3.25 M612.08,763.93l-5.2-3.25"/>
	<path class="st6" d="M617.18,764.5v6.5 M617.18,764.5l5.2-3.25 M617.18,764.5l-5.2-3.25"/>
	<path class="st6" d="M622.28,765.55v6.5 M622.28,765.55l5.2-3.25 M622.28,765.55l-5.2-3.25"/>
	<path class="st6" d="M627.38,765.79v6.5 M627.38,765.79l5.2-3.25 M627.38,765.79l-5.2-3.25"/>
	<path class="st6" d="M632.48,765.99v6.5 M632.48,765.99l5.2-3.25 M632.48,765.99l-5.2-3.25"/>
	<path class="st6" d="M637.58,765.73v6.5 M637.58,765.73l5.2-3.25 M637.58,765.73l-5.2-3.25"/>
	<path class="st6" d="M642.67,765.21v6.5 M642.67,765.21l5.2-3.25 M642.67,765.21l-5.2-3.25"/>
	<path class="st6" d="M647.77,764.85v6.5 M647.77,764.85l5.2-3.25 M647.77,764.85l-5.2-3.25"/>
	<path class="st6" d="M652.87,765.86v6.5 M652.87,765.86l5.2-3.25 M652.87,765.86l-5.2-3.25"/>
	<path class="st6" d="M657.97,766.38v6.5 M657.97,766.38l5.2-3.25 M657.97,766.38l-5.2-3.25"/>
	<path class="st6" d="M663.07,765.91v6.5 M663.07,765.91l5.2-3.25 M663.07,765.91l-5.2-3.25"/>
	<path class="st6" d="M668.16,766.14v6.5 M668.16,766.14l5.2-3.25 M668.16,766.14l-5.2-3.25"/>
	<path class="st6" d="M673.26,766.71v6.5 M673.26,766.71l5.2-3.25 M673.26,766.71l-5.2-3.25"/>
	<path class="st6" d="M678.36,768.12v6.5 M678.36,768.12l5.2-3.25 M678.36,768.12l-5.2-3.25"/>
	<path class="st6" d="M683.46,766.72v6.5 M683.46,766.72l5.2-3.25 M683.46,766.72l-5.2-3.25"/>
	<path class="st6" d="M688.56,766.78v6.5 M688.56,766.78l5.2-3.25 M688.56,766.78l-5.2-3.25"/>
	<path class="st6" d="M693.66,766.24v6.5 M693.66,766.24l5.2-3.25 M693.66,766.24l-5.2-3.25"/>
	<path class="st6" d="M698.75,765.7v6.5 M698.75,765.7l5.2-3.25 M698.75,765.7l-5.2-3.25"/>
	<path class="st6" d="M703.85,767.85v6.5 M703.85,767.85l5.2-3.25 M703.85,767.85l-5.2-3.25"/>
	<path class="st6" d="M708.95,768.07v6.5 M708.95,768.07l5.2-3.25 M708.95,768.07l-5.2-3.25"/>
	<path class="st6" d="M714.05,768.42v6.5 M714.05,768.42l5.2-3.25 M714.05,768.42l-5.2-3.25"/>
	<path class="st6" d="M719.15,766.73v6.5 M719.15,766.73l5.2-3.25 M719.15,766.73l-5.2-3.25"/>
	<path class="st6" d="M724.24,769.03v6.5 M724.24,769.03l5.2-3.25 M724.24,769.03l-5.2-3.25"/>
	<path class="st6" d="M729.34,769.57v6.5 M729.34,769.57l5.2-3.25 M729.34,769.57l-5.2-3.25"/>
	<path class="st6" d="M734.44,768.75v6.5 M734.44,768.75l5.2-3.25 M734.44,768.75l-5.2-3.25"/>
	<path class="st6" d="M739.54,768.6v6.5 M739.54,768.6l5.2-3.25 M739.54,768.6l-5.2-3.25"/>
	<path class="st6" d="M744.64,770.67v6.5 M744.64,770.67l5.2-3.25 M744.64,770.67l-5.2-3.25"/>
	<path class="st6" d="M749.74,770.78v6.5 M749.74,770.78l5.2-3.25 M749.74,770.78l-5.2-3.25"/>
	<path class="st6" d="M754.83,769.43v6.5 M754.83,769.43l5.2-3.25 M754.83,769.43l-5.2-3.25"/>
	<path class="st6" d="M759.93,768.97v6.5 M759.93,768.97l5.2-3.25 M759.93,768.97l-5.2-3.25"/>
	<path class="st6" d="M765.03,770.66v6.5 M765.03,770.66l5.2-3.25 M765.03,770.66l-5.2-3.25"/>
	<path class="st6" d="M770.13,770.95v6.5 M770.13,770.95l5.2-3.25 M770.13,770.95l-5.2-3.25"/>
	<path class="st6" d="M775.23,769.63v6.5 M775.23,769.63l5.2-3.25 M775.23,769.63l-5.2-3.25"/>
	<path class="st6" d="M780.33,768.86v6.5 M780.33,768.86l5.2-3.25 M780.33,768.86l-5.2-3.25"/>
	<path class="st6" d="M785.42,770.24v6.5 M785.42,770.24l5.2-3.25 M785.42,770.24l-5.2-3.25"/>
	<path class="st6" d="M790.52,769.81v6.5 M790.52,769.81l5.2-3.25 M790.52,769.81l-5.2-3.25"/>
	<path class="st6" d="M795.62,769.46v6.5 M795.62,769.46l5.2-3.25 M795.62,769.46l-5.2-3.25"/>
	<path class="st6" d="M800.72,770.66v6.5 M800.72,770.66l5.2-3.25 M800.72,770.66l-5.2-3.25"/>
	<path class="st6" d="M805.82,767.91v6.5 M805.82,767.91l5.2-3.25 M805.82,767.91l-5.2-3.25"/>
	<path class="st6" d="M810.91,769.97v6.5 M810.91,769.97l5.2-3.25 M810.91,769.97l-5.2-3.25"/>
	<path class="st6" d="M816.01,769.43v6.5 M816.01,769.43l5.2-3.25 M816.01,769.43l-5.2-3.25"/>
	<path class="st6" d="M821.11,770.03v6.5 M821.11,770.03l5.2-3.25 M821.11,770.03l-5.2-3.25"/>
	<path class="st6" d="M826.21,770.17v6.5 M826.21,770.17l5.2-3.25 M826.21,770.17l-5.2-3.25"/>
	<path class="st6" d="M831.31,769.78v6.5 M831.31,769.78l5.2-3.25 M831.31,769.78l-5.2-3.25"/>
	<path class="st6" d="M836.41,769.28v6.5 M836.41,769.28l5.2-3.25 M836.41,769.28l-5.2-3.25"/>
	<path class="st6" d="M841.5,769.09v6.5 M841.5,769.09l5.2-3.25 M841.5,769.09l-5.2-3.25"/>
	<path class="st6" d="M846.6,769.55v6.5 M846.6,769.55l5.2-3.25 M846.6,769.55l-5.2-3.25"/>
	<path class="st6" d="M851.7,769.78v6.5 M851.7,769.78l5.2-3.25 M851.7,769.78l-5.2-3.25"/>
	<path class="st6" d="M856.8,767.77v6.5 M856.8,767.77l5.2-3.25 M856.8,767.77l-5.2-3.25"/>
	<path class="st6" d="M861.9,769.81v6.5 M861.9,769.81l5.2-3.25 M861.9,769.81l-5.2-3.25"/>
	<path class="st6" d="M866.99,769.65v6.5 M866.99,769.65l5.2-3.25 M866.99,769.65l-5.2-3.25"/>
	<path class="st6" d="M872.09,770.82v6.5 M872.09,770.82l5.2-3.25 M872.09,770.82l-5.2-3.25"/>
	<path class="st6" d="M877.19,770.28v6.5 M877.19,770.28l5.2-3.25 M877.19,770.28l-5.2-3.25"/>
	<path class="st6" d="M882.29,769.72v6.5 M882.29,769.72l5.2-3.25 M882.29,769.72l-5.2-3.25"/>
	<path class="st6" d="M887.39,771.19v6.5 M887.39,771.19l5.2-3.25 M887.39,771.19l-5.2-3.25"/>
	<path class="st6" d="M892.49,771.07v6.5 M892.49,771.07l5.2-3.25 M892.49,771.07l-5.2-3.25"/>
	<path class="st6" d="M897.58,771.35v6.5 M897.58,771.35l5.2-3.25 M897.58,771.35l-5.2-3.25"/>
	<path class="st6" d="M902.68,770.02v6.5 M902.68,770.02l5.2-3.25 M902.68,770.02l-5.2-3.25"/>
	<path class="st6" d="M907.78,769.46v6.5 M907.78,769.46l5.2-3.25 M907.78,769.46l-5.2-3.25"/>
	<path class="st6" d="M912.88,771.2v6.5 M912.88,771.2l5.2-3.25 M912.88,771.2l-5.2-3.25"/>
	<path class="st6" d="M917.98,770.79v6.5 M917.98,770.79l5.2-3.25 M917.98,770.79l-5.2-3.25"/>
	<path class="st6" d="M923.08,771.65v6.5 M923.08,771.65l5.2-3.25 M923.08,771.65l-5.2-3.25"/>
	<path class="st6" d="M928.17,770.15v6.5 M928.17,770.15l5.2-3.25 M928.17,770.15l-5.2-3.25"/>
	<path class="st6" d="M933.27,768.86v6.5 M933.27,768.86l5.2-3.25 M933.27,768.86l-5.2-3.25"/>
	<path class="st6" d="M938.37,771.05v6.5 M938.37,771.05l5.2-3.25 M938.37,771.05l-5.2-3.25"/>
	<path class="st6" d="M943.47,769.49v6.5 M943.47,769.49l5.2-3.25 M943.47,769.49l-5.2-3.25"/>
	<path class="st6" d="M948.57,770.22v6.5 M948.57,770.22l5.2-3.25 M948.57,770.22l-5.2-3.25"/>
	<path class="st6" d="M953.66,772.07v6.5 M953.66,772.07l5.2-3.25 M953.66,772.07l-5.2-3.25"/>
	<path class="st6" d="M958.76,770.12v6.5 M958.76,770.12l5.2-3.25 M958.76,770.12l-5.2-3.25"/>
	<path class="st6" d="M963.86,769.33v6.5 M963.86,769.33l5.2-3.25 M963.86,769.33l-5.2-3.25"/>
	<path class="st6" d="M968.96,770.25v6.5 M968.96,770.25l5.2-3.25 M968.96,770.25l-5.2-3.25"/>
	<path class="st6" d="M974.06,770.77v6.5 M974.06,770.77l5.2-3.25 M974.06,770.77l-5.2-3.25"/>
	<path class="st6" d="M979.16,771.59v6.5 M979.16,771.59l5.2-3.25 M979.16,771.59l-5.2-3.25"/>
	<path class="st6" d="M984.25,771.78v6.5 M984.25,771.78l5.2-3.25 M984.25,771.78l-5.2-3.25"/>
	<polyline class="st7" points="479.53,284.21 484.63,441.9 489.73,441.29 494.83,585.14 499.92,650.35 505.02,666.35 510.12,670.39 
		515.22,673.52 520.32,682.2 525.41,693.97 530.51,703.71 535.61,715.94 540.71,723.33 545.81,734.06 550.91,740.31 556,743.33 
		561.1,746.64 566.2,748.61 571.3,751.8 576.4,749.69 581.5,750.5 586.59,749.89 591.69,749.51 596.79,749.75 601.89,749.52 
		606.99,749.79 612.08,749.18 617.18,749.36 622.28,747.18 627.38,747.33 632.48,746.64 637.58,749.32 642.67,747.39 647.77,748.55 
		652.87,750.31 657.97,753.2 663.07,752.32 668.16,752.17 673.26,754.23 678.36,756.45 683.46,757.12 688.56,754.73 693.66,753.82 
		698.75,754.76 703.85,753.01 708.95,753.33 714.05,754.06 719.15,749.9 724.25,749.22 729.34,751.76 734.44,750.93 739.54,750.88 
		744.64,751.75 749.74,751.19 754.83,752.25 759.93,752.41 765.03,753.44 770.13,756.59 775.23,757.09 780.33,758.09 785.42,757.66 
		790.52,757.69 795.62,759.71 800.72,760.99 805.82,761.72 810.91,763.7 816.01,763.03 821.11,761.07 826.21,762.54 831.31,763.24 
		836.41,763.68 841.5,765.07 846.6,764.91 851.7,767.11 856.8,768.24 861.9,768.8 867,768.1 872.09,767.02 877.19,769.75 
		882.29,768.4 892.49,770.15 897.58,769.68 902.68,770.7 907.78,770.34 912.88,770.6 917.98,770.15 923.08,770.94 928.17,771.55 
		933.27,770.61 938.37,770.44 943.47,771.48 948.57,771.21 953.67,771.52 958.76,771 963.86,772.44 968.96,772.13 974.06,770.59 
		979.16,771.53 984.25,770.5 989.35,768.8 994.45,770.78 999.55,768.68 1004.65,769.33 1009.75,771.92 1014.84,772.13 
		1019.94,769.93 1025.04,770.26 1040.33,773.59 1045.43,771.48 1050.53,769.57 1055.63,771.8 1060.73,771.82 1065.83,771.99 
		1070.92,771.89 1076.02,772.06 1081.12,771.44 1086.22,773.21 1091.32,771.77 1096.42,773.38 1101.51,771.34 1111.71,775.66 
		1116.81,773.96 1121.91,775.11 1127,774.42 1132.1,775.48 1137.2,773.28 1142.3,774.76 1147.4,772.45 1152.5,770 1157.59,774.96 
		1162.69,772.86 1167.79,774.44 1172.89,776.19 1177.99,775.85 1183.08,775.28 1188.18,775.86 1193.28,775.53 1198.38,773.83 
		1203.48,775.84 1208.58,776.19 1213.67,776.73 1218.77,776.69 1223.87,775.59 1228.97,776.7 1234.07,775.57 1239.17,776.84 
		1244.26,775.98 1249.36,775.66 1254.46,776 1259.56,775.96 1264.66,776.35 1269.75,777.48 1274.85,775.49 1279.95,776.79 
		1285.05,775.81 1290.15,776.92 1295.25,777.13 1300.34,777.64 1305.44,777.66 1315.64,777.39 1320.74,777.71 1325.83,776.75 
		1330.93,777.62 1336.03,777.27 1341.13,777.24 1346.23,776.93 1351.33,776.91 1356.42,777.86 1361.52,778.15 1366.62,777.92 
		1376.82,777.13 1381.92,778.06 1387.01,777.61 1392.11,777.6 1397.21,777.78 1402.31,776.88 1407.41,777.72 1412.5,777.25 
		1417.6,777.67 1422.7,777.41 1427.8,775.91 1432.9,778.39 1438,777.64 1448.19,777.38 1453.29,776.15 1458.39,775.16 
		1463.49,770.96 1468.59,771.55 1473.68,773.39 1478.78,769.02 1478.78,769.02 	"/>
	<rect x="479.03" y="283.71" class="st8" width="1" height="1"/>
	<rect x="484.13" y="441.4" class="st8" width="1" height="1"/>
	<rect x="489.23" y="440.79" class="st8" width="1" height="1"/>
	<rect x="494.33" y="584.64" class="st8" width="1" height="1"/>
	<rect x="499.42" y="649.85" class="st8" width="1" height="1"/>
	<rect x="504.52" y="665.85" class="st8" width="1" height="1"/>
	<rect x="509.62" y="669.89" class="st8" width="1" height="1"/>
	<rect x="514.72" y="673.02" class="st8" width="1" height="1"/>
	<rect x="519.82" y="681.7" class="st8" width="1" height="1"/>
	<rect x="524.91" y="693.47" class="st8" width="1" height="1"/>
	<rect x="530.01" y="703.21" class="st8" width="1" height="1"/>
	<rect x="535.11" y="715.44" class="st8" width="1" height="1"/>
	<rect x="540.21" y="722.83" class="st8" width="1" height="1"/>
	<rect x="545.31" y="733.56" class="st8" width="1" height="1"/>
	<rect x="550.41" y="739.81" class="st8" width="1" height="1"/>
	<rect x="555.5" y="742.83" class="st8" width="1" height="1"/>
	<rect x="560.6" y="746.14" class="st8" width="1" height="1"/>
	<rect x="565.7" y="748.11" class="st8" width="1" height="1"/>
	<rect x="570.8" y="751.3" class="st8" width="1" height="1"/>
	<rect x="575.9" y="749.19" class="st8" width="1" height="1"/>
	<rect x="580.99" y="750" class="st8" width="1" height="1"/>
	<rect x="586.09" y="749.39" class="st8" width="1" height="1"/>
	<rect x="591.19" y="749.01" class="st8" width="1" height="1"/>
	<rect x="596.29" y="749.25" class="st8" width="1" height="1"/>
	<rect x="601.39" y="749.02" class="st8" width="1" height="1"/>
	<rect x="606.49" y="749.29" class="st8" width="1" height="1"/>
	<rect x="611.58" y="748.68" class="st8" width="1" height="1"/>
	<rect x="616.68" y="748.86" class="st8" width="1" height="1"/>
	<rect x="621.78" y="746.68" class="st8" width="1" height="1"/>
	<rect x="626.88" y="746.83" class="st8" width="1" height="1"/>
	<rect x="631.98" y="746.14" class="st8" width="1" height="1"/>
	<rect x="637.08" y="748.82" class="st8" width="1" height="1"/>
	<rect x="642.17" y="746.89" class="st8" width="1" height="1"/>
	<rect x="647.27" y="748.05" class="st8" width="1" height="1"/>
	<rect x="652.37" y="749.81" class="st8" width="1" height="1"/>
	<rect x="657.47" y="752.7" class="st8" width="1" height="1"/>
	<rect x="662.57" y="751.82" class="st8" width="1" height="1"/>
	<rect x="667.66" y="751.67" class="st8" width="1" height="1"/>
	<rect x="672.76" y="753.73" class="st8" width="1" height="1"/>
	<rect x="677.86" y="755.95" class="st8" width="1" height="1"/>
	<rect x="682.96" y="756.62" class="st8" width="1" height="1"/>
	<rect x="688.06" y="754.23" class="st8" width="1" height="1"/>
	<rect x="693.16" y="753.32" class="st8" width="1" height="1"/>
	<rect x="698.25" y="754.26" class="st8" width="1" height="1"/>
	<rect x="703.35" y="752.51" class="st8" width="1" height="1"/>
	<rect x="708.45" y="752.83" class="st8" width="1" height="1"/>
	<rect x="713.55" y="753.56" class="st8" width="1" height="1"/>
	<rect x="718.65" y="749.4" class="st8" width="1" height="1"/>
	<rect x="723.74" y="748.72" class="st8" width="1" height="1"/>
	<rect x="728.84" y="751.26" class="st8" width="1" height="1"/>
	<rect x="733.94" y="750.43" class="st8" width="1" height="1"/>
	<rect x="739.04" y="750.38" class="st8" width="1" height="1"/>
	<rect x="744.14" y="751.25" class="st8" width="1" height="1"/>
	<rect x="749.24" y="750.69" class="st8" width="1" height="1"/>
	<rect x="754.33" y="751.75" class="st8" width="1" height="1"/>
	<rect x="759.43" y="751.91" class="st8" width="1" height="1"/>
	<rect x="764.53" y="752.94" class="st8" width="1" height="1"/>
	<rect x="769.63" y="756.09" class="st8" width="1" height="1"/>
	<rect x="774.73" y="756.59" class="st8" width="1" height="1"/>
	<rect x="779.83" y="757.59" class="st8" width="1" height="1"/>
	<rect x="784.92" y="757.16" class="st8" width="1" height="1"/>
	<rect x="790.02" y="757.19" class="st8" width="1" height="1"/>
	<rect x="795.12" y="759.21" class="st8" width="1" height="1"/>
	<rect x="800.22" y="760.49" class="st8" width="1" height="1"/>
	<rect x="805.32" y="761.22" class="st8" width="1" height="1"/>
	<rect x="810.41" y="763.2" class="st8" width="1" height="1"/>
	<rect x="815.51" y="762.53" class="st8" width="1" height="1"/>
	<rect x="820.61" y="760.57" class="st8" width="1" height="1"/>
	<rect x="825.71" y="762.04" class="st8" width="1" height="1"/>
	<rect x="830.81" y="762.74" class="st8" width="1" height="1"/>
	<rect x="835.91" y="763.18" class="st8" width="1" height="1"/>
	<rect x="841" y="764.57" class="st8" width="1" height="1"/>
	<rect x="846.1" y="764.41" class="st8" width="1" height="1"/>
	<rect x="851.2" y="766.61" class="st8" width="1" height="1"/>
	<rect x="856.3" y="767.74" class="st8" width="1" height="1"/>
	<rect x="861.4" y="768.3" class="st8" width="1" height="1"/>
	<rect x="866.49" y="767.6" class="st8" width="1" height="1"/>
	<rect x="871.59" y="766.52" class="st8" width="1" height="1"/>
	<rect x="876.69" y="769.25" class="st8" width="1" height="1"/>
	<rect x="881.79" y="767.9" class="st8" width="1" height="1"/>
	<rect x="886.89" y="768.8" class="st8" width="1" height="1"/>
	<rect x="891.99" y="769.65" class="st8" width="1" height="1"/>
	<rect x="897.08" y="769.18" class="st8" width="1" height="1"/>
	<rect x="902.18" y="770.2" class="st8" width="1" height="1"/>
	<rect x="907.28" y="769.84" class="st8" width="1" height="1"/>
	<rect x="912.38" y="770.1" class="st8" width="1" height="1"/>
	<rect x="917.48" y="769.65" class="st8" width="1" height="1"/>
	<rect x="922.58" y="770.44" class="st8" width="1" height="1"/>
	<rect x="927.67" y="771.05" class="st8" width="1" height="1"/>
	<rect x="932.77" y="770.11" class="st8" width="1" height="1"/>
	<rect x="937.87" y="769.94" class="st8" width="1" height="1"/>
	<rect x="942.97" y="770.98" class="st8" width="1" height="1"/>
	<rect x="948.07" y="770.71" class="st8" width="1" height="1"/>
	<rect x="953.16" y="771.02" class="st8" width="1" height="1"/>
	<rect x="958.26" y="770.5" class="st8" width="1" height="1"/>
	<rect x="963.36" y="771.94" class="st8" width="1" height="1"/>
	<rect x="968.46" y="771.63" class="st8" width="1" height="1"/>
	<rect x="973.56" y="770.09" class="st8" width="1" height="1"/>
	<rect x="978.66" y="771.03" class="st8" width="1" height="1"/>
	<rect x="983.75" y="770" class="st8" width="1" height="1"/>
	<rect x="988.85" y="768.3" class="st8" width="1" height="1"/>
	<rect x="993.95" y="770.28" class="st8" width="1" height="1"/>
	<rect x="999.05" y="768.18" class="st8" width="1" height="1"/>
	<rect x="1004.15" y="768.83" class="st8" width="1" height="1"/>
	<rect x="1009.25" y="771.42" class="st8" width="1" height="1"/>
	<rect x="1014.34" y="771.63" class="st8" width="1" height="1"/>
	<rect x="1019.44" y="769.43" class="st8" width="1" height="1"/>
	<rect x="1024.54" y="769.76" class="st8" width="1" height="1"/>
	<rect x="1029.64" y="770.86" class="st8" width="1" height="1"/>
	<rect x="1034.74" y="772.04" class="st8" width="1" height="1"/>
	<rect x="1039.83" y="773.09" class="st8" width="1" height="1"/>
	<rect x="1044.93" y="770.98" class="st8" width="1" height="1"/>
	<rect x="1050.03" y="769.07" class="st8" width="1" height="1"/>
	<rect x="1055.13" y="771.3" class="st8" width="1" height="1"/>
	<rect x="1060.23" y="771.32" class="st8" width="1" height="1"/>
	<rect x="1065.33" y="771.49" class="st8" width="1" height="1"/>
	<rect x="1070.42" y="771.39" class="st8" width="1" height="1"/>
	<rect x="1075.52" y="771.56" class="st8" width="1" height="1"/>
	<rect x="1080.62" y="770.94" class="st8" width="1" height="1"/>
	<rect x="1085.72" y="772.71" class="st8" width="1" height="1"/>
	<rect x="1090.82" y="771.27" class="st8" width="1" height="1"/>
	<rect x="1095.91" y="772.88" class="st8" width="1" height="1"/>
	<rect x="1101.01" y="770.84" class="st8" width="1" height="1"/>
	<rect x="1106.11" y="772.95" class="st8" width="1" height="1"/>
	<rect x="1111.21" y="775.16" class="st8" width="1" height="1"/>
	<rect x="1116.31" y="773.46" class="st8" width="1" height="1"/>
	<rect x="1121.41" y="774.61" class="st8" width="1" height="1"/>
	<rect x="1126.5" y="773.92" class="st8" width="1" height="1"/>
	<rect x="1131.6" y="774.98" class="st8" width="1" height="1"/>
	<rect x="1136.7" y="772.78" class="st8" width="1" height="1"/>
	<rect x="1141.8" y="774.26" class="st8" width="1" height="1"/>
	<rect x="1146.9" y="771.95" class="st8" width="1" height="1"/>
	<rect x="1152" y="769.5" class="st8" width="1" height="1"/>
	<rect x="1157.09" y="774.46" class="st8" width="1" height="1"/>
	<rect x="1162.19" y="772.36" class="st8" width="1" height="1"/>
	<rect x="1167.29" y="773.94" class="st8" width="1" height="1"/>
	<rect x="1172.39" y="775.69" class="st8" width="1" height="1"/>
	<rect x="1177.49" y="775.35" class="st8" width="1" height="1"/>
	<rect x="1182.58" y="774.78" class="st8" width="1" height="1"/>
	<rect x="1187.68" y="775.36" class="st8" width="1" height="1"/>
	<rect x="1192.78" y="775.03" class="st8" width="1" height="1"/>
	<rect x="1197.88" y="773.33" class="st8" width="1" height="1"/>
	<rect x="1202.98" y="775.34" class="st8" width="1" height="1"/>
	<rect x="1208.08" y="775.69" class="st8" width="1" height="1"/>
	<rect x="1213.17" y="776.23" class="st8" width="1" height="1"/>
	<rect x="1218.27" y="776.19" class="st8" width="1" height="1"/>
	<rect x="1223.37" y="775.09" class="st8" width="1" height="1"/>
	<rect x="1228.47" y="776.2" class="st8" width="1" height="1"/>
	<rect x="1233.57" y="775.07" class="st8" width="1" height="1"/>
	<rect x="1238.66" y="776.34" class="st8" width="1" height="1"/>
	<rect x="1243.76" y="775.48" class="st8" width="1" height="1"/>
	<rect x="1248.86" y="775.16" class="st8" width="1" height="1"/>
	<rect x="1253.96" y="775.5" class="st8" width="1" height="1"/>
	<rect x="1259.06" y="775.46" class="st8" width="1" height="1"/>
	<rect x="1264.16" y="775.85" class="st8" width="1" height="1"/>
	<rect x="1269.25" y="776.98" class="st8" width="1" height="1"/>
	<rect x="1274.35" y="774.99" class="st8" width="1" height="1"/>
	<rect x="1279.45" y="776.29" class="st8" width="1" height="1"/>
	<rect x="1284.55" y="775.31" class="st8" width="1" height="1"/>
	<rect x="1289.65" y="776.42" class="st8" width="1" height="1"/>
	<rect x="1294.75" y="776.63" class="st8" width="1" height="1"/>
	<rect x="1299.84" y="777.14" class="st8" width="1" height="1"/>
	<rect x="1304.94" y="777.16" class="st8" width="1" height="1"/>
	<rect x="1310.04" y="776.98" class="st8" width="1" height="1"/>
	<rect x="1315.14" y="776.89" class="st8" width="1" height="1"/>
	<rect x="1320.24" y="777.21" class="st8" width="1" height="1"/>
	<rect x="1325.33" y="776.25" class="st8" width="1" height="1"/>
	<rect x="1330.43" y="777.12" class="st8" width="1" height="1"/>
	<rect x="1335.53" y="776.77" class="st8" width="1" height="1"/>
	<rect x="1340.63" y="776.74" class="st8" width="1" height="1"/>
	<rect x="1345.73" y="776.43" class="st8" width="1" height="1"/>
	<rect x="1350.83" y="776.41" class="st8" width="1" height="1"/>
	<rect x="1355.92" y="777.36" class="st8" width="1" height="1"/>
	<rect x="1361.02" y="777.65" class="st8" width="1" height="1"/>
	<rect x="1366.12" y="777.42" class="st8" width="1" height="1"/>
	<rect x="1371.22" y="777.04" class="st8" width="1" height="1"/>
	<rect x="1376.31" y="776.63" class="st8" width="1" height="1"/>
	<rect x="1381.41" y="777.56" class="st8" width="1" height="1"/>
	<rect x="1386.51" y="777.11" class="st8" width="1" height="1"/>
	<rect x="1391.61" y="777.1" class="st8" width="1" height="1"/>
	<rect x="1396.71" y="777.28" class="st8" width="1" height="1"/>
	<rect x="1401.81" y="776.38" class="st8" width="1" height="1"/>
	<rect x="1406.9" y="777.22" class="st8" width="1" height="1"/>
	<rect x="1412" y="776.75" class="st8" width="1" height="1"/>
	<rect x="1417.1" y="777.17" class="st8" width="1" height="1"/>
	<rect x="1422.2" y="776.91" class="st8" width="1" height="1"/>
	<rect x="1427.3" y="775.41" class="st8" width="1" height="1"/>
	<rect x="1432.39" y="777.89" class="st8" width="1" height="1"/>
	<rect x="1437.49" y="777.14" class="st8" width="1" height="1"/>
	<rect x="1442.59" y="777" class="st8" width="1" height="1"/>
	<rect x="1447.69" y="776.88" class="st8" width="1" height="1"/>
	<rect x="1452.79" y="775.65" class="st8" width="1" height="1"/>
	<rect x="1457.89" y="774.66" class="st8" width="1" height="1"/>
	<rect x="1462.98" y="770.46" class="st8" width="1" height="1"/>
	<rect x="1468.08" y="771.05" class="st8" width="1" height="1"/>
	<rect x="1473.18" y="772.89" class="st8" width="1" height="1"/>
	<rect x="1478.28" y="768.52" class="st8" width="1" height="1"/>
	<path class="st9" d="M428.8,803.1V259.5 M1544.8,803.1V259.5 M428.8,803.1h1116 M428.8,259.5h1116"/>
	<path class="st2" d="M910.84,248.17v4.01h2.37c0.8,0,1.38-0.16,1.77-0.49c0.39-0.33,0.58-0.83,0.58-1.52s-0.19-1.19-0.58-1.51
		c-0.38-0.33-0.97-0.49-1.77-0.49H910.84 M910.84,243.68v3.3h2.19c0.73,0,1.26-0.13,1.61-0.4c0.36-0.27,0.53-0.69,0.53-1.25
		c0-0.55-0.18-0.97-0.53-1.24c-0.35-0.27-0.89-0.41-1.61-0.41H910.84 M909.36,242.46h3.78c1.13,0,2,0.23,2.61,0.7s0.92,1.14,0.92,2
		c0,0.67-0.15,1.2-0.47,1.6s-0.77,0.64-1.38,0.74c0.73,0.15,1.29,0.48,1.69,0.98c0.4,0.49,0.61,1.11,0.61,1.85
		c0,0.97-0.33,1.73-1,2.26s-1.61,0.8-2.83,0.8h-3.93V242.46L909.36,242.46z"/>
	<path class="st2" d="M923.35,249.27c-1.09,0-1.85,0.12-2.26,0.37s-0.63,0.67-0.63,1.27c0,0.48,0.15,0.86,0.47,1.14
		c0.31,0.28,0.75,0.42,1.29,0.42c0.75,0,1.35-0.26,1.79-0.79c0.45-0.53,0.68-1.24,0.68-2.12v-0.3H923.35 M926.04,248.72v4.68h-1.35
		v-1.25c-0.31,0.5-0.69,0.86-1.15,1.11c-0.46,0.23-1.02,0.35-1.68,0.35c-0.84,0-1.51-0.23-2.01-0.7c-0.49-0.48-0.74-1.11-0.74-1.9
		c0-0.92,0.31-1.62,0.92-2.09c0.62-0.47,1.55-0.7,2.77-0.7h1.89v-0.13c0-0.62-0.21-1.1-0.62-1.44c-0.4-0.34-0.97-0.51-1.71-0.51
		c-0.47,0-0.92,0.06-1.37,0.17s-0.87,0.28-1.28,0.51v-1.25c0.49-0.19,0.97-0.33,1.44-0.42s0.92-0.15,1.35-0.15
		c1.19,0,2.07,0.31,2.66,0.92S926.04,247.46,926.04,248.72L926.04,248.72z"/>
	<path class="st2" d="M933.98,245.44v1.27c-0.38-0.2-0.78-0.34-1.19-0.44s-0.83-0.15-1.27-0.15c-0.67,0-1.17,0.1-1.51,0.31
		c-0.33,0.21-0.5,0.51-0.5,0.92c0,0.31,0.12,0.56,0.36,0.74c0.24,0.18,0.72,0.34,1.44,0.51l0.46,0.1c0.96,0.21,1.63,0.5,2.04,0.87
		s0.61,0.89,0.61,1.56c0,0.76-0.3,1.36-0.91,1.81c-0.6,0.45-1.43,0.67-2.48,0.67c-0.44,0-0.9-0.04-1.38-0.13
		c-0.48-0.08-0.97-0.21-1.5-0.38v-1.39c0.5,0.26,0.99,0.45,1.47,0.59c0.48,0.12,0.96,0.19,1.44,0.19c0.64,0,1.12-0.11,1.46-0.32
		c0.34-0.22,0.51-0.53,0.51-0.92c0-0.37-0.12-0.64-0.37-0.84c-0.24-0.2-0.78-0.38-1.62-0.56l-0.47-0.11
		c-0.83-0.18-1.44-0.45-1.81-0.81c-0.37-0.37-0.56-0.86-0.56-1.5c0-0.77,0.27-1.37,0.82-1.79s1.33-0.63,2.33-0.63
		c0.5,0,0.97,0.04,1.41,0.11S933.6,245.29,933.98,245.44L933.98,245.44z"/>
	<path class="st2" d="M943.44,248.96v0.66h-6.2c0.06,0.93,0.34,1.63,0.83,2.12c0.51,0.48,1.2,0.73,2.09,0.73
		c0.52,0,1.02-0.07,1.5-0.19c0.49-0.12,0.97-0.31,1.45-0.57v1.27c-0.48,0.21-0.98,0.36-1.49,0.47s-1.03,0.16-1.55,0.16
		c-1.31,0-2.34-0.38-3.11-1.14c-0.76-0.76-1.14-1.79-1.14-3.09c0-1.34,0.36-2.41,1.08-3.19c0.73-0.79,1.71-1.19,2.94-1.19
		c1.11,0,1.98,0.36,2.61,1.07C943.12,246.78,943.44,247.73,943.44,248.96 M942.1,248.56c-0.01-0.74-0.22-1.33-0.62-1.77
		s-0.93-0.66-1.6-0.66c-0.75,0-1.35,0.21-1.81,0.64c-0.45,0.42-0.71,1.03-0.78,1.79L942.1,248.56L942.1,248.56z"/>
	<polygon class="st2" points="945.79,242 947.13,242 947.13,253.4 945.79,253.4 945.79,242 	"/>
	<path class="st2" d="M949.87,245.19h1.35v8.2h-1.35V245.19 M949.87,242h1.35v1.71h-1.35V242L949.87,242z"/>
	<path class="st2" d="M961.01,248.45v4.95h-1.35v-4.91c0-0.78-0.15-1.35-0.45-1.74s-0.75-0.58-1.36-0.58c-0.73,0-1.3,0.23-1.72,0.7
		s-0.63,1.1-0.63,1.9v4.64h-1.35v-8.2h1.35v1.27c0.32-0.49,0.7-0.86,1.14-1.11c0.44-0.24,0.94-0.37,1.52-0.37
		c0.94,0,1.66,0.29,2.14,0.88C960.76,246.45,961.01,247.31,961.01,248.45L961.01,248.45z"/>
	<path class="st2" d="M970.56,248.96v0.66h-6.2c0.06,0.93,0.34,1.63,0.83,2.12c0.51,0.48,1.2,0.73,2.09,0.73
		c0.52,0,1.02-0.07,1.5-0.19c0.49-0.12,0.97-0.31,1.45-0.57v1.27c-0.48,0.21-0.98,0.36-1.49,0.47s-1.03,0.16-1.55,0.16
		c-1.31,0-2.34-0.38-3.11-1.14c-0.76-0.76-1.14-1.79-1.14-3.09c0-1.34,0.36-2.41,1.08-3.19c0.73-0.79,1.71-1.19,2.94-1.19
		c1.11,0,1.98,0.36,2.61,1.07C970.24,246.78,970.56,247.73,970.56,248.96 M969.22,248.56c-0.01-0.74-0.22-1.33-0.62-1.77
		s-0.93-0.66-1.6-0.66c-0.75,0-1.35,0.21-1.81,0.64c-0.45,0.42-0.71,1.03-0.78,1.79L969.22,248.56L969.22,248.56z"/>
	<polygon class="st2" points="977.77,242.46 979.97,242.46 982.76,249.9 985.57,242.46 987.77,242.46 987.77,253.4 986.33,253.4 
		986.33,243.79 983.51,251.29 982.02,251.29 979.2,243.79 979.2,253.4 977.77,253.4 977.77,242.46 	"/>
	<path class="st2" d="M993.85,246.14c-0.73,0-1.3,0.29-1.71,0.85s-0.63,1.33-0.63,2.31s0.21,1.76,0.62,2.32s1,0.84,1.72,0.84
		c0.72,0,1.29-0.29,1.71-0.85s0.63-1.34,0.63-2.31s-0.21-1.74-0.63-2.31C995.13,246.42,994.56,246.14,993.85,246.14 M993.85,245
		c1.17,0,2.09,0.38,2.76,1.14s1,1.82,1,3.16c0,1.34-0.34,2.4-1,3.16c-0.67,0.76-1.59,1.14-2.76,1.14c-1.18,0-2.1-0.38-2.77-1.14
		c-0.67-0.77-1-1.82-1-3.16c0-1.35,0.33-2.4,1-3.16S992.67,245,993.85,245L993.85,245z"/>
	<path class="st2" d="M1005.18,246.44V242h1.35v11.4h-1.35v-1.23c-0.29,0.49-0.64,0.85-1.08,1.09c-0.43,0.23-0.94,0.35-1.55,0.35
		c-0.99,0-1.8-0.4-2.42-1.19s-0.93-1.83-0.93-3.12s0.31-2.33,0.93-3.12s1.44-1.19,2.42-1.19c0.61,0,1.12,0.12,1.55,0.36
		C1004.54,245.59,1004.9,245.95,1005.18,246.44 M1000.59,249.3c0,0.99,0.21,1.77,0.61,2.34c0.41,0.56,0.97,0.84,1.68,0.84
		s1.27-0.28,1.68-0.84s0.62-1.35,0.62-2.34s-0.21-1.77-0.62-2.33s-0.97-0.85-1.68-0.85s-1.27,0.29-1.68,0.85
		C1000.8,247.54,1000.59,248.31,1000.59,249.3L1000.59,249.3z"/>
	<path class="st2" d="M1016.16,248.96v0.66h-6.2c0.06,0.93,0.34,1.63,0.83,2.12c0.51,0.48,1.2,0.73,2.09,0.73
		c0.52,0,1.02-0.07,1.5-0.19c0.49-0.12,0.97-0.31,1.45-0.57v1.27c-0.48,0.21-0.98,0.36-1.49,0.47s-1.03,0.16-1.55,0.16
		c-1.31,0-2.34-0.38-3.11-1.14c-0.76-0.76-1.14-1.79-1.14-3.09c0-1.34,0.36-2.41,1.08-3.19c0.73-0.79,1.71-1.19,2.94-1.19
		c1.11,0,1.98,0.36,2.61,1.07C1015.84,246.78,1016.16,247.73,1016.16,248.96 M1014.82,248.56c-0.01-0.74-0.22-1.33-0.62-1.77
		s-0.93-0.66-1.6-0.66c-0.75,0-1.35,0.21-1.81,0.64c-0.45,0.42-0.71,1.03-0.78,1.79L1014.82,248.56L1014.82,248.56z"/>
	<polygon class="st2" points="1018.51,242 1019.85,242 1019.85,253.4 1018.51,253.4 1018.51,242 	"/>
	<path class="st2" d="M1027.82,245.44v1.27c-0.38-0.2-0.78-0.34-1.19-0.44s-0.83-0.15-1.27-0.15c-0.67,0-1.17,0.1-1.51,0.31
		c-0.33,0.21-0.5,0.51-0.5,0.92c0,0.31,0.12,0.56,0.36,0.74c0.24,0.18,0.72,0.34,1.44,0.51l0.46,0.1c0.96,0.21,1.63,0.5,2.04,0.87
		s0.61,0.89,0.61,1.56c0,0.76-0.3,1.36-0.91,1.81c-0.6,0.45-1.43,0.67-2.48,0.67c-0.44,0-0.9-0.04-1.38-0.13
		c-0.48-0.08-0.97-0.21-1.5-0.38v-1.39c0.5,0.26,0.99,0.45,1.47,0.59c0.48,0.12,0.96,0.19,1.44,0.19c0.64,0,1.12-0.11,1.46-0.32
		c0.34-0.22,0.51-0.53,0.51-0.92c0-0.37-0.12-0.64-0.37-0.84c-0.24-0.2-0.78-0.38-1.62-0.56l-0.47-0.11
		c-0.83-0.18-1.44-0.45-1.81-0.81c-0.37-0.37-0.56-0.86-0.56-1.5c0-0.77,0.27-1.37,0.82-1.79s1.33-0.63,2.33-0.63
		c0.5,0,0.97,0.04,1.41,0.11S1027.44,245.29,1027.82,245.44L1027.82,245.44z"/>
	<polygon class="st2" points="1035.36,242.46 1037.57,242.46 1040.36,249.9 1043.17,242.46 1045.37,242.46 1045.37,253.4 
		1043.93,253.4 1043.93,243.79 1041.11,251.29 1039.62,251.29 1036.8,243.79 1036.8,253.4 1035.36,253.4 1035.36,242.46 	"/>
	<path class="st2" d="M1054.88,242.82v1.44c-0.56-0.27-1.09-0.47-1.59-0.6s-0.98-0.2-1.44-0.2c-0.81,0-1.43,0.15-1.87,0.47
		c-0.43,0.31-0.65,0.75-0.65,1.33c0,0.48,0.15,0.85,0.43,1.1c0.29,0.24,0.84,0.44,1.66,0.59l0.89,0.18
		c1.11,0.21,1.92,0.58,2.44,1.11c0.53,0.53,0.79,1.24,0.79,2.12c0,1.06-0.36,1.86-1.07,2.41s-1.75,0.82-3.12,0.82
		c-0.52,0-1.07-0.06-1.66-0.18c-0.58-0.12-1.19-0.29-1.81-0.52v-1.52c0.6,0.34,1.19,0.59,1.77,0.76s1.14,0.26,1.7,0.26
		c0.84,0,1.49-0.17,1.96-0.5s0.69-0.81,0.69-1.42c0-0.53-0.17-0.96-0.5-1.26s-0.86-0.53-1.62-0.68l-0.9-0.18
		c-1.11-0.22-1.9-0.56-2.4-1.03s-0.74-1.12-0.74-1.96c0-0.97,0.34-1.73,1.02-2.29s1.63-0.83,2.82-0.83c0.51,0,1.03,0.04,1.57,0.14
		S1054.32,242.64,1054.88,242.82L1054.88,242.82z"/>
	<polygon class="st2" points="1057.69,242.46 1064.6,242.46 1064.6,243.71 1059.16,243.71 1059.16,246.94 1064.37,246.94 
		1064.37,248.19 1059.16,248.19 1059.16,252.15 1064.73,252.15 1064.73,253.4 1057.69,253.4 1057.69,242.46 	"/>
	<path class="st10" d="M1446.33,337.54h87.97c2,0,3-1,3-3V270c0-2-1-3-3-3h-87.97c-2,0-3,1-3,3v64.55
		C1443.33,336.54,1444.33,337.54,1446.33,337.54L1446.33,337.54z"/>
	<polyline class="st3" points="1449.33,279.14 1464.33,279.14 1479.33,279.14 	"/>
	<polygon class="st4" points="1464.33,276.14 1461.33,282.14 1467.33,282.14 	"/>
	<path class="st2" d="M1500.26,282.8v-2.94h-2.42v-1.22h3.88v4.69c-0.57,0.4-1.2,0.71-1.89,0.92c-0.69,0.21-1.42,0.31-2.2,0.31
		c-1.71,0-3.05-0.5-4.01-1.49c-0.96-1-1.44-2.4-1.44-4.17c0-1.79,0.48-3.18,1.44-4.17c0.97-1,2.31-1.5,4.01-1.5
		c0.71,0,1.39,0.09,2.03,0.26c0.64,0.18,1.24,0.43,1.78,0.78v1.57c-0.55-0.46-1.13-0.81-1.74-1.05s-1.26-0.35-1.94-0.35
		c-1.34,0-2.34,0.37-3.02,1.12c-0.67,0.75-1,1.86-1,3.34c0,1.47,0.34,2.59,1,3.33c0.67,0.75,1.68,1.12,3.02,1.12
		c0.52,0,0.99-0.04,1.4-0.13C1499.57,283.13,1499.93,282.99,1500.26,282.8L1500.26,282.8z"/>
	<path class="st2" d="M1509.51,279.23c0.31,0.11,0.62,0.34,0.92,0.69s0.61,0.83,0.91,1.45l1.5,2.99h-1.59l-1.4-2.81
		c-0.36-0.73-0.71-1.22-1.05-1.46c-0.34-0.24-0.8-0.36-1.38-0.36h-1.61v4.62h-1.48v-10.94h3.34c1.25,0,2.18,0.26,2.8,0.78
		s0.92,1.31,0.92,2.37c0,0.69-0.16,1.26-0.48,1.71C1510.59,278.74,1510.12,279.05,1509.51,279.23 M1505.8,274.64v3.88h1.86
		c0.71,0,1.25-0.16,1.61-0.49c0.37-0.33,0.55-0.82,0.55-1.46s-0.18-1.12-0.55-1.44c-0.36-0.33-0.9-0.49-1.61-0.49H1505.8
		L1505.8,274.64z"/>
	<path class="st2" d="M1514.72,273.42h1.49v6.64c0,1.17,0.21,2.01,0.64,2.53c0.42,0.51,1.11,0.77,2.07,0.77
		c0.94,0,1.63-0.26,2.06-0.77c0.42-0.52,0.64-1.36,0.64-2.53v-6.64h1.49v6.83c0,1.43-0.35,2.5-1.06,3.23
		c-0.7,0.73-1.74,1.09-3.12,1.09c-1.38,0-2.42-0.37-3.13-1.09c-0.7-0.73-1.05-1.8-1.05-3.23V273.42L1514.72,273.42z"/>
	<polyline class="st5" points="1449.33,301.15 1464.33,301.15 1479.33,301.15 	"/>
	<path class="st6" d="M1464.33,301.15v6.5 M1464.33,301.15l5.2-3.25 M1464.33,301.15l-5.2-3.25"/>
	<path class="st2" d="M1497.99,301.31c0.31,0.11,0.62,0.34,0.92,0.69s0.61,0.83,0.91,1.45l1.5,2.99h-1.59l-1.4-2.81
		c-0.36-0.73-0.71-1.22-1.05-1.46c-0.34-0.24-0.8-0.36-1.38-0.36h-1.61v4.62h-1.48V295.5h3.34c1.25,0,2.18,0.26,2.8,0.78
		s0.92,1.31,0.92,2.37c0,0.69-0.16,1.26-0.48,1.71C1499.07,300.82,1498.6,301.13,1497.99,301.31 M1494.28,296.72v3.88h1.86
		c0.71,0,1.25-0.16,1.61-0.49c0.37-0.33,0.55-0.82,0.55-1.46s-0.18-1.12-0.55-1.44c-0.36-0.33-0.9-0.49-1.61-0.49H1494.28
		L1494.28,296.72z"/>
	<polygon class="st2" points="1503.12,295.5 1505.12,295.5 1509.97,304.65 1509.97,295.5 1511.4,295.5 1511.4,306.44 
		1509.41,306.44 1504.56,297.29 1504.56,306.44 1503.12,306.44 1503.12,295.5 	"/>
	<polygon class="st2" points="1514.41,295.5 1516.4,295.5 1521.25,304.65 1521.25,295.5 1522.68,295.5 1522.68,306.44 
		1520.69,306.44 1515.84,297.29 1515.84,306.44 1514.41,306.44 1514.41,295.5 	"/>
	<polyline class="st7" points="1449.33,323.17 1464.33,323.17 1479.33,323.17 	"/>
	<rect x="1463.83" y="322.67" class="st8" width="1" height="1"/>
	<polygon class="st2" points="1492.81,317.58 1494.28,317.58 1494.28,327.27 1499.61,327.27 1499.61,328.52 1492.81,328.52 
		1492.81,317.58 	"/>
	<path class="st2" d="M1507.76,317.94v1.44c-0.56-0.27-1.09-0.47-1.59-0.6s-0.98-0.2-1.44-0.2c-0.81,0-1.43,0.15-1.87,0.47
		c-0.43,0.31-0.65,0.75-0.65,1.33c0,0.48,0.15,0.85,0.43,1.1c0.29,0.24,0.84,0.44,1.66,0.59l0.89,0.18
		c1.11,0.21,1.92,0.58,2.44,1.11c0.53,0.53,0.79,1.24,0.79,2.12c0,1.06-0.36,1.86-1.07,2.41s-1.75,0.82-3.12,0.82
		c-0.52,0-1.07-0.06-1.66-0.18c-0.58-0.12-1.19-0.29-1.81-0.52v-1.52c0.6,0.34,1.19,0.59,1.77,0.76s1.14,0.26,1.7,0.26
		c0.84,0,1.49-0.17,1.96-0.5s0.69-0.81,0.69-1.42c0-0.53-0.17-0.96-0.5-1.26s-0.86-0.53-1.62-0.68l-0.9-0.18
		c-1.11-0.22-1.9-0.56-2.4-1.03s-0.74-1.12-0.74-1.96c0-0.97,0.34-1.73,1.02-2.29s1.63-0.83,2.82-0.83c0.51,0,1.03,0.04,1.57,0.14
		S1507.2,317.76,1507.76,317.94L1507.76,317.94z"/>
	<polygon class="st2" points="1509.29,317.58 1518.54,317.58 1518.54,318.83 1514.66,318.83 1514.66,328.52 1513.17,328.52 
		1513.17,318.83 1509.29,318.83 1509.29,317.58 	"/>
	<polygon class="st2" points="1519.93,317.58 1522.13,317.58 1524.92,325.02 1527.73,317.58 1529.93,317.58 1529.93,328.52 
		1528.49,328.52 1528.49,318.91 1525.67,326.41 1524.18,326.41 1521.36,318.91 1521.36,328.52 1519.93,328.52 1519.93,317.58 	"/>
</g>
</svg>
