<?xml version="1.0" encoding="utf-8"?>
<!-- Generator: Adobe Illustrator 25.2.1, SVG Export Plug-In . SVG Version: 6.00 Build 0)  -->
<svg version="1.1" id="Layer_1" xmlns="http://www.w3.org/2000/svg" xmlns:xlink="http://www.w3.org/1999/xlink" x="0px" y="0px"
	 viewBox="0 0 1920 1080" style="enable-background:new 0 0 1920 1080;" xml:space="preserve">
<style type="text/css">
	.st0{fill:#FFFFFF;}
	.st1{stroke:#000000;stroke-width:0.8;stroke-linejoin:round;stroke-miterlimit:10;}
	.st2{fill-rule:evenodd;clip-rule:evenodd;}
	.st3{fill:none;stroke:#1F77B4;stroke-width:1.5;stroke-linecap:square;stroke-linejoin:round;stroke-miterlimit:10;}
	.st4{fill:#1F77B4;stroke:#1F77B4;stroke-miterlimit:10;}
	.st5{fill:none;stroke:#A52A2A;stroke-width:1.5;stroke-linecap:square;stroke-linejoin:round;stroke-miterlimit:10;}
	.st6{fill:#A52A2A;stroke:#A52A2A;stroke-linejoin:round;stroke-miterlimit:10;}
	.st7{fill:none;stroke:#2E8B57;stroke-width:1.5;stroke-linecap:square;stroke-linejoin:round;stroke-miterlimit:10;}
	.st8{fill:#2E8B57;}
	.st9{fill:none;stroke:#000000;stroke-width:0.8;stroke-linecap:square;stroke-miterlimit:10;}
	.st10{fill:#FFFFFF;stroke:#CCCCCC;stroke-miterlimit:10;}
</style>
<g>
	<rect x="425.43" y="259.5" class="st0" width="1116" height="543.6"/>
	<line class="st1" x1="476.15" y1="803.1" x2="476.15" y2="806.6"/>
	<path class="st2" d="M476.11,811c-0.51,0-0.89,0.25-1.15,0.75c-0.25,0.5-0.38,1.25-0.38,2.25c0,1,0.13,1.75,0.38,2.25
		c0.26,0.5,0.64,0.75,1.15,0.75c0.51,0,0.89-0.25,1.15-0.75c0.26-0.5,0.39-1.25,0.39-2.25c0-1-0.13-1.75-0.39-2.25
		C477.01,811.24,476.63,811,476.11,811 M476.11,810.21c0.82,0,1.44,0.32,1.87,0.97c0.43,0.64,0.65,1.58,0.65,2.81
		c0,1.23-0.21,2.16-0.65,2.81c-0.43,0.64-1.05,0.97-1.87,0.97c-0.82,0-1.44-0.32-1.88-0.97c-0.43-0.65-0.64-1.59-0.64-2.81
		c0-1.23,0.21-2.17,0.64-2.81C474.67,810.54,475.3,810.21,476.11,810.21L476.11,810.21z"/>
	<line class="st1" x1="603.61" y1="803.1" x2="603.61" y2="806.6"/>
	<path class="st2" d="M599.17,816.81h3.44v0.83h-4.63v-0.83c0.38-0.39,0.88-0.91,1.53-1.56c0.65-0.65,1.05-1.07,1.22-1.26
		c0.32-0.36,0.54-0.65,0.66-0.9c0.13-0.25,0.19-0.49,0.19-0.73c0-0.39-0.14-0.7-0.41-0.95c-0.27-0.24-0.63-0.37-1.06-0.37
		c-0.31,0-0.63,0.05-0.98,0.16c-0.34,0.11-0.71,0.27-1.1,0.49v-1c0.4-0.16,0.77-0.28,1.11-0.36c0.35-0.08,0.66-0.12,0.95-0.12
		c0.76,0,1.36,0.19,1.81,0.57c0.45,0.38,0.67,0.88,0.67,1.51c0,0.3-0.06,0.59-0.17,0.85c-0.11,0.27-0.31,0.58-0.61,0.95
		c-0.08,0.09-0.34,0.37-0.78,0.82C600.59,815.37,599.97,816,599.17,816.81L599.17,816.81z"/>
	<path class="st2" d="M604.57,810.35h3.87v0.83h-2.97v1.79c0.14-0.05,0.29-0.08,0.43-0.11c0.14-0.02,0.29-0.04,0.43-0.04
		c0.82,0,1.46,0.22,1.93,0.67c0.47,0.44,0.71,1.05,0.71,1.81c0,0.79-0.24,1.4-0.73,1.83c-0.49,0.43-1.18,0.65-2.07,0.65
		c-0.31,0-0.62-0.02-0.94-0.08c-0.32-0.05-0.64-0.13-0.98-0.23v-0.99c0.29,0.16,0.6,0.28,0.91,0.36c0.31,0.08,0.64,0.12,0.99,0.12
		c0.56,0,1.01-0.15,1.34-0.44c0.33-0.3,0.49-0.7,0.49-1.21c0-0.51-0.17-0.91-0.49-1.21c-0.33-0.3-0.78-0.44-1.34-0.44
		c-0.26,0-0.53,0.03-0.79,0.09c-0.26,0.06-0.53,0.15-0.8,0.27V810.35L604.57,810.35z"/>
	<line class="st1" x1="731.06" y1="803.1" x2="731.06" y2="806.6"/>
	<path class="st2" d="M725.77,810.35h3.87v0.83h-2.97v1.79c0.14-0.05,0.29-0.08,0.43-0.11c0.14-0.02,0.29-0.04,0.43-0.04
		c0.82,0,1.46,0.22,1.93,0.67c0.47,0.44,0.71,1.05,0.71,1.81c0,0.79-0.24,1.4-0.73,1.83c-0.49,0.43-1.18,0.65-2.07,0.65
		c-0.31,0-0.62-0.02-0.94-0.08c-0.32-0.05-0.64-0.13-0.98-0.23v-0.99c0.29,0.16,0.6,0.28,0.91,0.36c0.31,0.08,0.64,0.12,0.99,0.12
		c0.56,0,1.01-0.15,1.34-0.44c0.33-0.3,0.49-0.7,0.49-1.21c0-0.51-0.17-0.91-0.49-1.21c-0.33-0.3-0.78-0.44-1.34-0.44
		c-0.26,0-0.53,0.03-0.79,0.09c-0.26,0.06-0.53,0.15-0.8,0.27V810.35L725.77,810.35z"/>
	<path class="st2" d="M734.35,811c-0.51,0-0.89,0.25-1.15,0.75c-0.25,0.5-0.38,1.25-0.38,2.25c0,1,0.13,1.75,0.38,2.25
		c0.26,0.5,0.64,0.75,1.15,0.75c0.51,0,0.89-0.25,1.15-0.75c0.26-0.5,0.39-1.25,0.39-2.25c0-1-0.13-1.75-0.39-2.25
		C735.25,811.24,734.87,811,734.35,811 M734.35,810.21c0.82,0,1.44,0.32,1.87,0.97c0.43,0.64,0.65,1.58,0.65,2.81
		c0,1.23-0.21,2.16-0.65,2.81c-0.43,0.64-1.05,0.97-1.87,0.97c-0.82,0-1.44-0.32-1.88-0.97c-0.43-0.65-0.64-1.59-0.64-2.81
		c0-1.23,0.21-2.17,0.64-2.81C732.91,810.54,733.54,810.21,734.35,810.21L734.35,810.21z"/>
	<line class="st1" x1="858.52" y1="803.1" x2="858.52" y2="806.6"/>
	<polygon class="st2" points="852.96,810.35 857.64,810.35 857.64,810.77 855,817.64 853.97,817.64 856.46,811.18 852.96,811.18 
		852.96,810.35 	"/>
	<path class="st2" d="M859.69,810.35h3.87v0.83h-2.97v1.79c0.14-0.05,0.29-0.08,0.43-0.11c0.14-0.02,0.29-0.04,0.43-0.04
		c0.82,0,1.46,0.22,1.93,0.67c0.47,0.44,0.71,1.05,0.71,1.81c0,0.79-0.24,1.4-0.73,1.83c-0.49,0.43-1.18,0.65-2.07,0.65
		c-0.31,0-0.62-0.02-0.94-0.08c-0.32-0.05-0.64-0.13-0.98-0.23v-0.99c0.29,0.16,0.6,0.28,0.91,0.36c0.31,0.08,0.64,0.12,0.99,0.12
		c0.56,0,1.01-0.15,1.34-0.44c0.33-0.3,0.49-0.7,0.49-1.21c0-0.51-0.17-0.91-0.49-1.21c-0.33-0.3-0.78-0.44-1.34-0.44
		c-0.26,0-0.53,0.03-0.79,0.09c-0.26,0.06-0.53,0.15-0.8,0.27V810.35L859.69,810.35z"/>
	<line class="st1" x1="985.97" y1="803.1" x2="985.97" y2="806.6"/>
	<polygon class="st2" points="977.7,816.81 979.31,816.81 979.31,811.24 977.55,811.6 977.55,810.7 979.3,810.35 980.28,810.35 
		980.28,816.81 981.89,816.81 981.89,817.64 977.7,817.64 977.7,816.81 	"/>
	<path class="st2" d="M985.87,811c-0.51,0-0.89,0.25-1.15,0.75c-0.25,0.5-0.38,1.25-0.38,2.25c0,1,0.13,1.75,0.38,2.25
		c0.26,0.5,0.64,0.75,1.15,0.75c0.51,0,0.89-0.25,1.15-0.75c0.26-0.5,0.39-1.25,0.39-2.25c0-1-0.13-1.75-0.39-2.25
		C986.77,811.24,986.39,811,985.87,811 M985.87,810.21c0.82,0,1.44,0.32,1.87,0.97c0.43,0.64,0.65,1.58,0.65,2.81
		c0,1.23-0.21,2.16-0.65,2.81c-0.43,0.64-1.05,0.97-1.87,0.97s-1.44-0.32-1.88-0.97c-0.43-0.65-0.64-1.59-0.64-2.81
		c0-1.23,0.21-2.17,0.64-2.81C984.43,810.54,985.06,810.21,985.87,810.21L985.87,810.21z"/>
	<path class="st2" d="M992.35,811c-0.51,0-0.89,0.25-1.15,0.75c-0.25,0.5-0.38,1.25-0.38,2.25c0,1,0.13,1.75,0.38,2.25
		c0.26,0.5,0.64,0.75,1.15,0.75c0.51,0,0.89-0.25,1.15-0.75c0.26-0.5,0.39-1.25,0.39-2.25c0-1-0.13-1.75-0.39-2.25
		C993.25,811.24,992.87,811,992.35,811 M992.35,810.21c0.82,0,1.44,0.32,1.87,0.97c0.43,0.64,0.65,1.58,0.65,2.81
		c0,1.23-0.21,2.16-0.65,2.81c-0.43,0.64-1.05,0.97-1.87,0.97s-1.44-0.32-1.88-0.97c-0.43-0.65-0.64-1.59-0.64-2.81
		c0-1.23,0.21-2.17,0.64-2.81C990.91,810.54,991.54,810.21,992.35,810.21L992.35,810.21z"/>
	<line class="st1" x1="1113.43" y1="803.1" x2="1113.43" y2="806.6"/>
	<polygon class="st2" points="1105.14,816.81 1106.75,816.81 1106.75,811.24 1104.99,811.6 1104.99,810.7 1106.74,810.35 
		1107.72,810.35 1107.72,816.81 1109.33,816.81 1109.33,817.64 1105.14,817.64 1105.14,816.81 	"/>
	<path class="st2" d="M1112.05,816.81h3.44v0.83h-4.63v-0.83c0.38-0.39,0.88-0.91,1.53-1.56c0.65-0.65,1.05-1.07,1.22-1.26
		c0.32-0.36,0.54-0.65,0.66-0.9c0.13-0.25,0.19-0.49,0.19-0.73c0-0.39-0.14-0.7-0.41-0.95c-0.27-0.24-0.62-0.37-1.06-0.37
		c-0.31,0-0.63,0.05-0.98,0.16c-0.34,0.11-0.71,0.27-1.1,0.49v-1c0.4-0.16,0.77-0.28,1.11-0.36c0.35-0.08,0.66-0.12,0.95-0.12
		c0.76,0,1.36,0.19,1.81,0.57c0.45,0.38,0.67,0.88,0.67,1.51c0,0.3-0.06,0.59-0.17,0.85c-0.11,0.27-0.31,0.58-0.61,0.95
		c-0.08,0.09-0.34,0.37-0.78,0.82C1113.47,815.37,1112.85,816,1112.05,816.81L1112.05,816.81z"/>
	<path class="st2" d="M1117.69,810.35h3.87v0.83h-2.97v1.79c0.14-0.05,0.29-0.08,0.43-0.11c0.14-0.02,0.29-0.04,0.43-0.04
		c0.82,0,1.46,0.22,1.93,0.67c0.47,0.44,0.71,1.05,0.71,1.81c0,0.79-0.24,1.4-0.73,1.83c-0.49,0.43-1.18,0.65-2.07,0.65
		c-0.31,0-0.62-0.02-0.94-0.08c-0.32-0.05-0.64-0.13-0.98-0.23v-0.99c0.29,0.16,0.6,0.28,0.91,0.36c0.31,0.08,0.64,0.12,0.99,0.12
		c0.56,0,1.01-0.15,1.34-0.44c0.33-0.3,0.49-0.7,0.49-1.21c0-0.51-0.17-0.91-0.49-1.21c-0.33-0.3-0.78-0.44-1.34-0.44
		c-0.26,0-0.53,0.03-0.79,0.09c-0.26,0.06-0.53,0.15-0.8,0.27V810.35L1117.69,810.35z"/>
	<line class="st1" x1="1240.89" y1="803.1" x2="1240.89" y2="806.6"/>
	<polygon class="st2" points="1232.58,816.81 1234.19,816.81 1234.19,811.24 1232.43,811.6 1232.43,810.7 1234.18,810.35 
		1235.16,810.35 1235.16,816.81 1236.77,816.81 1236.77,817.64 1232.58,817.64 1232.58,816.81 	"/>
	<path class="st2" d="M1238.89,810.35h3.87v0.83h-2.97v1.79c0.14-0.05,0.29-0.08,0.43-0.11c0.14-0.02,0.29-0.04,0.43-0.04
		c0.82,0,1.46,0.22,1.93,0.67c0.47,0.44,0.71,1.05,0.71,1.81c0,0.79-0.24,1.4-0.73,1.83c-0.49,0.43-1.18,0.65-2.07,0.65
		c-0.31,0-0.62-0.02-0.94-0.08c-0.32-0.05-0.64-0.13-0.98-0.23v-0.99c0.29,0.16,0.6,0.28,0.91,0.36c0.31,0.08,0.64,0.12,0.99,0.12
		c0.56,0,1.01-0.15,1.34-0.44c0.33-0.3,0.49-0.7,0.49-1.21c0-0.51-0.17-0.91-0.49-1.21c-0.33-0.3-0.78-0.44-1.34-0.44
		c-0.26,0-0.53,0.03-0.79,0.09c-0.26,0.06-0.53,0.15-0.8,0.27V810.35L1238.89,810.35z"/>
	<path class="st2" d="M1247.23,811c-0.51,0-0.89,0.25-1.15,0.75c-0.25,0.5-0.38,1.25-0.38,2.25c0,1,0.13,1.75,0.38,2.25
		c0.26,0.5,0.64,0.75,1.15,0.75c0.51,0,0.89-0.25,1.15-0.75c0.26-0.5,0.39-1.25,0.39-2.25c0-1-0.13-1.75-0.39-2.25
		C1248.13,811.24,1247.75,811,1247.23,811 M1247.23,810.21c0.82,0,1.44,0.32,1.87,0.97c0.43,0.64,0.65,1.58,0.65,2.81
		c0,1.23-0.21,2.16-0.65,2.81c-0.43,0.64-1.05,0.97-1.87,0.97s-1.44-0.32-1.88-0.97c-0.43-0.65-0.64-1.59-0.64-2.81
		c0-1.23,0.21-2.17,0.64-2.81C1245.79,810.54,1246.42,810.21,1247.23,810.21L1247.23,810.21z"/>
	<line class="st1" x1="1368.34" y1="803.1" x2="1368.34" y2="806.6"/>
	<polygon class="st2" points="1360.02,816.81 1361.63,816.81 1361.63,811.24 1359.87,811.6 1359.87,810.7 1361.62,810.35 
		1362.6,810.35 1362.6,816.81 1364.21,816.81 1364.21,817.64 1360.02,817.64 1360.02,816.81 	"/>
	<polygon class="st2" points="1366.08,810.35 1370.76,810.35 1370.76,810.77 1368.12,817.64 1367.09,817.64 1369.58,811.18 
		1366.08,811.18 1366.08,810.35 	"/>
	<path class="st2" d="M1372.57,810.35h3.87v0.83h-2.97v1.79c0.14-0.05,0.29-0.08,0.43-0.11c0.14-0.02,0.29-0.04,0.43-0.04
		c0.82,0,1.46,0.22,1.93,0.67c0.47,0.44,0.71,1.05,0.71,1.81c0,0.79-0.24,1.4-0.73,1.83c-0.49,0.43-1.18,0.65-2.07,0.65
		c-0.31,0-0.62-0.02-0.94-0.08c-0.32-0.05-0.64-0.13-0.98-0.23v-0.99c0.29,0.16,0.6,0.28,0.91,0.36c0.31,0.08,0.64,0.12,0.99,0.12
		c0.56,0,1.01-0.15,1.34-0.44c0.33-0.3,0.49-0.7,0.49-1.21c0-0.51-0.17-0.91-0.49-1.21c-0.33-0.3-0.78-0.44-1.34-0.44
		c-0.26,0-0.53,0.03-0.79,0.09c-0.26,0.06-0.53,0.15-0.8,0.27V810.35L1372.57,810.35z"/>
	<line class="st1" x1="1495.79" y1="803.1" x2="1495.79" y2="806.6"/>
	<path class="st2" d="M1488.13,816.81h3.44v0.83h-4.63v-0.83c0.38-0.39,0.88-0.91,1.53-1.56c0.65-0.65,1.05-1.07,1.22-1.26
		c0.32-0.36,0.54-0.65,0.66-0.9c0.13-0.25,0.19-0.49,0.19-0.73c0-0.39-0.14-0.7-0.41-0.95c-0.27-0.24-0.62-0.37-1.06-0.37
		c-0.31,0-0.63,0.05-0.98,0.16c-0.34,0.11-0.71,0.27-1.1,0.49v-1c0.4-0.16,0.77-0.28,1.11-0.36c0.35-0.08,0.66-0.12,0.95-0.12
		c0.76,0,1.36,0.19,1.81,0.57c0.45,0.38,0.67,0.88,0.67,1.51c0,0.3-0.06,0.59-0.17,0.85c-0.11,0.27-0.31,0.58-0.61,0.95
		c-0.08,0.09-0.34,0.37-0.78,0.82C1489.55,815.37,1488.93,816,1488.13,816.81L1488.13,816.81z"/>
	<path class="st2" d="M1495.87,811c-0.51,0-0.89,0.25-1.15,0.75c-0.25,0.5-0.38,1.25-0.38,2.25c0,1,0.13,1.75,0.38,2.25
		c0.26,0.5,0.64,0.75,1.15,0.75c0.51,0,0.89-0.25,1.15-0.75c0.26-0.5,0.39-1.25,0.39-2.25c0-1-0.13-1.75-0.39-2.25
		C1496.77,811.24,1496.39,811,1495.87,811 M1495.87,810.21c0.82,0,1.44,0.32,1.87,0.97c0.43,0.64,0.65,1.58,0.65,2.81
		c0,1.23-0.21,2.16-0.65,2.81c-0.43,0.64-1.05,0.97-1.87,0.97s-1.44-0.32-1.88-0.97c-0.43-0.65-0.64-1.59-0.64-2.81
		c0-1.23,0.21-2.17,0.64-2.81C1494.43,810.54,1495.06,810.21,1495.87,810.21L1495.87,810.21z"/>
	<path class="st2" d="M1502.11,811c-0.51,0-0.89,0.25-1.15,0.75c-0.25,0.5-0.38,1.25-0.38,2.25c0,1,0.13,1.75,0.38,2.25
		c0.26,0.5,0.64,0.75,1.15,0.75c0.51,0,0.89-0.25,1.15-0.75c0.26-0.5,0.39-1.25,0.39-2.25c0-1-0.13-1.75-0.39-2.25
		C1503.01,811.24,1502.63,811,1502.11,811 M1502.11,810.21c0.82,0,1.44,0.32,1.87,0.97c0.43,0.64,0.65,1.58,0.65,2.81
		c0,1.23-0.21,2.16-0.65,2.81c-0.43,0.64-1.05,0.97-1.87,0.97s-1.44-0.32-1.88-0.97c-0.43-0.65-0.64-1.59-0.64-2.81
		c0-1.23,0.21-2.17,0.64-2.81C1500.67,810.54,1501.3,810.21,1502.11,810.21L1502.11,810.21z"/>
	<path class="st2" d="M965.21,830.72v0.66h-6.2c0.06,0.93,0.34,1.63,0.83,2.12c0.51,0.48,1.2,0.73,2.09,0.73
		c0.52,0,1.02-0.07,1.5-0.19c0.49-0.12,0.97-0.31,1.45-0.57v1.27c-0.48,0.21-0.98,0.36-1.49,0.47s-1.03,0.16-1.55,0.16
		c-1.31,0-2.34-0.38-3.11-1.14c-0.76-0.76-1.14-1.79-1.14-3.09c0-1.34,0.36-2.41,1.08-3.19c0.73-0.79,1.71-1.19,2.94-1.19
		c1.11,0,1.98,0.36,2.61,1.07C964.88,828.54,965.21,829.49,965.21,830.72 M963.86,830.32c-0.01-0.74-0.22-1.33-0.62-1.77
		s-0.93-0.66-1.6-0.66c-0.75,0-1.35,0.21-1.81,0.64c-0.45,0.42-0.71,1.03-0.78,1.79L963.86,830.32L963.86,830.32z"/>
	<path class="st2" d="M968.61,833.93v4.35h-1.35v-11.32h1.35v1.25c0.29-0.49,0.64-0.85,1.07-1.08c0.43-0.24,0.95-0.36,1.55-0.36
		c1,0,1.8,0.4,2.42,1.19s0.94,1.83,0.94,3.12s-0.31,2.33-0.94,3.12s-1.43,1.19-2.42,1.19c-0.6,0-1.12-0.12-1.55-0.35
		C969.25,834.78,968.9,834.42,968.61,833.93 M973.2,831.06c0-0.99-0.21-1.77-0.62-2.33c-0.4-0.56-0.97-0.85-1.68-0.85
		s-1.27,0.29-1.68,0.85c-0.4,0.56-0.61,1.34-0.61,2.33s0.21,1.77,0.61,2.34c0.41,0.56,0.97,0.84,1.68,0.84s1.27-0.28,1.68-0.84
		C972.99,832.83,973.2,832.05,973.2,831.06L973.2,831.06z"/>
	<path class="st2" d="M980.09,827.9c-0.73,0-1.3,0.29-1.71,0.85s-0.63,1.33-0.63,2.31s0.21,1.76,0.62,2.32s1,0.84,1.72,0.84
		c0.72,0,1.29-0.29,1.71-0.85s0.63-1.34,0.63-2.31s-0.21-1.74-0.63-2.31C981.38,828.18,980.81,827.9,980.09,827.9 M980.09,826.76
		c1.17,0,2.09,0.38,2.76,1.14s1,1.82,1,3.16c0,1.34-0.34,2.4-1,3.16c-0.67,0.76-1.59,1.14-2.76,1.14c-1.18,0-2.1-0.38-2.77-1.14
		c-0.67-0.77-1-1.82-1-3.16c0-1.35,0.33-2.4,1-3.16S978.91,826.76,980.09,826.76L980.09,826.76z"/>
	<path class="st2" d="M991.93,827.27v1.26c-0.38-0.21-0.76-0.37-1.15-0.47c-0.38-0.11-0.77-0.16-1.16-0.16
		c-0.87,0-1.55,0.28-2.04,0.83c-0.48,0.55-0.73,1.33-0.73,2.33s0.24,1.78,0.73,2.34c0.48,0.55,1.16,0.83,2.04,0.83
		c0.39,0,0.78-0.05,1.16-0.15c0.39-0.11,0.77-0.26,1.15-0.48v1.25c-0.37,0.18-0.77,0.31-1.17,0.4s-0.83,0.13-1.28,0.13
		c-1.24,0-2.22-0.39-2.94-1.16s-1.09-1.82-1.09-3.14c0-1.34,0.37-2.39,1.1-3.16c0.74-0.77,1.74-1.15,3.02-1.15
		c0.42,0,0.82,0.04,1.22,0.13C991.18,826.97,991.56,827.1,991.93,827.27L991.93,827.27z"/>
	<path class="st2" d="M1001.01,830.21v4.95h-1.35v-4.91c0-0.78-0.15-1.35-0.45-1.74s-0.75-0.58-1.36-0.58c-0.73,0-1.3,0.23-1.72,0.7
		s-0.63,1.1-0.63,1.9v4.64h-1.35v-11.4h1.35v4.47c0.32-0.49,0.7-0.86,1.14-1.11c0.44-0.24,0.94-0.37,1.52-0.37
		c0.94,0,1.66,0.29,2.14,0.88C1000.77,828.21,1001.01,829.07,1001.01,830.21L1001.01,830.21z"/>
	<path class="st2" d="M1009.02,827.2v1.27c-0.38-0.2-0.78-0.34-1.19-0.44s-0.83-0.15-1.27-0.15c-0.67,0-1.17,0.1-1.51,0.31
		c-0.33,0.21-0.5,0.51-0.5,0.92c0,0.31,0.12,0.56,0.36,0.74c0.24,0.18,0.72,0.34,1.44,0.51l0.46,0.1c0.96,0.21,1.63,0.5,2.04,0.87
		s0.61,0.89,0.61,1.56c0,0.76-0.3,1.36-0.91,1.81c-0.6,0.45-1.43,0.67-2.48,0.67c-0.44,0-0.9-0.04-1.38-0.13
		c-0.48-0.08-0.97-0.21-1.5-0.38v-1.39c0.5,0.26,0.99,0.45,1.47,0.59c0.48,0.12,0.96,0.19,1.44,0.19c0.64,0,1.12-0.11,1.46-0.32
		c0.34-0.22,0.51-0.53,0.51-0.92c0-0.37-0.12-0.64-0.37-0.84c-0.24-0.2-0.78-0.38-1.62-0.56l-0.47-0.11
		c-0.83-0.18-1.44-0.45-1.81-0.81c-0.37-0.37-0.56-0.86-0.56-1.5c0-0.77,0.27-1.37,0.82-1.79s1.33-0.63,2.33-0.63
		c0.5,0,0.97,0.04,1.41,0.11S1008.64,827.05,1009.02,827.2L1009.02,827.2z"/>
	<line class="st1" x1="425.43" y1="793.28" x2="421.93" y2="793.28"/>
	<path class="st2" d="M399.31,790.36c-0.51,0-0.89,0.25-1.15,0.75c-0.25,0.5-0.38,1.25-0.38,2.25s0.13,1.75,0.38,2.25
		c0.26,0.5,0.64,0.75,1.15,0.75c0.51,0,0.89-0.25,1.15-0.75c0.26-0.5,0.39-1.25,0.39-2.25s-0.13-1.75-0.39-2.25
		C400.21,790.6,399.83,790.36,399.31,790.36 M399.31,789.57c0.82,0,1.44,0.32,1.87,0.97c0.43,0.64,0.65,1.58,0.65,2.81
		c0,1.23-0.21,2.16-0.65,2.81c-0.43,0.64-1.05,0.97-1.87,0.97s-1.44-0.32-1.88-0.97c-0.43-0.65-0.64-1.59-0.64-2.81
		c0-1.23,0.21-2.17,0.64-2.81C397.87,789.9,398.5,789.57,399.31,789.57L399.31,789.57z"/>
	<polygon class="st2" points="403.68,795.76 404.71,795.76 404.71,797 403.68,797 403.68,795.76 	"/>
	<path class="st2" d="M408.91,790.36c-0.51,0-0.89,0.25-1.15,0.75c-0.25,0.5-0.38,1.25-0.38,2.25s0.13,1.75,0.38,2.25
		c0.26,0.5,0.64,0.75,1.15,0.75c0.51,0,0.89-0.25,1.15-0.75c0.26-0.5,0.39-1.25,0.39-2.25s-0.13-1.75-0.39-2.25
		C409.81,790.6,409.43,790.36,408.91,790.36 M408.91,789.57c0.82,0,1.44,0.32,1.87,0.97c0.43,0.64,0.65,1.58,0.65,2.81
		c0,1.23-0.21,2.16-0.65,2.81c-0.43,0.64-1.05,0.97-1.87,0.97c-0.82,0-1.44-0.32-1.88-0.97c-0.43-0.65-0.64-1.59-0.64-2.81
		c0-1.23,0.21-2.17,0.64-2.81C407.47,789.9,408.1,789.57,408.91,789.57L408.91,789.57z"/>
	<path class="st2" d="M413.89,796.17h3.44V797h-4.63v-0.83c0.38-0.39,0.88-0.91,1.53-1.56c0.65-0.65,1.05-1.07,1.22-1.26
		c0.32-0.36,0.54-0.65,0.66-0.9c0.13-0.25,0.19-0.49,0.19-0.73c0-0.39-0.14-0.7-0.41-0.95c-0.27-0.24-0.62-0.37-1.06-0.37
		c-0.31,0-0.63,0.05-0.98,0.16c-0.34,0.11-0.71,0.27-1.1,0.49v-1c0.4-0.16,0.77-0.28,1.11-0.36c0.35-0.08,0.66-0.12,0.95-0.12
		c0.76,0,1.36,0.19,1.81,0.57c0.45,0.38,0.67,0.88,0.67,1.51c0,0.3-0.06,0.59-0.17,0.85c-0.11,0.27-0.31,0.58-0.61,0.95
		c-0.08,0.09-0.34,0.37-0.78,0.82C415.31,794.73,414.69,795.36,413.89,796.17L413.89,796.17z"/>
	<line class="st1" x1="425.43" y1="705.64" x2="421.93" y2="705.64"/>
	<path class="st2" d="M399.31,702.76c-0.51,0-0.89,0.25-1.15,0.75c-0.25,0.5-0.38,1.25-0.38,2.25s0.13,1.75,0.38,2.25
		c0.26,0.5,0.64,0.75,1.15,0.75c0.51,0,0.89-0.25,1.15-0.75c0.26-0.5,0.39-1.25,0.39-2.25s-0.13-1.75-0.39-2.25
		C400.21,703,399.83,702.76,399.31,702.76 M399.31,701.97c0.82,0,1.44,0.32,1.87,0.97c0.43,0.64,0.65,1.58,0.65,2.81
		c0,1.23-0.21,2.16-0.65,2.81c-0.43,0.64-1.05,0.97-1.87,0.97s-1.44-0.32-1.88-0.97c-0.43-0.65-0.64-1.59-0.64-2.81
		c0-1.23,0.21-2.17,0.64-2.81C397.87,702.3,398.5,701.97,399.31,701.97L399.31,701.97z"/>
	<polygon class="st2" points="403.68,708.16 404.71,708.16 404.71,709.4 403.68,709.4 403.68,708.16 	"/>
	<path class="st2" d="M408.91,702.76c-0.51,0-0.89,0.25-1.15,0.75c-0.25,0.5-0.38,1.25-0.38,2.25s0.13,1.75,0.38,2.25
		c0.26,0.5,0.64,0.75,1.15,0.75c0.51,0,0.89-0.25,1.15-0.75c0.26-0.5,0.39-1.25,0.39-2.25s-0.13-1.75-0.39-2.25
		C409.81,703,409.43,702.76,408.91,702.76 M408.91,701.97c0.82,0,1.44,0.32,1.87,0.97c0.43,0.64,0.65,1.58,0.65,2.81
		c0,1.23-0.21,2.16-0.65,2.81c-0.43,0.64-1.05,0.97-1.87,0.97c-0.82,0-1.44-0.32-1.88-0.97c-0.43-0.65-0.64-1.59-0.64-2.81
		c0-1.23,0.21-2.17,0.64-2.81C407.47,702.3,408.1,701.97,408.91,701.97L408.91,701.97z"/>
	<path class="st2" d="M415.75,702.97l-2.49,3.89h2.49V702.97 M415.5,702.11h1.24v4.75h1.04v0.82h-1.04v1.72h-0.98v-1.72h-3.29v-0.95
		L415.5,702.11L415.5,702.11z"/>
	<line class="st1" x1="425.43" y1="618.01" x2="421.93" y2="618.01"/>
	<path class="st2" d="M399.31,615.16c-0.51,0-0.89,0.25-1.15,0.75c-0.25,0.5-0.38,1.25-0.38,2.25s0.13,1.75,0.38,2.25
		c0.26,0.5,0.64,0.75,1.15,0.75c0.51,0,0.89-0.25,1.15-0.75c0.26-0.5,0.39-1.25,0.39-2.25s-0.13-1.75-0.39-2.25
		C400.21,615.4,399.83,615.16,399.31,615.16 M399.31,614.37c0.82,0,1.44,0.32,1.87,0.97c0.43,0.64,0.65,1.58,0.65,2.81
		c0,1.23-0.21,2.16-0.65,2.81c-0.43,0.64-1.05,0.97-1.87,0.97s-1.44-0.32-1.88-0.97c-0.43-0.65-0.64-1.59-0.64-2.81
		c0-1.23,0.21-2.17,0.64-2.81C397.87,614.7,398.5,614.37,399.31,614.37L399.31,614.37z"/>
	<polygon class="st2" points="403.68,620.56 404.71,620.56 404.71,621.8 403.68,621.8 403.68,620.56 	"/>
	<path class="st2" d="M408.91,615.16c-0.51,0-0.89,0.25-1.15,0.75c-0.25,0.5-0.38,1.25-0.38,2.25s0.13,1.75,0.38,2.25
		c0.26,0.5,0.64,0.75,1.15,0.75c0.51,0,0.89-0.25,1.15-0.75c0.26-0.5,0.39-1.25,0.39-2.25s-0.13-1.75-0.39-2.25
		C409.81,615.4,409.43,615.16,408.91,615.16 M408.91,614.37c0.82,0,1.44,0.32,1.87,0.97c0.43,0.64,0.65,1.58,0.65,2.81
		c0,1.23-0.21,2.16-0.65,2.81c-0.43,0.64-1.05,0.97-1.87,0.97c-0.82,0-1.44-0.32-1.88-0.97c-0.43-0.65-0.64-1.59-0.64-2.81
		c0-1.23,0.21-2.17,0.64-2.81C407.47,614.7,408.1,614.37,408.91,614.37L408.91,614.37z"/>
	<path class="st2" d="M415.28,617.76c-0.44,0-0.8,0.15-1.05,0.45c-0.26,0.3-0.39,0.72-0.39,1.25c0,0.52,0.13,0.94,0.39,1.25
		c0.26,0.3,0.61,0.45,1.05,0.45c0.44,0,0.79-0.15,1.05-0.45c0.26-0.31,0.39-0.72,0.39-1.25c0-0.53-0.13-0.94-0.39-1.25
		C416.07,617.91,415.72,617.76,415.28,617.76 M417.23,614.67v0.9c-0.25-0.12-0.5-0.21-0.75-0.27c-0.25-0.06-0.5-0.09-0.75-0.09
		c-0.65,0-1.15,0.22-1.49,0.66c-0.34,0.44-0.54,1.1-0.59,1.99c0.19-0.28,0.43-0.5,0.72-0.65c0.29-0.15,0.61-0.23,0.96-0.23
		c0.73,0,1.31,0.22,1.73,0.67s0.64,1.04,0.64,1.81c0,0.75-0.22,1.35-0.66,1.8c-0.44,0.45-1.03,0.68-1.77,0.68
		c-0.84,0-1.49-0.32-1.93-0.97c-0.44-0.65-0.67-1.59-0.67-2.81c0-1.15,0.27-2.07,0.82-2.75c0.55-0.69,1.28-1.03,2.2-1.03
		c0.25,0,0.5,0.02,0.75,0.07C416.7,614.5,416.96,614.57,417.23,614.67L417.23,614.67z"/>
	<line class="st1" x1="425.43" y1="530.37" x2="421.93" y2="530.37"/>
	<path class="st2" d="M399.31,527.56c-0.51,0-0.89,0.25-1.15,0.75c-0.25,0.5-0.38,1.25-0.38,2.25s0.13,1.75,0.38,2.25
		c0.26,0.5,0.64,0.75,1.15,0.75c0.51,0,0.89-0.25,1.15-0.75c0.26-0.5,0.39-1.25,0.39-2.25s-0.13-1.75-0.39-2.25
		C400.21,527.8,399.83,527.56,399.31,527.56 M399.31,526.77c0.82,0,1.44,0.32,1.87,0.97c0.43,0.64,0.65,1.58,0.65,2.81
		c0,1.23-0.21,2.16-0.65,2.81c-0.43,0.64-1.05,0.97-1.87,0.97s-1.44-0.32-1.88-0.97c-0.43-0.65-0.64-1.59-0.64-2.81
		c0-1.23,0.21-2.17,0.64-2.81C397.87,527.1,398.5,526.77,399.31,526.77L399.31,526.77z"/>
	<polygon class="st2" points="403.68,532.96 404.71,532.96 404.71,534.2 403.68,534.2 403.68,532.96 	"/>
	<path class="st2" d="M408.91,527.56c-0.51,0-0.89,0.25-1.15,0.75c-0.25,0.5-0.38,1.25-0.38,2.25s0.13,1.75,0.38,2.25
		c0.26,0.5,0.64,0.75,1.15,0.75c0.51,0,0.89-0.25,1.15-0.75c0.26-0.5,0.39-1.25,0.39-2.25s-0.13-1.75-0.39-2.25
		C409.81,527.8,409.43,527.56,408.91,527.56 M408.91,526.77c0.82,0,1.44,0.32,1.87,0.97c0.43,0.64,0.65,1.58,0.65,2.81
		c0,1.23-0.21,2.16-0.65,2.81c-0.43,0.64-1.05,0.97-1.87,0.97c-0.82,0-1.44-0.32-1.88-0.97c-0.43-0.65-0.64-1.59-0.64-2.81
		c0-1.23,0.21-2.17,0.64-2.81C407.47,527.1,408.1,526.77,408.91,526.77L408.91,526.77z"/>
	<path class="st2" d="M415.15,530.73c-0.47,0-0.84,0.13-1.11,0.38c-0.27,0.25-0.4,0.6-0.4,1.04s0.13,0.79,0.4,1.04
		c0.27,0.25,0.64,0.38,1.11,0.38s0.84-0.13,1.11-0.38c0.27-0.25,0.41-0.6,0.41-1.04c0-0.44-0.14-0.79-0.41-1.04
		C415.99,530.86,415.63,530.73,415.15,530.73 M414.17,530.31c-0.42-0.1-0.75-0.3-0.99-0.59c-0.23-0.29-0.35-0.64-0.35-1.06
		c0-0.58,0.21-1.04,0.62-1.38c0.42-0.34,0.99-0.51,1.71-0.51c0.73,0,1.29,0.17,1.71,0.51c0.42,0.34,0.62,0.8,0.62,1.38
		c0,0.42-0.12,0.77-0.36,1.06c-0.23,0.29-0.56,0.49-0.98,0.59c0.47,0.11,0.84,0.33,1.11,0.65c0.27,0.32,0.4,0.72,0.4,1.18
		c0,0.71-0.21,1.25-0.65,1.63c-0.43,0.38-1.04,0.57-1.85,0.57s-1.42-0.19-1.86-0.57c-0.43-0.38-0.64-0.92-0.64-1.63
		c0-0.46,0.13-0.86,0.4-1.18C413.32,530.64,413.69,530.43,414.17,530.31 M413.81,528.76c0,0.38,0.12,0.67,0.35,0.88
		c0.24,0.21,0.57,0.32,1,0.32s0.75-0.11,0.99-0.32c0.24-0.21,0.36-0.51,0.36-0.88s-0.12-0.67-0.36-0.88
		c-0.24-0.21-0.57-0.32-0.99-0.32s-0.76,0.11-1,0.32C413.92,528.08,413.81,528.38,413.81,528.76L413.81,528.76z"/>
	<line class="st1" x1="425.43" y1="442.73" x2="421.93" y2="442.73"/>
	<path class="st2" d="M399.31,439.96c-0.51,0-0.89,0.25-1.15,0.75c-0.25,0.5-0.38,1.25-0.38,2.25s0.13,1.75,0.38,2.25
		c0.26,0.5,0.64,0.75,1.15,0.75c0.51,0,0.89-0.25,1.15-0.75c0.26-0.5,0.39-1.25,0.39-2.25s-0.13-1.75-0.39-2.25
		C400.21,440.2,399.83,439.96,399.31,439.96 M399.31,439.17c0.82,0,1.44,0.32,1.87,0.97c0.43,0.64,0.65,1.58,0.65,2.81
		c0,1.23-0.21,2.16-0.65,2.81c-0.43,0.64-1.05,0.97-1.87,0.97s-1.44-0.32-1.88-0.97c-0.43-0.65-0.64-1.59-0.64-2.81
		c0-1.23,0.21-2.17,0.64-2.81C397.87,439.5,398.5,439.17,399.31,439.17L399.31,439.17z"/>
	<polygon class="st2" points="403.68,445.36 404.71,445.36 404.71,446.6 403.68,446.6 403.68,445.36 	"/>
	<polygon class="st2" points="406.98,445.77 408.59,445.77 408.59,440.2 406.83,440.56 406.83,439.66 408.58,439.31 409.56,439.31 
		409.56,445.77 411.17,445.77 411.17,446.6 406.98,446.6 406.98,445.77 	"/>
	<path class="st2" d="M415.15,439.96c-0.51,0-0.89,0.25-1.15,0.75c-0.25,0.5-0.38,1.25-0.38,2.25s0.13,1.75,0.38,2.25
		c0.26,0.5,0.64,0.75,1.15,0.75c0.51,0,0.89-0.25,1.15-0.75c0.26-0.5,0.39-1.25,0.39-2.25s-0.13-1.75-0.39-2.25
		C416.05,440.2,415.67,439.96,415.15,439.96 M415.15,439.17c0.82,0,1.44,0.32,1.87,0.97c0.43,0.64,0.65,1.58,0.65,2.81
		c0,1.23-0.21,2.16-0.65,2.81c-0.43,0.64-1.05,0.97-1.87,0.97c-0.82,0-1.44-0.32-1.88-0.97c-0.43-0.65-0.64-1.59-0.64-2.81
		c0-1.23,0.21-2.17,0.64-2.81C413.71,439.5,414.34,439.17,415.15,439.17L415.15,439.17z"/>
	<line class="st1" x1="425.43" y1="355.1" x2="421.93" y2="355.1"/>
	<path class="st2" d="M399.31,352.36c-0.51,0-0.89,0.25-1.15,0.75c-0.25,0.5-0.38,1.25-0.38,2.25c0,1,0.13,1.75,0.38,2.25
		c0.26,0.5,0.64,0.75,1.15,0.75c0.51,0,0.89-0.25,1.15-0.75c0.26-0.5,0.39-1.25,0.39-2.25c0-1-0.13-1.75-0.39-2.25
		C400.21,352.6,399.83,352.36,399.31,352.36 M399.31,351.57c0.82,0,1.44,0.32,1.87,0.97c0.43,0.64,0.65,1.58,0.65,2.81
		c0,1.23-0.21,2.16-0.65,2.81c-0.43,0.64-1.05,0.97-1.87,0.97s-1.44-0.32-1.88-0.97c-0.43-0.65-0.64-1.59-0.64-2.81
		c0-1.23,0.21-2.17,0.64-2.81C397.87,351.9,398.5,351.57,399.31,351.57L399.31,351.57z"/>
	<polygon class="st2" points="403.68,357.76 404.71,357.76 404.71,359 403.68,359 403.68,357.76 	"/>
	<polygon class="st2" points="406.98,358.17 408.59,358.17 408.59,352.6 406.83,352.96 406.83,352.06 408.58,351.71 409.56,351.71 
		409.56,358.17 411.17,358.17 411.17,359 406.98,359 406.98,358.17 	"/>
	<path class="st2" d="M413.89,358.17h3.44V359h-4.63v-0.83c0.38-0.39,0.88-0.91,1.53-1.56c0.65-0.65,1.05-1.07,1.22-1.26
		c0.32-0.36,0.54-0.65,0.66-0.9c0.13-0.25,0.19-0.49,0.19-0.73c0-0.39-0.14-0.7-0.41-0.95c-0.27-0.24-0.62-0.37-1.06-0.37
		c-0.31,0-0.63,0.05-0.98,0.16c-0.34,0.11-0.71,0.27-1.1,0.49v-1c0.4-0.16,0.77-0.28,1.11-0.36c0.35-0.08,0.66-0.12,0.95-0.12
		c0.76,0,1.36,0.19,1.81,0.57c0.45,0.38,0.67,0.88,0.67,1.51c0,0.3-0.06,0.59-0.17,0.85c-0.11,0.27-0.31,0.58-0.61,0.95
		c-0.08,0.09-0.34,0.37-0.78,0.82C415.31,356.73,414.69,357.36,413.89,358.17L413.89,358.17z"/>
	<line class="st1" x1="425.43" y1="267.46" x2="421.93" y2="267.46"/>
	<path class="st2" d="M399.31,264.52c-0.51,0-0.89,0.25-1.15,0.75c-0.25,0.5-0.38,1.25-0.38,2.25s0.13,1.75,0.38,2.25
		c0.26,0.5,0.64,0.75,1.15,0.75c0.51,0,0.89-0.25,1.15-0.75c0.26-0.5,0.39-1.25,0.39-2.25s-0.13-1.75-0.39-2.25
		C400.21,264.76,399.83,264.52,399.31,264.52 M399.31,263.73c0.82,0,1.44,0.32,1.87,0.97c0.43,0.64,0.65,1.58,0.65,2.81
		c0,1.23-0.21,2.16-0.65,2.81c-0.43,0.64-1.05,0.97-1.87,0.97s-1.44-0.32-1.88-0.97c-0.43-0.65-0.64-1.59-0.64-2.81
		c0-1.23,0.21-2.17,0.64-2.81C397.87,264.06,398.5,263.73,399.31,263.73L399.31,263.73z"/>
	<polygon class="st2" points="403.68,269.92 404.71,269.92 404.71,271.16 403.68,271.16 403.68,269.92 	"/>
	<polygon class="st2" points="406.98,270.33 408.59,270.33 408.59,264.76 406.83,265.12 406.83,264.22 408.58,263.87 409.56,263.87 
		409.56,270.33 411.17,270.33 411.17,271.16 406.98,271.16 406.98,270.33 	"/>
	<path class="st2" d="M415.75,264.73l-2.49,3.89h2.49V264.73 M415.5,263.87h1.24v4.75h1.04v0.82h-1.04v1.72h-0.98v-1.72h-3.29v-0.95
		L415.5,263.87L415.5,263.87z"/>
	<polygon class="st2" points="378,546.16 378,543.96 385.44,541.17 378,538.36 378,536.16 388.94,536.16 388.94,537.6 379.33,537.6 
		386.83,540.42 386.83,541.91 379.33,544.73 388.94,544.73 388.94,546.16 378,546.16 	"/>
	<path class="st2" d="M379.46,529.55l5.44,2.01v-4.02L379.46,529.55 M378,530.38v-1.68l10.94-4.17v1.54l-2.81,1V532l2.81,1v1.56
		L378,530.38L378,530.38z"/>
	<polygon class="st2" points="378,522.88 378,515.97 379.25,515.97 379.25,521.4 382.48,521.4 382.48,516.2 383.73,516.2 
		383.73,521.4 387.69,521.4 387.69,515.84 388.94,515.84 388.94,522.88 378,522.88 	"/>
	<polyline class="st3" points="476.15,284.21 481.25,441.36 486.35,622.32 491.45,523.45 496.55,501.82 501.64,513.58 
		506.74,542.23 511.84,547.14 516.94,578.77 522.04,595.88 532.23,641.54 537.33,663.07 542.43,680.02 547.53,692.99 552.63,712.25 
		557.72,726.06 562.82,726.12 567.92,734.18 573.02,735.13 578.12,741.19 583.22,744.07 588.31,748.14 593.41,738.28 598.51,739.23 
		603.61,739.71 608.71,738.93 613.8,747.17 618.9,744.15 624,739.53 629.1,741.47 634.2,736.41 639.3,739.57 644.39,732.39 
		649.49,738.7 654.59,735.6 659.69,733.72 664.79,735.46 669.88,724.07 674.98,729.96 680.08,726.42 685.18,721.01 690.28,720.4 
		695.38,722.99 700.47,714.1 705.57,708.39 710.67,706.3 715.77,703.3 720.87,708.73 725.97,694.48 731.06,695.64 736.16,692.23 
		741.26,690.03 746.36,688.07 751.46,689.71 756.55,682.72 761.65,686.28 766.75,680.14 771.85,688.56 776.95,679.9 782.05,684.45 
		787.14,675.5 792.24,682.77 797.34,681.6 802.44,679.5 807.54,691.52 812.64,685.24 817.73,690.52 822.83,679.43 827.93,686 
		833.03,688.81 838.13,684.39 843.22,693.68 848.32,689.65 853.42,699.65 858.52,688.89 863.62,682.25 868.72,699.53 873.81,694.83 
		878.91,701.68 884.01,692.05 889.11,699.1 894.21,701.67 899.3,699.94 904.4,693.16 909.5,688.2 914.6,690.61 919.7,695.2 
		924.8,689.03 929.89,692.45 934.99,691.69 940.09,680.11 945.19,683.95 950.29,686.89 955.39,672.79 960.48,686.92 965.58,675.31 
		970.68,681.25 975.78,681.77 980.88,681.76 985.97,668.92 991.07,656.74 996.17,686.13 1001.27,661.4 1006.37,657.84 
		1011.47,670.64 1016.56,684.77 1021.66,660.27 1026.76,656.73 1031.86,651.58 1036.96,653.37 1042.05,666.71 1047.15,665.29 
		1052.25,666.65 1057.35,655.07 1062.45,656.3 1067.55,649.04 1072.64,647.75 1077.74,649.82 1082.84,651.06 1087.94,664.23 
		1093.04,648.8 1098.14,659.08 1103.23,657.97 1108.33,644.19 1113.43,642.09 1118.53,641.73 1123.63,649.94 1128.72,640.93 
		1133.82,645.49 1138.92,635.98 1144.02,637.02 1149.12,641.72 1154.22,654.44 1159.31,638.03 1164.41,662.63 1169.51,659.99 
		1174.61,649.95 1179.71,661.51 1184.8,657.33 1189.9,655.67 1195,655.61 1200.1,661.93 1205.2,666.68 1210.3,654.56 
		1215.39,665.64 1220.49,683.58 1225.59,671.63 1230.69,664.88 1235.79,662.32 1240.89,675.97 1245.98,664.26 1251.08,679.47 
		1256.18,673.06 1261.28,670.97 1266.38,672.98 1271.47,672.74 1276.57,665.42 1281.67,667.83 1286.77,685.02 1291.87,692.3 
		1296.97,676.38 1302.06,682.84 1307.16,683.38 1312.26,663.03 1317.36,690.82 1322.46,690.52 1327.55,689.37 1332.65,699.12 
		1337.75,686.06 1342.85,686.94 1347.95,670.23 1353.05,710.89 1358.14,692.72 1363.24,686.42 1368.34,708.65 1373.44,701.85 
		1378.54,683.26 1383.64,690.49 1388.73,701.71 1393.83,699.97 1404.03,670.99 1409.13,663.73 1414.22,681.76 1419.32,671.62 
		1424.42,675.78 1429.52,670.67 1434.62,686.98 1439.72,700.88 1444.81,684.48 1449.91,680.66 1455.01,686.9 1460.11,684.86 
		1465.21,677.85 1470.31,682.64 1475.4,673.82 1480.5,679.99 1485.6,671.73 1490.7,667.23 1490.7,667.23 	"/>
	<polygon class="st4" points="476.15,281.21 473.15,287.21 479.15,287.21 	"/>
	<polygon class="st4" points="481.25,438.36 478.25,444.36 484.25,444.36 	"/>
	<polygon class="st4" points="486.35,619.32 483.35,625.32 489.35,625.32 	"/>
	<polygon class="st4" points="491.45,520.45 488.45,526.45 494.45,526.45 	"/>
	<polygon class="st4" points="496.55,498.82 493.55,504.82 499.55,504.82 	"/>
	<polygon class="st4" points="501.64,510.58 498.64,516.58 504.64,516.58 	"/>
	<polygon class="st4" points="506.74,539.23 503.74,545.23 509.74,545.23 	"/>
	<polygon class="st4" points="511.84,544.14 508.84,550.14 514.84,550.14 	"/>
	<polygon class="st4" points="516.94,575.77 513.94,581.77 519.94,581.77 	"/>
	<polygon class="st4" points="522.04,592.88 519.04,598.88 525.04,598.88 	"/>
	<polygon class="st4" points="527.14,615.46 524.14,621.46 530.14,621.46 	"/>
	<polygon class="st4" points="532.23,638.54 529.23,644.54 535.23,644.54 	"/>
	<polygon class="st4" points="537.33,660.07 534.33,666.07 540.33,666.07 	"/>
	<polygon class="st4" points="542.43,677.02 539.43,683.02 545.43,683.02 	"/>
	<polygon class="st4" points="547.53,689.99 544.53,695.99 550.53,695.99 	"/>
	<polygon class="st4" points="552.63,709.25 549.63,715.25 555.63,715.25 	"/>
	<polygon class="st4" points="557.72,723.06 554.72,729.06 560.72,729.06 	"/>
	<polygon class="st4" points="562.82,723.12 559.82,729.12 565.82,729.12 	"/>
	<polygon class="st4" points="567.92,731.18 564.92,737.18 570.92,737.18 	"/>
	<polygon class="st4" points="573.02,732.13 570.02,738.13 576.02,738.13 	"/>
	<polygon class="st4" points="578.12,738.19 575.12,744.19 581.12,744.19 	"/>
	<polygon class="st4" points="583.22,741.07 580.22,747.07 586.22,747.07 	"/>
	<polygon class="st4" points="588.31,745.14 585.31,751.14 591.31,751.14 	"/>
	<polygon class="st4" points="593.41,735.28 590.41,741.28 596.41,741.28 	"/>
	<polygon class="st4" points="598.51,736.23 595.51,742.23 601.51,742.23 	"/>
	<polygon class="st4" points="603.61,736.71 600.61,742.71 606.61,742.71 	"/>
	<polygon class="st4" points="608.71,735.93 605.71,741.93 611.71,741.93 	"/>
	<polygon class="st4" points="613.8,744.17 610.8,750.17 616.8,750.17 	"/>
	<polygon class="st4" points="618.9,741.15 615.9,747.15 621.9,747.15 	"/>
	<polygon class="st4" points="624,736.53 621,742.53 627,742.53 	"/>
	<polygon class="st4" points="629.1,738.47 626.1,744.47 632.1,744.47 	"/>
	<polygon class="st4" points="634.2,733.41 631.2,739.41 637.2,739.41 	"/>
	<polygon class="st4" points="639.3,736.57 636.3,742.57 642.3,742.57 	"/>
	<polygon class="st4" points="644.39,729.39 641.39,735.39 647.39,735.39 	"/>
	<polygon class="st4" points="649.49,735.7 646.49,741.7 652.49,741.7 	"/>
	<polygon class="st4" points="654.59,732.6 651.59,738.6 657.59,738.6 	"/>
	<polygon class="st4" points="659.69,730.72 656.69,736.72 662.69,736.72 	"/>
	<polygon class="st4" points="664.79,732.46 661.79,738.46 667.79,738.46 	"/>
	<polygon class="st4" points="669.89,721.07 666.89,727.07 672.89,727.07 	"/>
	<polygon class="st4" points="674.98,726.96 671.98,732.96 677.98,732.96 	"/>
	<polygon class="st4" points="680.08,723.42 677.08,729.42 683.08,729.42 	"/>
	<polygon class="st4" points="685.18,718.01 682.18,724.01 688.18,724.01 	"/>
	<polygon class="st4" points="690.28,717.4 687.28,723.4 693.28,723.4 	"/>
	<polygon class="st4" points="695.38,719.99 692.38,725.99 698.38,725.99 	"/>
	<polygon class="st4" points="700.47,711.1 697.47,717.1 703.47,717.1 	"/>
	<polygon class="st4" points="705.57,705.39 702.57,711.39 708.57,711.39 	"/>
	<polygon class="st4" points="710.67,703.3 707.67,709.3 713.67,709.3 	"/>
	<polygon class="st4" points="715.77,700.3 712.77,706.3 718.77,706.3 	"/>
	<polygon class="st4" points="720.87,705.73 717.87,711.73 723.87,711.73 	"/>
	<polygon class="st4" points="725.97,691.48 722.97,697.48 728.97,697.48 	"/>
	<polygon class="st4" points="731.06,692.64 728.06,698.64 734.06,698.64 	"/>
	<polygon class="st4" points="736.16,689.23 733.16,695.23 739.16,695.23 	"/>
	<polygon class="st4" points="741.26,687.03 738.26,693.03 744.26,693.03 	"/>
	<polygon class="st4" points="746.36,685.07 743.36,691.07 749.36,691.07 	"/>
	<polygon class="st4" points="751.46,686.71 748.46,692.71 754.46,692.71 	"/>
	<polygon class="st4" points="756.56,679.72 753.56,685.72 759.56,685.72 	"/>
	<polygon class="st4" points="761.65,683.28 758.65,689.28 764.65,689.28 	"/>
	<polygon class="st4" points="766.75,677.14 763.75,683.14 769.75,683.14 	"/>
	<polygon class="st4" points="771.85,685.56 768.85,691.56 774.85,691.56 	"/>
	<polygon class="st4" points="776.95,676.9 773.95,682.9 779.95,682.9 	"/>
	<polygon class="st4" points="782.05,681.45 779.05,687.45 785.05,687.45 	"/>
	<polygon class="st4" points="787.14,672.5 784.14,678.5 790.14,678.5 	"/>
	<polygon class="st4" points="792.24,679.77 789.24,685.77 795.24,685.77 	"/>
	<polygon class="st4" points="797.34,678.6 794.34,684.6 800.34,684.6 	"/>
	<polygon class="st4" points="802.44,676.5 799.44,682.5 805.44,682.5 	"/>
	<polygon class="st4" points="807.54,688.52 804.54,694.52 810.54,694.52 	"/>
	<polygon class="st4" points="812.64,682.24 809.64,688.24 815.64,688.24 	"/>
	<polygon class="st4" points="817.73,687.52 814.73,693.52 820.73,693.52 	"/>
	<polygon class="st4" points="822.83,676.43 819.83,682.43 825.83,682.43 	"/>
	<polygon class="st4" points="827.93,683 824.93,689 830.93,689 	"/>
	<polygon class="st4" points="833.03,685.81 830.03,691.81 836.03,691.81 	"/>
	<polygon class="st4" points="838.13,681.39 835.13,687.39 841.13,687.39 	"/>
	<polygon class="st4" points="843.22,690.68 840.22,696.68 846.22,696.68 	"/>
	<polygon class="st4" points="848.32,686.65 845.32,692.65 851.32,692.65 	"/>
	<polygon class="st4" points="853.42,696.65 850.42,702.65 856.42,702.65 	"/>
	<polygon class="st4" points="858.52,685.89 855.52,691.89 861.52,691.89 	"/>
	<polygon class="st4" points="863.62,679.25 860.62,685.25 866.62,685.25 	"/>
	<polygon class="st4" points="868.72,696.53 865.72,702.53 871.72,702.53 	"/>
	<polygon class="st4" points="873.81,691.83 870.81,697.83 876.81,697.83 	"/>
	<polygon class="st4" points="878.91,698.68 875.91,704.68 881.91,704.68 	"/>
	<polygon class="st4" points="884.01,689.05 881.01,695.05 887.01,695.05 	"/>
	<polygon class="st4" points="889.11,696.1 886.11,702.1 892.11,702.1 	"/>
	<polygon class="st4" points="894.21,698.67 891.21,704.67 897.21,704.67 	"/>
	<polygon class="st4" points="899.31,696.94 896.31,702.94 902.31,702.94 	"/>
	<polygon class="st4" points="904.4,690.16 901.4,696.16 907.4,696.16 	"/>
	<polygon class="st4" points="909.5,685.2 906.5,691.2 912.5,691.2 	"/>
	<polygon class="st4" points="914.6,687.61 911.6,693.61 917.6,693.61 	"/>
	<polygon class="st4" points="919.7,692.2 916.7,698.2 922.7,698.2 	"/>
	<polygon class="st4" points="924.8,686.03 921.8,692.03 927.8,692.03 	"/>
	<polygon class="st4" points="929.89,689.45 926.89,695.45 932.89,695.45 	"/>
	<polygon class="st4" points="934.99,688.69 931.99,694.69 937.99,694.69 	"/>
	<polygon class="st4" points="940.09,677.11 937.09,683.11 943.09,683.11 	"/>
	<polygon class="st4" points="945.19,680.95 942.19,686.95 948.19,686.95 	"/>
	<polygon class="st4" points="950.29,683.89 947.29,689.89 953.29,689.89 	"/>
	<polygon class="st4" points="955.39,669.79 952.39,675.79 958.39,675.79 	"/>
	<polygon class="st4" points="960.48,683.92 957.48,689.92 963.48,689.92 	"/>
	<polygon class="st4" points="965.58,672.31 962.58,678.31 968.58,678.31 	"/>
	<polygon class="st4" points="970.68,678.25 967.68,684.25 973.68,684.25 	"/>
	<polygon class="st4" points="975.78,678.77 972.78,684.77 978.78,684.77 	"/>
	<polygon class="st4" points="980.88,678.76 977.88,684.76 983.88,684.76 	"/>
	<polygon class="st4" points="985.97,665.92 982.97,671.92 988.97,671.92 	"/>
	<polygon class="st4" points="991.07,653.74 988.07,659.74 994.07,659.74 	"/>
	<polygon class="st4" points="996.17,683.13 993.17,689.13 999.17,689.13 	"/>
	<polygon class="st4" points="1001.27,658.4 998.27,664.4 1004.27,664.4 	"/>
	<polygon class="st4" points="1006.37,654.84 1003.37,660.84 1009.37,660.84 	"/>
	<polygon class="st4" points="1011.47,667.64 1008.47,673.64 1014.47,673.64 	"/>
	<polygon class="st4" points="1016.56,681.77 1013.56,687.77 1019.56,687.77 	"/>
	<polygon class="st4" points="1021.66,657.27 1018.66,663.27 1024.66,663.27 	"/>
	<polygon class="st4" points="1026.76,653.73 1023.76,659.73 1029.76,659.73 	"/>
	<polygon class="st4" points="1031.86,648.58 1028.86,654.58 1034.86,654.58 	"/>
	<polygon class="st4" points="1036.96,650.37 1033.96,656.37 1039.96,656.37 	"/>
	<polygon class="st4" points="1042.06,663.71 1039.06,669.71 1045.06,669.71 	"/>
	<polygon class="st4" points="1047.15,662.29 1044.15,668.29 1050.15,668.29 	"/>
	<polygon class="st4" points="1052.25,663.65 1049.25,669.65 1055.25,669.65 	"/>
	<polygon class="st4" points="1057.35,652.07 1054.35,658.07 1060.35,658.07 	"/>
	<polygon class="st4" points="1062.45,653.3 1059.45,659.3 1065.45,659.3 	"/>
	<polygon class="st4" points="1067.55,646.04 1064.55,652.04 1070.55,652.04 	"/>
	<polygon class="st4" points="1072.64,644.75 1069.64,650.75 1075.64,650.75 	"/>
	<polygon class="st4" points="1077.74,646.82 1074.74,652.82 1080.74,652.82 	"/>
	<polygon class="st4" points="1082.84,648.06 1079.84,654.06 1085.84,654.06 	"/>
	<polygon class="st4" points="1087.94,661.23 1084.94,667.23 1090.94,667.23 	"/>
	<polygon class="st4" points="1093.04,645.8 1090.04,651.8 1096.04,651.8 	"/>
	<polygon class="st4" points="1098.14,656.08 1095.14,662.08 1101.14,662.08 	"/>
	<polygon class="st4" points="1103.23,654.97 1100.23,660.97 1106.23,660.97 	"/>
	<polygon class="st4" points="1108.33,641.19 1105.33,647.19 1111.33,647.19 	"/>
	<polygon class="st4" points="1113.43,639.09 1110.43,645.09 1116.43,645.09 	"/>
	<polygon class="st4" points="1118.53,638.73 1115.53,644.73 1121.53,644.73 	"/>
	<polygon class="st4" points="1123.63,646.94 1120.63,652.94 1126.63,652.94 	"/>
	<polygon class="st4" points="1128.72,637.93 1125.72,643.93 1131.72,643.93 	"/>
	<polygon class="st4" points="1133.82,642.49 1130.82,648.49 1136.82,648.49 	"/>
	<polygon class="st4" points="1138.92,632.98 1135.92,638.98 1141.92,638.98 	"/>
	<polygon class="st4" points="1144.02,634.02 1141.02,640.02 1147.02,640.02 	"/>
	<polygon class="st4" points="1149.12,638.72 1146.12,644.72 1152.12,644.72 	"/>
	<polygon class="st4" points="1154.22,651.44 1151.22,657.44 1157.22,657.44 	"/>
	<polygon class="st4" points="1159.31,635.03 1156.31,641.03 1162.31,641.03 	"/>
	<polygon class="st4" points="1164.41,659.63 1161.41,665.63 1167.41,665.63 	"/>
	<polygon class="st4" points="1169.51,656.99 1166.51,662.99 1172.51,662.99 	"/>
	<polygon class="st4" points="1174.61,646.95 1171.61,652.95 1177.61,652.95 	"/>
	<polygon class="st4" points="1179.71,658.51 1176.71,664.51 1182.71,664.51 	"/>
	<polygon class="st4" points="1184.81,654.33 1181.81,660.33 1187.81,660.33 	"/>
	<polygon class="st4" points="1189.9,652.67 1186.9,658.67 1192.9,658.67 	"/>
	<polygon class="st4" points="1195,652.61 1192,658.61 1198,658.61 	"/>
	<polygon class="st4" points="1200.1,658.93 1197.1,664.93 1203.1,664.93 	"/>
	<polygon class="st4" points="1205.2,663.68 1202.2,669.68 1208.2,669.68 	"/>
	<polygon class="st4" points="1210.3,651.56 1207.3,657.56 1213.3,657.56 	"/>
	<polygon class="st4" points="1215.39,662.64 1212.39,668.64 1218.39,668.64 	"/>
	<polygon class="st4" points="1220.49,680.58 1217.49,686.58 1223.49,686.58 	"/>
	<polygon class="st4" points="1225.59,668.63 1222.59,674.63 1228.59,674.63 	"/>
	<polygon class="st4" points="1230.69,661.88 1227.69,667.88 1233.69,667.88 	"/>
	<polygon class="st4" points="1235.79,659.32 1232.79,665.32 1238.79,665.32 	"/>
	<polygon class="st4" points="1240.89,672.97 1237.89,678.97 1243.89,678.97 	"/>
	<polygon class="st4" points="1245.98,661.26 1242.98,667.26 1248.98,667.26 	"/>
	<polygon class="st4" points="1251.08,676.47 1248.08,682.47 1254.08,682.47 	"/>
	<polygon class="st4" points="1256.18,670.06 1253.18,676.06 1259.18,676.06 	"/>
	<polygon class="st4" points="1261.28,667.97 1258.28,673.97 1264.28,673.97 	"/>
	<polygon class="st4" points="1266.38,669.98 1263.38,675.98 1269.38,675.98 	"/>
	<polygon class="st4" points="1271.48,669.74 1268.48,675.74 1274.48,675.74 	"/>
	<polygon class="st4" points="1276.57,662.42 1273.57,668.42 1279.57,668.42 	"/>
	<polygon class="st4" points="1281.67,664.83 1278.67,670.83 1284.67,670.83 	"/>
	<polygon class="st4" points="1286.77,682.02 1283.77,688.02 1289.77,688.02 	"/>
	<polygon class="st4" points="1291.87,689.3 1288.87,695.3 1294.87,695.3 	"/>
	<polygon class="st4" points="1296.97,673.38 1293.97,679.38 1299.97,679.38 	"/>
	<polygon class="st4" points="1302.06,679.84 1299.06,685.84 1305.06,685.84 	"/>
	<polygon class="st4" points="1307.16,680.38 1304.16,686.38 1310.16,686.38 	"/>
	<polygon class="st4" points="1312.26,660.03 1309.26,666.03 1315.26,666.03 	"/>
	<polygon class="st4" points="1317.36,687.82 1314.36,693.82 1320.36,693.82 	"/>
	<polygon class="st4" points="1322.46,687.52 1319.46,693.52 1325.46,693.52 	"/>
	<polygon class="st4" points="1327.56,686.37 1324.56,692.37 1330.56,692.37 	"/>
	<polygon class="st4" points="1332.65,696.12 1329.65,702.12 1335.65,702.12 	"/>
	<polygon class="st4" points="1337.75,683.06 1334.75,689.06 1340.75,689.06 	"/>
	<polygon class="st4" points="1342.85,683.94 1339.85,689.94 1345.85,689.94 	"/>
	<polygon class="st4" points="1347.95,667.23 1344.95,673.23 1350.95,673.23 	"/>
	<polygon class="st4" points="1353.05,707.89 1350.05,713.89 1356.05,713.89 	"/>
	<polygon class="st4" points="1358.14,689.72 1355.14,695.72 1361.14,695.72 	"/>
	<polygon class="st4" points="1363.24,683.42 1360.24,689.42 1366.24,689.42 	"/>
	<polygon class="st4" points="1368.34,705.65 1365.34,711.65 1371.34,711.65 	"/>
	<polygon class="st4" points="1373.43,698.85 1370.43,704.85 1376.43,704.85 	"/>
	<polygon class="st4" points="1378.53,680.26 1375.53,686.26 1381.53,686.26 	"/>
	<polygon class="st4" points="1383.63,687.49 1380.63,693.49 1386.63,693.49 	"/>
	<polygon class="st4" points="1388.73,698.71 1385.73,704.71 1391.73,704.71 	"/>
	<polygon class="st4" points="1393.83,696.97 1390.83,702.97 1396.83,702.97 	"/>
	<polygon class="st4" points="1398.93,682.51 1395.93,688.51 1401.93,688.51 	"/>
	<polygon class="st4" points="1404.02,667.99 1401.02,673.99 1407.02,673.99 	"/>
	<polygon class="st4" points="1409.12,660.73 1406.12,666.73 1412.12,666.73 	"/>
	<polygon class="st4" points="1414.22,678.76 1411.22,684.76 1417.22,684.76 	"/>
	<polygon class="st4" points="1419.32,668.62 1416.32,674.62 1422.32,674.62 	"/>
	<polygon class="st4" points="1424.42,672.78 1421.42,678.78 1427.42,678.78 	"/>
	<polygon class="st4" points="1429.52,667.67 1426.52,673.67 1432.52,673.67 	"/>
	<polygon class="st4" points="1434.61,683.98 1431.61,689.98 1437.61,689.98 	"/>
	<polygon class="st4" points="1439.71,697.88 1436.71,703.88 1442.71,703.88 	"/>
	<polygon class="st4" points="1444.81,681.48 1441.81,687.48 1447.81,687.48 	"/>
	<polygon class="st4" points="1449.91,677.66 1446.91,683.66 1452.91,683.66 	"/>
	<polygon class="st4" points="1455.01,683.9 1452.01,689.9 1458.01,689.9 	"/>
	<polygon class="st4" points="1460.1,681.86 1457.1,687.86 1463.1,687.86 	"/>
	<polygon class="st4" points="1465.2,674.85 1462.2,680.85 1468.2,680.85 	"/>
	<polygon class="st4" points="1470.3,679.64 1467.3,685.64 1473.3,685.64 	"/>
	<polygon class="st4" points="1475.4,670.82 1472.4,676.82 1478.4,676.82 	"/>
	<polygon class="st4" points="1480.5,676.99 1477.5,682.99 1483.5,682.99 	"/>
	<polygon class="st4" points="1485.6,668.73 1482.6,674.73 1488.6,674.73 	"/>
	<polygon class="st4" points="1490.69,664.23 1487.69,670.23 1493.69,670.23 	"/>
	<polyline class="st5" points="476.15,503.53 481.25,662.77 486.35,659.05 491.45,674.3 496.55,687.55 501.64,697.28 506.74,712.83 
		511.84,717.75 516.94,726.09 522.04,729.02 527.13,730.76 532.23,732.75 537.33,733.62 542.43,732.95 547.53,733.12 552.63,734.63 
		557.72,736.73 562.82,737.47 567.92,737.99 573.02,739.04 578.12,736.49 583.22,736.49 588.31,736.42 593.41,739.48 598.51,738.77 
		603.61,741.82 608.71,735.3 613.8,738.3 618.9,739.77 624,740.76 629.1,741.38 634.2,740.06 639.3,737.83 644.39,737.93 
		649.49,739.4 654.59,741.06 659.69,741.04 664.79,739.76 669.88,740.46 674.98,745.47 680.08,742.16 685.18,741.96 690.28,739.21 
		695.38,738.53 700.47,743.45 705.57,742.51 710.67,743.56 715.77,740.59 720.87,744.13 725.97,745.4 731.06,742.72 736.16,742.72 
		741.26,748.8 746.36,749.61 751.46,744.26 756.55,742.32 761.65,746.5 766.75,747.32 771.85,744.38 776.95,739.49 782.05,746 
		787.14,742.08 792.24,741.63 797.34,745.55 802.44,737.93 807.54,740.12 812.64,739.55 817.73,741.67 822.83,740.94 827.93,741.91 
		833.03,739.51 838.13,738.24 843.22,739.33 848.32,740.41 853.42,734.33 858.52,739.16 863.62,739.15 868.72,742.88 873.81,740.06 
		878.91,739.5 884.01,744.05 889.11,743.11 894.21,743.88 899.3,739.63 904.4,737.47 909.5,743.46 914.6,741.6 919.7,744.2 
		924.8,739.58 929.89,735.25 934.99,742.07 940.09,737.57 945.19,739.33 950.29,744.91 955.39,738.74 960.48,735.42 965.58,738.43 
		970.68,740.31 975.78,743.24 980.88,743.64 	"/>
	<path class="st6" d="M476.15,503.53v6.5 M476.15,503.53l5.2-3.25 M476.15,503.53l-5.2-3.25"/>
	<path class="st6" d="M481.25,662.77v6.5 M481.25,662.77l5.2-3.25 M481.25,662.77l-5.2-3.25"/>
	<path class="st6" d="M486.35,659.05v6.5 M486.35,659.05l5.2-3.25 M486.35,659.05l-5.2-3.25"/>
	<path class="st6" d="M491.45,674.3v6.5 M491.45,674.3l5.2-3.25 M491.45,674.3l-5.2-3.25"/>
	<path class="st6" d="M496.55,687.55v6.5 M496.55,687.55l5.2-3.25 M496.55,687.55l-5.2-3.25"/>
	<path class="st6" d="M501.64,697.28v6.5 M501.64,697.28l5.2-3.25 M501.64,697.28l-5.2-3.25"/>
	<path class="st6" d="M506.74,712.83v6.5 M506.74,712.83l5.2-3.25 M506.74,712.83l-5.2-3.25"/>
	<path class="st6" d="M511.84,717.75v6.5 M511.84,717.75l5.2-3.25 M511.84,717.75l-5.2-3.25"/>
	<path class="st6" d="M516.94,726.09v6.5 M516.94,726.09l5.2-3.25 M516.94,726.09l-5.2-3.25"/>
	<path class="st6" d="M522.04,729.02v6.5 M522.04,729.02l5.2-3.25 M522.04,729.02l-5.2-3.25"/>
	<path class="st6" d="M527.14,730.76v6.5 M527.14,730.76l5.2-3.25 M527.14,730.76l-5.2-3.25"/>
	<path class="st6" d="M532.23,732.75v6.5 M532.23,732.75l5.2-3.25 M532.23,732.75l-5.2-3.25"/>
	<path class="st6" d="M537.33,733.62v6.5 M537.33,733.62l5.2-3.25 M537.33,733.62l-5.2-3.25"/>
	<path class="st6" d="M542.43,732.95v6.5 M542.43,732.95l5.2-3.25 M542.43,732.95l-5.2-3.25"/>
	<path class="st6" d="M547.53,733.12v6.5 M547.53,733.12l5.2-3.25 M547.53,733.12l-5.2-3.25"/>
	<path class="st6" d="M552.63,734.63v6.5 M552.63,734.63l5.2-3.25 M552.63,734.63l-5.2-3.25"/>
	<path class="st6" d="M557.72,736.73v6.5 M557.72,736.73l5.2-3.25 M557.72,736.73l-5.2-3.25"/>
	<path class="st6" d="M562.82,737.47v6.5 M562.82,737.47l5.2-3.25 M562.82,737.47l-5.2-3.25"/>
	<path class="st6" d="M567.92,737.99v6.5 M567.92,737.99l5.2-3.25 M567.92,737.99l-5.2-3.25"/>
	<path class="st6" d="M573.02,739.04v6.5 M573.02,739.04l5.2-3.25 M573.02,739.04l-5.2-3.25"/>
	<path class="st6" d="M578.12,736.49v6.5 M578.12,736.49l5.2-3.25 M578.12,736.49l-5.2-3.25"/>
	<path class="st6" d="M583.22,736.49v6.5 M583.22,736.49l5.2-3.25 M583.22,736.49l-5.2-3.25"/>
	<path class="st6" d="M588.31,736.42v6.5 M588.31,736.42l5.2-3.25 M588.31,736.42l-5.2-3.25"/>
	<path class="st6" d="M593.41,739.48v6.5 M593.41,739.48l5.2-3.25 M593.41,739.48l-5.2-3.25"/>
	<path class="st6" d="M598.51,738.77v6.5 M598.51,738.77l5.2-3.25 M598.51,738.77l-5.2-3.25"/>
	<path class="st6" d="M603.61,741.82v6.5 M603.61,741.82l5.2-3.25 M603.61,741.82l-5.2-3.25"/>
	<path class="st6" d="M608.71,735.3v6.5 M608.71,735.3l5.2-3.25 M608.71,735.3l-5.2-3.25"/>
	<path class="st6" d="M613.8,738.3v6.5 M613.8,738.3l5.2-3.25 M613.8,738.3l-5.2-3.25"/>
	<path class="st6" d="M618.9,739.77v6.5 M618.9,739.77l5.2-3.25 M618.9,739.77l-5.2-3.25"/>
	<path class="st6" d="M624,740.76v6.5 M624,740.76l5.2-3.25 M624,740.76l-5.2-3.25"/>
	<path class="st6" d="M629.1,741.38v6.5 M629.1,741.38l5.2-3.25 M629.1,741.38l-5.2-3.25"/>
	<path class="st6" d="M634.2,740.06v6.5 M634.2,740.06l5.2-3.25 M634.2,740.06l-5.2-3.25"/>
	<path class="st6" d="M639.3,737.83v6.5 M639.3,737.83l5.2-3.25 M639.3,737.83l-5.2-3.25"/>
	<path class="st6" d="M644.39,737.93v6.5 M644.39,737.93l5.2-3.25 M644.39,737.93l-5.2-3.25"/>
	<path class="st6" d="M649.49,739.4v6.5 M649.49,739.4l5.2-3.25 M649.49,739.4l-5.2-3.25"/>
	<path class="st6" d="M654.59,741.06v6.5 M654.59,741.06l5.2-3.25 M654.59,741.06l-5.2-3.25"/>
	<path class="st6" d="M659.69,741.04v6.5 M659.69,741.04l5.2-3.25 M659.69,741.04l-5.2-3.25"/>
	<path class="st6" d="M664.79,739.76v6.5 M664.79,739.76l5.2-3.25 M664.79,739.76l-5.2-3.25"/>
	<path class="st6" d="M669.89,740.46v6.5 M669.89,740.46l5.2-3.25 M669.89,740.46l-5.2-3.25"/>
	<path class="st6" d="M674.98,745.47v6.5 M674.98,745.47l5.2-3.25 M674.98,745.47l-5.2-3.25"/>
	<path class="st6" d="M680.08,742.16v6.5 M680.08,742.16l5.2-3.25 M680.08,742.16l-5.2-3.25"/>
	<path class="st6" d="M685.18,741.96v6.5 M685.18,741.96l5.2-3.25 M685.18,741.96l-5.2-3.25"/>
	<path class="st6" d="M690.28,739.21v6.5 M690.28,739.21l5.2-3.25 M690.28,739.21l-5.2-3.25"/>
	<path class="st6" d="M695.38,738.53v6.5 M695.38,738.53l5.2-3.25 M695.38,738.53l-5.2-3.25"/>
	<path class="st6" d="M700.47,743.45v6.5 M700.47,743.45l5.2-3.25 M700.47,743.45l-5.2-3.25"/>
	<path class="st6" d="M705.57,742.51v6.5 M705.57,742.51l5.2-3.25 M705.57,742.51l-5.2-3.25"/>
	<path class="st6" d="M710.67,743.56v6.5 M710.67,743.56l5.2-3.25 M710.67,743.56l-5.2-3.25"/>
	<path class="st6" d="M715.77,740.59v6.5 M715.77,740.59l5.2-3.25 M715.77,740.59l-5.2-3.25"/>
	<path class="st6" d="M720.87,744.13v6.5 M720.87,744.13l5.2-3.25 M720.87,744.13l-5.2-3.25"/>
	<path class="st6" d="M725.97,745.4v6.5 M725.97,745.4l5.2-3.25 M725.97,745.4l-5.2-3.25"/>
	<path class="st6" d="M731.06,742.72v6.5 M731.06,742.72l5.2-3.25 M731.06,742.72l-5.2-3.25"/>
	<path class="st6" d="M736.16,742.72v6.5 M736.16,742.72l5.2-3.25 M736.16,742.72l-5.2-3.25"/>
	<path class="st6" d="M741.26,748.8v6.5 M741.26,748.8l5.2-3.25 M741.26,748.8l-5.2-3.25"/>
	<path class="st6" d="M746.36,749.61v6.5 M746.36,749.61l5.2-3.25 M746.36,749.61l-5.2-3.25"/>
	<path class="st6" d="M751.46,744.26v6.5 M751.46,744.26l5.2-3.25 M751.46,744.26l-5.2-3.25"/>
	<path class="st6" d="M756.56,742.32v6.5 M756.56,742.32l5.2-3.25 M756.56,742.32l-5.2-3.25"/>
	<path class="st6" d="M761.65,746.5v6.5 M761.65,746.5l5.2-3.25 M761.65,746.5l-5.2-3.25"/>
	<path class="st6" d="M766.75,747.32v6.5 M766.75,747.32l5.2-3.25 M766.75,747.32l-5.2-3.25"/>
	<path class="st6" d="M771.85,744.38v6.5 M771.85,744.38l5.2-3.25 M771.85,744.38l-5.2-3.25"/>
	<path class="st6" d="M776.95,739.49v6.5 M776.95,739.49l5.2-3.25 M776.95,739.49l-5.2-3.25"/>
	<path class="st6" d="M782.05,746v6.5 M782.05,746l5.2-3.25 M782.05,746l-5.2-3.25"/>
	<path class="st6" d="M787.14,742.08v6.5 M787.14,742.08l5.2-3.25 M787.14,742.08l-5.2-3.25"/>
	<path class="st6" d="M792.24,741.63v6.5 M792.24,741.63l5.2-3.25 M792.24,741.63l-5.2-3.25"/>
	<path class="st6" d="M797.34,745.55v6.5 M797.34,745.55l5.2-3.25 M797.34,745.55l-5.2-3.25"/>
	<path class="st6" d="M802.44,737.93v6.5 M802.44,737.93l5.2-3.25 M802.44,737.93l-5.2-3.25"/>
	<path class="st6" d="M807.54,740.12v6.5 M807.54,740.12l5.2-3.25 M807.54,740.12l-5.2-3.25"/>
	<path class="st6" d="M812.64,739.55v6.5 M812.64,739.55l5.2-3.25 M812.64,739.55l-5.2-3.25"/>
	<path class="st6" d="M817.73,741.67v6.5 M817.73,741.67l5.2-3.25 M817.73,741.67l-5.2-3.25"/>
	<path class="st6" d="M822.83,740.94v6.5 M822.83,740.94l5.2-3.25 M822.83,740.94l-5.2-3.25"/>
	<path class="st6" d="M827.93,741.91v6.5 M827.93,741.91l5.2-3.25 M827.93,741.91l-5.2-3.25"/>
	<path class="st6" d="M833.03,739.51v6.5 M833.03,739.51l5.2-3.25 M833.03,739.51l-5.2-3.25"/>
	<path class="st6" d="M838.13,738.24v6.5 M838.13,738.24l5.2-3.25 M838.13,738.24l-5.2-3.25"/>
	<path class="st6" d="M843.22,739.33v6.5 M843.22,739.33l5.2-3.25 M843.22,739.33l-5.2-3.25"/>
	<path class="st6" d="M848.32,740.41v6.5 M848.32,740.41l5.2-3.25 M848.32,740.41l-5.2-3.25"/>
	<path class="st6" d="M853.42,734.33v6.5 M853.42,734.33l5.2-3.25 M853.42,734.33l-5.2-3.25"/>
	<path class="st6" d="M858.52,739.16v6.5 M858.52,739.16l5.2-3.25 M858.52,739.16l-5.2-3.25"/>
	<path class="st6" d="M863.62,739.15v6.5 M863.62,739.15l5.2-3.25 M863.62,739.15l-5.2-3.25"/>
	<path class="st6" d="M868.72,742.88v6.5 M868.72,742.88l5.2-3.25 M868.72,742.88l-5.2-3.25"/>
	<path class="st6" d="M873.81,740.06v6.5 M873.81,740.06l5.2-3.25 M873.81,740.06l-5.2-3.25"/>
	<path class="st6" d="M878.91,739.5v6.5 M878.91,739.5l5.2-3.25 M878.91,739.5l-5.2-3.25"/>
	<path class="st6" d="M884.01,744.05v6.5 M884.01,744.05l5.2-3.25 M884.01,744.05l-5.2-3.25"/>
	<path class="st6" d="M889.11,743.11v6.5 M889.11,743.11l5.2-3.25 M889.11,743.11l-5.2-3.25"/>
	<path class="st6" d="M894.21,743.88v6.5 M894.21,743.88l5.2-3.25 M894.21,743.88l-5.2-3.25"/>
	<path class="st6" d="M899.31,739.63v6.5 M899.31,739.63l5.2-3.25 M899.31,739.63l-5.2-3.25"/>
	<path class="st6" d="M904.4,737.47v6.5 M904.4,737.47l5.2-3.25 M904.4,737.47l-5.2-3.25"/>
	<path class="st6" d="M909.5,743.46v6.5 M909.5,743.46l5.2-3.25 M909.5,743.46l-5.2-3.25"/>
	<path class="st6" d="M914.6,741.6v6.5 M914.6,741.6l5.2-3.25 M914.6,741.6l-5.2-3.25"/>
	<path class="st6" d="M919.7,744.2v6.5 M919.7,744.2l5.2-3.25 M919.7,744.2l-5.2-3.25"/>
	<path class="st6" d="M924.8,739.58v6.5 M924.8,739.58l5.2-3.25 M924.8,739.58l-5.2-3.25"/>
	<path class="st6" d="M929.89,735.25v6.5 M929.89,735.25l5.2-3.25 M929.89,735.25l-5.2-3.25"/>
	<path class="st6" d="M934.99,742.07v6.5 M934.99,742.07l5.2-3.25 M934.99,742.07l-5.2-3.25"/>
	<path class="st6" d="M940.09,737.57v6.5 M940.09,737.57l5.2-3.25 M940.09,737.57l-5.2-3.25"/>
	<path class="st6" d="M945.19,739.33v6.5 M945.19,739.33l5.2-3.25 M945.19,739.33l-5.2-3.25"/>
	<path class="st6" d="M950.29,744.91v6.5 M950.29,744.91l5.2-3.25 M950.29,744.91l-5.2-3.25"/>
	<path class="st6" d="M955.39,738.74v6.5 M955.39,738.74l5.2-3.25 M955.39,738.74l-5.2-3.25"/>
	<path class="st6" d="M960.48,735.42v6.5 M960.48,735.42l5.2-3.25 M960.48,735.42l-5.2-3.25"/>
	<path class="st6" d="M965.58,738.43v6.5 M965.58,738.43l5.2-3.25 M965.58,738.43l-5.2-3.25"/>
	<path class="st6" d="M970.68,740.31v6.5 M970.68,740.31l5.2-3.25 M970.68,740.31l-5.2-3.25"/>
	<path class="st6" d="M975.78,743.24v6.5 M975.78,743.24l5.2-3.25 M975.78,743.24l-5.2-3.25"/>
	<path class="st6" d="M980.88,743.64v6.5 M980.88,743.64l5.2-3.25 M980.88,743.64l-5.2-3.25"/>
	<polyline class="st7" points="476.15,354 481.25,397.42 486.35,410.23 491.45,530.38 496.55,609.88 501.64,627.25 506.74,628.36 
		511.84,626.96 516.94,634.82 522.04,646.8 527.13,656.12 532.23,672.82 537.33,680.75 542.43,701.81 547.53,712.71 552.63,716.21 
		557.72,722.97 562.82,725.41 567.92,734.19 573.02,727.06 578.12,728.42 583.22,724.6 588.31,723.64 593.41,721.82 598.51,720.62 
		603.61,720.02 608.71,718.36 613.8,716.89 618.9,707.09 624,708.1 629.1,703 634.2,707.57 639.3,698.96 644.39,702.41 
		649.49,706.48 654.59,710.37 659.69,706.16 664.79,704.8 669.88,708.9 674.98,716.74 680.08,718.02 685.18,709.08 690.28,705.7 
		695.38,708.28 700.47,698.35 705.57,699.9 710.67,700.06 715.77,685.66 720.87,683.52 725.97,691.34 731.06,688.39 736.16,686.58 
		741.26,687.69 746.36,685.99 751.46,689.36 756.55,690.48 761.65,693.69 766.75,702.9 771.85,702.63 776.95,705.53 782.05,704.07 
		787.14,702.81 792.24,710.6 797.34,714.39 802.44,716.01 807.54,723.61 812.64,720.92 817.73,714.34 822.83,719.01 833.03,722.57 
		838.13,727.45 843.22,728.61 848.32,734.61 853.42,740.11 858.52,741.61 863.62,738.75 868.72,734.79 873.81,744.37 878.91,738.27 
		884.01,741.58 889.11,743.67 894.21,742.45 899.3,746.23 904.4,745.36 909.5,744.83 914.6,744.88 919.7,745.42 924.8,748.14 
		929.89,743.72 934.99,743.79 940.09,745.96 945.19,745.45 950.29,743.01 955.39,744.49 960.48,747.72 965.58,747.09 970.68,744.81 
		975.78,747.7 980.88,745.05 985.97,736.83 991.07,743.72 996.17,735.47 1001.27,736.72 1006.37,747.35 1011.47,746.51 
		1016.56,742.3 1021.66,742.83 1026.76,747.27 1031.86,747.78 1036.96,755.47 1042.05,743.85 1047.15,736.3 1052.25,746.07 
		1057.35,744.53 1062.45,749.68 1067.55,747.87 1072.64,748.67 1077.74,747.51 1082.84,753.49 1087.94,746.46 1093.04,753.97 
		1098.14,740.78 1103.23,754.52 1108.33,759.21 1113.43,755.07 1118.53,757.99 1123.63,758.35 1128.72,759.86 1133.82,755.18 
		1138.92,758.24 1144.02,746.78 1149.12,736 1154.22,760.34 1159.31,749.37 1164.41,757.54 1169.51,760.22 1174.61,762.78 
		1179.71,760.69 1184.8,758.01 1189.9,758.7 1195,755.5 1200.1,760.05 1205.2,762.57 1210.3,766.64 1215.39,767.37 1220.49,762.26 
		1225.59,766.63 1230.69,762.67 1235.79,765.41 1240.89,763.68 1245.98,762.17 1251.08,764.3 1256.18,760.06 1261.28,765.93 
		1266.38,769.53 1271.47,759.04 1276.57,766.62 1281.67,762.87 1286.77,766.3 1291.87,770.51 1296.97,770.5 1302.06,772.1 
		1307.16,769.39 1312.26,771.6 1317.36,770.01 1322.46,763.55 1327.55,772.68 1332.65,771.56 1337.75,769.08 1342.85,772.02 
		1347.95,769.82 1353.05,774.9 1358.14,777 1363.24,770.58 1368.34,774.39 1373.44,767.69 1378.54,774.91 1383.64,775.37 
		1388.73,770.44 1393.83,775.69 1398.93,769.09 1404.03,772.97 1409.13,773.21 1414.22,773.81 1419.32,769.97 1424.42,765.13 
		1429.52,778.39 1434.62,773.28 1439.72,771.77 1444.81,773.82 1449.91,765.96 1455.01,759.54 1460.11,738.48 1465.21,745.54 
		1470.31,759.4 1475.4,732.54 1475.4,732.54 	"/>
	<rect x="475.65" y="353.5" class="st8" width="1" height="1"/>
	<rect x="480.75" y="396.92" class="st8" width="1" height="1"/>
	<rect x="485.85" y="409.73" class="st8" width="1" height="1"/>
	<rect x="490.95" y="529.88" class="st8" width="1" height="1"/>
	<rect x="496.05" y="609.38" class="st8" width="1" height="1"/>
	<rect x="501.14" y="626.75" class="st8" width="1" height="1"/>
	<rect x="506.24" y="627.86" class="st8" width="1" height="1"/>
	<rect x="511.34" y="626.46" class="st8" width="1" height="1"/>
	<rect x="516.44" y="634.32" class="st8" width="1" height="1"/>
	<rect x="521.54" y="646.3" class="st8" width="1" height="1"/>
	<rect x="526.64" y="655.62" class="st8" width="1" height="1"/>
	<rect x="531.73" y="672.32" class="st8" width="1" height="1"/>
	<rect x="536.83" y="680.25" class="st8" width="1" height="1"/>
	<rect x="541.93" y="701.31" class="st8" width="1" height="1"/>
	<rect x="547.03" y="712.21" class="st8" width="1" height="1"/>
	<rect x="552.13" y="715.71" class="st8" width="1" height="1"/>
	<rect x="557.22" y="722.47" class="st8" width="1" height="1"/>
	<rect x="562.32" y="724.91" class="st8" width="1" height="1"/>
	<rect x="567.42" y="733.69" class="st8" width="1" height="1"/>
	<rect x="572.52" y="726.56" class="st8" width="1" height="1"/>
	<rect x="577.62" y="727.92" class="st8" width="1" height="1"/>
	<rect x="582.72" y="724.1" class="st8" width="1" height="1"/>
	<rect x="587.81" y="723.14" class="st8" width="1" height="1"/>
	<rect x="592.91" y="721.32" class="st8" width="1" height="1"/>
	<rect x="598.01" y="720.12" class="st8" width="1" height="1"/>
	<rect x="603.11" y="719.52" class="st8" width="1" height="1"/>
	<rect x="608.21" y="717.86" class="st8" width="1" height="1"/>
	<rect x="613.3" y="716.39" class="st8" width="1" height="1"/>
	<rect x="618.4" y="706.59" class="st8" width="1" height="1"/>
	<rect x="623.5" y="707.6" class="st8" width="1" height="1"/>
	<rect x="628.6" y="702.5" class="st8" width="1" height="1"/>
	<rect x="633.7" y="707.07" class="st8" width="1" height="1"/>
	<rect x="638.8" y="698.46" class="st8" width="1" height="1"/>
	<rect x="643.89" y="701.91" class="st8" width="1" height="1"/>
	<rect x="648.99" y="705.98" class="st8" width="1" height="1"/>
	<rect x="654.09" y="709.87" class="st8" width="1" height="1"/>
	<rect x="659.19" y="705.66" class="st8" width="1" height="1"/>
	<rect x="664.29" y="704.3" class="st8" width="1" height="1"/>
	<rect x="669.39" y="708.4" class="st8" width="1" height="1"/>
	<rect x="674.48" y="716.24" class="st8" width="1" height="1"/>
	<rect x="679.58" y="717.52" class="st8" width="1" height="1"/>
	<rect x="684.68" y="708.58" class="st8" width="1" height="1"/>
	<rect x="689.78" y="705.2" class="st8" width="1" height="1"/>
	<rect x="694.88" y="707.78" class="st8" width="1" height="1"/>
	<rect x="699.97" y="697.85" class="st8" width="1" height="1"/>
	<rect x="705.07" y="699.4" class="st8" width="1" height="1"/>
	<rect x="710.17" y="699.56" class="st8" width="1" height="1"/>
	<rect x="715.27" y="685.16" class="st8" width="1" height="1"/>
	<rect x="720.37" y="683.02" class="st8" width="1" height="1"/>
	<rect x="725.47" y="690.84" class="st8" width="1" height="1"/>
	<rect x="730.56" y="687.89" class="st8" width="1" height="1"/>
	<rect x="735.66" y="686.08" class="st8" width="1" height="1"/>
	<rect x="740.76" y="687.19" class="st8" width="1" height="1"/>
	<rect x="745.86" y="685.49" class="st8" width="1" height="1"/>
	<rect x="750.96" y="688.86" class="st8" width="1" height="1"/>
	<rect x="756.06" y="689.98" class="st8" width="1" height="1"/>
	<rect x="761.15" y="693.19" class="st8" width="1" height="1"/>
	<rect x="766.25" y="702.4" class="st8" width="1" height="1"/>
	<rect x="771.35" y="702.13" class="st8" width="1" height="1"/>
	<rect x="776.45" y="705.03" class="st8" width="1" height="1"/>
	<rect x="781.55" y="703.57" class="st8" width="1" height="1"/>
	<rect x="786.64" y="702.31" class="st8" width="1" height="1"/>
	<rect x="791.74" y="710.1" class="st8" width="1" height="1"/>
	<rect x="796.84" y="713.89" class="st8" width="1" height="1"/>
	<rect x="801.94" y="715.51" class="st8" width="1" height="1"/>
	<rect x="807.04" y="723.11" class="st8" width="1" height="1"/>
	<rect x="812.14" y="720.42" class="st8" width="1" height="1"/>
	<rect x="817.23" y="713.84" class="st8" width="1" height="1"/>
	<rect x="822.33" y="718.51" class="st8" width="1" height="1"/>
	<rect x="827.43" y="720.35" class="st8" width="1" height="1"/>
	<rect x="832.53" y="722.07" class="st8" width="1" height="1"/>
	<rect x="837.63" y="726.95" class="st8" width="1" height="1"/>
	<rect x="842.72" y="728.11" class="st8" width="1" height="1"/>
	<rect x="847.82" y="734.11" class="st8" width="1" height="1"/>
	<rect x="852.92" y="739.61" class="st8" width="1" height="1"/>
	<rect x="858.02" y="741.11" class="st8" width="1" height="1"/>
	<rect x="863.12" y="738.25" class="st8" width="1" height="1"/>
	<rect x="868.22" y="734.29" class="st8" width="1" height="1"/>
	<rect x="873.31" y="743.87" class="st8" width="1" height="1"/>
	<rect x="878.41" y="737.77" class="st8" width="1" height="1"/>
	<rect x="883.51" y="741.08" class="st8" width="1" height="1"/>
	<rect x="888.61" y="743.17" class="st8" width="1" height="1"/>
	<rect x="893.71" y="741.95" class="st8" width="1" height="1"/>
	<rect x="898.81" y="745.73" class="st8" width="1" height="1"/>
	<rect x="903.9" y="744.86" class="st8" width="1" height="1"/>
	<rect x="909" y="744.33" class="st8" width="1" height="1"/>
	<rect x="914.1" y="744.38" class="st8" width="1" height="1"/>
	<rect x="919.2" y="744.92" class="st8" width="1" height="1"/>
	<rect x="924.3" y="747.64" class="st8" width="1" height="1"/>
	<rect x="929.39" y="743.22" class="st8" width="1" height="1"/>
	<rect x="934.49" y="743.29" class="st8" width="1" height="1"/>
	<rect x="939.59" y="745.46" class="st8" width="1" height="1"/>
	<rect x="944.69" y="744.95" class="st8" width="1" height="1"/>
	<rect x="949.79" y="742.51" class="st8" width="1" height="1"/>
	<rect x="954.89" y="743.99" class="st8" width="1" height="1"/>
	<rect x="959.98" y="747.22" class="st8" width="1" height="1"/>
	<rect x="965.08" y="746.59" class="st8" width="1" height="1"/>
	<rect x="970.18" y="744.31" class="st8" width="1" height="1"/>
	<rect x="975.28" y="747.2" class="st8" width="1" height="1"/>
	<rect x="980.38" y="744.55" class="st8" width="1" height="1"/>
	<rect x="985.47" y="736.33" class="st8" width="1" height="1"/>
	<rect x="990.57" y="743.22" class="st8" width="1" height="1"/>
	<rect x="995.67" y="734.97" class="st8" width="1" height="1"/>
	<rect x="1000.77" y="736.22" class="st8" width="1" height="1"/>
	<rect x="1005.87" y="746.85" class="st8" width="1" height="1"/>
	<rect x="1010.97" y="746.01" class="st8" width="1" height="1"/>
	<rect x="1016.06" y="741.8" class="st8" width="1" height="1"/>
	<rect x="1021.16" y="742.33" class="st8" width="1" height="1"/>
	<rect x="1026.26" y="746.77" class="st8" width="1" height="1"/>
	<rect x="1031.36" y="747.28" class="st8" width="1" height="1"/>
	<rect x="1036.46" y="754.97" class="st8" width="1" height="1"/>
	<rect x="1041.56" y="743.35" class="st8" width="1" height="1"/>
	<rect x="1046.65" y="735.8" class="st8" width="1" height="1"/>
	<rect x="1051.75" y="745.57" class="st8" width="1" height="1"/>
	<rect x="1056.85" y="744.03" class="st8" width="1" height="1"/>
	<rect x="1061.95" y="749.18" class="st8" width="1" height="1"/>
	<rect x="1067.05" y="747.37" class="st8" width="1" height="1"/>
	<rect x="1072.14" y="748.17" class="st8" width="1" height="1"/>
	<rect x="1077.24" y="747.01" class="st8" width="1" height="1"/>
	<rect x="1082.34" y="752.99" class="st8" width="1" height="1"/>
	<rect x="1087.44" y="745.96" class="st8" width="1" height="1"/>
	<rect x="1092.54" y="753.47" class="st8" width="1" height="1"/>
	<rect x="1097.64" y="740.28" class="st8" width="1" height="1"/>
	<rect x="1102.73" y="754.02" class="st8" width="1" height="1"/>
	<rect x="1107.83" y="758.71" class="st8" width="1" height="1"/>
	<rect x="1112.93" y="754.57" class="st8" width="1" height="1"/>
	<rect x="1118.03" y="757.49" class="st8" width="1" height="1"/>
	<rect x="1123.13" y="757.85" class="st8" width="1" height="1"/>
	<rect x="1128.22" y="759.36" class="st8" width="1" height="1"/>
	<rect x="1133.32" y="754.68" class="st8" width="1" height="1"/>
	<rect x="1138.42" y="757.74" class="st8" width="1" height="1"/>
	<rect x="1143.52" y="746.28" class="st8" width="1" height="1"/>
	<rect x="1148.62" y="735.5" class="st8" width="1" height="1"/>
	<rect x="1153.72" y="759.84" class="st8" width="1" height="1"/>
	<rect x="1158.81" y="748.87" class="st8" width="1" height="1"/>
	<rect x="1163.91" y="757.04" class="st8" width="1" height="1"/>
	<rect x="1169.01" y="759.72" class="st8" width="1" height="1"/>
	<rect x="1174.11" y="762.28" class="st8" width="1" height="1"/>
	<rect x="1179.21" y="760.19" class="st8" width="1" height="1"/>
	<rect x="1184.31" y="757.51" class="st8" width="1" height="1"/>
	<rect x="1189.4" y="758.2" class="st8" width="1" height="1"/>
	<rect x="1194.5" y="755" class="st8" width="1" height="1"/>
	<rect x="1199.6" y="759.55" class="st8" width="1" height="1"/>
	<rect x="1204.7" y="762.07" class="st8" width="1" height="1"/>
	<rect x="1209.8" y="766.14" class="st8" width="1" height="1"/>
	<rect x="1214.89" y="766.87" class="st8" width="1" height="1"/>
	<rect x="1219.99" y="761.76" class="st8" width="1" height="1"/>
	<rect x="1225.09" y="766.13" class="st8" width="1" height="1"/>
	<rect x="1230.19" y="762.17" class="st8" width="1" height="1"/>
	<rect x="1235.29" y="764.91" class="st8" width="1" height="1"/>
	<rect x="1240.39" y="763.18" class="st8" width="1" height="1"/>
	<rect x="1245.48" y="761.67" class="st8" width="1" height="1"/>
	<rect x="1250.58" y="763.8" class="st8" width="1" height="1"/>
	<rect x="1255.68" y="759.56" class="st8" width="1" height="1"/>
	<rect x="1260.78" y="765.43" class="st8" width="1" height="1"/>
	<rect x="1265.88" y="769.03" class="st8" width="1" height="1"/>
	<rect x="1270.98" y="758.54" class="st8" width="1" height="1"/>
	<rect x="1276.07" y="766.12" class="st8" width="1" height="1"/>
	<rect x="1281.17" y="762.37" class="st8" width="1" height="1"/>
	<rect x="1286.27" y="765.8" class="st8" width="1" height="1"/>
	<rect x="1291.37" y="770.01" class="st8" width="1" height="1"/>
	<rect x="1296.47" y="770" class="st8" width="1" height="1"/>
	<rect x="1301.56" y="771.6" class="st8" width="1" height="1"/>
	<rect x="1306.66" y="768.89" class="st8" width="1" height="1"/>
	<rect x="1311.76" y="771.1" class="st8" width="1" height="1"/>
	<rect x="1316.86" y="769.51" class="st8" width="1" height="1"/>
	<rect x="1321.96" y="763.05" class="st8" width="1" height="1"/>
	<rect x="1327.06" y="772.18" class="st8" width="1" height="1"/>
	<rect x="1332.15" y="771.06" class="st8" width="1" height="1"/>
	<rect x="1337.25" y="768.58" class="st8" width="1" height="1"/>
	<rect x="1342.35" y="771.52" class="st8" width="1" height="1"/>
	<rect x="1347.45" y="769.32" class="st8" width="1" height="1"/>
	<rect x="1352.55" y="774.4" class="st8" width="1" height="1"/>
	<rect x="1357.64" y="776.5" class="st8" width="1" height="1"/>
	<rect x="1362.74" y="770.08" class="st8" width="1" height="1"/>
	<rect x="1367.84" y="773.89" class="st8" width="1" height="1"/>
	<rect x="1372.93" y="767.19" class="st8" width="1" height="1"/>
	<rect x="1378.03" y="774.41" class="st8" width="1" height="1"/>
	<rect x="1383.13" y="774.87" class="st8" width="1" height="1"/>
	<rect x="1388.23" y="769.94" class="st8" width="1" height="1"/>
	<rect x="1393.33" y="775.19" class="st8" width="1" height="1"/>
	<rect x="1398.43" y="768.59" class="st8" width="1" height="1"/>
	<rect x="1403.52" y="772.47" class="st8" width="1" height="1"/>
	<rect x="1408.62" y="772.71" class="st8" width="1" height="1"/>
	<rect x="1413.72" y="773.31" class="st8" width="1" height="1"/>
	<rect x="1418.82" y="769.47" class="st8" width="1" height="1"/>
	<rect x="1423.92" y="764.63" class="st8" width="1" height="1"/>
	<rect x="1429.02" y="777.89" class="st8" width="1" height="1"/>
	<rect x="1434.11" y="772.78" class="st8" width="1" height="1"/>
	<rect x="1439.21" y="771.27" class="st8" width="1" height="1"/>
	<rect x="1444.31" y="773.32" class="st8" width="1" height="1"/>
	<rect x="1449.41" y="765.46" class="st8" width="1" height="1"/>
	<rect x="1454.51" y="759.04" class="st8" width="1" height="1"/>
	<rect x="1459.6" y="737.98" class="st8" width="1" height="1"/>
	<rect x="1464.7" y="745.04" class="st8" width="1" height="1"/>
	<rect x="1469.8" y="758.9" class="st8" width="1" height="1"/>
	<rect x="1474.9" y="732.04" class="st8" width="1" height="1"/>
	<path class="st9" d="M425.43,803.1V259.5 M1541.43,803.1V259.5 M425.43,803.1h1116 M425.43,259.5h1116"/>
	<path class="st2" d="M906.93,248.17v4.01h2.37c0.8,0,1.38-0.16,1.77-0.49c0.39-0.33,0.58-0.83,0.58-1.52s-0.19-1.19-0.58-1.51
		c-0.38-0.33-0.97-0.49-1.77-0.49H906.93 M906.93,243.68v3.3h2.19c0.73,0,1.26-0.13,1.61-0.4c0.36-0.27,0.53-0.69,0.53-1.25
		c0-0.55-0.18-0.97-0.53-1.24c-0.35-0.27-0.89-0.41-1.61-0.41H906.93 M905.45,242.46h3.78c1.13,0,2,0.23,2.61,0.7s0.92,1.14,0.92,2
		c0,0.67-0.15,1.2-0.47,1.6s-0.77,0.64-1.38,0.74c0.73,0.15,1.29,0.48,1.69,0.98c0.4,0.49,0.61,1.11,0.61,1.85
		c0,0.97-0.33,1.73-1,2.26s-1.61,0.8-2.83,0.8h-3.93V242.46L905.45,242.46z"/>
	<path class="st2" d="M919.44,249.27c-1.09,0-1.85,0.12-2.26,0.37s-0.63,0.67-0.63,1.27c0,0.48,0.15,0.86,0.47,1.14
		c0.31,0.28,0.75,0.42,1.29,0.42c0.75,0,1.35-0.26,1.79-0.79c0.45-0.53,0.68-1.24,0.68-2.12v-0.3H919.44 M922.12,248.72v4.68h-1.35
		v-1.25c-0.31,0.5-0.69,0.86-1.15,1.11c-0.46,0.23-1.02,0.35-1.68,0.35c-0.84,0-1.51-0.23-2.01-0.7c-0.49-0.48-0.74-1.11-0.74-1.9
		c0-0.92,0.31-1.62,0.92-2.09c0.62-0.47,1.55-0.7,2.77-0.7h1.89v-0.13c0-0.62-0.21-1.1-0.62-1.44c-0.4-0.34-0.97-0.51-1.71-0.51
		c-0.47,0-0.92,0.06-1.37,0.17s-0.87,0.28-1.28,0.51v-1.25c0.49-0.19,0.97-0.33,1.44-0.42s0.92-0.15,1.35-0.15
		c1.19,0,2.07,0.31,2.66,0.92S922.12,247.46,922.12,248.72L922.12,248.72z"/>
	<path class="st2" d="M930.3,245.44v1.27c-0.38-0.2-0.78-0.34-1.19-0.44s-0.83-0.15-1.27-0.15c-0.67,0-1.17,0.1-1.51,0.31
		c-0.33,0.21-0.5,0.51-0.5,0.92c0,0.31,0.12,0.56,0.36,0.74c0.24,0.18,0.72,0.34,1.44,0.51l0.46,0.1c0.96,0.21,1.63,0.5,2.04,0.87
		s0.61,0.89,0.61,1.56c0,0.76-0.3,1.36-0.91,1.81c-0.6,0.45-1.43,0.67-2.48,0.67c-0.44,0-0.9-0.04-1.38-0.13
		c-0.48-0.08-0.97-0.21-1.5-0.38v-1.39c0.5,0.26,0.99,0.45,1.47,0.59c0.48,0.12,0.96,0.19,1.44,0.19c0.64,0,1.12-0.11,1.46-0.32
		c0.34-0.22,0.51-0.53,0.51-0.92c0-0.37-0.12-0.64-0.37-0.84c-0.24-0.2-0.78-0.38-1.62-0.56l-0.47-0.11
		c-0.83-0.18-1.44-0.45-1.81-0.81c-0.37-0.37-0.56-0.86-0.56-1.5c0-0.77,0.27-1.37,0.82-1.79s1.33-0.63,2.33-0.63
		c0.5,0,0.97,0.04,1.41,0.11S929.92,245.29,930.3,245.44L930.3,245.44z"/>
	<path class="st2" d="M939.77,248.96v0.66h-6.2c0.06,0.93,0.34,1.63,0.83,2.12c0.51,0.48,1.2,0.73,2.09,0.73
		c0.52,0,1.02-0.07,1.5-0.19c0.49-0.12,0.97-0.31,1.45-0.57v1.27c-0.48,0.21-0.98,0.36-1.49,0.47s-1.03,0.16-1.55,0.16
		c-1.31,0-2.34-0.38-3.11-1.14c-0.76-0.76-1.14-1.79-1.14-3.09c0-1.34,0.36-2.41,1.08-3.19c0.73-0.79,1.71-1.19,2.94-1.19
		c1.11,0,1.98,0.36,2.61,1.07C939.44,246.78,939.77,247.73,939.77,248.96 M938.42,248.56c-0.01-0.74-0.22-1.33-0.62-1.77
		s-0.93-0.66-1.6-0.66c-0.75,0-1.35,0.21-1.81,0.64c-0.45,0.42-0.71,1.03-0.78,1.79L938.42,248.56L938.42,248.56z"/>
	<polygon class="st2" points="942.11,242 943.46,242 943.46,253.4 942.11,253.4 942.11,242 	"/>
	<path class="st2" d="M946.19,245.19h1.35v8.2h-1.35V245.19 M946.19,242h1.35v1.71h-1.35V242L946.19,242z"/>
	<path class="st2" d="M957.09,248.45v4.95h-1.35v-4.91c0-0.78-0.15-1.35-0.45-1.74s-0.75-0.58-1.36-0.58c-0.73,0-1.3,0.23-1.72,0.7
		s-0.63,1.1-0.63,1.9v4.64h-1.35v-8.2h1.35v1.27c0.32-0.49,0.7-0.86,1.14-1.11c0.44-0.24,0.94-0.37,1.52-0.37
		c0.94,0,1.66,0.29,2.14,0.88C956.85,246.45,957.09,247.31,957.09,248.45L957.09,248.45z"/>
	<path class="st2" d="M966.89,248.96v0.66h-6.2c0.06,0.93,0.34,1.63,0.83,2.12c0.51,0.48,1.2,0.73,2.09,0.73
		c0.52,0,1.02-0.07,1.5-0.19c0.49-0.12,0.97-0.31,1.45-0.57v1.27c-0.48,0.21-0.98,0.36-1.49,0.47s-1.03,0.16-1.55,0.16
		c-1.31,0-2.34-0.38-3.11-1.14c-0.76-0.76-1.14-1.79-1.14-3.09c0-1.34,0.36-2.41,1.08-3.19c0.73-0.79,1.71-1.19,2.94-1.19
		c1.11,0,1.98,0.36,2.61,1.07C966.56,246.78,966.89,247.73,966.89,248.96 M965.54,248.56c-0.01-0.74-0.22-1.33-0.62-1.77
		s-0.93-0.66-1.6-0.66c-0.75,0-1.35,0.21-1.81,0.64c-0.45,0.42-0.71,1.03-0.78,1.79L965.54,248.56L965.54,248.56z"/>
	<polygon class="st2" points="973.85,242.46 976.05,242.46 978.84,249.9 981.65,242.46 983.85,242.46 983.85,253.4 982.41,253.4 
		982.41,243.79 979.59,251.29 978.1,251.29 975.28,243.79 975.28,253.4 973.85,253.4 973.85,242.46 	"/>
	<path class="st2" d="M989.93,246.14c-0.73,0-1.3,0.29-1.71,0.85s-0.63,1.33-0.63,2.31s0.21,1.76,0.62,2.32s1,0.84,1.72,0.84
		c0.72,0,1.29-0.29,1.71-0.85s0.63-1.34,0.63-2.31s-0.21-1.74-0.63-2.31C991.22,246.42,990.65,246.14,989.93,246.14 M989.93,245
		c1.17,0,2.09,0.38,2.76,1.14s1,1.82,1,3.16c0,1.34-0.34,2.4-1,3.16c-0.67,0.76-1.59,1.14-2.76,1.14c-1.18,0-2.1-0.38-2.77-1.14
		c-0.67-0.77-1-1.82-1-3.16c0-1.35,0.33-2.4,1-3.16S988.75,245,989.93,245L989.93,245z"/>
	<path class="st2" d="M1001.27,246.44V242h1.35v11.4h-1.35v-1.23c-0.29,0.49-0.64,0.85-1.08,1.09c-0.43,0.23-0.94,0.35-1.55,0.35
		c-0.99,0-1.8-0.4-2.42-1.19s-0.93-1.83-0.93-3.12s0.31-2.33,0.93-3.12s1.44-1.19,2.42-1.19c0.61,0,1.12,0.12,1.55,0.36
		C1000.62,245.59,1000.98,245.95,1001.27,246.44 M996.67,249.3c0,0.99,0.21,1.77,0.61,2.34c0.41,0.56,0.97,0.84,1.68,0.84
		s1.27-0.28,1.68-0.84s0.62-1.35,0.62-2.34s-0.21-1.77-0.62-2.33s-0.97-0.85-1.68-0.85s-1.27,0.29-1.68,0.85
		C996.88,247.54,996.67,248.31,996.67,249.3L996.67,249.3z"/>
	<path class="st2" d="M1012.49,248.96v0.66h-6.2c0.06,0.93,0.34,1.63,0.83,2.12c0.51,0.48,1.2,0.73,2.09,0.73
		c0.52,0,1.02-0.07,1.5-0.19c0.49-0.12,0.97-0.31,1.45-0.57v1.27c-0.48,0.21-0.98,0.36-1.49,0.47s-1.03,0.16-1.55,0.16
		c-1.31,0-2.34-0.38-3.11-1.14c-0.76-0.76-1.14-1.79-1.14-3.09c0-1.34,0.36-2.41,1.08-3.19c0.73-0.79,1.71-1.19,2.94-1.19
		c1.11,0,1.98,0.36,2.61,1.07C1012.16,246.78,1012.49,247.73,1012.49,248.96 M1011.14,248.56c-0.01-0.74-0.22-1.33-0.62-1.77
		s-0.93-0.66-1.6-0.66c-0.75,0-1.35,0.21-1.81,0.64c-0.45,0.42-0.71,1.03-0.78,1.79L1011.14,248.56L1011.14,248.56z"/>
	<polygon class="st2" points="1014.83,242 1016.18,242 1016.18,253.4 1014.83,253.4 1014.83,242 	"/>
	<path class="st2" d="M1024.14,245.44v1.27c-0.38-0.2-0.78-0.34-1.19-0.44s-0.83-0.15-1.27-0.15c-0.67,0-1.17,0.1-1.51,0.31
		c-0.33,0.21-0.5,0.51-0.5,0.92c0,0.31,0.12,0.56,0.36,0.74c0.24,0.18,0.72,0.34,1.44,0.51l0.46,0.1c0.96,0.21,1.63,0.5,2.04,0.87
		s0.61,0.89,0.61,1.56c0,0.76-0.3,1.36-0.91,1.81c-0.6,0.45-1.43,0.67-2.48,0.67c-0.44,0-0.9-0.04-1.38-0.13
		c-0.48-0.08-0.97-0.21-1.5-0.38v-1.39c0.5,0.26,0.99,0.45,1.47,0.59c0.48,0.12,0.96,0.19,1.44,0.19c0.64,0,1.12-0.11,1.46-0.32
		c0.34-0.22,0.51-0.53,0.51-0.92c0-0.37-0.12-0.64-0.37-0.84c-0.24-0.2-0.78-0.38-1.62-0.56l-0.47-0.11
		c-0.83-0.18-1.44-0.45-1.81-0.81c-0.37-0.37-0.56-0.86-0.56-1.5c0-0.77,0.27-1.37,0.82-1.79s1.33-0.63,2.33-0.63
		c0.5,0,0.97,0.04,1.41,0.11S1023.76,245.29,1024.14,245.44L1024.14,245.44z"/>
	<polygon class="st2" points="1031.45,242.46 1033.65,242.46 1036.44,249.9 1039.25,242.46 1041.45,242.46 1041.45,253.4 
		1040.01,253.4 1040.01,243.79 1037.19,251.29 1035.7,251.29 1032.88,243.79 1032.88,253.4 1031.45,253.4 1031.45,242.46 	"/>
	<path class="st2" d="M1048.06,243.92l-2.01,5.44h4.02L1048.06,243.92 M1047.23,242.46h1.68l4.17,10.94h-1.54l-1-2.81h-4.93l-1,2.81
		h-1.56L1047.23,242.46L1047.23,242.46z"/>
	<polygon class="st2" points="1054.73,242.46 1061.64,242.46 1061.64,243.71 1056.21,243.71 1056.21,246.94 1061.41,246.94 
		1061.41,248.19 1056.21,248.19 1056.21,252.15 1061.77,252.15 1061.77,253.4 1054.73,253.4 1054.73,242.46 	"/>
	<path class="st10" d="M1442.96,337.54h87.97c2,0,3-1,3-3V270c0-2-1-3-3-3h-87.97c-2,0-3,1-3,3v64.55
		C1439.96,336.54,1440.96,337.54,1442.96,337.54L1442.96,337.54z"/>
	<polyline class="st3" points="1445.96,279.14 1460.96,279.14 1475.96,279.14 	"/>
	<polygon class="st4" points="1460.95,276.14 1457.95,282.14 1463.95,282.14 	"/>
	<path class="st2" d="M1496.82,282.8v-2.94h-2.42v-1.22h3.88v4.69c-0.57,0.4-1.2,0.71-1.89,0.92c-0.69,0.21-1.42,0.31-2.2,0.31
		c-1.71,0-3.05-0.5-4.01-1.49c-0.96-1-1.44-2.4-1.44-4.17c0-1.79,0.48-3.18,1.44-4.17c0.97-1,2.31-1.5,4.01-1.5
		c0.71,0,1.39,0.09,2.03,0.26c0.64,0.18,1.24,0.43,1.78,0.78v1.57c-0.55-0.46-1.13-0.81-1.74-1.05s-1.26-0.35-1.94-0.35
		c-1.34,0-2.34,0.37-3.02,1.12c-0.67,0.75-1,1.86-1,3.34c0,1.47,0.34,2.59,1,3.33c0.67,0.75,1.68,1.12,3.02,1.12
		c0.52,0,0.99-0.04,1.4-0.13C1496.13,283.13,1496.49,282.99,1496.82,282.8L1496.82,282.8z"/>
	<path class="st2" d="M1506.31,279.23c0.31,0.11,0.62,0.34,0.92,0.69s0.61,0.83,0.91,1.45l1.5,2.99h-1.59l-1.4-2.81
		c-0.36-0.73-0.71-1.22-1.05-1.46c-0.34-0.24-0.8-0.36-1.38-0.36h-1.61v4.62h-1.48v-10.94h3.34c1.25,0,2.18,0.26,2.8,0.78
		s0.92,1.31,0.92,2.37c0,0.69-0.16,1.26-0.48,1.71C1507.39,278.74,1506.92,279.05,1506.31,279.23 M1502.61,274.64v3.88h1.86
		c0.71,0,1.25-0.16,1.61-0.49c0.37-0.33,0.55-0.82,0.55-1.46s-0.18-1.12-0.55-1.44c-0.36-0.33-0.9-0.49-1.61-0.49H1502.61
		L1502.61,274.64z"/>
	<path class="st2" d="M1511.28,273.42h1.49v6.64c0,1.17,0.21,2.01,0.64,2.53c0.42,0.51,1.11,0.77,2.07,0.77
		c0.94,0,1.63-0.26,2.06-0.77c0.42-0.52,0.64-1.36,0.64-2.53v-6.64h1.49v6.83c0,1.43-0.35,2.5-1.06,3.23
		c-0.7,0.73-1.74,1.09-3.12,1.09c-1.38,0-2.42-0.37-3.13-1.09c-0.7-0.73-1.05-1.8-1.05-3.23V273.42L1511.28,273.42z"/>
	<polyline class="st5" points="1445.96,301.15 1460.96,301.15 1475.96,301.15 	"/>
	<path class="st6" d="M1460.95,301.15v6.5 M1460.95,301.15l5.2-3.25 M1460.95,301.15l-5.2-3.25"/>
	<path class="st2" d="M1494.55,301.31c0.31,0.11,0.62,0.34,0.92,0.69s0.61,0.83,0.91,1.45l1.5,2.99h-1.59l-1.4-2.81
		c-0.36-0.73-0.71-1.22-1.05-1.46c-0.34-0.24-0.8-0.36-1.38-0.36h-1.61v4.62h-1.48V295.5h3.34c1.25,0,2.18,0.26,2.8,0.78
		s0.92,1.31,0.92,2.37c0,0.69-0.16,1.26-0.48,1.71C1495.63,300.82,1495.16,301.13,1494.55,301.31 M1490.85,296.72v3.88h1.86
		c0.71,0,1.25-0.16,1.61-0.49c0.37-0.33,0.55-0.82,0.55-1.46s-0.18-1.12-0.55-1.44c-0.36-0.33-0.9-0.49-1.61-0.49H1490.85
		L1490.85,296.72z"/>
	<polygon class="st2" points="1499.93,295.5 1501.92,295.5 1506.77,304.65 1506.77,295.5 1508.2,295.5 1508.2,306.44 
		1506.21,306.44 1501.36,297.29 1501.36,306.44 1499.93,306.44 1499.93,295.5 	"/>
	<polygon class="st2" points="1510.97,295.5 1512.96,295.5 1517.81,304.65 1517.81,295.5 1519.24,295.5 1519.24,306.44 
		1517.25,306.44 1512.4,297.29 1512.4,306.44 1510.97,306.44 1510.97,295.5 	"/>
	<polyline class="st7" points="1445.96,323.17 1460.96,323.17 1475.96,323.17 	"/>
	<rect x="1460.45" y="322.67" class="st8" width="1" height="1"/>
	<polygon class="st2" points="1489.37,317.58 1490.85,317.58 1490.85,327.27 1496.17,327.27 1496.17,328.52 1489.37,328.52 
		1489.37,317.58 	"/>
	<path class="st2" d="M1504.32,317.94v1.44c-0.56-0.27-1.09-0.47-1.59-0.6s-0.98-0.2-1.44-0.2c-0.81,0-1.43,0.15-1.87,0.47
		c-0.43,0.31-0.65,0.75-0.65,1.33c0,0.48,0.15,0.85,0.43,1.1c0.29,0.24,0.84,0.44,1.66,0.59l0.89,0.18
		c1.11,0.21,1.92,0.58,2.44,1.11c0.53,0.53,0.79,1.24,0.79,2.12c0,1.06-0.36,1.86-1.07,2.41s-1.75,0.82-3.12,0.82
		c-0.52,0-1.07-0.06-1.66-0.18c-0.58-0.12-1.19-0.29-1.81-0.52v-1.52c0.6,0.34,1.19,0.59,1.77,0.76s1.14,0.26,1.7,0.26
		c0.84,0,1.49-0.17,1.96-0.5s0.69-0.81,0.69-1.42c0-0.53-0.17-0.96-0.5-1.26s-0.86-0.53-1.62-0.68l-0.9-0.18
		c-1.11-0.22-1.9-0.56-2.4-1.03s-0.74-1.12-0.74-1.96c0-0.97,0.34-1.73,1.02-2.29s1.63-0.83,2.82-0.83c0.51,0,1.03,0.04,1.57,0.14
		S1503.77,317.76,1504.32,317.94L1504.32,317.94z"/>
	<polygon class="st2" points="1505.85,317.58 1515.1,317.58 1515.1,318.83 1511.22,318.83 1511.22,328.52 1509.73,328.52 
		1509.73,318.83 1505.85,318.83 1505.85,317.58 	"/>
	<polygon class="st2" points="1516.49,317.58 1518.69,317.58 1521.48,325.02 1524.29,317.58 1526.49,317.58 1526.49,328.52 
		1525.05,328.52 1525.05,318.91 1522.23,326.41 1520.74,326.41 1517.92,318.91 1517.92,328.52 1516.49,328.52 1516.49,317.58 	"/>
</g>
</svg>
