<?xml version="1.0" encoding="utf-8"?>
<!-- Generator: Adobe Illustrator 25.2.1, SVG Export Plug-In . SVG Version: 6.00 Build 0)  -->
<svg version="1.1" id="Layer_1" xmlns="http://www.w3.org/2000/svg" xmlns:xlink="http://www.w3.org/1999/xlink" x="0px" y="0px"
	 viewBox="0 0 1920 1080" style="enable-background:new 0 0 1920 1080;" xml:space="preserve">
<style type="text/css">
	.st0{fill:#FFFFFF;}
	.st1{stroke:#000000;stroke-width:0.8;stroke-linejoin:round;stroke-miterlimit:10;}
	.st2{fill-rule:evenodd;clip-rule:evenodd;}
	.st3{fill:none;stroke:#2E8B57;stroke-width:1.5;stroke-linecap:square;stroke-linejoin:round;stroke-miterlimit:10;}
	.st4{fill:#2E8B57;}
	.st5{fill:none;stroke:#A52A2A;stroke-width:1.5;stroke-linecap:square;stroke-linejoin:round;stroke-miterlimit:10;}
	.st6{fill:#A52A2A;stroke:#A52A2A;stroke-linejoin:round;stroke-miterlimit:10;}
	.st7{fill:none;stroke:#000000;stroke-width:0.8;stroke-linecap:square;stroke-miterlimit:10;}
	.st8{fill:#FFFFFF;stroke:#CCCCCC;stroke-miterlimit:10;}
</style>
<g>
	<rect x="425.43" y="259.5" class="st0" width="1116" height="543.6"/>
	<line class="st1" x1="476.15" y1="803.1" x2="476.15" y2="806.6"/>
	<path class="st2" d="M476.11,811c-0.51,0-0.89,0.25-1.15,0.75c-0.25,0.5-0.38,1.25-0.38,2.25c0,1,0.13,1.75,0.38,2.25
		c0.26,0.5,0.64,0.75,1.15,0.75c0.51,0,0.89-0.25,1.15-0.75c0.26-0.5,0.39-1.25,0.39-2.25c0-1-0.13-1.75-0.39-2.25
		C477.01,811.24,476.63,811,476.11,811 M476.11,810.21c0.82,0,1.44,0.32,1.87,0.97c0.43,0.64,0.65,1.58,0.65,2.81
		c0,1.23-0.21,2.16-0.65,2.81c-0.43,0.64-1.05,0.97-1.87,0.97c-0.82,0-1.44-0.32-1.88-0.97c-0.43-0.65-0.64-1.59-0.64-2.81
		c0-1.23,0.21-2.17,0.64-2.81C474.67,810.54,475.3,810.21,476.11,810.21L476.11,810.21z"/>
	<line class="st1" x1="603.61" y1="803.1" x2="603.61" y2="806.6"/>
	<path class="st2" d="M599.17,816.81h3.44v0.83h-4.63v-0.83c0.38-0.39,0.88-0.91,1.53-1.56c0.65-0.65,1.05-1.07,1.22-1.26
		c0.32-0.36,0.54-0.65,0.66-0.9c0.13-0.25,0.19-0.49,0.19-0.73c0-0.39-0.14-0.7-0.41-0.95c-0.27-0.24-0.63-0.37-1.06-0.37
		c-0.31,0-0.63,0.05-0.98,0.16c-0.34,0.11-0.71,0.27-1.1,0.49v-1c0.4-0.16,0.77-0.28,1.11-0.36c0.35-0.08,0.66-0.12,0.95-0.12
		c0.76,0,1.36,0.19,1.81,0.57c0.45,0.38,0.67,0.88,0.67,1.51c0,0.3-0.06,0.59-0.17,0.85c-0.11,0.27-0.31,0.58-0.61,0.95
		c-0.08,0.09-0.34,0.37-0.78,0.82C600.59,815.37,599.97,816,599.17,816.81L599.17,816.81z"/>
	<path class="st2" d="M604.57,810.35h3.87v0.83h-2.97v1.79c0.14-0.05,0.29-0.08,0.43-0.11c0.14-0.02,0.29-0.04,0.43-0.04
		c0.82,0,1.46,0.22,1.93,0.67c0.47,0.44,0.71,1.05,0.71,1.81c0,0.79-0.24,1.4-0.73,1.83c-0.49,0.43-1.18,0.65-2.07,0.65
		c-0.31,0-0.62-0.02-0.94-0.08c-0.32-0.05-0.64-0.13-0.98-0.23v-0.99c0.29,0.16,0.6,0.28,0.91,0.36c0.31,0.08,0.64,0.12,0.99,0.12
		c0.56,0,1.01-0.15,1.34-0.44c0.33-0.3,0.49-0.7,0.49-1.21c0-0.51-0.17-0.91-0.49-1.21c-0.33-0.3-0.78-0.44-1.34-0.44
		c-0.26,0-0.53,0.03-0.79,0.09c-0.26,0.06-0.53,0.15-0.8,0.27V810.35L604.57,810.35z"/>
	<line class="st1" x1="731.06" y1="803.1" x2="731.06" y2="806.6"/>
	<path class="st2" d="M725.77,810.35h3.87v0.83h-2.97v1.79c0.14-0.05,0.29-0.08,0.43-0.11c0.14-0.02,0.29-0.04,0.43-0.04
		c0.82,0,1.46,0.22,1.93,0.67c0.47,0.44,0.71,1.05,0.71,1.81c0,0.79-0.24,1.4-0.73,1.83c-0.49,0.43-1.18,0.65-2.07,0.65
		c-0.31,0-0.62-0.02-0.94-0.08c-0.32-0.05-0.64-0.13-0.98-0.23v-0.99c0.29,0.16,0.6,0.28,0.91,0.36c0.31,0.08,0.64,0.12,0.99,0.12
		c0.56,0,1.01-0.15,1.34-0.44c0.33-0.3,0.49-0.7,0.49-1.21c0-0.51-0.17-0.91-0.49-1.21c-0.33-0.3-0.78-0.44-1.34-0.44
		c-0.26,0-0.53,0.03-0.79,0.09c-0.26,0.06-0.53,0.15-0.8,0.27V810.35L725.77,810.35z"/>
	<path class="st2" d="M734.35,811c-0.51,0-0.89,0.25-1.15,0.75c-0.25,0.5-0.38,1.25-0.38,2.25c0,1,0.13,1.75,0.38,2.25
		c0.26,0.5,0.64,0.75,1.15,0.75c0.51,0,0.89-0.25,1.15-0.75c0.26-0.5,0.39-1.25,0.39-2.25c0-1-0.13-1.75-0.39-2.25
		C735.25,811.24,734.87,811,734.35,811 M734.35,810.21c0.82,0,1.44,0.32,1.87,0.97c0.43,0.64,0.65,1.58,0.65,2.81
		c0,1.23-0.21,2.16-0.65,2.81c-0.43,0.64-1.05,0.97-1.87,0.97c-0.82,0-1.44-0.32-1.88-0.97c-0.43-0.65-0.64-1.59-0.64-2.81
		c0-1.23,0.21-2.17,0.64-2.81C732.91,810.54,733.54,810.21,734.35,810.21L734.35,810.21z"/>
	<line class="st1" x1="858.52" y1="803.1" x2="858.52" y2="806.6"/>
	<polygon class="st2" points="852.96,810.35 857.64,810.35 857.64,810.77 855,817.64 853.97,817.64 856.46,811.18 852.96,811.18 
		852.96,810.35 	"/>
	<path class="st2" d="M859.69,810.35h3.87v0.83h-2.97v1.79c0.14-0.05,0.29-0.08,0.43-0.11c0.14-0.02,0.29-0.04,0.43-0.04
		c0.82,0,1.46,0.22,1.93,0.67c0.47,0.44,0.71,1.05,0.71,1.81c0,0.79-0.24,1.4-0.73,1.83c-0.49,0.43-1.18,0.65-2.07,0.65
		c-0.31,0-0.62-0.02-0.94-0.08c-0.32-0.05-0.64-0.13-0.98-0.23v-0.99c0.29,0.16,0.6,0.28,0.91,0.36c0.31,0.08,0.64,0.12,0.99,0.12
		c0.56,0,1.01-0.15,1.34-0.44c0.33-0.3,0.49-0.7,0.49-1.21c0-0.51-0.17-0.91-0.49-1.21c-0.33-0.3-0.78-0.44-1.34-0.44
		c-0.26,0-0.53,0.03-0.79,0.09c-0.26,0.06-0.53,0.15-0.8,0.27V810.35L859.69,810.35z"/>
	<line class="st1" x1="985.97" y1="803.1" x2="985.97" y2="806.6"/>
	<polygon class="st2" points="977.7,816.81 979.31,816.81 979.31,811.24 977.55,811.6 977.55,810.7 979.3,810.35 980.28,810.35 
		980.28,816.81 981.89,816.81 981.89,817.64 977.7,817.64 977.7,816.81 	"/>
	<path class="st2" d="M985.87,811c-0.51,0-0.89,0.25-1.15,0.75c-0.25,0.5-0.38,1.25-0.38,2.25c0,1,0.13,1.75,0.38,2.25
		c0.26,0.5,0.64,0.75,1.15,0.75c0.51,0,0.89-0.25,1.15-0.75c0.26-0.5,0.39-1.25,0.39-2.25c0-1-0.13-1.75-0.39-2.25
		C986.77,811.24,986.39,811,985.87,811 M985.87,810.21c0.82,0,1.44,0.32,1.87,0.97c0.43,0.64,0.65,1.58,0.65,2.81
		c0,1.23-0.21,2.16-0.65,2.81c-0.43,0.64-1.05,0.97-1.87,0.97s-1.44-0.32-1.88-0.97c-0.43-0.65-0.64-1.59-0.64-2.81
		c0-1.23,0.21-2.17,0.64-2.81C984.43,810.54,985.06,810.21,985.87,810.21L985.87,810.21z"/>
	<path class="st2" d="M992.35,811c-0.51,0-0.89,0.25-1.15,0.75c-0.25,0.5-0.38,1.25-0.38,2.25c0,1,0.13,1.75,0.38,2.25
		c0.26,0.5,0.64,0.75,1.15,0.75c0.51,0,0.89-0.25,1.15-0.75c0.26-0.5,0.39-1.25,0.39-2.25c0-1-0.13-1.75-0.39-2.25
		C993.25,811.24,992.87,811,992.35,811 M992.35,810.21c0.82,0,1.44,0.32,1.87,0.97c0.43,0.64,0.65,1.58,0.65,2.81
		c0,1.23-0.21,2.16-0.65,2.81c-0.43,0.64-1.05,0.97-1.87,0.97s-1.44-0.32-1.88-0.97c-0.43-0.65-0.64-1.59-0.64-2.81
		c0-1.23,0.21-2.17,0.64-2.81C990.91,810.54,991.54,810.21,992.35,810.21L992.35,810.21z"/>
	<line class="st1" x1="1113.43" y1="803.1" x2="1113.43" y2="806.6"/>
	<polygon class="st2" points="1105.14,816.81 1106.75,816.81 1106.75,811.24 1104.99,811.6 1104.99,810.7 1106.74,810.35 
		1107.72,810.35 1107.72,816.81 1109.33,816.81 1109.33,817.64 1105.14,817.64 1105.14,816.81 	"/>
	<path class="st2" d="M1112.05,816.81h3.44v0.83h-4.63v-0.83c0.38-0.39,0.88-0.91,1.53-1.56c0.65-0.65,1.05-1.07,1.22-1.26
		c0.32-0.36,0.54-0.65,0.66-0.9c0.13-0.25,0.19-0.49,0.19-0.73c0-0.39-0.14-0.7-0.41-0.95c-0.27-0.24-0.62-0.37-1.06-0.37
		c-0.31,0-0.63,0.05-0.98,0.16c-0.34,0.11-0.71,0.27-1.1,0.49v-1c0.4-0.16,0.77-0.28,1.11-0.36c0.35-0.08,0.66-0.12,0.95-0.12
		c0.76,0,1.36,0.19,1.81,0.57c0.45,0.38,0.67,0.88,0.67,1.51c0,0.3-0.06,0.59-0.17,0.85c-0.11,0.27-0.31,0.58-0.61,0.95
		c-0.08,0.09-0.34,0.37-0.78,0.82C1113.47,815.37,1112.85,816,1112.05,816.81L1112.05,816.81z"/>
	<path class="st2" d="M1117.69,810.35h3.87v0.83h-2.97v1.79c0.14-0.05,0.29-0.08,0.43-0.11c0.14-0.02,0.29-0.04,0.43-0.04
		c0.82,0,1.46,0.22,1.93,0.67c0.47,0.44,0.71,1.05,0.71,1.81c0,0.79-0.24,1.4-0.73,1.83c-0.49,0.43-1.18,0.65-2.07,0.65
		c-0.31,0-0.62-0.02-0.94-0.08c-0.32-0.05-0.64-0.13-0.98-0.23v-0.99c0.29,0.16,0.6,0.28,0.91,0.36c0.31,0.08,0.64,0.12,0.99,0.12
		c0.56,0,1.01-0.15,1.34-0.44c0.33-0.3,0.49-0.7,0.49-1.21c0-0.51-0.17-0.91-0.49-1.21c-0.33-0.3-0.78-0.44-1.34-0.44
		c-0.26,0-0.53,0.03-0.79,0.09c-0.26,0.06-0.53,0.15-0.8,0.27V810.35L1117.69,810.35z"/>
	<line class="st1" x1="1240.89" y1="803.1" x2="1240.89" y2="806.6"/>
	<polygon class="st2" points="1232.58,816.81 1234.19,816.81 1234.19,811.24 1232.43,811.6 1232.43,810.7 1234.18,810.35 
		1235.16,810.35 1235.16,816.81 1236.77,816.81 1236.77,817.64 1232.58,817.64 1232.58,816.81 	"/>
	<path class="st2" d="M1238.89,810.35h3.87v0.83h-2.97v1.79c0.14-0.05,0.29-0.08,0.43-0.11c0.14-0.02,0.29-0.04,0.43-0.04
		c0.82,0,1.46,0.22,1.93,0.67c0.47,0.44,0.71,1.05,0.71,1.81c0,0.79-0.24,1.4-0.73,1.83c-0.49,0.43-1.18,0.65-2.07,0.65
		c-0.31,0-0.62-0.02-0.94-0.08c-0.32-0.05-0.64-0.13-0.98-0.23v-0.99c0.29,0.16,0.6,0.28,0.91,0.36c0.31,0.08,0.64,0.12,0.99,0.12
		c0.56,0,1.01-0.15,1.34-0.44c0.33-0.3,0.49-0.7,0.49-1.21c0-0.51-0.17-0.91-0.49-1.21c-0.33-0.3-0.78-0.44-1.34-0.44
		c-0.26,0-0.53,0.03-0.79,0.09c-0.26,0.06-0.53,0.15-0.8,0.27V810.35L1238.89,810.35z"/>
	<path class="st2" d="M1247.23,811c-0.51,0-0.89,0.25-1.15,0.75c-0.25,0.5-0.38,1.25-0.38,2.25c0,1,0.13,1.75,0.38,2.25
		c0.26,0.5,0.64,0.75,1.15,0.75c0.51,0,0.89-0.25,1.15-0.75c0.26-0.5,0.39-1.25,0.39-2.25c0-1-0.13-1.75-0.39-2.25
		C1248.13,811.24,1247.75,811,1247.23,811 M1247.23,810.21c0.82,0,1.44,0.32,1.87,0.97c0.43,0.64,0.65,1.58,0.65,2.81
		c0,1.23-0.21,2.16-0.65,2.81c-0.43,0.64-1.05,0.97-1.87,0.97s-1.44-0.32-1.88-0.97c-0.43-0.65-0.64-1.59-0.64-2.81
		c0-1.23,0.21-2.17,0.64-2.81C1245.79,810.54,1246.42,810.21,1247.23,810.21L1247.23,810.21z"/>
	<line class="st1" x1="1368.34" y1="803.1" x2="1368.34" y2="806.6"/>
	<polygon class="st2" points="1360.02,816.81 1361.63,816.81 1361.63,811.24 1359.87,811.6 1359.87,810.7 1361.62,810.35 
		1362.6,810.35 1362.6,816.81 1364.21,816.81 1364.21,817.64 1360.02,817.64 1360.02,816.81 	"/>
	<polygon class="st2" points="1366.08,810.35 1370.76,810.35 1370.76,810.77 1368.12,817.64 1367.09,817.64 1369.58,811.18 
		1366.08,811.18 1366.08,810.35 	"/>
	<path class="st2" d="M1372.57,810.35h3.87v0.83h-2.97v1.79c0.14-0.05,0.29-0.08,0.43-0.11c0.14-0.02,0.29-0.04,0.43-0.04
		c0.82,0,1.46,0.22,1.93,0.67c0.47,0.44,0.71,1.05,0.71,1.81c0,0.79-0.24,1.4-0.73,1.83c-0.49,0.43-1.18,0.65-2.07,0.65
		c-0.31,0-0.62-0.02-0.94-0.08c-0.32-0.05-0.64-0.13-0.98-0.23v-0.99c0.29,0.16,0.6,0.28,0.91,0.36c0.31,0.08,0.64,0.12,0.99,0.12
		c0.56,0,1.01-0.15,1.34-0.44c0.33-0.3,0.49-0.7,0.49-1.21c0-0.51-0.17-0.91-0.49-1.21c-0.33-0.3-0.78-0.44-1.34-0.44
		c-0.26,0-0.53,0.03-0.79,0.09c-0.26,0.06-0.53,0.15-0.8,0.27V810.35L1372.57,810.35z"/>
	<line class="st1" x1="1495.79" y1="803.1" x2="1495.79" y2="806.6"/>
	<path class="st2" d="M1488.13,816.81h3.44v0.83h-4.63v-0.83c0.38-0.39,0.88-0.91,1.53-1.56c0.65-0.65,1.05-1.07,1.22-1.26
		c0.32-0.36,0.54-0.65,0.66-0.9c0.13-0.25,0.19-0.49,0.19-0.73c0-0.39-0.14-0.7-0.41-0.95c-0.27-0.24-0.62-0.37-1.06-0.37
		c-0.31,0-0.63,0.05-0.98,0.16c-0.34,0.11-0.71,0.27-1.1,0.49v-1c0.4-0.16,0.77-0.28,1.11-0.36c0.35-0.08,0.66-0.12,0.95-0.12
		c0.76,0,1.36,0.19,1.81,0.57c0.45,0.38,0.67,0.88,0.67,1.51c0,0.3-0.06,0.59-0.17,0.85c-0.11,0.27-0.31,0.58-0.61,0.95
		c-0.08,0.09-0.34,0.37-0.78,0.82C1489.55,815.37,1488.93,816,1488.13,816.81L1488.13,816.81z"/>
	<path class="st2" d="M1495.87,811c-0.51,0-0.89,0.25-1.15,0.75c-0.25,0.5-0.38,1.25-0.38,2.25c0,1,0.13,1.75,0.38,2.25
		c0.26,0.5,0.64,0.75,1.15,0.75c0.51,0,0.89-0.25,1.15-0.75c0.26-0.5,0.39-1.25,0.39-2.25c0-1-0.13-1.75-0.39-2.25
		C1496.77,811.24,1496.39,811,1495.87,811 M1495.87,810.21c0.82,0,1.44,0.32,1.87,0.97c0.43,0.64,0.65,1.58,0.65,2.81
		c0,1.23-0.21,2.16-0.65,2.81c-0.43,0.64-1.05,0.97-1.87,0.97s-1.44-0.32-1.88-0.97c-0.43-0.65-0.64-1.59-0.64-2.81
		c0-1.23,0.21-2.17,0.64-2.81C1494.43,810.54,1495.06,810.21,1495.87,810.21L1495.87,810.21z"/>
	<path class="st2" d="M1502.11,811c-0.51,0-0.89,0.25-1.15,0.75c-0.25,0.5-0.38,1.25-0.38,2.25c0,1,0.13,1.75,0.38,2.25
		c0.26,0.5,0.64,0.75,1.15,0.75c0.51,0,0.89-0.25,1.15-0.75c0.26-0.5,0.39-1.25,0.39-2.25c0-1-0.13-1.75-0.39-2.25
		C1503.01,811.24,1502.63,811,1502.11,811 M1502.11,810.21c0.82,0,1.44,0.32,1.87,0.97c0.43,0.64,0.65,1.58,0.65,2.81
		c0,1.23-0.21,2.16-0.65,2.81c-0.43,0.64-1.05,0.97-1.87,0.97s-1.44-0.32-1.88-0.97c-0.43-0.65-0.64-1.59-0.64-2.81
		c0-1.23,0.21-2.17,0.64-2.81C1500.67,810.54,1501.3,810.21,1502.11,810.21L1502.11,810.21z"/>
	<path class="st2" d="M965.21,830.72v0.66h-6.2c0.06,0.93,0.34,1.63,0.83,2.12c0.51,0.48,1.2,0.73,2.09,0.73
		c0.52,0,1.02-0.07,1.5-0.19c0.49-0.12,0.97-0.31,1.45-0.57v1.27c-0.48,0.21-0.98,0.36-1.49,0.47s-1.03,0.16-1.55,0.16
		c-1.31,0-2.34-0.38-3.11-1.14c-0.76-0.76-1.14-1.79-1.14-3.09c0-1.34,0.36-2.41,1.08-3.19c0.73-0.79,1.71-1.19,2.94-1.19
		c1.11,0,1.98,0.36,2.61,1.07C964.88,828.54,965.21,829.49,965.21,830.72 M963.86,830.32c-0.01-0.74-0.22-1.33-0.62-1.77
		s-0.93-0.66-1.6-0.66c-0.75,0-1.35,0.21-1.81,0.64c-0.45,0.42-0.71,1.03-0.78,1.79L963.86,830.32L963.86,830.32z"/>
	<path class="st2" d="M968.61,833.93v4.35h-1.35v-11.32h1.35v1.25c0.29-0.49,0.64-0.85,1.07-1.08c0.43-0.24,0.95-0.36,1.55-0.36
		c1,0,1.8,0.4,2.42,1.19s0.94,1.83,0.94,3.12s-0.31,2.33-0.94,3.12s-1.43,1.19-2.42,1.19c-0.6,0-1.12-0.12-1.55-0.35
		C969.25,834.78,968.9,834.42,968.61,833.93 M973.2,831.06c0-0.99-0.21-1.77-0.62-2.33c-0.4-0.56-0.97-0.85-1.68-0.85
		s-1.27,0.29-1.68,0.85c-0.4,0.56-0.61,1.34-0.61,2.33s0.21,1.77,0.61,2.34c0.41,0.56,0.97,0.84,1.68,0.84s1.27-0.28,1.68-0.84
		C972.99,832.83,973.2,832.05,973.2,831.06L973.2,831.06z"/>
	<path class="st2" d="M980.09,827.9c-0.73,0-1.3,0.29-1.71,0.85s-0.63,1.33-0.63,2.31s0.21,1.76,0.62,2.32s1,0.84,1.72,0.84
		c0.72,0,1.29-0.29,1.71-0.85s0.63-1.34,0.63-2.31s-0.21-1.74-0.63-2.31C981.38,828.18,980.81,827.9,980.09,827.9 M980.09,826.76
		c1.17,0,2.09,0.38,2.76,1.14s1,1.82,1,3.16c0,1.34-0.34,2.4-1,3.16c-0.67,0.76-1.59,1.14-2.76,1.14c-1.18,0-2.1-0.38-2.77-1.14
		c-0.67-0.77-1-1.82-1-3.16c0-1.35,0.33-2.4,1-3.16S978.91,826.76,980.09,826.76L980.09,826.76z"/>
	<path class="st2" d="M991.93,827.27v1.26c-0.38-0.21-0.76-0.37-1.15-0.47c-0.38-0.11-0.77-0.16-1.16-0.16
		c-0.87,0-1.55,0.28-2.04,0.83c-0.48,0.55-0.73,1.33-0.73,2.33s0.24,1.78,0.73,2.34c0.48,0.55,1.16,0.83,2.04,0.83
		c0.39,0,0.78-0.05,1.16-0.15c0.39-0.11,0.77-0.26,1.15-0.48v1.25c-0.37,0.18-0.77,0.31-1.17,0.4s-0.83,0.13-1.28,0.13
		c-1.24,0-2.22-0.39-2.94-1.16s-1.09-1.82-1.09-3.14c0-1.34,0.37-2.39,1.1-3.16c0.74-0.77,1.74-1.15,3.02-1.15
		c0.42,0,0.82,0.04,1.22,0.13C991.18,826.97,991.56,827.1,991.93,827.27L991.93,827.27z"/>
	<path class="st2" d="M1001.01,830.21v4.95h-1.35v-4.91c0-0.78-0.15-1.35-0.45-1.74s-0.75-0.58-1.36-0.58c-0.73,0-1.3,0.23-1.72,0.7
		s-0.63,1.1-0.63,1.9v4.64h-1.35v-11.4h1.35v4.47c0.32-0.49,0.7-0.86,1.14-1.11c0.44-0.24,0.94-0.37,1.52-0.37
		c0.94,0,1.66,0.29,2.14,0.88C1000.77,828.21,1001.01,829.07,1001.01,830.21L1001.01,830.21z"/>
	<path class="st2" d="M1009.02,827.2v1.27c-0.38-0.2-0.78-0.34-1.19-0.44s-0.83-0.15-1.27-0.15c-0.67,0-1.17,0.1-1.51,0.31
		c-0.33,0.21-0.5,0.51-0.5,0.92c0,0.31,0.12,0.56,0.36,0.74c0.24,0.18,0.72,0.34,1.44,0.51l0.46,0.1c0.96,0.21,1.63,0.5,2.04,0.87
		s0.61,0.89,0.61,1.56c0,0.76-0.3,1.36-0.91,1.81c-0.6,0.45-1.43,0.67-2.48,0.67c-0.44,0-0.9-0.04-1.38-0.13
		c-0.48-0.08-0.97-0.21-1.5-0.38v-1.39c0.5,0.26,0.99,0.45,1.47,0.59c0.48,0.12,0.96,0.19,1.44,0.19c0.64,0,1.12-0.11,1.46-0.32
		c0.34-0.22,0.51-0.53,0.51-0.92c0-0.37-0.12-0.64-0.37-0.84c-0.24-0.2-0.78-0.38-1.62-0.56l-0.47-0.11
		c-0.83-0.18-1.44-0.45-1.81-0.81c-0.37-0.37-0.56-0.86-0.56-1.5c0-0.77,0.27-1.37,0.82-1.79s1.33-0.63,2.33-0.63
		c0.5,0,0.97,0.04,1.41,0.11S1008.64,827.05,1009.02,827.2L1009.02,827.2z"/>
	<line class="st1" x1="425.43" y1="795.73" x2="421.93" y2="795.73"/>
	<path class="st2" d="M399.31,793c-0.51,0-0.89,0.25-1.15,0.75c-0.25,0.5-0.38,1.25-0.38,2.25c0,1,0.13,1.75,0.38,2.25
		c0.26,0.5,0.64,0.75,1.15,0.75c0.51,0,0.89-0.25,1.15-0.75c0.26-0.5,0.39-1.25,0.39-2.25c0-1-0.13-1.75-0.39-2.25
		C400.21,793.24,399.83,793,399.31,793 M399.31,792.21c0.82,0,1.44,0.32,1.87,0.97c0.43,0.64,0.65,1.58,0.65,2.81
		c0,1.23-0.21,2.16-0.65,2.81c-0.43,0.64-1.05,0.97-1.87,0.97s-1.44-0.32-1.88-0.97c-0.43-0.65-0.64-1.59-0.64-2.81
		c0-1.23,0.21-2.17,0.64-2.81C397.87,792.54,398.5,792.21,399.31,792.21L399.31,792.21z"/>
	<polygon class="st2" points="403.68,798.4 404.71,798.4 404.71,799.64 403.68,799.64 403.68,798.4 	"/>
	<path class="st2" d="M408.91,793c-0.51,0-0.89,0.25-1.15,0.75c-0.25,0.5-0.38,1.25-0.38,2.25c0,1,0.13,1.75,0.38,2.25
		c0.26,0.5,0.64,0.75,1.15,0.75c0.51,0,0.89-0.25,1.15-0.75c0.26-0.5,0.39-1.25,0.39-2.25c0-1-0.13-1.75-0.39-2.25
		C409.81,793.24,409.43,793,408.91,793 M408.91,792.21c0.82,0,1.44,0.32,1.87,0.97c0.43,0.64,0.65,1.58,0.65,2.81
		c0,1.23-0.21,2.16-0.65,2.81c-0.43,0.64-1.05,0.97-1.87,0.97c-0.82,0-1.44-0.32-1.88-0.97c-0.43-0.65-0.64-1.59-0.64-2.81
		c0-1.23,0.21-2.17,0.64-2.81C407.47,792.54,408.1,792.21,408.91,792.21L408.91,792.21z"/>
	<path class="st2" d="M413.89,798.81h3.44v0.83h-4.63v-0.83c0.38-0.39,0.88-0.91,1.53-1.56c0.65-0.65,1.05-1.07,1.22-1.26
		c0.32-0.36,0.54-0.65,0.66-0.9c0.13-0.25,0.19-0.49,0.19-0.73c0-0.39-0.14-0.7-0.41-0.95c-0.27-0.24-0.62-0.37-1.06-0.37
		c-0.31,0-0.63,0.05-0.98,0.16c-0.34,0.11-0.71,0.27-1.1,0.49v-1c0.4-0.16,0.77-0.28,1.11-0.36c0.35-0.08,0.66-0.12,0.95-0.12
		c0.76,0,1.36,0.19,1.81,0.57c0.45,0.38,0.67,0.88,0.67,1.51c0,0.3-0.06,0.59-0.17,0.85c-0.11,0.27-0.31,0.58-0.61,0.95
		c-0.08,0.09-0.34,0.37-0.78,0.82C415.31,797.37,414.69,798,413.89,798.81L413.89,798.81z"/>
	<line class="st1" x1="425.43" y1="693.68" x2="421.93" y2="693.68"/>
	<path class="st2" d="M399.31,690.76c-0.51,0-0.89,0.25-1.15,0.75c-0.25,0.5-0.38,1.25-0.38,2.25s0.13,1.75,0.38,2.25
		c0.26,0.5,0.64,0.75,1.15,0.75c0.51,0,0.89-0.25,1.15-0.75c0.26-0.5,0.39-1.25,0.39-2.25s-0.13-1.75-0.39-2.25
		C400.21,691,399.83,690.76,399.31,690.76 M399.31,689.97c0.82,0,1.44,0.32,1.87,0.97c0.43,0.64,0.65,1.58,0.65,2.81
		c0,1.23-0.21,2.16-0.65,2.81c-0.43,0.64-1.05,0.97-1.87,0.97s-1.44-0.32-1.88-0.97c-0.43-0.65-0.64-1.59-0.64-2.81
		c0-1.23,0.21-2.17,0.64-2.81C397.87,690.3,398.5,689.97,399.31,689.97L399.31,689.97z"/>
	<polygon class="st2" points="403.68,696.16 404.71,696.16 404.71,697.4 403.68,697.4 403.68,696.16 	"/>
	<path class="st2" d="M408.91,690.76c-0.51,0-0.89,0.25-1.15,0.75c-0.25,0.5-0.38,1.25-0.38,2.25s0.13,1.75,0.38,2.25
		c0.26,0.5,0.64,0.75,1.15,0.75c0.51,0,0.89-0.25,1.15-0.75c0.26-0.5,0.39-1.25,0.39-2.25s-0.13-1.75-0.39-2.25
		C409.81,691,409.43,690.76,408.91,690.76 M408.91,689.97c0.82,0,1.44,0.32,1.87,0.97c0.43,0.64,0.65,1.58,0.65,2.81
		c0,1.23-0.21,2.16-0.65,2.81c-0.43,0.64-1.05,0.97-1.87,0.97c-0.82,0-1.44-0.32-1.88-0.97c-0.43-0.65-0.64-1.59-0.64-2.81
		c0-1.23,0.21-2.17,0.64-2.81C407.47,690.3,408.1,689.97,408.91,689.97L408.91,689.97z"/>
	<path class="st2" d="M415.75,690.97l-2.49,3.89h2.49V690.97 M415.5,690.11h1.24v4.75h1.04v0.82h-1.04v1.72h-0.98v-1.72h-3.29v-0.95
		L415.5,690.11L415.5,690.11z"/>
	<line class="st1" x1="425.43" y1="591.63" x2="421.93" y2="591.63"/>
	<path class="st2" d="M399.31,588.76c-0.51,0-0.89,0.25-1.15,0.75c-0.25,0.5-0.38,1.25-0.38,2.25s0.13,1.75,0.38,2.25
		c0.26,0.5,0.64,0.75,1.15,0.75c0.51,0,0.89-0.25,1.15-0.75c0.26-0.5,0.39-1.25,0.39-2.25s-0.13-1.75-0.39-2.25
		C400.21,589,399.83,588.76,399.31,588.76 M399.31,587.97c0.82,0,1.44,0.32,1.87,0.97c0.43,0.64,0.65,1.58,0.65,2.81
		c0,1.23-0.21,2.16-0.65,2.81c-0.43,0.64-1.05,0.97-1.87,0.97s-1.44-0.32-1.88-0.97c-0.43-0.65-0.64-1.59-0.64-2.81
		c0-1.23,0.21-2.17,0.64-2.81C397.87,588.3,398.5,587.97,399.31,587.97L399.31,587.97z"/>
	<polygon class="st2" points="403.68,594.16 404.71,594.16 404.71,595.4 403.68,595.4 403.68,594.16 	"/>
	<path class="st2" d="M408.91,588.76c-0.51,0-0.89,0.25-1.15,0.75c-0.25,0.5-0.38,1.25-0.38,2.25s0.13,1.75,0.38,2.25
		c0.26,0.5,0.64,0.75,1.15,0.75c0.51,0,0.89-0.25,1.15-0.75c0.26-0.5,0.39-1.25,0.39-2.25s-0.13-1.75-0.39-2.25
		C409.81,589,409.43,588.76,408.91,588.76 M408.91,587.97c0.82,0,1.44,0.32,1.87,0.97c0.43,0.64,0.65,1.58,0.65,2.81
		c0,1.23-0.21,2.16-0.65,2.81c-0.43,0.64-1.05,0.97-1.87,0.97c-0.82,0-1.44-0.32-1.88-0.97c-0.43-0.65-0.64-1.59-0.64-2.81
		c0-1.23,0.21-2.17,0.64-2.81C407.47,588.3,408.1,587.97,408.91,587.97L408.91,587.97z"/>
	<path class="st2" d="M415.28,591.36c-0.44,0-0.8,0.15-1.05,0.45c-0.26,0.3-0.39,0.72-0.39,1.25c0,0.52,0.13,0.94,0.39,1.25
		c0.26,0.3,0.61,0.45,1.05,0.45c0.44,0,0.79-0.15,1.05-0.45c0.26-0.31,0.39-0.72,0.39-1.25c0-0.53-0.13-0.94-0.39-1.25
		C416.07,591.51,415.72,591.36,415.28,591.36 M417.23,588.27v0.9c-0.25-0.12-0.5-0.21-0.75-0.27c-0.25-0.06-0.5-0.09-0.75-0.09
		c-0.65,0-1.15,0.22-1.49,0.66c-0.34,0.44-0.54,1.1-0.59,1.99c0.19-0.28,0.43-0.5,0.72-0.65c0.29-0.15,0.61-0.23,0.96-0.23
		c0.73,0,1.31,0.22,1.73,0.67s0.64,1.04,0.64,1.81c0,0.75-0.22,1.35-0.66,1.8c-0.44,0.45-1.03,0.68-1.77,0.68
		c-0.84,0-1.49-0.32-1.93-0.97c-0.44-0.65-0.67-1.59-0.67-2.81c0-1.15,0.27-2.07,0.82-2.75c0.55-0.69,1.28-1.03,2.2-1.03
		c0.25,0,0.5,0.02,0.75,0.07C416.7,588.1,416.96,588.17,417.23,588.27L417.23,588.27z"/>
	<line class="st1" x1="425.43" y1="489.58" x2="421.93" y2="489.58"/>
	<path class="st2" d="M399.31,486.76c-0.51,0-0.89,0.25-1.15,0.75c-0.25,0.5-0.38,1.25-0.38,2.25s0.13,1.75,0.38,2.25
		c0.26,0.5,0.64,0.75,1.15,0.75c0.51,0,0.89-0.25,1.15-0.75c0.26-0.5,0.39-1.25,0.39-2.25s-0.13-1.75-0.39-2.25
		C400.21,487,399.83,486.76,399.31,486.76 M399.31,485.97c0.82,0,1.44,0.32,1.87,0.97c0.43,0.64,0.65,1.58,0.65,2.81
		c0,1.23-0.21,2.16-0.65,2.81c-0.43,0.64-1.05,0.97-1.87,0.97s-1.44-0.32-1.88-0.97c-0.43-0.65-0.64-1.59-0.64-2.81
		c0-1.23,0.21-2.17,0.64-2.81C397.87,486.3,398.5,485.97,399.31,485.97L399.31,485.97z"/>
	<polygon class="st2" points="403.68,492.16 404.71,492.16 404.71,493.4 403.68,493.4 403.68,492.16 	"/>
	<path class="st2" d="M408.91,486.76c-0.51,0-0.89,0.25-1.15,0.75c-0.25,0.5-0.38,1.25-0.38,2.25s0.13,1.75,0.38,2.25
		c0.26,0.5,0.64,0.75,1.15,0.75c0.51,0,0.89-0.25,1.15-0.75c0.26-0.5,0.39-1.25,0.39-2.25s-0.13-1.75-0.39-2.25
		C409.81,487,409.43,486.76,408.91,486.76 M408.91,485.97c0.82,0,1.44,0.32,1.87,0.97c0.43,0.64,0.65,1.58,0.65,2.81
		c0,1.23-0.21,2.16-0.65,2.81c-0.43,0.64-1.05,0.97-1.87,0.97c-0.82,0-1.44-0.32-1.88-0.97c-0.43-0.65-0.64-1.59-0.64-2.81
		c0-1.23,0.21-2.17,0.64-2.81C407.47,486.3,408.1,485.97,408.91,485.97L408.91,485.97z"/>
	<path class="st2" d="M415.15,489.93c-0.47,0-0.84,0.13-1.11,0.38c-0.27,0.25-0.4,0.6-0.4,1.04s0.13,0.79,0.4,1.04
		c0.27,0.25,0.64,0.38,1.11,0.38s0.84-0.13,1.11-0.38c0.27-0.25,0.41-0.6,0.41-1.04c0-0.44-0.14-0.79-0.41-1.04
		C415.99,490.06,415.63,489.93,415.15,489.93 M414.17,489.51c-0.42-0.1-0.75-0.3-0.99-0.59c-0.23-0.29-0.35-0.64-0.35-1.06
		c0-0.58,0.21-1.04,0.62-1.38c0.42-0.34,0.99-0.51,1.71-0.51c0.73,0,1.29,0.17,1.71,0.51c0.42,0.34,0.62,0.8,0.62,1.38
		c0,0.42-0.12,0.77-0.36,1.06c-0.23,0.29-0.56,0.49-0.98,0.59c0.47,0.11,0.84,0.33,1.11,0.65c0.27,0.32,0.4,0.72,0.4,1.18
		c0,0.71-0.21,1.25-0.65,1.63c-0.43,0.38-1.04,0.57-1.85,0.57s-1.42-0.19-1.86-0.57c-0.43-0.38-0.64-0.92-0.64-1.63
		c0-0.46,0.13-0.86,0.4-1.18C413.32,489.84,413.69,489.63,414.17,489.51 M413.81,487.96c0,0.38,0.12,0.67,0.35,0.88
		c0.24,0.21,0.57,0.32,1,0.32s0.75-0.11,0.99-0.32c0.24-0.21,0.36-0.51,0.36-0.88s-0.12-0.67-0.36-0.88
		c-0.24-0.21-0.57-0.32-0.99-0.32s-0.76,0.11-1,0.32C413.92,487.28,413.81,487.58,413.81,487.96L413.81,487.96z"/>
	<line class="st1" x1="425.43" y1="387.54" x2="421.93" y2="387.54"/>
	<path class="st2" d="M399.31,384.76c-0.51,0-0.89,0.25-1.15,0.75c-0.25,0.5-0.38,1.25-0.38,2.25s0.13,1.75,0.38,2.25
		c0.26,0.5,0.64,0.75,1.15,0.75c0.51,0,0.89-0.25,1.15-0.75c0.26-0.5,0.39-1.25,0.39-2.25s-0.13-1.75-0.39-2.25
		C400.21,385,399.83,384.76,399.31,384.76 M399.31,383.97c0.82,0,1.44,0.32,1.87,0.97c0.43,0.64,0.65,1.58,0.65,2.81
		c0,1.23-0.21,2.16-0.65,2.81c-0.43,0.64-1.05,0.97-1.87,0.97s-1.44-0.32-1.88-0.97c-0.43-0.65-0.64-1.59-0.64-2.81
		c0-1.23,0.21-2.17,0.64-2.81C397.87,384.3,398.5,383.97,399.31,383.97L399.31,383.97z"/>
	<polygon class="st2" points="403.68,390.16 404.71,390.16 404.71,391.4 403.68,391.4 403.68,390.16 	"/>
	<polygon class="st2" points="406.98,390.57 408.59,390.57 408.59,385 406.83,385.36 406.83,384.46 408.58,384.11 409.56,384.11 
		409.56,390.57 411.17,390.57 411.17,391.4 406.98,391.4 406.98,390.57 	"/>
	<path class="st2" d="M415.15,384.76c-0.51,0-0.89,0.25-1.15,0.75c-0.25,0.5-0.38,1.25-0.38,2.25s0.13,1.75,0.38,2.25
		c0.26,0.5,0.64,0.75,1.15,0.75c0.51,0,0.89-0.25,1.15-0.75c0.26-0.5,0.39-1.25,0.39-2.25s-0.13-1.75-0.39-2.25
		C416.05,385,415.67,384.76,415.15,384.76 M415.15,383.97c0.82,0,1.44,0.32,1.87,0.97c0.43,0.64,0.65,1.58,0.65,2.81
		c0,1.23-0.21,2.16-0.65,2.81c-0.43,0.64-1.05,0.97-1.87,0.97c-0.82,0-1.44-0.32-1.88-0.97c-0.43-0.65-0.64-1.59-0.64-2.81
		c0-1.23,0.21-2.17,0.64-2.81C413.71,384.3,414.34,383.97,415.15,383.97L415.15,383.97z"/>
	<line class="st1" x1="425.43" y1="285.49" x2="421.93" y2="285.49"/>
	<path class="st2" d="M399.31,282.76c-0.51,0-0.89,0.25-1.15,0.75c-0.25,0.5-0.38,1.25-0.38,2.25s0.13,1.75,0.38,2.25
		c0.26,0.5,0.64,0.75,1.15,0.75c0.51,0,0.89-0.25,1.15-0.75c0.26-0.5,0.39-1.25,0.39-2.25s-0.13-1.75-0.39-2.25
		C400.21,283,399.83,282.76,399.31,282.76 M399.31,281.97c0.82,0,1.44,0.32,1.87,0.97c0.43,0.64,0.65,1.58,0.65,2.81
		c0,1.23-0.21,2.16-0.65,2.81c-0.43,0.64-1.05,0.97-1.87,0.97s-1.44-0.32-1.88-0.97c-0.43-0.65-0.64-1.59-0.64-2.81
		c0-1.23,0.21-2.17,0.64-2.81C397.87,282.3,398.5,281.97,399.31,281.97L399.31,281.97z"/>
	<polygon class="st2" points="403.68,288.16 404.71,288.16 404.71,289.4 403.68,289.4 403.68,288.16 	"/>
	<polygon class="st2" points="406.98,288.57 408.59,288.57 408.59,283 406.83,283.36 406.83,282.46 408.58,282.11 409.56,282.11 
		409.56,288.57 411.17,288.57 411.17,289.4 406.98,289.4 406.98,288.57 	"/>
	<path class="st2" d="M413.89,288.57h3.44v0.83h-4.63v-0.83c0.38-0.39,0.88-0.91,1.53-1.56c0.65-0.65,1.05-1.07,1.22-1.26
		c0.32-0.36,0.54-0.65,0.66-0.9c0.13-0.25,0.19-0.49,0.19-0.73c0-0.39-0.14-0.7-0.41-0.95c-0.27-0.24-0.62-0.37-1.06-0.37
		c-0.31,0-0.63,0.05-0.98,0.16c-0.34,0.11-0.71,0.27-1.1,0.49v-1c0.4-0.16,0.77-0.28,1.11-0.36c0.35-0.08,0.66-0.12,0.95-0.12
		c0.76,0,1.36,0.19,1.81,0.57c0.45,0.38,0.67,0.88,0.67,1.51c0,0.3-0.06,0.59-0.17,0.85c-0.11,0.27-0.31,0.58-0.61,0.95
		c-0.08,0.09-0.34,0.37-0.78,0.82C415.31,287.13,414.69,287.76,413.89,288.57L413.89,288.57z"/>
	<polygon class="st2" points="378,546.16 378,543.96 385.44,541.17 378,538.36 378,536.16 388.94,536.16 388.94,537.6 379.33,537.6 
		386.83,540.42 386.83,541.91 379.33,544.73 388.94,544.73 388.94,546.16 378,546.16 	"/>
	<path class="st2" d="M379.46,529.55l5.44,2.01v-4.02L379.46,529.55 M378,530.38v-1.68l10.94-4.17v1.54l-2.81,1V532l2.81,1v1.56
		L378,530.38L378,530.38z"/>
	<polygon class="st2" points="378,522.88 378,515.97 379.25,515.97 379.25,521.4 382.48,521.4 382.48,516.2 383.73,516.2 
		383.73,521.4 387.69,521.4 387.69,515.84 388.94,515.84 388.94,522.88 378,522.88 	"/>
	<polyline class="st3" points="476.15,284.21 481.25,334.76 486.35,349.68 491.45,489.59 496.55,582.17 501.64,602.4 506.74,603.69 
		511.84,602.06 516.94,611.21 522.04,625.16 527.13,636.01 532.23,655.46 537.33,664.7 542.43,689.21 547.53,701.91 552.63,705.98 
		557.72,713.85 562.82,716.7 567.92,726.93 573.02,718.61 578.12,720.2 583.22,715.75 588.31,714.63 593.41,712.52 598.51,711.12 
		603.61,710.42 608.71,708.49 613.8,706.77 618.9,695.36 624,696.54 629.1,690.6 634.2,695.92 639.3,685.9 644.39,689.92 
		649.49,694.66 654.59,699.19 659.69,694.28 664.79,692.7 669.88,697.48 674.98,706.6 680.08,708.09 685.18,697.68 690.28,693.75 
		695.38,696.76 700.47,685.19 705.57,686.99 710.67,687.18 715.77,670.41 720.87,667.92 725.97,677.02 731.06,673.59 736.16,671.48 
		741.26,672.78 746.36,670.8 751.46,674.72 756.55,676.02 761.65,679.77 766.75,690.49 771.85,690.18 776.95,693.55 782.05,691.85 
		787.14,690.38 792.24,699.46 797.34,703.87 802.44,705.75 807.54,714.6 812.64,711.47 817.73,703.81 822.83,709.24 827.93,711.38 
		833.03,713.39 838.13,719.08 843.22,720.42 848.32,727.41 853.42,733.82 858.52,735.56 863.62,732.23 868.72,727.62 873.81,738.78 
		878.91,731.67 884.01,735.53 889.11,737.96 894.21,736.53 899.3,740.94 904.4,739.93 909.5,739.31 914.6,739.37 919.7,740 
		924.8,743.17 929.89,738.02 934.99,738.1 940.09,740.63 945.19,740.03 950.29,737.19 955.39,738.91 960.48,742.67 965.58,741.95 
		970.68,739.28 975.78,742.66 980.88,739.57 985.97,730 991.07,738.01 996.17,728.41 1001.27,729.87 1006.37,742.24 1011.47,741.27 
		1016.56,736.36 1021.66,736.98 1026.76,742.15 1031.86,742.75 1036.96,751.7 1042.05,738.17 1047.15,729.38 1052.25,740.75 
		1057.35,738.96 1062.45,744.96 1067.55,742.85 1072.64,743.78 1077.74,742.44 1082.84,749.39 1087.94,741.21 1093.04,749.96 
		1098.14,734.6 1103.23,750.6 1108.33,756.06 1113.43,751.23 1118.53,754.64 1123.63,755.05 1128.72,756.81 1133.82,751.36 
		1138.92,754.93 1144.02,741.58 1149.12,729.03 1154.22,757.38 1159.31,744.6 1164.41,754.11 1169.51,757.24 1174.61,760.21 
		1179.71,757.78 1184.8,754.66 1189.9,755.46 1195,751.74 1200.1,757.04 1205.2,759.96 1210.3,764.7 1215.39,765.56 1220.49,759.61 
		1225.59,764.7 1230.69,760.09 1235.79,763.28 1240.89,761.26 1245.98,759.5 1251.08,761.99 1256.18,757.04 1261.28,763.89 
		1266.38,768.08 1271.47,755.86 1276.57,764.68 1281.67,760.31 1286.77,764.31 1291.87,769.21 1296.97,769.21 1302.06,771.07 
		1307.16,767.91 1312.26,770.48 1317.36,768.63 1322.46,761.11 1327.55,771.74 1332.65,770.44 1337.75,767.55 1342.85,770.98 
		1347.95,768.41 1353.05,774.32 1358.14,776.77 1363.24,769.3 1368.34,773.73 1373.44,765.93 1378.54,774.33 1383.64,774.88 
		1388.73,769.13 1393.83,775.25 1398.93,767.56 1404.03,772.08 1409.13,772.35 1414.22,773.06 1419.32,768.59 1424.42,762.94 
		1429.52,778.39 1434.62,772.44 1439.72,770.68 1444.81,773.07 1449.91,763.91 1455.01,756.44 1460.11,731.92 1465.21,740.14 
		1470.31,756.28 1475.4,725 1475.4,725 	"/>
	<rect x="475.65" y="283.71" class="st4" width="1" height="1"/>
	<rect x="480.75" y="334.26" class="st4" width="1" height="1"/>
	<rect x="485.85" y="349.18" class="st4" width="1" height="1"/>
	<rect x="490.95" y="489.09" class="st4" width="1" height="1"/>
	<rect x="496.05" y="581.67" class="st4" width="1" height="1"/>
	<rect x="501.14" y="601.9" class="st4" width="1" height="1"/>
	<rect x="506.24" y="603.19" class="st4" width="1" height="1"/>
	<rect x="511.34" y="601.56" class="st4" width="1" height="1"/>
	<rect x="516.44" y="610.71" class="st4" width="1" height="1"/>
	<rect x="521.54" y="624.66" class="st4" width="1" height="1"/>
	<rect x="526.64" y="635.51" class="st4" width="1" height="1"/>
	<rect x="531.73" y="654.96" class="st4" width="1" height="1"/>
	<rect x="536.83" y="664.2" class="st4" width="1" height="1"/>
	<rect x="541.93" y="688.71" class="st4" width="1" height="1"/>
	<rect x="547.03" y="701.41" class="st4" width="1" height="1"/>
	<rect x="552.13" y="705.48" class="st4" width="1" height="1"/>
	<rect x="557.22" y="713.35" class="st4" width="1" height="1"/>
	<rect x="562.32" y="716.2" class="st4" width="1" height="1"/>
	<rect x="567.42" y="726.43" class="st4" width="1" height="1"/>
	<rect x="572.52" y="718.11" class="st4" width="1" height="1"/>
	<rect x="577.62" y="719.7" class="st4" width="1" height="1"/>
	<rect x="582.72" y="715.25" class="st4" width="1" height="1"/>
	<rect x="587.81" y="714.13" class="st4" width="1" height="1"/>
	<rect x="592.91" y="712.02" class="st4" width="1" height="1"/>
	<rect x="598.01" y="710.62" class="st4" width="1" height="1"/>
	<rect x="603.11" y="709.92" class="st4" width="1" height="1"/>
	<rect x="608.21" y="707.99" class="st4" width="1" height="1"/>
	<rect x="613.3" y="706.27" class="st4" width="1" height="1"/>
	<rect x="618.4" y="694.86" class="st4" width="1" height="1"/>
	<rect x="623.5" y="696.04" class="st4" width="1" height="1"/>
	<rect x="628.6" y="690.1" class="st4" width="1" height="1"/>
	<rect x="633.7" y="695.42" class="st4" width="1" height="1"/>
	<rect x="638.8" y="685.4" class="st4" width="1" height="1"/>
	<rect x="643.89" y="689.42" class="st4" width="1" height="1"/>
	<rect x="648.99" y="694.16" class="st4" width="1" height="1"/>
	<rect x="654.09" y="698.69" class="st4" width="1" height="1"/>
	<rect x="659.19" y="693.78" class="st4" width="1" height="1"/>
	<rect x="664.29" y="692.2" class="st4" width="1" height="1"/>
	<rect x="669.39" y="696.98" class="st4" width="1" height="1"/>
	<rect x="674.48" y="706.1" class="st4" width="1" height="1"/>
	<rect x="679.58" y="707.59" class="st4" width="1" height="1"/>
	<rect x="684.68" y="697.18" class="st4" width="1" height="1"/>
	<rect x="689.78" y="693.25" class="st4" width="1" height="1"/>
	<rect x="694.88" y="696.26" class="st4" width="1" height="1"/>
	<rect x="699.97" y="684.69" class="st4" width="1" height="1"/>
	<rect x="705.07" y="686.49" class="st4" width="1" height="1"/>
	<rect x="710.17" y="686.68" class="st4" width="1" height="1"/>
	<rect x="715.27" y="669.91" class="st4" width="1" height="1"/>
	<rect x="720.37" y="667.42" class="st4" width="1" height="1"/>
	<rect x="725.47" y="676.52" class="st4" width="1" height="1"/>
	<rect x="730.56" y="673.09" class="st4" width="1" height="1"/>
	<rect x="735.66" y="670.98" class="st4" width="1" height="1"/>
	<rect x="740.76" y="672.28" class="st4" width="1" height="1"/>
	<rect x="745.86" y="670.3" class="st4" width="1" height="1"/>
	<rect x="750.96" y="674.22" class="st4" width="1" height="1"/>
	<rect x="756.06" y="675.52" class="st4" width="1" height="1"/>
	<rect x="761.15" y="679.27" class="st4" width="1" height="1"/>
	<rect x="766.25" y="689.99" class="st4" width="1" height="1"/>
	<rect x="771.35" y="689.68" class="st4" width="1" height="1"/>
	<rect x="776.45" y="693.05" class="st4" width="1" height="1"/>
	<rect x="781.55" y="691.35" class="st4" width="1" height="1"/>
	<rect x="786.64" y="689.88" class="st4" width="1" height="1"/>
	<rect x="791.74" y="698.96" class="st4" width="1" height="1"/>
	<rect x="796.84" y="703.37" class="st4" width="1" height="1"/>
	<rect x="801.94" y="705.25" class="st4" width="1" height="1"/>
	<rect x="807.04" y="714.1" class="st4" width="1" height="1"/>
	<rect x="812.14" y="710.97" class="st4" width="1" height="1"/>
	<rect x="817.23" y="703.31" class="st4" width="1" height="1"/>
	<rect x="822.33" y="708.74" class="st4" width="1" height="1"/>
	<rect x="827.43" y="710.88" class="st4" width="1" height="1"/>
	<rect x="832.53" y="712.89" class="st4" width="1" height="1"/>
	<rect x="837.63" y="718.58" class="st4" width="1" height="1"/>
	<rect x="842.72" y="719.92" class="st4" width="1" height="1"/>
	<rect x="847.82" y="726.91" class="st4" width="1" height="1"/>
	<rect x="852.92" y="733.32" class="st4" width="1" height="1"/>
	<rect x="858.02" y="735.06" class="st4" width="1" height="1"/>
	<rect x="863.12" y="731.73" class="st4" width="1" height="1"/>
	<rect x="868.22" y="727.12" class="st4" width="1" height="1"/>
	<rect x="873.31" y="738.28" class="st4" width="1" height="1"/>
	<rect x="878.41" y="731.17" class="st4" width="1" height="1"/>
	<rect x="883.51" y="735.03" class="st4" width="1" height="1"/>
	<rect x="888.61" y="737.46" class="st4" width="1" height="1"/>
	<rect x="893.71" y="736.03" class="st4" width="1" height="1"/>
	<rect x="898.81" y="740.44" class="st4" width="1" height="1"/>
	<rect x="903.9" y="739.43" class="st4" width="1" height="1"/>
	<rect x="909" y="738.81" class="st4" width="1" height="1"/>
	<rect x="914.1" y="738.87" class="st4" width="1" height="1"/>
	<rect x="919.2" y="739.5" class="st4" width="1" height="1"/>
	<rect x="924.3" y="742.67" class="st4" width="1" height="1"/>
	<rect x="929.39" y="737.52" class="st4" width="1" height="1"/>
	<rect x="934.49" y="737.6" class="st4" width="1" height="1"/>
	<rect x="939.59" y="740.13" class="st4" width="1" height="1"/>
	<rect x="944.69" y="739.53" class="st4" width="1" height="1"/>
	<rect x="949.79" y="736.69" class="st4" width="1" height="1"/>
	<rect x="954.89" y="738.41" class="st4" width="1" height="1"/>
	<rect x="959.98" y="742.17" class="st4" width="1" height="1"/>
	<rect x="965.08" y="741.45" class="st4" width="1" height="1"/>
	<rect x="970.18" y="738.78" class="st4" width="1" height="1"/>
	<rect x="975.28" y="742.16" class="st4" width="1" height="1"/>
	<rect x="980.38" y="739.07" class="st4" width="1" height="1"/>
	<rect x="985.47" y="729.5" class="st4" width="1" height="1"/>
	<rect x="990.57" y="737.51" class="st4" width="1" height="1"/>
	<rect x="995.67" y="727.91" class="st4" width="1" height="1"/>
	<rect x="1000.77" y="729.37" class="st4" width="1" height="1"/>
	<rect x="1005.87" y="741.74" class="st4" width="1" height="1"/>
	<rect x="1010.97" y="740.77" class="st4" width="1" height="1"/>
	<rect x="1016.06" y="735.86" class="st4" width="1" height="1"/>
	<rect x="1021.16" y="736.48" class="st4" width="1" height="1"/>
	<rect x="1026.26" y="741.65" class="st4" width="1" height="1"/>
	<rect x="1031.36" y="742.25" class="st4" width="1" height="1"/>
	<rect x="1036.46" y="751.2" class="st4" width="1" height="1"/>
	<rect x="1041.56" y="737.67" class="st4" width="1" height="1"/>
	<rect x="1046.65" y="728.88" class="st4" width="1" height="1"/>
	<rect x="1051.75" y="740.25" class="st4" width="1" height="1"/>
	<rect x="1056.85" y="738.46" class="st4" width="1" height="1"/>
	<rect x="1061.95" y="744.46" class="st4" width="1" height="1"/>
	<rect x="1067.05" y="742.35" class="st4" width="1" height="1"/>
	<rect x="1072.14" y="743.28" class="st4" width="1" height="1"/>
	<rect x="1077.24" y="741.94" class="st4" width="1" height="1"/>
	<rect x="1082.34" y="748.89" class="st4" width="1" height="1"/>
	<rect x="1087.44" y="740.71" class="st4" width="1" height="1"/>
	<rect x="1092.54" y="749.46" class="st4" width="1" height="1"/>
	<rect x="1097.64" y="734.1" class="st4" width="1" height="1"/>
	<rect x="1102.73" y="750.1" class="st4" width="1" height="1"/>
	<rect x="1107.83" y="755.56" class="st4" width="1" height="1"/>
	<rect x="1112.93" y="750.73" class="st4" width="1" height="1"/>
	<rect x="1118.03" y="754.14" class="st4" width="1" height="1"/>
	<rect x="1123.13" y="754.55" class="st4" width="1" height="1"/>
	<rect x="1128.22" y="756.31" class="st4" width="1" height="1"/>
	<rect x="1133.32" y="750.86" class="st4" width="1" height="1"/>
	<rect x="1138.42" y="754.43" class="st4" width="1" height="1"/>
	<rect x="1143.52" y="741.08" class="st4" width="1" height="1"/>
	<rect x="1148.62" y="728.53" class="st4" width="1" height="1"/>
	<rect x="1153.72" y="756.88" class="st4" width="1" height="1"/>
	<rect x="1158.81" y="744.1" class="st4" width="1" height="1"/>
	<rect x="1163.91" y="753.61" class="st4" width="1" height="1"/>
	<rect x="1169.01" y="756.74" class="st4" width="1" height="1"/>
	<rect x="1174.11" y="759.71" class="st4" width="1" height="1"/>
	<rect x="1179.21" y="757.28" class="st4" width="1" height="1"/>
	<rect x="1184.31" y="754.16" class="st4" width="1" height="1"/>
	<rect x="1189.4" y="754.96" class="st4" width="1" height="1"/>
	<rect x="1194.5" y="751.24" class="st4" width="1" height="1"/>
	<rect x="1199.6" y="756.54" class="st4" width="1" height="1"/>
	<rect x="1204.7" y="759.46" class="st4" width="1" height="1"/>
	<rect x="1209.8" y="764.2" class="st4" width="1" height="1"/>
	<rect x="1214.89" y="765.06" class="st4" width="1" height="1"/>
	<rect x="1219.99" y="759.11" class="st4" width="1" height="1"/>
	<rect x="1225.09" y="764.2" class="st4" width="1" height="1"/>
	<rect x="1230.19" y="759.59" class="st4" width="1" height="1"/>
	<rect x="1235.29" y="762.78" class="st4" width="1" height="1"/>
	<rect x="1240.39" y="760.76" class="st4" width="1" height="1"/>
	<rect x="1245.48" y="759" class="st4" width="1" height="1"/>
	<rect x="1250.58" y="761.49" class="st4" width="1" height="1"/>
	<rect x="1255.68" y="756.54" class="st4" width="1" height="1"/>
	<rect x="1260.78" y="763.39" class="st4" width="1" height="1"/>
	<rect x="1265.88" y="767.58" class="st4" width="1" height="1"/>
	<rect x="1270.98" y="755.36" class="st4" width="1" height="1"/>
	<rect x="1276.07" y="764.18" class="st4" width="1" height="1"/>
	<rect x="1281.17" y="759.81" class="st4" width="1" height="1"/>
	<rect x="1286.27" y="763.81" class="st4" width="1" height="1"/>
	<rect x="1291.37" y="768.71" class="st4" width="1" height="1"/>
	<rect x="1296.47" y="768.71" class="st4" width="1" height="1"/>
	<rect x="1301.56" y="770.57" class="st4" width="1" height="1"/>
	<rect x="1306.66" y="767.41" class="st4" width="1" height="1"/>
	<rect x="1311.76" y="769.98" class="st4" width="1" height="1"/>
	<rect x="1316.86" y="768.13" class="st4" width="1" height="1"/>
	<rect x="1321.96" y="760.61" class="st4" width="1" height="1"/>
	<rect x="1327.06" y="771.24" class="st4" width="1" height="1"/>
	<rect x="1332.15" y="769.94" class="st4" width="1" height="1"/>
	<rect x="1337.25" y="767.05" class="st4" width="1" height="1"/>
	<rect x="1342.35" y="770.48" class="st4" width="1" height="1"/>
	<rect x="1347.45" y="767.91" class="st4" width="1" height="1"/>
	<rect x="1352.55" y="773.82" class="st4" width="1" height="1"/>
	<rect x="1357.64" y="776.27" class="st4" width="1" height="1"/>
	<rect x="1362.74" y="768.8" class="st4" width="1" height="1"/>
	<rect x="1367.84" y="773.23" class="st4" width="1" height="1"/>
	<rect x="1372.93" y="765.43" class="st4" width="1" height="1"/>
	<rect x="1378.03" y="773.83" class="st4" width="1" height="1"/>
	<rect x="1383.13" y="774.38" class="st4" width="1" height="1"/>
	<rect x="1388.23" y="768.63" class="st4" width="1" height="1"/>
	<rect x="1393.33" y="774.75" class="st4" width="1" height="1"/>
	<rect x="1398.43" y="767.06" class="st4" width="1" height="1"/>
	<rect x="1403.52" y="771.58" class="st4" width="1" height="1"/>
	<rect x="1408.62" y="771.85" class="st4" width="1" height="1"/>
	<rect x="1413.72" y="772.56" class="st4" width="1" height="1"/>
	<rect x="1418.82" y="768.09" class="st4" width="1" height="1"/>
	<rect x="1423.92" y="762.44" class="st4" width="1" height="1"/>
	<rect x="1429.02" y="777.89" class="st4" width="1" height="1"/>
	<rect x="1434.11" y="771.94" class="st4" width="1" height="1"/>
	<rect x="1439.21" y="770.18" class="st4" width="1" height="1"/>
	<rect x="1444.31" y="772.57" class="st4" width="1" height="1"/>
	<rect x="1449.41" y="763.41" class="st4" width="1" height="1"/>
	<rect x="1454.51" y="755.94" class="st4" width="1" height="1"/>
	<rect x="1459.6" y="731.42" class="st4" width="1" height="1"/>
	<rect x="1464.7" y="739.64" class="st4" width="1" height="1"/>
	<rect x="1469.8" y="755.78" class="st4" width="1" height="1"/>
	<rect x="1474.9" y="724.5" class="st4" width="1" height="1"/>
	<polyline class="st5" points="476.15,325.19 481.25,355.28 486.35,355.22 491.45,510.82 496.55,592.23 501.64,590.31 
		511.84,563.49 516.94,544.8 522.04,539.61 527.13,564.12 532.23,552.88 537.33,557.42 542.43,583.66 547.53,589.88 552.63,608.38 
		557.72,632.74 562.82,623.9 567.92,644.89 573.02,648.18 578.12,649.57 583.22,664.22 588.31,667.66 593.41,674.17 598.51,687.69 
		603.61,690 608.71,691.74 613.8,704.01 618.9,705.48 624,702.97 629.1,708.6 634.2,712.85 639.3,710.18 644.39,712.39 
		649.49,711.1 654.59,712.9 659.69,715.53 669.88,714.67 674.98,720.22 680.08,722.82 685.18,719.66 690.28,706.7 695.38,723.33 
		700.47,718.22 705.57,721.53 715.77,717.89 720.87,724.46 725.97,724.31 731.06,726.71 736.16,725.5 741.26,726.42 746.36,730.13 
		751.46,730.84 756.55,725.65 761.65,728.56 766.75,729.3 771.85,723.88 776.95,723.39 782.05,729.23 787.14,719.99 792.24,706.57 
		797.34,701.57 802.44,705.77 807.54,695.04 812.64,692.74 817.73,703.76 822.83,696.15 827.93,708.59 833.03,709.97 838.13,711.93 
		843.22,708.42 848.32,695.51 853.42,697.67 858.52,693.5 863.62,704.31 868.72,687.25 873.81,707.63 878.91,697.77 884.01,691.84 
		889.11,697.63 894.21,699.74 899.3,695.37 904.4,695.4 909.5,691.97 914.6,699.11 919.7,699.74 924.8,698.82 929.89,709.96 
		934.99,699.24 940.09,696.03 945.19,701.46 950.29,703.68 955.39,707.42 960.48,714.8 965.58,708.72 970.68,711.25 975.78,704.61 
		980.88,715.88 985.97,717.74 991.07,716.34 996.17,723.46 1006.37,712.57 1011.47,725.26 1016.56,728.41 1021.66,733.88 
		1026.76,725.11 1031.86,734.15 1036.96,740.76 1042.05,739.47 1047.15,735.73 1052.25,734.61 1057.35,736.09 1062.45,741.74 
		1067.55,740.51 1072.64,744.88 1077.74,739.41 1082.84,742.75 1093.04,742.82 1098.14,749.2 1103.23,743.71 1108.33,746.03 
		1113.43,744.77 1118.53,748.06 1123.63,745.2 1128.72,751.39 1133.82,748.99 1138.92,751.86 1144.02,749.14 1149.12,745.06 
		1154.22,747.4 1159.31,742.76 1164.41,744.31 1169.51,744.76 1174.61,743.68 1179.71,739.86 1184.8,739.49 1189.9,738.4 
		1195,739.14 1200.1,739.36 1205.2,745.88 1210.3,747.73 1215.39,746.37 1220.49,745.61 1225.59,748 1230.69,738.06 1235.79,733.86 
		1240.89,733.68 1251.08,744.21 1256.18,745.51 1261.28,746.57 1266.38,748.67 1271.47,745.75 1276.57,745.48 1281.67,748.6 
		1286.77,745.65 1291.87,749.33 1302.06,751.98 1307.16,750.46 1312.26,748.61 1317.36,751.93 1322.46,748.66 1327.55,747.83 
		1332.65,744.91 1337.75,745.36 1342.85,744.17 1347.95,741.91 1353.05,746.39 1358.14,744.06 1363.24,744.54 1368.34,741.87 
		1373.44,750.03 1378.54,735.68 1383.64,750.44 1388.73,737.17 1393.83,748.92 1398.93,746.09 1404.03,750.46 1409.13,745.45 
		1414.22,750 1419.32,739.48 1424.42,751.91 1429.52,747.23 1434.62,741.43 1439.72,750.05 1444.81,754.35 1449.91,750.82 
		1455.01,753.25 1460.11,747.17 1465.21,752.68 1470.31,752.58 1475.4,753.65 1480.5,750.4 1485.6,750.59 1490.7,752.6 
		1490.7,752.6 	"/>
	<path class="st6" d="M476.15,325.19v6.5 M476.15,325.19l5.2-3.25 M476.15,325.19l-5.2-3.25"/>
	<path class="st6" d="M481.25,355.28v6.5 M481.25,355.28l5.2-3.25 M481.25,355.28l-5.2-3.25"/>
	<path class="st6" d="M486.35,355.22v6.5 M486.35,355.22l5.2-3.25 M486.35,355.22l-5.2-3.25"/>
	<path class="st6" d="M491.45,510.82v6.5 M491.45,510.82l5.2-3.25 M491.45,510.82l-5.2-3.25"/>
	<path class="st6" d="M496.55,592.23v6.5 M496.55,592.23l5.2-3.25 M496.55,592.23l-5.2-3.25"/>
	<path class="st6" d="M501.64,590.31v6.5 M501.64,590.31l5.2-3.25 M501.64,590.31l-5.2-3.25"/>
	<path class="st6" d="M506.74,576.97v6.5 M506.74,576.97l5.2-3.25 M506.74,576.97l-5.2-3.25"/>
	<path class="st6" d="M511.84,563.49v6.5 M511.84,563.49l5.2-3.25 M511.84,563.49l-5.2-3.25"/>
	<path class="st6" d="M516.94,544.8v6.5 M516.94,544.8l5.2-3.25 M516.94,544.8l-5.2-3.25"/>
	<path class="st6" d="M522.04,539.61v6.5 M522.04,539.61l5.2-3.25 M522.04,539.61l-5.2-3.25"/>
	<path class="st6" d="M527.14,564.12v6.5 M527.14,564.12l5.2-3.25 M527.14,564.12l-5.2-3.25"/>
	<path class="st6" d="M532.23,552.88v6.5 M532.23,552.88l5.2-3.25 M532.23,552.88l-5.2-3.25"/>
	<path class="st6" d="M537.33,557.42v6.5 M537.33,557.42l5.2-3.25 M537.33,557.42l-5.2-3.25"/>
	<path class="st6" d="M542.43,583.66v6.5 M542.43,583.66l5.2-3.25 M542.43,583.66l-5.2-3.25"/>
	<path class="st6" d="M547.53,589.88v6.5 M547.53,589.88l5.2-3.25 M547.53,589.88l-5.2-3.25"/>
	<path class="st6" d="M552.63,608.38v6.5 M552.63,608.38l5.2-3.25 M552.63,608.38l-5.2-3.25"/>
	<path class="st6" d="M557.72,632.74v6.5 M557.72,632.74l5.2-3.25 M557.72,632.74l-5.2-3.25"/>
	<path class="st6" d="M562.82,623.9v6.5 M562.82,623.9l5.2-3.25 M562.82,623.9l-5.2-3.25"/>
	<path class="st6" d="M567.92,644.89v6.5 M567.92,644.89l5.2-3.25 M567.92,644.89l-5.2-3.25"/>
	<path class="st6" d="M573.02,648.18v6.5 M573.02,648.18l5.2-3.25 M573.02,648.18l-5.2-3.25"/>
	<path class="st6" d="M578.12,649.57v6.5 M578.12,649.57l5.2-3.25 M578.12,649.57l-5.2-3.25"/>
	<path class="st6" d="M583.22,664.22v6.5 M583.22,664.22l5.2-3.25 M583.22,664.22l-5.2-3.25"/>
	<path class="st6" d="M588.31,667.66v6.5 M588.31,667.66l5.2-3.25 M588.31,667.66l-5.2-3.25"/>
	<path class="st6" d="M593.41,674.17v6.5 M593.41,674.17l5.2-3.25 M593.41,674.17l-5.2-3.25"/>
	<path class="st6" d="M598.51,687.69v6.5 M598.51,687.69l5.2-3.25 M598.51,687.69l-5.2-3.25"/>
	<path class="st6" d="M603.61,690v6.5 M603.61,690l5.2-3.25 M603.61,690l-5.2-3.25"/>
	<path class="st6" d="M608.71,691.74v6.5 M608.71,691.74l5.2-3.25 M608.71,691.74l-5.2-3.25"/>
	<path class="st6" d="M613.8,704.01v6.5 M613.8,704.01l5.2-3.25 M613.8,704.01l-5.2-3.25"/>
	<path class="st6" d="M618.9,705.48v6.5 M618.9,705.48l5.2-3.25 M618.9,705.48l-5.2-3.25"/>
	<path class="st6" d="M624,702.97v6.5 M624,702.97l5.2-3.25 M624,702.97l-5.2-3.25"/>
	<path class="st6" d="M629.1,708.6v6.5 M629.1,708.6l5.2-3.25 M629.1,708.6l-5.2-3.25"/>
	<path class="st6" d="M634.2,712.85v6.5 M634.2,712.85l5.2-3.25 M634.2,712.85l-5.2-3.25"/>
	<path class="st6" d="M639.3,710.18v6.5 M639.3,710.18l5.2-3.25 M639.3,710.18l-5.2-3.25"/>
	<path class="st6" d="M644.39,712.39v6.5 M644.39,712.39l5.2-3.25 M644.39,712.39l-5.2-3.25"/>
	<path class="st6" d="M649.49,711.1v6.5 M649.49,711.1l5.2-3.25 M649.49,711.1l-5.2-3.25"/>
	<path class="st6" d="M654.59,712.9v6.5 M654.59,712.9l5.2-3.25 M654.59,712.9l-5.2-3.25"/>
	<path class="st6" d="M659.69,715.53v6.5 M659.69,715.53l5.2-3.25 M659.69,715.53l-5.2-3.25"/>
	<path class="st6" d="M664.79,715.15v6.5 M664.79,715.15l5.2-3.25 M664.79,715.15l-5.2-3.25"/>
	<path class="st6" d="M669.89,714.67v6.5 M669.89,714.67l5.2-3.25 M669.89,714.67l-5.2-3.25"/>
	<path class="st6" d="M674.98,720.22v6.5 M674.98,720.22l5.2-3.25 M674.98,720.22l-5.2-3.25"/>
	<path class="st6" d="M680.08,722.82v6.5 M680.08,722.82l5.2-3.25 M680.08,722.82l-5.2-3.25"/>
	<path class="st6" d="M685.18,719.66v6.5 M685.18,719.66l5.2-3.25 M685.18,719.66l-5.2-3.25"/>
	<path class="st6" d="M690.28,706.7v6.5 M690.28,706.7l5.2-3.25 M690.28,706.7l-5.2-3.25"/>
	<path class="st6" d="M695.38,723.33v6.5 M695.38,723.33l5.2-3.25 M695.38,723.33l-5.2-3.25"/>
	<path class="st6" d="M700.47,718.22v6.5 M700.47,718.22l5.2-3.25 M700.47,718.22l-5.2-3.25"/>
	<path class="st6" d="M705.57,721.53v6.5 M705.57,721.53l5.2-3.25 M705.57,721.53l-5.2-3.25"/>
	<path class="st6" d="M710.67,719.72v6.5 M710.67,719.72l5.2-3.25 M710.67,719.72l-5.2-3.25"/>
	<path class="st6" d="M715.77,717.89v6.5 M715.77,717.89l5.2-3.25 M715.77,717.89l-5.2-3.25"/>
	<path class="st6" d="M720.87,724.46v6.5 M720.87,724.46l5.2-3.25 M720.87,724.46l-5.2-3.25"/>
	<path class="st6" d="M725.97,724.31v6.5 M725.97,724.31l5.2-3.25 M725.97,724.31l-5.2-3.25"/>
	<path class="st6" d="M731.06,726.71v6.5 M731.06,726.71l5.2-3.25 M731.06,726.71l-5.2-3.25"/>
	<path class="st6" d="M736.16,725.5v6.5 M736.16,725.5l5.2-3.25 M736.16,725.5l-5.2-3.25"/>
	<path class="st6" d="M741.26,726.42v6.5 M741.26,726.42l5.2-3.25 M741.26,726.42l-5.2-3.25"/>
	<path class="st6" d="M746.36,730.13v6.5 M746.36,730.13l5.2-3.25 M746.36,730.13l-5.2-3.25"/>
	<path class="st6" d="M751.46,730.84v6.5 M751.46,730.84l5.2-3.25 M751.46,730.84l-5.2-3.25"/>
	<path class="st6" d="M756.56,725.65v6.5 M756.56,725.65l5.2-3.25 M756.56,725.65l-5.2-3.25"/>
	<path class="st6" d="M761.65,728.56v6.5 M761.65,728.56l5.2-3.25 M761.65,728.56l-5.2-3.25"/>
	<path class="st6" d="M766.75,729.3v6.5 M766.75,729.3l5.2-3.25 M766.75,729.3l-5.2-3.25"/>
	<path class="st6" d="M771.85,723.88v6.5 M771.85,723.88l5.2-3.25 M771.85,723.88l-5.2-3.25"/>
	<path class="st6" d="M776.95,723.39v6.5 M776.95,723.39l5.2-3.25 M776.95,723.39l-5.2-3.25"/>
	<path class="st6" d="M782.05,729.23v6.5 M782.05,729.23l5.2-3.25 M782.05,729.23l-5.2-3.25"/>
	<path class="st6" d="M787.14,719.99v6.5 M787.14,719.99l5.2-3.25 M787.14,719.99l-5.2-3.25"/>
	<path class="st6" d="M792.24,706.57v6.5 M792.24,706.57l5.2-3.25 M792.24,706.57l-5.2-3.25"/>
	<path class="st6" d="M797.34,701.57v6.5 M797.34,701.57l5.2-3.25 M797.34,701.57l-5.2-3.25"/>
	<path class="st6" d="M802.44,705.77v6.5 M802.44,705.77l5.2-3.25 M802.44,705.77l-5.2-3.25"/>
	<path class="st6" d="M807.54,695.04v6.5 M807.54,695.04l5.2-3.25 M807.54,695.04l-5.2-3.25"/>
	<path class="st6" d="M812.64,692.74v6.5 M812.64,692.74l5.2-3.25 M812.64,692.74l-5.2-3.25"/>
	<path class="st6" d="M817.73,703.76v6.5 M817.73,703.76l5.2-3.25 M817.73,703.76l-5.2-3.25"/>
	<path class="st6" d="M822.83,696.15v6.5 M822.83,696.15l5.2-3.25 M822.83,696.15l-5.2-3.25"/>
	<path class="st6" d="M827.93,708.59v6.5 M827.93,708.59l5.2-3.25 M827.93,708.59l-5.2-3.25"/>
	<path class="st6" d="M833.03,709.97v6.5 M833.03,709.97l5.2-3.25 M833.03,709.97l-5.2-3.25"/>
	<path class="st6" d="M838.13,711.93v6.5 M838.13,711.93l5.2-3.25 M838.13,711.93l-5.2-3.25"/>
	<path class="st6" d="M843.22,708.42v6.5 M843.22,708.42l5.2-3.25 M843.22,708.42l-5.2-3.25"/>
	<path class="st6" d="M848.32,695.51v6.5 M848.32,695.51l5.2-3.25 M848.32,695.51l-5.2-3.25"/>
	<path class="st6" d="M853.42,697.67v6.5 M853.42,697.67l5.2-3.25 M853.42,697.67l-5.2-3.25"/>
	<path class="st6" d="M858.52,693.5v6.5 M858.52,693.5l5.2-3.25 M858.52,693.5l-5.2-3.25"/>
	<path class="st6" d="M863.62,704.31v6.5 M863.62,704.31l5.2-3.25 M863.62,704.31l-5.2-3.25"/>
	<path class="st6" d="M868.72,687.25v6.5 M868.72,687.25l5.2-3.25 M868.72,687.25l-5.2-3.25"/>
	<path class="st6" d="M873.81,707.63v6.5 M873.81,707.63l5.2-3.25 M873.81,707.63l-5.2-3.25"/>
	<path class="st6" d="M878.91,697.77v6.5 M878.91,697.77l5.2-3.25 M878.91,697.77l-5.2-3.25"/>
	<path class="st6" d="M884.01,691.84v6.5 M884.01,691.84l5.2-3.25 M884.01,691.84l-5.2-3.25"/>
	<path class="st6" d="M889.11,697.63v6.5 M889.11,697.63l5.2-3.25 M889.11,697.63l-5.2-3.25"/>
	<path class="st6" d="M894.21,699.74v6.5 M894.21,699.74l5.2-3.25 M894.21,699.74l-5.2-3.25"/>
	<path class="st6" d="M899.31,695.37v6.5 M899.31,695.37l5.2-3.25 M899.31,695.37l-5.2-3.25"/>
	<path class="st6" d="M904.4,695.4v6.5 M904.4,695.4l5.2-3.25 M904.4,695.4l-5.2-3.25"/>
	<path class="st6" d="M909.5,691.97v6.5 M909.5,691.97l5.2-3.25 M909.5,691.97l-5.2-3.25"/>
	<path class="st6" d="M914.6,699.11v6.5 M914.6,699.11l5.2-3.25 M914.6,699.11l-5.2-3.25"/>
	<path class="st6" d="M919.7,699.74v6.5 M919.7,699.74l5.2-3.25 M919.7,699.74l-5.2-3.25"/>
	<path class="st6" d="M924.8,698.82v6.5 M924.8,698.82l5.2-3.25 M924.8,698.82l-5.2-3.25"/>
	<path class="st6" d="M929.89,709.96v6.5 M929.89,709.96l5.2-3.25 M929.89,709.96l-5.2-3.25"/>
	<path class="st6" d="M934.99,699.24v6.5 M934.99,699.24l5.2-3.25 M934.99,699.24l-5.2-3.25"/>
	<path class="st6" d="M940.09,696.03v6.5 M940.09,696.03l5.2-3.25 M940.09,696.03l-5.2-3.25"/>
	<path class="st6" d="M945.19,701.46v6.5 M945.19,701.46l5.2-3.25 M945.19,701.46l-5.2-3.25"/>
	<path class="st6" d="M950.29,703.68v6.5 M950.29,703.68l5.2-3.25 M950.29,703.68l-5.2-3.25"/>
	<path class="st6" d="M955.39,707.42v6.5 M955.39,707.42l5.2-3.25 M955.39,707.42l-5.2-3.25"/>
	<path class="st6" d="M960.48,714.8v6.5 M960.48,714.8l5.2-3.25 M960.48,714.8l-5.2-3.25"/>
	<path class="st6" d="M965.58,708.72v6.5 M965.58,708.72l5.2-3.25 M965.58,708.72l-5.2-3.25"/>
	<path class="st6" d="M970.68,711.25v6.5 M970.68,711.25l5.2-3.25 M970.68,711.25l-5.2-3.25"/>
	<path class="st6" d="M975.78,704.61v6.5 M975.78,704.61l5.2-3.25 M975.78,704.61l-5.2-3.25"/>
	<path class="st6" d="M980.88,715.88v6.5 M980.88,715.88l5.2-3.25 M980.88,715.88l-5.2-3.25"/>
	<path class="st6" d="M985.97,717.74v6.5 M985.97,717.74l5.2-3.25 M985.97,717.74l-5.2-3.25"/>
	<path class="st6" d="M991.07,716.34v6.5 M991.07,716.34l5.2-3.25 M991.07,716.34l-5.2-3.25"/>
	<path class="st6" d="M996.17,723.46v6.5 M996.17,723.46l5.2-3.25 M996.17,723.46l-5.2-3.25"/>
	<path class="st6" d="M1001.27,717.94v6.5 M1001.27,717.94l5.2-3.25 M1001.27,717.94l-5.2-3.25"/>
	<path class="st6" d="M1006.37,712.57v6.5 M1006.37,712.57l5.2-3.25 M1006.37,712.57l-5.2-3.25"/>
	<path class="st6" d="M1011.47,725.26v6.5 M1011.47,725.26l5.2-3.25 M1011.47,725.26l-5.2-3.25"/>
	<path class="st6" d="M1016.56,728.41v6.5 M1016.56,728.41l5.2-3.25 M1016.56,728.41l-5.2-3.25"/>
	<path class="st6" d="M1021.66,733.88v6.5 M1021.66,733.88l5.2-3.25 M1021.66,733.88l-5.2-3.25"/>
	<path class="st6" d="M1026.76,725.11v6.5 M1026.76,725.11l5.2-3.25 M1026.76,725.11l-5.2-3.25"/>
	<path class="st6" d="M1031.86,734.15v6.5 M1031.86,734.15l5.2-3.25 M1031.86,734.15l-5.2-3.25"/>
	<path class="st6" d="M1036.96,740.76v6.5 M1036.96,740.76l5.2-3.25 M1036.96,740.76l-5.2-3.25"/>
	<path class="st6" d="M1042.06,739.47v6.5 M1042.06,739.47l5.2-3.25 M1042.06,739.47l-5.2-3.25"/>
	<path class="st6" d="M1047.15,735.73v6.5 M1047.15,735.73l5.2-3.25 M1047.15,735.73l-5.2-3.25"/>
	<path class="st6" d="M1052.25,734.61v6.5 M1052.25,734.61l5.2-3.25 M1052.25,734.61l-5.2-3.25"/>
	<path class="st6" d="M1057.35,736.09v6.5 M1057.35,736.09l5.2-3.25 M1057.35,736.09l-5.2-3.25"/>
	<path class="st6" d="M1062.45,741.74v6.5 M1062.45,741.74l5.2-3.25 M1062.45,741.74l-5.2-3.25"/>
	<path class="st6" d="M1067.55,740.51v6.5 M1067.55,740.51l5.2-3.25 M1067.55,740.51l-5.2-3.25"/>
	<path class="st6" d="M1072.64,744.88v6.5 M1072.64,744.88l5.2-3.25 M1072.64,744.88l-5.2-3.25"/>
	<path class="st6" d="M1077.74,739.41v6.5 M1077.74,739.41l5.2-3.25 M1077.74,739.41l-5.2-3.25"/>
	<path class="st6" d="M1082.84,742.75v6.5 M1082.84,742.75l5.2-3.25 M1082.84,742.75l-5.2-3.25"/>
	<path class="st6" d="M1087.94,742.77v6.5 M1087.94,742.77l5.2-3.25 M1087.94,742.77l-5.2-3.25"/>
	<path class="st6" d="M1093.04,742.82v6.5 M1093.04,742.82l5.2-3.25 M1093.04,742.82l-5.2-3.25"/>
	<path class="st6" d="M1098.14,749.2v6.5 M1098.14,749.2l5.2-3.25 M1098.14,749.2l-5.2-3.25"/>
	<path class="st6" d="M1103.23,743.71v6.5 M1103.23,743.71l5.2-3.25 M1103.23,743.71l-5.2-3.25"/>
	<path class="st6" d="M1108.33,746.03v6.5 M1108.33,746.03l5.2-3.25 M1108.33,746.03l-5.2-3.25"/>
	<path class="st6" d="M1113.43,744.77v6.5 M1113.43,744.77l5.2-3.25 M1113.43,744.77l-5.2-3.25"/>
	<path class="st6" d="M1118.53,748.06v6.5 M1118.53,748.06l5.2-3.25 M1118.53,748.06l-5.2-3.25"/>
	<path class="st6" d="M1123.63,745.2v6.5 M1123.63,745.2l5.2-3.25 M1123.63,745.2l-5.2-3.25"/>
	<path class="st6" d="M1128.72,751.39v6.5 M1128.72,751.39l5.2-3.25 M1128.72,751.39l-5.2-3.25"/>
	<path class="st6" d="M1133.82,748.99v6.5 M1133.82,748.99l5.2-3.25 M1133.82,748.99l-5.2-3.25"/>
	<path class="st6" d="M1138.92,751.86v6.5 M1138.92,751.86l5.2-3.25 M1138.92,751.86l-5.2-3.25"/>
	<path class="st6" d="M1144.02,749.14v6.5 M1144.02,749.14l5.2-3.25 M1144.02,749.14l-5.2-3.25"/>
	<path class="st6" d="M1149.12,745.06v6.5 M1149.12,745.06l5.2-3.25 M1149.12,745.06l-5.2-3.25"/>
	<path class="st6" d="M1154.22,747.4v6.5 M1154.22,747.4l5.2-3.25 M1154.22,747.4l-5.2-3.25"/>
	<path class="st6" d="M1159.31,742.76v6.5 M1159.31,742.76l5.2-3.25 M1159.31,742.76l-5.2-3.25"/>
	<path class="st6" d="M1164.41,744.31v6.5 M1164.41,744.31l5.2-3.25 M1164.41,744.31l-5.2-3.25"/>
	<path class="st6" d="M1169.51,744.76v6.5 M1169.51,744.76l5.2-3.25 M1169.51,744.76l-5.2-3.25"/>
	<path class="st6" d="M1174.61,743.68v6.5 M1174.61,743.68l5.2-3.25 M1174.61,743.68l-5.2-3.25"/>
	<path class="st6" d="M1179.71,739.86v6.5 M1179.71,739.86l5.2-3.25 M1179.71,739.86l-5.2-3.25"/>
	<path class="st6" d="M1184.81,739.49v6.5 M1184.81,739.49l5.2-3.25 M1184.81,739.49l-5.2-3.25"/>
	<path class="st6" d="M1189.9,738.4v6.5 M1189.9,738.4l5.2-3.25 M1189.9,738.4l-5.2-3.25"/>
	<path class="st6" d="M1195,739.14v6.5 M1195,739.14l5.2-3.25 M1195,739.14l-5.2-3.25"/>
	<path class="st6" d="M1200.1,739.36v6.5 M1200.1,739.36l5.2-3.25 M1200.1,739.36l-5.2-3.25"/>
	<path class="st6" d="M1205.2,745.88v6.5 M1205.2,745.88l5.2-3.25 M1205.2,745.88l-5.2-3.25"/>
	<path class="st6" d="M1210.3,747.73v6.5 M1210.3,747.73l5.2-3.25 M1210.3,747.73l-5.2-3.25"/>
	<path class="st6" d="M1215.39,746.37v6.5 M1215.39,746.37l5.2-3.25 M1215.39,746.37l-5.2-3.25"/>
	<path class="st6" d="M1220.49,745.61v6.5 M1220.49,745.61l5.2-3.25 M1220.49,745.61l-5.2-3.25"/>
	<path class="st6" d="M1225.59,748v6.5 M1225.59,748l5.2-3.25 M1225.59,748l-5.2-3.25"/>
	<path class="st6" d="M1230.69,738.06v6.5 M1230.69,738.06l5.2-3.25 M1230.69,738.06l-5.2-3.25"/>
	<path class="st6" d="M1235.79,733.86v6.5 M1235.79,733.86l5.2-3.25 M1235.79,733.86l-5.2-3.25"/>
	<path class="st6" d="M1240.89,733.68v6.5 M1240.89,733.68l5.2-3.25 M1240.89,733.68l-5.2-3.25"/>
	<path class="st6" d="M1245.98,738.94v6.5 M1245.98,738.94l5.2-3.25 M1245.98,738.94l-5.2-3.25"/>
	<path class="st6" d="M1251.08,744.21v6.5 M1251.08,744.21l5.2-3.25 M1251.08,744.21l-5.2-3.25"/>
	<path class="st6" d="M1256.18,745.51v6.5 M1256.18,745.51l5.2-3.25 M1256.18,745.51l-5.2-3.25"/>
	<path class="st6" d="M1261.28,746.57v6.5 M1261.28,746.57l5.2-3.25 M1261.28,746.57l-5.2-3.25"/>
	<path class="st6" d="M1266.38,748.67v6.5 M1266.38,748.67l5.2-3.25 M1266.38,748.67l-5.2-3.25"/>
	<path class="st6" d="M1271.48,745.75v6.5 M1271.48,745.75l5.2-3.25 M1271.48,745.75l-5.2-3.25"/>
	<path class="st6" d="M1276.57,745.48v6.5 M1276.57,745.48l5.2-3.25 M1276.57,745.48l-5.2-3.25"/>
	<path class="st6" d="M1281.67,748.6v6.5 M1281.67,748.6l5.2-3.25 M1281.67,748.6l-5.2-3.25"/>
	<path class="st6" d="M1286.77,745.65v6.5 M1286.77,745.65l5.2-3.25 M1286.77,745.65l-5.2-3.25"/>
	<path class="st6" d="M1291.87,749.33v6.5 M1291.87,749.33l5.2-3.25 M1291.87,749.33l-5.2-3.25"/>
	<path class="st6" d="M1296.97,750.65v6.5 M1296.97,750.65l5.2-3.25 M1296.97,750.65l-5.2-3.25"/>
	<path class="st6" d="M1302.06,751.98v6.5 M1302.06,751.98l5.2-3.25 M1302.06,751.98l-5.2-3.25"/>
	<path class="st6" d="M1307.16,750.46v6.5 M1307.16,750.46l5.2-3.25 M1307.16,750.46l-5.2-3.25"/>
	<path class="st6" d="M1312.26,748.61v6.5 M1312.26,748.61l5.2-3.25 M1312.26,748.61l-5.2-3.25"/>
	<path class="st6" d="M1317.36,751.93v6.5 M1317.36,751.93l5.2-3.25 M1317.36,751.93l-5.2-3.25"/>
	<path class="st6" d="M1322.46,748.66v6.5 M1322.46,748.66l5.2-3.25 M1322.46,748.66l-5.2-3.25"/>
	<path class="st6" d="M1327.56,747.83v6.5 M1327.56,747.83l5.2-3.25 M1327.56,747.83l-5.2-3.25"/>
	<path class="st6" d="M1332.65,744.91v6.5 M1332.65,744.91l5.2-3.25 M1332.65,744.91l-5.2-3.25"/>
	<path class="st6" d="M1337.75,745.36v6.5 M1337.75,745.36l5.2-3.25 M1337.75,745.36l-5.2-3.25"/>
	<path class="st6" d="M1342.85,744.17v6.5 M1342.85,744.17l5.2-3.25 M1342.85,744.17l-5.2-3.25"/>
	<path class="st6" d="M1347.95,741.91v6.5 M1347.95,741.91l5.2-3.25 M1347.95,741.91l-5.2-3.25"/>
	<path class="st6" d="M1353.05,746.39v6.5 M1353.05,746.39l5.2-3.25 M1353.05,746.39l-5.2-3.25"/>
	<path class="st6" d="M1358.14,744.06v6.5 M1358.14,744.06l5.2-3.25 M1358.14,744.06l-5.2-3.25"/>
	<path class="st6" d="M1363.24,744.54v6.5 M1363.24,744.54l5.2-3.25 M1363.24,744.54l-5.2-3.25"/>
	<path class="st6" d="M1368.34,741.87v6.5 M1368.34,741.87l5.2-3.25 M1368.34,741.87l-5.2-3.25"/>
	<path class="st6" d="M1373.43,750.03v6.5 M1373.43,750.03l5.2-3.25 M1373.43,750.03l-5.2-3.25"/>
	<path class="st6" d="M1378.53,735.68v6.5 M1378.53,735.68l5.2-3.25 M1378.53,735.68l-5.2-3.25"/>
	<path class="st6" d="M1383.63,750.44v6.5 M1383.63,750.44l5.2-3.25 M1383.63,750.44l-5.2-3.25"/>
	<path class="st6" d="M1388.73,737.17v6.5 M1388.73,737.17l5.2-3.25 M1388.73,737.17l-5.2-3.25"/>
	<path class="st6" d="M1393.83,748.92v6.5 M1393.83,748.92l5.2-3.25 M1393.83,748.92l-5.2-3.25"/>
	<path class="st6" d="M1398.93,746.09v6.5 M1398.93,746.09l5.2-3.25 M1398.93,746.09l-5.2-3.25"/>
	<path class="st6" d="M1404.02,750.46v6.5 M1404.02,750.46l5.2-3.25 M1404.02,750.46l-5.2-3.25"/>
	<path class="st6" d="M1409.12,745.45v6.5 M1409.12,745.45l5.2-3.25 M1409.12,745.45l-5.2-3.25"/>
	<path class="st6" d="M1414.22,750v6.5 M1414.22,750l5.2-3.25 M1414.22,750l-5.2-3.25"/>
	<path class="st6" d="M1419.32,739.48v6.5 M1419.32,739.48l5.2-3.25 M1419.32,739.48l-5.2-3.25"/>
	<path class="st6" d="M1424.42,751.91v6.5 M1424.42,751.91l5.2-3.25 M1424.42,751.91l-5.2-3.25"/>
	<path class="st6" d="M1429.52,747.23v6.5 M1429.52,747.23l5.2-3.25 M1429.52,747.23l-5.2-3.25"/>
	<path class="st6" d="M1434.61,741.43v6.5 M1434.61,741.43l5.2-3.25 M1434.61,741.43l-5.2-3.25"/>
	<path class="st6" d="M1439.71,750.05v6.5 M1439.71,750.05l5.2-3.25 M1439.71,750.05l-5.2-3.25"/>
	<path class="st6" d="M1444.81,754.35v6.5 M1444.81,754.35l5.2-3.25 M1444.81,754.35l-5.2-3.25"/>
	<path class="st6" d="M1449.91,750.82v6.5 M1449.91,750.82l5.2-3.25 M1449.91,750.82l-5.2-3.25"/>
	<path class="st6" d="M1455.01,753.25v6.5 M1455.01,753.25l5.2-3.25 M1455.01,753.25l-5.2-3.25"/>
	<path class="st6" d="M1460.1,747.17v6.5 M1460.1,747.17l5.2-3.25 M1460.1,747.17l-5.2-3.25"/>
	<path class="st6" d="M1465.2,752.68v6.5 M1465.2,752.68l5.2-3.25 M1465.2,752.68l-5.2-3.25"/>
	<path class="st6" d="M1470.3,752.58v6.5 M1470.3,752.58l5.2-3.25 M1470.3,752.58l-5.2-3.25"/>
	<path class="st6" d="M1475.4,753.65v6.5 M1475.4,753.65l5.2-3.25 M1475.4,753.65l-5.2-3.25"/>
	<path class="st6" d="M1480.5,750.4v6.5 M1480.5,750.4l5.2-3.25 M1480.5,750.4l-5.2-3.25"/>
	<path class="st6" d="M1485.6,750.59v6.5 M1485.6,750.59l5.2-3.25 M1485.6,750.59l-5.2-3.25"/>
	<path class="st6" d="M1490.69,752.6v6.5 M1490.69,752.6l5.2-3.25 M1490.69,752.6l-5.2-3.25"/>
	<path class="st7" d="M425.43,803.1V259.5 M1541.43,803.1V259.5 M425.43,803.1h1116 M425.43,259.5h1116"/>
	<polygon class="st2" points="839.93,242.46 842.13,242.46 844.92,249.9 847.73,242.46 849.93,242.46 849.93,253.4 848.49,253.4 
		848.49,243.79 845.67,251.29 844.18,251.29 841.36,243.79 841.36,253.4 839.93,253.4 839.93,242.46 	"/>
	<path class="st2" d="M856.54,243.92l-2.01,5.44h4.02L856.54,243.92 M855.71,242.46h1.68l4.17,10.94h-1.54l-1-2.81h-4.93l-1,2.81
		h-1.56L855.71,242.46L855.71,242.46z"/>
	<polygon class="st2" points="862.97,242.46 869.88,242.46 869.88,243.71 864.45,243.71 864.45,246.94 869.65,246.94 869.65,248.19 
		864.45,248.19 864.45,252.15 870.01,252.15 870.01,253.4 862.97,253.4 862.97,242.46 	"/>
	<path class="st2" d="M883.2,249.3c0-0.99-0.21-1.77-0.62-2.33c-0.4-0.56-0.97-0.85-1.68-0.85s-1.27,0.29-1.68,0.85
		c-0.4,0.56-0.61,1.34-0.61,2.33s0.21,1.77,0.61,2.34c0.41,0.56,0.97,0.84,1.68,0.84s1.27-0.28,1.68-0.84
		C882.99,251.07,883.2,250.29,883.2,249.3 M878.61,246.44c0.29-0.49,0.64-0.85,1.07-1.08c0.43-0.24,0.95-0.36,1.55-0.36
		c1,0,1.8,0.4,2.42,1.19s0.94,1.83,0.94,3.12s-0.31,2.33-0.94,3.12s-1.43,1.19-2.42,1.19c-0.6,0-1.12-0.12-1.55-0.35
		c-0.43-0.24-0.78-0.6-1.07-1.09v1.23h-1.35V242h1.35V246.44L878.61,246.44z"/>
	<path class="st2" d="M893.69,248.96v0.66h-6.2c0.06,0.93,0.34,1.63,0.83,2.12c0.51,0.48,1.2,0.73,2.09,0.73
		c0.52,0,1.02-0.07,1.5-0.19c0.49-0.12,0.97-0.31,1.45-0.57v1.27c-0.48,0.21-0.98,0.36-1.49,0.47s-1.03,0.16-1.55,0.16
		c-1.31,0-2.34-0.38-3.11-1.14c-0.76-0.76-1.14-1.79-1.14-3.09c0-1.34,0.36-2.41,1.08-3.19c0.73-0.79,1.71-1.19,2.94-1.19
		c1.11,0,1.98,0.36,2.61,1.07C893.36,246.78,893.69,247.73,893.69,248.96 M892.34,248.56c-0.01-0.74-0.22-1.33-0.62-1.77
		s-0.93-0.66-1.6-0.66c-0.75,0-1.35,0.21-1.81,0.64c-0.45,0.42-0.71,1.03-0.78,1.79L892.34,248.56L892.34,248.56z"/>
	<path class="st2" d="M897.36,242.86v2.33h2.78v1.05h-2.78v4.45c0,0.67,0.09,1.1,0.27,1.29s0.56,0.29,1.12,0.29h1.38v1.13h-1.38
		c-1.04,0-1.76-0.19-2.15-0.58s-0.59-1.1-0.59-2.12v-4.45h-0.99v-1.05h0.99v-2.33H897.36L897.36,242.86z"/>
	<polygon class="st2" points="901.01,245.19 902.35,245.19 904.04,251.59 905.71,245.19 907.3,245.19 908.99,251.59 910.67,245.19 
		912.01,245.19 909.87,253.4 908.28,253.4 906.51,246.67 904.74,253.4 903.15,253.4 901.01,245.19 	"/>
	<path class="st2" d="M921.05,248.96v0.66h-6.2c0.06,0.93,0.34,1.63,0.83,2.12c0.51,0.48,1.2,0.73,2.09,0.73
		c0.52,0,1.02-0.07,1.5-0.19c0.49-0.12,0.97-0.31,1.45-0.57v1.27c-0.48,0.21-0.98,0.36-1.49,0.47s-1.03,0.16-1.55,0.16
		c-1.31,0-2.34-0.38-3.11-1.14c-0.76-0.76-1.14-1.79-1.14-3.09c0-1.34,0.36-2.41,1.08-3.19c0.73-0.79,1.71-1.19,2.94-1.19
		c1.11,0,1.98,0.36,2.61,1.07C920.72,246.78,921.05,247.73,921.05,248.96 M919.7,248.56c-0.01-0.74-0.22-1.33-0.62-1.77
		s-0.93-0.66-1.6-0.66c-0.75,0-1.35,0.21-1.81,0.64c-0.45,0.42-0.71,1.03-0.78,1.79L919.7,248.56L919.7,248.56z"/>
	<path class="st2" d="M930.41,248.96v0.66h-6.2c0.06,0.93,0.34,1.63,0.83,2.12c0.51,0.48,1.2,0.73,2.09,0.73
		c0.52,0,1.02-0.07,1.5-0.19c0.49-0.12,0.97-0.31,1.45-0.57v1.27c-0.48,0.21-0.98,0.36-1.49,0.47s-1.03,0.16-1.55,0.16
		c-1.31,0-2.34-0.38-3.11-1.14c-0.76-0.76-1.14-1.79-1.14-3.09c0-1.34,0.36-2.41,1.08-3.19c0.73-0.79,1.71-1.19,2.94-1.19
		c1.11,0,1.98,0.36,2.61,1.07C930.08,246.78,930.41,247.73,930.41,248.96 M929.06,248.56c-0.01-0.74-0.22-1.33-0.62-1.77
		s-0.93-0.66-1.6-0.66c-0.75,0-1.35,0.21-1.81,0.64c-0.45,0.42-0.71,1.03-0.78,1.79L929.06,248.56L929.06,248.56z"/>
	<path class="st2" d="M939.33,248.45v4.95h-1.35v-4.91c0-0.78-0.15-1.35-0.45-1.74s-0.75-0.58-1.36-0.58c-0.73,0-1.3,0.23-1.72,0.7
		s-0.63,1.1-0.63,1.9v4.64h-1.35v-8.2h1.35v1.27c0.32-0.49,0.7-0.86,1.14-1.11c0.44-0.24,0.94-0.37,1.52-0.37
		c0.94,0,1.66,0.29,2.14,0.88C939.09,246.45,939.33,247.31,939.33,248.45L939.33,248.45z"/>
	<path class="st2" d="M948.45,243.68v4.11h1.86c0.69,0,1.22-0.18,1.6-0.53s0.56-0.86,0.56-1.52c0-0.65-0.19-1.16-0.56-1.52
		s-0.91-0.53-1.6-0.53H948.45 M946.97,242.46h3.34c1.22,0,2.15,0.28,2.78,0.83c0.63,0.55,0.94,1.36,0.94,2.43
		c0,1.08-0.31,1.9-0.94,2.45c-0.62,0.55-1.55,0.83-2.78,0.83h-1.86v4.39h-1.48V242.46L946.97,242.46z"/>
	<path class="st2" d="M964.28,243.3v1.56c-0.5-0.46-1.03-0.81-1.6-1.04s-1.16-0.34-1.79-0.34c-1.25,0-2.2,0.38-2.87,1.15
		c-0.67,0.76-1,1.87-1,3.31s0.33,2.54,1,3.31c0.67,0.76,1.62,1.14,2.87,1.14c0.64,0,1.23-0.12,1.79-0.34s1.1-0.58,1.6-1.04v1.55
		c-0.52,0.35-1.07,0.62-1.65,0.79s-1.19,0.26-1.83,0.26c-1.66,0-2.96-0.51-3.91-1.52c-0.95-1.02-1.43-2.4-1.43-4.15
		c0-1.76,0.48-3.14,1.43-4.15c0.95-1.02,2.26-1.52,3.91-1.52c0.65,0,1.27,0.09,1.85,0.26C963.22,242.7,963.77,242.96,964.28,243.3
		L964.28,243.3z"/>
	<path class="st2" d="M970.06,243.92l-2.01,5.44h4.02L970.06,243.92 M969.23,242.46h1.68l4.17,10.94h-1.54l-1-2.81h-4.93l-1,2.81
		h-1.56L969.23,242.46L969.23,242.46z"/>
	<path class="st2" d="M985.2,249.27c-1.09,0-1.85,0.12-2.26,0.37s-0.63,0.67-0.63,1.27c0,0.48,0.15,0.86,0.47,1.14
		c0.31,0.28,0.75,0.42,1.29,0.42c0.75,0,1.35-0.26,1.79-0.79c0.45-0.53,0.68-1.24,0.68-2.12v-0.3H985.2 M987.88,248.72v4.68h-1.35
		v-1.25c-0.31,0.5-0.69,0.86-1.15,1.11c-0.46,0.23-1.02,0.35-1.68,0.35c-0.84,0-1.51-0.23-2.01-0.7c-0.49-0.48-0.74-1.11-0.74-1.9
		c0-0.92,0.31-1.62,0.92-2.09c0.62-0.47,1.55-0.7,2.77-0.7h1.89v-0.13c0-0.62-0.21-1.1-0.62-1.44c-0.4-0.34-0.97-0.51-1.71-0.51
		c-0.47,0-0.92,0.06-1.37,0.17s-0.87,0.28-1.28,0.51v-1.25c0.49-0.19,0.97-0.33,1.44-0.42s0.92-0.15,1.35-0.15
		c1.19,0,2.07,0.31,2.66,0.92S987.88,247.46,987.88,248.72L987.88,248.72z"/>
	<path class="st2" d="M997.41,248.45v4.95h-1.35v-4.91c0-0.78-0.15-1.35-0.45-1.74s-0.75-0.58-1.36-0.58c-0.73,0-1.3,0.23-1.72,0.7
		s-0.63,1.1-0.63,1.9v4.64h-1.35v-8.2h1.35v1.27c0.32-0.49,0.7-0.86,1.14-1.11c0.44-0.24,0.94-0.37,1.52-0.37
		c0.94,0,1.66,0.29,2.14,0.88C997.17,246.45,997.41,247.31,997.41,248.45L997.41,248.45z"/>
	<path class="st2" d="M1005.59,246.44V242h1.35v11.4h-1.35v-1.23c-0.29,0.49-0.64,0.85-1.08,1.09c-0.43,0.23-0.94,0.35-1.55,0.35
		c-0.99,0-1.8-0.4-2.42-1.19s-0.93-1.83-0.93-3.12s0.31-2.33,0.93-3.12s1.44-1.19,2.42-1.19c0.61,0,1.12,0.12,1.55,0.36
		C1004.94,245.59,1005.3,245.95,1005.59,246.44 M1000.99,249.3c0,0.99,0.21,1.77,0.61,2.34c0.41,0.56,0.97,0.84,1.68,0.84
		s1.27-0.28,1.68-0.84s0.62-1.35,0.62-2.34s-0.21-1.77-0.62-2.33s-0.97-0.85-1.68-0.85s-1.27,0.29-1.68,0.85
		C1001.2,247.54,1000.99,248.31,1000.99,249.3L1000.99,249.3z"/>
	<path class="st2" d="M1021.17,248.45v4.95h-1.35v-4.91c0-0.78-0.15-1.35-0.45-1.74s-0.75-0.58-1.36-0.58c-0.73,0-1.3,0.23-1.72,0.7
		s-0.63,1.1-0.63,1.9v4.64h-1.35v-8.2h1.35v1.27c0.32-0.49,0.7-0.86,1.14-1.11c0.44-0.24,0.94-0.37,1.52-0.37
		c0.94,0,1.66,0.29,2.14,0.88C1020.93,246.45,1021.17,247.31,1021.17,248.45L1021.17,248.45z"/>
	<path class="st2" d="M1027.13,246.14c-0.73,0-1.3,0.29-1.71,0.85s-0.63,1.33-0.63,2.31s0.21,1.76,0.62,2.32s1,0.84,1.72,0.84
		c0.72,0,1.29-0.29,1.71-0.85s0.63-1.34,0.63-2.31s-0.21-1.74-0.63-2.31C1028.42,246.42,1027.85,246.14,1027.13,246.14 M1027.13,245
		c1.17,0,2.09,0.38,2.76,1.14s1,1.82,1,3.16c0,1.34-0.34,2.4-1,3.16c-0.67,0.76-1.59,1.14-2.76,1.14c-1.18,0-2.1-0.38-2.77-1.14
		c-0.67-0.77-1-1.82-1-3.16c0-1.35,0.33-2.4,1-3.16C1025.03,245.38,1025.95,245,1027.13,245L1027.13,245z"/>
	<path class="st2" d="M1037.82,246.45c-0.15-0.09-0.31-0.15-0.5-0.19c-0.18-0.04-0.37-0.07-0.59-0.07c-0.76,0-1.35,0.25-1.76,0.75
		c-0.4,0.49-0.61,1.2-0.61,2.13v4.32h-1.35v-8.2h1.35v1.27c0.29-0.5,0.65-0.86,1.11-1.11s1-0.37,1.66-0.37c0.1,0,0.2,0.01,0.31,0.02
		c0.11,0.01,0.23,0.03,0.37,0.05L1037.82,246.45L1037.82,246.45z"/>
	<path class="st2" d="M1045.46,246.77c0.34-0.61,0.74-1.05,1.21-1.34s1.02-0.43,1.66-0.43c0.86,0,1.52,0.3,1.98,0.9
		c0.46,0.59,0.7,1.44,0.7,2.55v4.95h-1.35v-4.91c0-0.78-0.14-1.37-0.42-1.75s-0.7-0.57-1.27-0.57c-0.7,0-1.25,0.23-1.66,0.7
		s-0.61,1.1-0.61,1.9v4.64h-1.35v-4.91c0-0.79-0.14-1.38-0.42-1.75c-0.28-0.38-0.71-0.57-1.29-0.57c-0.69,0-1.24,0.23-1.64,0.7
		c-0.4,0.46-0.61,1.09-0.61,1.89v4.64h-1.35v-8.2h1.35v1.27c0.31-0.51,0.67-0.87,1.11-1.11s0.94-0.36,1.53-0.36s1.1,0.15,1.52,0.45
		S1045.26,246.19,1045.46,246.77L1045.46,246.77z"/>
	<path class="st2" d="M1057.44,249.27c-1.09,0-1.85,0.12-2.26,0.37s-0.63,0.67-0.63,1.27c0,0.48,0.15,0.86,0.47,1.14
		c0.31,0.28,0.75,0.42,1.29,0.42c0.75,0,1.35-0.26,1.79-0.79c0.45-0.53,0.68-1.24,0.68-2.12v-0.3H1057.44 M1060.12,248.72v4.68
		h-1.35v-1.25c-0.31,0.5-0.69,0.86-1.15,1.11c-0.46,0.23-1.02,0.35-1.68,0.35c-0.84,0-1.51-0.23-2.01-0.7
		c-0.49-0.48-0.74-1.11-0.74-1.9c0-0.92,0.31-1.62,0.92-2.09c0.62-0.47,1.55-0.7,2.77-0.7h1.89v-0.13c0-0.62-0.21-1.1-0.62-1.44
		c-0.4-0.34-0.97-0.51-1.71-0.51c-0.47,0-0.92,0.06-1.37,0.17s-0.87,0.28-1.28,0.51v-1.25c0.49-0.19,0.97-0.33,1.44-0.42
		s0.92-0.15,1.35-0.15c1.19,0,2.07,0.31,2.66,0.92S1060.12,247.46,1060.12,248.72L1060.12,248.72z"/>
	<polygon class="st2" points="1062.83,242 1064.18,242 1064.18,253.4 1062.83,253.4 1062.83,242 	"/>
	<path class="st2" d="M1073.04,242.86v2.33h2.78v1.05h-2.78v4.45c0,0.67,0.09,1.1,0.27,1.29s0.56,0.29,1.12,0.29h1.38v1.13h-1.38
		c-1.04,0-1.76-0.19-2.15-0.58s-0.59-1.1-0.59-2.12v-4.45h-0.99v-1.05h0.99v-2.33H1073.04L1073.04,242.86z"/>
	<path class="st2" d="M1082.46,246.45c-0.15-0.09-0.31-0.15-0.5-0.19c-0.18-0.04-0.37-0.07-0.59-0.07c-0.76,0-1.35,0.25-1.76,0.75
		c-0.4,0.49-0.61,1.2-0.61,2.13v4.32h-1.35v-8.2h1.35v1.27c0.29-0.5,0.65-0.86,1.11-1.11s1-0.37,1.66-0.37c0.1,0,0.2,0.01,0.31,0.02
		c0.11,0.01,0.23,0.03,0.37,0.05L1082.46,246.45L1082.46,246.45z"/>
	<path class="st2" d="M1087.44,249.27c-1.09,0-1.85,0.12-2.26,0.37s-0.63,0.67-0.63,1.27c0,0.48,0.15,0.86,0.47,1.14
		c0.31,0.28,0.75,0.42,1.29,0.42c0.75,0,1.35-0.26,1.79-0.79c0.45-0.53,0.68-1.24,0.68-2.12v-0.3H1087.44 M1090.12,248.72v4.68
		h-1.35v-1.25c-0.31,0.5-0.69,0.86-1.15,1.11c-0.46,0.23-1.02,0.35-1.68,0.35c-0.84,0-1.51-0.23-2.01-0.7
		c-0.49-0.48-0.74-1.11-0.74-1.9c0-0.92,0.31-1.62,0.92-2.09c0.62-0.47,1.55-0.7,2.77-0.7h1.89v-0.13c0-0.62-0.21-1.1-0.62-1.44
		c-0.4-0.34-0.97-0.51-1.71-0.51c-0.47,0-0.92,0.06-1.37,0.17s-0.87,0.28-1.28,0.51v-1.25c0.49-0.19,0.97-0.33,1.44-0.42
		s0.92-0.15,1.35-0.15c1.19,0,2.07,0.31,2.66,0.92S1090.12,247.46,1090.12,248.72L1090.12,248.72z"/>
	<path class="st2" d="M1093.07,245.19h1.35v8.2h-1.35V245.19 M1093.07,242h1.35v1.71h-1.35V242L1093.07,242z"/>
	<path class="st2" d="M1103.97,248.45v4.95h-1.35v-4.91c0-0.78-0.15-1.35-0.45-1.74s-0.75-0.58-1.36-0.58c-0.73,0-1.3,0.23-1.72,0.7
		s-0.63,1.1-0.63,1.9v4.64h-1.35v-8.2h1.35v1.27c0.32-0.49,0.7-0.86,1.14-1.11c0.44-0.24,0.94-0.37,1.52-0.37
		c0.94,0,1.66,0.29,2.14,0.88C1103.73,246.45,1103.97,247.31,1103.97,248.45L1103.97,248.45z"/>
	<path class="st2" d="M1106.75,245.19h1.35v8.2h-1.35V245.19 M1106.75,242h1.35v1.71h-1.35V242L1106.75,242z"/>
	<path class="st2" d="M1117.65,248.45v4.95h-1.35v-4.91c0-0.78-0.15-1.35-0.45-1.74s-0.75-0.58-1.36-0.58c-0.73,0-1.3,0.23-1.72,0.7
		s-0.63,1.1-0.63,1.9v4.64h-1.35v-8.2h1.35v1.27c0.32-0.49,0.7-0.86,1.14-1.11c0.44-0.24,0.94-0.37,1.52-0.37
		c0.94,0,1.66,0.29,2.14,0.88C1117.41,246.45,1117.65,247.31,1117.65,248.45L1117.65,248.45z"/>
	<path class="st2" d="M1125.83,249.2c0-0.97-0.21-1.74-0.61-2.27s-0.97-0.81-1.69-0.81s-1.29,0.27-1.69,0.81s-0.6,1.3-0.6,2.27
		s0.2,1.73,0.6,2.26s0.97,0.81,1.69,0.81s1.29-0.27,1.69-0.81S1125.83,250.17,1125.83,249.2 M1127.17,252.38
		c0,1.4-0.31,2.43-0.93,3.11s-1.57,1.03-2.85,1.03c-0.48,0-0.92-0.04-1.34-0.11c-0.42-0.07-0.83-0.18-1.22-0.32v-1.31
		c0.4,0.21,0.78,0.37,1.17,0.48s0.78,0.15,1.18,0.15c0.89,0,1.55-0.23,1.98-0.7s0.66-1.16,0.66-2.09v-0.67
		c-0.28,0.48-0.64,0.84-1.07,1.08s-0.95,0.36-1.56,0.36c-1,0-1.82-0.38-2.43-1.15s-0.92-1.78-0.92-3.05s0.31-2.29,0.92-3.05
		s1.43-1.15,2.43-1.15c0.61,0,1.13,0.12,1.56,0.36s0.79,0.6,1.07,1.08v-1.25h1.35V252.38L1127.17,252.38z"/>
	<path class="st8" d="M1408.14,315.53h122.78c2,0,3-1,3-3V270c0-2-1-3-3-3h-122.78c-2,0-3,1-3,3v42.53
		C1405.14,314.53,1406.14,315.53,1408.14,315.53L1408.14,315.53z"/>
	<polyline class="st3" points="1411.14,279.14 1426.14,279.14 1441.14,279.14 	"/>
	<rect x="1425.64" y="278.64" class="st4" width="1" height="1"/>
	<polygon class="st2" points="1454.57,273.42 1456.05,273.42 1456.05,283.11 1461.37,283.11 1461.37,284.36 1454.57,284.36 
		1454.57,273.42 	"/>
	<path class="st2" d="M1469.52,273.78v1.44c-0.56-0.27-1.09-0.47-1.59-0.6s-0.98-0.2-1.44-0.2c-0.81,0-1.43,0.15-1.87,0.47
		c-0.43,0.31-0.65,0.75-0.65,1.33c0,0.48,0.15,0.85,0.43,1.1c0.29,0.24,0.84,0.44,1.66,0.59l0.89,0.18
		c1.11,0.21,1.92,0.58,2.44,1.11c0.53,0.53,0.79,1.24,0.79,2.12c0,1.06-0.36,1.86-1.07,2.41s-1.75,0.82-3.12,0.82
		c-0.52,0-1.07-0.06-1.66-0.18c-0.58-0.12-1.19-0.29-1.81-0.52v-1.52c0.6,0.34,1.19,0.59,1.77,0.76s1.14,0.26,1.7,0.26
		c0.84,0,1.49-0.17,1.96-0.5s0.69-0.81,0.69-1.42c0-0.53-0.17-0.96-0.5-1.26s-0.86-0.53-1.62-0.68l-0.9-0.18
		c-1.11-0.22-1.9-0.56-2.4-1.03s-0.74-1.12-0.74-1.96c0-0.97,0.34-1.73,1.02-2.29s1.63-0.83,2.82-0.83c0.51,0,1.03,0.04,1.57,0.14
		S1468.97,273.6,1469.52,273.78L1469.52,273.78z"/>
	<polygon class="st2" points="1471.05,273.42 1480.3,273.42 1480.3,274.67 1476.42,274.67 1476.42,284.36 1474.93,284.36 
		1474.93,274.67 1471.05,274.67 1471.05,273.42 	"/>
	<polygon class="st2" points="1481.69,273.42 1483.89,273.42 1486.68,280.86 1489.49,273.42 1491.69,273.42 1491.69,284.36 
		1490.25,284.36 1490.25,274.75 1487.43,282.25 1485.94,282.25 1483.12,274.75 1483.12,284.36 1481.69,284.36 1481.69,273.42 	"/>
	<polyline class="st5" points="1411.14,301.15 1426.14,301.15 1441.14,301.15 	"/>
	<path class="st6" d="M1426.14,301.15v6.5 M1426.14,301.15l5.2-3.25 M1426.14,301.15l-5.2-3.25"/>
	<path class="st2" d="M1456.05,296.72v4.11h1.86c0.69,0,1.22-0.18,1.6-0.53s0.56-0.86,0.56-1.52c0-0.65-0.19-1.16-0.56-1.52
		s-0.91-0.53-1.6-0.53H1456.05 M1454.57,295.5h3.34c1.22,0,2.15,0.28,2.78,0.83c0.63,0.55,0.94,1.36,0.94,2.43
		c0,1.08-0.31,1.9-0.94,2.45c-0.62,0.55-1.55,0.83-2.78,0.83h-1.86v4.39h-1.48V295.5L1454.57,295.5z"/>
	<path class="st2" d="M1471.88,296.34v1.56c-0.5-0.46-1.03-0.81-1.6-1.04s-1.16-0.34-1.79-0.34c-1.25,0-2.2,0.38-2.87,1.15
		c-0.67,0.76-1,1.87-1,3.31s0.33,2.54,1,3.31c0.67,0.76,1.62,1.14,2.87,1.14c0.64,0,1.23-0.12,1.79-0.34s1.1-0.58,1.6-1.04v1.55
		c-0.52,0.35-1.07,0.62-1.65,0.79s-1.19,0.26-1.83,0.26c-1.66,0-2.96-0.51-3.91-1.52c-0.95-1.02-1.43-2.4-1.43-4.15
		c0-1.76,0.48-3.14,1.43-4.15c0.95-1.02,2.26-1.52,3.91-1.52c0.65,0,1.27,0.09,1.85,0.26C1470.82,295.74,1471.37,296,1471.88,296.34
		L1471.88,296.34z"/>
	<path class="st2" d="M1477.9,296.96l-2.01,5.44h4.02L1477.9,296.96 M1477.07,295.5h1.68l4.17,10.94h-1.54l-1-2.81h-4.93l-1,2.81
		h-1.56L1477.07,295.5L1477.07,295.5z"/>
	<polygon class="st2" points="1483.35,301.73 1487.3,301.73 1487.3,302.93 1483.35,302.93 1483.35,301.73 	"/>
	<polygon class="st2" points="1489.37,295.5 1490.85,295.5 1490.85,305.19 1496.17,305.19 1496.17,306.44 1489.37,306.44 
		1489.37,295.5 	"/>
	<path class="st2" d="M1504.32,295.86v1.44c-0.56-0.27-1.09-0.47-1.59-0.6s-0.98-0.2-1.44-0.2c-0.81,0-1.43,0.15-1.87,0.47
		c-0.43,0.31-0.65,0.75-0.65,1.33c0,0.48,0.15,0.85,0.43,1.1c0.29,0.24,0.84,0.44,1.66,0.59l0.89,0.18
		c1.11,0.21,1.92,0.58,2.44,1.11c0.53,0.53,0.79,1.24,0.79,2.12c0,1.06-0.36,1.86-1.07,2.41s-1.75,0.82-3.12,0.82
		c-0.52,0-1.07-0.06-1.66-0.18c-0.58-0.12-1.19-0.29-1.81-0.52v-1.52c0.6,0.34,1.19,0.59,1.77,0.76s1.14,0.26,1.7,0.26
		c0.84,0,1.49-0.17,1.96-0.5s0.69-0.81,0.69-1.42c0-0.53-0.17-0.96-0.5-1.26s-0.86-0.53-1.62-0.68l-0.9-0.18
		c-1.11-0.22-1.9-0.56-2.4-1.03s-0.74-1.12-0.74-1.96c0-0.97,0.34-1.73,1.02-2.29s1.63-0.83,2.82-0.83c0.51,0,1.03,0.04,1.57,0.14
		S1503.77,295.68,1504.32,295.86L1504.32,295.86z"/>
	<polygon class="st2" points="1505.85,295.5 1515.1,295.5 1515.1,296.75 1511.22,296.75 1511.22,306.44 1509.73,306.44 
		1509.73,296.75 1505.85,296.75 1505.85,295.5 	"/>
	<polygon class="st2" points="1516.49,295.5 1518.69,295.5 1521.48,302.94 1524.29,295.5 1526.49,295.5 1526.49,306.44 
		1525.05,306.44 1525.05,296.83 1522.23,304.33 1520.74,304.33 1517.92,296.83 1517.92,306.44 1516.49,306.44 1516.49,295.5 	"/>
</g>
</svg>
