<?xml version="1.0" encoding="utf-8"?>
<!-- Generator: Adobe Illustrator 25.2.1, SVG Export Plug-In . SVG Version: 6.00 Build 0)  -->
<svg version="1.1" id="Layer_1" xmlns="http://www.w3.org/2000/svg" xmlns:xlink="http://www.w3.org/1999/xlink" x="0px" y="0px"
	 viewBox="0 0 1920 1080" style="enable-background:new 0 0 1920 1080;" xml:space="preserve">
<style type="text/css">
	.st0{fill:#FFFFFF;}
	.st1{stroke:#000000;stroke-width:0.8;stroke-linejoin:round;stroke-miterlimit:10;}
	.st2{fill-rule:evenodd;clip-rule:evenodd;}
	.st3{fill:none;stroke:#2E8B57;stroke-width:1.5;stroke-linecap:square;stroke-linejoin:round;stroke-miterlimit:10;}
	.st4{fill:#2E8B57;}
	.st5{fill:none;stroke:#A52A2A;stroke-width:1.5;stroke-linecap:square;stroke-linejoin:round;stroke-miterlimit:10;}
	.st6{fill:#A52A2A;stroke:#A52A2A;stroke-linejoin:round;stroke-miterlimit:10;}
	.st7{fill:none;stroke:#000000;stroke-width:0.8;stroke-linecap:square;stroke-miterlimit:10;}
	.st8{fill:#FFFFFF;stroke:#CCCCCC;stroke-miterlimit:10;}
</style>
<g>
	<rect x="428.8" y="259.5" class="st0" width="1116" height="543.6"/>
	<line class="st1" x1="479.53" y1="803.1" x2="479.53" y2="806.6"/>
	<path class="st2" d="M479.55,811c-0.51,0-0.89,0.25-1.15,0.75c-0.25,0.5-0.38,1.25-0.38,2.25c0,1,0.13,1.75,0.38,2.25
		c0.26,0.5,0.64,0.75,1.15,0.75c0.51,0,0.89-0.25,1.15-0.75c0.26-0.5,0.39-1.25,0.39-2.25c0-1-0.13-1.75-0.39-2.25
		C480.45,811.24,480.06,811,479.55,811 M479.55,810.21c0.82,0,1.44,0.32,1.87,0.97c0.43,0.64,0.65,1.58,0.65,2.81
		c0,1.23-0.21,2.16-0.65,2.81c-0.43,0.64-1.05,0.97-1.87,0.97c-0.82,0-1.44-0.32-1.88-0.97c-0.43-0.65-0.64-1.59-0.64-2.81
		c0-1.23,0.21-2.17,0.64-2.81C478.11,810.54,478.74,810.21,479.55,810.21L479.55,810.21z"/>
	<line class="st1" x1="606.99" y1="803.1" x2="606.99" y2="806.6"/>
	<path class="st2" d="M602.61,816.81h3.44v0.83h-4.63v-0.83c0.38-0.39,0.88-0.91,1.53-1.56c0.65-0.65,1.05-1.07,1.22-1.26
		c0.32-0.36,0.54-0.65,0.66-0.9c0.13-0.25,0.19-0.49,0.19-0.73c0-0.39-0.14-0.7-0.41-0.95c-0.27-0.24-0.63-0.37-1.06-0.37
		c-0.31,0-0.63,0.05-0.98,0.16c-0.34,0.11-0.71,0.27-1.1,0.49v-1c0.4-0.16,0.77-0.28,1.11-0.36c0.35-0.08,0.66-0.12,0.95-0.12
		c0.76,0,1.36,0.19,1.81,0.57c0.45,0.38,0.67,0.88,0.67,1.51c0,0.3-0.06,0.59-0.17,0.85c-0.11,0.27-0.31,0.58-0.61,0.95
		c-0.08,0.09-0.34,0.37-0.78,0.82C604.02,815.37,603.41,816,602.61,816.81L602.61,816.81z"/>
	<path class="st2" d="M608.01,810.35h3.87v0.83h-2.97v1.79c0.14-0.05,0.29-0.08,0.43-0.11c0.14-0.02,0.29-0.04,0.43-0.04
		c0.82,0,1.46,0.22,1.93,0.67c0.47,0.44,0.71,1.05,0.71,1.81c0,0.79-0.24,1.4-0.73,1.83c-0.49,0.43-1.18,0.65-2.07,0.65
		c-0.31,0-0.62-0.02-0.94-0.08c-0.32-0.05-0.64-0.13-0.98-0.23v-0.99c0.29,0.16,0.6,0.28,0.91,0.36c0.31,0.08,0.64,0.12,0.99,0.12
		c0.56,0,1.01-0.15,1.34-0.44c0.33-0.3,0.49-0.7,0.49-1.21c0-0.51-0.17-0.91-0.49-1.21c-0.33-0.3-0.78-0.44-1.34-0.44
		c-0.26,0-0.53,0.03-0.79,0.09c-0.26,0.06-0.53,0.15-0.8,0.27V810.35L608.01,810.35z"/>
	<line class="st1" x1="734.44" y1="803.1" x2="734.44" y2="806.6"/>
	<path class="st2" d="M729.21,810.35h3.87v0.83h-2.97v1.79c0.14-0.05,0.29-0.08,0.43-0.11c0.14-0.02,0.29-0.04,0.43-0.04
		c0.82,0,1.46,0.22,1.93,0.67c0.47,0.44,0.71,1.05,0.71,1.81c0,0.79-0.24,1.4-0.73,1.83c-0.49,0.43-1.18,0.65-2.07,0.65
		c-0.31,0-0.62-0.02-0.94-0.08c-0.32-0.05-0.64-0.13-0.98-0.23v-0.99c0.29,0.16,0.6,0.28,0.91,0.36c0.31,0.08,0.64,0.12,0.99,0.12
		c0.56,0,1.01-0.15,1.34-0.44c0.33-0.3,0.49-0.7,0.49-1.21c0-0.51-0.17-0.91-0.49-1.21c-0.33-0.3-0.78-0.44-1.34-0.44
		c-0.26,0-0.53,0.03-0.79,0.09c-0.26,0.06-0.53,0.15-0.8,0.27V810.35L729.21,810.35z"/>
	<path class="st2" d="M737.55,811c-0.51,0-0.89,0.25-1.15,0.75c-0.25,0.5-0.38,1.25-0.38,2.25c0,1,0.13,1.75,0.38,2.25
		c0.26,0.5,0.64,0.75,1.15,0.75c0.51,0,0.89-0.25,1.15-0.75c0.26-0.5,0.39-1.25,0.39-2.25c0-1-0.13-1.75-0.39-2.25
		C738.45,811.24,738.06,811,737.55,811 M737.55,810.21c0.82,0,1.44,0.32,1.87,0.97c0.43,0.64,0.65,1.58,0.65,2.81
		c0,1.23-0.21,2.16-0.65,2.81c-0.43,0.64-1.05,0.97-1.87,0.97c-0.82,0-1.44-0.32-1.88-0.97c-0.43-0.65-0.64-1.59-0.64-2.81
		c0-1.23,0.21-2.17,0.64-2.81C736.11,810.54,736.74,810.21,737.55,810.21L737.55,810.21z"/>
	<line class="st1" x1="861.9" y1="803.1" x2="861.9" y2="806.6"/>
	<polygon class="st2" points="856.39,810.35 861.08,810.35 861.08,810.77 858.43,817.64 857.4,817.64 859.89,811.18 856.39,811.18 
		856.39,810.35 	"/>
	<path class="st2" d="M862.89,810.35h3.87v0.83h-2.97v1.79c0.14-0.05,0.29-0.08,0.43-0.11c0.14-0.02,0.29-0.04,0.43-0.04
		c0.82,0,1.46,0.22,1.93,0.67c0.47,0.44,0.71,1.05,0.71,1.81c0,0.79-0.24,1.4-0.73,1.83c-0.49,0.43-1.18,0.65-2.07,0.65
		c-0.31,0-0.62-0.02-0.94-0.08c-0.32-0.05-0.64-0.13-0.98-0.23v-0.99c0.29,0.16,0.6,0.28,0.91,0.36c0.31,0.08,0.64,0.12,0.99,0.12
		c0.56,0,1.01-0.15,1.34-0.44c0.33-0.3,0.49-0.7,0.49-1.21c0-0.51-0.17-0.91-0.49-1.21c-0.33-0.3-0.78-0.44-1.34-0.44
		c-0.26,0-0.53,0.03-0.79,0.09c-0.26,0.06-0.53,0.15-0.8,0.27V810.35L862.89,810.35z"/>
	<line class="st1" x1="989.35" y1="803.1" x2="989.35" y2="806.6"/>
	<polygon class="st2" points="981.13,816.81 982.74,816.81 982.74,811.24 980.99,811.6 980.99,810.7 982.73,810.35 983.72,810.35 
		983.72,816.81 985.33,816.81 985.33,817.64 981.13,817.64 981.13,816.81 	"/>
	<path class="st2" d="M989.31,811c-0.51,0-0.89,0.25-1.15,0.75c-0.25,0.5-0.38,1.25-0.38,2.25c0,1,0.13,1.75,0.38,2.25
		c0.26,0.5,0.64,0.75,1.15,0.75c0.51,0,0.89-0.25,1.15-0.75c0.26-0.5,0.39-1.25,0.39-2.25c0-1-0.13-1.75-0.39-2.25
		C990.21,811.24,989.82,811,989.31,811 M989.31,810.21c0.82,0,1.44,0.32,1.87,0.97c0.43,0.64,0.65,1.58,0.65,2.81
		c0,1.23-0.21,2.16-0.65,2.81c-0.43,0.64-1.05,0.97-1.87,0.97s-1.44-0.32-1.88-0.97c-0.43-0.65-0.64-1.59-0.64-2.81
		c0-1.23,0.21-2.17,0.64-2.81C987.87,810.54,988.5,810.21,989.31,810.21L989.31,810.21z"/>
	<path class="st2" d="M995.79,811c-0.51,0-0.89,0.25-1.15,0.75c-0.25,0.5-0.38,1.25-0.38,2.25c0,1,0.13,1.75,0.38,2.25
		c0.26,0.5,0.64,0.75,1.15,0.75c0.51,0,0.89-0.25,1.15-0.75c0.26-0.5,0.39-1.25,0.39-2.25c0-1-0.13-1.75-0.39-2.25
		C996.69,811.24,996.3,811,995.79,811 M995.79,810.21c0.82,0,1.44,0.32,1.87,0.97c0.43,0.64,0.65,1.58,0.65,2.81
		c0,1.23-0.21,2.16-0.65,2.81c-0.43,0.64-1.05,0.97-1.87,0.97s-1.44-0.32-1.88-0.97c-0.43-0.65-0.64-1.59-0.64-2.81
		c0-1.23,0.21-2.17,0.64-2.81C994.35,810.54,994.98,810.21,995.79,810.21L995.79,810.21z"/>
	<line class="st1" x1="1116.81" y1="803.1" x2="1116.81" y2="806.6"/>
	<polygon class="st2" points="1108.57,816.81 1110.18,816.81 1110.18,811.24 1108.43,811.6 1108.43,810.7 1110.17,810.35 
		1111.16,810.35 1111.16,816.81 1112.77,816.81 1112.77,817.64 1108.57,817.64 1108.57,816.81 	"/>
	<path class="st2" d="M1115.49,816.81h3.44v0.83h-4.63v-0.83c0.38-0.39,0.88-0.91,1.53-1.56c0.65-0.65,1.05-1.07,1.22-1.26
		c0.32-0.36,0.54-0.65,0.66-0.9c0.13-0.25,0.19-0.49,0.19-0.73c0-0.39-0.14-0.7-0.41-0.95c-0.27-0.24-0.62-0.37-1.06-0.37
		c-0.31,0-0.63,0.05-0.98,0.16c-0.34,0.11-0.71,0.27-1.1,0.49v-1c0.4-0.16,0.77-0.28,1.11-0.36c0.35-0.08,0.66-0.12,0.95-0.12
		c0.76,0,1.36,0.19,1.81,0.57c0.45,0.38,0.67,0.88,0.67,1.51c0,0.3-0.06,0.59-0.17,0.85c-0.11,0.27-0.31,0.58-0.61,0.95
		c-0.08,0.09-0.34,0.37-0.78,0.82C1116.9,815.37,1116.29,816,1115.49,816.81L1115.49,816.81z"/>
	<path class="st2" d="M1121.13,810.35h3.87v0.83h-2.97v1.79c0.14-0.05,0.29-0.08,0.43-0.11c0.14-0.02,0.29-0.04,0.43-0.04
		c0.82,0,1.46,0.22,1.93,0.67c0.47,0.44,0.71,1.05,0.71,1.81c0,0.79-0.24,1.4-0.73,1.83c-0.49,0.43-1.18,0.65-2.07,0.65
		c-0.31,0-0.62-0.02-0.94-0.08c-0.32-0.05-0.64-0.13-0.98-0.23v-0.99c0.29,0.16,0.6,0.28,0.91,0.36c0.31,0.08,0.64,0.12,0.99,0.12
		c0.56,0,1.01-0.15,1.34-0.44c0.33-0.3,0.49-0.7,0.49-1.21c0-0.51-0.17-0.91-0.49-1.21c-0.33-0.3-0.78-0.44-1.34-0.44
		c-0.26,0-0.53,0.03-0.79,0.09c-0.26,0.06-0.53,0.15-0.8,0.27V810.35L1121.13,810.35z"/>
	<line class="st1" x1="1244.26" y1="803.1" x2="1244.26" y2="806.6"/>
	<polygon class="st2" points="1236.01,816.81 1237.62,816.81 1237.62,811.24 1235.87,811.6 1235.87,810.7 1237.61,810.35 
		1238.6,810.35 1238.6,816.81 1240.21,816.81 1240.21,817.64 1236.01,817.64 1236.01,816.81 	"/>
	<path class="st2" d="M1242.09,810.35h3.87v0.83H1243v1.79c0.14-0.05,0.29-0.08,0.43-0.11c0.14-0.02,0.29-0.04,0.43-0.04
		c0.82,0,1.46,0.22,1.93,0.67c0.47,0.44,0.71,1.05,0.71,1.81c0,0.79-0.24,1.4-0.73,1.83c-0.49,0.43-1.18,0.65-2.07,0.65
		c-0.31,0-0.62-0.02-0.94-0.08c-0.32-0.05-0.64-0.13-0.98-0.23v-0.99c0.29,0.16,0.6,0.28,0.91,0.36c0.31,0.08,0.64,0.12,0.99,0.12
		c0.56,0,1.01-0.15,1.34-0.44c0.33-0.3,0.49-0.7,0.49-1.21c0-0.51-0.17-0.91-0.49-1.21c-0.33-0.3-0.78-0.44-1.34-0.44
		c-0.26,0-0.53,0.03-0.79,0.09c-0.26,0.06-0.53,0.15-0.8,0.27V810.35L1242.09,810.35z"/>
	<path class="st2" d="M1250.67,811c-0.51,0-0.89,0.25-1.15,0.75c-0.25,0.5-0.38,1.25-0.38,2.25c0,1,0.13,1.75,0.38,2.25
		c0.26,0.5,0.64,0.75,1.15,0.75c0.51,0,0.89-0.25,1.15-0.75c0.26-0.5,0.39-1.25,0.39-2.25c0-1-0.13-1.75-0.39-2.25
		C1251.57,811.24,1251.18,811,1250.67,811 M1250.67,810.21c0.82,0,1.44,0.32,1.87,0.97c0.43,0.64,0.65,1.58,0.65,2.81
		c0,1.23-0.21,2.16-0.65,2.81c-0.43,0.64-1.05,0.97-1.87,0.97s-1.44-0.32-1.88-0.97c-0.43-0.65-0.64-1.59-0.64-2.81
		c0-1.23,0.21-2.17,0.64-2.81C1249.23,810.54,1249.86,810.21,1250.67,810.21L1250.67,810.21z"/>
	<line class="st1" x1="1371.72" y1="803.1" x2="1371.72" y2="806.6"/>
	<polygon class="st2" points="1363.45,816.81 1365.06,816.81 1365.06,811.24 1363.31,811.6 1363.31,810.7 1365.05,810.35 
		1366.04,810.35 1366.04,816.81 1367.65,816.81 1367.65,817.64 1363.45,817.64 1363.45,816.81 	"/>
	<polygon class="st2" points="1369.27,810.35 1373.96,810.35 1373.96,810.77 1371.31,817.64 1370.28,817.64 1372.77,811.18 
		1369.27,811.18 1369.27,810.35 	"/>
	<path class="st2" d="M1376.01,810.35h3.87v0.83h-2.97v1.79c0.14-0.05,0.29-0.08,0.43-0.11c0.14-0.02,0.29-0.04,0.43-0.04
		c0.82,0,1.46,0.22,1.93,0.67c0.47,0.44,0.71,1.05,0.71,1.81c0,0.79-0.24,1.4-0.73,1.83c-0.49,0.43-1.18,0.65-2.07,0.65
		c-0.31,0-0.62-0.02-0.94-0.08c-0.32-0.05-0.64-0.13-0.98-0.23v-0.99c0.29,0.16,0.6,0.28,0.91,0.36c0.31,0.08,0.64,0.12,0.99,0.12
		c0.56,0,1.01-0.15,1.34-0.44c0.33-0.3,0.49-0.7,0.49-1.21c0-0.51-0.17-0.91-0.49-1.21c-0.33-0.3-0.78-0.44-1.34-0.44
		c-0.26,0-0.53,0.03-0.79,0.09c-0.26,0.06-0.53,0.15-0.8,0.27V810.35L1376.01,810.35z"/>
	<line class="st1" x1="1499.17" y1="803.1" x2="1499.17" y2="806.6"/>
	<path class="st2" d="M1491.57,816.81h3.44v0.83h-4.63v-0.83c0.38-0.39,0.88-0.91,1.53-1.56c0.65-0.65,1.05-1.07,1.22-1.26
		c0.32-0.36,0.54-0.65,0.66-0.9c0.13-0.25,0.19-0.49,0.19-0.73c0-0.39-0.14-0.7-0.41-0.95c-0.27-0.24-0.62-0.37-1.06-0.37
		c-0.31,0-0.63,0.05-0.98,0.16c-0.34,0.11-0.71,0.27-1.1,0.49v-1c0.4-0.16,0.77-0.28,1.11-0.36c0.35-0.08,0.66-0.12,0.95-0.12
		c0.76,0,1.36,0.19,1.81,0.57c0.45,0.38,0.67,0.88,0.67,1.51c0,0.3-0.06,0.59-0.17,0.85c-0.11,0.27-0.31,0.58-0.61,0.95
		c-0.08,0.09-0.34,0.37-0.78,0.82C1492.98,815.37,1492.37,816,1491.57,816.81L1491.57,816.81z"/>
	<path class="st2" d="M1499.07,811c-0.51,0-0.89,0.25-1.15,0.75c-0.25,0.5-0.38,1.25-0.38,2.25c0,1,0.13,1.75,0.38,2.25
		c0.26,0.5,0.64,0.75,1.15,0.75c0.51,0,0.89-0.25,1.15-0.75c0.26-0.5,0.39-1.25,0.39-2.25c0-1-0.13-1.75-0.39-2.25
		C1499.97,811.24,1499.58,811,1499.07,811 M1499.07,810.21c0.82,0,1.44,0.32,1.87,0.97c0.43,0.64,0.65,1.58,0.65,2.81
		c0,1.23-0.21,2.16-0.65,2.81c-0.43,0.64-1.05,0.97-1.87,0.97s-1.44-0.32-1.88-0.97c-0.43-0.65-0.64-1.59-0.64-2.81
		c0-1.23,0.21-2.17,0.64-2.81C1497.63,810.54,1498.26,810.21,1499.07,810.21L1499.07,810.21z"/>
	<path class="st2" d="M1505.55,811c-0.51,0-0.89,0.25-1.15,0.75c-0.25,0.5-0.38,1.25-0.38,2.25c0,1,0.13,1.75,0.38,2.25
		c0.26,0.5,0.64,0.75,1.15,0.75c0.51,0,0.89-0.25,1.15-0.75c0.26-0.5,0.39-1.25,0.39-2.25c0-1-0.13-1.75-0.39-2.25
		C1506.45,811.24,1506.06,811,1505.55,811 M1505.55,810.21c0.82,0,1.44,0.32,1.87,0.97c0.43,0.64,0.65,1.58,0.65,2.81
		c0,1.23-0.21,2.16-0.65,2.81c-0.43,0.64-1.05,0.97-1.87,0.97s-1.44-0.32-1.88-0.97c-0.43-0.65-0.64-1.59-0.64-2.81
		c0-1.23,0.21-2.17,0.64-2.81C1504.11,810.54,1504.74,810.21,1505.55,810.21L1505.55,810.21z"/>
	<path class="st2" d="M968.4,830.72v0.66h-6.2c0.06,0.93,0.34,1.63,0.83,2.12c0.51,0.48,1.2,0.73,2.09,0.73
		c0.52,0,1.02-0.07,1.5-0.19c0.49-0.12,0.97-0.31,1.45-0.57v1.27c-0.48,0.21-0.98,0.36-1.49,0.47s-1.03,0.16-1.55,0.16
		c-1.31,0-2.34-0.38-3.11-1.14c-0.76-0.76-1.14-1.79-1.14-3.09c0-1.34,0.36-2.41,1.08-3.19c0.73-0.79,1.71-1.19,2.94-1.19
		c1.11,0,1.98,0.36,2.61,1.07C968.08,828.54,968.4,829.49,968.4,830.72 M967.06,830.32c-0.01-0.74-0.22-1.33-0.62-1.77
		s-0.93-0.66-1.6-0.66c-0.75,0-1.35,0.21-1.81,0.64c-0.45,0.42-0.71,1.03-0.78,1.79L967.06,830.32L967.06,830.32z"/>
	<path class="st2" d="M972.05,833.93v4.35h-1.35v-11.32h1.35v1.25c0.29-0.49,0.64-0.85,1.07-1.08c0.43-0.24,0.95-0.36,1.55-0.36
		c1,0,1.8,0.4,2.42,1.19s0.94,1.83,0.94,3.12s-0.31,2.33-0.94,3.12s-1.43,1.19-2.42,1.19c-0.6,0-1.12-0.12-1.55-0.35
		C972.69,834.78,972.34,834.42,972.05,833.93 M976.64,831.06c0-0.99-0.21-1.77-0.62-2.33c-0.4-0.56-0.97-0.85-1.68-0.85
		s-1.27,0.29-1.68,0.85c-0.4,0.56-0.61,1.34-0.61,2.33s0.21,1.77,0.61,2.34c0.41,0.56,0.97,0.84,1.68,0.84s1.27-0.28,1.68-0.84
		C976.43,832.83,976.64,832.05,976.64,831.06L976.64,831.06z"/>
	<path class="st2" d="M983.29,827.9c-0.73,0-1.3,0.29-1.71,0.85s-0.63,1.33-0.63,2.31s0.21,1.76,0.62,2.32s1,0.84,1.72,0.84
		c0.72,0,1.29-0.29,1.71-0.85s0.63-1.34,0.63-2.31s-0.21-1.74-0.63-2.31C984.57,828.18,984,827.9,983.29,827.9 M983.29,826.76
		c1.17,0,2.09,0.38,2.76,1.14s1,1.82,1,3.16c0,1.34-0.34,2.4-1,3.16c-0.67,0.76-1.59,1.14-2.76,1.14c-1.18,0-2.1-0.38-2.77-1.14
		c-0.67-0.77-1-1.82-1-3.16c0-1.35,0.33-2.4,1-3.16S982.11,826.76,983.29,826.76L983.29,826.76z"/>
	<path class="st2" d="M995.37,827.27v1.26c-0.38-0.21-0.76-0.37-1.15-0.47c-0.38-0.11-0.77-0.16-1.16-0.16
		c-0.87,0-1.55,0.28-2.04,0.83c-0.48,0.55-0.73,1.33-0.73,2.33s0.24,1.78,0.73,2.34c0.48,0.55,1.16,0.83,2.04,0.83
		c0.39,0,0.78-0.05,1.16-0.15c0.39-0.11,0.77-0.26,1.15-0.48v1.25c-0.37,0.18-0.77,0.31-1.17,0.4s-0.83,0.13-1.28,0.13
		c-1.24,0-2.22-0.39-2.94-1.16s-1.09-1.82-1.09-3.14c0-1.34,0.37-2.39,1.1-3.16c0.74-0.77,1.74-1.15,3.02-1.15
		c0.42,0,0.82,0.04,1.22,0.13C994.62,826.97,995,827.1,995.37,827.27L995.37,827.27z"/>
	<path class="st2" d="M1004.45,830.21v4.95h-1.35v-4.91c0-0.78-0.15-1.35-0.45-1.74s-0.75-0.58-1.36-0.58c-0.73,0-1.3,0.23-1.72,0.7
		s-0.63,1.1-0.63,1.9v4.64h-1.35v-11.4h1.35v4.47c0.32-0.49,0.7-0.86,1.14-1.11c0.44-0.24,0.94-0.37,1.52-0.37
		c0.94,0,1.66,0.29,2.14,0.88C1004.2,828.21,1004.45,829.07,1004.45,830.21L1004.45,830.21z"/>
	<path class="st2" d="M1012.46,827.2v1.27c-0.38-0.2-0.78-0.34-1.19-0.44s-0.83-0.15-1.27-0.15c-0.67,0-1.17,0.1-1.51,0.31
		c-0.33,0.21-0.5,0.51-0.5,0.92c0,0.31,0.12,0.56,0.36,0.74c0.24,0.18,0.72,0.34,1.44,0.51l0.46,0.1c0.96,0.21,1.63,0.5,2.04,0.87
		s0.61,0.89,0.61,1.56c0,0.76-0.3,1.36-0.91,1.81c-0.6,0.45-1.43,0.67-2.48,0.67c-0.44,0-0.9-0.04-1.38-0.13
		c-0.48-0.08-0.97-0.21-1.5-0.38v-1.39c0.5,0.26,0.99,0.45,1.47,0.59c0.48,0.12,0.96,0.19,1.44,0.19c0.64,0,1.12-0.11,1.46-0.32
		c0.34-0.22,0.51-0.53,0.51-0.92c0-0.37-0.12-0.64-0.37-0.84c-0.24-0.2-0.78-0.38-1.62-0.56l-0.47-0.11
		c-0.83-0.18-1.44-0.45-1.81-0.81c-0.37-0.37-0.56-0.86-0.56-1.5c0-0.77,0.27-1.37,0.82-1.79s1.33-0.63,2.33-0.63
		c0.5,0,0.97,0.04,1.41,0.11S1012.08,827.05,1012.46,827.2L1012.46,827.2z"/>
	<line class="st1" x1="428.8" y1="735.57" x2="425.3" y2="735.57"/>
	<path class="st2" d="M396.27,732.76c-0.51,0-0.89,0.25-1.15,0.75c-0.25,0.5-0.38,1.25-0.38,2.25s0.13,1.75,0.38,2.25
		c0.26,0.5,0.64,0.75,1.15,0.75c0.51,0,0.89-0.25,1.15-0.75c0.26-0.5,0.39-1.25,0.39-2.25s-0.13-1.75-0.39-2.25
		C397.17,733,396.78,732.76,396.27,732.76 M396.27,731.97c0.82,0,1.44,0.32,1.87,0.97c0.43,0.64,0.65,1.58,0.65,2.81
		c0,1.23-0.21,2.16-0.65,2.81c-0.43,0.64-1.05,0.97-1.87,0.97c-0.82,0-1.44-0.32-1.88-0.97c-0.43-0.65-0.64-1.59-0.64-2.81
		c0-1.23,0.21-2.17,0.64-2.81C394.83,732.3,395.46,731.97,396.27,731.97L396.27,731.97z"/>
	<polygon class="st2" points="400.64,738.16 401.67,738.16 401.67,739.4 400.64,739.4 400.64,738.16 	"/>
	<path class="st2" d="M405.87,732.76c-0.51,0-0.89,0.25-1.15,0.75c-0.25,0.5-0.38,1.25-0.38,2.25s0.13,1.75,0.38,2.25
		c0.26,0.5,0.64,0.75,1.15,0.75c0.51,0,0.89-0.25,1.15-0.75c0.26-0.5,0.39-1.25,0.39-2.25s-0.13-1.75-0.39-2.25
		C406.77,733,406.38,732.76,405.87,732.76 M405.87,731.97c0.82,0,1.44,0.32,1.87,0.97c0.43,0.64,0.65,1.58,0.65,2.81
		c0,1.23-0.21,2.16-0.65,2.81c-0.43,0.64-1.05,0.97-1.87,0.97c-0.82,0-1.44-0.32-1.88-0.97c-0.43-0.65-0.64-1.59-0.64-2.81
		c0-1.23,0.21-2.17,0.64-2.81C404.43,732.3,405.06,731.97,405.87,731.97L405.87,731.97z"/>
	<path class="st2" d="M412.35,732.76c-0.51,0-0.89,0.25-1.15,0.75c-0.25,0.5-0.38,1.25-0.38,2.25s0.13,1.75,0.38,2.25
		c0.26,0.5,0.64,0.75,1.15,0.75c0.51,0,0.89-0.25,1.15-0.75c0.26-0.5,0.39-1.25,0.39-2.25s-0.13-1.75-0.39-2.25
		C413.25,733,412.86,732.76,412.35,732.76 M412.35,731.97c0.82,0,1.44,0.32,1.87,0.97c0.43,0.64,0.65,1.58,0.65,2.81
		c0,1.23-0.21,2.16-0.65,2.81c-0.43,0.64-1.05,0.97-1.87,0.97c-0.82,0-1.44-0.32-1.88-0.97c-0.43-0.65-0.64-1.59-0.64-2.81
		c0-1.23,0.21-2.17,0.64-2.81C410.91,732.3,411.54,731.97,412.35,731.97L412.35,731.97z"/>
	<path class="st2" d="M416.49,732.11h3.87v0.83h-2.97v1.79c0.14-0.05,0.29-0.08,0.43-0.11c0.14-0.02,0.29-0.04,0.43-0.04
		c0.82,0,1.46,0.22,1.93,0.67c0.47,0.44,0.71,1.05,0.71,1.81c0,0.79-0.24,1.4-0.73,1.83c-0.49,0.43-1.18,0.65-2.07,0.65
		c-0.31,0-0.62-0.02-0.94-0.08c-0.32-0.05-0.64-0.13-0.98-0.23v-0.99c0.29,0.16,0.6,0.28,0.91,0.36c0.31,0.08,0.64,0.12,0.99,0.12
		c0.56,0,1.01-0.15,1.34-0.44c0.33-0.3,0.49-0.7,0.49-1.21s-0.17-0.91-0.49-1.21c-0.33-0.3-0.78-0.44-1.34-0.44
		c-0.26,0-0.53,0.03-0.79,0.09c-0.26,0.06-0.53,0.15-0.8,0.27V732.11L416.49,732.11z"/>
	<line class="st1" x1="428.8" y1="656.92" x2="425.3" y2="656.92"/>
	<path class="st2" d="M396.27,654.04c-0.51,0-0.89,0.25-1.15,0.75c-0.25,0.5-0.38,1.25-0.38,2.25s0.13,1.75,0.38,2.25
		c0.26,0.5,0.64,0.75,1.15,0.75c0.51,0,0.89-0.25,1.15-0.75c0.26-0.5,0.39-1.25,0.39-2.25s-0.13-1.75-0.39-2.25
		C397.17,654.28,396.78,654.04,396.27,654.04 M396.27,653.25c0.82,0,1.44,0.32,1.87,0.97c0.43,0.64,0.65,1.58,0.65,2.81
		c0,1.23-0.21,2.16-0.65,2.81c-0.43,0.64-1.05,0.97-1.87,0.97c-0.82,0-1.44-0.32-1.88-0.97c-0.43-0.65-0.64-1.59-0.64-2.81
		c0-1.23,0.21-2.17,0.64-2.81C394.83,653.58,395.46,653.25,396.27,653.25L396.27,653.25z"/>
	<polygon class="st2" points="400.64,659.44 401.67,659.44 401.67,660.68 400.64,660.68 400.64,659.44 	"/>
	<path class="st2" d="M405.87,654.04c-0.51,0-0.89,0.25-1.15,0.75c-0.25,0.5-0.38,1.25-0.38,2.25s0.13,1.75,0.38,2.25
		c0.26,0.5,0.64,0.75,1.15,0.75c0.51,0,0.89-0.25,1.15-0.75c0.26-0.5,0.39-1.25,0.39-2.25s-0.13-1.75-0.39-2.25
		C406.77,654.28,406.38,654.04,405.87,654.04 M405.87,653.25c0.82,0,1.44,0.32,1.87,0.97c0.43,0.64,0.65,1.58,0.65,2.81
		c0,1.23-0.21,2.16-0.65,2.81c-0.43,0.64-1.05,0.97-1.87,0.97c-0.82,0-1.44-0.32-1.88-0.97c-0.43-0.65-0.64-1.59-0.64-2.81
		c0-1.23,0.21-2.17,0.64-2.81C404.43,653.58,405.06,653.25,405.87,653.25L405.87,653.25z"/>
	<polygon class="st2" points="410.41,659.85 412.02,659.85 412.02,654.28 410.27,654.64 410.27,653.74 412.01,653.39 413,653.39 
		413,659.85 414.61,659.85 414.61,660.68 410.41,660.68 410.41,659.85 	"/>
	<path class="st2" d="M418.59,654.04c-0.51,0-0.89,0.25-1.15,0.75c-0.25,0.5-0.38,1.25-0.38,2.25s0.13,1.75,0.38,2.25
		c0.26,0.5,0.64,0.75,1.15,0.75c0.51,0,0.89-0.25,1.15-0.75c0.26-0.5,0.39-1.25,0.39-2.25s-0.13-1.75-0.39-2.25
		C419.49,654.28,419.1,654.04,418.59,654.04 M418.59,653.25c0.82,0,1.44,0.32,1.87,0.97c0.43,0.64,0.65,1.58,0.65,2.81
		c0,1.23-0.21,2.16-0.65,2.81c-0.43,0.64-1.05,0.97-1.87,0.97c-0.82,0-1.44-0.32-1.88-0.97c-0.43-0.65-0.64-1.59-0.64-2.81
		c0-1.23,0.21-2.17,0.64-2.81C417.15,653.58,417.78,653.25,418.59,653.25L418.59,653.25z"/>
	<line class="st1" x1="428.8" y1="578.27" x2="425.3" y2="578.27"/>
	<path class="st2" d="M396.27,575.32c-0.51,0-0.89,0.25-1.15,0.75c-0.25,0.5-0.38,1.25-0.38,2.25s0.13,1.75,0.38,2.25
		c0.26,0.5,0.64,0.75,1.15,0.75c0.51,0,0.89-0.25,1.15-0.75c0.26-0.5,0.39-1.25,0.39-2.25s-0.13-1.75-0.39-2.25
		C397.17,575.56,396.78,575.32,396.27,575.32 M396.27,574.53c0.82,0,1.44,0.32,1.87,0.97c0.43,0.64,0.65,1.58,0.65,2.81
		c0,1.23-0.21,2.16-0.65,2.81c-0.43,0.64-1.05,0.97-1.87,0.97c-0.82,0-1.44-0.32-1.88-0.97c-0.43-0.65-0.64-1.59-0.64-2.81
		c0-1.23,0.21-2.17,0.64-2.81C394.83,574.86,395.46,574.53,396.27,574.53L396.27,574.53z"/>
	<polygon class="st2" points="400.64,580.72 401.67,580.72 401.67,581.96 400.64,581.96 400.64,580.72 	"/>
	<path class="st2" d="M405.87,575.32c-0.51,0-0.89,0.25-1.15,0.75c-0.25,0.5-0.38,1.25-0.38,2.25s0.13,1.75,0.38,2.25
		c0.26,0.5,0.64,0.75,1.15,0.75c0.51,0,0.89-0.25,1.15-0.75c0.26-0.5,0.39-1.25,0.39-2.25s-0.13-1.75-0.39-2.25
		C406.77,575.56,406.38,575.32,405.87,575.32 M405.87,574.53c0.82,0,1.44,0.32,1.87,0.97c0.43,0.64,0.65,1.58,0.65,2.81
		c0,1.23-0.21,2.16-0.65,2.81c-0.43,0.64-1.05,0.97-1.87,0.97c-0.82,0-1.44-0.32-1.88-0.97c-0.43-0.65-0.64-1.59-0.64-2.81
		c0-1.23,0.21-2.17,0.64-2.81C404.43,574.86,405.06,574.53,405.87,574.53L405.87,574.53z"/>
	<polygon class="st2" points="410.41,581.13 412.02,581.13 412.02,575.56 410.27,575.92 410.27,575.02 412.01,574.67 413,574.67 
		413,581.13 414.61,581.13 414.61,581.96 410.41,581.96 410.41,581.13 	"/>
	<path class="st2" d="M416.49,574.67h3.87v0.83h-2.97v1.79c0.14-0.05,0.29-0.08,0.43-0.11c0.14-0.02,0.29-0.04,0.43-0.04
		c0.82,0,1.46,0.22,1.93,0.67c0.47,0.44,0.71,1.05,0.71,1.81c0,0.79-0.24,1.4-0.73,1.83c-0.49,0.43-1.18,0.65-2.07,0.65
		c-0.31,0-0.62-0.02-0.94-0.08c-0.32-0.05-0.64-0.13-0.98-0.23v-0.99c0.29,0.16,0.6,0.28,0.91,0.36c0.31,0.08,0.64,0.12,0.99,0.12
		c0.56,0,1.01-0.15,1.34-0.44c0.33-0.3,0.49-0.7,0.49-1.21s-0.17-0.91-0.49-1.21c-0.33-0.3-0.78-0.44-1.34-0.44
		c-0.26,0-0.53,0.03-0.79,0.09c-0.26,0.06-0.53,0.15-0.8,0.27V574.67L416.49,574.67z"/>
	<line class="st1" x1="428.8" y1="499.62" x2="425.3" y2="499.62"/>
	<path class="st2" d="M396.27,496.84c-0.51,0-0.89,0.25-1.15,0.75c-0.25,0.5-0.38,1.25-0.38,2.25s0.13,1.75,0.38,2.25
		c0.26,0.5,0.64,0.75,1.15,0.75c0.51,0,0.89-0.25,1.15-0.75c0.26-0.5,0.39-1.25,0.39-2.25s-0.13-1.75-0.39-2.25
		C397.17,497.08,396.78,496.84,396.27,496.84 M396.27,496.05c0.82,0,1.44,0.32,1.87,0.97c0.43,0.64,0.65,1.58,0.65,2.81
		c0,1.23-0.21,2.16-0.65,2.81c-0.43,0.64-1.05,0.97-1.87,0.97c-0.82,0-1.44-0.32-1.88-0.97c-0.43-0.65-0.64-1.59-0.64-2.81
		c0-1.23,0.21-2.17,0.64-2.81C394.83,496.38,395.46,496.05,396.27,496.05L396.27,496.05z"/>
	<polygon class="st2" points="400.64,502.24 401.67,502.24 401.67,503.48 400.64,503.48 400.64,502.24 	"/>
	<path class="st2" d="M405.87,496.84c-0.51,0-0.89,0.25-1.15,0.75c-0.25,0.5-0.38,1.25-0.38,2.25s0.13,1.75,0.38,2.25
		c0.26,0.5,0.64,0.75,1.15,0.75c0.51,0,0.89-0.25,1.15-0.75c0.26-0.5,0.39-1.25,0.39-2.25s-0.13-1.75-0.39-2.25
		C406.77,497.08,406.38,496.84,405.87,496.84 M405.87,496.05c0.82,0,1.44,0.32,1.87,0.97c0.43,0.64,0.65,1.58,0.65,2.81
		c0,1.23-0.21,2.16-0.65,2.81c-0.43,0.64-1.05,0.97-1.87,0.97c-0.82,0-1.44-0.32-1.88-0.97c-0.43-0.65-0.64-1.59-0.64-2.81
		c0-1.23,0.21-2.17,0.64-2.81C404.43,496.38,405.06,496.05,405.87,496.05L405.87,496.05z"/>
	<path class="st2" d="M411.09,502.65h3.44v0.83h-4.63v-0.83c0.38-0.39,0.88-0.91,1.53-1.56c0.65-0.65,1.05-1.07,1.22-1.26
		c0.32-0.36,0.54-0.65,0.66-0.9c0.13-0.25,0.19-0.49,0.19-0.73c0-0.39-0.14-0.7-0.41-0.95c-0.27-0.24-0.62-0.37-1.06-0.37
		c-0.31,0-0.63,0.05-0.98,0.16c-0.34,0.11-0.71,0.27-1.1,0.49v-1c0.4-0.16,0.77-0.28,1.11-0.36c0.35-0.08,0.66-0.12,0.95-0.12
		c0.76,0,1.36,0.19,1.81,0.57c0.45,0.38,0.67,0.88,0.67,1.51c0,0.3-0.06,0.59-0.17,0.85c-0.11,0.27-0.31,0.58-0.61,0.95
		c-0.08,0.09-0.34,0.37-0.78,0.82C412.5,501.21,411.89,501.84,411.09,502.65L411.09,502.65z"/>
	<path class="st2" d="M418.59,496.84c-0.51,0-0.89,0.25-1.15,0.75c-0.25,0.5-0.38,1.25-0.38,2.25s0.13,1.75,0.38,2.25
		c0.26,0.5,0.64,0.75,1.15,0.75c0.51,0,0.89-0.25,1.15-0.75c0.26-0.5,0.39-1.25,0.39-2.25s-0.13-1.75-0.39-2.25
		C419.49,497.08,419.1,496.84,418.59,496.84 M418.59,496.05c0.82,0,1.44,0.32,1.87,0.97c0.43,0.64,0.65,1.58,0.65,2.81
		c0,1.23-0.21,2.16-0.65,2.81c-0.43,0.64-1.05,0.97-1.87,0.97c-0.82,0-1.44-0.32-1.88-0.97c-0.43-0.65-0.64-1.59-0.64-2.81
		c0-1.23,0.21-2.17,0.64-2.81C417.15,496.38,417.78,496.05,418.59,496.05L418.59,496.05z"/>
	<line class="st1" x1="428.8" y1="420.97" x2="425.3" y2="420.97"/>
	<path class="st2" d="M396.27,418.12c-0.51,0-0.89,0.25-1.15,0.75c-0.25,0.5-0.38,1.25-0.38,2.25s0.13,1.75,0.38,2.25
		c0.26,0.5,0.64,0.75,1.15,0.75c0.51,0,0.89-0.25,1.15-0.75c0.26-0.5,0.39-1.25,0.39-2.25s-0.13-1.75-0.39-2.25
		C397.17,418.36,396.78,418.12,396.27,418.12 M396.27,417.33c0.82,0,1.44,0.32,1.87,0.97c0.43,0.64,0.65,1.58,0.65,2.81
		c0,1.23-0.21,2.16-0.65,2.81c-0.43,0.64-1.05,0.97-1.87,0.97c-0.82,0-1.44-0.32-1.88-0.97c-0.43-0.65-0.64-1.59-0.64-2.81
		c0-1.23,0.21-2.17,0.64-2.81C394.83,417.66,395.46,417.33,396.27,417.33L396.27,417.33z"/>
	<polygon class="st2" points="400.64,423.52 401.67,423.52 401.67,424.76 400.64,424.76 400.64,423.52 	"/>
	<path class="st2" d="M405.87,418.12c-0.51,0-0.89,0.25-1.15,0.75c-0.25,0.5-0.38,1.25-0.38,2.25s0.13,1.75,0.38,2.25
		c0.26,0.5,0.64,0.75,1.15,0.75c0.51,0,0.89-0.25,1.15-0.75c0.26-0.5,0.39-1.25,0.39-2.25s-0.13-1.75-0.39-2.25
		C406.77,418.36,406.38,418.12,405.87,418.12 M405.87,417.33c0.82,0,1.44,0.32,1.87,0.97c0.43,0.64,0.65,1.58,0.65,2.81
		c0,1.23-0.21,2.16-0.65,2.81c-0.43,0.64-1.05,0.97-1.87,0.97c-0.82,0-1.44-0.32-1.88-0.97c-0.43-0.65-0.64-1.59-0.64-2.81
		c0-1.23,0.21-2.17,0.64-2.81C404.43,417.66,405.06,417.33,405.87,417.33L405.87,417.33z"/>
	<path class="st2" d="M411.09,423.93h3.44v0.83h-4.63v-0.83c0.38-0.39,0.88-0.91,1.53-1.56c0.65-0.65,1.05-1.07,1.22-1.26
		c0.32-0.36,0.54-0.65,0.66-0.9c0.13-0.25,0.19-0.49,0.19-0.73c0-0.39-0.14-0.7-0.41-0.95c-0.27-0.24-0.62-0.37-1.06-0.37
		c-0.31,0-0.63,0.05-0.98,0.16c-0.34,0.11-0.71,0.27-1.1,0.49v-1c0.4-0.16,0.77-0.28,1.11-0.36c0.35-0.08,0.66-0.12,0.95-0.12
		c0.76,0,1.36,0.19,1.81,0.57c0.45,0.38,0.67,0.88,0.67,1.51c0,0.3-0.06,0.59-0.17,0.85c-0.11,0.27-0.31,0.58-0.61,0.95
		c-0.08,0.09-0.34,0.37-0.78,0.82C412.5,422.49,411.89,423.12,411.09,423.93L411.09,423.93z"/>
	<path class="st2" d="M416.49,417.47h3.87v0.83h-2.97v1.79c0.14-0.05,0.29-0.08,0.43-0.11c0.14-0.02,0.29-0.04,0.43-0.04
		c0.82,0,1.46,0.22,1.93,0.67c0.47,0.44,0.71,1.05,0.71,1.81c0,0.79-0.24,1.4-0.73,1.83c-0.49,0.43-1.18,0.65-2.07,0.65
		c-0.31,0-0.62-0.02-0.94-0.08c-0.32-0.05-0.64-0.13-0.98-0.23v-0.99c0.29,0.16,0.6,0.28,0.91,0.36c0.31,0.08,0.64,0.12,0.99,0.12
		c0.56,0,1.01-0.15,1.34-0.44c0.33-0.3,0.49-0.7,0.49-1.21s-0.17-0.91-0.49-1.21c-0.33-0.3-0.78-0.44-1.34-0.44
		c-0.26,0-0.53,0.03-0.79,0.09c-0.26,0.06-0.53,0.15-0.8,0.27V417.47L416.49,417.47z"/>
	<line class="st1" x1="428.8" y1="342.33" x2="425.3" y2="342.33"/>
	<path class="st2" d="M396.27,339.4c-0.51,0-0.89,0.25-1.15,0.75c-0.25,0.5-0.38,1.25-0.38,2.25s0.13,1.75,0.38,2.25
		c0.26,0.5,0.64,0.75,1.15,0.75c0.51,0,0.89-0.25,1.15-0.75c0.26-0.5,0.39-1.25,0.39-2.25s-0.13-1.75-0.39-2.25
		C397.17,339.64,396.78,339.4,396.27,339.4 M396.27,338.61c0.82,0,1.44,0.32,1.87,0.97c0.43,0.64,0.65,1.58,0.65,2.81
		c0,1.23-0.21,2.16-0.65,2.81c-0.43,0.64-1.05,0.97-1.87,0.97c-0.82,0-1.44-0.32-1.88-0.97c-0.43-0.65-0.64-1.59-0.64-2.81
		c0-1.23,0.21-2.17,0.64-2.81C394.83,338.94,395.46,338.61,396.27,338.61L396.27,338.61z"/>
	<polygon class="st2" points="400.64,344.8 401.67,344.8 401.67,346.04 400.64,346.04 400.64,344.8 	"/>
	<path class="st2" d="M405.87,339.4c-0.51,0-0.89,0.25-1.15,0.75c-0.25,0.5-0.38,1.25-0.38,2.25s0.13,1.75,0.38,2.25
		c0.26,0.5,0.64,0.75,1.15,0.75c0.51,0,0.89-0.25,1.15-0.75c0.26-0.5,0.39-1.25,0.39-2.25s-0.13-1.75-0.39-2.25
		C406.77,339.64,406.38,339.4,405.87,339.4 M405.87,338.61c0.82,0,1.44,0.32,1.87,0.97c0.43,0.64,0.65,1.58,0.65,2.81
		c0,1.23-0.21,2.16-0.65,2.81c-0.43,0.64-1.05,0.97-1.87,0.97c-0.82,0-1.44-0.32-1.88-0.97c-0.43-0.65-0.64-1.59-0.64-2.81
		c0-1.23,0.21-2.17,0.64-2.81C404.43,338.94,405.06,338.61,405.87,338.61L405.87,338.61z"/>
	<path class="st2" d="M413.23,342.11c0.47,0.1,0.84,0.31,1.1,0.63c0.27,0.32,0.4,0.71,0.4,1.18c0,0.72-0.25,1.27-0.74,1.67
		c-0.49,0.4-1.2,0.59-2.11,0.59c-0.31,0-0.62-0.03-0.95-0.09c-0.32-0.06-0.65-0.15-1-0.27v-0.95c0.27,0.16,0.57,0.28,0.9,0.36
		c0.33,0.08,0.66,0.12,1.02,0.12c0.62,0,1.09-0.12,1.41-0.37c0.33-0.24,0.49-0.6,0.49-1.06c0-0.43-0.15-0.77-0.45-1.01
		c-0.3-0.24-0.72-0.37-1.25-0.37h-0.85v-0.81h0.89c0.48,0,0.85-0.1,1.11-0.29c0.26-0.2,0.39-0.47,0.39-0.84
		c0-0.38-0.13-0.66-0.4-0.86c-0.26-0.2-0.64-0.3-1.14-0.3c-0.27,0-0.56,0.03-0.87,0.09s-0.65,0.15-1.02,0.27v-0.88
		c0.38-0.1,0.72-0.18,1.05-0.23c0.33-0.05,0.64-0.08,0.93-0.08c0.75,0,1.34,0.17,1.78,0.51c0.43,0.34,0.65,0.8,0.65,1.38
		c0,0.41-0.12,0.75-0.35,1.03C413.99,341.81,413.66,342,413.23,342.11L413.23,342.11z"/>
	<path class="st2" d="M418.59,339.4c-0.51,0-0.89,0.25-1.15,0.75c-0.25,0.5-0.38,1.25-0.38,2.25s0.13,1.75,0.38,2.25
		c0.26,0.5,0.64,0.75,1.15,0.75c0.51,0,0.89-0.25,1.15-0.75c0.26-0.5,0.39-1.25,0.39-2.25s-0.13-1.75-0.39-2.25
		C419.49,339.64,419.1,339.4,418.59,339.4 M418.59,338.61c0.82,0,1.44,0.32,1.87,0.97c0.43,0.64,0.65,1.58,0.65,2.81
		c0,1.23-0.21,2.16-0.65,2.81c-0.43,0.64-1.05,0.97-1.87,0.97c-0.82,0-1.44-0.32-1.88-0.97c-0.43-0.65-0.64-1.59-0.64-2.81
		c0-1.23,0.21-2.17,0.64-2.81C417.15,338.94,417.78,338.61,418.59,338.61L418.59,338.61z"/>
	<line class="st1" x1="428.8" y1="263.68" x2="425.3" y2="263.68"/>
	<path class="st2" d="M396.27,260.92c-0.51,0-0.89,0.25-1.15,0.75c-0.25,0.5-0.38,1.25-0.38,2.25s0.13,1.75,0.38,2.25
		c0.26,0.5,0.64,0.75,1.15,0.75c0.51,0,0.89-0.25,1.15-0.75c0.26-0.5,0.39-1.25,0.39-2.25s-0.13-1.75-0.39-2.25
		C397.17,261.16,396.78,260.92,396.27,260.92 M396.27,260.13c0.82,0,1.44,0.32,1.87,0.97c0.43,0.64,0.65,1.58,0.65,2.81
		c0,1.23-0.21,2.16-0.65,2.81c-0.43,0.64-1.05,0.97-1.87,0.97c-0.82,0-1.44-0.32-1.88-0.97c-0.43-0.65-0.64-1.59-0.64-2.81
		c0-1.23,0.21-2.17,0.64-2.81C394.83,260.46,395.46,260.13,396.27,260.13L396.27,260.13z"/>
	<polygon class="st2" points="400.64,266.32 401.67,266.32 401.67,267.56 400.64,267.56 400.64,266.32 	"/>
	<path class="st2" d="M405.87,260.92c-0.51,0-0.89,0.25-1.15,0.75c-0.25,0.5-0.38,1.25-0.38,2.25s0.13,1.75,0.38,2.25
		c0.26,0.5,0.64,0.75,1.15,0.75c0.51,0,0.89-0.25,1.15-0.75c0.26-0.5,0.39-1.25,0.39-2.25s-0.13-1.75-0.39-2.25
		C406.77,261.16,406.38,260.92,405.87,260.92 M405.87,260.13c0.82,0,1.44,0.32,1.87,0.97c0.43,0.64,0.65,1.58,0.65,2.81
		c0,1.23-0.21,2.16-0.65,2.81c-0.43,0.64-1.05,0.97-1.87,0.97c-0.82,0-1.44-0.32-1.88-0.97c-0.43-0.65-0.64-1.59-0.64-2.81
		c0-1.23,0.21-2.17,0.64-2.81C404.43,260.46,405.06,260.13,405.87,260.13L405.87,260.13z"/>
	<path class="st2" d="M413.23,263.63c0.47,0.1,0.84,0.31,1.1,0.63c0.27,0.32,0.4,0.71,0.4,1.18c0,0.72-0.25,1.27-0.74,1.67
		c-0.49,0.4-1.2,0.59-2.11,0.59c-0.31,0-0.62-0.03-0.95-0.09c-0.32-0.06-0.65-0.15-1-0.27v-0.95c0.27,0.16,0.57,0.28,0.9,0.36
		c0.33,0.08,0.66,0.12,1.02,0.12c0.62,0,1.09-0.12,1.41-0.37c0.33-0.24,0.49-0.6,0.49-1.06c0-0.43-0.15-0.77-0.45-1.01
		c-0.3-0.24-0.72-0.37-1.25-0.37h-0.85v-0.81h0.89c0.48,0,0.85-0.1,1.11-0.29c0.26-0.2,0.39-0.47,0.39-0.84
		c0-0.38-0.13-0.66-0.4-0.86c-0.26-0.2-0.64-0.3-1.14-0.3c-0.27,0-0.56,0.03-0.87,0.09s-0.65,0.15-1.02,0.27v-0.88
		c0.38-0.1,0.72-0.18,1.05-0.23c0.33-0.05,0.64-0.08,0.93-0.08c0.75,0,1.34,0.17,1.78,0.51c0.43,0.34,0.65,0.8,0.65,1.38
		c0,0.41-0.12,0.75-0.35,1.03C413.99,263.33,413.66,263.52,413.23,263.63L413.23,263.63z"/>
	<path class="st2" d="M416.49,260.27h3.87v0.83h-2.97v1.79c0.14-0.05,0.29-0.08,0.43-0.11c0.14-0.02,0.29-0.04,0.43-0.04
		c0.82,0,1.46,0.22,1.93,0.67c0.47,0.44,0.71,1.05,0.71,1.81c0,0.79-0.24,1.4-0.73,1.83c-0.49,0.43-1.18,0.65-2.07,0.65
		c-0.31,0-0.62-0.02-0.94-0.08c-0.32-0.05-0.64-0.13-0.98-0.23v-0.99c0.29,0.16,0.6,0.28,0.91,0.36c0.31,0.08,0.64,0.12,0.99,0.12
		c0.56,0,1.01-0.15,1.34-0.44c0.33-0.3,0.49-0.7,0.49-1.21s-0.17-0.91-0.49-1.21c-0.33-0.3-0.78-0.44-1.34-0.44
		c-0.26,0-0.53,0.03-0.79,0.09c-0.26,0.06-0.53,0.15-0.8,0.27V260.27L416.49,260.27z"/>
	<polygon class="st2" points="375.2,545.68 375.2,543.48 382.64,540.69 375.2,537.88 375.2,535.68 386.13,535.68 386.13,537.12 
		376.53,537.12 384.03,539.94 384.03,541.43 376.53,544.25 386.13,544.25 386.13,545.68 375.2,545.68 	"/>
	<path class="st2" d="M375.56,526.41H377c-0.27,0.56-0.47,1.09-0.6,1.59s-0.2,0.98-0.2,1.44c0,0.81,0.15,1.43,0.47,1.87
		c0.31,0.43,0.75,0.65,1.33,0.65c0.48,0,0.85-0.15,1.1-0.43c0.24-0.29,0.44-0.84,0.59-1.66l0.18-0.89c0.21-1.11,0.58-1.92,1.11-2.44
		c0.53-0.53,1.24-0.79,2.12-0.79c1.06,0,1.86,0.36,2.41,1.07s0.82,1.75,0.82,3.12c0,0.52-0.06,1.07-0.18,1.66
		c-0.12,0.58-0.29,1.19-0.52,1.81h-1.52c0.34-0.6,0.59-1.19,0.76-1.77s0.26-1.14,0.26-1.7c0-0.84-0.17-1.49-0.5-1.96
		s-0.81-0.69-1.42-0.69c-0.53,0-0.96,0.17-1.26,0.5s-0.53,0.86-0.68,1.62l-0.18,0.9c-0.22,1.11-0.56,1.9-1.03,2.4
		s-1.12,0.74-1.96,0.74c-0.97,0-1.73-0.34-2.29-1.02s-0.83-1.63-0.83-2.82c0-0.51,0.04-1.03,0.14-1.57S375.37,526.97,375.56,526.41
		L375.56,526.41z"/>
	<polygon class="st2" points="375.2,523.36 375.2,516.45 376.44,516.45 376.44,521.88 379.68,521.88 379.68,516.68 380.93,516.68 
		380.93,521.88 384.89,521.88 384.89,516.32 386.13,516.32 386.13,523.36 375.2,523.36 	"/>
	<polyline class="st3" points="479.53,284.21 484.63,441.9 489.73,441.29 494.83,585.14 499.92,650.35 505.02,666.35 510.12,670.39 
		515.22,673.52 520.32,682.2 525.41,693.97 530.51,703.71 535.61,715.94 540.71,723.33 545.81,734.06 550.91,740.31 556,743.33 
		561.1,746.64 566.2,748.61 571.3,751.8 576.4,749.69 581.5,750.5 586.59,749.89 591.69,749.51 596.79,749.75 601.89,749.52 
		606.99,749.79 612.08,749.18 617.18,749.36 622.28,747.18 627.38,747.33 632.48,746.64 637.58,749.32 642.67,747.39 647.77,748.55 
		652.87,750.31 657.97,753.2 663.07,752.32 668.16,752.17 673.26,754.23 678.36,756.45 683.46,757.12 688.56,754.73 693.66,753.82 
		698.75,754.76 703.85,753.01 708.95,753.33 714.05,754.06 719.15,749.9 724.25,749.22 729.34,751.76 734.44,750.93 739.54,750.88 
		744.64,751.75 749.74,751.19 754.83,752.25 759.93,752.41 765.03,753.44 770.13,756.59 775.23,757.09 780.33,758.09 785.42,757.66 
		790.52,757.69 795.62,759.71 800.72,760.99 805.82,761.72 810.91,763.7 816.01,763.03 821.11,761.07 826.21,762.54 831.31,763.24 
		836.41,763.68 841.5,765.07 846.6,764.91 851.7,767.11 856.8,768.24 861.9,768.8 867,768.1 872.09,767.02 877.19,769.75 
		882.29,768.4 892.49,770.15 897.58,769.68 902.68,770.7 907.78,770.34 912.88,770.6 917.98,770.15 923.08,770.94 928.17,771.55 
		933.27,770.61 938.37,770.44 943.47,771.48 948.57,771.21 953.67,771.52 958.76,771 963.86,772.44 968.96,772.13 974.06,770.59 
		979.16,771.53 984.25,770.5 989.35,768.8 994.45,770.78 999.55,768.68 1004.65,769.33 1009.75,771.92 1014.84,772.13 
		1019.94,769.93 1025.04,770.26 1040.33,773.59 1045.43,771.48 1050.53,769.57 1055.63,771.8 1060.73,771.82 1065.83,771.99 
		1070.92,771.89 1076.02,772.06 1081.12,771.44 1086.22,773.21 1091.32,771.77 1096.42,773.38 1101.51,771.34 1111.71,775.66 
		1116.81,773.96 1121.91,775.11 1127,774.42 1132.1,775.48 1137.2,773.28 1142.3,774.76 1147.4,772.45 1152.5,770 1157.59,774.96 
		1162.69,772.86 1167.79,774.44 1172.89,776.19 1177.99,775.85 1183.08,775.28 1188.18,775.86 1193.28,775.53 1198.38,773.83 
		1203.48,775.84 1208.58,776.19 1213.67,776.73 1218.77,776.69 1223.87,775.59 1228.97,776.7 1234.07,775.57 1239.17,776.84 
		1244.26,775.98 1249.36,775.66 1254.46,776 1259.56,775.96 1264.66,776.35 1269.75,777.48 1274.85,775.49 1279.95,776.79 
		1285.05,775.81 1290.15,776.92 1295.25,777.13 1300.34,777.64 1305.44,777.66 1315.64,777.39 1320.74,777.71 1325.83,776.75 
		1330.93,777.62 1336.03,777.27 1341.13,777.24 1346.23,776.93 1351.33,776.91 1356.42,777.86 1361.52,778.15 1366.62,777.92 
		1376.82,777.13 1381.92,778.06 1387.01,777.61 1392.11,777.6 1397.21,777.78 1402.31,776.88 1407.41,777.72 1412.5,777.25 
		1417.6,777.67 1422.7,777.41 1427.8,775.91 1432.9,778.39 1438,777.64 1448.19,777.38 1453.29,776.15 1458.39,775.16 
		1463.49,770.96 1468.59,771.55 1473.68,773.39 1478.78,769.02 1478.78,769.02 	"/>
	<rect x="479.03" y="283.71" class="st4" width="1" height="1"/>
	<rect x="484.13" y="441.4" class="st4" width="1" height="1"/>
	<rect x="489.23" y="440.79" class="st4" width="1" height="1"/>
	<rect x="494.33" y="584.64" class="st4" width="1" height="1"/>
	<rect x="499.42" y="649.85" class="st4" width="1" height="1"/>
	<rect x="504.52" y="665.85" class="st4" width="1" height="1"/>
	<rect x="509.62" y="669.89" class="st4" width="1" height="1"/>
	<rect x="514.72" y="673.02" class="st4" width="1" height="1"/>
	<rect x="519.82" y="681.7" class="st4" width="1" height="1"/>
	<rect x="524.91" y="693.47" class="st4" width="1" height="1"/>
	<rect x="530.01" y="703.21" class="st4" width="1" height="1"/>
	<rect x="535.11" y="715.44" class="st4" width="1" height="1"/>
	<rect x="540.21" y="722.83" class="st4" width="1" height="1"/>
	<rect x="545.31" y="733.56" class="st4" width="1" height="1"/>
	<rect x="550.41" y="739.81" class="st4" width="1" height="1"/>
	<rect x="555.5" y="742.83" class="st4" width="1" height="1"/>
	<rect x="560.6" y="746.14" class="st4" width="1" height="1"/>
	<rect x="565.7" y="748.11" class="st4" width="1" height="1"/>
	<rect x="570.8" y="751.3" class="st4" width="1" height="1"/>
	<rect x="575.9" y="749.19" class="st4" width="1" height="1"/>
	<rect x="580.99" y="750" class="st4" width="1" height="1"/>
	<rect x="586.09" y="749.39" class="st4" width="1" height="1"/>
	<rect x="591.19" y="749.01" class="st4" width="1" height="1"/>
	<rect x="596.29" y="749.25" class="st4" width="1" height="1"/>
	<rect x="601.39" y="749.02" class="st4" width="1" height="1"/>
	<rect x="606.49" y="749.29" class="st4" width="1" height="1"/>
	<rect x="611.58" y="748.68" class="st4" width="1" height="1"/>
	<rect x="616.68" y="748.86" class="st4" width="1" height="1"/>
	<rect x="621.78" y="746.68" class="st4" width="1" height="1"/>
	<rect x="626.88" y="746.83" class="st4" width="1" height="1"/>
	<rect x="631.98" y="746.14" class="st4" width="1" height="1"/>
	<rect x="637.08" y="748.82" class="st4" width="1" height="1"/>
	<rect x="642.17" y="746.89" class="st4" width="1" height="1"/>
	<rect x="647.27" y="748.05" class="st4" width="1" height="1"/>
	<rect x="652.37" y="749.81" class="st4" width="1" height="1"/>
	<rect x="657.47" y="752.7" class="st4" width="1" height="1"/>
	<rect x="662.57" y="751.82" class="st4" width="1" height="1"/>
	<rect x="667.66" y="751.67" class="st4" width="1" height="1"/>
	<rect x="672.76" y="753.73" class="st4" width="1" height="1"/>
	<rect x="677.86" y="755.95" class="st4" width="1" height="1"/>
	<rect x="682.96" y="756.62" class="st4" width="1" height="1"/>
	<rect x="688.06" y="754.23" class="st4" width="1" height="1"/>
	<rect x="693.16" y="753.32" class="st4" width="1" height="1"/>
	<rect x="698.25" y="754.26" class="st4" width="1" height="1"/>
	<rect x="703.35" y="752.51" class="st4" width="1" height="1"/>
	<rect x="708.45" y="752.83" class="st4" width="1" height="1"/>
	<rect x="713.55" y="753.56" class="st4" width="1" height="1"/>
	<rect x="718.65" y="749.4" class="st4" width="1" height="1"/>
	<rect x="723.74" y="748.72" class="st4" width="1" height="1"/>
	<rect x="728.84" y="751.26" class="st4" width="1" height="1"/>
	<rect x="733.94" y="750.43" class="st4" width="1" height="1"/>
	<rect x="739.04" y="750.38" class="st4" width="1" height="1"/>
	<rect x="744.14" y="751.25" class="st4" width="1" height="1"/>
	<rect x="749.24" y="750.69" class="st4" width="1" height="1"/>
	<rect x="754.33" y="751.75" class="st4" width="1" height="1"/>
	<rect x="759.43" y="751.91" class="st4" width="1" height="1"/>
	<rect x="764.53" y="752.94" class="st4" width="1" height="1"/>
	<rect x="769.63" y="756.09" class="st4" width="1" height="1"/>
	<rect x="774.73" y="756.59" class="st4" width="1" height="1"/>
	<rect x="779.83" y="757.59" class="st4" width="1" height="1"/>
	<rect x="784.92" y="757.16" class="st4" width="1" height="1"/>
	<rect x="790.02" y="757.19" class="st4" width="1" height="1"/>
	<rect x="795.12" y="759.21" class="st4" width="1" height="1"/>
	<rect x="800.22" y="760.49" class="st4" width="1" height="1"/>
	<rect x="805.32" y="761.22" class="st4" width="1" height="1"/>
	<rect x="810.41" y="763.2" class="st4" width="1" height="1"/>
	<rect x="815.51" y="762.53" class="st4" width="1" height="1"/>
	<rect x="820.61" y="760.57" class="st4" width="1" height="1"/>
	<rect x="825.71" y="762.04" class="st4" width="1" height="1"/>
	<rect x="830.81" y="762.74" class="st4" width="1" height="1"/>
	<rect x="835.91" y="763.18" class="st4" width="1" height="1"/>
	<rect x="841" y="764.57" class="st4" width="1" height="1"/>
	<rect x="846.1" y="764.41" class="st4" width="1" height="1"/>
	<rect x="851.2" y="766.61" class="st4" width="1" height="1"/>
	<rect x="856.3" y="767.74" class="st4" width="1" height="1"/>
	<rect x="861.4" y="768.3" class="st4" width="1" height="1"/>
	<rect x="866.49" y="767.6" class="st4" width="1" height="1"/>
	<rect x="871.59" y="766.52" class="st4" width="1" height="1"/>
	<rect x="876.69" y="769.25" class="st4" width="1" height="1"/>
	<rect x="881.79" y="767.9" class="st4" width="1" height="1"/>
	<rect x="886.89" y="768.8" class="st4" width="1" height="1"/>
	<rect x="891.99" y="769.65" class="st4" width="1" height="1"/>
	<rect x="897.08" y="769.18" class="st4" width="1" height="1"/>
	<rect x="902.18" y="770.2" class="st4" width="1" height="1"/>
	<rect x="907.28" y="769.84" class="st4" width="1" height="1"/>
	<rect x="912.38" y="770.1" class="st4" width="1" height="1"/>
	<rect x="917.48" y="769.65" class="st4" width="1" height="1"/>
	<rect x="922.58" y="770.44" class="st4" width="1" height="1"/>
	<rect x="927.67" y="771.05" class="st4" width="1" height="1"/>
	<rect x="932.77" y="770.11" class="st4" width="1" height="1"/>
	<rect x="937.87" y="769.94" class="st4" width="1" height="1"/>
	<rect x="942.97" y="770.98" class="st4" width="1" height="1"/>
	<rect x="948.07" y="770.71" class="st4" width="1" height="1"/>
	<rect x="953.16" y="771.02" class="st4" width="1" height="1"/>
	<rect x="958.26" y="770.5" class="st4" width="1" height="1"/>
	<rect x="963.36" y="771.94" class="st4" width="1" height="1"/>
	<rect x="968.46" y="771.63" class="st4" width="1" height="1"/>
	<rect x="973.56" y="770.09" class="st4" width="1" height="1"/>
	<rect x="978.66" y="771.03" class="st4" width="1" height="1"/>
	<rect x="983.75" y="770" class="st4" width="1" height="1"/>
	<rect x="988.85" y="768.3" class="st4" width="1" height="1"/>
	<rect x="993.95" y="770.28" class="st4" width="1" height="1"/>
	<rect x="999.05" y="768.18" class="st4" width="1" height="1"/>
	<rect x="1004.15" y="768.83" class="st4" width="1" height="1"/>
	<rect x="1009.25" y="771.42" class="st4" width="1" height="1"/>
	<rect x="1014.34" y="771.63" class="st4" width="1" height="1"/>
	<rect x="1019.44" y="769.43" class="st4" width="1" height="1"/>
	<rect x="1024.54" y="769.76" class="st4" width="1" height="1"/>
	<rect x="1029.64" y="770.86" class="st4" width="1" height="1"/>
	<rect x="1034.74" y="772.04" class="st4" width="1" height="1"/>
	<rect x="1039.83" y="773.09" class="st4" width="1" height="1"/>
	<rect x="1044.93" y="770.98" class="st4" width="1" height="1"/>
	<rect x="1050.03" y="769.07" class="st4" width="1" height="1"/>
	<rect x="1055.13" y="771.3" class="st4" width="1" height="1"/>
	<rect x="1060.23" y="771.32" class="st4" width="1" height="1"/>
	<rect x="1065.33" y="771.49" class="st4" width="1" height="1"/>
	<rect x="1070.42" y="771.39" class="st4" width="1" height="1"/>
	<rect x="1075.52" y="771.56" class="st4" width="1" height="1"/>
	<rect x="1080.62" y="770.94" class="st4" width="1" height="1"/>
	<rect x="1085.72" y="772.71" class="st4" width="1" height="1"/>
	<rect x="1090.82" y="771.27" class="st4" width="1" height="1"/>
	<rect x="1095.91" y="772.88" class="st4" width="1" height="1"/>
	<rect x="1101.01" y="770.84" class="st4" width="1" height="1"/>
	<rect x="1106.11" y="772.95" class="st4" width="1" height="1"/>
	<rect x="1111.21" y="775.16" class="st4" width="1" height="1"/>
	<rect x="1116.31" y="773.46" class="st4" width="1" height="1"/>
	<rect x="1121.41" y="774.61" class="st4" width="1" height="1"/>
	<rect x="1126.5" y="773.92" class="st4" width="1" height="1"/>
	<rect x="1131.6" y="774.98" class="st4" width="1" height="1"/>
	<rect x="1136.7" y="772.78" class="st4" width="1" height="1"/>
	<rect x="1141.8" y="774.26" class="st4" width="1" height="1"/>
	<rect x="1146.9" y="771.95" class="st4" width="1" height="1"/>
	<rect x="1152" y="769.5" class="st4" width="1" height="1"/>
	<rect x="1157.09" y="774.46" class="st4" width="1" height="1"/>
	<rect x="1162.19" y="772.36" class="st4" width="1" height="1"/>
	<rect x="1167.29" y="773.94" class="st4" width="1" height="1"/>
	<rect x="1172.39" y="775.69" class="st4" width="1" height="1"/>
	<rect x="1177.49" y="775.35" class="st4" width="1" height="1"/>
	<rect x="1182.58" y="774.78" class="st4" width="1" height="1"/>
	<rect x="1187.68" y="775.36" class="st4" width="1" height="1"/>
	<rect x="1192.78" y="775.03" class="st4" width="1" height="1"/>
	<rect x="1197.88" y="773.33" class="st4" width="1" height="1"/>
	<rect x="1202.98" y="775.34" class="st4" width="1" height="1"/>
	<rect x="1208.08" y="775.69" class="st4" width="1" height="1"/>
	<rect x="1213.17" y="776.23" class="st4" width="1" height="1"/>
	<rect x="1218.27" y="776.19" class="st4" width="1" height="1"/>
	<rect x="1223.37" y="775.09" class="st4" width="1" height="1"/>
	<rect x="1228.47" y="776.2" class="st4" width="1" height="1"/>
	<rect x="1233.57" y="775.07" class="st4" width="1" height="1"/>
	<rect x="1238.66" y="776.34" class="st4" width="1" height="1"/>
	<rect x="1243.76" y="775.48" class="st4" width="1" height="1"/>
	<rect x="1248.86" y="775.16" class="st4" width="1" height="1"/>
	<rect x="1253.96" y="775.5" class="st4" width="1" height="1"/>
	<rect x="1259.06" y="775.46" class="st4" width="1" height="1"/>
	<rect x="1264.16" y="775.85" class="st4" width="1" height="1"/>
	<rect x="1269.25" y="776.98" class="st4" width="1" height="1"/>
	<rect x="1274.35" y="774.99" class="st4" width="1" height="1"/>
	<rect x="1279.45" y="776.29" class="st4" width="1" height="1"/>
	<rect x="1284.55" y="775.31" class="st4" width="1" height="1"/>
	<rect x="1289.65" y="776.42" class="st4" width="1" height="1"/>
	<rect x="1294.75" y="776.63" class="st4" width="1" height="1"/>
	<rect x="1299.84" y="777.14" class="st4" width="1" height="1"/>
	<rect x="1304.94" y="777.16" class="st4" width="1" height="1"/>
	<rect x="1310.04" y="776.98" class="st4" width="1" height="1"/>
	<rect x="1315.14" y="776.89" class="st4" width="1" height="1"/>
	<rect x="1320.24" y="777.21" class="st4" width="1" height="1"/>
	<rect x="1325.33" y="776.25" class="st4" width="1" height="1"/>
	<rect x="1330.43" y="777.12" class="st4" width="1" height="1"/>
	<rect x="1335.53" y="776.77" class="st4" width="1" height="1"/>
	<rect x="1340.63" y="776.74" class="st4" width="1" height="1"/>
	<rect x="1345.73" y="776.43" class="st4" width="1" height="1"/>
	<rect x="1350.83" y="776.41" class="st4" width="1" height="1"/>
	<rect x="1355.92" y="777.36" class="st4" width="1" height="1"/>
	<rect x="1361.02" y="777.65" class="st4" width="1" height="1"/>
	<rect x="1366.12" y="777.42" class="st4" width="1" height="1"/>
	<rect x="1371.22" y="777.04" class="st4" width="1" height="1"/>
	<rect x="1376.31" y="776.63" class="st4" width="1" height="1"/>
	<rect x="1381.41" y="777.56" class="st4" width="1" height="1"/>
	<rect x="1386.51" y="777.11" class="st4" width="1" height="1"/>
	<rect x="1391.61" y="777.1" class="st4" width="1" height="1"/>
	<rect x="1396.71" y="777.28" class="st4" width="1" height="1"/>
	<rect x="1401.81" y="776.38" class="st4" width="1" height="1"/>
	<rect x="1406.9" y="777.22" class="st4" width="1" height="1"/>
	<rect x="1412" y="776.75" class="st4" width="1" height="1"/>
	<rect x="1417.1" y="777.17" class="st4" width="1" height="1"/>
	<rect x="1422.2" y="776.91" class="st4" width="1" height="1"/>
	<rect x="1427.3" y="775.41" class="st4" width="1" height="1"/>
	<rect x="1432.39" y="777.89" class="st4" width="1" height="1"/>
	<rect x="1437.49" y="777.14" class="st4" width="1" height="1"/>
	<rect x="1442.59" y="777" class="st4" width="1" height="1"/>
	<rect x="1447.69" y="776.88" class="st4" width="1" height="1"/>
	<rect x="1452.79" y="775.65" class="st4" width="1" height="1"/>
	<rect x="1457.89" y="774.66" class="st4" width="1" height="1"/>
	<rect x="1462.98" y="770.46" class="st4" width="1" height="1"/>
	<rect x="1468.08" y="771.05" class="st4" width="1" height="1"/>
	<rect x="1473.18" y="772.89" class="st4" width="1" height="1"/>
	<rect x="1478.28" y="768.52" class="st4" width="1" height="1"/>
	<polyline class="st5" points="479.53,365.32 484.63,491.05 489.73,497.22 494.83,605.87 499.92,648.03 505.02,651.79 510.12,650.3 
		515.22,648.61 520.32,644.26 525.41,647.15 530.51,663.83 535.61,662.66 540.71,668.32 545.81,682.93 550.91,688.55 556,697.96 
		561.1,708.88 566.2,707.65 571.3,716.78 576.4,718.87 581.5,720.61 586.59,726.02 591.69,728 596.79,731.02 601.89,736.02 
		606.99,737.52 612.08,738.67 617.18,742.7 622.28,743.87 627.38,743.72 632.48,746.08 637.58,747.86 642.67,747.44 647.77,748.25 
		652.87,748.4 663.07,750.95 668.16,751.08 673.26,751.43 678.36,753.42 683.46,754.9 688.56,754.27 693.66,750.16 698.75,755.6 
		703.85,754.47 708.95,755.79 714.05,755.29 719.15,755.25 724.25,757.68 729.34,757.91 734.44,758.59 739.54,759.04 744.64,759.74 
		749.74,760.59 754.83,761.27 759.93,760.26 765.03,761.14 770.13,761.88 775.23,760.57 780.33,760.82 785.42,762.83 790.52,760.56 
		795.62,757.33 800.72,756.45 805.82,757.69 810.91,754.81 816.01,754.75 821.11,757.32 826.21,753.78 831.31,758.23 836.41,759.63 
		841.5,760.11 846.6,759.29 851.7,756.55 856.8,756.79 861.9,756.47 867,758.92 872.09,755.1 877.19,760.2 882.29,757.71 
		887.39,756.15 892.49,757.38 897.58,758.17 902.68,756.6 907.78,756.93 912.88,755.75 917.98,758.25 923.08,757.62 928.17,757.92 
		933.27,760.27 938.37,758.45 943.47,757.02 948.57,758.68 958.76,759.76 963.86,761.78 968.96,760.65 974.06,761.5 979.16,759.33 
		984.25,762.41 989.35,763.25 994.45,762.71 999.55,764.42 1004.65,763.5 1009.75,762.26 1014.84,764.94 1019.94,766.15 
		1025.04,767.04 1030.14,765.66 1035.24,767.55 1040.33,769.69 1045.43,769.09 1050.53,768.25 1055.63,767.87 1060.73,768.46 
		1065.83,769.61 1070.92,769.78 1076.02,770.57 1081.12,768.96 1086.22,770.26 1091.32,769.8 1096.42,769.83 1101.51,771.9 
		1106.61,770.74 1111.71,771.02 1121.91,772.33 1127,771.79 1132.1,772.57 1142.3,772.5 1147.4,771.82 1152.5,771.48 
		1157.59,772.55 1167.79,770.76 1172.89,770.75 1177.99,770.6 1183.08,769.97 1188.18,769.22 1193.28,769.32 1198.38,769.12 
		1203.48,769.21 1208.58,770.68 1213.67,771.18 1218.77,770.98 1228.97,771.39 1234.07,768.8 1239.17,767.64 1244.26,767.94 
		1249.36,768.73 1254.46,770.82 1264.66,771.51 1269.75,771.69 1274.85,771.69 1279.95,771.09 1285.05,771.66 1290.15,770.73 
		1295.25,772.29 1300.34,772.89 1310.54,772.83 1315.64,771.51 1320.74,772.43 1330.93,770.6 1341.13,770.3 1346.23,770.2 
		1351.33,769.91 1356.42,771.2 1361.52,770.11 1366.62,770.18 1371.72,769.44 1376.82,771.18 1381.92,768.04 1387.01,771.83 
		1392.11,769.05 1397.21,771.9 1402.31,770.77 1407.41,771.53 1412.5,770.97 1417.6,771.15 1422.7,769.04 1427.8,771.99 
		1432.9,771.29 1438,769.91 1443.09,772.16 1448.19,773.89 1453.29,772.24 1458.39,772.85 1463.49,771.11 1468.59,772.46 
		1473.68,772.67 1478.78,773.08 1483.88,772.72 1488.98,772.2 1494.08,772.72 1494.08,772.72 	"/>
	<path class="st6" d="M479.53,365.32v6.5 M479.53,365.32l5.2-3.25 M479.53,365.32l-5.2-3.25"/>
	<path class="st6" d="M484.63,491.05v6.5 M484.63,491.05l5.2-3.25 M484.63,491.05l-5.2-3.25"/>
	<path class="st6" d="M489.73,497.22v6.5 M489.73,497.22l5.2-3.25 M489.73,497.22l-5.2-3.25"/>
	<path class="st6" d="M494.83,605.87v6.5 M494.83,605.87l5.2-3.25 M494.83,605.87l-5.2-3.25"/>
	<path class="st6" d="M499.92,648.03v6.5 M499.92,648.03l5.2-3.25 M499.92,648.03l-5.2-3.25"/>
	<path class="st6" d="M505.02,651.79v6.5 M505.02,651.79l5.2-3.25 M505.02,651.79l-5.2-3.25"/>
	<path class="st6" d="M510.12,650.3v6.5 M510.12,650.3l5.2-3.25 M510.12,650.3l-5.2-3.25"/>
	<path class="st6" d="M515.22,648.61v6.5 M515.22,648.61l5.2-3.25 M515.22,648.61l-5.2-3.25"/>
	<path class="st6" d="M520.32,644.26v6.5 M520.32,644.26l5.2-3.25 M520.32,644.26l-5.2-3.25"/>
	<path class="st6" d="M525.41,647.15v6.5 M525.41,647.15l5.2-3.25 M525.41,647.15l-5.2-3.25"/>
	<path class="st6" d="M530.51,663.83v6.5 M530.51,663.83l5.2-3.25 M530.51,663.83l-5.2-3.25"/>
	<path class="st6" d="M535.61,662.66v6.5 M535.61,662.66l5.2-3.25 M535.61,662.66l-5.2-3.25"/>
	<path class="st6" d="M540.71,668.32v6.5 M540.71,668.32l5.2-3.25 M540.71,668.32l-5.2-3.25"/>
	<path class="st6" d="M545.81,682.93v6.5 M545.81,682.93l5.2-3.25 M545.81,682.93l-5.2-3.25"/>
	<path class="st6" d="M550.91,688.55v6.5 M550.91,688.55l5.2-3.25 M550.91,688.55l-5.2-3.25"/>
	<path class="st6" d="M556,697.96v6.5 M556,697.96l5.2-3.25 M556,697.96l-5.2-3.25"/>
	<path class="st6" d="M561.1,708.88v6.5 M561.1,708.88l5.2-3.25 M561.1,708.88l-5.2-3.25"/>
	<path class="st6" d="M566.2,707.65v6.5 M566.2,707.65l5.2-3.25 M566.2,707.65l-5.2-3.25"/>
	<path class="st6" d="M571.3,716.78v6.5 M571.3,716.78l5.2-3.25 M571.3,716.78l-5.2-3.25"/>
	<path class="st6" d="M576.4,718.87v6.5 M576.4,718.87l5.2-3.25 M576.4,718.87l-5.2-3.25"/>
	<path class="st6" d="M581.49,720.61v6.5 M581.49,720.61l5.2-3.25 M581.49,720.61l-5.2-3.25"/>
	<path class="st6" d="M586.59,726.02v6.5 M586.59,726.02l5.2-3.25 M586.59,726.02l-5.2-3.25"/>
	<path class="st6" d="M591.69,728v6.5 M591.69,728l5.2-3.25 M591.69,728l-5.2-3.25"/>
	<path class="st6" d="M596.79,731.02v6.5 M596.79,731.02l5.2-3.25 M596.79,731.02l-5.2-3.25"/>
	<path class="st6" d="M601.89,736.02v6.5 M601.89,736.02l5.2-3.25 M601.89,736.02l-5.2-3.25"/>
	<path class="st6" d="M606.99,737.52v6.5 M606.99,737.52l5.2-3.25 M606.99,737.52l-5.2-3.25"/>
	<path class="st6" d="M612.08,738.67v6.5 M612.08,738.67l5.2-3.25 M612.08,738.67l-5.2-3.25"/>
	<path class="st6" d="M617.18,742.7v6.5 M617.18,742.7l5.2-3.25 M617.18,742.7l-5.2-3.25"/>
	<path class="st6" d="M622.28,743.87v6.5 M622.28,743.87l5.2-3.25 M622.28,743.87l-5.2-3.25"/>
	<path class="st6" d="M627.38,743.72v6.5 M627.38,743.72l5.2-3.25 M627.38,743.72l-5.2-3.25"/>
	<path class="st6" d="M632.48,746.08v6.5 M632.48,746.08l5.2-3.25 M632.48,746.08l-5.2-3.25"/>
	<path class="st6" d="M637.58,747.86v6.5 M637.58,747.86l5.2-3.25 M637.58,747.86l-5.2-3.25"/>
	<path class="st6" d="M642.67,747.44v6.5 M642.67,747.44l5.2-3.25 M642.67,747.44l-5.2-3.25"/>
	<path class="st6" d="M647.77,748.25v6.5 M647.77,748.25l5.2-3.25 M647.77,748.25l-5.2-3.25"/>
	<path class="st6" d="M652.87,748.4v6.5 M652.87,748.4l5.2-3.25 M652.87,748.4l-5.2-3.25"/>
	<path class="st6" d="M657.97,749.64v6.5 M657.97,749.64l5.2-3.25 M657.97,749.64l-5.2-3.25"/>
	<path class="st6" d="M663.07,750.95v6.5 M663.07,750.95l5.2-3.25 M663.07,750.95l-5.2-3.25"/>
	<path class="st6" d="M668.16,751.08v6.5 M668.16,751.08l5.2-3.25 M668.16,751.08l-5.2-3.25"/>
	<path class="st6" d="M673.26,751.43v6.5 M673.26,751.43l5.2-3.25 M673.26,751.43l-5.2-3.25"/>
	<path class="st6" d="M678.36,753.42v6.5 M678.36,753.42l5.2-3.25 M678.36,753.42l-5.2-3.25"/>
	<path class="st6" d="M683.46,754.9v6.5 M683.46,754.9l5.2-3.25 M683.46,754.9l-5.2-3.25"/>
	<path class="st6" d="M688.56,754.27v6.5 M688.56,754.27l5.2-3.25 M688.56,754.27l-5.2-3.25"/>
	<path class="st6" d="M693.66,750.16v6.5 M693.66,750.16l5.2-3.25 M693.66,750.16l-5.2-3.25"/>
	<path class="st6" d="M698.75,755.6v6.5 M698.75,755.6l5.2-3.25 M698.75,755.6l-5.2-3.25"/>
	<path class="st6" d="M703.85,754.47v6.5 M703.85,754.47l5.2-3.25 M703.85,754.47l-5.2-3.25"/>
	<path class="st6" d="M708.95,755.79v6.5 M708.95,755.79l5.2-3.25 M708.95,755.79l-5.2-3.25"/>
	<path class="st6" d="M714.05,755.29v6.5 M714.05,755.29l5.2-3.25 M714.05,755.29l-5.2-3.25"/>
	<path class="st6" d="M719.15,755.25v6.5 M719.15,755.25l5.2-3.25 M719.15,755.25l-5.2-3.25"/>
	<path class="st6" d="M724.24,757.68v6.5 M724.24,757.68l5.2-3.25 M724.24,757.68l-5.2-3.25"/>
	<path class="st6" d="M729.34,757.91v6.5 M729.34,757.91l5.2-3.25 M729.34,757.91l-5.2-3.25"/>
	<path class="st6" d="M734.44,758.59v6.5 M734.44,758.59l5.2-3.25 M734.44,758.59l-5.2-3.25"/>
	<path class="st6" d="M739.54,759.04v6.5 M739.54,759.04l5.2-3.25 M739.54,759.04l-5.2-3.25"/>
	<path class="st6" d="M744.64,759.74v6.5 M744.64,759.74l5.2-3.25 M744.64,759.74l-5.2-3.25"/>
	<path class="st6" d="M749.74,760.59v6.5 M749.74,760.59l5.2-3.25 M749.74,760.59l-5.2-3.25"/>
	<path class="st6" d="M754.83,761.27v6.5 M754.83,761.27l5.2-3.25 M754.83,761.27l-5.2-3.25"/>
	<path class="st6" d="M759.93,760.26v6.5 M759.93,760.26l5.2-3.25 M759.93,760.26l-5.2-3.25"/>
	<path class="st6" d="M765.03,761.14v6.5 M765.03,761.14l5.2-3.25 M765.03,761.14l-5.2-3.25"/>
	<path class="st6" d="M770.13,761.88v6.5 M770.13,761.88l5.2-3.25 M770.13,761.88l-5.2-3.25"/>
	<path class="st6" d="M775.23,760.57v6.5 M775.23,760.57l5.2-3.25 M775.23,760.57l-5.2-3.25"/>
	<path class="st6" d="M780.33,760.82v6.5 M780.33,760.82l5.2-3.25 M780.33,760.82l-5.2-3.25"/>
	<path class="st6" d="M785.42,762.83v6.5 M785.42,762.83l5.2-3.25 M785.42,762.83l-5.2-3.25"/>
	<path class="st6" d="M790.52,760.56v6.5 M790.52,760.56l5.2-3.25 M790.52,760.56l-5.2-3.25"/>
	<path class="st6" d="M795.62,757.33v6.5 M795.62,757.33l5.2-3.25 M795.62,757.33l-5.2-3.25"/>
	<path class="st6" d="M800.72,756.45v6.5 M800.72,756.45l5.2-3.25 M800.72,756.45l-5.2-3.25"/>
	<path class="st6" d="M805.82,757.69v6.5 M805.82,757.69l5.2-3.25 M805.82,757.69l-5.2-3.25"/>
	<path class="st6" d="M810.91,754.81v6.5 M810.91,754.81l5.2-3.25 M810.91,754.81l-5.2-3.25"/>
	<path class="st6" d="M816.01,754.75v6.5 M816.01,754.75l5.2-3.25 M816.01,754.75l-5.2-3.25"/>
	<path class="st6" d="M821.11,757.32v6.5 M821.11,757.32l5.2-3.25 M821.11,757.32l-5.2-3.25"/>
	<path class="st6" d="M826.21,753.78v6.5 M826.21,753.78l5.2-3.25 M826.21,753.78l-5.2-3.25"/>
	<path class="st6" d="M831.31,758.23v6.5 M831.31,758.23l5.2-3.25 M831.31,758.23l-5.2-3.25"/>
	<path class="st6" d="M836.41,759.63v6.5 M836.41,759.63l5.2-3.25 M836.41,759.63l-5.2-3.25"/>
	<path class="st6" d="M841.5,760.11v6.5 M841.5,760.11l5.2-3.25 M841.5,760.11l-5.2-3.25"/>
	<path class="st6" d="M846.6,759.29v6.5 M846.6,759.29l5.2-3.25 M846.6,759.29l-5.2-3.25"/>
	<path class="st6" d="M851.7,756.55v6.5 M851.7,756.55l5.2-3.25 M851.7,756.55l-5.2-3.25"/>
	<path class="st6" d="M856.8,756.79v6.5 M856.8,756.79l5.2-3.25 M856.8,756.79l-5.2-3.25"/>
	<path class="st6" d="M861.9,756.47v6.5 M861.9,756.47l5.2-3.25 M861.9,756.47l-5.2-3.25"/>
	<path class="st6" d="M866.99,758.92v6.5 M866.99,758.92l5.2-3.25 M866.99,758.92l-5.2-3.25"/>
	<path class="st6" d="M872.09,755.1v6.5 M872.09,755.1l5.2-3.25 M872.09,755.1l-5.2-3.25"/>
	<path class="st6" d="M877.19,760.2v6.5 M877.19,760.2l5.2-3.25 M877.19,760.2l-5.2-3.25"/>
	<path class="st6" d="M882.29,757.71v6.5 M882.29,757.71l5.2-3.25 M882.29,757.71l-5.2-3.25"/>
	<path class="st6" d="M887.39,756.15v6.5 M887.39,756.15l5.2-3.25 M887.39,756.15l-5.2-3.25"/>
	<path class="st6" d="M892.49,757.38v6.5 M892.49,757.38l5.2-3.25 M892.49,757.38l-5.2-3.25"/>
	<path class="st6" d="M897.58,758.17v6.5 M897.58,758.17l5.2-3.25 M897.58,758.17l-5.2-3.25"/>
	<path class="st6" d="M902.68,756.6v6.5 M902.68,756.6l5.2-3.25 M902.68,756.6l-5.2-3.25"/>
	<path class="st6" d="M907.78,756.93v6.5 M907.78,756.93l5.2-3.25 M907.78,756.93l-5.2-3.25"/>
	<path class="st6" d="M912.88,755.75v6.5 M912.88,755.75l5.2-3.25 M912.88,755.75l-5.2-3.25"/>
	<path class="st6" d="M917.98,758.25v6.5 M917.98,758.25l5.2-3.25 M917.98,758.25l-5.2-3.25"/>
	<path class="st6" d="M923.08,757.62v6.5 M923.08,757.62l5.2-3.25 M923.08,757.62l-5.2-3.25"/>
	<path class="st6" d="M928.17,757.92v6.5 M928.17,757.92l5.2-3.25 M928.17,757.92l-5.2-3.25"/>
	<path class="st6" d="M933.27,760.27v6.5 M933.27,760.27l5.2-3.25 M933.27,760.27l-5.2-3.25"/>
	<path class="st6" d="M938.37,758.45v6.5 M938.37,758.45l5.2-3.25 M938.37,758.45l-5.2-3.25"/>
	<path class="st6" d="M943.47,757.02v6.5 M943.47,757.02l5.2-3.25 M943.47,757.02l-5.2-3.25"/>
	<path class="st6" d="M948.57,758.68v6.5 M948.57,758.68l5.2-3.25 M948.57,758.68l-5.2-3.25"/>
	<path class="st6" d="M953.66,759.18v6.5 M953.66,759.18l5.2-3.25 M953.66,759.18l-5.2-3.25"/>
	<path class="st6" d="M958.76,759.76v6.5 M958.76,759.76l5.2-3.25 M958.76,759.76l-5.2-3.25"/>
	<path class="st6" d="M963.86,761.78v6.5 M963.86,761.78l5.2-3.25 M963.86,761.78l-5.2-3.25"/>
	<path class="st6" d="M968.96,760.65v6.5 M968.96,760.65l5.2-3.25 M968.96,760.65l-5.2-3.25"/>
	<path class="st6" d="M974.06,761.5v6.5 M974.06,761.5l5.2-3.25 M974.06,761.5l-5.2-3.25"/>
	<path class="st6" d="M979.16,759.33v6.5 M979.16,759.33l5.2-3.25 M979.16,759.33l-5.2-3.25"/>
	<path class="st6" d="M984.25,762.41v6.5 M984.25,762.41l5.2-3.25 M984.25,762.41l-5.2-3.25"/>
	<path class="st6" d="M989.35,763.25v6.5 M989.35,763.25l5.2-3.25 M989.35,763.25l-5.2-3.25"/>
	<path class="st6" d="M994.45,762.71v6.5 M994.45,762.71l5.2-3.25 M994.45,762.71l-5.2-3.25"/>
	<path class="st6" d="M999.55,764.42v6.5 M999.55,764.42l5.2-3.25 M999.55,764.42l-5.2-3.25"/>
	<path class="st6" d="M1004.65,763.5v6.5 M1004.65,763.5l5.2-3.25 M1004.65,763.5l-5.2-3.25"/>
	<path class="st6" d="M1009.75,762.26v6.5 M1009.75,762.26l5.2-3.25 M1009.75,762.26l-5.2-3.25"/>
	<path class="st6" d="M1014.84,764.94v6.5 M1014.84,764.94l5.2-3.25 M1014.84,764.94l-5.2-3.25"/>
	<path class="st6" d="M1019.94,766.15v6.5 M1019.94,766.15l5.2-3.25 M1019.94,766.15l-5.2-3.25"/>
	<path class="st6" d="M1025.04,767.04v6.5 M1025.04,767.04l5.2-3.25 M1025.04,767.04l-5.2-3.25"/>
	<path class="st6" d="M1030.14,765.66v6.5 M1030.14,765.66l5.2-3.25 M1030.14,765.66l-5.2-3.25"/>
	<path class="st6" d="M1035.24,767.55v6.5 M1035.24,767.55l5.2-3.25 M1035.24,767.55l-5.2-3.25"/>
	<path class="st6" d="M1040.33,769.69v6.5 M1040.33,769.69l5.2-3.25 M1040.33,769.69l-5.2-3.25"/>
	<path class="st6" d="M1045.43,769.09v6.5 M1045.43,769.09l5.2-3.25 M1045.43,769.09l-5.2-3.25"/>
	<path class="st6" d="M1050.53,768.25v6.5 M1050.53,768.25l5.2-3.25 M1050.53,768.25l-5.2-3.25"/>
	<path class="st6" d="M1055.63,767.87v6.5 M1055.63,767.87l5.2-3.25 M1055.63,767.87l-5.2-3.25"/>
	<path class="st6" d="M1060.73,768.46v6.5 M1060.73,768.46l5.2-3.25 M1060.73,768.46l-5.2-3.25"/>
	<path class="st6" d="M1065.83,769.61v6.5 M1065.83,769.61l5.2-3.25 M1065.83,769.61l-5.2-3.25"/>
	<path class="st6" d="M1070.92,769.78v6.5 M1070.92,769.78l5.2-3.25 M1070.92,769.78l-5.2-3.25"/>
	<path class="st6" d="M1076.02,770.57v6.5 M1076.02,770.57l5.2-3.25 M1076.02,770.57l-5.2-3.25"/>
	<path class="st6" d="M1081.12,768.96v6.5 M1081.12,768.96l5.2-3.25 M1081.12,768.96l-5.2-3.25"/>
	<path class="st6" d="M1086.22,770.26v6.5 M1086.22,770.26l5.2-3.25 M1086.22,770.26l-5.2-3.25"/>
	<path class="st6" d="M1091.32,769.8v6.5 M1091.32,769.8l5.2-3.25 M1091.32,769.8l-5.2-3.25"/>
	<path class="st6" d="M1096.41,769.83v6.5 M1096.41,769.83l5.2-3.25 M1096.41,769.83l-5.2-3.25"/>
	<path class="st6" d="M1101.51,771.9v6.5 M1101.51,771.9l5.2-3.25 M1101.51,771.9l-5.2-3.25"/>
	<path class="st6" d="M1106.61,770.74v6.5 M1106.61,770.74l5.2-3.25 M1106.61,770.74l-5.2-3.25"/>
	<path class="st6" d="M1111.71,771.02v6.5 M1111.71,771.02l5.2-3.25 M1111.71,771.02l-5.2-3.25"/>
	<path class="st6" d="M1116.81,771.67v6.5 M1116.81,771.67l5.2-3.25 M1116.81,771.67l-5.2-3.25"/>
	<path class="st6" d="M1121.91,772.33v6.5 M1121.91,772.33l5.2-3.25 M1121.91,772.33l-5.2-3.25"/>
	<path class="st6" d="M1127,771.8v6.5 M1127,771.8l5.2-3.25 M1127,771.8l-5.2-3.25"/>
	<path class="st6" d="M1132.1,772.57v6.5 M1132.1,772.57l5.2-3.25 M1132.1,772.57l-5.2-3.25"/>
	<path class="st6" d="M1137.2,772.5v6.5 M1137.2,772.5l5.2-3.25 M1137.2,772.5l-5.2-3.25"/>
	<path class="st6" d="M1142.3,772.5v6.5 M1142.3,772.5l5.2-3.25 M1142.3,772.5l-5.2-3.25"/>
	<path class="st6" d="M1147.4,771.82v6.5 M1147.4,771.82l5.2-3.25 M1147.4,771.82l-5.2-3.25"/>
	<path class="st6" d="M1152.5,771.48v6.5 M1152.5,771.48l5.2-3.25 M1152.5,771.48l-5.2-3.25"/>
	<path class="st6" d="M1157.59,772.55v6.5 M1157.59,772.55l5.2-3.25 M1157.59,772.55l-5.2-3.25"/>
	<path class="st6" d="M1162.69,771.68v6.5 M1162.69,771.68l5.2-3.25 M1162.69,771.68l-5.2-3.25"/>
	<path class="st6" d="M1167.79,770.76v6.5 M1167.79,770.76l5.2-3.25 M1167.79,770.76l-5.2-3.25"/>
	<path class="st6" d="M1172.89,770.75v6.5 M1172.89,770.75l5.2-3.25 M1172.89,770.75l-5.2-3.25"/>
	<path class="st6" d="M1177.99,770.6v6.5 M1177.99,770.6l5.2-3.25 M1177.99,770.6l-5.2-3.25"/>
	<path class="st6" d="M1183.08,769.97v6.5 M1183.08,769.97l5.2-3.25 M1183.08,769.97l-5.2-3.25"/>
	<path class="st6" d="M1188.18,769.22v6.5 M1188.18,769.22l5.2-3.25 M1188.18,769.22l-5.2-3.25"/>
	<path class="st6" d="M1193.28,769.32v6.5 M1193.28,769.32l5.2-3.25 M1193.28,769.32l-5.2-3.25"/>
	<path class="st6" d="M1198.38,769.12v6.5 M1198.38,769.12l5.2-3.25 M1198.38,769.12l-5.2-3.25"/>
	<path class="st6" d="M1203.48,769.21v6.5 M1203.48,769.21l5.2-3.25 M1203.48,769.21l-5.2-3.25"/>
	<path class="st6" d="M1208.58,770.68v6.5 M1208.58,770.68l5.2-3.25 M1208.58,770.68l-5.2-3.25"/>
	<path class="st6" d="M1213.67,771.18v6.5 M1213.67,771.18l5.2-3.25 M1213.67,771.18l-5.2-3.25"/>
	<path class="st6" d="M1218.77,770.98v6.5 M1218.77,770.98l5.2-3.25 M1218.77,770.98l-5.2-3.25"/>
	<path class="st6" d="M1223.87,771.19v6.5 M1223.87,771.19l5.2-3.25 M1223.87,771.19l-5.2-3.25"/>
	<path class="st6" d="M1228.97,771.39v6.5 M1228.97,771.39l5.2-3.25 M1228.97,771.39l-5.2-3.25"/>
	<path class="st6" d="M1234.07,768.8v6.5 M1234.07,768.8l5.2-3.25 M1234.07,768.8l-5.2-3.25"/>
	<path class="st6" d="M1239.16,767.64v6.5 M1239.16,767.64l5.2-3.25 M1239.16,767.64l-5.2-3.25"/>
	<path class="st6" d="M1244.26,767.94v6.5 M1244.26,767.94l5.2-3.25 M1244.26,767.94l-5.2-3.25"/>
	<path class="st6" d="M1249.36,768.73v6.5 M1249.36,768.73l5.2-3.25 M1249.36,768.73l-5.2-3.25"/>
	<path class="st6" d="M1254.46,770.82v6.5 M1254.46,770.82l5.2-3.25 M1254.46,770.82l-5.2-3.25"/>
	<path class="st6" d="M1259.56,771.18v6.5 M1259.56,771.18l5.2-3.25 M1259.56,771.18l-5.2-3.25"/>
	<path class="st6" d="M1264.66,771.51v6.5 M1264.66,771.51l5.2-3.25 M1264.66,771.51l-5.2-3.25"/>
	<path class="st6" d="M1269.75,771.69v6.5 M1269.75,771.69l5.2-3.25 M1269.75,771.69l-5.2-3.25"/>
	<path class="st6" d="M1274.85,771.69v6.5 M1274.85,771.69l5.2-3.25 M1274.85,771.69l-5.2-3.25"/>
	<path class="st6" d="M1279.95,771.09v6.5 M1279.95,771.09l5.2-3.25 M1279.95,771.09l-5.2-3.25"/>
	<path class="st6" d="M1285.05,771.66v6.5 M1285.05,771.66l5.2-3.25 M1285.05,771.66l-5.2-3.25"/>
	<path class="st6" d="M1290.15,770.73v6.5 M1290.15,770.73l5.2-3.25 M1290.15,770.73l-5.2-3.25"/>
	<path class="st6" d="M1295.25,772.29v6.5 M1295.25,772.29l5.2-3.25 M1295.25,772.29l-5.2-3.25"/>
	<path class="st6" d="M1300.34,772.89v6.5 M1300.34,772.89l5.2-3.25 M1300.34,772.89l-5.2-3.25"/>
	<path class="st6" d="M1305.44,772.83v6.5 M1305.44,772.83l5.2-3.25 M1305.44,772.83l-5.2-3.25"/>
	<path class="st6" d="M1310.54,772.83v6.5 M1310.54,772.83l5.2-3.25 M1310.54,772.83l-5.2-3.25"/>
	<path class="st6" d="M1315.64,771.51v6.5 M1315.64,771.51l5.2-3.25 M1315.64,771.51l-5.2-3.25"/>
	<path class="st6" d="M1320.74,772.43v6.5 M1320.74,772.43l5.2-3.25 M1320.74,772.43l-5.2-3.25"/>
	<path class="st6" d="M1325.83,771.57v6.5 M1325.83,771.57l5.2-3.25 M1325.83,771.57l-5.2-3.25"/>
	<path class="st6" d="M1330.93,770.6v6.5 M1330.93,770.6l5.2-3.25 M1330.93,770.6l-5.2-3.25"/>
	<path class="st6" d="M1336.03,770.43v6.5 M1336.03,770.43l5.2-3.25 M1336.03,770.43l-5.2-3.25"/>
	<path class="st6" d="M1341.13,770.3v6.5 M1341.13,770.3l5.2-3.25 M1341.13,770.3l-5.2-3.25"/>
	<path class="st6" d="M1346.23,770.2v6.5 M1346.23,770.2l5.2-3.25 M1346.23,770.2l-5.2-3.25"/>
	<path class="st6" d="M1351.33,769.91v6.5 M1351.33,769.91l5.2-3.25 M1351.33,769.91l-5.2-3.25"/>
	<path class="st6" d="M1356.42,771.2v6.5 M1356.42,771.2l5.2-3.25 M1356.42,771.2l-5.2-3.25"/>
	<path class="st6" d="M1361.52,770.11v6.5 M1361.52,770.11l5.2-3.25 M1361.52,770.11l-5.2-3.25"/>
	<path class="st6" d="M1366.62,770.18v6.5 M1366.62,770.18l5.2-3.25 M1366.62,770.18l-5.2-3.25"/>
	<path class="st6" d="M1371.72,769.44v6.5 M1371.72,769.44l5.2-3.25 M1371.72,769.44l-5.2-3.25"/>
	<path class="st6" d="M1376.81,771.18v6.5 M1376.81,771.18l5.2-3.25 M1376.81,771.18l-5.2-3.25"/>
	<path class="st6" d="M1381.91,768.05v6.5 M1381.91,768.05l5.2-3.25 M1381.91,768.05l-5.2-3.25"/>
	<path class="st6" d="M1387.01,771.83v6.5 M1387.01,771.83l5.2-3.25 M1387.01,771.83l-5.2-3.25"/>
	<path class="st6" d="M1392.11,769.05v6.5 M1392.11,769.05l5.2-3.25 M1392.11,769.05l-5.2-3.25"/>
	<path class="st6" d="M1397.21,771.9v6.5 M1397.21,771.9l5.2-3.25 M1397.21,771.9l-5.2-3.25"/>
	<path class="st6" d="M1402.31,770.77v6.5 M1402.31,770.77l5.2-3.25 M1402.31,770.77l-5.2-3.25"/>
	<path class="st6" d="M1407.4,771.53v6.5 M1407.4,771.53l5.2-3.25 M1407.4,771.53l-5.2-3.25"/>
	<path class="st6" d="M1412.5,770.97v6.5 M1412.5,770.97l5.2-3.25 M1412.5,770.97l-5.2-3.25"/>
	<path class="st6" d="M1417.6,771.15v6.5 M1417.6,771.15l5.2-3.25 M1417.6,771.15l-5.2-3.25"/>
	<path class="st6" d="M1422.7,769.04v6.5 M1422.7,769.04l5.2-3.25 M1422.7,769.04l-5.2-3.25"/>
	<path class="st6" d="M1427.8,771.99v6.5 M1427.8,771.99l5.2-3.25 M1427.8,771.99l-5.2-3.25"/>
	<path class="st6" d="M1432.89,771.29v6.5 M1432.89,771.29l5.2-3.25 M1432.89,771.29l-5.2-3.25"/>
	<path class="st6" d="M1437.99,769.91v6.5 M1437.99,769.91l5.2-3.25 M1437.99,769.91l-5.2-3.25"/>
	<path class="st6" d="M1443.09,772.16v6.5 M1443.09,772.16l5.2-3.25 M1443.09,772.16l-5.2-3.25"/>
	<path class="st6" d="M1448.19,773.89v6.5 M1448.19,773.89l5.2-3.25 M1448.19,773.89l-5.2-3.25"/>
	<path class="st6" d="M1453.29,772.24v6.5 M1453.29,772.24l5.2-3.25 M1453.29,772.24l-5.2-3.25"/>
	<path class="st6" d="M1458.39,772.85v6.5 M1458.39,772.85l5.2-3.25 M1458.39,772.85l-5.2-3.25"/>
	<path class="st6" d="M1463.48,771.11v6.5 M1463.48,771.11l5.2-3.25 M1463.48,771.11l-5.2-3.25"/>
	<path class="st6" d="M1468.58,772.46v6.5 M1468.58,772.46l5.2-3.25 M1468.58,772.46l-5.2-3.25"/>
	<path class="st6" d="M1473.68,772.67v6.5 M1473.68,772.67l5.2-3.25 M1473.68,772.67l-5.2-3.25"/>
	<path class="st6" d="M1478.78,773.08v6.5 M1478.78,773.08l5.2-3.25 M1478.78,773.08l-5.2-3.25"/>
	<path class="st6" d="M1483.88,772.72v6.5 M1483.88,772.72l5.2-3.25 M1483.88,772.72l-5.2-3.25"/>
	<path class="st6" d="M1488.98,772.2v6.5 M1488.98,772.2l5.2-3.25 M1488.98,772.2l-5.2-3.25"/>
	<path class="st6" d="M1494.07,772.72v6.5 M1494.07,772.72l5.2-3.25 M1494.07,772.72l-5.2-3.25"/>
	<path class="st7" d="M428.8,803.1V259.5 M1544.8,803.1V259.5 M428.8,803.1h1116 M428.8,259.5h1116"/>
	<polygon class="st2" points="843.6,242.46 845.81,242.46 848.6,249.9 851.41,242.46 853.61,242.46 853.61,253.4 852.17,253.4 
		852.17,243.79 849.35,251.29 847.86,251.29 845.04,243.79 845.04,253.4 843.6,253.4 843.6,242.46 	"/>
	<path class="st2" d="M863.12,242.82v1.44c-0.56-0.27-1.09-0.47-1.59-0.6s-0.98-0.2-1.44-0.2c-0.81,0-1.43,0.15-1.87,0.47
		c-0.43,0.31-0.65,0.75-0.65,1.33c0,0.48,0.15,0.85,0.43,1.1c0.29,0.24,0.84,0.44,1.66,0.59l0.89,0.18
		c1.11,0.21,1.92,0.58,2.44,1.11c0.53,0.53,0.79,1.24,0.79,2.12c0,1.06-0.36,1.86-1.07,2.41s-1.75,0.82-3.12,0.82
		c-0.52,0-1.07-0.06-1.66-0.18c-0.58-0.12-1.19-0.29-1.81-0.52v-1.52c0.6,0.34,1.19,0.59,1.77,0.76s1.14,0.26,1.7,0.26
		c0.84,0,1.49-0.17,1.96-0.5s0.69-0.81,0.69-1.42c0-0.53-0.17-0.96-0.5-1.26s-0.86-0.53-1.62-0.68l-0.9-0.18
		c-1.11-0.22-1.9-0.56-2.4-1.03s-0.74-1.12-0.74-1.96c0-0.97,0.34-1.73,1.02-2.29s1.63-0.83,2.82-0.83c0.51,0,1.03,0.04,1.57,0.14
		S862.56,242.64,863.12,242.82L863.12,242.82z"/>
	<polygon class="st2" points="866.17,242.46 873.08,242.46 873.08,243.71 867.64,243.71 867.64,246.94 872.85,246.94 872.85,248.19 
		867.64,248.19 867.64,252.15 873.21,252.15 873.21,253.4 866.17,253.4 866.17,242.46 	"/>
	<path class="st2" d="M886.16,249.3c0-0.99-0.21-1.77-0.62-2.33c-0.4-0.56-0.97-0.85-1.68-0.85s-1.27,0.29-1.68,0.85
		c-0.4,0.56-0.61,1.34-0.61,2.33s0.21,1.77,0.61,2.34c0.41,0.56,0.97,0.84,1.68,0.84s1.27-0.28,1.68-0.84
		C885.95,251.07,886.16,250.29,886.16,249.3 M881.57,246.44c0.29-0.49,0.64-0.85,1.07-1.08c0.43-0.24,0.95-0.36,1.55-0.36
		c1,0,1.8,0.4,2.42,1.19s0.94,1.83,0.94,3.12s-0.31,2.33-0.94,3.12s-1.43,1.19-2.42,1.19c-0.6,0-1.12-0.12-1.55-0.35
		c-0.43-0.24-0.78-0.6-1.07-1.09v1.23h-1.35V242h1.35V246.44L881.57,246.44z"/>
	<path class="st2" d="M896.88,248.96v0.66h-6.2c0.06,0.93,0.34,1.63,0.83,2.12c0.51,0.48,1.2,0.73,2.09,0.73
		c0.52,0,1.02-0.07,1.5-0.19c0.49-0.12,0.97-0.31,1.45-0.57v1.27c-0.48,0.21-0.98,0.36-1.49,0.47s-1.03,0.16-1.55,0.16
		c-1.31,0-2.34-0.38-3.11-1.14c-0.76-0.76-1.14-1.79-1.14-3.09c0-1.34,0.36-2.41,1.08-3.19c0.73-0.79,1.71-1.19,2.94-1.19
		c1.11,0,1.98,0.36,2.61,1.07C896.56,246.78,896.88,247.73,896.88,248.96 M895.54,248.56c-0.01-0.74-0.22-1.33-0.62-1.77
		s-0.93-0.66-1.6-0.66c-0.75,0-1.35,0.21-1.81,0.64c-0.45,0.42-0.71,1.03-0.78,1.79L895.54,248.56L895.54,248.56z"/>
	<path class="st2" d="M900.32,242.86v2.33h2.78v1.05h-2.78v4.45c0,0.67,0.09,1.1,0.27,1.29s0.56,0.29,1.12,0.29h1.38v1.13h-1.38
		c-1.04,0-1.76-0.19-2.15-0.58s-0.59-1.1-0.59-2.12v-4.45h-0.99v-1.05h0.99v-2.33H900.32L900.32,242.86z"/>
	<polygon class="st2" points="904.2,245.19 905.55,245.19 907.23,251.59 908.91,245.19 910.5,245.19 912.19,251.59 913.86,245.19 
		915.21,245.19 913.07,253.4 911.48,253.4 909.71,246.67 907.94,253.4 906.35,253.4 904.2,245.19 	"/>
	<path class="st2" d="M924.24,248.96v0.66h-6.2c0.06,0.93,0.34,1.63,0.83,2.12c0.51,0.48,1.2,0.73,2.09,0.73
		c0.52,0,1.02-0.07,1.5-0.19c0.49-0.12,0.97-0.31,1.45-0.57v1.27c-0.48,0.21-0.98,0.36-1.49,0.47s-1.03,0.16-1.55,0.16
		c-1.31,0-2.34-0.38-3.11-1.14c-0.76-0.76-1.14-1.79-1.14-3.09c0-1.34,0.36-2.41,1.08-3.19c0.73-0.79,1.71-1.19,2.94-1.19
		c1.11,0,1.98,0.36,2.61,1.07C923.92,246.78,924.24,247.73,924.24,248.96 M922.9,248.56c-0.01-0.74-0.22-1.33-0.62-1.77
		s-0.93-0.66-1.6-0.66c-0.75,0-1.35,0.21-1.81,0.64c-0.45,0.42-0.71,1.03-0.78,1.79L922.9,248.56L922.9,248.56z"/>
	<path class="st2" d="M933.36,248.96v0.66h-6.2c0.06,0.93,0.34,1.63,0.83,2.12c0.51,0.48,1.2,0.73,2.09,0.73
		c0.52,0,1.02-0.07,1.5-0.19c0.49-0.12,0.97-0.31,1.45-0.57v1.27c-0.48,0.21-0.98,0.36-1.49,0.47s-1.03,0.16-1.55,0.16
		c-1.31,0-2.34-0.38-3.11-1.14c-0.76-0.76-1.14-1.79-1.14-3.09c0-1.34,0.36-2.41,1.08-3.19c0.73-0.79,1.71-1.19,2.94-1.19
		c1.11,0,1.98,0.36,2.61,1.07C933.04,246.78,933.36,247.73,933.36,248.96 M932.02,248.56c-0.01-0.74-0.22-1.33-0.62-1.77
		s-0.93-0.66-1.6-0.66c-0.75,0-1.35,0.21-1.81,0.64c-0.45,0.42-0.71,1.03-0.78,1.79L932.02,248.56L932.02,248.56z"/>
	<path class="st2" d="M942.53,248.45v4.95h-1.35v-4.91c0-0.78-0.15-1.35-0.45-1.74s-0.75-0.58-1.36-0.58c-0.73,0-1.3,0.23-1.72,0.7
		s-0.63,1.1-0.63,1.9v4.64h-1.35v-8.2h1.35v1.27c0.32-0.49,0.7-0.86,1.14-1.11c0.44-0.24,0.94-0.37,1.52-0.37
		c0.94,0,1.66,0.29,2.14,0.88C942.28,246.45,942.53,247.31,942.53,248.45L942.53,248.45z"/>
	<path class="st2" d="M951.4,243.68v4.11h1.86c0.69,0,1.22-0.18,1.6-0.53s0.56-0.86,0.56-1.52c0-0.65-0.19-1.16-0.56-1.52
		s-0.91-0.53-1.6-0.53H951.4 M949.93,242.46h3.34c1.22,0,2.15,0.28,2.78,0.83c0.63,0.55,0.94,1.36,0.94,2.43
		c0,1.08-0.31,1.9-0.94,2.45c-0.62,0.55-1.55,0.83-2.78,0.83h-1.86v4.39h-1.48V242.46L949.93,242.46z"/>
	<path class="st2" d="M967.23,243.3v1.56c-0.5-0.46-1.03-0.81-1.6-1.04s-1.16-0.34-1.79-0.34c-1.25,0-2.2,0.38-2.87,1.15
		c-0.67,0.76-1,1.87-1,3.31s0.33,2.54,1,3.31c0.67,0.76,1.62,1.14,2.87,1.14c0.64,0,1.23-0.12,1.79-0.34s1.1-0.58,1.6-1.04v1.55
		c-0.52,0.35-1.07,0.62-1.65,0.79s-1.19,0.26-1.83,0.26c-1.66,0-2.96-0.51-3.91-1.52c-0.95-1.02-1.43-2.4-1.43-4.15
		c0-1.76,0.48-3.14,1.43-4.15c0.95-1.02,2.26-1.52,3.91-1.52c0.65,0,1.27,0.09,1.85,0.26C966.18,242.7,966.73,242.96,967.23,243.3
		L967.23,243.3z"/>
	<path class="st2" d="M973.02,243.92l-2.01,5.44h4.02L973.02,243.92 M972.18,242.46h1.68l4.17,10.94h-1.54l-1-2.81h-4.93l-1,2.81
		h-1.56L972.18,242.46L972.18,242.46z"/>
	<path class="st2" d="M988.15,249.27c-1.09,0-1.85,0.12-2.26,0.37s-0.63,0.67-0.63,1.27c0,0.48,0.15,0.86,0.47,1.14
		c0.31,0.28,0.75,0.42,1.29,0.42c0.75,0,1.35-0.26,1.79-0.79c0.45-0.53,0.68-1.24,0.68-2.12v-0.3H988.15 M990.84,248.72v4.68h-1.35
		v-1.25c-0.31,0.5-0.69,0.86-1.15,1.11c-0.46,0.23-1.02,0.35-1.68,0.35c-0.84,0-1.51-0.23-2.01-0.7c-0.49-0.48-0.74-1.11-0.74-1.9
		c0-0.92,0.31-1.62,0.92-2.09c0.62-0.47,1.55-0.7,2.77-0.7h1.89v-0.13c0-0.62-0.21-1.1-0.62-1.44c-0.4-0.34-0.97-0.51-1.71-0.51
		c-0.47,0-0.92,0.06-1.37,0.17s-0.87,0.28-1.28,0.51v-1.25c0.49-0.19,0.97-0.33,1.44-0.42s0.92-0.15,1.35-0.15
		c1.19,0,2.07,0.31,2.66,0.92S990.84,247.46,990.84,248.72L990.84,248.72z"/>
	<path class="st2" d="M1000.37,248.45v4.95h-1.35v-4.91c0-0.78-0.15-1.35-0.45-1.74s-0.75-0.58-1.36-0.58c-0.73,0-1.3,0.23-1.72,0.7
		s-0.63,1.1-0.63,1.9v4.64h-1.35v-8.2h1.35v1.27c0.32-0.49,0.7-0.86,1.14-1.11c0.44-0.24,0.94-0.37,1.52-0.37
		c0.94,0,1.66,0.29,2.14,0.88C1000.12,246.45,1000.37,247.31,1000.37,248.45L1000.37,248.45z"/>
	<path class="st2" d="M1008.54,246.44V242h1.35v11.4h-1.35v-1.23c-0.29,0.49-0.64,0.85-1.08,1.09c-0.43,0.23-0.94,0.35-1.55,0.35
		c-0.99,0-1.8-0.4-2.42-1.19s-0.93-1.83-0.93-3.12s0.31-2.33,0.93-3.12s1.44-1.19,2.42-1.19c0.61,0,1.12,0.12,1.55,0.36
		C1007.9,245.59,1008.26,245.95,1008.54,246.44 M1003.95,249.3c0,0.99,0.21,1.77,0.61,2.34c0.41,0.56,0.97,0.84,1.68,0.84
		s1.27-0.28,1.68-0.84s0.62-1.35,0.62-2.34s-0.21-1.77-0.62-2.33s-0.97-0.85-1.68-0.85s-1.27,0.29-1.68,0.85
		C1004.16,247.54,1003.95,248.31,1003.95,249.3L1003.95,249.3z"/>
	<path class="st2" d="M1024.13,248.45v4.95h-1.35v-4.91c0-0.78-0.15-1.35-0.45-1.74s-0.75-0.58-1.36-0.58c-0.73,0-1.3,0.23-1.72,0.7
		s-0.63,1.1-0.63,1.9v4.64h-1.35v-8.2h1.35v1.27c0.32-0.49,0.7-0.86,1.14-1.11c0.44-0.24,0.94-0.37,1.52-0.37
		c0.94,0,1.66,0.29,2.14,0.88C1023.88,246.45,1024.13,247.31,1024.13,248.45L1024.13,248.45z"/>
	<path class="st2" d="M1030.09,246.14c-0.73,0-1.3,0.29-1.71,0.85s-0.63,1.33-0.63,2.31s0.21,1.76,0.62,2.32s1,0.84,1.72,0.84
		c0.72,0,1.29-0.29,1.71-0.85s0.63-1.34,0.63-2.31s-0.21-1.74-0.63-2.31C1031.37,246.42,1030.8,246.14,1030.09,246.14 M1030.09,245
		c1.17,0,2.09,0.38,2.76,1.14s1,1.82,1,3.16c0,1.34-0.34,2.4-1,3.16c-0.67,0.76-1.59,1.14-2.76,1.14c-1.18,0-2.1-0.38-2.77-1.14
		c-0.67-0.77-1-1.82-1-3.16c0-1.35,0.33-2.4,1-3.16S1028.91,245,1030.09,245L1030.09,245z"/>
	<path class="st2" d="M1040.78,246.45c-0.15-0.09-0.31-0.15-0.5-0.19c-0.18-0.04-0.37-0.07-0.59-0.07c-0.76,0-1.35,0.25-1.76,0.75
		c-0.4,0.49-0.61,1.2-0.61,2.13v4.32h-1.35v-8.2h1.35v1.27c0.29-0.5,0.65-0.86,1.11-1.11s1-0.37,1.66-0.37c0.1,0,0.2,0.01,0.31,0.02
		c0.11,0.01,0.23,0.03,0.37,0.05L1040.78,246.45L1040.78,246.45z"/>
	<path class="st2" d="M1048.41,246.77c0.34-0.61,0.74-1.05,1.21-1.34s1.02-0.43,1.66-0.43c0.86,0,1.52,0.3,1.98,0.9
		c0.46,0.59,0.7,1.44,0.7,2.55v4.95h-1.35v-4.91c0-0.78-0.14-1.37-0.42-1.75s-0.7-0.57-1.27-0.57c-0.7,0-1.25,0.23-1.66,0.7
		s-0.61,1.1-0.61,1.9v4.64h-1.35v-4.91c0-0.79-0.14-1.38-0.42-1.75c-0.28-0.38-0.71-0.57-1.29-0.57c-0.69,0-1.24,0.23-1.64,0.7
		c-0.4,0.46-0.61,1.09-0.61,1.89v4.64h-1.35v-8.2h1.35v1.27c0.31-0.51,0.67-0.87,1.11-1.11s0.94-0.36,1.53-0.36s1.1,0.15,1.52,0.45
		S1048.22,246.19,1048.41,246.77L1048.41,246.77z"/>
	<path class="st2" d="M1060.39,249.27c-1.09,0-1.85,0.12-2.26,0.37s-0.63,0.67-0.63,1.27c0,0.48,0.15,0.86,0.47,1.14
		c0.31,0.28,0.75,0.42,1.29,0.42c0.75,0,1.35-0.26,1.79-0.79c0.45-0.53,0.68-1.24,0.68-2.12v-0.3H1060.39 M1063.08,248.72v4.68
		h-1.35v-1.25c-0.31,0.5-0.69,0.86-1.15,1.11c-0.46,0.23-1.02,0.35-1.68,0.35c-0.84,0-1.51-0.23-2.01-0.7
		c-0.49-0.48-0.74-1.11-0.74-1.9c0-0.92,0.31-1.62,0.92-2.09c0.62-0.47,1.55-0.7,2.77-0.7h1.89v-0.13c0-0.62-0.21-1.1-0.62-1.44
		c-0.4-0.34-0.97-0.51-1.71-0.51c-0.47,0-0.92,0.06-1.37,0.17s-0.87,0.28-1.28,0.51v-1.25c0.49-0.19,0.97-0.33,1.44-0.42
		s0.92-0.15,1.35-0.15c1.19,0,2.07,0.31,2.66,0.92S1063.08,247.46,1063.08,248.72L1063.08,248.72z"/>
	<polygon class="st2" points="1065.79,242 1067.13,242 1067.13,253.4 1065.79,253.4 1065.79,242 	"/>
	<path class="st2" d="M1076,242.86v2.33h2.78v1.05H1076v4.45c0,0.67,0.09,1.1,0.27,1.29s0.56,0.29,1.12,0.29h1.38v1.13h-1.38
		c-1.04,0-1.76-0.19-2.15-0.58s-0.59-1.1-0.59-2.12v-4.45h-0.99v-1.05h0.99v-2.33H1076L1076,242.86z"/>
	<path class="st2" d="M1085.42,246.45c-0.15-0.09-0.31-0.15-0.5-0.19c-0.18-0.04-0.37-0.07-0.59-0.07c-0.76,0-1.35,0.25-1.76,0.75
		c-0.4,0.49-0.61,1.2-0.61,2.13v4.32h-1.35v-8.2h1.35v1.27c0.29-0.5,0.65-0.86,1.11-1.11s1-0.37,1.66-0.37c0.1,0,0.2,0.01,0.31,0.02
		c0.11,0.01,0.23,0.03,0.37,0.05L1085.42,246.45L1085.42,246.45z"/>
	<path class="st2" d="M1090.63,249.27c-1.09,0-1.85,0.12-2.26,0.37s-0.63,0.67-0.63,1.27c0,0.48,0.15,0.86,0.47,1.14
		c0.31,0.28,0.75,0.42,1.29,0.42c0.75,0,1.35-0.26,1.79-0.79c0.45-0.53,0.68-1.24,0.68-2.12v-0.3H1090.63 M1093.32,248.72v4.68
		h-1.35v-1.25c-0.31,0.5-0.69,0.86-1.15,1.11c-0.46,0.23-1.02,0.35-1.68,0.35c-0.84,0-1.51-0.23-2.01-0.7
		c-0.49-0.48-0.74-1.11-0.74-1.9c0-0.92,0.31-1.62,0.92-2.09c0.62-0.47,1.55-0.7,2.77-0.7h1.89v-0.13c0-0.62-0.21-1.1-0.62-1.44
		c-0.4-0.34-0.97-0.51-1.71-0.51c-0.47,0-0.92,0.06-1.37,0.17s-0.87,0.28-1.28,0.51v-1.25c0.49-0.19,0.97-0.33,1.44-0.42
		s0.92-0.15,1.35-0.15c1.19,0,2.07,0.31,2.66,0.92S1093.32,247.46,1093.32,248.72L1093.32,248.72z"/>
	<path class="st2" d="M1096.03,245.19h1.35v8.2h-1.35V245.19 M1096.03,242h1.35v1.71h-1.35V242L1096.03,242z"/>
	<path class="st2" d="M1106.93,248.45v4.95h-1.35v-4.91c0-0.78-0.15-1.35-0.45-1.74s-0.75-0.58-1.36-0.58c-0.73,0-1.3,0.23-1.72,0.7
		s-0.63,1.1-0.63,1.9v4.64h-1.35v-8.2h1.35v1.27c0.32-0.49,0.7-0.86,1.14-1.11c0.44-0.24,0.94-0.37,1.52-0.37
		c0.94,0,1.66,0.29,2.14,0.88C1106.68,246.45,1106.93,247.31,1106.93,248.45L1106.93,248.45z"/>
	<path class="st2" d="M1109.71,245.19h1.35v8.2h-1.35V245.19 M1109.71,242h1.35v1.71h-1.35V242L1109.71,242z"/>
	<path class="st2" d="M1120.61,248.45v4.95h-1.35v-4.91c0-0.78-0.15-1.35-0.45-1.74s-0.75-0.58-1.36-0.58c-0.73,0-1.3,0.23-1.72,0.7
		s-0.63,1.1-0.63,1.9v4.64h-1.35v-8.2h1.35v1.27c0.32-0.49,0.7-0.86,1.14-1.11c0.44-0.24,0.94-0.37,1.52-0.37
		c0.94,0,1.66,0.29,2.14,0.88C1120.36,246.45,1120.61,247.31,1120.61,248.45L1120.61,248.45z"/>
	<path class="st2" d="M1128.78,249.2c0-0.97-0.21-1.74-0.61-2.27s-0.97-0.81-1.69-0.81s-1.29,0.27-1.69,0.81s-0.6,1.3-0.6,2.27
		s0.2,1.73,0.6,2.26s0.97,0.81,1.69,0.81s1.29-0.27,1.69-0.81S1128.78,250.17,1128.78,249.2 M1130.13,252.38
		c0,1.4-0.31,2.43-0.93,3.11s-1.57,1.03-2.85,1.03c-0.48,0-0.92-0.04-1.34-0.11c-0.42-0.07-0.83-0.18-1.22-0.32v-1.31
		c0.4,0.21,0.78,0.37,1.17,0.48s0.78,0.15,1.18,0.15c0.89,0,1.55-0.23,1.98-0.7s0.66-1.16,0.66-2.09v-0.67
		c-0.28,0.48-0.64,0.84-1.07,1.08s-0.95,0.36-1.56,0.36c-1,0-1.82-0.38-2.43-1.15s-0.92-1.78-0.92-3.05s0.31-2.29,0.92-3.05
		s1.43-1.15,2.43-1.15c0.61,0,1.13,0.12,1.56,0.36s0.79,0.6,1.07,1.08v-1.25h1.35V252.38L1130.13,252.38z"/>
	<path class="st8" d="M1411.52,315.53h122.78c2,0,3-1,3-3V270c0-2-1-3-3-3h-122.78c-2,0-3,1-3,3v42.53
		C1408.52,314.53,1409.52,315.53,1411.52,315.53L1411.52,315.53z"/>
	<polyline class="st3" points="1414.52,279.14 1429.52,279.14 1444.52,279.14 	"/>
	<rect x="1429.02" y="278.64" class="st4" width="1" height="1"/>
	<polygon class="st2" points="1458.01,273.42 1459.48,273.42 1459.48,283.11 1464.81,283.11 1464.81,284.36 1458.01,284.36 
		1458.01,273.42 	"/>
	<path class="st2" d="M1472.96,273.78v1.44c-0.56-0.27-1.09-0.47-1.59-0.6s-0.98-0.2-1.44-0.2c-0.81,0-1.43,0.15-1.87,0.47
		c-0.43,0.31-0.65,0.75-0.65,1.33c0,0.48,0.15,0.85,0.43,1.1c0.29,0.24,0.84,0.44,1.66,0.59l0.89,0.18
		c1.11,0.21,1.92,0.58,2.44,1.11c0.53,0.53,0.79,1.24,0.79,2.12c0,1.06-0.36,1.86-1.07,2.41s-1.75,0.82-3.12,0.82
		c-0.52,0-1.07-0.06-1.66-0.18c-0.58-0.12-1.19-0.29-1.81-0.52v-1.52c0.6,0.34,1.19,0.59,1.77,0.76s1.14,0.26,1.7,0.26
		c0.84,0,1.49-0.17,1.96-0.5s0.69-0.81,0.69-1.42c0-0.53-0.17-0.96-0.5-1.26s-0.86-0.53-1.62-0.68l-0.9-0.18
		c-1.11-0.22-1.9-0.56-2.4-1.03s-0.74-1.12-0.74-1.96c0-0.97,0.34-1.73,1.02-2.29s1.63-0.83,2.82-0.83c0.51,0,1.03,0.04,1.57,0.14
		S1472.4,273.6,1472.96,273.78L1472.96,273.78z"/>
	<polygon class="st2" points="1474.25,273.42 1483.5,273.42 1483.5,274.67 1479.62,274.67 1479.62,284.36 1478.13,284.36 
		1478.13,274.67 1474.25,274.67 1474.25,273.42 	"/>
	<polygon class="st2" points="1485.12,273.42 1487.33,273.42 1490.12,280.86 1492.93,273.42 1495.13,273.42 1495.13,284.36 
		1493.69,284.36 1493.69,274.75 1490.87,282.25 1489.38,282.25 1486.56,274.75 1486.56,284.36 1485.12,284.36 1485.12,273.42 	"/>
	<polyline class="st5" points="1414.52,301.15 1429.52,301.15 1444.52,301.15 	"/>
	<path class="st6" d="M1429.52,301.15v6.5 M1429.52,301.15l5.2-3.25 M1429.52,301.15l-5.2-3.25"/>
	<path class="st2" d="M1459.48,296.72v4.11h1.86c0.69,0,1.22-0.18,1.6-0.53s0.56-0.86,0.56-1.52c0-0.65-0.19-1.16-0.56-1.52
		s-0.91-0.53-1.6-0.53H1459.48 M1458.01,295.5h3.34c1.22,0,2.15,0.28,2.78,0.83c0.63,0.55,0.94,1.36,0.94,2.43
		c0,1.08-0.31,1.9-0.94,2.45c-0.62,0.55-1.55,0.83-2.78,0.83h-1.86v4.39h-1.48V295.5L1458.01,295.5z"/>
	<path class="st2" d="M1475.31,296.34v1.56c-0.5-0.46-1.03-0.81-1.6-1.04s-1.16-0.34-1.79-0.34c-1.25,0-2.2,0.38-2.87,1.15
		c-0.67,0.76-1,1.87-1,3.31s0.33,2.54,1,3.31c0.67,0.76,1.62,1.14,2.87,1.14c0.64,0,1.23-0.12,1.79-0.34s1.1-0.58,1.6-1.04v1.55
		c-0.52,0.35-1.07,0.62-1.65,0.79s-1.19,0.26-1.83,0.26c-1.66,0-2.96-0.51-3.91-1.52c-0.95-1.02-1.43-2.4-1.43-4.15
		c0-1.76,0.48-3.14,1.43-4.15c0.95-1.02,2.26-1.52,3.91-1.52c0.65,0,1.27,0.09,1.85,0.26C1474.26,295.74,1474.81,296,1475.31,296.34
		L1475.31,296.34z"/>
	<path class="st2" d="M1481.1,296.96l-2.01,5.44h4.02L1481.1,296.96 M1480.26,295.5h1.68l4.17,10.94h-1.54l-1-2.81h-4.93l-1,2.81
		h-1.56L1480.26,295.5L1480.26,295.5z"/>
	<polygon class="st2" points="1486.55,301.73 1490.49,301.73 1490.49,302.93 1486.55,302.93 1486.55,301.73 	"/>
	<polygon class="st2" points="1492.81,295.5 1494.28,295.5 1494.28,305.19 1499.61,305.19 1499.61,306.44 1492.81,306.44 
		1492.81,295.5 	"/>
	<path class="st2" d="M1507.76,295.86v1.44c-0.56-0.27-1.09-0.47-1.59-0.6s-0.98-0.2-1.44-0.2c-0.81,0-1.43,0.15-1.87,0.47
		c-0.43,0.31-0.65,0.75-0.65,1.33c0,0.48,0.15,0.85,0.43,1.1c0.29,0.24,0.84,0.44,1.66,0.59l0.89,0.18
		c1.11,0.21,1.92,0.58,2.44,1.11c0.53,0.53,0.79,1.24,0.79,2.12c0,1.06-0.36,1.86-1.07,2.41s-1.75,0.82-3.12,0.82
		c-0.52,0-1.07-0.06-1.66-0.18c-0.58-0.12-1.19-0.29-1.81-0.52v-1.52c0.6,0.34,1.19,0.59,1.77,0.76s1.14,0.26,1.7,0.26
		c0.84,0,1.49-0.17,1.96-0.5s0.69-0.81,0.69-1.42c0-0.53-0.17-0.96-0.5-1.26s-0.86-0.53-1.62-0.68l-0.9-0.18
		c-1.11-0.22-1.9-0.56-2.4-1.03s-0.74-1.12-0.74-1.96c0-0.97,0.34-1.73,1.02-2.29s1.63-0.83,2.82-0.83c0.51,0,1.03,0.04,1.57,0.14
		S1507.2,295.68,1507.76,295.86L1507.76,295.86z"/>
	<polygon class="st2" points="1509.29,295.5 1518.54,295.5 1518.54,296.75 1514.66,296.75 1514.66,306.44 1513.17,306.44 
		1513.17,296.75 1509.29,296.75 1509.29,295.5 	"/>
	<polygon class="st2" points="1519.93,295.5 1522.13,295.5 1524.92,302.94 1527.73,295.5 1529.93,295.5 1529.93,306.44 
		1528.49,306.44 1528.49,296.83 1525.67,304.33 1524.18,304.33 1521.36,296.83 1521.36,306.44 1519.93,306.44 1519.93,295.5 	"/>
</g>
</svg>
