<?xml version="1.0" encoding="utf-8" standalone="no"?>
<!DOCTYPE svg PUBLIC "-//W3C//DTD SVG 1.1//EN"
  "http://www.w3.org/Graphics/SVG/1.1/DTD/svg11.dtd">
<svg xmlns:xlink="http://www.w3.org/1999/xlink" width="1184.545313pt" height="610.592969pt" viewBox="0 0 1184.545313 610.592969" xmlns="http://www.w3.org/2000/svg" version="1.1">
 <metadata>
  <rdf:RDF xmlns:dc="http://purl.org/dc/elements/1.1/" xmlns:cc="http://creativecommons.org/ns#" xmlns:rdf="http://www.w3.org/1999/02/22-rdf-syntax-ns#">
   <cc:Work>
    <dc:type rdf:resource="http://purl.org/dc/dcmitype/StillImage"/>
    <dc:date>2022-07-13T13:24:48.128432</dc:date>
    <dc:format>image/svg+xml</dc:format>
    <dc:creator>
     <cc:Agent>
      <dc:title>Matplotlib v3.5.2, https://matplotlib.org/</dc:title>
     </cc:Agent>
    </dc:creator>
   </cc:Work>
  </rdf:RDF>
 </metadata>
 <defs>
  <style type="text/css">*{stroke-linejoin: round; stroke-linecap: butt}</style>
 </defs>
 <g id="figure_1">
  <g id="patch_1">
   <path d="M -0 610.592969 
L 1184.545313 610.592969 
L 1184.545313 0 
L -0 0 
L -0 610.592969 
z
" style="fill: none"/>
  </g>
  <g id="axes_1">
   <g id="patch_2">
    <path d="M 61.345313 568.197656 
L 1177.345313 568.197656 
L 1177.345313 24.597656 
L 61.345313 24.597656 
z
" style="fill: #ffffff"/>
   </g>
   <g id="matplotlib.axis_1">
    <g id="xtick_1">
     <g id="line2d_1">
      <defs>
       <path id="m278b190fdf" d="M 0 0 
L 0 3.5 
" style="stroke: #000000; stroke-width: 0.8"/>
      </defs>
      <g>
       <use xlink:href="#m278b190fdf" x="112.072585" y="568.197656" style="stroke: #000000; stroke-width: 0.8"/>
      </g>
     </g>
     <g id="text_1">
      <!-- 0 -->
      <g transform="translate(108.891335 582.796094)scale(0.1 -0.1)">
       <defs>
        <path id="DejaVuSans-30" d="M 2034 4250 
Q 1547 4250 1301 3770 
Q 1056 3291 1056 2328 
Q 1056 1369 1301 889 
Q 1547 409 2034 409 
Q 2525 409 2770 889 
Q 3016 1369 3016 2328 
Q 3016 3291 2770 3770 
Q 2525 4250 2034 4250 
z
M 2034 4750 
Q 2819 4750 3233 4129 
Q 3647 3509 3647 2328 
Q 3647 1150 3233 529 
Q 2819 -91 2034 -91 
Q 1250 -91 836 529 
Q 422 1150 422 2328 
Q 422 3509 836 4129 
Q 1250 4750 2034 4750 
z
" transform="scale(0.015625)"/>
       </defs>
       <use xlink:href="#DejaVuSans-30"/>
      </g>
     </g>
    </g>
    <g id="xtick_2">
     <g id="line2d_2">
      <g>
       <use xlink:href="#m278b190fdf" x="239.528044" y="568.197656" style="stroke: #000000; stroke-width: 0.8"/>
      </g>
     </g>
     <g id="text_2">
      <!-- 25 -->
      <g transform="translate(233.165544 582.796094)scale(0.1 -0.1)">
       <defs>
        <path id="DejaVuSans-32" d="M 1228 531 
L 3431 531 
L 3431 0 
L 469 0 
L 469 531 
Q 828 903 1448 1529 
Q 2069 2156 2228 2338 
Q 2531 2678 2651 2914 
Q 2772 3150 2772 3378 
Q 2772 3750 2511 3984 
Q 2250 4219 1831 4219 
Q 1534 4219 1204 4116 
Q 875 4013 500 3803 
L 500 4441 
Q 881 4594 1212 4672 
Q 1544 4750 1819 4750 
Q 2544 4750 2975 4387 
Q 3406 4025 3406 3419 
Q 3406 3131 3298 2873 
Q 3191 2616 2906 2266 
Q 2828 2175 2409 1742 
Q 1991 1309 1228 531 
z
" transform="scale(0.015625)"/>
        <path id="DejaVuSans-35" d="M 691 4666 
L 3169 4666 
L 3169 4134 
L 1269 4134 
L 1269 2991 
Q 1406 3038 1543 3061 
Q 1681 3084 1819 3084 
Q 2600 3084 3056 2656 
Q 3513 2228 3513 1497 
Q 3513 744 3044 326 
Q 2575 -91 1722 -91 
Q 1428 -91 1123 -41 
Q 819 9 494 109 
L 494 744 
Q 775 591 1075 516 
Q 1375 441 1709 441 
Q 2250 441 2565 725 
Q 2881 1009 2881 1497 
Q 2881 1984 2565 2268 
Q 2250 2553 1709 2553 
Q 1456 2553 1204 2497 
Q 953 2441 691 2322 
L 691 4666 
z
" transform="scale(0.015625)"/>
       </defs>
       <use xlink:href="#DejaVuSans-32"/>
       <use xlink:href="#DejaVuSans-35" x="63.623047"/>
      </g>
     </g>
    </g>
    <g id="xtick_3">
     <g id="line2d_3">
      <g>
       <use xlink:href="#m278b190fdf" x="366.983503" y="568.197656" style="stroke: #000000; stroke-width: 0.8"/>
      </g>
     </g>
     <g id="text_3">
      <!-- 50 -->
      <g transform="translate(360.621003 582.796094)scale(0.1 -0.1)">
       <use xlink:href="#DejaVuSans-35"/>
       <use xlink:href="#DejaVuSans-30" x="63.623047"/>
      </g>
     </g>
    </g>
    <g id="xtick_4">
     <g id="line2d_4">
      <g>
       <use xlink:href="#m278b190fdf" x="494.438963" y="568.197656" style="stroke: #000000; stroke-width: 0.8"/>
      </g>
     </g>
     <g id="text_4">
      <!-- 75 -->
      <g transform="translate(488.076463 582.796094)scale(0.1 -0.1)">
       <defs>
        <path id="DejaVuSans-37" d="M 525 4666 
L 3525 4666 
L 3525 4397 
L 1831 0 
L 1172 0 
L 2766 4134 
L 525 4134 
L 525 4666 
z
" transform="scale(0.015625)"/>
       </defs>
       <use xlink:href="#DejaVuSans-37"/>
       <use xlink:href="#DejaVuSans-35" x="63.623047"/>
      </g>
     </g>
    </g>
    <g id="xtick_5">
     <g id="line2d_5">
      <g>
       <use xlink:href="#m278b190fdf" x="621.894422" y="568.197656" style="stroke: #000000; stroke-width: 0.8"/>
      </g>
     </g>
     <g id="text_5">
      <!-- 100 -->
      <g transform="translate(612.350672 582.796094)scale(0.1 -0.1)">
       <defs>
        <path id="DejaVuSans-31" d="M 794 531 
L 1825 531 
L 1825 4091 
L 703 3866 
L 703 4441 
L 1819 4666 
L 2450 4666 
L 2450 531 
L 3481 531 
L 3481 0 
L 794 0 
L 794 531 
z
" transform="scale(0.015625)"/>
       </defs>
       <use xlink:href="#DejaVuSans-31"/>
       <use xlink:href="#DejaVuSans-30" x="63.623047"/>
       <use xlink:href="#DejaVuSans-30" x="127.246094"/>
      </g>
     </g>
    </g>
    <g id="xtick_6">
     <g id="line2d_6">
      <g>
       <use xlink:href="#m278b190fdf" x="749.349881" y="568.197656" style="stroke: #000000; stroke-width: 0.8"/>
      </g>
     </g>
     <g id="text_6">
      <!-- 125 -->
      <g transform="translate(739.806131 582.796094)scale(0.1 -0.1)">
       <use xlink:href="#DejaVuSans-31"/>
       <use xlink:href="#DejaVuSans-32" x="63.623047"/>
       <use xlink:href="#DejaVuSans-35" x="127.246094"/>
      </g>
     </g>
    </g>
    <g id="xtick_7">
     <g id="line2d_7">
      <g>
       <use xlink:href="#m278b190fdf" x="876.80534" y="568.197656" style="stroke: #000000; stroke-width: 0.8"/>
      </g>
     </g>
     <g id="text_7">
      <!-- 150 -->
      <g transform="translate(867.26159 582.796094)scale(0.1 -0.1)">
       <use xlink:href="#DejaVuSans-31"/>
       <use xlink:href="#DejaVuSans-35" x="63.623047"/>
       <use xlink:href="#DejaVuSans-30" x="127.246094"/>
      </g>
     </g>
    </g>
    <g id="xtick_8">
     <g id="line2d_8">
      <g>
       <use xlink:href="#m278b190fdf" x="1004.260799" y="568.197656" style="stroke: #000000; stroke-width: 0.8"/>
      </g>
     </g>
     <g id="text_8">
      <!-- 175 -->
      <g transform="translate(994.717049 582.796094)scale(0.1 -0.1)">
       <use xlink:href="#DejaVuSans-31"/>
       <use xlink:href="#DejaVuSans-37" x="63.623047"/>
       <use xlink:href="#DejaVuSans-35" x="127.246094"/>
      </g>
     </g>
    </g>
    <g id="xtick_9">
     <g id="line2d_9">
      <g>
       <use xlink:href="#m278b190fdf" x="1131.716258" y="568.197656" style="stroke: #000000; stroke-width: 0.8"/>
      </g>
     </g>
     <g id="text_9">
      <!-- 200 -->
      <g transform="translate(1122.172508 582.796094)scale(0.1 -0.1)">
       <use xlink:href="#DejaVuSans-32"/>
       <use xlink:href="#DejaVuSans-30" x="63.623047"/>
       <use xlink:href="#DejaVuSans-30" x="127.246094"/>
      </g>
     </g>
    </g>
    <g id="text_10">
     <!-- epochs -->
     <g transform="translate(592.596094 600.273438)scale(0.15 -0.15)">
      <defs>
       <path id="DejaVuSans-65" d="M 3597 1894 
L 3597 1613 
L 953 1613 
Q 991 1019 1311 708 
Q 1631 397 2203 397 
Q 2534 397 2845 478 
Q 3156 559 3463 722 
L 3463 178 
Q 3153 47 2828 -22 
Q 2503 -91 2169 -91 
Q 1331 -91 842 396 
Q 353 884 353 1716 
Q 353 2575 817 3079 
Q 1281 3584 2069 3584 
Q 2775 3584 3186 3129 
Q 3597 2675 3597 1894 
z
M 3022 2063 
Q 3016 2534 2758 2815 
Q 2500 3097 2075 3097 
Q 1594 3097 1305 2825 
Q 1016 2553 972 2059 
L 3022 2063 
z
" transform="scale(0.015625)"/>
       <path id="DejaVuSans-70" d="M 1159 525 
L 1159 -1331 
L 581 -1331 
L 581 3500 
L 1159 3500 
L 1159 2969 
Q 1341 3281 1617 3432 
Q 1894 3584 2278 3584 
Q 2916 3584 3314 3078 
Q 3713 2572 3713 1747 
Q 3713 922 3314 415 
Q 2916 -91 2278 -91 
Q 1894 -91 1617 61 
Q 1341 213 1159 525 
z
M 3116 1747 
Q 3116 2381 2855 2742 
Q 2594 3103 2138 3103 
Q 1681 3103 1420 2742 
Q 1159 2381 1159 1747 
Q 1159 1113 1420 752 
Q 1681 391 2138 391 
Q 2594 391 2855 752 
Q 3116 1113 3116 1747 
z
" transform="scale(0.015625)"/>
       <path id="DejaVuSans-6f" d="M 1959 3097 
Q 1497 3097 1228 2736 
Q 959 2375 959 1747 
Q 959 1119 1226 758 
Q 1494 397 1959 397 
Q 2419 397 2687 759 
Q 2956 1122 2956 1747 
Q 2956 2369 2687 2733 
Q 2419 3097 1959 3097 
z
M 1959 3584 
Q 2709 3584 3137 3096 
Q 3566 2609 3566 1747 
Q 3566 888 3137 398 
Q 2709 -91 1959 -91 
Q 1206 -91 779 398 
Q 353 888 353 1747 
Q 353 2609 779 3096 
Q 1206 3584 1959 3584 
z
" transform="scale(0.015625)"/>
       <path id="DejaVuSans-63" d="M 3122 3366 
L 3122 2828 
Q 2878 2963 2633 3030 
Q 2388 3097 2138 3097 
Q 1578 3097 1268 2742 
Q 959 2388 959 1747 
Q 959 1106 1268 751 
Q 1578 397 2138 397 
Q 2388 397 2633 464 
Q 2878 531 3122 666 
L 3122 134 
Q 2881 22 2623 -34 
Q 2366 -91 2075 -91 
Q 1284 -91 818 406 
Q 353 903 353 1747 
Q 353 2603 823 3093 
Q 1294 3584 2113 3584 
Q 2378 3584 2631 3529 
Q 2884 3475 3122 3366 
z
" transform="scale(0.015625)"/>
       <path id="DejaVuSans-68" d="M 3513 2113 
L 3513 0 
L 2938 0 
L 2938 2094 
Q 2938 2591 2744 2837 
Q 2550 3084 2163 3084 
Q 1697 3084 1428 2787 
Q 1159 2491 1159 1978 
L 1159 0 
L 581 0 
L 581 4863 
L 1159 4863 
L 1159 2956 
Q 1366 3272 1645 3428 
Q 1925 3584 2291 3584 
Q 2894 3584 3203 3211 
Q 3513 2838 3513 2113 
z
" transform="scale(0.015625)"/>
       <path id="DejaVuSans-73" d="M 2834 3397 
L 2834 2853 
Q 2591 2978 2328 3040 
Q 2066 3103 1784 3103 
Q 1356 3103 1142 2972 
Q 928 2841 928 2578 
Q 928 2378 1081 2264 
Q 1234 2150 1697 2047 
L 1894 2003 
Q 2506 1872 2764 1633 
Q 3022 1394 3022 966 
Q 3022 478 2636 193 
Q 2250 -91 1575 -91 
Q 1294 -91 989 -36 
Q 684 19 347 128 
L 347 722 
Q 666 556 975 473 
Q 1284 391 1588 391 
Q 1994 391 2212 530 
Q 2431 669 2431 922 
Q 2431 1156 2273 1281 
Q 2116 1406 1581 1522 
L 1381 1569 
Q 847 1681 609 1914 
Q 372 2147 372 2553 
Q 372 3047 722 3315 
Q 1072 3584 1716 3584 
Q 2034 3584 2315 3537 
Q 2597 3491 2834 3397 
z
" transform="scale(0.015625)"/>
      </defs>
      <use xlink:href="#DejaVuSans-65"/>
      <use xlink:href="#DejaVuSans-70" x="61.523438"/>
      <use xlink:href="#DejaVuSans-6f" x="125"/>
      <use xlink:href="#DejaVuSans-63" x="186.181641"/>
      <use xlink:href="#DejaVuSans-68" x="241.162109"/>
      <use xlink:href="#DejaVuSans-73" x="304.541016"/>
     </g>
    </g>
   </g>
   <g id="matplotlib.axis_2">
    <g id="ytick_1">
     <g id="line2d_10">
      <defs>
       <path id="m7e5a7348c6" d="M 0 0 
L -3.5 0 
" style="stroke: #000000; stroke-width: 0.8"/>
      </defs>
      <g>
       <use xlink:href="#m7e5a7348c6" x="61.345313" y="500.672937" style="stroke: #000000; stroke-width: 0.8"/>
      </g>
     </g>
     <g id="text_11">
      <!-- 0.005 -->
      <g transform="translate(25.717188 504.472155)scale(0.1 -0.1)">
       <defs>
        <path id="DejaVuSans-2e" d="M 684 794 
L 1344 794 
L 1344 0 
L 684 0 
L 684 794 
z
" transform="scale(0.015625)"/>
       </defs>
       <use xlink:href="#DejaVuSans-30"/>
       <use xlink:href="#DejaVuSans-2e" x="63.623047"/>
       <use xlink:href="#DejaVuSans-30" x="95.410156"/>
       <use xlink:href="#DejaVuSans-30" x="159.033203"/>
       <use xlink:href="#DejaVuSans-35" x="222.65625"/>
      </g>
     </g>
    </g>
    <g id="ytick_2">
     <g id="line2d_11">
      <g>
       <use xlink:href="#m7e5a7348c6" x="61.345313" y="422.023298" style="stroke: #000000; stroke-width: 0.8"/>
      </g>
     </g>
     <g id="text_12">
      <!-- 0.010 -->
      <g transform="translate(25.717188 425.822517)scale(0.1 -0.1)">
       <use xlink:href="#DejaVuSans-30"/>
       <use xlink:href="#DejaVuSans-2e" x="63.623047"/>
       <use xlink:href="#DejaVuSans-30" x="95.410156"/>
       <use xlink:href="#DejaVuSans-31" x="159.033203"/>
       <use xlink:href="#DejaVuSans-30" x="222.65625"/>
      </g>
     </g>
    </g>
    <g id="ytick_3">
     <g id="line2d_12">
      <g>
       <use xlink:href="#m7e5a7348c6" x="61.345313" y="343.37366" style="stroke: #000000; stroke-width: 0.8"/>
      </g>
     </g>
     <g id="text_13">
      <!-- 0.015 -->
      <g transform="translate(25.717188 347.172879)scale(0.1 -0.1)">
       <use xlink:href="#DejaVuSans-30"/>
       <use xlink:href="#DejaVuSans-2e" x="63.623047"/>
       <use xlink:href="#DejaVuSans-30" x="95.410156"/>
       <use xlink:href="#DejaVuSans-31" x="159.033203"/>
       <use xlink:href="#DejaVuSans-35" x="222.65625"/>
      </g>
     </g>
    </g>
    <g id="ytick_4">
     <g id="line2d_13">
      <g>
       <use xlink:href="#m7e5a7348c6" x="61.345313" y="264.724022" style="stroke: #000000; stroke-width: 0.8"/>
      </g>
     </g>
     <g id="text_14">
      <!-- 0.020 -->
      <g transform="translate(25.717188 268.523241)scale(0.1 -0.1)">
       <use xlink:href="#DejaVuSans-30"/>
       <use xlink:href="#DejaVuSans-2e" x="63.623047"/>
       <use xlink:href="#DejaVuSans-30" x="95.410156"/>
       <use xlink:href="#DejaVuSans-32" x="159.033203"/>
       <use xlink:href="#DejaVuSans-30" x="222.65625"/>
      </g>
     </g>
    </g>
    <g id="ytick_5">
     <g id="line2d_14">
      <g>
       <use xlink:href="#m7e5a7348c6" x="61.345313" y="186.074384" style="stroke: #000000; stroke-width: 0.8"/>
      </g>
     </g>
     <g id="text_15">
      <!-- 0.025 -->
      <g transform="translate(25.717188 189.873603)scale(0.1 -0.1)">
       <use xlink:href="#DejaVuSans-30"/>
       <use xlink:href="#DejaVuSans-2e" x="63.623047"/>
       <use xlink:href="#DejaVuSans-30" x="95.410156"/>
       <use xlink:href="#DejaVuSans-32" x="159.033203"/>
       <use xlink:href="#DejaVuSans-35" x="222.65625"/>
      </g>
     </g>
    </g>
    <g id="ytick_6">
     <g id="line2d_15">
      <g>
       <use xlink:href="#m7e5a7348c6" x="61.345313" y="107.424746" style="stroke: #000000; stroke-width: 0.8"/>
      </g>
     </g>
     <g id="text_16">
      <!-- 0.030 -->
      <g transform="translate(25.717188 111.223965)scale(0.1 -0.1)">
       <defs>
        <path id="DejaVuSans-33" d="M 2597 2516 
Q 3050 2419 3304 2112 
Q 3559 1806 3559 1356 
Q 3559 666 3084 287 
Q 2609 -91 1734 -91 
Q 1441 -91 1130 -33 
Q 819 25 488 141 
L 488 750 
Q 750 597 1062 519 
Q 1375 441 1716 441 
Q 2309 441 2620 675 
Q 2931 909 2931 1356 
Q 2931 1769 2642 2001 
Q 2353 2234 1838 2234 
L 1294 2234 
L 1294 2753 
L 1863 2753 
Q 2328 2753 2575 2939 
Q 2822 3125 2822 3475 
Q 2822 3834 2567 4026 
Q 2313 4219 1838 4219 
Q 1578 4219 1281 4162 
Q 984 4106 628 3988 
L 628 4550 
Q 988 4650 1302 4700 
Q 1616 4750 1894 4750 
Q 2613 4750 3031 4423 
Q 3450 4097 3450 3541 
Q 3450 3153 3228 2886 
Q 3006 2619 2597 2516 
z
" transform="scale(0.015625)"/>
       </defs>
       <use xlink:href="#DejaVuSans-30"/>
       <use xlink:href="#DejaVuSans-2e" x="63.623047"/>
       <use xlink:href="#DejaVuSans-30" x="95.410156"/>
       <use xlink:href="#DejaVuSans-33" x="159.033203"/>
       <use xlink:href="#DejaVuSans-30" x="222.65625"/>
      </g>
     </g>
    </g>
    <g id="ytick_7">
     <g id="line2d_16">
      <g>
       <use xlink:href="#m7e5a7348c6" x="61.345313" y="28.775108" style="stroke: #000000; stroke-width: 0.8"/>
      </g>
     </g>
     <g id="text_17">
      <!-- 0.035 -->
      <g transform="translate(25.717188 32.574327)scale(0.1 -0.1)">
       <use xlink:href="#DejaVuSans-30"/>
       <use xlink:href="#DejaVuSans-2e" x="63.623047"/>
       <use xlink:href="#DejaVuSans-30" x="95.410156"/>
       <use xlink:href="#DejaVuSans-33" x="159.033203"/>
       <use xlink:href="#DejaVuSans-35" x="222.65625"/>
      </g>
     </g>
    </g>
    <g id="text_18">
     <!-- MSE -->
     <g transform="translate(18.597656 312.369141)rotate(-90)scale(0.15 -0.15)">
      <defs>
       <path id="DejaVuSans-4d" d="M 628 4666 
L 1569 4666 
L 2759 1491 
L 3956 4666 
L 4897 4666 
L 4897 0 
L 4281 0 
L 4281 4097 
L 3078 897 
L 2444 897 
L 1241 4097 
L 1241 0 
L 628 0 
L 628 4666 
z
" transform="scale(0.015625)"/>
       <path id="DejaVuSans-53" d="M 3425 4513 
L 3425 3897 
Q 3066 4069 2747 4153 
Q 2428 4238 2131 4238 
Q 1616 4238 1336 4038 
Q 1056 3838 1056 3469 
Q 1056 3159 1242 3001 
Q 1428 2844 1947 2747 
L 2328 2669 
Q 3034 2534 3370 2195 
Q 3706 1856 3706 1288 
Q 3706 609 3251 259 
Q 2797 -91 1919 -91 
Q 1588 -91 1214 -16 
Q 841 59 441 206 
L 441 856 
Q 825 641 1194 531 
Q 1563 422 1919 422 
Q 2459 422 2753 634 
Q 3047 847 3047 1241 
Q 3047 1584 2836 1778 
Q 2625 1972 2144 2069 
L 1759 2144 
Q 1053 2284 737 2584 
Q 422 2884 422 3419 
Q 422 4038 858 4394 
Q 1294 4750 2059 4750 
Q 2388 4750 2728 4690 
Q 3069 4631 3425 4513 
z
" transform="scale(0.015625)"/>
       <path id="DejaVuSans-45" d="M 628 4666 
L 3578 4666 
L 3578 4134 
L 1259 4134 
L 1259 2753 
L 3481 2753 
L 3481 2222 
L 1259 2222 
L 1259 531 
L 3634 531 
L 3634 0 
L 628 0 
L 628 4666 
z
" transform="scale(0.015625)"/>
      </defs>
      <use xlink:href="#DejaVuSans-4d"/>
      <use xlink:href="#DejaVuSans-53" x="86.279297"/>
      <use xlink:href="#DejaVuSans-45" x="149.755859"/>
     </g>
    </g>
   </g>
   <g id="line2d_17">
    <path d="M 112.072585 49.306747 
L 117.170804 206.995554 
L 122.269022 206.386539 
L 127.36724 350.240844 
L 132.465459 415.447835 
L 137.563677 431.4535 
L 142.661895 435.487897 
L 147.760114 438.619571 
L 152.858332 447.301364 
L 157.956551 459.06819 
L 163.054769 468.813604 
L 168.152987 481.037833 
L 173.251206 488.426706 
L 178.349424 499.160543 
L 183.447642 505.406115 
L 188.545861 508.428756 
L 193.644079 511.742332 
L 198.742297 513.706786 
L 203.840516 516.897109 
L 208.938734 514.794566 
L 214.036953 515.601266 
L 219.135171 514.990999 
L 224.233389 514.611363 
L 229.331608 514.851714 
L 234.429826 514.623123 
L 239.528044 514.889136 
L 244.626263 514.275276 
L 249.724481 514.454925 
L 254.822699 512.277789 
L 259.920918 512.431878 
L 265.019136 511.739981 
L 270.117355 514.42364 
L 275.215573 512.491097 
L 280.313791 513.645935 
L 285.41201 515.412198 
L 290.510228 518.303587 
L 295.608446 517.417841 
L 300.706665 517.26836 
L 305.804883 519.325158 
L 310.903101 521.552198 
L 316.00132 522.224424 
L 321.099538 519.828827 
L 326.197757 518.915708 
L 331.295975 519.859071 
L 336.394193 518.105418 
L 341.492412 518.426331 
L 346.59063 519.157361 
L 351.688848 515.001169 
L 356.787067 514.320961 
L 361.885285 516.856412 
L 366.983503 516.032498 
L 372.081722 515.98045 
L 377.17994 516.854026 
L 382.278159 516.288719 
L 387.376377 517.350718 
L 392.474595 517.507513 
L 397.572814 518.536154 
L 402.671032 521.691666 
L 407.76925 522.190041 
L 412.867469 523.188432 
L 417.965687 522.764402 
L 423.063905 522.793165 
L 428.162124 524.805221 
L 433.260342 526.086577 
L 438.358561 526.819167 
L 443.456779 528.79663 
L 448.554997 528.13449 
L 453.653216 526.172625 
L 458.751434 527.63573 
L 463.849652 528.33693 
L 468.947871 528.776197 
L 474.046089 530.172002 
L 479.144307 530.01215 
L 484.242526 532.214251 
L 489.340744 533.34241 
L 494.438963 533.897888 
L 499.537181 533.202175 
L 504.635399 532.122242 
L 509.733618 534.85029 
L 514.831836 533.500694 
L 525.028273 535.247542 
L 530.126491 534.782751 
L 535.224709 535.798599 
L 540.322928 535.444333 
L 545.421146 535.702423 
L 550.519365 535.25458 
L 555.617583 536.038445 
L 560.715801 536.645716 
L 565.81402 535.705157 
L 570.912238 535.536391 
L 576.010456 536.584552 
L 581.108675 536.311487 
L 586.206893 536.621841 
L 591.305111 536.094714 
L 596.40333 537.542287 
L 601.501548 537.228016 
L 606.599767 535.687978 
L 611.697985 536.628728 
L 616.796203 535.603893 
L 621.894422 533.900347 
L 626.99264 535.881302 
L 632.090858 533.77918 
L 637.189077 534.42986 
L 642.287295 537.021542 
L 647.385514 537.231894 
L 652.483732 535.029598 
L 657.58195 535.357698 
L 672.876605 538.690247 
L 677.974824 536.5749 
L 683.073042 534.672172 
L 688.17126 536.903484 
L 693.269479 536.92184 
L 698.367697 537.092012 
L 703.465916 536.991896 
L 708.564134 537.157064 
L 713.662352 536.539098 
L 718.760571 538.308203 
L 723.858789 536.868387 
L 728.957007 538.478499 
L 734.055226 536.442694 
L 744.251662 540.762631 
L 749.349881 539.063112 
L 754.448099 540.208711 
L 759.546318 539.517375 
L 764.644536 540.581938 
L 769.742754 538.381825 
L 774.840973 539.861343 
L 779.939191 537.547013 
L 785.037409 535.101875 
L 790.135628 540.058056 
L 795.233846 537.961937 
L 800.332064 539.534976 
L 805.430283 541.285406 
L 810.528501 540.953568 
L 815.62672 540.379235 
L 820.724938 540.959417 
L 825.823156 540.633977 
L 830.921375 538.926354 
L 836.019593 540.944348 
L 841.117811 541.287628 
L 846.21603 541.825438 
L 851.314248 541.793621 
L 856.412466 540.689243 
L 861.510685 541.798118 
L 866.608903 540.673583 
L 871.707122 541.942816 
L 876.80534 541.079942 
L 881.903558 540.755187 
L 887.001777 541.100541 
L 892.099995 541.059527 
L 897.198213 541.446186 
L 902.296432 542.581059 
L 907.39465 540.590951 
L 912.492868 541.894015 
L 917.591087 540.912789 
L 922.689305 542.023096 
L 927.787524 542.233348 
L 932.885742 542.734832 
L 937.98396 542.761707 
L 948.180397 542.492115 
L 953.278615 542.805169 
L 958.376834 541.852437 
L 963.475052 542.722323 
L 968.57327 542.367769 
L 973.671489 542.336908 
L 978.769707 542.029311 
L 983.867926 542.013367 
L 988.966144 542.96118 
L 994.064362 543.24615 
L 999.162581 543.017168 
L 1009.359017 542.228638 
L 1014.457236 543.157147 
L 1019.555454 542.714209 
L 1024.653672 542.695181 
L 1029.751891 542.882993 
L 1034.850109 541.982625 
L 1039.948328 542.824649 
L 1045.046546 542.35097 
L 1050.144764 542.766736 
L 1055.242983 542.510492 
L 1060.341201 541.010665 
L 1065.439419 543.488565 
L 1070.537638 542.739703 
L 1080.734074 542.483479 
L 1085.832293 541.251936 
L 1090.930511 540.263891 
L 1096.02873 536.05996 
L 1101.126948 536.647055 
L 1106.225166 538.488507 
L 1111.323385 534.121729 
L 1111.323385 534.121729 
" clip-path="url(#p344c17da0a)" style="fill: none; stroke: #2e8b57; stroke-width: 1.5; stroke-linecap: square"/>
    <defs>
     <path id="m34b8fb7f93" d="M -0.49999 0.49999 
L 0.50001 0.49999 
L 0.50001 -0.50001 
L -0.49999 -0.50001 
z
"/>
    </defs>
    <g clip-path="url(#p344c17da0a)">
     <use xlink:href="#m34b8fb7f93" x="112.072585" y="49.306747" style="fill: #2e8b57"/>
     <use xlink:href="#m34b8fb7f93" x="117.170804" y="206.995554" style="fill: #2e8b57"/>
     <use xlink:href="#m34b8fb7f93" x="122.269022" y="206.386539" style="fill: #2e8b57"/>
     <use xlink:href="#m34b8fb7f93" x="127.36724" y="350.240844" style="fill: #2e8b57"/>
     <use xlink:href="#m34b8fb7f93" x="132.465459" y="415.447835" style="fill: #2e8b57"/>
     <use xlink:href="#m34b8fb7f93" x="137.563677" y="431.4535" style="fill: #2e8b57"/>
     <use xlink:href="#m34b8fb7f93" x="142.661895" y="435.487897" style="fill: #2e8b57"/>
     <use xlink:href="#m34b8fb7f93" x="147.760114" y="438.619571" style="fill: #2e8b57"/>
     <use xlink:href="#m34b8fb7f93" x="152.858332" y="447.301364" style="fill: #2e8b57"/>
     <use xlink:href="#m34b8fb7f93" x="157.956551" y="459.06819" style="fill: #2e8b57"/>
     <use xlink:href="#m34b8fb7f93" x="163.054769" y="468.813604" style="fill: #2e8b57"/>
     <use xlink:href="#m34b8fb7f93" x="168.152987" y="481.037833" style="fill: #2e8b57"/>
     <use xlink:href="#m34b8fb7f93" x="173.251206" y="488.426706" style="fill: #2e8b57"/>
     <use xlink:href="#m34b8fb7f93" x="178.349424" y="499.160543" style="fill: #2e8b57"/>
     <use xlink:href="#m34b8fb7f93" x="183.447642" y="505.406115" style="fill: #2e8b57"/>
     <use xlink:href="#m34b8fb7f93" x="188.545861" y="508.428756" style="fill: #2e8b57"/>
     <use xlink:href="#m34b8fb7f93" x="193.644079" y="511.742332" style="fill: #2e8b57"/>
     <use xlink:href="#m34b8fb7f93" x="198.742297" y="513.706786" style="fill: #2e8b57"/>
     <use xlink:href="#m34b8fb7f93" x="203.840516" y="516.897109" style="fill: #2e8b57"/>
     <use xlink:href="#m34b8fb7f93" x="208.938734" y="514.794566" style="fill: #2e8b57"/>
     <use xlink:href="#m34b8fb7f93" x="214.036953" y="515.601266" style="fill: #2e8b57"/>
     <use xlink:href="#m34b8fb7f93" x="219.135171" y="514.990999" style="fill: #2e8b57"/>
     <use xlink:href="#m34b8fb7f93" x="224.233389" y="514.611363" style="fill: #2e8b57"/>
     <use xlink:href="#m34b8fb7f93" x="229.331608" y="514.851714" style="fill: #2e8b57"/>
     <use xlink:href="#m34b8fb7f93" x="234.429826" y="514.623123" style="fill: #2e8b57"/>
     <use xlink:href="#m34b8fb7f93" x="239.528044" y="514.889136" style="fill: #2e8b57"/>
     <use xlink:href="#m34b8fb7f93" x="244.626263" y="514.275276" style="fill: #2e8b57"/>
     <use xlink:href="#m34b8fb7f93" x="249.724481" y="514.454925" style="fill: #2e8b57"/>
     <use xlink:href="#m34b8fb7f93" x="254.822699" y="512.277789" style="fill: #2e8b57"/>
     <use xlink:href="#m34b8fb7f93" x="259.920918" y="512.431878" style="fill: #2e8b57"/>
     <use xlink:href="#m34b8fb7f93" x="265.019136" y="511.739981" style="fill: #2e8b57"/>
     <use xlink:href="#m34b8fb7f93" x="270.117355" y="514.42364" style="fill: #2e8b57"/>
     <use xlink:href="#m34b8fb7f93" x="275.215573" y="512.491097" style="fill: #2e8b57"/>
     <use xlink:href="#m34b8fb7f93" x="280.313791" y="513.645935" style="fill: #2e8b57"/>
     <use xlink:href="#m34b8fb7f93" x="285.41201" y="515.412198" style="fill: #2e8b57"/>
     <use xlink:href="#m34b8fb7f93" x="290.510228" y="518.303587" style="fill: #2e8b57"/>
     <use xlink:href="#m34b8fb7f93" x="295.608446" y="517.417841" style="fill: #2e8b57"/>
     <use xlink:href="#m34b8fb7f93" x="300.706665" y="517.26836" style="fill: #2e8b57"/>
     <use xlink:href="#m34b8fb7f93" x="305.804883" y="519.325158" style="fill: #2e8b57"/>
     <use xlink:href="#m34b8fb7f93" x="310.903101" y="521.552198" style="fill: #2e8b57"/>
     <use xlink:href="#m34b8fb7f93" x="316.00132" y="522.224424" style="fill: #2e8b57"/>
     <use xlink:href="#m34b8fb7f93" x="321.099538" y="519.828827" style="fill: #2e8b57"/>
     <use xlink:href="#m34b8fb7f93" x="326.197757" y="518.915708" style="fill: #2e8b57"/>
     <use xlink:href="#m34b8fb7f93" x="331.295975" y="519.859071" style="fill: #2e8b57"/>
     <use xlink:href="#m34b8fb7f93" x="336.394193" y="518.105418" style="fill: #2e8b57"/>
     <use xlink:href="#m34b8fb7f93" x="341.492412" y="518.426331" style="fill: #2e8b57"/>
     <use xlink:href="#m34b8fb7f93" x="346.59063" y="519.157361" style="fill: #2e8b57"/>
     <use xlink:href="#m34b8fb7f93" x="351.688848" y="515.001169" style="fill: #2e8b57"/>
     <use xlink:href="#m34b8fb7f93" x="356.787067" y="514.320961" style="fill: #2e8b57"/>
     <use xlink:href="#m34b8fb7f93" x="361.885285" y="516.856412" style="fill: #2e8b57"/>
     <use xlink:href="#m34b8fb7f93" x="366.983503" y="516.032498" style="fill: #2e8b57"/>
     <use xlink:href="#m34b8fb7f93" x="372.081722" y="515.98045" style="fill: #2e8b57"/>
     <use xlink:href="#m34b8fb7f93" x="377.17994" y="516.854026" style="fill: #2e8b57"/>
     <use xlink:href="#m34b8fb7f93" x="382.278159" y="516.288719" style="fill: #2e8b57"/>
     <use xlink:href="#m34b8fb7f93" x="387.376377" y="517.350718" style="fill: #2e8b57"/>
     <use xlink:href="#m34b8fb7f93" x="392.474595" y="517.507513" style="fill: #2e8b57"/>
     <use xlink:href="#m34b8fb7f93" x="397.572814" y="518.536154" style="fill: #2e8b57"/>
     <use xlink:href="#m34b8fb7f93" x="402.671032" y="521.691666" style="fill: #2e8b57"/>
     <use xlink:href="#m34b8fb7f93" x="407.76925" y="522.190041" style="fill: #2e8b57"/>
     <use xlink:href="#m34b8fb7f93" x="412.867469" y="523.188432" style="fill: #2e8b57"/>
     <use xlink:href="#m34b8fb7f93" x="417.965687" y="522.764402" style="fill: #2e8b57"/>
     <use xlink:href="#m34b8fb7f93" x="423.063905" y="522.793165" style="fill: #2e8b57"/>
     <use xlink:href="#m34b8fb7f93" x="428.162124" y="524.805221" style="fill: #2e8b57"/>
     <use xlink:href="#m34b8fb7f93" x="433.260342" y="526.086577" style="fill: #2e8b57"/>
     <use xlink:href="#m34b8fb7f93" x="438.358561" y="526.819167" style="fill: #2e8b57"/>
     <use xlink:href="#m34b8fb7f93" x="443.456779" y="528.79663" style="fill: #2e8b57"/>
     <use xlink:href="#m34b8fb7f93" x="448.554997" y="528.13449" style="fill: #2e8b57"/>
     <use xlink:href="#m34b8fb7f93" x="453.653216" y="526.172625" style="fill: #2e8b57"/>
     <use xlink:href="#m34b8fb7f93" x="458.751434" y="527.63573" style="fill: #2e8b57"/>
     <use xlink:href="#m34b8fb7f93" x="463.849652" y="528.33693" style="fill: #2e8b57"/>
     <use xlink:href="#m34b8fb7f93" x="468.947871" y="528.776197" style="fill: #2e8b57"/>
     <use xlink:href="#m34b8fb7f93" x="474.046089" y="530.172002" style="fill: #2e8b57"/>
     <use xlink:href="#m34b8fb7f93" x="479.144307" y="530.01215" style="fill: #2e8b57"/>
     <use xlink:href="#m34b8fb7f93" x="484.242526" y="532.214251" style="fill: #2e8b57"/>
     <use xlink:href="#m34b8fb7f93" x="489.340744" y="533.34241" style="fill: #2e8b57"/>
     <use xlink:href="#m34b8fb7f93" x="494.438963" y="533.897888" style="fill: #2e8b57"/>
     <use xlink:href="#m34b8fb7f93" x="499.537181" y="533.202175" style="fill: #2e8b57"/>
     <use xlink:href="#m34b8fb7f93" x="504.635399" y="532.122242" style="fill: #2e8b57"/>
     <use xlink:href="#m34b8fb7f93" x="509.733618" y="534.85029" style="fill: #2e8b57"/>
     <use xlink:href="#m34b8fb7f93" x="514.831836" y="533.500694" style="fill: #2e8b57"/>
     <use xlink:href="#m34b8fb7f93" x="519.930054" y="534.403018" style="fill: #2e8b57"/>
     <use xlink:href="#m34b8fb7f93" x="525.028273" y="535.247542" style="fill: #2e8b57"/>
     <use xlink:href="#m34b8fb7f93" x="530.126491" y="534.782751" style="fill: #2e8b57"/>
     <use xlink:href="#m34b8fb7f93" x="535.224709" y="535.798599" style="fill: #2e8b57"/>
     <use xlink:href="#m34b8fb7f93" x="540.322928" y="535.444333" style="fill: #2e8b57"/>
     <use xlink:href="#m34b8fb7f93" x="545.421146" y="535.702423" style="fill: #2e8b57"/>
     <use xlink:href="#m34b8fb7f93" x="550.519365" y="535.25458" style="fill: #2e8b57"/>
     <use xlink:href="#m34b8fb7f93" x="555.617583" y="536.038445" style="fill: #2e8b57"/>
     <use xlink:href="#m34b8fb7f93" x="560.715801" y="536.645716" style="fill: #2e8b57"/>
     <use xlink:href="#m34b8fb7f93" x="565.81402" y="535.705157" style="fill: #2e8b57"/>
     <use xlink:href="#m34b8fb7f93" x="570.912238" y="535.536391" style="fill: #2e8b57"/>
     <use xlink:href="#m34b8fb7f93" x="576.010456" y="536.584552" style="fill: #2e8b57"/>
     <use xlink:href="#m34b8fb7f93" x="581.108675" y="536.311487" style="fill: #2e8b57"/>
     <use xlink:href="#m34b8fb7f93" x="586.206893" y="536.621841" style="fill: #2e8b57"/>
     <use xlink:href="#m34b8fb7f93" x="591.305111" y="536.094714" style="fill: #2e8b57"/>
     <use xlink:href="#m34b8fb7f93" x="596.40333" y="537.542287" style="fill: #2e8b57"/>
     <use xlink:href="#m34b8fb7f93" x="601.501548" y="537.228016" style="fill: #2e8b57"/>
     <use xlink:href="#m34b8fb7f93" x="606.599767" y="535.687978" style="fill: #2e8b57"/>
     <use xlink:href="#m34b8fb7f93" x="611.697985" y="536.628728" style="fill: #2e8b57"/>
     <use xlink:href="#m34b8fb7f93" x="616.796203" y="535.603893" style="fill: #2e8b57"/>
     <use xlink:href="#m34b8fb7f93" x="621.894422" y="533.900347" style="fill: #2e8b57"/>
     <use xlink:href="#m34b8fb7f93" x="626.99264" y="535.881302" style="fill: #2e8b57"/>
     <use xlink:href="#m34b8fb7f93" x="632.090858" y="533.77918" style="fill: #2e8b57"/>
     <use xlink:href="#m34b8fb7f93" x="637.189077" y="534.42986" style="fill: #2e8b57"/>
     <use xlink:href="#m34b8fb7f93" x="642.287295" y="537.021542" style="fill: #2e8b57"/>
     <use xlink:href="#m34b8fb7f93" x="647.385514" y="537.231894" style="fill: #2e8b57"/>
     <use xlink:href="#m34b8fb7f93" x="652.483732" y="535.029598" style="fill: #2e8b57"/>
     <use xlink:href="#m34b8fb7f93" x="657.58195" y="535.357698" style="fill: #2e8b57"/>
     <use xlink:href="#m34b8fb7f93" x="662.680169" y="536.458807" style="fill: #2e8b57"/>
     <use xlink:href="#m34b8fb7f93" x="667.778387" y="537.640414" style="fill: #2e8b57"/>
     <use xlink:href="#m34b8fb7f93" x="672.876605" y="538.690247" style="fill: #2e8b57"/>
     <use xlink:href="#m34b8fb7f93" x="677.974824" y="536.5749" style="fill: #2e8b57"/>
     <use xlink:href="#m34b8fb7f93" x="683.073042" y="534.672172" style="fill: #2e8b57"/>
     <use xlink:href="#m34b8fb7f93" x="688.17126" y="536.903484" style="fill: #2e8b57"/>
     <use xlink:href="#m34b8fb7f93" x="693.269479" y="536.92184" style="fill: #2e8b57"/>
     <use xlink:href="#m34b8fb7f93" x="698.367697" y="537.092012" style="fill: #2e8b57"/>
     <use xlink:href="#m34b8fb7f93" x="703.465916" y="536.991896" style="fill: #2e8b57"/>
     <use xlink:href="#m34b8fb7f93" x="708.564134" y="537.157064" style="fill: #2e8b57"/>
     <use xlink:href="#m34b8fb7f93" x="713.662352" y="536.539098" style="fill: #2e8b57"/>
     <use xlink:href="#m34b8fb7f93" x="718.760571" y="538.308203" style="fill: #2e8b57"/>
     <use xlink:href="#m34b8fb7f93" x="723.858789" y="536.868387" style="fill: #2e8b57"/>
     <use xlink:href="#m34b8fb7f93" x="728.957007" y="538.478499" style="fill: #2e8b57"/>
     <use xlink:href="#m34b8fb7f93" x="734.055226" y="536.442694" style="fill: #2e8b57"/>
     <use xlink:href="#m34b8fb7f93" x="739.153444" y="538.554075" style="fill: #2e8b57"/>
     <use xlink:href="#m34b8fb7f93" x="744.251662" y="540.762631" style="fill: #2e8b57"/>
     <use xlink:href="#m34b8fb7f93" x="749.349881" y="539.063112" style="fill: #2e8b57"/>
     <use xlink:href="#m34b8fb7f93" x="754.448099" y="540.208711" style="fill: #2e8b57"/>
     <use xlink:href="#m34b8fb7f93" x="759.546318" y="539.517375" style="fill: #2e8b57"/>
     <use xlink:href="#m34b8fb7f93" x="764.644536" y="540.581938" style="fill: #2e8b57"/>
     <use xlink:href="#m34b8fb7f93" x="769.742754" y="538.381825" style="fill: #2e8b57"/>
     <use xlink:href="#m34b8fb7f93" x="774.840973" y="539.861343" style="fill: #2e8b57"/>
     <use xlink:href="#m34b8fb7f93" x="779.939191" y="537.547013" style="fill: #2e8b57"/>
     <use xlink:href="#m34b8fb7f93" x="785.037409" y="535.101875" style="fill: #2e8b57"/>
     <use xlink:href="#m34b8fb7f93" x="790.135628" y="540.058056" style="fill: #2e8b57"/>
     <use xlink:href="#m34b8fb7f93" x="795.233846" y="537.961937" style="fill: #2e8b57"/>
     <use xlink:href="#m34b8fb7f93" x="800.332064" y="539.534976" style="fill: #2e8b57"/>
     <use xlink:href="#m34b8fb7f93" x="805.430283" y="541.285406" style="fill: #2e8b57"/>
     <use xlink:href="#m34b8fb7f93" x="810.528501" y="540.953568" style="fill: #2e8b57"/>
     <use xlink:href="#m34b8fb7f93" x="815.62672" y="540.379235" style="fill: #2e8b57"/>
     <use xlink:href="#m34b8fb7f93" x="820.724938" y="540.959417" style="fill: #2e8b57"/>
     <use xlink:href="#m34b8fb7f93" x="825.823156" y="540.633977" style="fill: #2e8b57"/>
     <use xlink:href="#m34b8fb7f93" x="830.921375" y="538.926354" style="fill: #2e8b57"/>
     <use xlink:href="#m34b8fb7f93" x="836.019593" y="540.944348" style="fill: #2e8b57"/>
     <use xlink:href="#m34b8fb7f93" x="841.117811" y="541.287628" style="fill: #2e8b57"/>
     <use xlink:href="#m34b8fb7f93" x="846.21603" y="541.825438" style="fill: #2e8b57"/>
     <use xlink:href="#m34b8fb7f93" x="851.314248" y="541.793621" style="fill: #2e8b57"/>
     <use xlink:href="#m34b8fb7f93" x="856.412466" y="540.689243" style="fill: #2e8b57"/>
     <use xlink:href="#m34b8fb7f93" x="861.510685" y="541.798118" style="fill: #2e8b57"/>
     <use xlink:href="#m34b8fb7f93" x="866.608903" y="540.673583" style="fill: #2e8b57"/>
     <use xlink:href="#m34b8fb7f93" x="871.707122" y="541.942816" style="fill: #2e8b57"/>
     <use xlink:href="#m34b8fb7f93" x="876.80534" y="541.079942" style="fill: #2e8b57"/>
     <use xlink:href="#m34b8fb7f93" x="881.903558" y="540.755187" style="fill: #2e8b57"/>
     <use xlink:href="#m34b8fb7f93" x="887.001777" y="541.100541" style="fill: #2e8b57"/>
     <use xlink:href="#m34b8fb7f93" x="892.099995" y="541.059527" style="fill: #2e8b57"/>
     <use xlink:href="#m34b8fb7f93" x="897.198213" y="541.446186" style="fill: #2e8b57"/>
     <use xlink:href="#m34b8fb7f93" x="902.296432" y="542.581059" style="fill: #2e8b57"/>
     <use xlink:href="#m34b8fb7f93" x="907.39465" y="540.590951" style="fill: #2e8b57"/>
     <use xlink:href="#m34b8fb7f93" x="912.492868" y="541.894015" style="fill: #2e8b57"/>
     <use xlink:href="#m34b8fb7f93" x="917.591087" y="540.912789" style="fill: #2e8b57"/>
     <use xlink:href="#m34b8fb7f93" x="922.689305" y="542.023096" style="fill: #2e8b57"/>
     <use xlink:href="#m34b8fb7f93" x="927.787524" y="542.233348" style="fill: #2e8b57"/>
     <use xlink:href="#m34b8fb7f93" x="932.885742" y="542.734832" style="fill: #2e8b57"/>
     <use xlink:href="#m34b8fb7f93" x="937.98396" y="542.761707" style="fill: #2e8b57"/>
     <use xlink:href="#m34b8fb7f93" x="943.082179" y="542.576391" style="fill: #2e8b57"/>
     <use xlink:href="#m34b8fb7f93" x="948.180397" y="542.492115" style="fill: #2e8b57"/>
     <use xlink:href="#m34b8fb7f93" x="953.278615" y="542.805169" style="fill: #2e8b57"/>
     <use xlink:href="#m34b8fb7f93" x="958.376834" y="541.852437" style="fill: #2e8b57"/>
     <use xlink:href="#m34b8fb7f93" x="963.475052" y="542.722323" style="fill: #2e8b57"/>
     <use xlink:href="#m34b8fb7f93" x="968.57327" y="542.367769" style="fill: #2e8b57"/>
     <use xlink:href="#m34b8fb7f93" x="973.671489" y="542.336908" style="fill: #2e8b57"/>
     <use xlink:href="#m34b8fb7f93" x="978.769707" y="542.029311" style="fill: #2e8b57"/>
     <use xlink:href="#m34b8fb7f93" x="983.867926" y="542.013367" style="fill: #2e8b57"/>
     <use xlink:href="#m34b8fb7f93" x="988.966144" y="542.96118" style="fill: #2e8b57"/>
     <use xlink:href="#m34b8fb7f93" x="994.064362" y="543.24615" style="fill: #2e8b57"/>
     <use xlink:href="#m34b8fb7f93" x="999.162581" y="543.017168" style="fill: #2e8b57"/>
     <use xlink:href="#m34b8fb7f93" x="1004.260799" y="542.642655" style="fill: #2e8b57"/>
     <use xlink:href="#m34b8fb7f93" x="1009.359017" y="542.228638" style="fill: #2e8b57"/>
     <use xlink:href="#m34b8fb7f93" x="1014.457236" y="543.157147" style="fill: #2e8b57"/>
     <use xlink:href="#m34b8fb7f93" x="1019.555454" y="542.714209" style="fill: #2e8b57"/>
     <use xlink:href="#m34b8fb7f93" x="1024.653672" y="542.695181" style="fill: #2e8b57"/>
     <use xlink:href="#m34b8fb7f93" x="1029.751891" y="542.882993" style="fill: #2e8b57"/>
     <use xlink:href="#m34b8fb7f93" x="1034.850109" y="541.982625" style="fill: #2e8b57"/>
     <use xlink:href="#m34b8fb7f93" x="1039.948328" y="542.824649" style="fill: #2e8b57"/>
     <use xlink:href="#m34b8fb7f93" x="1045.046546" y="542.35097" style="fill: #2e8b57"/>
     <use xlink:href="#m34b8fb7f93" x="1050.144764" y="542.766736" style="fill: #2e8b57"/>
     <use xlink:href="#m34b8fb7f93" x="1055.242983" y="542.510492" style="fill: #2e8b57"/>
     <use xlink:href="#m34b8fb7f93" x="1060.341201" y="541.010665" style="fill: #2e8b57"/>
     <use xlink:href="#m34b8fb7f93" x="1065.439419" y="543.488565" style="fill: #2e8b57"/>
     <use xlink:href="#m34b8fb7f93" x="1070.537638" y="542.739703" style="fill: #2e8b57"/>
     <use xlink:href="#m34b8fb7f93" x="1075.635856" y="542.603052" style="fill: #2e8b57"/>
     <use xlink:href="#m34b8fb7f93" x="1080.734074" y="542.483479" style="fill: #2e8b57"/>
     <use xlink:href="#m34b8fb7f93" x="1085.832293" y="541.251936" style="fill: #2e8b57"/>
     <use xlink:href="#m34b8fb7f93" x="1090.930511" y="540.263891" style="fill: #2e8b57"/>
     <use xlink:href="#m34b8fb7f93" x="1096.02873" y="536.05996" style="fill: #2e8b57"/>
     <use xlink:href="#m34b8fb7f93" x="1101.126948" y="536.647055" style="fill: #2e8b57"/>
     <use xlink:href="#m34b8fb7f93" x="1106.225166" y="538.488507" style="fill: #2e8b57"/>
     <use xlink:href="#m34b8fb7f93" x="1111.323385" y="534.121729" style="fill: #2e8b57"/>
    </g>
   </g>
   <g id="line2d_18">
    <path d="M 112.072585 130.414783 
L 117.170804 256.147165 
L 122.269022 262.32313 
L 127.36724 370.974577 
L 132.465459 413.130987 
L 137.563677 416.892985 
L 142.661895 415.402545 
L 147.760114 413.711713 
L 152.858332 409.360171 
L 157.956551 412.247043 
L 163.054769 428.926548 
L 168.152987 427.764582 
L 173.251206 433.422272 
L 178.349424 448.031813 
L 183.447642 453.647019 
L 188.545861 463.058158 
L 193.644079 473.978158 
L 198.742297 472.753829 
L 203.840516 481.879732 
L 208.938734 483.970448 
L 214.036953 485.707624 
L 219.135171 491.123243 
L 224.233389 493.09964 
L 229.331608 496.117583 
L 234.429826 501.118558 
L 239.528044 502.618388 
L 244.626263 503.773468 
L 249.724481 507.801576 
L 254.822699 508.970522 
L 259.920918 508.815089 
L 265.019136 511.183657 
L 270.117355 512.958006 
L 275.215573 512.543136 
L 280.313791 513.3514 
L 285.41201 513.49545 
L 295.608446 516.048377 
L 300.706665 516.175741 
L 305.804883 516.532855 
L 310.903101 518.519276 
L 316.00132 520.003094 
L 321.099538 519.365029 
L 326.197757 515.261633 
L 331.295975 520.702625 
L 336.394193 519.565249 
L 341.492412 520.89095 
L 346.59063 520.388342 
L 351.688848 520.34495 
L 356.787067 522.781588 
L 361.885285 523.010507 
L 366.983503 523.693615 
L 372.081722 524.140605 
L 377.17994 524.841231 
L 382.278159 525.688391 
L 387.376377 526.373356 
L 392.474595 525.363436 
L 397.572814 526.241392 
L 402.671032 526.975196 
L 407.76925 525.666541 
L 412.867469 525.915621 
L 417.965687 527.927298 
L 423.063905 525.659403 
L 428.162124 522.424939 
L 433.260342 521.548942 
L 438.358561 522.791117 
L 443.456779 519.908673 
L 448.554997 519.846731 
L 453.653216 522.42406 
L 458.751434 518.879554 
L 463.849652 523.329781 
L 468.947871 524.725939 
L 474.046089 525.209791 
L 479.144307 524.386986 
L 484.242526 521.653752 
L 489.340744 521.887634 
L 494.438963 521.569971 
L 499.537181 524.020793 
L 504.635399 520.199963 
L 509.733618 525.301582 
L 514.831836 522.809675 
L 519.930054 521.24706 
L 525.028273 522.480937 
L 530.126491 523.265132 
L 535.224709 521.69932 
L 540.322928 522.032189 
L 545.421146 520.848909 
L 550.519365 523.350133 
L 555.617583 522.715866 
L 560.715801 523.020113 
L 565.81402 525.36916 
L 570.912238 523.547705 
L 576.010456 522.115677 
L 581.108675 523.783982 
L 591.305111 524.860613 
L 596.40333 526.876154 
L 601.501548 525.745854 
L 606.599767 526.603682 
L 611.697985 524.429027 
L 616.796203 527.514358 
L 621.894422 528.351464 
L 626.99264 527.811405 
L 632.090858 529.520465 
L 637.189077 528.599416 
L 642.287295 527.363126 
L 647.385514 530.036004 
L 652.483732 531.248408 
L 657.58195 532.136285 
L 662.680169 530.764065 
L 667.778387 532.652996 
L 672.876605 534.788551 
L 677.974824 534.18566 
L 683.073042 533.348092 
L 688.17126 532.967081 
L 693.269479 533.555015 
L 698.367697 534.708795 
L 703.465916 534.882818 
L 708.564134 535.672752 
L 713.662352 534.056054 
L 718.760571 535.364373 
L 723.858789 534.898811 
L 728.957007 534.926166 
L 734.055226 536.995636 
L 739.153444 535.837 
L 744.251662 536.11691 
L 754.448099 537.432019 
L 759.546318 536.894623 
L 764.644536 537.669065 
L 774.840973 537.603522 
L 779.939191 536.921648 
L 785.037409 536.582069 
L 790.135628 537.649196 
L 800.332064 535.861717 
L 805.430283 535.846958 
L 810.528501 535.697777 
L 815.62672 535.073662 
L 820.724938 534.316884 
L 825.823156 534.416988 
L 830.921375 534.214919 
L 836.019593 534.314229 
L 841.117811 535.783825 
L 846.21603 536.280184 
L 851.314248 536.076455 
L 861.510685 536.492494 
L 866.608903 533.903881 
L 871.707122 532.738997 
L 876.80534 533.035667 
L 881.903558 533.828926 
L 887.001777 535.921389 
L 897.198213 536.612116 
L 902.296432 536.789984 
L 907.39465 536.787556 
L 912.492868 536.188683 
L 917.591087 536.756089 
L 922.689305 535.828836 
L 927.787524 537.388843 
L 932.885742 537.992569 
L 943.082179 537.933883 
L 948.180397 536.607779 
L 953.278615 537.530337 
L 963.475052 535.69581 
L 973.671489 535.402242 
L 978.769707 535.299171 
L 983.867926 535.013218 
L 988.966144 536.300686 
L 994.064362 535.213837 
L 999.162581 535.283236 
L 1004.260799 534.536841 
L 1009.359017 536.284198 
L 1014.457236 533.144638 
L 1019.555454 536.927152 
L 1024.653672 534.153115 
L 1029.751891 536.998141 
L 1034.850109 535.867617 
L 1039.948328 536.624722 
L 1045.046546 536.066852 
L 1050.144764 536.254027 
L 1055.242983 534.136558 
L 1060.341201 537.087606 
L 1065.439419 536.385354 
L 1070.537638 535.012108 
L 1075.635856 537.263827 
L 1080.734074 538.986774 
L 1085.832293 537.344477 
L 1090.930511 537.94758 
L 1096.02873 536.205702 
L 1101.126948 537.555629 
L 1106.225166 537.772711 
L 1111.323385 538.183608 
L 1116.421603 537.822758 
L 1121.519821 537.303611 
L 1126.61804 537.817957 
L 1126.61804 537.817957 
" clip-path="url(#p344c17da0a)" style="fill: none; stroke: #a52a2a; stroke-width: 1.5; stroke-linecap: square"/>
    <defs>
     <path id="m3c2f5accd7" d="M 0 0 
L 0 6.5 
M 0 0 
L 5.2 -3.25 
M 0 0 
L -5.2 -3.25 
" style="stroke: #a52a2a"/>
    </defs>
    <g clip-path="url(#p344c17da0a)">
     <use xlink:href="#m3c2f5accd7" x="112.072585" y="130.414783" style="fill: #a52a2a; stroke: #a52a2a"/>
     <use xlink:href="#m3c2f5accd7" x="117.170804" y="256.147165" style="fill: #a52a2a; stroke: #a52a2a"/>
     <use xlink:href="#m3c2f5accd7" x="122.269022" y="262.32313" style="fill: #a52a2a; stroke: #a52a2a"/>
     <use xlink:href="#m3c2f5accd7" x="127.36724" y="370.974577" style="fill: #a52a2a; stroke: #a52a2a"/>
     <use xlink:href="#m3c2f5accd7" x="132.465459" y="413.130987" style="fill: #a52a2a; stroke: #a52a2a"/>
     <use xlink:href="#m3c2f5accd7" x="137.563677" y="416.892985" style="fill: #a52a2a; stroke: #a52a2a"/>
     <use xlink:href="#m3c2f5accd7" x="142.661895" y="415.402545" style="fill: #a52a2a; stroke: #a52a2a"/>
     <use xlink:href="#m3c2f5accd7" x="147.760114" y="413.711713" style="fill: #a52a2a; stroke: #a52a2a"/>
     <use xlink:href="#m3c2f5accd7" x="152.858332" y="409.360171" style="fill: #a52a2a; stroke: #a52a2a"/>
     <use xlink:href="#m3c2f5accd7" x="157.956551" y="412.247043" style="fill: #a52a2a; stroke: #a52a2a"/>
     <use xlink:href="#m3c2f5accd7" x="163.054769" y="428.926548" style="fill: #a52a2a; stroke: #a52a2a"/>
     <use xlink:href="#m3c2f5accd7" x="168.152987" y="427.764582" style="fill: #a52a2a; stroke: #a52a2a"/>
     <use xlink:href="#m3c2f5accd7" x="173.251206" y="433.422272" style="fill: #a52a2a; stroke: #a52a2a"/>
     <use xlink:href="#m3c2f5accd7" x="178.349424" y="448.031813" style="fill: #a52a2a; stroke: #a52a2a"/>
     <use xlink:href="#m3c2f5accd7" x="183.447642" y="453.647019" style="fill: #a52a2a; stroke: #a52a2a"/>
     <use xlink:href="#m3c2f5accd7" x="188.545861" y="463.058158" style="fill: #a52a2a; stroke: #a52a2a"/>
     <use xlink:href="#m3c2f5accd7" x="193.644079" y="473.978158" style="fill: #a52a2a; stroke: #a52a2a"/>
     <use xlink:href="#m3c2f5accd7" x="198.742297" y="472.753829" style="fill: #a52a2a; stroke: #a52a2a"/>
     <use xlink:href="#m3c2f5accd7" x="203.840516" y="481.879732" style="fill: #a52a2a; stroke: #a52a2a"/>
     <use xlink:href="#m3c2f5accd7" x="208.938734" y="483.970448" style="fill: #a52a2a; stroke: #a52a2a"/>
     <use xlink:href="#m3c2f5accd7" x="214.036953" y="485.707624" style="fill: #a52a2a; stroke: #a52a2a"/>
     <use xlink:href="#m3c2f5accd7" x="219.135171" y="491.123243" style="fill: #a52a2a; stroke: #a52a2a"/>
     <use xlink:href="#m3c2f5accd7" x="224.233389" y="493.09964" style="fill: #a52a2a; stroke: #a52a2a"/>
     <use xlink:href="#m3c2f5accd7" x="229.331608" y="496.117583" style="fill: #a52a2a; stroke: #a52a2a"/>
     <use xlink:href="#m3c2f5accd7" x="234.429826" y="501.118558" style="fill: #a52a2a; stroke: #a52a2a"/>
     <use xlink:href="#m3c2f5accd7" x="239.528044" y="502.618388" style="fill: #a52a2a; stroke: #a52a2a"/>
     <use xlink:href="#m3c2f5accd7" x="244.626263" y="503.773468" style="fill: #a52a2a; stroke: #a52a2a"/>
     <use xlink:href="#m3c2f5accd7" x="249.724481" y="507.801576" style="fill: #a52a2a; stroke: #a52a2a"/>
     <use xlink:href="#m3c2f5accd7" x="254.822699" y="508.970522" style="fill: #a52a2a; stroke: #a52a2a"/>
     <use xlink:href="#m3c2f5accd7" x="259.920918" y="508.815089" style="fill: #a52a2a; stroke: #a52a2a"/>
     <use xlink:href="#m3c2f5accd7" x="265.019136" y="511.183657" style="fill: #a52a2a; stroke: #a52a2a"/>
     <use xlink:href="#m3c2f5accd7" x="270.117355" y="512.958006" style="fill: #a52a2a; stroke: #a52a2a"/>
     <use xlink:href="#m3c2f5accd7" x="275.215573" y="512.543136" style="fill: #a52a2a; stroke: #a52a2a"/>
     <use xlink:href="#m3c2f5accd7" x="280.313791" y="513.3514" style="fill: #a52a2a; stroke: #a52a2a"/>
     <use xlink:href="#m3c2f5accd7" x="285.41201" y="513.49545" style="fill: #a52a2a; stroke: #a52a2a"/>
     <use xlink:href="#m3c2f5accd7" x="290.510228" y="514.737666" style="fill: #a52a2a; stroke: #a52a2a"/>
     <use xlink:href="#m3c2f5accd7" x="295.608446" y="516.048377" style="fill: #a52a2a; stroke: #a52a2a"/>
     <use xlink:href="#m3c2f5accd7" x="300.706665" y="516.175741" style="fill: #a52a2a; stroke: #a52a2a"/>
     <use xlink:href="#m3c2f5accd7" x="305.804883" y="516.532855" style="fill: #a52a2a; stroke: #a52a2a"/>
     <use xlink:href="#m3c2f5accd7" x="310.903101" y="518.519276" style="fill: #a52a2a; stroke: #a52a2a"/>
     <use xlink:href="#m3c2f5accd7" x="316.00132" y="520.003094" style="fill: #a52a2a; stroke: #a52a2a"/>
     <use xlink:href="#m3c2f5accd7" x="321.099538" y="519.365029" style="fill: #a52a2a; stroke: #a52a2a"/>
     <use xlink:href="#m3c2f5accd7" x="326.197757" y="515.261633" style="fill: #a52a2a; stroke: #a52a2a"/>
     <use xlink:href="#m3c2f5accd7" x="331.295975" y="520.702625" style="fill: #a52a2a; stroke: #a52a2a"/>
     <use xlink:href="#m3c2f5accd7" x="336.394193" y="519.565249" style="fill: #a52a2a; stroke: #a52a2a"/>
     <use xlink:href="#m3c2f5accd7" x="341.492412" y="520.89095" style="fill: #a52a2a; stroke: #a52a2a"/>
     <use xlink:href="#m3c2f5accd7" x="346.59063" y="520.388342" style="fill: #a52a2a; stroke: #a52a2a"/>
     <use xlink:href="#m3c2f5accd7" x="351.688848" y="520.34495" style="fill: #a52a2a; stroke: #a52a2a"/>
     <use xlink:href="#m3c2f5accd7" x="356.787067" y="522.781588" style="fill: #a52a2a; stroke: #a52a2a"/>
     <use xlink:href="#m3c2f5accd7" x="361.885285" y="523.010507" style="fill: #a52a2a; stroke: #a52a2a"/>
     <use xlink:href="#m3c2f5accd7" x="366.983503" y="523.693615" style="fill: #a52a2a; stroke: #a52a2a"/>
     <use xlink:href="#m3c2f5accd7" x="372.081722" y="524.140605" style="fill: #a52a2a; stroke: #a52a2a"/>
     <use xlink:href="#m3c2f5accd7" x="377.17994" y="524.841231" style="fill: #a52a2a; stroke: #a52a2a"/>
     <use xlink:href="#m3c2f5accd7" x="382.278159" y="525.688391" style="fill: #a52a2a; stroke: #a52a2a"/>
     <use xlink:href="#m3c2f5accd7" x="387.376377" y="526.373356" style="fill: #a52a2a; stroke: #a52a2a"/>
     <use xlink:href="#m3c2f5accd7" x="392.474595" y="525.363436" style="fill: #a52a2a; stroke: #a52a2a"/>
     <use xlink:href="#m3c2f5accd7" x="397.572814" y="526.241392" style="fill: #a52a2a; stroke: #a52a2a"/>
     <use xlink:href="#m3c2f5accd7" x="402.671032" y="526.975196" style="fill: #a52a2a; stroke: #a52a2a"/>
     <use xlink:href="#m3c2f5accd7" x="407.76925" y="525.666541" style="fill: #a52a2a; stroke: #a52a2a"/>
     <use xlink:href="#m3c2f5accd7" x="412.867469" y="525.915621" style="fill: #a52a2a; stroke: #a52a2a"/>
     <use xlink:href="#m3c2f5accd7" x="417.965687" y="527.927298" style="fill: #a52a2a; stroke: #a52a2a"/>
     <use xlink:href="#m3c2f5accd7" x="423.063905" y="525.659403" style="fill: #a52a2a; stroke: #a52a2a"/>
     <use xlink:href="#m3c2f5accd7" x="428.162124" y="522.424939" style="fill: #a52a2a; stroke: #a52a2a"/>
     <use xlink:href="#m3c2f5accd7" x="433.260342" y="521.548942" style="fill: #a52a2a; stroke: #a52a2a"/>
     <use xlink:href="#m3c2f5accd7" x="438.358561" y="522.791117" style="fill: #a52a2a; stroke: #a52a2a"/>
     <use xlink:href="#m3c2f5accd7" x="443.456779" y="519.908673" style="fill: #a52a2a; stroke: #a52a2a"/>
     <use xlink:href="#m3c2f5accd7" x="448.554997" y="519.846731" style="fill: #a52a2a; stroke: #a52a2a"/>
     <use xlink:href="#m3c2f5accd7" x="453.653216" y="522.42406" style="fill: #a52a2a; stroke: #a52a2a"/>
     <use xlink:href="#m3c2f5accd7" x="458.751434" y="518.879554" style="fill: #a52a2a; stroke: #a52a2a"/>
     <use xlink:href="#m3c2f5accd7" x="463.849652" y="523.329781" style="fill: #a52a2a; stroke: #a52a2a"/>
     <use xlink:href="#m3c2f5accd7" x="468.947871" y="524.725939" style="fill: #a52a2a; stroke: #a52a2a"/>
     <use xlink:href="#m3c2f5accd7" x="474.046089" y="525.209791" style="fill: #a52a2a; stroke: #a52a2a"/>
     <use xlink:href="#m3c2f5accd7" x="479.144307" y="524.386986" style="fill: #a52a2a; stroke: #a52a2a"/>
     <use xlink:href="#m3c2f5accd7" x="484.242526" y="521.653752" style="fill: #a52a2a; stroke: #a52a2a"/>
     <use xlink:href="#m3c2f5accd7" x="489.340744" y="521.887634" style="fill: #a52a2a; stroke: #a52a2a"/>
     <use xlink:href="#m3c2f5accd7" x="494.438963" y="521.569971" style="fill: #a52a2a; stroke: #a52a2a"/>
     <use xlink:href="#m3c2f5accd7" x="499.537181" y="524.020793" style="fill: #a52a2a; stroke: #a52a2a"/>
     <use xlink:href="#m3c2f5accd7" x="504.635399" y="520.199963" style="fill: #a52a2a; stroke: #a52a2a"/>
     <use xlink:href="#m3c2f5accd7" x="509.733618" y="525.301582" style="fill: #a52a2a; stroke: #a52a2a"/>
     <use xlink:href="#m3c2f5accd7" x="514.831836" y="522.809675" style="fill: #a52a2a; stroke: #a52a2a"/>
     <use xlink:href="#m3c2f5accd7" x="519.930054" y="521.24706" style="fill: #a52a2a; stroke: #a52a2a"/>
     <use xlink:href="#m3c2f5accd7" x="525.028273" y="522.480937" style="fill: #a52a2a; stroke: #a52a2a"/>
     <use xlink:href="#m3c2f5accd7" x="530.126491" y="523.265132" style="fill: #a52a2a; stroke: #a52a2a"/>
     <use xlink:href="#m3c2f5accd7" x="535.224709" y="521.69932" style="fill: #a52a2a; stroke: #a52a2a"/>
     <use xlink:href="#m3c2f5accd7" x="540.322928" y="522.032189" style="fill: #a52a2a; stroke: #a52a2a"/>
     <use xlink:href="#m3c2f5accd7" x="545.421146" y="520.848909" style="fill: #a52a2a; stroke: #a52a2a"/>
     <use xlink:href="#m3c2f5accd7" x="550.519365" y="523.350133" style="fill: #a52a2a; stroke: #a52a2a"/>
     <use xlink:href="#m3c2f5accd7" x="555.617583" y="522.715866" style="fill: #a52a2a; stroke: #a52a2a"/>
     <use xlink:href="#m3c2f5accd7" x="560.715801" y="523.020113" style="fill: #a52a2a; stroke: #a52a2a"/>
     <use xlink:href="#m3c2f5accd7" x="565.81402" y="525.36916" style="fill: #a52a2a; stroke: #a52a2a"/>
     <use xlink:href="#m3c2f5accd7" x="570.912238" y="523.547705" style="fill: #a52a2a; stroke: #a52a2a"/>
     <use xlink:href="#m3c2f5accd7" x="576.010456" y="522.115677" style="fill: #a52a2a; stroke: #a52a2a"/>
     <use xlink:href="#m3c2f5accd7" x="581.108675" y="523.783982" style="fill: #a52a2a; stroke: #a52a2a"/>
     <use xlink:href="#m3c2f5accd7" x="586.206893" y="524.281993" style="fill: #a52a2a; stroke: #a52a2a"/>
     <use xlink:href="#m3c2f5accd7" x="591.305111" y="524.860613" style="fill: #a52a2a; stroke: #a52a2a"/>
     <use xlink:href="#m3c2f5accd7" x="596.40333" y="526.876154" style="fill: #a52a2a; stroke: #a52a2a"/>
     <use xlink:href="#m3c2f5accd7" x="601.501548" y="525.745854" style="fill: #a52a2a; stroke: #a52a2a"/>
     <use xlink:href="#m3c2f5accd7" x="606.599767" y="526.603682" style="fill: #a52a2a; stroke: #a52a2a"/>
     <use xlink:href="#m3c2f5accd7" x="611.697985" y="524.429027" style="fill: #a52a2a; stroke: #a52a2a"/>
     <use xlink:href="#m3c2f5accd7" x="616.796203" y="527.514358" style="fill: #a52a2a; stroke: #a52a2a"/>
     <use xlink:href="#m3c2f5accd7" x="621.894422" y="528.351464" style="fill: #a52a2a; stroke: #a52a2a"/>
     <use xlink:href="#m3c2f5accd7" x="626.99264" y="527.811405" style="fill: #a52a2a; stroke: #a52a2a"/>
     <use xlink:href="#m3c2f5accd7" x="632.090858" y="529.520465" style="fill: #a52a2a; stroke: #a52a2a"/>
     <use xlink:href="#m3c2f5accd7" x="637.189077" y="528.599416" style="fill: #a52a2a; stroke: #a52a2a"/>
     <use xlink:href="#m3c2f5accd7" x="642.287295" y="527.363126" style="fill: #a52a2a; stroke: #a52a2a"/>
     <use xlink:href="#m3c2f5accd7" x="647.385514" y="530.036004" style="fill: #a52a2a; stroke: #a52a2a"/>
     <use xlink:href="#m3c2f5accd7" x="652.483732" y="531.248408" style="fill: #a52a2a; stroke: #a52a2a"/>
     <use xlink:href="#m3c2f5accd7" x="657.58195" y="532.136285" style="fill: #a52a2a; stroke: #a52a2a"/>
     <use xlink:href="#m3c2f5accd7" x="662.680169" y="530.764065" style="fill: #a52a2a; stroke: #a52a2a"/>
     <use xlink:href="#m3c2f5accd7" x="667.778387" y="532.652996" style="fill: #a52a2a; stroke: #a52a2a"/>
     <use xlink:href="#m3c2f5accd7" x="672.876605" y="534.788551" style="fill: #a52a2a; stroke: #a52a2a"/>
     <use xlink:href="#m3c2f5accd7" x="677.974824" y="534.18566" style="fill: #a52a2a; stroke: #a52a2a"/>
     <use xlink:href="#m3c2f5accd7" x="683.073042" y="533.348092" style="fill: #a52a2a; stroke: #a52a2a"/>
     <use xlink:href="#m3c2f5accd7" x="688.17126" y="532.967081" style="fill: #a52a2a; stroke: #a52a2a"/>
     <use xlink:href="#m3c2f5accd7" x="693.269479" y="533.555015" style="fill: #a52a2a; stroke: #a52a2a"/>
     <use xlink:href="#m3c2f5accd7" x="698.367697" y="534.708795" style="fill: #a52a2a; stroke: #a52a2a"/>
     <use xlink:href="#m3c2f5accd7" x="703.465916" y="534.882818" style="fill: #a52a2a; stroke: #a52a2a"/>
     <use xlink:href="#m3c2f5accd7" x="708.564134" y="535.672752" style="fill: #a52a2a; stroke: #a52a2a"/>
     <use xlink:href="#m3c2f5accd7" x="713.662352" y="534.056054" style="fill: #a52a2a; stroke: #a52a2a"/>
     <use xlink:href="#m3c2f5accd7" x="718.760571" y="535.364373" style="fill: #a52a2a; stroke: #a52a2a"/>
     <use xlink:href="#m3c2f5accd7" x="723.858789" y="534.898811" style="fill: #a52a2a; stroke: #a52a2a"/>
     <use xlink:href="#m3c2f5accd7" x="728.957007" y="534.926166" style="fill: #a52a2a; stroke: #a52a2a"/>
     <use xlink:href="#m3c2f5accd7" x="734.055226" y="536.995636" style="fill: #a52a2a; stroke: #a52a2a"/>
     <use xlink:href="#m3c2f5accd7" x="739.153444" y="535.837" style="fill: #a52a2a; stroke: #a52a2a"/>
     <use xlink:href="#m3c2f5accd7" x="744.251662" y="536.11691" style="fill: #a52a2a; stroke: #a52a2a"/>
     <use xlink:href="#m3c2f5accd7" x="749.349881" y="536.768303" style="fill: #a52a2a; stroke: #a52a2a"/>
     <use xlink:href="#m3c2f5accd7" x="754.448099" y="537.432019" style="fill: #a52a2a; stroke: #a52a2a"/>
     <use xlink:href="#m3c2f5accd7" x="759.546318" y="536.894623" style="fill: #a52a2a; stroke: #a52a2a"/>
     <use xlink:href="#m3c2f5accd7" x="764.644536" y="537.669065" style="fill: #a52a2a; stroke: #a52a2a"/>
     <use xlink:href="#m3c2f5accd7" x="769.742754" y="537.601391" style="fill: #a52a2a; stroke: #a52a2a"/>
     <use xlink:href="#m3c2f5accd7" x="774.840973" y="537.603522" style="fill: #a52a2a; stroke: #a52a2a"/>
     <use xlink:href="#m3c2f5accd7" x="779.939191" y="536.921648" style="fill: #a52a2a; stroke: #a52a2a"/>
     <use xlink:href="#m3c2f5accd7" x="785.037409" y="536.582069" style="fill: #a52a2a; stroke: #a52a2a"/>
     <use xlink:href="#m3c2f5accd7" x="790.135628" y="537.649196" style="fill: #a52a2a; stroke: #a52a2a"/>
     <use xlink:href="#m3c2f5accd7" x="795.233846" y="536.774946" style="fill: #a52a2a; stroke: #a52a2a"/>
     <use xlink:href="#m3c2f5accd7" x="800.332064" y="535.861717" style="fill: #a52a2a; stroke: #a52a2a"/>
     <use xlink:href="#m3c2f5accd7" x="805.430283" y="535.846958" style="fill: #a52a2a; stroke: #a52a2a"/>
     <use xlink:href="#m3c2f5accd7" x="810.528501" y="535.697777" style="fill: #a52a2a; stroke: #a52a2a"/>
     <use xlink:href="#m3c2f5accd7" x="815.62672" y="535.073662" style="fill: #a52a2a; stroke: #a52a2a"/>
     <use xlink:href="#m3c2f5accd7" x="820.724938" y="534.316884" style="fill: #a52a2a; stroke: #a52a2a"/>
     <use xlink:href="#m3c2f5accd7" x="825.823156" y="534.416988" style="fill: #a52a2a; stroke: #a52a2a"/>
     <use xlink:href="#m3c2f5accd7" x="830.921375" y="534.214919" style="fill: #a52a2a; stroke: #a52a2a"/>
     <use xlink:href="#m3c2f5accd7" x="836.019593" y="534.314229" style="fill: #a52a2a; stroke: #a52a2a"/>
     <use xlink:href="#m3c2f5accd7" x="841.117811" y="535.783825" style="fill: #a52a2a; stroke: #a52a2a"/>
     <use xlink:href="#m3c2f5accd7" x="846.21603" y="536.280184" style="fill: #a52a2a; stroke: #a52a2a"/>
     <use xlink:href="#m3c2f5accd7" x="851.314248" y="536.076455" style="fill: #a52a2a; stroke: #a52a2a"/>
     <use xlink:href="#m3c2f5accd7" x="856.412466" y="536.287399" style="fill: #a52a2a; stroke: #a52a2a"/>
     <use xlink:href="#m3c2f5accd7" x="861.510685" y="536.492494" style="fill: #a52a2a; stroke: #a52a2a"/>
     <use xlink:href="#m3c2f5accd7" x="866.608903" y="533.903881" style="fill: #a52a2a; stroke: #a52a2a"/>
     <use xlink:href="#m3c2f5accd7" x="871.707122" y="532.738997" style="fill: #a52a2a; stroke: #a52a2a"/>
     <use xlink:href="#m3c2f5accd7" x="876.80534" y="533.035667" style="fill: #a52a2a; stroke: #a52a2a"/>
     <use xlink:href="#m3c2f5accd7" x="881.903558" y="533.828926" style="fill: #a52a2a; stroke: #a52a2a"/>
     <use xlink:href="#m3c2f5accd7" x="887.001777" y="535.921389" style="fill: #a52a2a; stroke: #a52a2a"/>
     <use xlink:href="#m3c2f5accd7" x="892.099995" y="536.284473" style="fill: #a52a2a; stroke: #a52a2a"/>
     <use xlink:href="#m3c2f5accd7" x="897.198213" y="536.612116" style="fill: #a52a2a; stroke: #a52a2a"/>
     <use xlink:href="#m3c2f5accd7" x="902.296432" y="536.789984" style="fill: #a52a2a; stroke: #a52a2a"/>
     <use xlink:href="#m3c2f5accd7" x="907.39465" y="536.787556" style="fill: #a52a2a; stroke: #a52a2a"/>
     <use xlink:href="#m3c2f5accd7" x="912.492868" y="536.188683" style="fill: #a52a2a; stroke: #a52a2a"/>
     <use xlink:href="#m3c2f5accd7" x="917.591087" y="536.756089" style="fill: #a52a2a; stroke: #a52a2a"/>
     <use xlink:href="#m3c2f5accd7" x="922.689305" y="535.828836" style="fill: #a52a2a; stroke: #a52a2a"/>
     <use xlink:href="#m3c2f5accd7" x="927.787524" y="537.388843" style="fill: #a52a2a; stroke: #a52a2a"/>
     <use xlink:href="#m3c2f5accd7" x="932.885742" y="537.992569" style="fill: #a52a2a; stroke: #a52a2a"/>
     <use xlink:href="#m3c2f5accd7" x="937.98396" y="537.929649" style="fill: #a52a2a; stroke: #a52a2a"/>
     <use xlink:href="#m3c2f5accd7" x="943.082179" y="537.933883" style="fill: #a52a2a; stroke: #a52a2a"/>
     <use xlink:href="#m3c2f5accd7" x="948.180397" y="536.607779" style="fill: #a52a2a; stroke: #a52a2a"/>
     <use xlink:href="#m3c2f5accd7" x="953.278615" y="537.530337" style="fill: #a52a2a; stroke: #a52a2a"/>
     <use xlink:href="#m3c2f5accd7" x="958.376834" y="536.666195" style="fill: #a52a2a; stroke: #a52a2a"/>
     <use xlink:href="#m3c2f5accd7" x="963.475052" y="535.69581" style="fill: #a52a2a; stroke: #a52a2a"/>
     <use xlink:href="#m3c2f5accd7" x="968.57327" y="535.526094" style="fill: #a52a2a; stroke: #a52a2a"/>
     <use xlink:href="#m3c2f5accd7" x="973.671489" y="535.402242" style="fill: #a52a2a; stroke: #a52a2a"/>
     <use xlink:href="#m3c2f5accd7" x="978.769707" y="535.299171" style="fill: #a52a2a; stroke: #a52a2a"/>
     <use xlink:href="#m3c2f5accd7" x="983.867926" y="535.013218" style="fill: #a52a2a; stroke: #a52a2a"/>
     <use xlink:href="#m3c2f5accd7" x="988.966144" y="536.300686" style="fill: #a52a2a; stroke: #a52a2a"/>
     <use xlink:href="#m3c2f5accd7" x="994.064362" y="535.213837" style="fill: #a52a2a; stroke: #a52a2a"/>
     <use xlink:href="#m3c2f5accd7" x="999.162581" y="535.283236" style="fill: #a52a2a; stroke: #a52a2a"/>
     <use xlink:href="#m3c2f5accd7" x="1004.260799" y="534.536841" style="fill: #a52a2a; stroke: #a52a2a"/>
     <use xlink:href="#m3c2f5accd7" x="1009.359017" y="536.284198" style="fill: #a52a2a; stroke: #a52a2a"/>
     <use xlink:href="#m3c2f5accd7" x="1014.457236" y="533.144638" style="fill: #a52a2a; stroke: #a52a2a"/>
     <use xlink:href="#m3c2f5accd7" x="1019.555454" y="536.927152" style="fill: #a52a2a; stroke: #a52a2a"/>
     <use xlink:href="#m3c2f5accd7" x="1024.653672" y="534.153115" style="fill: #a52a2a; stroke: #a52a2a"/>
     <use xlink:href="#m3c2f5accd7" x="1029.751891" y="536.998141" style="fill: #a52a2a; stroke: #a52a2a"/>
     <use xlink:href="#m3c2f5accd7" x="1034.850109" y="535.867617" style="fill: #a52a2a; stroke: #a52a2a"/>
     <use xlink:href="#m3c2f5accd7" x="1039.948328" y="536.624722" style="fill: #a52a2a; stroke: #a52a2a"/>
     <use xlink:href="#m3c2f5accd7" x="1045.046546" y="536.066852" style="fill: #a52a2a; stroke: #a52a2a"/>
     <use xlink:href="#m3c2f5accd7" x="1050.144764" y="536.254027" style="fill: #a52a2a; stroke: #a52a2a"/>
     <use xlink:href="#m3c2f5accd7" x="1055.242983" y="534.136558" style="fill: #a52a2a; stroke: #a52a2a"/>
     <use xlink:href="#m3c2f5accd7" x="1060.341201" y="537.087606" style="fill: #a52a2a; stroke: #a52a2a"/>
     <use xlink:href="#m3c2f5accd7" x="1065.439419" y="536.385354" style="fill: #a52a2a; stroke: #a52a2a"/>
     <use xlink:href="#m3c2f5accd7" x="1070.537638" y="535.012108" style="fill: #a52a2a; stroke: #a52a2a"/>
     <use xlink:href="#m3c2f5accd7" x="1075.635856" y="537.263827" style="fill: #a52a2a; stroke: #a52a2a"/>
     <use xlink:href="#m3c2f5accd7" x="1080.734074" y="538.986774" style="fill: #a52a2a; stroke: #a52a2a"/>
     <use xlink:href="#m3c2f5accd7" x="1085.832293" y="537.344477" style="fill: #a52a2a; stroke: #a52a2a"/>
     <use xlink:href="#m3c2f5accd7" x="1090.930511" y="537.94758" style="fill: #a52a2a; stroke: #a52a2a"/>
     <use xlink:href="#m3c2f5accd7" x="1096.02873" y="536.205702" style="fill: #a52a2a; stroke: #a52a2a"/>
     <use xlink:href="#m3c2f5accd7" x="1101.126948" y="537.555629" style="fill: #a52a2a; stroke: #a52a2a"/>
     <use xlink:href="#m3c2f5accd7" x="1106.225166" y="537.772711" style="fill: #a52a2a; stroke: #a52a2a"/>
     <use xlink:href="#m3c2f5accd7" x="1111.323385" y="538.183608" style="fill: #a52a2a; stroke: #a52a2a"/>
     <use xlink:href="#m3c2f5accd7" x="1116.421603" y="537.822758" style="fill: #a52a2a; stroke: #a52a2a"/>
     <use xlink:href="#m3c2f5accd7" x="1121.519821" y="537.303611" style="fill: #a52a2a; stroke: #a52a2a"/>
     <use xlink:href="#m3c2f5accd7" x="1126.61804" y="537.817957" style="fill: #a52a2a; stroke: #a52a2a"/>
    </g>
   </g>
   <g id="patch_3">
    <path d="M 61.345313 568.197656 
L 61.345313 24.597656 
" style="fill: none; stroke: #000000; stroke-width: 0.8; stroke-linejoin: miter; stroke-linecap: square"/>
   </g>
   <g id="patch_4">
    <path d="M 1177.345313 568.197656 
L 1177.345313 24.597656 
" style="fill: none; stroke: #000000; stroke-width: 0.8; stroke-linejoin: miter; stroke-linecap: square"/>
   </g>
   <g id="patch_5">
    <path d="M 61.345313 568.197656 
L 1177.345313 568.197656 
" style="fill: none; stroke: #000000; stroke-width: 0.8; stroke-linejoin: miter; stroke-linecap: square"/>
   </g>
   <g id="patch_6">
    <path d="M 61.345313 24.597656 
L 1177.345313 24.597656 
" style="fill: none; stroke: #000000; stroke-width: 0.8; stroke-linejoin: miter; stroke-linecap: square"/>
   </g>
   <g id="text_19">
    <!-- MSE between PCA and normal training -->
    <g transform="translate(474.689063 18.597656)scale(0.15 -0.15)">
     <defs>
      <path id="DejaVuSans-20" transform="scale(0.015625)"/>
      <path id="DejaVuSans-62" d="M 3116 1747 
Q 3116 2381 2855 2742 
Q 2594 3103 2138 3103 
Q 1681 3103 1420 2742 
Q 1159 2381 1159 1747 
Q 1159 1113 1420 752 
Q 1681 391 2138 391 
Q 2594 391 2855 752 
Q 3116 1113 3116 1747 
z
M 1159 2969 
Q 1341 3281 1617 3432 
Q 1894 3584 2278 3584 
Q 2916 3584 3314 3078 
Q 3713 2572 3713 1747 
Q 3713 922 3314 415 
Q 2916 -91 2278 -91 
Q 1894 -91 1617 61 
Q 1341 213 1159 525 
L 1159 0 
L 581 0 
L 581 4863 
L 1159 4863 
L 1159 2969 
z
" transform="scale(0.015625)"/>
      <path id="DejaVuSans-74" d="M 1172 4494 
L 1172 3500 
L 2356 3500 
L 2356 3053 
L 1172 3053 
L 1172 1153 
Q 1172 725 1289 603 
Q 1406 481 1766 481 
L 2356 481 
L 2356 0 
L 1766 0 
Q 1100 0 847 248 
Q 594 497 594 1153 
L 594 3053 
L 172 3053 
L 172 3500 
L 594 3500 
L 594 4494 
L 1172 4494 
z
" transform="scale(0.015625)"/>
      <path id="DejaVuSans-77" d="M 269 3500 
L 844 3500 
L 1563 769 
L 2278 3500 
L 2956 3500 
L 3675 769 
L 4391 3500 
L 4966 3500 
L 4050 0 
L 3372 0 
L 2619 2869 
L 1863 0 
L 1184 0 
L 269 3500 
z
" transform="scale(0.015625)"/>
      <path id="DejaVuSans-6e" d="M 3513 2113 
L 3513 0 
L 2938 0 
L 2938 2094 
Q 2938 2591 2744 2837 
Q 2550 3084 2163 3084 
Q 1697 3084 1428 2787 
Q 1159 2491 1159 1978 
L 1159 0 
L 581 0 
L 581 3500 
L 1159 3500 
L 1159 2956 
Q 1366 3272 1645 3428 
Q 1925 3584 2291 3584 
Q 2894 3584 3203 3211 
Q 3513 2838 3513 2113 
z
" transform="scale(0.015625)"/>
      <path id="DejaVuSans-50" d="M 1259 4147 
L 1259 2394 
L 2053 2394 
Q 2494 2394 2734 2622 
Q 2975 2850 2975 3272 
Q 2975 3691 2734 3919 
Q 2494 4147 2053 4147 
L 1259 4147 
z
M 628 4666 
L 2053 4666 
Q 2838 4666 3239 4311 
Q 3641 3956 3641 3272 
Q 3641 2581 3239 2228 
Q 2838 1875 2053 1875 
L 1259 1875 
L 1259 0 
L 628 0 
L 628 4666 
z
" transform="scale(0.015625)"/>
      <path id="DejaVuSans-43" d="M 4122 4306 
L 4122 3641 
Q 3803 3938 3442 4084 
Q 3081 4231 2675 4231 
Q 1875 4231 1450 3742 
Q 1025 3253 1025 2328 
Q 1025 1406 1450 917 
Q 1875 428 2675 428 
Q 3081 428 3442 575 
Q 3803 722 4122 1019 
L 4122 359 
Q 3791 134 3420 21 
Q 3050 -91 2638 -91 
Q 1578 -91 968 557 
Q 359 1206 359 2328 
Q 359 3453 968 4101 
Q 1578 4750 2638 4750 
Q 3056 4750 3426 4639 
Q 3797 4528 4122 4306 
z
" transform="scale(0.015625)"/>
      <path id="DejaVuSans-41" d="M 2188 4044 
L 1331 1722 
L 3047 1722 
L 2188 4044 
z
M 1831 4666 
L 2547 4666 
L 4325 0 
L 3669 0 
L 3244 1197 
L 1141 1197 
L 716 0 
L 50 0 
L 1831 4666 
z
" transform="scale(0.015625)"/>
      <path id="DejaVuSans-61" d="M 2194 1759 
Q 1497 1759 1228 1600 
Q 959 1441 959 1056 
Q 959 750 1161 570 
Q 1363 391 1709 391 
Q 2188 391 2477 730 
Q 2766 1069 2766 1631 
L 2766 1759 
L 2194 1759 
z
M 3341 1997 
L 3341 0 
L 2766 0 
L 2766 531 
Q 2569 213 2275 61 
Q 1981 -91 1556 -91 
Q 1019 -91 701 211 
Q 384 513 384 1019 
Q 384 1609 779 1909 
Q 1175 2209 1959 2209 
L 2766 2209 
L 2766 2266 
Q 2766 2663 2505 2880 
Q 2244 3097 1772 3097 
Q 1472 3097 1187 3025 
Q 903 2953 641 2809 
L 641 3341 
Q 956 3463 1253 3523 
Q 1550 3584 1831 3584 
Q 2591 3584 2966 3190 
Q 3341 2797 3341 1997 
z
" transform="scale(0.015625)"/>
      <path id="DejaVuSans-64" d="M 2906 2969 
L 2906 4863 
L 3481 4863 
L 3481 0 
L 2906 0 
L 2906 525 
Q 2725 213 2448 61 
Q 2172 -91 1784 -91 
Q 1150 -91 751 415 
Q 353 922 353 1747 
Q 353 2572 751 3078 
Q 1150 3584 1784 3584 
Q 2172 3584 2448 3432 
Q 2725 3281 2906 2969 
z
M 947 1747 
Q 947 1113 1208 752 
Q 1469 391 1925 391 
Q 2381 391 2643 752 
Q 2906 1113 2906 1747 
Q 2906 2381 2643 2742 
Q 2381 3103 1925 3103 
Q 1469 3103 1208 2742 
Q 947 2381 947 1747 
z
" transform="scale(0.015625)"/>
      <path id="DejaVuSans-72" d="M 2631 2963 
Q 2534 3019 2420 3045 
Q 2306 3072 2169 3072 
Q 1681 3072 1420 2755 
Q 1159 2438 1159 1844 
L 1159 0 
L 581 0 
L 581 3500 
L 1159 3500 
L 1159 2956 
Q 1341 3275 1631 3429 
Q 1922 3584 2338 3584 
Q 2397 3584 2469 3576 
Q 2541 3569 2628 3553 
L 2631 2963 
z
" transform="scale(0.015625)"/>
      <path id="DejaVuSans-6d" d="M 3328 2828 
Q 3544 3216 3844 3400 
Q 4144 3584 4550 3584 
Q 5097 3584 5394 3201 
Q 5691 2819 5691 2113 
L 5691 0 
L 5113 0 
L 5113 2094 
Q 5113 2597 4934 2840 
Q 4756 3084 4391 3084 
Q 3944 3084 3684 2787 
Q 3425 2491 3425 1978 
L 3425 0 
L 2847 0 
L 2847 2094 
Q 2847 2600 2669 2842 
Q 2491 3084 2119 3084 
Q 1678 3084 1418 2786 
Q 1159 2488 1159 1978 
L 1159 0 
L 581 0 
L 581 3500 
L 1159 3500 
L 1159 2956 
Q 1356 3278 1631 3431 
Q 1906 3584 2284 3584 
Q 2666 3584 2933 3390 
Q 3200 3197 3328 2828 
z
" transform="scale(0.015625)"/>
      <path id="DejaVuSans-6c" d="M 603 4863 
L 1178 4863 
L 1178 0 
L 603 0 
L 603 4863 
z
" transform="scale(0.015625)"/>
      <path id="DejaVuSans-69" d="M 603 3500 
L 1178 3500 
L 1178 0 
L 603 0 
L 603 3500 
z
M 603 4863 
L 1178 4863 
L 1178 4134 
L 603 4134 
L 603 4863 
z
" transform="scale(0.015625)"/>
      <path id="DejaVuSans-67" d="M 2906 1791 
Q 2906 2416 2648 2759 
Q 2391 3103 1925 3103 
Q 1463 3103 1205 2759 
Q 947 2416 947 1791 
Q 947 1169 1205 825 
Q 1463 481 1925 481 
Q 2391 481 2648 825 
Q 2906 1169 2906 1791 
z
M 3481 434 
Q 3481 -459 3084 -895 
Q 2688 -1331 1869 -1331 
Q 1566 -1331 1297 -1286 
Q 1028 -1241 775 -1147 
L 775 -588 
Q 1028 -725 1275 -790 
Q 1522 -856 1778 -856 
Q 2344 -856 2625 -561 
Q 2906 -266 2906 331 
L 2906 616 
Q 2728 306 2450 153 
Q 2172 0 1784 0 
Q 1141 0 747 490 
Q 353 981 353 1791 
Q 353 2603 747 3093 
Q 1141 3584 1784 3584 
Q 2172 3584 2450 3431 
Q 2728 3278 2906 2969 
L 2906 3500 
L 3481 3500 
L 3481 434 
z
" transform="scale(0.015625)"/>
     </defs>
     <use xlink:href="#DejaVuSans-4d"/>
     <use xlink:href="#DejaVuSans-53" x="86.279297"/>
     <use xlink:href="#DejaVuSans-45" x="149.755859"/>
     <use xlink:href="#DejaVuSans-20" x="212.939453"/>
     <use xlink:href="#DejaVuSans-62" x="244.726562"/>
     <use xlink:href="#DejaVuSans-65" x="308.203125"/>
     <use xlink:href="#DejaVuSans-74" x="369.726562"/>
     <use xlink:href="#DejaVuSans-77" x="408.935547"/>
     <use xlink:href="#DejaVuSans-65" x="490.722656"/>
     <use xlink:href="#DejaVuSans-65" x="552.246094"/>
     <use xlink:href="#DejaVuSans-6e" x="613.769531"/>
     <use xlink:href="#DejaVuSans-20" x="677.148438"/>
     <use xlink:href="#DejaVuSans-50" x="708.935547"/>
     <use xlink:href="#DejaVuSans-43" x="769.238281"/>
     <use xlink:href="#DejaVuSans-41" x="839.0625"/>
     <use xlink:href="#DejaVuSans-20" x="907.470703"/>
     <use xlink:href="#DejaVuSans-61" x="939.257812"/>
     <use xlink:href="#DejaVuSans-6e" x="1000.537109"/>
     <use xlink:href="#DejaVuSans-64" x="1063.916016"/>
     <use xlink:href="#DejaVuSans-20" x="1127.392578"/>
     <use xlink:href="#DejaVuSans-6e" x="1159.179688"/>
     <use xlink:href="#DejaVuSans-6f" x="1222.558594"/>
     <use xlink:href="#DejaVuSans-72" x="1283.740234"/>
     <use xlink:href="#DejaVuSans-6d" x="1323.103516"/>
     <use xlink:href="#DejaVuSans-61" x="1420.515625"/>
     <use xlink:href="#DejaVuSans-6c" x="1481.794922"/>
     <use xlink:href="#DejaVuSans-20" x="1509.578125"/>
     <use xlink:href="#DejaVuSans-74" x="1541.365234"/>
     <use xlink:href="#DejaVuSans-72" x="1580.574219"/>
     <use xlink:href="#DejaVuSans-61" x="1621.6875"/>
     <use xlink:href="#DejaVuSans-69" x="1682.966797"/>
     <use xlink:href="#DejaVuSans-6e" x="1710.75"/>
     <use xlink:href="#DejaVuSans-69" x="1774.128906"/>
     <use xlink:href="#DejaVuSans-6e" x="1801.912109"/>
     <use xlink:href="#DejaVuSans-67" x="1865.291016"/>
    </g>
   </g>
   <g id="legend_1">
    <g id="patch_7">
     <path d="M 1044.007031 80.632031 
L 1166.845312 80.632031 
Q 1169.845312 80.632031 1169.845312 77.632031 
L 1169.845312 35.097656 
Q 1169.845312 32.097656 1166.845312 32.097656 
L 1044.007031 32.097656 
Q 1041.007031 32.097656 1041.007031 35.097656 
L 1041.007031 77.632031 
Q 1041.007031 80.632031 1044.007031 80.632031 
z
" style="fill: #ffffff; opacity: 0.8; stroke: #cccccc; stroke-linejoin: miter"/>
    </g>
    <g id="line2d_19">
     <path d="M 1047.007031 44.245312 
L 1062.007031 44.245312 
L 1077.007031 44.245312 
" style="fill: none; stroke: #2e8b57; stroke-width: 1.5; stroke-linecap: square"/>
     <g>
      <use xlink:href="#m34b8fb7f93" x="1062.007031" y="44.245312" style="fill: #2e8b57"/>
     </g>
    </g>
    <g id="text_20">
     <!-- LSTM -->
     <g transform="translate(1089.007031 49.495312)scale(0.15 -0.15)">
      <defs>
       <path id="DejaVuSans-4c" d="M 628 4666 
L 1259 4666 
L 1259 531 
L 3531 531 
L 3531 0 
L 628 0 
L 628 4666 
z
" transform="scale(0.015625)"/>
       <path id="DejaVuSans-54" d="M -19 4666 
L 3928 4666 
L 3928 4134 
L 2272 4134 
L 2272 0 
L 1638 0 
L 1638 4134 
L -19 4134 
L -19 4666 
z
" transform="scale(0.015625)"/>
      </defs>
      <use xlink:href="#DejaVuSans-4c"/>
      <use xlink:href="#DejaVuSans-53" x="55.712891"/>
      <use xlink:href="#DejaVuSans-54" x="119.189453"/>
      <use xlink:href="#DejaVuSans-4d" x="180.273438"/>
     </g>
    </g>
    <g id="line2d_20">
     <path d="M 1047.007031 66.2625 
L 1062.007031 66.2625 
L 1077.007031 66.2625 
" style="fill: none; stroke: #a52a2a; stroke-width: 1.5; stroke-linecap: square"/>
     <g>
      <use xlink:href="#m3c2f5accd7" x="1062.007031" y="66.2625" style="fill: #a52a2a; stroke: #a52a2a"/>
     </g>
    </g>
    <g id="text_21">
     <!-- PCA-LSTM -->
     <g transform="translate(1089.007031 71.5125)scale(0.15 -0.15)">
      <defs>
       <path id="DejaVuSans-2d" d="M 313 2009 
L 1997 2009 
L 1997 1497 
L 313 1497 
L 313 2009 
z
" transform="scale(0.015625)"/>
      </defs>
      <use xlink:href="#DejaVuSans-50"/>
      <use xlink:href="#DejaVuSans-43" x="60.302734"/>
      <use xlink:href="#DejaVuSans-41" x="130.126953"/>
      <use xlink:href="#DejaVuSans-2d" x="196.285156"/>
      <use xlink:href="#DejaVuSans-4c" x="232.369141"/>
      <use xlink:href="#DejaVuSans-53" x="288.082031"/>
      <use xlink:href="#DejaVuSans-54" x="351.558594"/>
      <use xlink:href="#DejaVuSans-4d" x="412.642578"/>
     </g>
    </g>
   </g>
  </g>
 </g>
 <defs>
  <clipPath id="p344c17da0a">
   <rect x="61.345313" y="24.597656" width="1116" height="543.6"/>
  </clipPath>
 </defs>
</svg>
