<?xml version="1.0" encoding="utf-8" standalone="no"?>
<!DOCTYPE svg PUBLIC "-//W3C//DTD SVG 1.1//EN"
  "http://www.w3.org/Graphics/SVG/1.1/DTD/svg11.dtd">
<svg xmlns:xlink="http://www.w3.org/1999/xlink" width="433.135551pt" height="382.757175pt" viewBox="0 0 433.135551 382.757175" xmlns="http://www.w3.org/2000/svg" version="1.1">
 <metadata>
  <rdf:RDF xmlns:dc="http://purl.org/dc/elements/1.1/" xmlns:cc="http://creativecommons.org/ns#" xmlns:rdf="http://www.w3.org/1999/02/22-rdf-syntax-ns#">
   <cc:Work>
    <dc:type rdf:resource="http://purl.org/dc/dcmitype/StillImage"/>
    <dc:date>2022-07-13T15:35:09.754889</dc:date>
    <dc:format>image/svg+xml</dc:format>
    <dc:creator>
     <cc:Agent>
      <dc:title>Matplotlib v3.5.2, https://matplotlib.org/</dc:title>
     </cc:Agent>
    </dc:creator>
   </cc:Work>
  </rdf:RDF>
 </metadata>
 <defs>
  <style type="text/css">*{stroke-linejoin: round; stroke-linecap: butt}</style>
 </defs>
 <g id="figure_1">
  <g id="patch_1">
   <path d="M 0 382.757175 
L 433.135551 382.757175 
L 433.135551 0 
L 0 0 
L 0 382.757175 
z
" style="fill: none"/>
  </g>
  <g id="axes_1">
   <g id="patch_2">
    <path d="M 398.691525 212.477175 
C 398.691525 191.061706 394.473145 169.854475 386.2778 150.069161 
C 378.082454 130.283847 366.069523 112.305225 350.926499 97.162201 
C 335.783476 82.019178 317.804853 70.006246 298.01954 61.810901 
C 278.234226 53.615556 257.026995 49.397175 235.611525 49.397175 
C 214.196056 49.397175 192.988825 53.615556 173.203511 61.810901 
C 153.418197 70.006246 135.439575 82.019178 120.296552 97.162201 
C 105.153528 112.305225 93.140597 130.283847 84.945251 150.069161 
C 76.749906 169.854475 72.531525 191.061706 72.531525 212.477175 
C 72.531525 233.892644 76.749906 255.099875 84.945251 274.885189 
C 93.140597 294.670503 105.153528 312.649125 120.296552 327.792149 
C 135.439575 342.935172 153.418197 354.948104 173.203511 363.143449 
C 192.988825 371.338794 214.196056 375.557175 235.611525 375.557175 
C 257.026995 375.557175 278.234226 371.338794 298.01954 363.143449 
C 317.804853 354.948104 335.783476 342.935172 350.926499 327.792149 
C 366.069523 312.649125 378.082454 294.670503 386.2778 274.885189 
C 394.473145 255.099875 398.691525 233.892644 398.691525 212.477175 
M 235.611525 212.477175 
C 235.611525 212.477175 235.611525 212.477175 235.611525 212.477175 
C 235.611525 212.477175 235.611525 212.477175 235.611525 212.477175 
C 235.611525 212.477175 235.611525 212.477175 235.611525 212.477175 
C 235.611525 212.477175 235.611525 212.477175 235.611525 212.477175 
C 235.611525 212.477175 235.611525 212.477175 235.611525 212.477175 
C 235.611525 212.477175 235.611525 212.477175 235.611525 212.477175 
C 235.611525 212.477175 235.611525 212.477175 235.611525 212.477175 
C 235.611525 212.477175 235.611525 212.477175 235.611525 212.477175 
C 235.611525 212.477175 235.611525 212.477175 235.611525 212.477175 
C 235.611525 212.477175 235.611525 212.477175 235.611525 212.477175 
C 235.611525 212.477175 235.611525 212.477175 235.611525 212.477175 
C 235.611525 212.477175 235.611525 212.477175 235.611525 212.477175 
C 235.611525 212.477175 235.611525 212.477175 235.611525 212.477175 
C 235.611525 212.477175 235.611525 212.477175 235.611525 212.477175 
C 235.611525 212.477175 235.611525 212.477175 235.611525 212.477175 
C 235.611525 212.477175 235.611525 212.477175 235.611525 212.477175 
M 398.691525 212.477175 
z
" style="fill: #ffffff"/>
   </g>
   <g id="patch_3">
    <path d="M 235.611525 193.63085 
L 248.862386 208.171709 
L 245.595934 226.219535 
L 218.651374 235.820821 
L 87.267869 164.277399 
z
" clip-path="url(#p663254ff7c)" style="fill: #ff00e4; opacity: 0.25; stroke: #ff00e4; stroke-linejoin: miter"/>
   </g>
   <g id="matplotlib.axis_1">
    <g id="xtick_1">
     <g id="line2d_1">
      <path d="M 235.611525 212.477175 
L 235.611525 49.397175 
" clip-path="url(#p663254ff7c)" style="fill: none; stroke: #b0b0b0; stroke-width: 0.8; stroke-linecap: square"/>
     </g>
     <g id="text_1">
      <!-- LSTM -->
      <g transform="translate(222.2834 38.15655)scale(0.1 -0.1)">
       <defs>
        <path id="DejaVuSans-4c" d="M 628 4666 
L 1259 4666 
L 1259 531 
L 3531 531 
L 3531 0 
L 628 0 
L 628 4666 
z
" transform="scale(0.015625)"/>
        <path id="DejaVuSans-53" d="M 3425 4513 
L 3425 3897 
Q 3066 4069 2747 4153 
Q 2428 4238 2131 4238 
Q 1616 4238 1336 4038 
Q 1056 3838 1056 3469 
Q 1056 3159 1242 3001 
Q 1428 2844 1947 2747 
L 2328 2669 
Q 3034 2534 3370 2195 
Q 3706 1856 3706 1288 
Q 3706 609 3251 259 
Q 2797 -91 1919 -91 
Q 1588 -91 1214 -16 
Q 841 59 441 206 
L 441 856 
Q 825 641 1194 531 
Q 1563 422 1919 422 
Q 2459 422 2753 634 
Q 3047 847 3047 1241 
Q 3047 1584 2836 1778 
Q 2625 1972 2144 2069 
L 1759 2144 
Q 1053 2284 737 2584 
Q 422 2884 422 3419 
Q 422 4038 858 4394 
Q 1294 4750 2059 4750 
Q 2388 4750 2728 4690 
Q 3069 4631 3425 4513 
z
" transform="scale(0.015625)"/>
        <path id="DejaVuSans-54" d="M -19 4666 
L 3928 4666 
L 3928 4134 
L 2272 4134 
L 2272 0 
L 1638 0 
L 1638 4134 
L -19 4134 
L -19 4666 
z
" transform="scale(0.015625)"/>
        <path id="DejaVuSans-4d" d="M 628 4666 
L 1569 4666 
L 2759 1491 
L 3956 4666 
L 4897 4666 
L 4897 0 
L 4281 0 
L 4281 4097 
L 3078 897 
L 2444 897 
L 1241 4097 
L 1241 0 
L 628 0 
L 628 4666 
z
" transform="scale(0.015625)"/>
       </defs>
       <use xlink:href="#DejaVuSans-4c"/>
       <use xlink:href="#DejaVuSans-53" x="55.712891"/>
       <use xlink:href="#DejaVuSans-54" x="119.189453"/>
       <use xlink:href="#DejaVuSans-4d" x="180.273438"/>
      </g>
     </g>
    </g>
    <g id="xtick_2">
     <g id="line2d_2">
      <path d="M 235.611525 212.477175 
L 390.709822 162.082684 
" clip-path="url(#p663254ff7c)" style="fill: none; stroke: #b0b0b0; stroke-width: 0.8; stroke-linecap: square"/>
     </g>
     <g id="text_2">
      <!-- RNN -->
      <g transform="translate(404.024613 160.515821)scale(0.1 -0.1)">
       <defs>
        <path id="DejaVuSans-52" d="M 2841 2188 
Q 3044 2119 3236 1894 
Q 3428 1669 3622 1275 
L 4263 0 
L 3584 0 
L 2988 1197 
Q 2756 1666 2539 1819 
Q 2322 1972 1947 1972 
L 1259 1972 
L 1259 0 
L 628 0 
L 628 4666 
L 2053 4666 
Q 2853 4666 3247 4331 
Q 3641 3997 3641 3322 
Q 3641 2881 3436 2590 
Q 3231 2300 2841 2188 
z
M 1259 4147 
L 1259 2491 
L 2053 2491 
Q 2509 2491 2742 2702 
Q 2975 2913 2975 3322 
Q 2975 3731 2742 3939 
Q 2509 4147 2053 4147 
L 1259 4147 
z
" transform="scale(0.015625)"/>
        <path id="DejaVuSans-4e" d="M 628 4666 
L 1478 4666 
L 3547 763 
L 3547 4666 
L 4159 4666 
L 4159 0 
L 3309 0 
L 1241 3903 
L 1241 0 
L 628 0 
L 628 4666 
z
" transform="scale(0.015625)"/>
       </defs>
       <use xlink:href="#DejaVuSans-52"/>
       <use xlink:href="#DejaVuSans-4e" x="69.482422"/>
       <use xlink:href="#DejaVuSans-4e" x="144.287109"/>
      </g>
     </g>
    </g>
    <g id="xtick_3">
     <g id="line2d_3">
      <path d="M 235.611525 212.477175 
L 331.467544 344.411666 
" clip-path="url(#p663254ff7c)" style="fill: none; stroke: #b0b0b0; stroke-width: 0.8; stroke-linecap: square"/>
     </g>
     <g id="text_3">
      <!-- GRU -->
      <g transform="translate(339.696538 358.497279)scale(0.1 -0.1)">
       <defs>
        <path id="DejaVuSans-47" d="M 3809 666 
L 3809 1919 
L 2778 1919 
L 2778 2438 
L 4434 2438 
L 4434 434 
Q 4069 175 3628 42 
Q 3188 -91 2688 -91 
Q 1594 -91 976 548 
Q 359 1188 359 2328 
Q 359 3472 976 4111 
Q 1594 4750 2688 4750 
Q 3144 4750 3555 4637 
Q 3966 4525 4313 4306 
L 4313 3634 
Q 3963 3931 3569 4081 
Q 3175 4231 2741 4231 
Q 1884 4231 1454 3753 
Q 1025 3275 1025 2328 
Q 1025 1384 1454 906 
Q 1884 428 2741 428 
Q 3075 428 3337 486 
Q 3600 544 3809 666 
z
" transform="scale(0.015625)"/>
        <path id="DejaVuSans-55" d="M 556 4666 
L 1191 4666 
L 1191 1831 
Q 1191 1081 1462 751 
Q 1734 422 2344 422 
Q 2950 422 3222 751 
Q 3494 1081 3494 1831 
L 3494 4666 
L 4128 4666 
L 4128 1753 
Q 4128 841 3676 375 
Q 3225 -91 2344 -91 
Q 1459 -91 1007 375 
Q 556 841 556 1753 
L 556 4666 
z
" transform="scale(0.015625)"/>
       </defs>
       <use xlink:href="#DejaVuSans-47"/>
       <use xlink:href="#DejaVuSans-52" x="77.490234"/>
       <use xlink:href="#DejaVuSans-55" x="146.972656"/>
      </g>
     </g>
    </g>
    <g id="xtick_4">
     <g id="line2d_4">
      <path d="M 235.611525 212.477175 
L 139.755506 344.411666 
" clip-path="url(#p663254ff7c)" style="fill: none; stroke: #b0b0b0; stroke-width: 0.8; stroke-linecap: square"/>
     </g>
     <g id="text_4">
      <!-- TST -->
      <g transform="translate(112.96245 358.497279)scale(0.1 -0.1)">
       <use xlink:href="#DejaVuSans-54"/>
       <use xlink:href="#DejaVuSans-53" x="61.083984"/>
       <use xlink:href="#DejaVuSans-54" x="124.560547"/>
      </g>
     </g>
    </g>
    <g id="xtick_5">
     <g id="line2d_5">
      <path d="M 235.611525 212.477175 
L 80.513229 162.082684 
" clip-path="url(#p663254ff7c)" style="fill: none; stroke: #b0b0b0; stroke-width: 0.8; stroke-linecap: square"/>
     </g>
     <g id="text_5">
      <!-- Transformer -->
      <g transform="translate(7.2 160.515821)scale(0.1 -0.1)">
       <defs>
        <path id="DejaVuSans-72" d="M 2631 2963 
Q 2534 3019 2420 3045 
Q 2306 3072 2169 3072 
Q 1681 3072 1420 2755 
Q 1159 2438 1159 1844 
L 1159 0 
L 581 0 
L 581 3500 
L 1159 3500 
L 1159 2956 
Q 1341 3275 1631 3429 
Q 1922 3584 2338 3584 
Q 2397 3584 2469 3576 
Q 2541 3569 2628 3553 
L 2631 2963 
z
" transform="scale(0.015625)"/>
        <path id="DejaVuSans-61" d="M 2194 1759 
Q 1497 1759 1228 1600 
Q 959 1441 959 1056 
Q 959 750 1161 570 
Q 1363 391 1709 391 
Q 2188 391 2477 730 
Q 2766 1069 2766 1631 
L 2766 1759 
L 2194 1759 
z
M 3341 1997 
L 3341 0 
L 2766 0 
L 2766 531 
Q 2569 213 2275 61 
Q 1981 -91 1556 -91 
Q 1019 -91 701 211 
Q 384 513 384 1019 
Q 384 1609 779 1909 
Q 1175 2209 1959 2209 
L 2766 2209 
L 2766 2266 
Q 2766 2663 2505 2880 
Q 2244 3097 1772 3097 
Q 1472 3097 1187 3025 
Q 903 2953 641 2809 
L 641 3341 
Q 956 3463 1253 3523 
Q 1550 3584 1831 3584 
Q 2591 3584 2966 3190 
Q 3341 2797 3341 1997 
z
" transform="scale(0.015625)"/>
        <path id="DejaVuSans-6e" d="M 3513 2113 
L 3513 0 
L 2938 0 
L 2938 2094 
Q 2938 2591 2744 2837 
Q 2550 3084 2163 3084 
Q 1697 3084 1428 2787 
Q 1159 2491 1159 1978 
L 1159 0 
L 581 0 
L 581 3500 
L 1159 3500 
L 1159 2956 
Q 1366 3272 1645 3428 
Q 1925 3584 2291 3584 
Q 2894 3584 3203 3211 
Q 3513 2838 3513 2113 
z
" transform="scale(0.015625)"/>
        <path id="DejaVuSans-73" d="M 2834 3397 
L 2834 2853 
Q 2591 2978 2328 3040 
Q 2066 3103 1784 3103 
Q 1356 3103 1142 2972 
Q 928 2841 928 2578 
Q 928 2378 1081 2264 
Q 1234 2150 1697 2047 
L 1894 2003 
Q 2506 1872 2764 1633 
Q 3022 1394 3022 966 
Q 3022 478 2636 193 
Q 2250 -91 1575 -91 
Q 1294 -91 989 -36 
Q 684 19 347 128 
L 347 722 
Q 666 556 975 473 
Q 1284 391 1588 391 
Q 1994 391 2212 530 
Q 2431 669 2431 922 
Q 2431 1156 2273 1281 
Q 2116 1406 1581 1522 
L 1381 1569 
Q 847 1681 609 1914 
Q 372 2147 372 2553 
Q 372 3047 722 3315 
Q 1072 3584 1716 3584 
Q 2034 3584 2315 3537 
Q 2597 3491 2834 3397 
z
" transform="scale(0.015625)"/>
        <path id="DejaVuSans-66" d="M 2375 4863 
L 2375 4384 
L 1825 4384 
Q 1516 4384 1395 4259 
Q 1275 4134 1275 3809 
L 1275 3500 
L 2222 3500 
L 2222 3053 
L 1275 3053 
L 1275 0 
L 697 0 
L 697 3053 
L 147 3053 
L 147 3500 
L 697 3500 
L 697 3744 
Q 697 4328 969 4595 
Q 1241 4863 1831 4863 
L 2375 4863 
z
" transform="scale(0.015625)"/>
        <path id="DejaVuSans-6f" d="M 1959 3097 
Q 1497 3097 1228 2736 
Q 959 2375 959 1747 
Q 959 1119 1226 758 
Q 1494 397 1959 397 
Q 2419 397 2687 759 
Q 2956 1122 2956 1747 
Q 2956 2369 2687 2733 
Q 2419 3097 1959 3097 
z
M 1959 3584 
Q 2709 3584 3137 3096 
Q 3566 2609 3566 1747 
Q 3566 888 3137 398 
Q 2709 -91 1959 -91 
Q 1206 -91 779 398 
Q 353 888 353 1747 
Q 353 2609 779 3096 
Q 1206 3584 1959 3584 
z
" transform="scale(0.015625)"/>
        <path id="DejaVuSans-6d" d="M 3328 2828 
Q 3544 3216 3844 3400 
Q 4144 3584 4550 3584 
Q 5097 3584 5394 3201 
Q 5691 2819 5691 2113 
L 5691 0 
L 5113 0 
L 5113 2094 
Q 5113 2597 4934 2840 
Q 4756 3084 4391 3084 
Q 3944 3084 3684 2787 
Q 3425 2491 3425 1978 
L 3425 0 
L 2847 0 
L 2847 2094 
Q 2847 2600 2669 2842 
Q 2491 3084 2119 3084 
Q 1678 3084 1418 2786 
Q 1159 2488 1159 1978 
L 1159 0 
L 581 0 
L 581 3500 
L 1159 3500 
L 1159 2956 
Q 1356 3278 1631 3431 
Q 1906 3584 2284 3584 
Q 2666 3584 2933 3390 
Q 3200 3197 3328 2828 
z
" transform="scale(0.015625)"/>
        <path id="DejaVuSans-65" d="M 3597 1894 
L 3597 1613 
L 953 1613 
Q 991 1019 1311 708 
Q 1631 397 2203 397 
Q 2534 397 2845 478 
Q 3156 559 3463 722 
L 3463 178 
Q 3153 47 2828 -22 
Q 2503 -91 2169 -91 
Q 1331 -91 842 396 
Q 353 884 353 1716 
Q 353 2575 817 3079 
Q 1281 3584 2069 3584 
Q 2775 3584 3186 3129 
Q 3597 2675 3597 1894 
z
M 3022 2063 
Q 3016 2534 2758 2815 
Q 2500 3097 2075 3097 
Q 1594 3097 1305 2825 
Q 1016 2553 972 2059 
L 3022 2063 
z
" transform="scale(0.015625)"/>
       </defs>
       <use xlink:href="#DejaVuSans-54"/>
       <use xlink:href="#DejaVuSans-72" x="46.333984"/>
       <use xlink:href="#DejaVuSans-61" x="87.447266"/>
       <use xlink:href="#DejaVuSans-6e" x="148.726562"/>
       <use xlink:href="#DejaVuSans-73" x="212.105469"/>
       <use xlink:href="#DejaVuSans-66" x="264.205078"/>
       <use xlink:href="#DejaVuSans-6f" x="299.410156"/>
       <use xlink:href="#DejaVuSans-72" x="360.591797"/>
       <use xlink:href="#DejaVuSans-6d" x="399.955078"/>
       <use xlink:href="#DejaVuSans-65" x="497.367188"/>
       <use xlink:href="#DejaVuSans-72" x="558.890625"/>
      </g>
     </g>
    </g>
   </g>
   <g id="matplotlib.axis_2">
    <g id="ytick_1">
     <g id="line2d_6">
      <path d="M 235.611525 190.298204 
C 238.524041 190.298204 241.408236 190.871907 244.09905 191.986478 
C 246.789864 193.10105 249.234966 194.734815 251.294426 196.794275 
C 253.353886 198.853734 254.987651 201.298837 256.102222 203.98965 
C 257.216794 206.680464 257.790496 209.564659 257.790496 212.477175 
C 257.790496 215.389691 257.216794 218.273886 256.102222 220.9647 
C 254.987651 223.655513 253.353886 226.100616 251.294426 228.160075 
C 249.234966 230.219535 246.789864 231.8533 244.09905 232.967872 
C 241.408236 234.082443 238.524041 234.656146 235.611525 234.656146 
C 232.69901 234.656146 229.814814 234.082443 227.124001 232.967872 
C 224.433187 231.8533 221.988085 230.219535 219.928625 228.160075 
C 217.869165 226.100616 216.2354 223.655513 215.120828 220.9647 
C 214.006257 218.273886 213.432555 215.389691 213.432555 212.477175 
C 213.432555 209.564659 214.006257 206.680464 215.120828 203.98965 
C 216.2354 201.298837 217.869165 198.853734 219.928625 196.794275 
C 221.988085 194.734815 224.433187 193.10105 227.124001 191.986478 
C 229.814814 190.871907 232.69901 190.298204 235.611525 190.298204 
" clip-path="url(#p663254ff7c)" style="fill: none; stroke: #b0b0b0; stroke-width: 0.8; stroke-linecap: square"/>
     </g>
     <g id="text_6">
      <!-- 5 -->
      <g transform="translate(248.647997 192.454323)scale(0.1 -0.1)">
       <defs>
        <path id="DejaVuSans-35" d="M 691 4666 
L 3169 4666 
L 3169 4134 
L 1269 4134 
L 1269 2991 
Q 1406 3038 1543 3061 
Q 1681 3084 1819 3084 
Q 2600 3084 3056 2656 
Q 3513 2228 3513 1497 
Q 3513 744 3044 326 
Q 2575 -91 1722 -91 
Q 1428 -91 1123 -41 
Q 819 9 494 109 
L 494 744 
Q 775 591 1075 516 
Q 1375 441 1709 441 
Q 2250 441 2565 725 
Q 2881 1009 2881 1497 
Q 2881 1984 2565 2268 
Q 2250 2553 1709 2553 
Q 1456 2553 1204 2497 
Q 953 2441 691 2322 
L 691 4666 
z
" transform="scale(0.015625)"/>
       </defs>
       <use xlink:href="#DejaVuSans-35"/>
      </g>
     </g>
    </g>
    <g id="ytick_2">
     <g id="line2d_7">
      <path d="M 235.611525 168.119234 
C 241.436557 168.119234 247.204947 169.266638 252.586575 171.495781 
C 257.968202 173.724924 262.858407 176.992455 266.977326 181.111374 
C 271.096246 185.230293 274.363776 190.120498 276.592919 195.502126 
C 278.822062 200.883753 279.969467 206.652144 279.969467 212.477175 
C 279.969467 218.302206 278.822062 224.070597 276.592919 229.452224 
C 274.363776 234.833852 271.096246 239.724057 266.977326 243.842976 
C 262.858407 247.961895 257.968202 251.229426 252.586575 253.458569 
C 247.204947 255.687712 241.436557 256.835116 235.611525 256.835116 
C 229.786494 256.835116 224.018104 255.687712 218.636476 253.458569 
C 213.254849 251.229426 208.364644 247.961895 204.245724 243.842976 
C 200.126805 239.724057 196.859274 234.833852 194.630131 229.452224 
C 192.400988 224.070597 191.253584 218.302206 191.253584 212.477175 
C 191.253584 206.652144 192.400988 200.883753 194.630131 195.502126 
C 196.859274 190.120498 200.126805 185.230293 204.245724 181.111374 
C 208.364644 176.992455 213.254849 173.724924 218.636476 171.495781 
C 224.018104 169.266638 229.786494 168.119234 235.611525 168.119234 
" clip-path="url(#p663254ff7c)" style="fill: none; stroke: #b0b0b0; stroke-width: 0.8; stroke-linecap: square"/>
     </g>
     <g id="text_7">
      <!-- 10 -->
      <g transform="translate(261.684469 174.511159)scale(0.1 -0.1)">
       <defs>
        <path id="DejaVuSans-31" d="M 794 531 
L 1825 531 
L 1825 4091 
L 703 3866 
L 703 4441 
L 1819 4666 
L 2450 4666 
L 2450 531 
L 3481 531 
L 3481 0 
L 794 0 
L 794 531 
z
" transform="scale(0.015625)"/>
        <path id="DejaVuSans-30" d="M 2034 4250 
Q 1547 4250 1301 3770 
Q 1056 3291 1056 2328 
Q 1056 1369 1301 889 
Q 1547 409 2034 409 
Q 2525 409 2770 889 
Q 3016 1369 3016 2328 
Q 3016 3291 2770 3770 
Q 2525 4250 2034 4250 
z
M 2034 4750 
Q 2819 4750 3233 4129 
Q 3647 3509 3647 2328 
Q 3647 1150 3233 529 
Q 2819 -91 2034 -91 
Q 1250 -91 836 529 
Q 422 1150 422 2328 
Q 422 3509 836 4129 
Q 1250 4750 2034 4750 
z
" transform="scale(0.015625)"/>
       </defs>
       <use xlink:href="#DejaVuSans-31"/>
       <use xlink:href="#DejaVuSans-30" x="63.623047"/>
      </g>
     </g>
    </g>
    <g id="ytick_3">
     <g id="line2d_8">
      <path d="M 235.611525 145.940263 
C 244.349073 145.940263 253.001658 147.66137 261.074099 151.005084 
C 269.14654 154.348799 276.481848 159.250095 282.660227 165.428474 
C 288.838606 171.606852 293.739902 178.94216 297.083616 187.014601 
C 300.427331 195.087042 302.148437 203.739628 302.148437 212.477175 
C 302.148437 221.214722 300.427331 229.867308 297.083616 237.939749 
C 293.739902 246.01219 288.838606 253.347498 282.660227 259.525876 
C 276.481848 265.704255 269.14654 270.605551 261.074099 273.949266 
C 253.001658 277.29298 244.349073 279.014087 235.611525 279.014087 
C 226.873978 279.014087 218.221393 277.29298 210.148952 273.949266 
C 202.076511 270.605551 194.741203 265.704255 188.562824 259.525876 
C 182.384445 253.347498 177.483149 246.01219 174.139434 237.939749 
C 170.79572 229.867308 169.074614 221.214722 169.074614 212.477175 
C 169.074614 203.739628 170.79572 195.087042 174.139434 187.014601 
C 177.483149 178.94216 182.384445 171.606852 188.562824 165.428474 
C 194.741203 159.250095 202.076511 154.348799 210.148952 151.005084 
C 218.221393 147.66137 226.873978 145.940263 235.611525 145.940263 
" clip-path="url(#p663254ff7c)" style="fill: none; stroke: #b0b0b0; stroke-width: 0.8; stroke-linecap: square"/>
     </g>
     <g id="text_8">
      <!-- 15 -->
      <g transform="translate(274.720941 156.567995)scale(0.1 -0.1)">
       <use xlink:href="#DejaVuSans-31"/>
       <use xlink:href="#DejaVuSans-35" x="63.623047"/>
      </g>
     </g>
    </g>
    <g id="ytick_4">
     <g id="line2d_9">
      <path d="M 235.611525 123.761293 
C 247.261588 123.761293 258.798369 126.056101 269.561624 130.514387 
C 280.324878 134.972673 290.105289 141.507735 298.343127 149.745573 
C 306.580966 157.983412 313.116027 167.763822 317.574313 178.527077 
C 322.032599 189.290331 324.327408 200.827112 324.327408 212.477175 
C 324.327408 224.127238 322.032599 235.664019 317.574313 246.427273 
C 313.116027 257.190528 306.580966 266.970938 298.343127 275.208777 
C 290.105289 283.446615 280.324878 289.981677 269.561624 294.439963 
C 258.798369 298.898249 247.261588 301.193057 235.611525 301.193057 
C 223.961462 301.193057 212.424682 298.898249 201.661427 294.439963 
C 190.898172 289.981677 181.117762 283.446615 172.879923 275.208777 
C 164.642085 266.970938 158.107024 257.190528 153.648738 246.427273 
C 149.190451 235.664019 146.895643 224.127238 146.895643 212.477175 
C 146.895643 200.827112 149.190451 189.290331 153.648738 178.527077 
C 158.107024 167.763822 164.642085 157.983412 172.879923 149.745573 
C 181.117762 141.507735 190.898172 134.972673 201.661427 130.514387 
C 212.424682 126.056101 223.961462 123.761293 235.611525 123.761293 
" clip-path="url(#p663254ff7c)" style="fill: none; stroke: #b0b0b0; stroke-width: 0.8; stroke-linecap: square"/>
     </g>
     <g id="text_9">
      <!-- 20 -->
      <g transform="translate(287.757413 138.624831)scale(0.1 -0.1)">
       <defs>
        <path id="DejaVuSans-32" d="M 1228 531 
L 3431 531 
L 3431 0 
L 469 0 
L 469 531 
Q 828 903 1448 1529 
Q 2069 2156 2228 2338 
Q 2531 2678 2651 2914 
Q 2772 3150 2772 3378 
Q 2772 3750 2511 3984 
Q 2250 4219 1831 4219 
Q 1534 4219 1204 4116 
Q 875 4013 500 3803 
L 500 4441 
Q 881 4594 1212 4672 
Q 1544 4750 1819 4750 
Q 2544 4750 2975 4387 
Q 3406 4025 3406 3419 
Q 3406 3131 3298 2873 
Q 3191 2616 2906 2266 
Q 2828 2175 2409 1742 
Q 1991 1309 1228 531 
z
" transform="scale(0.015625)"/>
       </defs>
       <use xlink:href="#DejaVuSans-32"/>
       <use xlink:href="#DejaVuSans-30" x="63.623047"/>
      </g>
     </g>
    </g>
    <g id="ytick_5">
     <g id="line2d_10">
      <path d="M 235.611525 101.582322 
C 250.174104 101.582322 264.59508 104.450833 278.049148 110.02369 
C 291.503217 115.596548 303.72873 123.765374 314.026028 134.062673 
C 324.323326 144.359971 332.492153 156.585484 338.06501 170.039552 
C 343.637868 183.49362 346.506378 197.914596 346.506378 212.477175 
C 346.506378 227.039754 343.637868 241.46073 338.06501 254.914798 
C 332.492153 268.368866 324.323326 280.594379 314.026028 290.891677 
C 303.72873 301.188976 291.503217 309.357802 278.049148 314.93066 
C 264.59508 320.503517 250.174104 323.372028 235.611525 323.372028 
C 221.048947 323.372028 206.627971 320.503517 193.173902 314.93066 
C 179.719834 309.357802 167.494321 301.188976 157.197023 290.891677 
C 146.899725 280.594379 138.730898 268.368866 133.158041 254.914798 
C 127.585183 241.46073 124.716673 227.039754 124.716673 212.477175 
C 124.716673 197.914596 127.585183 183.49362 133.158041 170.039552 
C 138.730898 156.585484 146.899725 144.359971 157.197023 134.062673 
C 167.494321 123.765374 179.719834 115.596548 193.173902 110.02369 
C 206.627971 104.450833 221.048947 101.582322 235.611525 101.582322 
" clip-path="url(#p663254ff7c)" style="fill: none; stroke: #b0b0b0; stroke-width: 0.8; stroke-linecap: square"/>
     </g>
     <g id="text_10">
      <!-- 25 -->
      <g transform="translate(300.793884 120.681667)scale(0.1 -0.1)">
       <use xlink:href="#DejaVuSans-32"/>
       <use xlink:href="#DejaVuSans-35" x="63.623047"/>
      </g>
     </g>
    </g>
    <g id="ytick_6">
     <g id="line2d_11">
      <path d="M 235.611525 79.403352 
C 253.08662 79.403352 270.391791 82.845564 286.536673 89.532993 
C 302.681555 96.220422 317.352171 106.023014 329.708928 118.379772 
C 342.065686 130.73653 351.868278 145.407145 358.555707 161.552027 
C 365.243136 177.69691 368.685349 195.002081 368.685349 212.477175 
C 368.685349 229.952269 365.243136 247.25744 358.555707 263.402323 
C 351.868278 279.547205 342.065686 294.21782 329.708928 306.574578 
C 317.352171 318.931336 302.681555 328.733928 286.536673 335.421357 
C 270.391791 342.108786 253.08662 345.550998 235.611525 345.550998 
C 218.136431 345.550998 200.83126 342.108786 184.686378 335.421357 
C 168.541496 328.733928 153.87088 318.931336 141.514122 306.574578 
C 129.157365 294.21782 119.354773 279.547205 112.667344 263.402323 
C 105.979914 247.25744 102.537702 229.952269 102.537702 212.477175 
C 102.537702 195.002081 105.979914 177.69691 112.667344 161.552027 
C 119.354773 145.407145 129.157365 130.73653 141.514122 118.379772 
C 153.87088 106.023014 168.541496 96.220422 184.686378 89.532993 
C 200.83126 82.845564 218.136431 79.403352 235.611525 79.403352 
" clip-path="url(#p663254ff7c)" style="fill: none; stroke: #b0b0b0; stroke-width: 0.8; stroke-linecap: square"/>
     </g>
     <g id="text_11">
      <!-- 30 -->
      <g transform="translate(313.830356 102.738503)scale(0.1 -0.1)">
       <defs>
        <path id="DejaVuSans-33" d="M 2597 2516 
Q 3050 2419 3304 2112 
Q 3559 1806 3559 1356 
Q 3559 666 3084 287 
Q 2609 -91 1734 -91 
Q 1441 -91 1130 -33 
Q 819 25 488 141 
L 488 750 
Q 750 597 1062 519 
Q 1375 441 1716 441 
Q 2309 441 2620 675 
Q 2931 909 2931 1356 
Q 2931 1769 2642 2001 
Q 2353 2234 1838 2234 
L 1294 2234 
L 1294 2753 
L 1863 2753 
Q 2328 2753 2575 2939 
Q 2822 3125 2822 3475 
Q 2822 3834 2567 4026 
Q 2313 4219 1838 4219 
Q 1578 4219 1281 4162 
Q 984 4106 628 3988 
L 628 4550 
Q 988 4650 1302 4700 
Q 1616 4750 1894 4750 
Q 2613 4750 3031 4423 
Q 3450 4097 3450 3541 
Q 3450 3153 3228 2886 
Q 3006 2619 2597 2516 
z
" transform="scale(0.015625)"/>
       </defs>
       <use xlink:href="#DejaVuSans-33"/>
       <use xlink:href="#DejaVuSans-30" x="63.623047"/>
      </g>
     </g>
    </g>
    <g id="ytick_7">
     <g id="line2d_12">
      <path d="M 235.611525 57.224381 
C 255.999136 57.224381 276.188502 61.240296 295.024198 69.042296 
C 313.859893 76.844297 330.975612 88.280654 345.391829 102.696872 
C 359.808046 117.113089 371.244404 134.228807 379.046404 153.064503 
C 386.848405 171.900199 390.864319 192.089565 390.864319 212.477175 
C 390.864319 232.864785 386.848405 253.054151 379.046404 271.889847 
C 371.244404 290.725543 359.808046 307.841261 345.391829 322.257478 
C 330.975612 336.673696 313.859893 348.110053 295.024198 355.912054 
C 276.188502 363.714054 255.999136 367.729969 235.611525 367.729969 
C 215.223915 367.729969 195.034549 363.714054 176.198853 355.912054 
C 157.363158 348.110053 140.247439 336.673696 125.831222 322.257478 
C 111.415005 307.841261 99.978647 290.725543 92.176647 271.889847 
C 84.374646 253.054151 80.358731 232.864785 80.358731 212.477175 
C 80.358731 192.089565 84.374646 171.900199 92.176647 153.064503 
C 99.978647 134.228807 111.415005 117.113089 125.831222 102.696872 
C 140.247439 88.280654 157.363158 76.844297 176.198853 69.042296 
C 195.034549 61.240296 215.223915 57.224381 235.611525 57.224381 
" clip-path="url(#p663254ff7c)" style="fill: none; stroke: #b0b0b0; stroke-width: 0.8; stroke-linecap: square"/>
     </g>
     <g id="text_12">
      <!-- 35 -->
      <g transform="translate(326.866828 84.795339)scale(0.1 -0.1)">
       <use xlink:href="#DejaVuSans-33"/>
       <use xlink:href="#DejaVuSans-35" x="63.623047"/>
      </g>
     </g>
    </g>
   </g>
   <g id="line2d_13">
    <path d="M 235.611525 193.63085 
L 248.862386 208.171709 
L 245.595934 226.219535 
L 218.651374 235.820821 
L 87.267869 164.277399 
" clip-path="url(#p663254ff7c)" style="fill: none; stroke: #ff00e4; stroke-linecap: square"/>
   </g>
   <g id="patch_4">
    <path d="M 235.611525 49.397175 
C 214.196056 49.397175 192.988825 53.615556 173.203511 61.810901 
C 153.418197 70.006246 135.439575 82.019178 120.296552 97.162201 
C 105.153528 112.305225 93.140597 130.283847 84.945251 150.069161 
C 76.749906 169.854475 72.531525 191.061706 72.531525 212.477175 
C 72.531525 233.892644 76.749906 255.099875 84.945251 274.885189 
C 93.140597 294.670503 105.153528 312.649125 120.296552 327.792149 
C 135.439575 342.935172 153.418197 354.948104 173.203511 363.143449 
C 192.988825 371.338794 214.196056 375.557175 235.611525 375.557175 
C 257.026995 375.557175 278.234226 371.338794 298.01954 363.143449 
C 317.804853 354.948104 335.783476 342.935172 350.926499 327.792149 
C 366.069523 312.649125 378.082454 294.670503 386.2778 274.885189 
C 394.473145 255.099875 398.691525 233.892644 398.691525 212.477175 
C 398.691525 191.061706 394.473145 169.854475 386.2778 150.069161 
C 378.082454 130.283847 366.069523 112.305225 350.926499 97.162201 
C 335.783476 82.019178 317.804853 70.006246 298.01954 61.810901 
C 278.234226 53.615556 257.026995 49.397175 235.611525 49.397175 
" style="fill: none; stroke: #000000; stroke-width: 0.8; stroke-linejoin: miter; stroke-linecap: square"/>
   </g>
   <g id="text_13">
    <!-- MSE Metrics  [x $10^{-3}$]  -->
    <g transform="translate(169.191525 17.304375)scale(0.12 -0.12)">
     <defs>
      <path id="DejaVuSans-45" d="M 628 4666 
L 3578 4666 
L 3578 4134 
L 1259 4134 
L 1259 2753 
L 3481 2753 
L 3481 2222 
L 1259 2222 
L 1259 531 
L 3634 531 
L 3634 0 
L 628 0 
L 628 4666 
z
" transform="scale(0.015625)"/>
      <path id="DejaVuSans-20" transform="scale(0.015625)"/>
      <path id="DejaVuSans-74" d="M 1172 4494 
L 1172 3500 
L 2356 3500 
L 2356 3053 
L 1172 3053 
L 1172 1153 
Q 1172 725 1289 603 
Q 1406 481 1766 481 
L 2356 481 
L 2356 0 
L 1766 0 
Q 1100 0 847 248 
Q 594 497 594 1153 
L 594 3053 
L 172 3053 
L 172 3500 
L 594 3500 
L 594 4494 
L 1172 4494 
z
" transform="scale(0.015625)"/>
      <path id="DejaVuSans-69" d="M 603 3500 
L 1178 3500 
L 1178 0 
L 603 0 
L 603 3500 
z
M 603 4863 
L 1178 4863 
L 1178 4134 
L 603 4134 
L 603 4863 
z
" transform="scale(0.015625)"/>
      <path id="DejaVuSans-63" d="M 3122 3366 
L 3122 2828 
Q 2878 2963 2633 3030 
Q 2388 3097 2138 3097 
Q 1578 3097 1268 2742 
Q 959 2388 959 1747 
Q 959 1106 1268 751 
Q 1578 397 2138 397 
Q 2388 397 2633 464 
Q 2878 531 3122 666 
L 3122 134 
Q 2881 22 2623 -34 
Q 2366 -91 2075 -91 
Q 1284 -91 818 406 
Q 353 903 353 1747 
Q 353 2603 823 3093 
Q 1294 3584 2113 3584 
Q 2378 3584 2631 3529 
Q 2884 3475 3122 3366 
z
" transform="scale(0.015625)"/>
      <path id="DejaVuSans-5b" d="M 550 4863 
L 1875 4863 
L 1875 4416 
L 1125 4416 
L 1125 -397 
L 1875 -397 
L 1875 -844 
L 550 -844 
L 550 4863 
z
" transform="scale(0.015625)"/>
      <path id="DejaVuSans-78" d="M 3513 3500 
L 2247 1797 
L 3578 0 
L 2900 0 
L 1881 1375 
L 863 0 
L 184 0 
L 1544 1831 
L 300 3500 
L 978 3500 
L 1906 2253 
L 2834 3500 
L 3513 3500 
z
" transform="scale(0.015625)"/>
      <path id="DejaVuSans-2212" d="M 678 2272 
L 4684 2272 
L 4684 1741 
L 678 1741 
L 678 2272 
z
" transform="scale(0.015625)"/>
      <path id="DejaVuSans-5d" d="M 1947 4863 
L 1947 -844 
L 622 -844 
L 622 -397 
L 1369 -397 
L 1369 4416 
L 622 4416 
L 622 4863 
L 1947 4863 
z
" transform="scale(0.015625)"/>
     </defs>
     <use xlink:href="#DejaVuSans-4d" transform="translate(0 0.765625)"/>
     <use xlink:href="#DejaVuSans-53" transform="translate(86.279297 0.765625)"/>
     <use xlink:href="#DejaVuSans-45" transform="translate(149.755859 0.765625)"/>
     <use xlink:href="#DejaVuSans-20" transform="translate(212.939453 0.765625)"/>
     <use xlink:href="#DejaVuSans-4d" transform="translate(244.726562 0.765625)"/>
     <use xlink:href="#DejaVuSans-65" transform="translate(331.005859 0.765625)"/>
     <use xlink:href="#DejaVuSans-74" transform="translate(392.529297 0.765625)"/>
     <use xlink:href="#DejaVuSans-72" transform="translate(431.738281 0.765625)"/>
     <use xlink:href="#DejaVuSans-69" transform="translate(472.851562 0.765625)"/>
     <use xlink:href="#DejaVuSans-63" transform="translate(500.634766 0.765625)"/>
     <use xlink:href="#DejaVuSans-73" transform="translate(555.615234 0.765625)"/>
     <use xlink:href="#DejaVuSans-20" transform="translate(607.714844 0.765625)"/>
     <use xlink:href="#DejaVuSans-20" transform="translate(639.501953 0.765625)"/>
     <use xlink:href="#DejaVuSans-5b" transform="translate(671.289062 0.765625)"/>
     <use xlink:href="#DejaVuSans-78" transform="translate(710.302734 0.765625)"/>
     <use xlink:href="#DejaVuSans-20" transform="translate(769.482422 0.765625)"/>
     <use xlink:href="#DejaVuSans-31" transform="translate(801.269531 0.765625)"/>
     <use xlink:href="#DejaVuSans-30" transform="translate(864.892578 0.765625)"/>
     <use xlink:href="#DejaVuSans-2212" transform="translate(929.472656 39.046875)scale(0.7)"/>
     <use xlink:href="#DejaVuSans-33" transform="translate(988.125 39.046875)scale(0.7)"/>
     <use xlink:href="#DejaVuSans-5d" transform="translate(1035.395508 0.765625)"/>
     <use xlink:href="#DejaVuSans-20" transform="translate(1074.40918 0.765625)"/>
    </g>
   </g>
  </g>
 </g>
 <defs>
  <clipPath id="p663254ff7c">
   <path d="M 398.691525 212.477175 
C 398.691525 191.061706 394.473145 169.854475 386.2778 150.069161 
C 378.082454 130.283847 366.069523 112.305225 350.926499 97.162201 
C 335.783476 82.019178 317.804853 70.006246 298.01954 61.810901 
C 278.234226 53.615556 257.026995 49.397175 235.611525 49.397175 
C 214.196056 49.397175 192.988825 53.615556 173.203511 61.810901 
C 153.418197 70.006246 135.439575 82.019178 120.296552 97.162201 
C 105.153528 112.305225 93.140597 130.283847 84.945251 150.069161 
C 76.749906 169.854475 72.531525 191.061706 72.531525 212.477175 
C 72.531525 233.892644 76.749906 255.099875 84.945251 274.885189 
C 93.140597 294.670503 105.153528 312.649125 120.296552 327.792149 
C 135.439575 342.935172 153.418197 354.948104 173.203511 363.143449 
C 192.988825 371.338794 214.196056 375.557175 235.611525 375.557175 
C 257.026995 375.557175 278.234226 371.338794 298.01954 363.143449 
C 317.804853 354.948104 335.783476 342.935172 350.926499 327.792149 
C 366.069523 312.649125 378.082454 294.670503 386.2778 274.885189 
C 394.473145 255.099875 398.691525 233.892644 398.691525 212.477175 
M 235.611525 212.477175 
C 235.611525 212.477175 235.611525 212.477175 235.611525 212.477175 
C 235.611525 212.477175 235.611525 212.477175 235.611525 212.477175 
C 235.611525 212.477175 235.611525 212.477175 235.611525 212.477175 
C 235.611525 212.477175 235.611525 212.477175 235.611525 212.477175 
C 235.611525 212.477175 235.611525 212.477175 235.611525 212.477175 
C 235.611525 212.477175 235.611525 212.477175 235.611525 212.477175 
C 235.611525 212.477175 235.611525 212.477175 235.611525 212.477175 
C 235.611525 212.477175 235.611525 212.477175 235.611525 212.477175 
C 235.611525 212.477175 235.611525 212.477175 235.611525 212.477175 
C 235.611525 212.477175 235.611525 212.477175 235.611525 212.477175 
C 235.611525 212.477175 235.611525 212.477175 235.611525 212.477175 
C 235.611525 212.477175 235.611525 212.477175 235.611525 212.477175 
C 235.611525 212.477175 235.611525 212.477175 235.611525 212.477175 
C 235.611525 212.477175 235.611525 212.477175 235.611525 212.477175 
C 235.611525 212.477175 235.611525 212.477175 235.611525 212.477175 
C 235.611525 212.477175 235.611525 212.477175 235.611525 212.477175 
M 398.691525 212.477175 
z
"/>
  </clipPath>
 </defs>
</svg>
