<?xml version="1.0" encoding="utf-8" standalone="no"?>
<!DOCTYPE svg PUBLIC "-//W3C//DTD SVG 1.1//EN"
  "http://www.w3.org/Graphics/SVG/1.1/DTD/svg11.dtd">
<svg xmlns:xlink="http://www.w3.org/1999/xlink" width="433.135551pt" height="382.757175pt" viewBox="0 0 433.135551 382.757175" xmlns="http://www.w3.org/2000/svg" version="1.1">
 <metadata>
  <rdf:RDF xmlns:dc="http://purl.org/dc/elements/1.1/" xmlns:cc="http://creativecommons.org/ns#" xmlns:rdf="http://www.w3.org/1999/02/22-rdf-syntax-ns#">
   <cc:Work>
    <dc:type rdf:resource="http://purl.org/dc/dcmitype/StillImage"/>
    <dc:date>2022-07-28T11:19:45.803554</dc:date>
    <dc:format>image/svg+xml</dc:format>
    <dc:creator>
     <cc:Agent>
      <dc:title>Matplotlib v3.5.2, https://matplotlib.org/</dc:title>
     </cc:Agent>
    </dc:creator>
   </cc:Work>
  </rdf:RDF>
 </metadata>
 <defs>
  <style type="text/css">*{stroke-linejoin: round; stroke-linecap: butt}</style>
 </defs>
 <g id="figure_1">
  <g id="patch_1">
   <path d="M 0 382.757175 
L 433.135551 382.757175 
L 433.135551 0 
L 0 0 
L 0 382.757175 
z
" style="fill: none"/>
  </g>
  <g id="axes_1">
   <g id="patch_2">
    <path d="M 398.691525 212.477175 
C 398.691525 191.061706 394.473145 169.854475 386.2778 150.069161 
C 378.082454 130.283847 366.069523 112.305225 350.926499 97.162201 
C 335.783476 82.019178 317.804853 70.006246 298.01954 61.810901 
C 278.234226 53.615556 257.026995 49.397175 235.611525 49.397175 
C 214.196056 49.397175 192.988825 53.615556 173.203511 61.810901 
C 153.418197 70.006246 135.439575 82.019178 120.296552 97.162201 
C 105.153528 112.305225 93.140597 130.283847 84.945251 150.069161 
C 76.749906 169.854475 72.531525 191.061706 72.531525 212.477175 
C 72.531525 233.892644 76.749906 255.099875 84.945251 274.885189 
C 93.140597 294.670503 105.153528 312.649125 120.296552 327.792149 
C 135.439575 342.935172 153.418197 354.948104 173.203511 363.143449 
C 192.988825 371.338794 214.196056 375.557175 235.611525 375.557175 
C 257.026995 375.557175 278.234226 371.338794 298.01954 363.143449 
C 317.804853 354.948104 335.783476 342.935172 350.926499 327.792149 
C 366.069523 312.649125 378.082454 294.670503 386.2778 274.885189 
C 394.473145 255.099875 398.691525 233.892644 398.691525 212.477175 
M 235.611525 212.477175 
C 235.611525 212.477175 235.611525 212.477175 235.611525 212.477175 
C 235.611525 212.477175 235.611525 212.477175 235.611525 212.477175 
C 235.611525 212.477175 235.611525 212.477175 235.611525 212.477175 
C 235.611525 212.477175 235.611525 212.477175 235.611525 212.477175 
C 235.611525 212.477175 235.611525 212.477175 235.611525 212.477175 
C 235.611525 212.477175 235.611525 212.477175 235.611525 212.477175 
C 235.611525 212.477175 235.611525 212.477175 235.611525 212.477175 
C 235.611525 212.477175 235.611525 212.477175 235.611525 212.477175 
C 235.611525 212.477175 235.611525 212.477175 235.611525 212.477175 
C 235.611525 212.477175 235.611525 212.477175 235.611525 212.477175 
C 235.611525 212.477175 235.611525 212.477175 235.611525 212.477175 
C 235.611525 212.477175 235.611525 212.477175 235.611525 212.477175 
C 235.611525 212.477175 235.611525 212.477175 235.611525 212.477175 
C 235.611525 212.477175 235.611525 212.477175 235.611525 212.477175 
C 235.611525 212.477175 235.611525 212.477175 235.611525 212.477175 
C 235.611525 212.477175 235.611525 212.477175 235.611525 212.477175 
M 398.691525 212.477175 
z
" style="fill: #ffffff"/>
   </g>
   <g id="patch_3">
    <path d="M 235.611525 181.240399 
L 262.22639 203.829481 
L 255.347082 239.640838 
L 207.522135 251.138904 
L 86.631487 164.070626 
z
" clip-path="url(#p460d43a383)" style="fill: #00ff3e; opacity: 0.25; stroke: #00ff3e; stroke-linejoin: miter"/>
   </g>
   <g id="matplotlib.axis_1">
    <g id="xtick_1">
     <g id="line2d_1">
      <path d="M 235.611525 212.477175 
L 235.611525 49.397175 
" clip-path="url(#p460d43a383)" style="fill: none; stroke: #b0b0b0; stroke-width: 0.8; stroke-linecap: square"/>
     </g>
     <g id="text_1">
      <!-- LSTM -->
      <g transform="translate(222.2834 38.15655)scale(0.1 -0.1)">
       <defs>
        <path id="DejaVuSans-4c" d="M 628 4666 
L 1259 4666 
L 1259 531 
L 3531 531 
L 3531 0 
L 628 0 
L 628 4666 
z
" transform="scale(0.015625)"/>
        <path id="DejaVuSans-53" d="M 3425 4513 
L 3425 3897 
Q 3066 4069 2747 4153 
Q 2428 4238 2131 4238 
Q 1616 4238 1336 4038 
Q 1056 3838 1056 3469 
Q 1056 3159 1242 3001 
Q 1428 2844 1947 2747 
L 2328 2669 
Q 3034 2534 3370 2195 
Q 3706 1856 3706 1288 
Q 3706 609 3251 259 
Q 2797 -91 1919 -91 
Q 1588 -91 1214 -16 
Q 841 59 441 206 
L 441 856 
Q 825 641 1194 531 
Q 1563 422 1919 422 
Q 2459 422 2753 634 
Q 3047 847 3047 1241 
Q 3047 1584 2836 1778 
Q 2625 1972 2144 2069 
L 1759 2144 
Q 1053 2284 737 2584 
Q 422 2884 422 3419 
Q 422 4038 858 4394 
Q 1294 4750 2059 4750 
Q 2388 4750 2728 4690 
Q 3069 4631 3425 4513 
z
" transform="scale(0.015625)"/>
        <path id="DejaVuSans-54" d="M -19 4666 
L 3928 4666 
L 3928 4134 
L 2272 4134 
L 2272 0 
L 1638 0 
L 1638 4134 
L -19 4134 
L -19 4666 
z
" transform="scale(0.015625)"/>
        <path id="DejaVuSans-4d" d="M 628 4666 
L 1569 4666 
L 2759 1491 
L 3956 4666 
L 4897 4666 
L 4897 0 
L 4281 0 
L 4281 4097 
L 3078 897 
L 2444 897 
L 1241 4097 
L 1241 0 
L 628 0 
L 628 4666 
z
" transform="scale(0.015625)"/>
       </defs>
       <use xlink:href="#DejaVuSans-4c"/>
       <use xlink:href="#DejaVuSans-53" x="55.712891"/>
       <use xlink:href="#DejaVuSans-54" x="119.189453"/>
       <use xlink:href="#DejaVuSans-4d" x="180.273438"/>
      </g>
     </g>
    </g>
    <g id="xtick_2">
     <g id="line2d_2">
      <path d="M 235.611525 212.477175 
L 390.709822 162.082684 
" clip-path="url(#p460d43a383)" style="fill: none; stroke: #b0b0b0; stroke-width: 0.8; stroke-linecap: square"/>
     </g>
     <g id="text_2">
      <!-- RNN -->
      <g transform="translate(404.024613 160.515821)scale(0.1 -0.1)">
       <defs>
        <path id="DejaVuSans-52" d="M 2841 2188 
Q 3044 2119 3236 1894 
Q 3428 1669 3622 1275 
L 4263 0 
L 3584 0 
L 2988 1197 
Q 2756 1666 2539 1819 
Q 2322 1972 1947 1972 
L 1259 1972 
L 1259 0 
L 628 0 
L 628 4666 
L 2053 4666 
Q 2853 4666 3247 4331 
Q 3641 3997 3641 3322 
Q 3641 2881 3436 2590 
Q 3231 2300 2841 2188 
z
M 1259 4147 
L 1259 2491 
L 2053 2491 
Q 2509 2491 2742 2702 
Q 2975 2913 2975 3322 
Q 2975 3731 2742 3939 
Q 2509 4147 2053 4147 
L 1259 4147 
z
" transform="scale(0.015625)"/>
        <path id="DejaVuSans-4e" d="M 628 4666 
L 1478 4666 
L 3547 763 
L 3547 4666 
L 4159 4666 
L 4159 0 
L 3309 0 
L 1241 3903 
L 1241 0 
L 628 0 
L 628 4666 
z
" transform="scale(0.015625)"/>
       </defs>
       <use xlink:href="#DejaVuSans-52"/>
       <use xlink:href="#DejaVuSans-4e" x="69.482422"/>
       <use xlink:href="#DejaVuSans-4e" x="144.287109"/>
      </g>
     </g>
    </g>
    <g id="xtick_3">
     <g id="line2d_3">
      <path d="M 235.611525 212.477175 
L 331.467544 344.411666 
" clip-path="url(#p460d43a383)" style="fill: none; stroke: #b0b0b0; stroke-width: 0.8; stroke-linecap: square"/>
     </g>
     <g id="text_3">
      <!-- GRU -->
      <g transform="translate(339.696538 358.497279)scale(0.1 -0.1)">
       <defs>
        <path id="DejaVuSans-47" d="M 3809 666 
L 3809 1919 
L 2778 1919 
L 2778 2438 
L 4434 2438 
L 4434 434 
Q 4069 175 3628 42 
Q 3188 -91 2688 -91 
Q 1594 -91 976 548 
Q 359 1188 359 2328 
Q 359 3472 976 4111 
Q 1594 4750 2688 4750 
Q 3144 4750 3555 4637 
Q 3966 4525 4313 4306 
L 4313 3634 
Q 3963 3931 3569 4081 
Q 3175 4231 2741 4231 
Q 1884 4231 1454 3753 
Q 1025 3275 1025 2328 
Q 1025 1384 1454 906 
Q 1884 428 2741 428 
Q 3075 428 3337 486 
Q 3600 544 3809 666 
z
" transform="scale(0.015625)"/>
        <path id="DejaVuSans-55" d="M 556 4666 
L 1191 4666 
L 1191 1831 
Q 1191 1081 1462 751 
Q 1734 422 2344 422 
Q 2950 422 3222 751 
Q 3494 1081 3494 1831 
L 3494 4666 
L 4128 4666 
L 4128 1753 
Q 4128 841 3676 375 
Q 3225 -91 2344 -91 
Q 1459 -91 1007 375 
Q 556 841 556 1753 
L 556 4666 
z
" transform="scale(0.015625)"/>
       </defs>
       <use xlink:href="#DejaVuSans-47"/>
       <use xlink:href="#DejaVuSans-52" x="77.490234"/>
       <use xlink:href="#DejaVuSans-55" x="146.972656"/>
      </g>
     </g>
    </g>
    <g id="xtick_4">
     <g id="line2d_4">
      <path d="M 235.611525 212.477175 
L 139.755506 344.411666 
" clip-path="url(#p460d43a383)" style="fill: none; stroke: #b0b0b0; stroke-width: 0.8; stroke-linecap: square"/>
     </g>
     <g id="text_4">
      <!-- TST -->
      <g transform="translate(112.96245 358.497279)scale(0.1 -0.1)">
       <use xlink:href="#DejaVuSans-54"/>
       <use xlink:href="#DejaVuSans-53" x="61.083984"/>
       <use xlink:href="#DejaVuSans-54" x="124.560547"/>
      </g>
     </g>
    </g>
    <g id="xtick_5">
     <g id="line2d_5">
      <path d="M 235.611525 212.477175 
L 80.513229 162.082684 
" clip-path="url(#p460d43a383)" style="fill: none; stroke: #b0b0b0; stroke-width: 0.8; stroke-linecap: square"/>
     </g>
     <g id="text_5">
      <!-- Transformer -->
      <g transform="translate(7.2 160.515821)scale(0.1 -0.1)">
       <defs>
        <path id="DejaVuSans-72" d="M 2631 2963 
Q 2534 3019 2420 3045 
Q 2306 3072 2169 3072 
Q 1681 3072 1420 2755 
Q 1159 2438 1159 1844 
L 1159 0 
L 581 0 
L 581 3500 
L 1159 3500 
L 1159 2956 
Q 1341 3275 1631 3429 
Q 1922 3584 2338 3584 
Q 2397 3584 2469 3576 
Q 2541 3569 2628 3553 
L 2631 2963 
z
" transform="scale(0.015625)"/>
        <path id="DejaVuSans-61" d="M 2194 1759 
Q 1497 1759 1228 1600 
Q 959 1441 959 1056 
Q 959 750 1161 570 
Q 1363 391 1709 391 
Q 2188 391 2477 730 
Q 2766 1069 2766 1631 
L 2766 1759 
L 2194 1759 
z
M 3341 1997 
L 3341 0 
L 2766 0 
L 2766 531 
Q 2569 213 2275 61 
Q 1981 -91 1556 -91 
Q 1019 -91 701 211 
Q 384 513 384 1019 
Q 384 1609 779 1909 
Q 1175 2209 1959 2209 
L 2766 2209 
L 2766 2266 
Q 2766 2663 2505 2880 
Q 2244 3097 1772 3097 
Q 1472 3097 1187 3025 
Q 903 2953 641 2809 
L 641 3341 
Q 956 3463 1253 3523 
Q 1550 3584 1831 3584 
Q 2591 3584 2966 3190 
Q 3341 2797 3341 1997 
z
" transform="scale(0.015625)"/>
        <path id="DejaVuSans-6e" d="M 3513 2113 
L 3513 0 
L 2938 0 
L 2938 2094 
Q 2938 2591 2744 2837 
Q 2550 3084 2163 3084 
Q 1697 3084 1428 2787 
Q 1159 2491 1159 1978 
L 1159 0 
L 581 0 
L 581 3500 
L 1159 3500 
L 1159 2956 
Q 1366 3272 1645 3428 
Q 1925 3584 2291 3584 
Q 2894 3584 3203 3211 
Q 3513 2838 3513 2113 
z
" transform="scale(0.015625)"/>
        <path id="DejaVuSans-73" d="M 2834 3397 
L 2834 2853 
Q 2591 2978 2328 3040 
Q 2066 3103 1784 3103 
Q 1356 3103 1142 2972 
Q 928 2841 928 2578 
Q 928 2378 1081 2264 
Q 1234 2150 1697 2047 
L 1894 2003 
Q 2506 1872 2764 1633 
Q 3022 1394 3022 966 
Q 3022 478 2636 193 
Q 2250 -91 1575 -91 
Q 1294 -91 989 -36 
Q 684 19 347 128 
L 347 722 
Q 666 556 975 473 
Q 1284 391 1588 391 
Q 1994 391 2212 530 
Q 2431 669 2431 922 
Q 2431 1156 2273 1281 
Q 2116 1406 1581 1522 
L 1381 1569 
Q 847 1681 609 1914 
Q 372 2147 372 2553 
Q 372 3047 722 3315 
Q 1072 3584 1716 3584 
Q 2034 3584 2315 3537 
Q 2597 3491 2834 3397 
z
" transform="scale(0.015625)"/>
        <path id="DejaVuSans-66" d="M 2375 4863 
L 2375 4384 
L 1825 4384 
Q 1516 4384 1395 4259 
Q 1275 4134 1275 3809 
L 1275 3500 
L 2222 3500 
L 2222 3053 
L 1275 3053 
L 1275 0 
L 697 0 
L 697 3053 
L 147 3053 
L 147 3500 
L 697 3500 
L 697 3744 
Q 697 4328 969 4595 
Q 1241 4863 1831 4863 
L 2375 4863 
z
" transform="scale(0.015625)"/>
        <path id="DejaVuSans-6f" d="M 1959 3097 
Q 1497 3097 1228 2736 
Q 959 2375 959 1747 
Q 959 1119 1226 758 
Q 1494 397 1959 397 
Q 2419 397 2687 759 
Q 2956 1122 2956 1747 
Q 2956 2369 2687 2733 
Q 2419 3097 1959 3097 
z
M 1959 3584 
Q 2709 3584 3137 3096 
Q 3566 2609 3566 1747 
Q 3566 888 3137 398 
Q 2709 -91 1959 -91 
Q 1206 -91 779 398 
Q 353 888 353 1747 
Q 353 2609 779 3096 
Q 1206 3584 1959 3584 
z
" transform="scale(0.015625)"/>
        <path id="DejaVuSans-6d" d="M 3328 2828 
Q 3544 3216 3844 3400 
Q 4144 3584 4550 3584 
Q 5097 3584 5394 3201 
Q 5691 2819 5691 2113 
L 5691 0 
L 5113 0 
L 5113 2094 
Q 5113 2597 4934 2840 
Q 4756 3084 4391 3084 
Q 3944 3084 3684 2787 
Q 3425 2491 3425 1978 
L 3425 0 
L 2847 0 
L 2847 2094 
Q 2847 2600 2669 2842 
Q 2491 3084 2119 3084 
Q 1678 3084 1418 2786 
Q 1159 2488 1159 1978 
L 1159 0 
L 581 0 
L 581 3500 
L 1159 3500 
L 1159 2956 
Q 1356 3278 1631 3431 
Q 1906 3584 2284 3584 
Q 2666 3584 2933 3390 
Q 3200 3197 3328 2828 
z
" transform="scale(0.015625)"/>
        <path id="DejaVuSans-65" d="M 3597 1894 
L 3597 1613 
L 953 1613 
Q 991 1019 1311 708 
Q 1631 397 2203 397 
Q 2534 397 2845 478 
Q 3156 559 3463 722 
L 3463 178 
Q 3153 47 2828 -22 
Q 2503 -91 2169 -91 
Q 1331 -91 842 396 
Q 353 884 353 1716 
Q 353 2575 817 3079 
Q 1281 3584 2069 3584 
Q 2775 3584 3186 3129 
Q 3597 2675 3597 1894 
z
M 3022 2063 
Q 3016 2534 2758 2815 
Q 2500 3097 2075 3097 
Q 1594 3097 1305 2825 
Q 1016 2553 972 2059 
L 3022 2063 
z
" transform="scale(0.015625)"/>
       </defs>
       <use xlink:href="#DejaVuSans-54"/>
       <use xlink:href="#DejaVuSans-72" x="46.333984"/>
       <use xlink:href="#DejaVuSans-61" x="87.447266"/>
       <use xlink:href="#DejaVuSans-6e" x="148.726562"/>
       <use xlink:href="#DejaVuSans-73" x="212.105469"/>
       <use xlink:href="#DejaVuSans-66" x="264.205078"/>
       <use xlink:href="#DejaVuSans-6f" x="299.410156"/>
       <use xlink:href="#DejaVuSans-72" x="360.591797"/>
       <use xlink:href="#DejaVuSans-6d" x="399.955078"/>
       <use xlink:href="#DejaVuSans-65" x="497.367188"/>
       <use xlink:href="#DejaVuSans-72" x="558.890625"/>
      </g>
     </g>
    </g>
   </g>
   <g id="matplotlib.axis_2">
    <g id="ytick_1">
     <g id="line2d_6">
      <path d="M 235.611525 193.245762 
C 238.136971 193.245762 240.637861 193.743219 242.971069 194.709666 
C 245.304277 195.676112 247.424428 197.092752 249.210188 198.878512 
C 250.995948 200.664272 252.412588 202.784424 253.379035 205.117632 
C 254.345481 207.45084 254.842939 209.951729 254.842939 212.477175 
C 254.842939 215.002621 254.345481 217.50351 253.379035 219.836718 
C 252.412588 222.169926 250.995948 224.290078 249.210188 226.075838 
C 247.424428 227.861598 245.304277 229.278238 242.971069 230.244684 
C 240.637861 231.211131 238.136971 231.708588 235.611525 231.708588 
C 233.086079 231.708588 230.58519 231.211131 228.251982 230.244684 
C 225.918774 229.278238 223.798623 227.861598 222.012863 226.075838 
C 220.227103 224.290078 218.810463 222.169926 217.844016 219.836718 
C 216.87757 217.50351 216.380112 215.002621 216.380112 212.477175 
C 216.380112 209.951729 216.87757 207.45084 217.844016 205.117632 
C 218.810463 202.784424 220.227103 200.664272 222.012863 198.878512 
C 223.798623 197.092752 225.918774 195.676112 228.251982 194.709666 
C 230.58519 193.743219 233.086079 193.245762 235.611525 193.245762 
" clip-path="url(#p460d43a383)" style="fill: none; stroke: #b0b0b0; stroke-width: 0.8; stroke-linecap: square"/>
     </g>
     <g id="text_6">
      <!-- 2 -->
      <g transform="translate(246.915467 194.838947)scale(0.1 -0.1)">
       <defs>
        <path id="DejaVuSans-32" d="M 1228 531 
L 3431 531 
L 3431 0 
L 469 0 
L 469 531 
Q 828 903 1448 1529 
Q 2069 2156 2228 2338 
Q 2531 2678 2651 2914 
Q 2772 3150 2772 3378 
Q 2772 3750 2511 3984 
Q 2250 4219 1831 4219 
Q 1534 4219 1204 4116 
Q 875 4013 500 3803 
L 500 4441 
Q 881 4594 1212 4672 
Q 1544 4750 1819 4750 
Q 2544 4750 2975 4387 
Q 3406 4025 3406 3419 
Q 3406 3131 3298 2873 
Q 3191 2616 2906 2266 
Q 2828 2175 2409 1742 
Q 1991 1309 1228 531 
z
" transform="scale(0.015625)"/>
       </defs>
       <use xlink:href="#DejaVuSans-32"/>
      </g>
     </g>
    </g>
    <g id="ytick_2">
     <g id="line2d_7">
      <path d="M 235.611525 174.014348 
C 240.662418 174.014348 245.664196 175.009264 250.330612 176.942157 
C 254.997028 178.875049 259.237331 181.708329 262.808851 185.279849 
C 266.380371 188.851369 269.213651 193.091673 271.146544 197.758088 
C 273.079436 202.424504 274.074352 207.426283 274.074352 212.477175 
C 274.074352 217.528067 273.079436 222.529846 271.146544 227.196262 
C 269.213651 231.862677 266.380371 236.102981 262.808851 239.674501 
C 259.237331 243.246021 254.997028 246.079301 250.330612 248.012193 
C 245.664196 249.945086 240.662418 250.940002 235.611525 250.940002 
C 230.560633 250.940002 225.558855 249.945086 220.892439 248.012193 
C 216.226023 246.079301 211.98572 243.246021 208.4142 239.674501 
C 204.84268 236.102981 202.0094 231.862677 200.076507 227.196262 
C 198.143614 222.529846 197.148699 217.528067 197.148699 212.477175 
C 197.148699 207.426283 198.143614 202.424504 200.076507 197.758088 
C 202.0094 193.091673 204.84268 188.851369 208.4142 185.279849 
C 211.98572 181.708329 216.226023 178.875049 220.892439 176.942157 
C 225.558855 175.009264 230.560633 174.014348 235.611525 174.014348 
" clip-path="url(#p460d43a383)" style="fill: none; stroke: #b0b0b0; stroke-width: 0.8; stroke-linecap: square"/>
     </g>
     <g id="text_7">
      <!-- 4 -->
      <g transform="translate(258.219408 179.280407)scale(0.1 -0.1)">
       <defs>
        <path id="DejaVuSans-34" d="M 2419 4116 
L 825 1625 
L 2419 1625 
L 2419 4116 
z
M 2253 4666 
L 3047 4666 
L 3047 1625 
L 3713 1625 
L 3713 1100 
L 3047 1100 
L 3047 0 
L 2419 0 
L 2419 1100 
L 313 1100 
L 313 1709 
L 2253 4666 
z
" transform="scale(0.015625)"/>
       </defs>
       <use xlink:href="#DejaVuSans-34"/>
      </g>
     </g>
    </g>
    <g id="ytick_3">
     <g id="line2d_8">
      <path d="M 235.611525 154.782935 
C 243.187864 154.782935 250.690531 156.275308 257.690155 159.174647 
C 264.689779 162.073987 271.050234 166.323907 276.407514 171.681187 
C 281.764794 177.038467 286.014714 183.398921 288.914053 190.398545 
C 291.813392 197.398169 293.305765 204.900837 293.305765 212.477175 
C 293.305765 220.053513 291.813392 227.556181 288.914053 234.555805 
C 286.014714 241.555429 281.764794 247.915883 276.407514 253.273163 
C 271.050234 258.630443 264.689779 262.880363 257.690155 265.779703 
C 250.690531 268.679042 243.187864 270.171415 235.611525 270.171415 
C 228.035187 270.171415 220.532519 268.679042 213.532896 265.779703 
C 206.533272 262.880363 200.172817 258.630443 194.815537 253.273163 
C 189.458257 247.915883 185.208337 241.555429 182.308998 234.555805 
C 179.409659 227.556181 177.917285 220.053513 177.917285 212.477175 
C 177.917285 204.900837 179.409659 197.398169 182.308998 190.398545 
C 185.208337 183.398921 189.458257 177.038467 194.815537 171.681187 
C 200.172817 166.323907 206.533272 162.073987 213.532896 159.174647 
C 220.532519 156.275308 228.035187 154.782935 235.611525 154.782935 
" clip-path="url(#p460d43a383)" style="fill: none; stroke: #b0b0b0; stroke-width: 0.8; stroke-linecap: square"/>
     </g>
     <g id="text_8">
      <!-- 6 -->
      <g transform="translate(269.523349 163.721867)scale(0.1 -0.1)">
       <defs>
        <path id="DejaVuSans-36" d="M 2113 2584 
Q 1688 2584 1439 2293 
Q 1191 2003 1191 1497 
Q 1191 994 1439 701 
Q 1688 409 2113 409 
Q 2538 409 2786 701 
Q 3034 994 3034 1497 
Q 3034 2003 2786 2293 
Q 2538 2584 2113 2584 
z
M 3366 4563 
L 3366 3988 
Q 3128 4100 2886 4159 
Q 2644 4219 2406 4219 
Q 1781 4219 1451 3797 
Q 1122 3375 1075 2522 
Q 1259 2794 1537 2939 
Q 1816 3084 2150 3084 
Q 2853 3084 3261 2657 
Q 3669 2231 3669 1497 
Q 3669 778 3244 343 
Q 2819 -91 2113 -91 
Q 1303 -91 875 529 
Q 447 1150 447 2328 
Q 447 3434 972 4092 
Q 1497 4750 2381 4750 
Q 2619 4750 2861 4703 
Q 3103 4656 3366 4563 
z
" transform="scale(0.015625)"/>
       </defs>
       <use xlink:href="#DejaVuSans-36"/>
      </g>
     </g>
    </g>
    <g id="ytick_4">
     <g id="line2d_9">
      <path d="M 235.611525 135.551522 
C 245.71331 135.551522 255.716867 137.541353 265.049698 141.407138 
C 274.38253 145.272924 282.863136 150.939484 290.006177 158.082524 
C 297.149217 165.225564 302.815777 173.70617 306.681562 183.039002 
C 310.547348 192.371834 312.537179 202.375391 312.537179 212.477175 
C 312.537179 222.578959 310.547348 232.582516 306.681562 241.915348 
C 302.815777 251.24818 297.149217 259.728786 290.006177 266.871826 
C 282.863136 274.014866 274.38253 279.681426 265.049698 283.547212 
C 255.716867 287.412997 245.71331 289.402828 235.611525 289.402828 
C 225.509741 289.402828 215.506184 287.412997 206.173352 283.547212 
C 196.840521 279.681426 188.359914 274.014866 181.216874 266.871826 
C 174.073834 259.728786 168.407274 251.24818 164.541489 241.915348 
C 160.675703 232.582516 158.685872 222.578959 158.685872 212.477175 
C 158.685872 202.375391 160.675703 192.371834 164.541489 183.039002 
C 168.407274 173.70617 174.073834 165.225564 181.216874 158.082524 
C 188.359914 150.939484 196.840521 145.272924 206.173352 141.407138 
C 215.506184 137.541353 225.509741 135.551522 235.611525 135.551522 
" clip-path="url(#p460d43a383)" style="fill: none; stroke: #b0b0b0; stroke-width: 0.8; stroke-linecap: square"/>
     </g>
     <g id="text_9">
      <!-- 8 -->
      <g transform="translate(280.82729 148.163327)scale(0.1 -0.1)">
       <defs>
        <path id="DejaVuSans-38" d="M 2034 2216 
Q 1584 2216 1326 1975 
Q 1069 1734 1069 1313 
Q 1069 891 1326 650 
Q 1584 409 2034 409 
Q 2484 409 2743 651 
Q 3003 894 3003 1313 
Q 3003 1734 2745 1975 
Q 2488 2216 2034 2216 
z
M 1403 2484 
Q 997 2584 770 2862 
Q 544 3141 544 3541 
Q 544 4100 942 4425 
Q 1341 4750 2034 4750 
Q 2731 4750 3128 4425 
Q 3525 4100 3525 3541 
Q 3525 3141 3298 2862 
Q 3072 2584 2669 2484 
Q 3125 2378 3379 2068 
Q 3634 1759 3634 1313 
Q 3634 634 3220 271 
Q 2806 -91 2034 -91 
Q 1263 -91 848 271 
Q 434 634 434 1313 
Q 434 1759 690 2068 
Q 947 2378 1403 2484 
z
M 1172 3481 
Q 1172 3119 1398 2916 
Q 1625 2713 2034 2713 
Q 2441 2713 2670 2916 
Q 2900 3119 2900 3481 
Q 2900 3844 2670 4047 
Q 2441 4250 2034 4250 
Q 1625 4250 1398 4047 
Q 1172 3844 1172 3481 
z
" transform="scale(0.015625)"/>
       </defs>
       <use xlink:href="#DejaVuSans-38"/>
      </g>
     </g>
    </g>
    <g id="ytick_5">
     <g id="line2d_10">
      <path d="M 235.611525 116.320108 
C 248.238756 116.320108 260.743202 118.807397 272.409242 123.639629 
C 284.075281 128.471861 294.676039 135.555061 303.604839 144.483861 
C 312.53364 153.412661 319.616839 164.013419 324.449071 175.679459 
C 329.281303 187.345498 331.768592 199.849945 331.768592 212.477175 
C 331.768592 225.104405 329.281303 237.608852 324.449071 249.274891 
C 319.616839 260.940931 312.53364 271.541689 303.604839 280.470489 
C 294.676039 289.399289 284.075281 296.482489 272.409242 301.314721 
C 260.743202 306.146953 248.238756 308.634242 235.611525 308.634242 
C 222.984295 308.634242 210.479849 306.146953 198.813809 301.314721 
C 187.147769 296.482489 176.547012 289.399289 167.618211 280.470489 
C 158.689411 271.541689 151.606211 260.940931 146.77398 249.274891 
C 141.941748 237.608852 139.454459 225.104405 139.454459 212.477175 
C 139.454459 199.849945 141.941748 187.345498 146.77398 175.679459 
C 151.606211 164.013419 158.689411 153.412661 167.618211 144.483861 
C 176.547012 135.555061 187.147769 128.471861 198.813809 123.639629 
C 210.479849 118.807397 222.984295 116.320108 235.611525 116.320108 
" clip-path="url(#p460d43a383)" style="fill: none; stroke: #b0b0b0; stroke-width: 0.8; stroke-linecap: square"/>
     </g>
     <g id="text_10">
      <!-- 10 -->
      <g transform="translate(292.131231 132.604786)scale(0.1 -0.1)">
       <defs>
        <path id="DejaVuSans-31" d="M 794 531 
L 1825 531 
L 1825 4091 
L 703 3866 
L 703 4441 
L 1819 4666 
L 2450 4666 
L 2450 531 
L 3481 531 
L 3481 0 
L 794 0 
L 794 531 
z
" transform="scale(0.015625)"/>
        <path id="DejaVuSans-30" d="M 2034 4250 
Q 1547 4250 1301 3770 
Q 1056 3291 1056 2328 
Q 1056 1369 1301 889 
Q 1547 409 2034 409 
Q 2525 409 2770 889 
Q 3016 1369 3016 2328 
Q 3016 3291 2770 3770 
Q 2525 4250 2034 4250 
z
M 2034 4750 
Q 2819 4750 3233 4129 
Q 3647 3509 3647 2328 
Q 3647 1150 3233 529 
Q 2819 -91 2034 -91 
Q 1250 -91 836 529 
Q 422 1150 422 2328 
Q 422 3509 836 4129 
Q 1250 4750 2034 4750 
z
" transform="scale(0.015625)"/>
       </defs>
       <use xlink:href="#DejaVuSans-31"/>
       <use xlink:href="#DejaVuSans-30" x="63.623047"/>
      </g>
     </g>
    </g>
    <g id="ytick_6">
     <g id="line2d_11">
      <path d="M 235.611525 97.088695 
C 250.764202 97.088695 265.769537 100.073442 279.768785 105.87212 
C 293.768033 111.670798 306.488942 120.170638 317.203502 130.885198 
C 327.918062 141.599758 336.417902 154.320668 342.21658 168.319915 
C 348.015259 182.319163 351.000006 197.324499 351.000006 212.477175 
C 351.000006 227.629851 348.015259 242.635187 342.21658 256.634435 
C 336.417902 270.633682 327.918062 283.354592 317.203502 294.069152 
C 306.488942 304.783712 293.768033 313.283552 279.768785 319.08223 
C 265.769537 324.880908 250.764202 327.865655 235.611525 327.865655 
C 220.458849 327.865655 205.453513 324.880908 191.454266 319.08223 
C 177.455018 313.283552 164.734109 304.783712 154.019549 294.069152 
C 143.304988 283.354592 134.805149 270.633682 129.00647 256.634435 
C 123.207792 242.635187 120.223045 227.629851 120.223045 212.477175 
C 120.223045 197.324499 123.207792 182.319163 129.00647 168.319915 
C 134.805149 154.320668 143.304988 141.599758 154.019549 130.885198 
C 164.734109 120.170638 177.455018 111.670798 191.454266 105.87212 
C 205.453513 100.073442 220.458849 97.088695 235.611525 97.088695 
" clip-path="url(#p460d43a383)" style="fill: none; stroke: #b0b0b0; stroke-width: 0.8; stroke-linecap: square"/>
     </g>
     <g id="text_11">
      <!-- 12 -->
      <g transform="translate(303.435172 117.046246)scale(0.1 -0.1)">
       <use xlink:href="#DejaVuSans-31"/>
       <use xlink:href="#DejaVuSans-32" x="63.623047"/>
      </g>
     </g>
    </g>
    <g id="ytick_7">
     <g id="line2d_12">
      <path d="M 235.611525 77.857282 
C 253.289648 77.857282 270.795873 81.339486 287.128328 88.104611 
C 303.460784 94.869735 318.301845 104.786215 330.802165 117.286535 
C 343.302485 129.786856 353.218965 144.627917 359.98409 160.960372 
C 366.749214 177.292828 370.231419 194.799053 370.231419 212.477175 
C 370.231419 230.155297 366.749214 247.661522 359.98409 263.993978 
C 353.218965 280.326433 343.302485 295.167494 330.802165 307.667815 
C 318.301845 320.168135 303.460784 330.084615 287.128328 336.849739 
C 270.795873 343.614864 253.289648 347.097068 235.611525 347.097068 
C 217.933403 347.097068 200.427178 343.614864 184.094723 336.849739 
C 167.762267 330.084615 152.921206 320.168135 140.420886 307.667815 
C 127.920566 295.167494 118.004086 280.326433 111.238961 263.993978 
C 104.473837 247.661522 100.991632 230.155297 100.991632 212.477175 
C 100.991632 194.799053 104.473837 177.292828 111.238961 160.960372 
C 118.004086 144.627917 127.920566 129.786856 140.420886 117.286535 
C 152.921206 104.786215 167.762267 94.869735 184.094723 88.104611 
C 200.427178 81.339486 217.933403 77.857282 235.611525 77.857282 
" clip-path="url(#p460d43a383)" style="fill: none; stroke: #b0b0b0; stroke-width: 0.8; stroke-linecap: square"/>
     </g>
     <g id="text_12">
      <!-- 14 -->
      <g transform="translate(314.739113 101.487706)scale(0.1 -0.1)">
       <use xlink:href="#DejaVuSans-31"/>
       <use xlink:href="#DejaVuSans-34" x="63.623047"/>
      </g>
     </g>
    </g>
    <g id="ytick_8">
     <g id="line2d_13">
      <path d="M 235.611525 58.625868 
C 255.815094 58.625868 275.822208 62.605531 294.487872 70.337102 
C 313.153535 78.068673 330.114747 89.401792 344.400828 103.687873 
C 358.686908 117.973953 370.020028 134.935165 377.751599 153.600829 
C 385.48317 172.266492 389.462832 192.273607 389.462832 212.477175 
C 389.462832 232.680743 385.48317 252.687858 377.751599 271.353521 
C 370.020028 290.019185 358.686908 306.980397 344.400828 321.266477 
C 330.114747 335.552558 313.153535 346.885677 294.487872 354.617248 
C 275.822208 362.348819 255.815094 366.328482 235.611525 366.328482 
C 215.407957 366.328482 195.400843 362.348819 176.735179 354.617248 
C 158.069516 346.885677 141.108303 335.552558 126.822223 321.266477 
C 112.536143 306.980397 101.203023 290.019185 93.471452 271.353521 
C 85.739881 252.687858 81.760219 232.680743 81.760219 212.477175 
C 81.760219 192.273607 85.739881 172.266492 93.471452 153.600829 
C 101.203023 134.935165 112.536143 117.973953 126.822223 103.687873 
C 141.108303 89.401792 158.069516 78.068673 176.735179 70.337102 
C 195.400843 62.605531 215.407957 58.625868 235.611525 58.625868 
" clip-path="url(#p460d43a383)" style="fill: none; stroke: #b0b0b0; stroke-width: 0.8; stroke-linecap: square"/>
     </g>
     <g id="text_13">
      <!-- 16 -->
      <g transform="translate(326.043055 85.929166)scale(0.1 -0.1)">
       <use xlink:href="#DejaVuSans-31"/>
       <use xlink:href="#DejaVuSans-36" x="63.623047"/>
      </g>
     </g>
    </g>
   </g>
   <g id="line2d_14">
    <path d="M 235.611525 181.240399 
L 262.22639 203.829481 
L 255.347082 239.640838 
L 207.522135 251.138904 
L 86.631487 164.070626 
" clip-path="url(#p460d43a383)" style="fill: none; stroke: #00ff3e; stroke-linecap: square"/>
   </g>
   <g id="patch_4">
    <path d="M 235.611525 49.397175 
C 214.196056 49.397175 192.988825 53.615556 173.203511 61.810901 
C 153.418197 70.006246 135.439575 82.019178 120.296552 97.162201 
C 105.153528 112.305225 93.140597 130.283847 84.945251 150.069161 
C 76.749906 169.854475 72.531525 191.061706 72.531525 212.477175 
C 72.531525 233.892644 76.749906 255.099875 84.945251 274.885189 
C 93.140597 294.670503 105.153528 312.649125 120.296552 327.792149 
C 135.439575 342.935172 153.418197 354.948104 173.203511 363.143449 
C 192.988825 371.338794 214.196056 375.557175 235.611525 375.557175 
C 257.026995 375.557175 278.234226 371.338794 298.01954 363.143449 
C 317.804853 354.948104 335.783476 342.935172 350.926499 327.792149 
C 366.069523 312.649125 378.082454 294.670503 386.2778 274.885189 
C 394.473145 255.099875 398.691525 233.892644 398.691525 212.477175 
C 398.691525 191.061706 394.473145 169.854475 386.2778 150.069161 
C 378.082454 130.283847 366.069523 112.305225 350.926499 97.162201 
C 335.783476 82.019178 317.804853 70.006246 298.01954 61.810901 
C 278.234226 53.615556 257.026995 49.397175 235.611525 49.397175 
" style="fill: none; stroke: #000000; stroke-width: 0.8; stroke-linejoin: miter; stroke-linecap: square"/>
   </g>
   <g id="text_14">
    <!-- MAE Metrics  [x $10^{-2}$]  -->
    <g transform="translate(168.891525 17.304375)scale(0.12 -0.12)">
     <defs>
      <path id="DejaVuSans-41" d="M 2188 4044 
L 1331 1722 
L 3047 1722 
L 2188 4044 
z
M 1831 4666 
L 2547 4666 
L 4325 0 
L 3669 0 
L 3244 1197 
L 1141 1197 
L 716 0 
L 50 0 
L 1831 4666 
z
" transform="scale(0.015625)"/>
      <path id="DejaVuSans-45" d="M 628 4666 
L 3578 4666 
L 3578 4134 
L 1259 4134 
L 1259 2753 
L 3481 2753 
L 3481 2222 
L 1259 2222 
L 1259 531 
L 3634 531 
L 3634 0 
L 628 0 
L 628 4666 
z
" transform="scale(0.015625)"/>
      <path id="DejaVuSans-20" transform="scale(0.015625)"/>
      <path id="DejaVuSans-74" d="M 1172 4494 
L 1172 3500 
L 2356 3500 
L 2356 3053 
L 1172 3053 
L 1172 1153 
Q 1172 725 1289 603 
Q 1406 481 1766 481 
L 2356 481 
L 2356 0 
L 1766 0 
Q 1100 0 847 248 
Q 594 497 594 1153 
L 594 3053 
L 172 3053 
L 172 3500 
L 594 3500 
L 594 4494 
L 1172 4494 
z
" transform="scale(0.015625)"/>
      <path id="DejaVuSans-69" d="M 603 3500 
L 1178 3500 
L 1178 0 
L 603 0 
L 603 3500 
z
M 603 4863 
L 1178 4863 
L 1178 4134 
L 603 4134 
L 603 4863 
z
" transform="scale(0.015625)"/>
      <path id="DejaVuSans-63" d="M 3122 3366 
L 3122 2828 
Q 2878 2963 2633 3030 
Q 2388 3097 2138 3097 
Q 1578 3097 1268 2742 
Q 959 2388 959 1747 
Q 959 1106 1268 751 
Q 1578 397 2138 397 
Q 2388 397 2633 464 
Q 2878 531 3122 666 
L 3122 134 
Q 2881 22 2623 -34 
Q 2366 -91 2075 -91 
Q 1284 -91 818 406 
Q 353 903 353 1747 
Q 353 2603 823 3093 
Q 1294 3584 2113 3584 
Q 2378 3584 2631 3529 
Q 2884 3475 3122 3366 
z
" transform="scale(0.015625)"/>
      <path id="DejaVuSans-5b" d="M 550 4863 
L 1875 4863 
L 1875 4416 
L 1125 4416 
L 1125 -397 
L 1875 -397 
L 1875 -844 
L 550 -844 
L 550 4863 
z
" transform="scale(0.015625)"/>
      <path id="DejaVuSans-78" d="M 3513 3500 
L 2247 1797 
L 3578 0 
L 2900 0 
L 1881 1375 
L 863 0 
L 184 0 
L 1544 1831 
L 300 3500 
L 978 3500 
L 1906 2253 
L 2834 3500 
L 3513 3500 
z
" transform="scale(0.015625)"/>
      <path id="DejaVuSans-2212" d="M 678 2272 
L 4684 2272 
L 4684 1741 
L 678 1741 
L 678 2272 
z
" transform="scale(0.015625)"/>
      <path id="DejaVuSans-5d" d="M 1947 4863 
L 1947 -844 
L 622 -844 
L 622 -397 
L 1369 -397 
L 1369 4416 
L 622 4416 
L 622 4863 
L 1947 4863 
z
" transform="scale(0.015625)"/>
     </defs>
     <use xlink:href="#DejaVuSans-4d" transform="translate(0 0.765625)"/>
     <use xlink:href="#DejaVuSans-41" transform="translate(86.279297 0.765625)"/>
     <use xlink:href="#DejaVuSans-45" transform="translate(154.6875 0.765625)"/>
     <use xlink:href="#DejaVuSans-20" transform="translate(217.871094 0.765625)"/>
     <use xlink:href="#DejaVuSans-4d" transform="translate(249.658203 0.765625)"/>
     <use xlink:href="#DejaVuSans-65" transform="translate(335.9375 0.765625)"/>
     <use xlink:href="#DejaVuSans-74" transform="translate(397.460938 0.765625)"/>
     <use xlink:href="#DejaVuSans-72" transform="translate(436.669922 0.765625)"/>
     <use xlink:href="#DejaVuSans-69" transform="translate(477.783203 0.765625)"/>
     <use xlink:href="#DejaVuSans-63" transform="translate(505.566406 0.765625)"/>
     <use xlink:href="#DejaVuSans-73" transform="translate(560.546875 0.765625)"/>
     <use xlink:href="#DejaVuSans-20" transform="translate(612.646484 0.765625)"/>
     <use xlink:href="#DejaVuSans-20" transform="translate(644.433594 0.765625)"/>
     <use xlink:href="#DejaVuSans-5b" transform="translate(676.220703 0.765625)"/>
     <use xlink:href="#DejaVuSans-78" transform="translate(715.234375 0.765625)"/>
     <use xlink:href="#DejaVuSans-20" transform="translate(774.414062 0.765625)"/>
     <use xlink:href="#DejaVuSans-31" transform="translate(806.201172 0.765625)"/>
     <use xlink:href="#DejaVuSans-30" transform="translate(869.824219 0.765625)"/>
     <use xlink:href="#DejaVuSans-2212" transform="translate(934.404297 39.046875)scale(0.7)"/>
     <use xlink:href="#DejaVuSans-32" transform="translate(993.056641 39.046875)scale(0.7)"/>
     <use xlink:href="#DejaVuSans-5d" transform="translate(1040.327148 0.765625)"/>
     <use xlink:href="#DejaVuSans-20" transform="translate(1079.34082 0.765625)"/>
    </g>
   </g>
  </g>
 </g>
 <defs>
  <clipPath id="p460d43a383">
   <path d="M 398.691525 212.477175 
C 398.691525 191.061706 394.473145 169.854475 386.2778 150.069161 
C 378.082454 130.283847 366.069523 112.305225 350.926499 97.162201 
C 335.783476 82.019178 317.804853 70.006246 298.01954 61.810901 
C 278.234226 53.615556 257.026995 49.397175 235.611525 49.397175 
C 214.196056 49.397175 192.988825 53.615556 173.203511 61.810901 
C 153.418197 70.006246 135.439575 82.019178 120.296552 97.162201 
C 105.153528 112.305225 93.140597 130.283847 84.945251 150.069161 
C 76.749906 169.854475 72.531525 191.061706 72.531525 212.477175 
C 72.531525 233.892644 76.749906 255.099875 84.945251 274.885189 
C 93.140597 294.670503 105.153528 312.649125 120.296552 327.792149 
C 135.439575 342.935172 153.418197 354.948104 173.203511 363.143449 
C 192.988825 371.338794 214.196056 375.557175 235.611525 375.557175 
C 257.026995 375.557175 278.234226 371.338794 298.01954 363.143449 
C 317.804853 354.948104 335.783476 342.935172 350.926499 327.792149 
C 366.069523 312.649125 378.082454 294.670503 386.2778 274.885189 
C 394.473145 255.099875 398.691525 233.892644 398.691525 212.477175 
M 235.611525 212.477175 
C 235.611525 212.477175 235.611525 212.477175 235.611525 212.477175 
C 235.611525 212.477175 235.611525 212.477175 235.611525 212.477175 
C 235.611525 212.477175 235.611525 212.477175 235.611525 212.477175 
C 235.611525 212.477175 235.611525 212.477175 235.611525 212.477175 
C 235.611525 212.477175 235.611525 212.477175 235.611525 212.477175 
C 235.611525 212.477175 235.611525 212.477175 235.611525 212.477175 
C 235.611525 212.477175 235.611525 212.477175 235.611525 212.477175 
C 235.611525 212.477175 235.611525 212.477175 235.611525 212.477175 
C 235.611525 212.477175 235.611525 212.477175 235.611525 212.477175 
C 235.611525 212.477175 235.611525 212.477175 235.611525 212.477175 
C 235.611525 212.477175 235.611525 212.477175 235.611525 212.477175 
C 235.611525 212.477175 235.611525 212.477175 235.611525 212.477175 
C 235.611525 212.477175 235.611525 212.477175 235.611525 212.477175 
C 235.611525 212.477175 235.611525 212.477175 235.611525 212.477175 
C 235.611525 212.477175 235.611525 212.477175 235.611525 212.477175 
C 235.611525 212.477175 235.611525 212.477175 235.611525 212.477175 
M 398.691525 212.477175 
z
"/>
  </clipPath>
 </defs>
</svg>
