<?xml version="1.0" encoding="utf-8" standalone="no"?>
<!DOCTYPE svg PUBLIC "-//W3C//DTD SVG 1.1//EN"
  "http://www.w3.org/Graphics/SVG/1.1/DTD/svg11.dtd">
<svg xmlns:xlink="http://www.w3.org/1999/xlink" width="437.880863pt" height="382.757175pt" viewBox="0 0 437.880863 382.757175" xmlns="http://www.w3.org/2000/svg" version="1.1">
 <metadata>
  <rdf:RDF xmlns:dc="http://purl.org/dc/elements/1.1/" xmlns:cc="http://creativecommons.org/ns#" xmlns:rdf="http://www.w3.org/1999/02/22-rdf-syntax-ns#">
   <cc:Work>
    <dc:type rdf:resource="http://purl.org/dc/dcmitype/StillImage"/>
    <dc:date>2022-07-13T10:57:02.908931</dc:date>
    <dc:format>image/svg+xml</dc:format>
    <dc:creator>
     <cc:Agent>
      <dc:title>Matplotlib v3.5.2, https://matplotlib.org/</dc:title>
     </cc:Agent>
    </dc:creator>
   </cc:Work>
  </rdf:RDF>
 </metadata>
 <defs>
  <style type="text/css">*{stroke-linejoin: round; stroke-linecap: butt}</style>
 </defs>
 <g id="figure_1">
  <g id="patch_1">
   <path d="M 0 382.757175 
L 437.880863 382.757175 
L 437.880863 0 
L 0 0 
L 0 382.757175 
z
" style="fill: none"/>
  </g>
  <g id="axes_1">
   <g id="patch_2">
    <path d="M 398.691525 212.477175 
C 398.691525 191.061706 394.473145 169.854475 386.2778 150.069161 
C 378.082454 130.283847 366.069523 112.305225 350.926499 97.162201 
C 335.783476 82.019178 317.804853 70.006246 298.01954 61.810901 
C 278.234226 53.615556 257.026995 49.397175 235.611525 49.397175 
C 214.196056 49.397175 192.988825 53.615556 173.203511 61.810901 
C 153.418197 70.006246 135.439575 82.019178 120.296552 97.162201 
C 105.153528 112.305225 93.140597 130.283847 84.945251 150.069161 
C 76.749906 169.854475 72.531525 191.061706 72.531525 212.477175 
C 72.531525 233.892644 76.749906 255.099875 84.945251 274.885189 
C 93.140597 294.670503 105.153528 312.649125 120.296552 327.792149 
C 135.439575 342.935172 153.418197 354.948104 173.203511 363.143449 
C 192.988825 371.338794 214.196056 375.557175 235.611525 375.557175 
C 257.026995 375.557175 278.234226 371.338794 298.01954 363.143449 
C 317.804853 354.948104 335.783476 342.935172 350.926499 327.792149 
C 366.069523 312.649125 378.082454 294.670503 386.2778 274.885189 
C 394.473145 255.099875 398.691525 233.892644 398.691525 212.477175 
M 235.611525 212.477175 
C 235.611525 212.477175 235.611525 212.477175 235.611525 212.477175 
C 235.611525 212.477175 235.611525 212.477175 235.611525 212.477175 
C 235.611525 212.477175 235.611525 212.477175 235.611525 212.477175 
C 235.611525 212.477175 235.611525 212.477175 235.611525 212.477175 
C 235.611525 212.477175 235.611525 212.477175 235.611525 212.477175 
C 235.611525 212.477175 235.611525 212.477175 235.611525 212.477175 
C 235.611525 212.477175 235.611525 212.477175 235.611525 212.477175 
C 235.611525 212.477175 235.611525 212.477175 235.611525 212.477175 
C 235.611525 212.477175 235.611525 212.477175 235.611525 212.477175 
C 235.611525 212.477175 235.611525 212.477175 235.611525 212.477175 
C 235.611525 212.477175 235.611525 212.477175 235.611525 212.477175 
C 235.611525 212.477175 235.611525 212.477175 235.611525 212.477175 
C 235.611525 212.477175 235.611525 212.477175 235.611525 212.477175 
C 235.611525 212.477175 235.611525 212.477175 235.611525 212.477175 
C 235.611525 212.477175 235.611525 212.477175 235.611525 212.477175 
C 235.611525 212.477175 235.611525 212.477175 235.611525 212.477175 
M 398.691525 212.477175 
z
" style="fill: #ffffff"/>
   </g>
   <g id="patch_3">
    <path d="M 235.611525 182.411799 
L 272.340516 200.543202 
L 253.712927 237.391617 
L 191.956339 272.563384 
L 86.537249 164.040006 
z
" clip-path="url(#p1dbb1cac24)" style="fill: #00ff3e; opacity: 0.25; stroke: #00ff3e; stroke-linejoin: miter"/>
   </g>
   <g id="matplotlib.axis_1">
    <g id="xtick_1">
     <g id="line2d_1">
      <path d="M 235.611525 212.477175 
L 235.611525 49.397175 
" clip-path="url(#p1dbb1cac24)" style="fill: none; stroke: #b0b0b0; stroke-width: 0.8; stroke-linecap: square"/>
     </g>
     <g id="text_1">
      <!-- RNN -->
      <g transform="translate(224.656057 38.15655)scale(0.1 -0.1)">
       <defs>
        <path id="DejaVuSans-52" d="M 2841 2188 
Q 3044 2119 3236 1894 
Q 3428 1669 3622 1275 
L 4263 0 
L 3584 0 
L 2988 1197 
Q 2756 1666 2539 1819 
Q 2322 1972 1947 1972 
L 1259 1972 
L 1259 0 
L 628 0 
L 628 4666 
L 2053 4666 
Q 2853 4666 3247 4331 
Q 3641 3997 3641 3322 
Q 3641 2881 3436 2590 
Q 3231 2300 2841 2188 
z
M 1259 4147 
L 1259 2491 
L 2053 2491 
Q 2509 2491 2742 2702 
Q 2975 2913 2975 3322 
Q 2975 3731 2742 3939 
Q 2509 4147 2053 4147 
L 1259 4147 
z
" transform="scale(0.015625)"/>
        <path id="DejaVuSans-4e" d="M 628 4666 
L 1478 4666 
L 3547 763 
L 3547 4666 
L 4159 4666 
L 4159 0 
L 3309 0 
L 1241 3903 
L 1241 0 
L 628 0 
L 628 4666 
z
" transform="scale(0.015625)"/>
       </defs>
       <use xlink:href="#DejaVuSans-52"/>
       <use xlink:href="#DejaVuSans-4e" x="69.482422"/>
       <use xlink:href="#DejaVuSans-4e" x="144.287109"/>
      </g>
     </g>
    </g>
    <g id="xtick_2">
     <g id="line2d_2">
      <path d="M 235.611525 212.477175 
L 390.709822 162.082684 
" clip-path="url(#p1dbb1cac24)" style="fill: none; stroke: #b0b0b0; stroke-width: 0.8; stroke-linecap: square"/>
     </g>
     <g id="text_2">
      <!-- LSTM -->
      <g transform="translate(404.024613 160.515821)scale(0.1 -0.1)">
       <defs>
        <path id="DejaVuSans-4c" d="M 628 4666 
L 1259 4666 
L 1259 531 
L 3531 531 
L 3531 0 
L 628 0 
L 628 4666 
z
" transform="scale(0.015625)"/>
        <path id="DejaVuSans-53" d="M 3425 4513 
L 3425 3897 
Q 3066 4069 2747 4153 
Q 2428 4238 2131 4238 
Q 1616 4238 1336 4038 
Q 1056 3838 1056 3469 
Q 1056 3159 1242 3001 
Q 1428 2844 1947 2747 
L 2328 2669 
Q 3034 2534 3370 2195 
Q 3706 1856 3706 1288 
Q 3706 609 3251 259 
Q 2797 -91 1919 -91 
Q 1588 -91 1214 -16 
Q 841 59 441 206 
L 441 856 
Q 825 641 1194 531 
Q 1563 422 1919 422 
Q 2459 422 2753 634 
Q 3047 847 3047 1241 
Q 3047 1584 2836 1778 
Q 2625 1972 2144 2069 
L 1759 2144 
Q 1053 2284 737 2584 
Q 422 2884 422 3419 
Q 422 4038 858 4394 
Q 1294 4750 2059 4750 
Q 2388 4750 2728 4690 
Q 3069 4631 3425 4513 
z
" transform="scale(0.015625)"/>
        <path id="DejaVuSans-54" d="M -19 4666 
L 3928 4666 
L 3928 4134 
L 2272 4134 
L 2272 0 
L 1638 0 
L 1638 4134 
L -19 4134 
L -19 4666 
z
" transform="scale(0.015625)"/>
        <path id="DejaVuSans-4d" d="M 628 4666 
L 1569 4666 
L 2759 1491 
L 3956 4666 
L 4897 4666 
L 4897 0 
L 4281 0 
L 4281 4097 
L 3078 897 
L 2444 897 
L 1241 4097 
L 1241 0 
L 628 0 
L 628 4666 
z
" transform="scale(0.015625)"/>
       </defs>
       <use xlink:href="#DejaVuSans-4c"/>
       <use xlink:href="#DejaVuSans-53" x="55.712891"/>
       <use xlink:href="#DejaVuSans-54" x="119.189453"/>
       <use xlink:href="#DejaVuSans-4d" x="180.273438"/>
      </g>
     </g>
    </g>
    <g id="xtick_3">
     <g id="line2d_3">
      <path d="M 235.611525 212.477175 
L 331.467544 344.411666 
" clip-path="url(#p1dbb1cac24)" style="fill: none; stroke: #b0b0b0; stroke-width: 0.8; stroke-linecap: square"/>
     </g>
     <g id="text_3">
      <!-- GRU -->
      <g transform="translate(339.696538 358.497279)scale(0.1 -0.1)">
       <defs>
        <path id="DejaVuSans-47" d="M 3809 666 
L 3809 1919 
L 2778 1919 
L 2778 2438 
L 4434 2438 
L 4434 434 
Q 4069 175 3628 42 
Q 3188 -91 2688 -91 
Q 1594 -91 976 548 
Q 359 1188 359 2328 
Q 359 3472 976 4111 
Q 1594 4750 2688 4750 
Q 3144 4750 3555 4637 
Q 3966 4525 4313 4306 
L 4313 3634 
Q 3963 3931 3569 4081 
Q 3175 4231 2741 4231 
Q 1884 4231 1454 3753 
Q 1025 3275 1025 2328 
Q 1025 1384 1454 906 
Q 1884 428 2741 428 
Q 3075 428 3337 486 
Q 3600 544 3809 666 
z
" transform="scale(0.015625)"/>
        <path id="DejaVuSans-55" d="M 556 4666 
L 1191 4666 
L 1191 1831 
Q 1191 1081 1462 751 
Q 1734 422 2344 422 
Q 2950 422 3222 751 
Q 3494 1081 3494 1831 
L 3494 4666 
L 4128 4666 
L 4128 1753 
Q 4128 841 3676 375 
Q 3225 -91 2344 -91 
Q 1459 -91 1007 375 
Q 556 841 556 1753 
L 556 4666 
z
" transform="scale(0.015625)"/>
       </defs>
       <use xlink:href="#DejaVuSans-47"/>
       <use xlink:href="#DejaVuSans-52" x="77.490234"/>
       <use xlink:href="#DejaVuSans-55" x="146.972656"/>
      </g>
     </g>
    </g>
    <g id="xtick_4">
     <g id="line2d_4">
      <path d="M 235.611525 212.477175 
L 139.755506 344.411666 
" clip-path="url(#p1dbb1cac24)" style="fill: none; stroke: #b0b0b0; stroke-width: 0.8; stroke-linecap: square"/>
     </g>
     <g id="text_4">
      <!-- TST -->
      <g transform="translate(112.96245 358.497279)scale(0.1 -0.1)">
       <use xlink:href="#DejaVuSans-54"/>
       <use xlink:href="#DejaVuSans-53" x="61.083984"/>
       <use xlink:href="#DejaVuSans-54" x="124.560547"/>
      </g>
     </g>
    </g>
    <g id="xtick_5">
     <g id="line2d_5">
      <path d="M 235.611525 212.477175 
L 80.513229 162.082684 
" clip-path="url(#p1dbb1cac24)" style="fill: none; stroke: #b0b0b0; stroke-width: 0.8; stroke-linecap: square"/>
     </g>
     <g id="text_5">
      <!-- Transformer -->
      <g transform="translate(7.2 160.515821)scale(0.1 -0.1)">
       <defs>
        <path id="DejaVuSans-72" d="M 2631 2963 
Q 2534 3019 2420 3045 
Q 2306 3072 2169 3072 
Q 1681 3072 1420 2755 
Q 1159 2438 1159 1844 
L 1159 0 
L 581 0 
L 581 3500 
L 1159 3500 
L 1159 2956 
Q 1341 3275 1631 3429 
Q 1922 3584 2338 3584 
Q 2397 3584 2469 3576 
Q 2541 3569 2628 3553 
L 2631 2963 
z
" transform="scale(0.015625)"/>
        <path id="DejaVuSans-61" d="M 2194 1759 
Q 1497 1759 1228 1600 
Q 959 1441 959 1056 
Q 959 750 1161 570 
Q 1363 391 1709 391 
Q 2188 391 2477 730 
Q 2766 1069 2766 1631 
L 2766 1759 
L 2194 1759 
z
M 3341 1997 
L 3341 0 
L 2766 0 
L 2766 531 
Q 2569 213 2275 61 
Q 1981 -91 1556 -91 
Q 1019 -91 701 211 
Q 384 513 384 1019 
Q 384 1609 779 1909 
Q 1175 2209 1959 2209 
L 2766 2209 
L 2766 2266 
Q 2766 2663 2505 2880 
Q 2244 3097 1772 3097 
Q 1472 3097 1187 3025 
Q 903 2953 641 2809 
L 641 3341 
Q 956 3463 1253 3523 
Q 1550 3584 1831 3584 
Q 2591 3584 2966 3190 
Q 3341 2797 3341 1997 
z
" transform="scale(0.015625)"/>
        <path id="DejaVuSans-6e" d="M 3513 2113 
L 3513 0 
L 2938 0 
L 2938 2094 
Q 2938 2591 2744 2837 
Q 2550 3084 2163 3084 
Q 1697 3084 1428 2787 
Q 1159 2491 1159 1978 
L 1159 0 
L 581 0 
L 581 3500 
L 1159 3500 
L 1159 2956 
Q 1366 3272 1645 3428 
Q 1925 3584 2291 3584 
Q 2894 3584 3203 3211 
Q 3513 2838 3513 2113 
z
" transform="scale(0.015625)"/>
        <path id="DejaVuSans-73" d="M 2834 3397 
L 2834 2853 
Q 2591 2978 2328 3040 
Q 2066 3103 1784 3103 
Q 1356 3103 1142 2972 
Q 928 2841 928 2578 
Q 928 2378 1081 2264 
Q 1234 2150 1697 2047 
L 1894 2003 
Q 2506 1872 2764 1633 
Q 3022 1394 3022 966 
Q 3022 478 2636 193 
Q 2250 -91 1575 -91 
Q 1294 -91 989 -36 
Q 684 19 347 128 
L 347 722 
Q 666 556 975 473 
Q 1284 391 1588 391 
Q 1994 391 2212 530 
Q 2431 669 2431 922 
Q 2431 1156 2273 1281 
Q 2116 1406 1581 1522 
L 1381 1569 
Q 847 1681 609 1914 
Q 372 2147 372 2553 
Q 372 3047 722 3315 
Q 1072 3584 1716 3584 
Q 2034 3584 2315 3537 
Q 2597 3491 2834 3397 
z
" transform="scale(0.015625)"/>
        <path id="DejaVuSans-66" d="M 2375 4863 
L 2375 4384 
L 1825 4384 
Q 1516 4384 1395 4259 
Q 1275 4134 1275 3809 
L 1275 3500 
L 2222 3500 
L 2222 3053 
L 1275 3053 
L 1275 0 
L 697 0 
L 697 3053 
L 147 3053 
L 147 3500 
L 697 3500 
L 697 3744 
Q 697 4328 969 4595 
Q 1241 4863 1831 4863 
L 2375 4863 
z
" transform="scale(0.015625)"/>
        <path id="DejaVuSans-6f" d="M 1959 3097 
Q 1497 3097 1228 2736 
Q 959 2375 959 1747 
Q 959 1119 1226 758 
Q 1494 397 1959 397 
Q 2419 397 2687 759 
Q 2956 1122 2956 1747 
Q 2956 2369 2687 2733 
Q 2419 3097 1959 3097 
z
M 1959 3584 
Q 2709 3584 3137 3096 
Q 3566 2609 3566 1747 
Q 3566 888 3137 398 
Q 2709 -91 1959 -91 
Q 1206 -91 779 398 
Q 353 888 353 1747 
Q 353 2609 779 3096 
Q 1206 3584 1959 3584 
z
" transform="scale(0.015625)"/>
        <path id="DejaVuSans-6d" d="M 3328 2828 
Q 3544 3216 3844 3400 
Q 4144 3584 4550 3584 
Q 5097 3584 5394 3201 
Q 5691 2819 5691 2113 
L 5691 0 
L 5113 0 
L 5113 2094 
Q 5113 2597 4934 2840 
Q 4756 3084 4391 3084 
Q 3944 3084 3684 2787 
Q 3425 2491 3425 1978 
L 3425 0 
L 2847 0 
L 2847 2094 
Q 2847 2600 2669 2842 
Q 2491 3084 2119 3084 
Q 1678 3084 1418 2786 
Q 1159 2488 1159 1978 
L 1159 0 
L 581 0 
L 581 3500 
L 1159 3500 
L 1159 2956 
Q 1356 3278 1631 3431 
Q 1906 3584 2284 3584 
Q 2666 3584 2933 3390 
Q 3200 3197 3328 2828 
z
" transform="scale(0.015625)"/>
        <path id="DejaVuSans-65" d="M 3597 1894 
L 3597 1613 
L 953 1613 
Q 991 1019 1311 708 
Q 1631 397 2203 397 
Q 2534 397 2845 478 
Q 3156 559 3463 722 
L 3463 178 
Q 3153 47 2828 -22 
Q 2503 -91 2169 -91 
Q 1331 -91 842 396 
Q 353 884 353 1716 
Q 353 2575 817 3079 
Q 1281 3584 2069 3584 
Q 2775 3584 3186 3129 
Q 3597 2675 3597 1894 
z
M 3022 2063 
Q 3016 2534 2758 2815 
Q 2500 3097 2075 3097 
Q 1594 3097 1305 2825 
Q 1016 2553 972 2059 
L 3022 2063 
z
" transform="scale(0.015625)"/>
       </defs>
       <use xlink:href="#DejaVuSans-54"/>
       <use xlink:href="#DejaVuSans-72" x="46.333984"/>
       <use xlink:href="#DejaVuSans-61" x="87.447266"/>
       <use xlink:href="#DejaVuSans-6e" x="148.726562"/>
       <use xlink:href="#DejaVuSans-73" x="212.105469"/>
       <use xlink:href="#DejaVuSans-66" x="264.205078"/>
       <use xlink:href="#DejaVuSans-6f" x="299.410156"/>
       <use xlink:href="#DejaVuSans-72" x="360.591797"/>
       <use xlink:href="#DejaVuSans-6d" x="399.955078"/>
       <use xlink:href="#DejaVuSans-65" x="497.367188"/>
       <use xlink:href="#DejaVuSans-72" x="558.890625"/>
      </g>
     </g>
    </g>
   </g>
   <g id="matplotlib.axis_2">
    <g id="ytick_1">
     <g id="line2d_6">
      <path d="M 235.611525 193.838024 
C 238.059196 193.838024 240.483067 194.320162 242.74442 195.256845 
C 245.005772 196.193528 247.06063 197.566541 248.791395 199.297305 
C 250.52216 201.02807 251.895172 203.082928 252.831855 205.344281 
C 253.768538 207.605634 254.250676 210.029504 254.250676 212.477175 
C 254.250676 214.924846 253.768538 217.348716 252.831855 219.610069 
C 251.895172 221.871422 250.52216 223.92628 248.791395 225.657045 
C 247.06063 227.387809 245.005772 228.760822 242.74442 229.697505 
C 240.483067 230.634188 238.059196 231.116326 235.611525 231.116326 
C 233.163855 231.116326 230.739984 230.634188 228.478631 229.697505 
C 226.217278 228.760822 224.16242 227.387809 222.431656 225.657045 
C 220.700891 223.92628 219.327879 221.871422 218.391196 219.610069 
C 217.454513 217.348716 216.972375 214.924846 216.972375 212.477175 
C 216.972375 210.029504 217.454513 207.605634 218.391196 205.344281 
C 219.327879 203.082928 220.700891 201.02807 222.431656 199.297305 
C 224.16242 197.566541 226.217278 196.193528 228.478631 195.256845 
C 230.739984 194.320162 233.163855 193.838024 235.611525 193.838024 
" clip-path="url(#p1dbb1cac24)" style="fill: none; stroke: #b0b0b0; stroke-width: 0.8; stroke-linecap: square"/>
     </g>
     <g id="text_6">
      <!-- 10 -->
      <g transform="translate(246.567343 195.318098)scale(0.1 -0.1)">
       <defs>
        <path id="DejaVuSans-31" d="M 794 531 
L 1825 531 
L 1825 4091 
L 703 3866 
L 703 4441 
L 1819 4666 
L 2450 4666 
L 2450 531 
L 3481 531 
L 3481 0 
L 794 0 
L 794 531 
z
" transform="scale(0.015625)"/>
        <path id="DejaVuSans-30" d="M 2034 4250 
Q 1547 4250 1301 3770 
Q 1056 3291 1056 2328 
Q 1056 1369 1301 889 
Q 1547 409 2034 409 
Q 2525 409 2770 889 
Q 3016 1369 3016 2328 
Q 3016 3291 2770 3770 
Q 2525 4250 2034 4250 
z
M 2034 4750 
Q 2819 4750 3233 4129 
Q 3647 3509 3647 2328 
Q 3647 1150 3233 529 
Q 2819 -91 2034 -91 
Q 1250 -91 836 529 
Q 422 1150 422 2328 
Q 422 3509 836 4129 
Q 1250 4750 2034 4750 
z
" transform="scale(0.015625)"/>
       </defs>
       <use xlink:href="#DejaVuSans-31"/>
       <use xlink:href="#DejaVuSans-30" x="63.623047"/>
      </g>
     </g>
    </g>
    <g id="ytick_2">
     <g id="line2d_7">
      <path d="M 235.611525 175.198874 
C 240.506867 175.198874 245.354608 176.16315 249.877314 178.036516 
C 254.40002 179.909882 258.509736 182.655906 261.971265 186.117436 
C 265.432794 189.578965 268.178819 193.688681 270.052185 198.211387 
C 271.925551 202.734093 272.889826 207.581833 272.889826 212.477175 
C 272.889826 217.372517 271.925551 222.220257 270.052185 226.742963 
C 268.178819 231.265669 265.432794 235.375385 261.971265 238.836914 
C 258.509736 242.298444 254.40002 245.044468 249.877314 246.917834 
C 245.354608 248.7912 240.506867 249.755476 235.611525 249.755476 
C 230.716184 249.755476 225.868443 248.7912 221.345737 246.917834 
C 216.823031 245.044468 212.713315 242.298444 209.251786 238.836914 
C 205.790257 235.375385 203.044232 231.265669 201.170866 226.742963 
C 199.2975 222.220257 198.333224 217.372517 198.333224 212.477175 
C 198.333224 207.581833 199.2975 202.734093 201.170866 198.211387 
C 203.044232 193.688681 205.790257 189.578965 209.251786 186.117436 
C 212.713315 182.655906 216.823031 179.909882 221.345737 178.036516 
C 225.868443 176.16315 230.716184 175.198874 235.611525 175.198874 
" clip-path="url(#p1dbb1cac24)" style="fill: none; stroke: #b0b0b0; stroke-width: 0.8; stroke-linecap: square"/>
     </g>
     <g id="text_7">
      <!-- 20 -->
      <g transform="translate(257.523161 180.238708)scale(0.1 -0.1)">
       <defs>
        <path id="DejaVuSans-32" d="M 1228 531 
L 3431 531 
L 3431 0 
L 469 0 
L 469 531 
Q 828 903 1448 1529 
Q 2069 2156 2228 2338 
Q 2531 2678 2651 2914 
Q 2772 3150 2772 3378 
Q 2772 3750 2511 3984 
Q 2250 4219 1831 4219 
Q 1534 4219 1204 4116 
Q 875 4013 500 3803 
L 500 4441 
Q 881 4594 1212 4672 
Q 1544 4750 1819 4750 
Q 2544 4750 2975 4387 
Q 3406 4025 3406 3419 
Q 3406 3131 3298 2873 
Q 3191 2616 2906 2266 
Q 2828 2175 2409 1742 
Q 1991 1309 1228 531 
z
" transform="scale(0.015625)"/>
       </defs>
       <use xlink:href="#DejaVuSans-32"/>
       <use xlink:href="#DejaVuSans-30" x="63.623047"/>
      </g>
     </g>
    </g>
    <g id="ytick_3">
     <g id="line2d_8">
      <path d="M 235.611525 156.559723 
C 242.954538 156.559723 250.226149 158.006137 257.010208 160.816186 
C 263.794267 163.626235 269.958841 167.745272 275.151135 172.937566 
C 280.343428 178.12986 284.462465 184.294434 287.272514 191.078493 
C 290.082564 197.862552 291.528977 205.134163 291.528977 212.477175 
C 291.528977 219.820187 290.082564 227.091798 287.272514 233.875857 
C 284.462465 240.659916 280.343428 246.82449 275.151135 252.016784 
C 269.958841 257.209078 263.794267 261.328115 257.010208 264.138164 
C 250.226149 266.948213 242.954538 268.394627 235.611525 268.394627 
C 228.268513 268.394627 220.996902 266.948213 214.212843 264.138164 
C 207.428784 261.328115 201.26421 257.209078 196.071916 252.016784 
C 190.879622 246.82449 186.760586 240.659916 183.950536 233.875857 
C 181.140487 227.091798 179.694074 219.820187 179.694074 212.477175 
C 179.694074 205.134163 181.140487 197.862552 183.950536 191.078493 
C 186.760586 184.294434 190.879622 178.12986 196.071916 172.937566 
C 201.26421 167.745272 207.428784 163.626235 214.212843 160.816186 
C 220.996902 158.006137 228.268513 156.559723 235.611525 156.559723 
" clip-path="url(#p1dbb1cac24)" style="fill: none; stroke: #b0b0b0; stroke-width: 0.8; stroke-linecap: square"/>
     </g>
     <g id="text_8">
      <!-- 30 -->
      <g transform="translate(268.478979 165.159319)scale(0.1 -0.1)">
       <defs>
        <path id="DejaVuSans-33" d="M 2597 2516 
Q 3050 2419 3304 2112 
Q 3559 1806 3559 1356 
Q 3559 666 3084 287 
Q 2609 -91 1734 -91 
Q 1441 -91 1130 -33 
Q 819 25 488 141 
L 488 750 
Q 750 597 1062 519 
Q 1375 441 1716 441 
Q 2309 441 2620 675 
Q 2931 909 2931 1356 
Q 2931 1769 2642 2001 
Q 2353 2234 1838 2234 
L 1294 2234 
L 1294 2753 
L 1863 2753 
Q 2328 2753 2575 2939 
Q 2822 3125 2822 3475 
Q 2822 3834 2567 4026 
Q 2313 4219 1838 4219 
Q 1578 4219 1281 4162 
Q 984 4106 628 3988 
L 628 4550 
Q 988 4650 1302 4700 
Q 1616 4750 1894 4750 
Q 2613 4750 3031 4423 
Q 3450 4097 3450 3541 
Q 3450 3153 3228 2886 
Q 3006 2619 2597 2516 
z
" transform="scale(0.015625)"/>
       </defs>
       <use xlink:href="#DejaVuSans-33"/>
       <use xlink:href="#DejaVuSans-30" x="63.623047"/>
      </g>
     </g>
    </g>
    <g id="ytick_4">
     <g id="line2d_9">
      <path d="M 235.611525 137.920573 
C 245.402209 137.920573 255.09769 139.849124 264.143102 143.595856 
C 273.188514 147.342589 281.407946 152.834638 288.331004 159.757696 
C 295.254063 166.680755 300.746112 174.900187 304.492844 183.945599 
C 308.239576 192.991011 310.168127 202.686492 310.168127 212.477175 
C 310.168127 222.267858 308.239576 231.963339 304.492844 241.008751 
C 300.746112 250.054163 295.254063 258.273595 288.331004 265.196654 
C 281.407946 272.119712 273.188514 277.611761 264.143102 281.358494 
C 255.09769 285.105226 245.402209 287.033777 235.611525 287.033777 
C 225.820842 287.033777 216.125361 285.105226 207.079949 281.358494 
C 198.034537 277.611761 189.815105 272.119712 182.892047 265.196654 
C 175.968988 258.273595 170.476939 250.054163 166.730207 241.008751 
C 162.983474 231.963339 161.054923 222.267858 161.054923 212.477175 
C 161.054923 202.686492 162.983474 192.991011 166.730207 183.945599 
C 170.476939 174.900187 175.968988 166.680755 182.892047 159.757696 
C 189.815105 152.834638 198.034537 147.342589 207.079949 143.595856 
C 216.125361 139.849124 225.820842 137.920573 235.611525 137.920573 
" clip-path="url(#p1dbb1cac24)" style="fill: none; stroke: #b0b0b0; stroke-width: 0.8; stroke-linecap: square"/>
     </g>
     <g id="text_9">
      <!-- 40 -->
      <g transform="translate(279.434797 150.079929)scale(0.1 -0.1)">
       <defs>
        <path id="DejaVuSans-34" d="M 2419 4116 
L 825 1625 
L 2419 1625 
L 2419 4116 
z
M 2253 4666 
L 3047 4666 
L 3047 1625 
L 3713 1625 
L 3713 1100 
L 3047 1100 
L 3047 0 
L 2419 0 
L 2419 1100 
L 313 1100 
L 313 1709 
L 2253 4666 
z
" transform="scale(0.015625)"/>
       </defs>
       <use xlink:href="#DejaVuSans-34"/>
       <use xlink:href="#DejaVuSans-30" x="63.623047"/>
      </g>
     </g>
    </g>
    <g id="ytick_5">
     <g id="line2d_10">
      <path d="M 235.611525 119.281422 
C 247.84988 119.281422 259.969231 121.692111 271.275996 126.375527 
C 282.582761 131.058942 292.857051 137.924003 301.510874 146.577826 
C 310.164697 155.23165 317.029758 165.50594 321.713174 176.812705 
C 326.396589 188.119469 328.807278 200.238821 328.807278 212.477175 
C 328.807278 224.715529 326.396589 236.834881 321.713174 248.141645 
C 317.029758 259.44841 310.164697 269.7227 301.510874 278.376524 
C 292.857051 287.030347 282.582761 293.895408 271.275996 298.578823 
C 259.969231 303.262239 247.84988 305.672928 235.611525 305.672928 
C 223.373171 305.672928 211.25382 303.262239 199.947055 298.578823 
C 188.64029 293.895408 178.366 287.030347 169.712177 278.376524 
C 161.058354 269.7227 154.193292 259.44841 149.509877 248.141645 
C 144.826462 236.834881 142.415773 224.715529 142.415773 212.477175 
C 142.415773 200.238821 144.826462 188.119469 149.509877 176.812705 
C 154.193292 165.50594 161.058354 155.23165 169.712177 146.577826 
C 178.366 137.924003 188.64029 131.058942 199.947055 126.375527 
C 211.25382 121.692111 223.373171 119.281422 235.611525 119.281422 
" clip-path="url(#p1dbb1cac24)" style="fill: none; stroke: #b0b0b0; stroke-width: 0.8; stroke-linecap: square"/>
     </g>
     <g id="text_10">
      <!-- 50 -->
      <g transform="translate(290.390614 135.00054)scale(0.1 -0.1)">
       <defs>
        <path id="DejaVuSans-35" d="M 691 4666 
L 3169 4666 
L 3169 4134 
L 1269 4134 
L 1269 2991 
Q 1406 3038 1543 3061 
Q 1681 3084 1819 3084 
Q 2600 3084 3056 2656 
Q 3513 2228 3513 1497 
Q 3513 744 3044 326 
Q 2575 -91 1722 -91 
Q 1428 -91 1123 -41 
Q 819 9 494 109 
L 494 744 
Q 775 591 1075 516 
Q 1375 441 1709 441 
Q 2250 441 2565 725 
Q 2881 1009 2881 1497 
Q 2881 1984 2565 2268 
Q 2250 2553 1709 2553 
Q 1456 2553 1204 2497 
Q 953 2441 691 2322 
L 691 4666 
z
" transform="scale(0.015625)"/>
       </defs>
       <use xlink:href="#DejaVuSans-35"/>
       <use xlink:href="#DejaVuSans-30" x="63.623047"/>
      </g>
     </g>
    </g>
    <g id="ytick_6">
     <g id="line2d_11">
      <path d="M 235.611525 100.642272 
C 250.29755 100.642272 264.840772 103.535099 278.40889 109.155197 
C 291.977008 114.775295 304.306156 123.013369 314.690744 133.397957 
C 325.075332 143.782544 333.313405 156.111693 338.933503 169.67981 
C 344.553602 183.247928 347.446428 197.79115 347.446428 212.477175 
C 347.446428 227.1632 344.553602 241.706422 338.933503 255.27454 
C 333.313405 268.842657 325.075332 281.171806 314.690744 291.556393 
C 304.306156 301.940981 291.977008 310.179055 278.40889 315.799153 
C 264.840772 321.419251 250.29755 324.312078 235.611525 324.312078 
C 220.9255 324.312078 206.382279 321.419251 192.814161 315.799153 
C 179.246043 310.179055 166.916895 301.940981 156.532307 291.556393 
C 146.147719 281.171806 137.909646 268.842657 132.289547 255.27454 
C 126.669449 241.706422 123.776622 227.1632 123.776622 212.477175 
C 123.776622 197.79115 126.669449 183.247928 132.289547 169.67981 
C 137.909646 156.111693 146.147719 143.782544 156.532307 133.397957 
C 166.916895 123.013369 179.246043 114.775295 192.814161 109.155197 
C 206.382279 103.535099 220.9255 100.642272 235.611525 100.642272 
" clip-path="url(#p1dbb1cac24)" style="fill: none; stroke: #b0b0b0; stroke-width: 0.8; stroke-linecap: square"/>
     </g>
     <g id="text_11">
      <!-- 60 -->
      <g transform="translate(301.346432 119.92115)scale(0.1 -0.1)">
       <defs>
        <path id="DejaVuSans-36" d="M 2113 2584 
Q 1688 2584 1439 2293 
Q 1191 2003 1191 1497 
Q 1191 994 1439 701 
Q 1688 409 2113 409 
Q 2538 409 2786 701 
Q 3034 994 3034 1497 
Q 3034 2003 2786 2293 
Q 2538 2584 2113 2584 
z
M 3366 4563 
L 3366 3988 
Q 3128 4100 2886 4159 
Q 2644 4219 2406 4219 
Q 1781 4219 1451 3797 
Q 1122 3375 1075 2522 
Q 1259 2794 1537 2939 
Q 1816 3084 2150 3084 
Q 2853 3084 3261 2657 
Q 3669 2231 3669 1497 
Q 3669 778 3244 343 
Q 2819 -91 2113 -91 
Q 1303 -91 875 529 
Q 447 1150 447 2328 
Q 447 3434 972 4092 
Q 1497 4750 2381 4750 
Q 2619 4750 2861 4703 
Q 3103 4656 3366 4563 
z
" transform="scale(0.015625)"/>
       </defs>
       <use xlink:href="#DejaVuSans-36"/>
       <use xlink:href="#DejaVuSans-30" x="63.623047"/>
      </g>
     </g>
    </g>
    <g id="ytick_7">
     <g id="line2d_12">
      <path d="M 235.611525 82.003121 
C 252.745221 82.003121 269.712313 85.378086 285.541784 91.934867 
C 301.371255 98.491649 315.755261 108.102734 327.870613 120.218087 
C 339.985966 132.333439 349.597052 146.717446 356.153833 162.546916 
C 362.710615 178.376387 366.085579 195.343479 366.085579 212.477175 
C 366.085579 229.610871 362.710615 246.577963 356.153833 262.407434 
C 349.597052 278.236904 339.985966 292.620911 327.870613 304.736263 
C 315.755261 316.851616 301.371255 326.462701 285.541784 333.019483 
C 269.712313 339.576264 252.745221 342.951229 235.611525 342.951229 
C 218.47783 342.951229 201.510738 339.576264 185.681267 333.019483 
C 169.851796 326.462701 155.46779 316.851616 143.352437 304.736263 
C 131.237085 292.620911 121.625999 278.236904 115.069218 262.407434 
C 108.512436 246.577963 105.137472 229.610871 105.137472 212.477175 
C 105.137472 195.343479 108.512436 178.376387 115.069218 162.546916 
C 121.625999 146.717446 131.237085 132.333439 143.352437 120.218087 
C 155.46779 108.102734 169.851796 98.491649 185.681267 91.934867 
C 201.510738 85.378086 218.47783 82.003121 235.611525 82.003121 
" clip-path="url(#p1dbb1cac24)" style="fill: none; stroke: #b0b0b0; stroke-width: 0.8; stroke-linecap: square"/>
     </g>
     <g id="text_12">
      <!-- 70 -->
      <g transform="translate(312.30225 104.841761)scale(0.1 -0.1)">
       <defs>
        <path id="DejaVuSans-37" d="M 525 4666 
L 3525 4666 
L 3525 4397 
L 1831 0 
L 1172 0 
L 2766 4134 
L 525 4134 
L 525 4666 
z
" transform="scale(0.015625)"/>
       </defs>
       <use xlink:href="#DejaVuSans-37"/>
       <use xlink:href="#DejaVuSans-30" x="63.623047"/>
      </g>
     </g>
    </g>
    <g id="ytick_8">
     <g id="line2d_13">
      <path d="M 235.611525 63.363971 
C 255.192892 63.363971 274.583854 67.221073 292.674678 74.714538 
C 310.765502 82.208002 327.204366 93.1921 341.050483 107.038217 
C 354.8966 120.884334 365.880698 137.323198 373.374163 155.414022 
C 380.867627 173.504846 384.72473 192.895808 384.72473 212.477175 
C 384.72473 232.058542 380.867627 251.449504 373.374163 269.540328 
C 365.880698 287.631152 354.8966 304.070016 341.050483 317.916133 
C 327.204366 331.76225 310.765502 342.746348 292.674678 350.239812 
C 274.583854 357.733277 255.192892 361.590379 235.611525 361.590379 
C 216.030159 361.590379 196.639196 357.733277 178.548373 350.239812 
C 160.457549 342.746348 144.018685 331.76225 130.172568 317.916133 
C 116.326451 304.070016 105.342353 287.631152 97.848888 269.540328 
C 90.355424 251.449504 86.498321 232.058542 86.498321 212.477175 
C 86.498321 192.895808 90.355424 173.504846 97.848888 155.414022 
C 105.342353 137.323198 116.326451 120.884334 130.172568 107.038217 
C 144.018685 93.1921 160.457549 82.208002 178.548373 74.714538 
C 196.639196 67.221073 216.030159 63.363971 235.611525 63.363971 
" clip-path="url(#p1dbb1cac24)" style="fill: none; stroke: #b0b0b0; stroke-width: 0.8; stroke-linecap: square"/>
     </g>
     <g id="text_13">
      <!-- 80 -->
      <g transform="translate(323.258068 89.762371)scale(0.1 -0.1)">
       <defs>
        <path id="DejaVuSans-38" d="M 2034 2216 
Q 1584 2216 1326 1975 
Q 1069 1734 1069 1313 
Q 1069 891 1326 650 
Q 1584 409 2034 409 
Q 2484 409 2743 651 
Q 3003 894 3003 1313 
Q 3003 1734 2745 1975 
Q 2488 2216 2034 2216 
z
M 1403 2484 
Q 997 2584 770 2862 
Q 544 3141 544 3541 
Q 544 4100 942 4425 
Q 1341 4750 2034 4750 
Q 2731 4750 3128 4425 
Q 3525 4100 3525 3541 
Q 3525 3141 3298 2862 
Q 3072 2584 2669 2484 
Q 3125 2378 3379 2068 
Q 3634 1759 3634 1313 
Q 3634 634 3220 271 
Q 2806 -91 2034 -91 
Q 1263 -91 848 271 
Q 434 634 434 1313 
Q 434 1759 690 2068 
Q 947 2378 1403 2484 
z
M 1172 3481 
Q 1172 3119 1398 2916 
Q 1625 2713 2034 2713 
Q 2441 2713 2670 2916 
Q 2900 3119 2900 3481 
Q 2900 3844 2670 4047 
Q 2441 4250 2034 4250 
Q 1625 4250 1398 4047 
Q 1172 3844 1172 3481 
z
" transform="scale(0.015625)"/>
       </defs>
       <use xlink:href="#DejaVuSans-38"/>
       <use xlink:href="#DejaVuSans-30" x="63.623047"/>
      </g>
     </g>
    </g>
   </g>
   <g id="line2d_14">
    <path d="M 235.611525 182.411799 
L 272.340516 200.543202 
L 253.712927 237.391617 
L 191.956339 272.563384 
L 86.537249 164.040006 
" clip-path="url(#p1dbb1cac24)" style="fill: none; stroke: #00ff3e; stroke-linecap: square"/>
   </g>
   <g id="patch_4">
    <path d="M 235.611525 49.397175 
C 214.196056 49.397175 192.988825 53.615556 173.203511 61.810901 
C 153.418197 70.006246 135.439575 82.019178 120.296552 97.162201 
C 105.153528 112.305225 93.140597 130.283847 84.945251 150.069161 
C 76.749906 169.854475 72.531525 191.061706 72.531525 212.477175 
C 72.531525 233.892644 76.749906 255.099875 84.945251 274.885189 
C 93.140597 294.670503 105.153528 312.649125 120.296552 327.792149 
C 135.439575 342.935172 153.418197 354.948104 173.203511 363.143449 
C 192.988825 371.338794 214.196056 375.557175 235.611525 375.557175 
C 257.026995 375.557175 278.234226 371.338794 298.01954 363.143449 
C 317.804853 354.948104 335.783476 342.935172 350.926499 327.792149 
C 366.069523 312.649125 378.082454 294.670503 386.2778 274.885189 
C 394.473145 255.099875 398.691525 233.892644 398.691525 212.477175 
C 398.691525 191.061706 394.473145 169.854475 386.2778 150.069161 
C 378.082454 130.283847 366.069523 112.305225 350.926499 97.162201 
C 335.783476 82.019178 317.804853 70.006246 298.01954 61.810901 
C 278.234226 53.615556 257.026995 49.397175 235.611525 49.397175 
" style="fill: none; stroke: #000000; stroke-width: 0.8; stroke-linejoin: miter; stroke-linecap: square"/>
   </g>
   <g id="text_14">
    <!-- MSE Metrics  [x $10^{-2}$]  -->
    <g transform="translate(169.191525 17.304375)scale(0.12 -0.12)">
     <defs>
      <path id="DejaVuSans-45" d="M 628 4666 
L 3578 4666 
L 3578 4134 
L 1259 4134 
L 1259 2753 
L 3481 2753 
L 3481 2222 
L 1259 2222 
L 1259 531 
L 3634 531 
L 3634 0 
L 628 0 
L 628 4666 
z
" transform="scale(0.015625)"/>
      <path id="DejaVuSans-20" transform="scale(0.015625)"/>
      <path id="DejaVuSans-74" d="M 1172 4494 
L 1172 3500 
L 2356 3500 
L 2356 3053 
L 1172 3053 
L 1172 1153 
Q 1172 725 1289 603 
Q 1406 481 1766 481 
L 2356 481 
L 2356 0 
L 1766 0 
Q 1100 0 847 248 
Q 594 497 594 1153 
L 594 3053 
L 172 3053 
L 172 3500 
L 594 3500 
L 594 4494 
L 1172 4494 
z
" transform="scale(0.015625)"/>
      <path id="DejaVuSans-69" d="M 603 3500 
L 1178 3500 
L 1178 0 
L 603 0 
L 603 3500 
z
M 603 4863 
L 1178 4863 
L 1178 4134 
L 603 4134 
L 603 4863 
z
" transform="scale(0.015625)"/>
      <path id="DejaVuSans-63" d="M 3122 3366 
L 3122 2828 
Q 2878 2963 2633 3030 
Q 2388 3097 2138 3097 
Q 1578 3097 1268 2742 
Q 959 2388 959 1747 
Q 959 1106 1268 751 
Q 1578 397 2138 397 
Q 2388 397 2633 464 
Q 2878 531 3122 666 
L 3122 134 
Q 2881 22 2623 -34 
Q 2366 -91 2075 -91 
Q 1284 -91 818 406 
Q 353 903 353 1747 
Q 353 2603 823 3093 
Q 1294 3584 2113 3584 
Q 2378 3584 2631 3529 
Q 2884 3475 3122 3366 
z
" transform="scale(0.015625)"/>
      <path id="DejaVuSans-5b" d="M 550 4863 
L 1875 4863 
L 1875 4416 
L 1125 4416 
L 1125 -397 
L 1875 -397 
L 1875 -844 
L 550 -844 
L 550 4863 
z
" transform="scale(0.015625)"/>
      <path id="DejaVuSans-78" d="M 3513 3500 
L 2247 1797 
L 3578 0 
L 2900 0 
L 1881 1375 
L 863 0 
L 184 0 
L 1544 1831 
L 300 3500 
L 978 3500 
L 1906 2253 
L 2834 3500 
L 3513 3500 
z
" transform="scale(0.015625)"/>
      <path id="DejaVuSans-2212" d="M 678 2272 
L 4684 2272 
L 4684 1741 
L 678 1741 
L 678 2272 
z
" transform="scale(0.015625)"/>
      <path id="DejaVuSans-5d" d="M 1947 4863 
L 1947 -844 
L 622 -844 
L 622 -397 
L 1369 -397 
L 1369 4416 
L 622 4416 
L 622 4863 
L 1947 4863 
z
" transform="scale(0.015625)"/>
     </defs>
     <use xlink:href="#DejaVuSans-4d" transform="translate(0 0.765625)"/>
     <use xlink:href="#DejaVuSans-53" transform="translate(86.279297 0.765625)"/>
     <use xlink:href="#DejaVuSans-45" transform="translate(149.755859 0.765625)"/>
     <use xlink:href="#DejaVuSans-20" transform="translate(212.939453 0.765625)"/>
     <use xlink:href="#DejaVuSans-4d" transform="translate(244.726562 0.765625)"/>
     <use xlink:href="#DejaVuSans-65" transform="translate(331.005859 0.765625)"/>
     <use xlink:href="#DejaVuSans-74" transform="translate(392.529297 0.765625)"/>
     <use xlink:href="#DejaVuSans-72" transform="translate(431.738281 0.765625)"/>
     <use xlink:href="#DejaVuSans-69" transform="translate(472.851562 0.765625)"/>
     <use xlink:href="#DejaVuSans-63" transform="translate(500.634766 0.765625)"/>
     <use xlink:href="#DejaVuSans-73" transform="translate(555.615234 0.765625)"/>
     <use xlink:href="#DejaVuSans-20" transform="translate(607.714844 0.765625)"/>
     <use xlink:href="#DejaVuSans-20" transform="translate(639.501953 0.765625)"/>
     <use xlink:href="#DejaVuSans-5b" transform="translate(671.289062 0.765625)"/>
     <use xlink:href="#DejaVuSans-78" transform="translate(710.302734 0.765625)"/>
     <use xlink:href="#DejaVuSans-20" transform="translate(769.482422 0.765625)"/>
     <use xlink:href="#DejaVuSans-31" transform="translate(801.269531 0.765625)"/>
     <use xlink:href="#DejaVuSans-30" transform="translate(864.892578 0.765625)"/>
     <use xlink:href="#DejaVuSans-2212" transform="translate(929.472656 39.046875)scale(0.7)"/>
     <use xlink:href="#DejaVuSans-32" transform="translate(988.125 39.046875)scale(0.7)"/>
     <use xlink:href="#DejaVuSans-5d" transform="translate(1035.395508 0.765625)"/>
     <use xlink:href="#DejaVuSans-20" transform="translate(1074.40918 0.765625)"/>
    </g>
   </g>
  </g>
 </g>
 <defs>
  <clipPath id="p1dbb1cac24">
   <path d="M 398.691525 212.477175 
C 398.691525 191.061706 394.473145 169.854475 386.2778 150.069161 
C 378.082454 130.283847 366.069523 112.305225 350.926499 97.162201 
C 335.783476 82.019178 317.804853 70.006246 298.01954 61.810901 
C 278.234226 53.615556 257.026995 49.397175 235.611525 49.397175 
C 214.196056 49.397175 192.988825 53.615556 173.203511 61.810901 
C 153.418197 70.006246 135.439575 82.019178 120.296552 97.162201 
C 105.153528 112.305225 93.140597 130.283847 84.945251 150.069161 
C 76.749906 169.854475 72.531525 191.061706 72.531525 212.477175 
C 72.531525 233.892644 76.749906 255.099875 84.945251 274.885189 
C 93.140597 294.670503 105.153528 312.649125 120.296552 327.792149 
C 135.439575 342.935172 153.418197 354.948104 173.203511 363.143449 
C 192.988825 371.338794 214.196056 375.557175 235.611525 375.557175 
C 257.026995 375.557175 278.234226 371.338794 298.01954 363.143449 
C 317.804853 354.948104 335.783476 342.935172 350.926499 327.792149 
C 366.069523 312.649125 378.082454 294.670503 386.2778 274.885189 
C 394.473145 255.099875 398.691525 233.892644 398.691525 212.477175 
M 235.611525 212.477175 
C 235.611525 212.477175 235.611525 212.477175 235.611525 212.477175 
C 235.611525 212.477175 235.611525 212.477175 235.611525 212.477175 
C 235.611525 212.477175 235.611525 212.477175 235.611525 212.477175 
C 235.611525 212.477175 235.611525 212.477175 235.611525 212.477175 
C 235.611525 212.477175 235.611525 212.477175 235.611525 212.477175 
C 235.611525 212.477175 235.611525 212.477175 235.611525 212.477175 
C 235.611525 212.477175 235.611525 212.477175 235.611525 212.477175 
C 235.611525 212.477175 235.611525 212.477175 235.611525 212.477175 
C 235.611525 212.477175 235.611525 212.477175 235.611525 212.477175 
C 235.611525 212.477175 235.611525 212.477175 235.611525 212.477175 
C 235.611525 212.477175 235.611525 212.477175 235.611525 212.477175 
C 235.611525 212.477175 235.611525 212.477175 235.611525 212.477175 
C 235.611525 212.477175 235.611525 212.477175 235.611525 212.477175 
C 235.611525 212.477175 235.611525 212.477175 235.611525 212.477175 
C 235.611525 212.477175 235.611525 212.477175 235.611525 212.477175 
C 235.611525 212.477175 235.611525 212.477175 235.611525 212.477175 
M 398.691525 212.477175 
z
"/>
  </clipPath>
 </defs>
</svg>
