<?xml version="1.0" encoding="utf-8" standalone="no"?>
<!DOCTYPE svg PUBLIC "-//W3C//DTD SVG 1.1//EN"
  "http://www.w3.org/Graphics/SVG/1.1/DTD/svg11.dtd">
<svg xmlns:xlink="http://www.w3.org/1999/xlink" width="407.766245pt" height="401.596237pt" viewBox="0 0 407.766245 401.596237" xmlns="http://www.w3.org/2000/svg" version="1.1">
 <metadata>
  <rdf:RDF xmlns:dc="http://purl.org/dc/elements/1.1/" xmlns:cc="http://creativecommons.org/ns#" xmlns:rdf="http://www.w3.org/1999/02/22-rdf-syntax-ns#">
   <cc:Work>
    <dc:type rdf:resource="http://purl.org/dc/dcmitype/StillImage"/>
    <dc:date>2022-07-28T11:20:10.259161</dc:date>
    <dc:format>image/svg+xml</dc:format>
    <dc:creator>
     <cc:Agent>
      <dc:title>Matplotlib v3.5.2, https://matplotlib.org/</dc:title>
     </cc:Agent>
    </dc:creator>
   </cc:Work>
  </rdf:RDF>
 </metadata>
 <defs>
  <style type="text/css">*{stroke-linejoin: round; stroke-linecap: butt}</style>
 </defs>
 <g id="figure_1">
  <g id="patch_1">
   <path d="M -0 401.596237 
L 407.766245 401.596237 
L 407.766245 0 
L -0 0 
L -0 401.596237 
z
" style="fill: none"/>
  </g>
  <g id="axes_1">
   <g id="patch_2">
    <path d="M 383.634216 212.477175 
C 383.634216 191.061706 379.415835 169.854475 371.22049 150.069161 
C 363.025145 130.283847 351.012214 112.305225 335.86919 97.162201 
C 320.726166 82.019178 302.747544 70.006246 282.96223 61.810901 
C 263.176916 53.615556 241.969685 49.397175 220.554216 49.397175 
C 199.138747 49.397175 177.931516 53.615556 158.146202 61.810901 
C 138.360888 70.006246 120.382266 82.019178 105.239242 97.162201 
C 90.096219 112.305225 78.083287 130.283847 69.887942 150.069161 
C 61.692597 169.854475 57.474216 191.061706 57.474216 212.477175 
C 57.474216 233.892644 61.692597 255.099875 69.887942 274.885189 
C 78.083287 294.670503 90.096219 312.649125 105.239242 327.792149 
C 120.382266 342.935172 138.360888 354.948104 158.146202 363.143449 
C 177.931516 371.338794 199.138747 375.557175 220.554216 375.557175 
C 241.969685 375.557175 263.176916 371.338794 282.96223 363.143449 
C 302.747544 354.948104 320.726166 342.935172 335.86919 327.792149 
C 351.012214 312.649125 363.025145 294.670503 371.22049 274.885189 
C 379.415835 255.099875 383.634216 233.892644 383.634216 212.477175 
M 220.554216 212.477175 
C 220.554216 212.477175 220.554216 212.477175 220.554216 212.477175 
C 220.554216 212.477175 220.554216 212.477175 220.554216 212.477175 
C 220.554216 212.477175 220.554216 212.477175 220.554216 212.477175 
C 220.554216 212.477175 220.554216 212.477175 220.554216 212.477175 
C 220.554216 212.477175 220.554216 212.477175 220.554216 212.477175 
C 220.554216 212.477175 220.554216 212.477175 220.554216 212.477175 
C 220.554216 212.477175 220.554216 212.477175 220.554216 212.477175 
C 220.554216 212.477175 220.554216 212.477175 220.554216 212.477175 
C 220.554216 212.477175 220.554216 212.477175 220.554216 212.477175 
C 220.554216 212.477175 220.554216 212.477175 220.554216 212.477175 
C 220.554216 212.477175 220.554216 212.477175 220.554216 212.477175 
C 220.554216 212.477175 220.554216 212.477175 220.554216 212.477175 
C 220.554216 212.477175 220.554216 212.477175 220.554216 212.477175 
C 220.554216 212.477175 220.554216 212.477175 220.554216 212.477175 
C 220.554216 212.477175 220.554216 212.477175 220.554216 212.477175 
C 220.554216 212.477175 220.554216 212.477175 220.554216 212.477175 
M 383.634216 212.477175 
z
" style="fill: #ffffff"/>
   </g>
   <g id="patch_3">
    <path d="M 220.554216 188.270765 
L 252.941745 193.778226 
L 243.976426 225.999994 
L 220.554216 259.270429 
L 85.049843 290.710661 
L 140.355241 166.174275 
z
" clip-path="url(#pf73de597ab)" style="fill: #00ff3e; opacity: 0.25; stroke: #00ff3e; stroke-linejoin: miter"/>
   </g>
   <g id="matplotlib.axis_1">
    <g id="xtick_1">
     <g id="line2d_1">
      <path d="M 220.554216 212.477175 
L 220.554216 49.397175 
" clip-path="url(#pf73de597ab)" style="fill: none; stroke: #b0b0b0; stroke-width: 0.8; stroke-linecap: square"/>
     </g>
     <g id="text_1">
      <!-- RNN -->
      <g transform="translate(209.598747 38.15655)scale(0.1 -0.1)">
       <defs>
        <path id="DejaVuSans-52" d="M 2841 2188 
Q 3044 2119 3236 1894 
Q 3428 1669 3622 1275 
L 4263 0 
L 3584 0 
L 2988 1197 
Q 2756 1666 2539 1819 
Q 2322 1972 1947 1972 
L 1259 1972 
L 1259 0 
L 628 0 
L 628 4666 
L 2053 4666 
Q 2853 4666 3247 4331 
Q 3641 3997 3641 3322 
Q 3641 2881 3436 2590 
Q 3231 2300 2841 2188 
z
M 1259 4147 
L 1259 2491 
L 2053 2491 
Q 2509 2491 2742 2702 
Q 2975 2913 2975 3322 
Q 2975 3731 2742 3939 
Q 2509 4147 2053 4147 
L 1259 4147 
z
" transform="scale(0.015625)"/>
        <path id="DejaVuSans-4e" d="M 628 4666 
L 1478 4666 
L 3547 763 
L 3547 4666 
L 4159 4666 
L 4159 0 
L 3309 0 
L 1241 3903 
L 1241 0 
L 628 0 
L 628 4666 
z
" transform="scale(0.015625)"/>
       </defs>
       <use xlink:href="#DejaVuSans-52"/>
       <use xlink:href="#DejaVuSans-4e" x="69.482422"/>
       <use xlink:href="#DejaVuSans-4e" x="144.287109"/>
      </g>
     </g>
    </g>
    <g id="xtick_2">
     <g id="line2d_2">
      <path d="M 220.554216 212.477175 
L 361.785639 130.937175 
" clip-path="url(#pf73de597ab)" style="fill: none; stroke: #b0b0b0; stroke-width: 0.8; stroke-linecap: square"/>
     </g>
     <g id="text_2">
      <!-- LSTM -->
      <g transform="translate(373.909995 126.69655)scale(0.1 -0.1)">
       <defs>
        <path id="DejaVuSans-4c" d="M 628 4666 
L 1259 4666 
L 1259 531 
L 3531 531 
L 3531 0 
L 628 0 
L 628 4666 
z
" transform="scale(0.015625)"/>
        <path id="DejaVuSans-53" d="M 3425 4513 
L 3425 3897 
Q 3066 4069 2747 4153 
Q 2428 4238 2131 4238 
Q 1616 4238 1336 4038 
Q 1056 3838 1056 3469 
Q 1056 3159 1242 3001 
Q 1428 2844 1947 2747 
L 2328 2669 
Q 3034 2534 3370 2195 
Q 3706 1856 3706 1288 
Q 3706 609 3251 259 
Q 2797 -91 1919 -91 
Q 1588 -91 1214 -16 
Q 841 59 441 206 
L 441 856 
Q 825 641 1194 531 
Q 1563 422 1919 422 
Q 2459 422 2753 634 
Q 3047 847 3047 1241 
Q 3047 1584 2836 1778 
Q 2625 1972 2144 2069 
L 1759 2144 
Q 1053 2284 737 2584 
Q 422 2884 422 3419 
Q 422 4038 858 4394 
Q 1294 4750 2059 4750 
Q 2388 4750 2728 4690 
Q 3069 4631 3425 4513 
z
" transform="scale(0.015625)"/>
        <path id="DejaVuSans-54" d="M -19 4666 
L 3928 4666 
L 3928 4134 
L 2272 4134 
L 2272 0 
L 1638 0 
L 1638 4134 
L -19 4134 
L -19 4666 
z
" transform="scale(0.015625)"/>
        <path id="DejaVuSans-4d" d="M 628 4666 
L 1569 4666 
L 2759 1491 
L 3956 4666 
L 4897 4666 
L 4897 0 
L 4281 0 
L 4281 4097 
L 3078 897 
L 2444 897 
L 1241 4097 
L 1241 0 
L 628 0 
L 628 4666 
z
" transform="scale(0.015625)"/>
       </defs>
       <use xlink:href="#DejaVuSans-4c"/>
       <use xlink:href="#DejaVuSans-53" x="55.712891"/>
       <use xlink:href="#DejaVuSans-54" x="119.189453"/>
       <use xlink:href="#DejaVuSans-4d" x="180.273438"/>
      </g>
     </g>
    </g>
    <g id="xtick_3">
     <g id="line2d_3">
      <path d="M 220.554216 212.477175 
L 361.785639 294.017175 
" clip-path="url(#pf73de597ab)" style="fill: none; stroke: #b0b0b0; stroke-width: 0.8; stroke-linecap: square"/>
     </g>
     <g id="text_3">
      <!-- GRU -->
      <g transform="translate(373.909995 303.77655)scale(0.1 -0.1)">
       <defs>
        <path id="DejaVuSans-47" d="M 3809 666 
L 3809 1919 
L 2778 1919 
L 2778 2438 
L 4434 2438 
L 4434 434 
Q 4069 175 3628 42 
Q 3188 -91 2688 -91 
Q 1594 -91 976 548 
Q 359 1188 359 2328 
Q 359 3472 976 4111 
Q 1594 4750 2688 4750 
Q 3144 4750 3555 4637 
Q 3966 4525 4313 4306 
L 4313 3634 
Q 3963 3931 3569 4081 
Q 3175 4231 2741 4231 
Q 1884 4231 1454 3753 
Q 1025 3275 1025 2328 
Q 1025 1384 1454 906 
Q 1884 428 2741 428 
Q 3075 428 3337 486 
Q 3600 544 3809 666 
z
" transform="scale(0.015625)"/>
        <path id="DejaVuSans-55" d="M 556 4666 
L 1191 4666 
L 1191 1831 
Q 1191 1081 1462 751 
Q 1734 422 2344 422 
Q 2950 422 3222 751 
Q 3494 1081 3494 1831 
L 3494 4666 
L 4128 4666 
L 4128 1753 
Q 4128 841 3676 375 
Q 3225 -91 2344 -91 
Q 1459 -91 1007 375 
Q 556 841 556 1753 
L 556 4666 
z
" transform="scale(0.015625)"/>
       </defs>
       <use xlink:href="#DejaVuSans-47"/>
       <use xlink:href="#DejaVuSans-52" x="77.490234"/>
       <use xlink:href="#DejaVuSans-55" x="146.972656"/>
      </g>
     </g>
    </g>
    <g id="xtick_4">
     <g id="line2d_4">
      <path d="M 220.554216 212.477175 
L 220.554216 375.557175 
" clip-path="url(#pf73de597ab)" style="fill: none; stroke: #b0b0b0; stroke-width: 0.8; stroke-linecap: square"/>
     </g>
     <g id="text_4">
      <!-- TST -->
      <g transform="translate(211.272185 392.31655)scale(0.1 -0.1)">
       <use xlink:href="#DejaVuSans-54"/>
       <use xlink:href="#DejaVuSans-53" x="61.083984"/>
       <use xlink:href="#DejaVuSans-54" x="124.560547"/>
      </g>
     </g>
    </g>
    <g id="xtick_5">
     <g id="line2d_5">
      <path d="M 220.554216 212.477175 
L 79.322793 294.017175 
" clip-path="url(#pf73de597ab)" style="fill: none; stroke: #b0b0b0; stroke-width: 0.8; stroke-linecap: square"/>
     </g>
     <g id="text_5">
      <!-- Transformer -->
      <g transform="translate(7.2 303.77655)scale(0.1 -0.1)">
       <defs>
        <path id="DejaVuSans-72" d="M 2631 2963 
Q 2534 3019 2420 3045 
Q 2306 3072 2169 3072 
Q 1681 3072 1420 2755 
Q 1159 2438 1159 1844 
L 1159 0 
L 581 0 
L 581 3500 
L 1159 3500 
L 1159 2956 
Q 1341 3275 1631 3429 
Q 1922 3584 2338 3584 
Q 2397 3584 2469 3576 
Q 2541 3569 2628 3553 
L 2631 2963 
z
" transform="scale(0.015625)"/>
        <path id="DejaVuSans-61" d="M 2194 1759 
Q 1497 1759 1228 1600 
Q 959 1441 959 1056 
Q 959 750 1161 570 
Q 1363 391 1709 391 
Q 2188 391 2477 730 
Q 2766 1069 2766 1631 
L 2766 1759 
L 2194 1759 
z
M 3341 1997 
L 3341 0 
L 2766 0 
L 2766 531 
Q 2569 213 2275 61 
Q 1981 -91 1556 -91 
Q 1019 -91 701 211 
Q 384 513 384 1019 
Q 384 1609 779 1909 
Q 1175 2209 1959 2209 
L 2766 2209 
L 2766 2266 
Q 2766 2663 2505 2880 
Q 2244 3097 1772 3097 
Q 1472 3097 1187 3025 
Q 903 2953 641 2809 
L 641 3341 
Q 956 3463 1253 3523 
Q 1550 3584 1831 3584 
Q 2591 3584 2966 3190 
Q 3341 2797 3341 1997 
z
" transform="scale(0.015625)"/>
        <path id="DejaVuSans-6e" d="M 3513 2113 
L 3513 0 
L 2938 0 
L 2938 2094 
Q 2938 2591 2744 2837 
Q 2550 3084 2163 3084 
Q 1697 3084 1428 2787 
Q 1159 2491 1159 1978 
L 1159 0 
L 581 0 
L 581 3500 
L 1159 3500 
L 1159 2956 
Q 1366 3272 1645 3428 
Q 1925 3584 2291 3584 
Q 2894 3584 3203 3211 
Q 3513 2838 3513 2113 
z
" transform="scale(0.015625)"/>
        <path id="DejaVuSans-73" d="M 2834 3397 
L 2834 2853 
Q 2591 2978 2328 3040 
Q 2066 3103 1784 3103 
Q 1356 3103 1142 2972 
Q 928 2841 928 2578 
Q 928 2378 1081 2264 
Q 1234 2150 1697 2047 
L 1894 2003 
Q 2506 1872 2764 1633 
Q 3022 1394 3022 966 
Q 3022 478 2636 193 
Q 2250 -91 1575 -91 
Q 1294 -91 989 -36 
Q 684 19 347 128 
L 347 722 
Q 666 556 975 473 
Q 1284 391 1588 391 
Q 1994 391 2212 530 
Q 2431 669 2431 922 
Q 2431 1156 2273 1281 
Q 2116 1406 1581 1522 
L 1381 1569 
Q 847 1681 609 1914 
Q 372 2147 372 2553 
Q 372 3047 722 3315 
Q 1072 3584 1716 3584 
Q 2034 3584 2315 3537 
Q 2597 3491 2834 3397 
z
" transform="scale(0.015625)"/>
        <path id="DejaVuSans-66" d="M 2375 4863 
L 2375 4384 
L 1825 4384 
Q 1516 4384 1395 4259 
Q 1275 4134 1275 3809 
L 1275 3500 
L 2222 3500 
L 2222 3053 
L 1275 3053 
L 1275 0 
L 697 0 
L 697 3053 
L 147 3053 
L 147 3500 
L 697 3500 
L 697 3744 
Q 697 4328 969 4595 
Q 1241 4863 1831 4863 
L 2375 4863 
z
" transform="scale(0.015625)"/>
        <path id="DejaVuSans-6f" d="M 1959 3097 
Q 1497 3097 1228 2736 
Q 959 2375 959 1747 
Q 959 1119 1226 758 
Q 1494 397 1959 397 
Q 2419 397 2687 759 
Q 2956 1122 2956 1747 
Q 2956 2369 2687 2733 
Q 2419 3097 1959 3097 
z
M 1959 3584 
Q 2709 3584 3137 3096 
Q 3566 2609 3566 1747 
Q 3566 888 3137 398 
Q 2709 -91 1959 -91 
Q 1206 -91 779 398 
Q 353 888 353 1747 
Q 353 2609 779 3096 
Q 1206 3584 1959 3584 
z
" transform="scale(0.015625)"/>
        <path id="DejaVuSans-6d" d="M 3328 2828 
Q 3544 3216 3844 3400 
Q 4144 3584 4550 3584 
Q 5097 3584 5394 3201 
Q 5691 2819 5691 2113 
L 5691 0 
L 5113 0 
L 5113 2094 
Q 5113 2597 4934 2840 
Q 4756 3084 4391 3084 
Q 3944 3084 3684 2787 
Q 3425 2491 3425 1978 
L 3425 0 
L 2847 0 
L 2847 2094 
Q 2847 2600 2669 2842 
Q 2491 3084 2119 3084 
Q 1678 3084 1418 2786 
Q 1159 2488 1159 1978 
L 1159 0 
L 581 0 
L 581 3500 
L 1159 3500 
L 1159 2956 
Q 1356 3278 1631 3431 
Q 1906 3584 2284 3584 
Q 2666 3584 2933 3390 
Q 3200 3197 3328 2828 
z
" transform="scale(0.015625)"/>
        <path id="DejaVuSans-65" d="M 3597 1894 
L 3597 1613 
L 953 1613 
Q 991 1019 1311 708 
Q 1631 397 2203 397 
Q 2534 397 2845 478 
Q 3156 559 3463 722 
L 3463 178 
Q 3153 47 2828 -22 
Q 2503 -91 2169 -91 
Q 1331 -91 842 396 
Q 353 884 353 1716 
Q 353 2575 817 3079 
Q 1281 3584 2069 3584 
Q 2775 3584 3186 3129 
Q 3597 2675 3597 1894 
z
M 3022 2063 
Q 3016 2534 2758 2815 
Q 2500 3097 2075 3097 
Q 1594 3097 1305 2825 
Q 1016 2553 972 2059 
L 3022 2063 
z
" transform="scale(0.015625)"/>
       </defs>
       <use xlink:href="#DejaVuSans-54"/>
       <use xlink:href="#DejaVuSans-72" x="46.333984"/>
       <use xlink:href="#DejaVuSans-61" x="87.447266"/>
       <use xlink:href="#DejaVuSans-6e" x="148.726562"/>
       <use xlink:href="#DejaVuSans-73" x="212.105469"/>
       <use xlink:href="#DejaVuSans-66" x="264.205078"/>
       <use xlink:href="#DejaVuSans-6f" x="299.410156"/>
       <use xlink:href="#DejaVuSans-72" x="360.591797"/>
       <use xlink:href="#DejaVuSans-6d" x="399.955078"/>
       <use xlink:href="#DejaVuSans-65" x="497.367188"/>
       <use xlink:href="#DejaVuSans-72" x="558.890625"/>
      </g>
     </g>
    </g>
    <g id="xtick_6">
     <g id="line2d_6">
      <path d="M 220.554216 212.477175 
L 79.322793 130.937175 
" clip-path="url(#pf73de597ab)" style="fill: none; stroke: #b0b0b0; stroke-width: 0.8; stroke-linecap: square"/>
     </g>
     <g id="text_6">
      <!-- TCN -->
      <g transform="translate(47.214062 126.69655)scale(0.1 -0.1)">
       <defs>
        <path id="DejaVuSans-43" d="M 4122 4306 
L 4122 3641 
Q 3803 3938 3442 4084 
Q 3081 4231 2675 4231 
Q 1875 4231 1450 3742 
Q 1025 3253 1025 2328 
Q 1025 1406 1450 917 
Q 1875 428 2675 428 
Q 3081 428 3442 575 
Q 3803 722 4122 1019 
L 4122 359 
Q 3791 134 3420 21 
Q 3050 -91 2638 -91 
Q 1578 -91 968 557 
Q 359 1206 359 2328 
Q 359 3453 968 4101 
Q 1578 4750 2638 4750 
Q 3056 4750 3426 4639 
Q 3797 4528 4122 4306 
z
" transform="scale(0.015625)"/>
       </defs>
       <use xlink:href="#DejaVuSans-54"/>
       <use xlink:href="#DejaVuSans-43" x="55.208984"/>
       <use xlink:href="#DejaVuSans-4e" x="125.033203"/>
      </g>
     </g>
    </g>
   </g>
   <g id="matplotlib.axis_2">
    <g id="ytick_1">
     <g id="line2d_7">
      <path d="M 220.554216 193.893544 
C 222.994596 193.893544 225.411247 194.374245 227.665864 195.308138 
C 229.920481 196.242031 231.969219 197.610954 233.694828 199.336563 
C 235.420437 201.062172 236.78936 203.11091 237.723253 205.365527 
C 238.657146 207.620144 239.137848 210.036795 239.137848 212.477175 
C 239.137848 214.917555 238.657146 217.334206 237.723253 219.588823 
C 236.78936 221.84344 235.420437 223.892178 233.694828 225.617787 
C 231.969219 227.343396 229.920481 228.712319 227.665864 229.646212 
C 225.411247 230.580105 222.994596 231.060806 220.554216 231.060806 
C 218.113836 231.060806 215.697185 230.580105 213.442568 229.646212 
C 211.187951 228.712319 209.139213 227.343396 207.413604 225.617787 
C 205.687995 223.892178 204.319072 221.84344 203.385179 219.588823 
C 202.451286 217.334206 201.970585 214.917555 201.970585 212.477175 
C 201.970585 210.036795 202.451286 207.620144 203.385179 205.365527 
C 204.319072 203.11091 205.687995 201.062172 207.413604 199.336563 
C 209.139213 197.610954 211.187951 196.242031 213.442568 195.308138 
C 215.697185 194.374245 218.113836 193.893544 220.554216 193.893544 
" clip-path="url(#pf73de597ab)" style="fill: none; stroke: #b0b0b0; stroke-width: 0.8; stroke-linecap: square"/>
     </g>
     <g id="text_7">
      <!-- 2 -->
      <g transform="translate(229.846032 194.303591)scale(0.1 -0.1)">
       <defs>
        <path id="DejaVuSans-32" d="M 1228 531 
L 3431 531 
L 3431 0 
L 469 0 
L 469 531 
Q 828 903 1448 1529 
Q 2069 2156 2228 2338 
Q 2531 2678 2651 2914 
Q 2772 3150 2772 3378 
Q 2772 3750 2511 3984 
Q 2250 4219 1831 4219 
Q 1534 4219 1204 4116 
Q 875 4013 500 3803 
L 500 4441 
Q 881 4594 1212 4672 
Q 1544 4750 1819 4750 
Q 2544 4750 2975 4387 
Q 3406 4025 3406 3419 
Q 3406 3131 3298 2873 
Q 3191 2616 2906 2266 
Q 2828 2175 2409 1742 
Q 1991 1309 1228 531 
z
" transform="scale(0.015625)"/>
       </defs>
       <use xlink:href="#DejaVuSans-32"/>
      </g>
     </g>
    </g>
    <g id="ytick_2">
     <g id="line2d_8">
      <path d="M 220.554216 175.309912 
C 225.434976 175.309912 230.268277 176.271315 234.777512 178.139101 
C 239.286746 180.006888 243.384221 182.744733 246.83544 186.195951 
C 250.286658 189.64717 253.024503 193.744645 254.89229 198.253879 
C 256.760076 202.763114 257.721479 207.596415 257.721479 212.477175 
C 257.721479 217.357935 256.760076 222.191236 254.89229 226.700471 
C 253.024503 231.209705 250.286658 235.30718 246.83544 238.758399 
C 243.384221 242.209617 239.286746 244.947462 234.777512 246.815249 
C 230.268277 248.683035 225.434976 249.644438 220.554216 249.644438 
C 215.673456 249.644438 210.840155 248.683035 206.33092 246.815249 
C 201.821686 244.947462 197.724211 242.209617 194.272992 238.758399 
C 190.821774 235.30718 188.083929 231.209705 186.216142 226.700471 
C 184.348356 222.191236 183.386953 217.357935 183.386953 212.477175 
C 183.386953 207.596415 184.348356 202.763114 186.216142 198.253879 
C 188.083929 193.744645 190.821774 189.64717 194.272992 186.195951 
C 197.724211 182.744733 201.821686 180.006888 206.33092 178.139101 
C 210.840155 176.271315 215.673456 175.309912 220.554216 175.309912 
" clip-path="url(#pf73de597ab)" style="fill: none; stroke: #b0b0b0; stroke-width: 0.8; stroke-linecap: square"/>
     </g>
     <g id="text_8">
      <!-- 4 -->
      <g transform="translate(239.137848 178.209694)scale(0.1 -0.1)">
       <defs>
        <path id="DejaVuSans-34" d="M 2419 4116 
L 825 1625 
L 2419 1625 
L 2419 4116 
z
M 2253 4666 
L 3047 4666 
L 3047 1625 
L 3713 1625 
L 3713 1100 
L 3047 1100 
L 3047 0 
L 2419 0 
L 2419 1100 
L 313 1100 
L 313 1709 
L 2253 4666 
z
" transform="scale(0.015625)"/>
       </defs>
       <use xlink:href="#DejaVuSans-34"/>
      </g>
     </g>
    </g>
    <g id="ytick_3">
     <g id="line2d_9">
      <path d="M 220.554216 156.726281 
C 227.875356 156.726281 235.125308 158.168386 241.88916 160.970065 
C 248.653011 163.771744 254.799224 167.878511 259.976052 173.055339 
C 265.15288 178.232167 269.259647 184.37838 272.061326 191.142231 
C 274.863005 197.906083 276.30511 205.156035 276.30511 212.477175 
C 276.30511 219.798315 274.863005 227.048267 272.061326 233.812119 
C 269.259647 240.57597 265.15288 246.722183 259.976052 251.899011 
C 254.799224 257.075839 248.653011 261.182606 241.88916 263.984285 
C 235.125308 266.785964 227.875356 268.228069 220.554216 268.228069 
C 213.233076 268.228069 205.983124 266.785964 199.219272 263.984285 
C 192.455421 261.182606 186.309208 257.075839 181.13238 251.899011 
C 175.955552 246.722183 171.848785 240.57597 169.047106 233.812119 
C 166.245427 227.048267 164.803322 219.798315 164.803322 212.477175 
C 164.803322 205.156035 166.245427 197.906083 169.047106 191.142231 
C 171.848785 184.37838 175.955552 178.232167 181.13238 173.055339 
C 186.309208 167.878511 192.455421 163.771744 199.219272 160.970065 
C 205.983124 158.168386 213.233076 156.726281 220.554216 156.726281 
" clip-path="url(#pf73de597ab)" style="fill: none; stroke: #b0b0b0; stroke-width: 0.8; stroke-linecap: square"/>
     </g>
     <g id="text_9">
      <!-- 6 -->
      <g transform="translate(248.429663 162.115797)scale(0.1 -0.1)">
       <defs>
        <path id="DejaVuSans-36" d="M 2113 2584 
Q 1688 2584 1439 2293 
Q 1191 2003 1191 1497 
Q 1191 994 1439 701 
Q 1688 409 2113 409 
Q 2538 409 2786 701 
Q 3034 994 3034 1497 
Q 3034 2003 2786 2293 
Q 2538 2584 2113 2584 
z
M 3366 4563 
L 3366 3988 
Q 3128 4100 2886 4159 
Q 2644 4219 2406 4219 
Q 1781 4219 1451 3797 
Q 1122 3375 1075 2522 
Q 1259 2794 1537 2939 
Q 1816 3084 2150 3084 
Q 2853 3084 3261 2657 
Q 3669 2231 3669 1497 
Q 3669 778 3244 343 
Q 2819 -91 2113 -91 
Q 1303 -91 875 529 
Q 447 1150 447 2328 
Q 447 3434 972 4092 
Q 1497 4750 2381 4750 
Q 2619 4750 2861 4703 
Q 3103 4656 3366 4563 
z
" transform="scale(0.015625)"/>
       </defs>
       <use xlink:href="#DejaVuSans-36"/>
      </g>
     </g>
    </g>
    <g id="ytick_4">
     <g id="line2d_10">
      <path d="M 220.554216 138.142649 
C 230.315737 138.142649 239.982339 140.065456 249.000808 143.801028 
C 258.019277 147.5366 266.214226 153.01229 273.116663 159.914728 
C 280.019101 166.817165 285.494791 175.012114 289.230363 184.030583 
C 292.965935 193.049052 294.888742 202.715654 294.888742 212.477175 
C 294.888742 222.238696 292.965935 231.905298 289.230363 240.923767 
C 285.494791 249.942236 280.019101 258.137185 273.116663 265.039622 
C 266.214226 271.94206 258.019277 277.41775 249.000808 281.153322 
C 239.982339 284.888894 230.315737 286.811701 220.554216 286.811701 
C 210.792695 286.811701 201.126093 284.888894 192.107624 281.153322 
C 183.089155 277.41775 174.894206 271.94206 167.991769 265.039622 
C 161.089331 258.137185 155.613641 249.942236 151.878069 240.923767 
C 148.142497 231.905298 146.21969 222.238696 146.21969 212.477175 
C 146.21969 202.715654 148.142497 193.049052 151.878069 184.030583 
C 155.613641 175.012114 161.089331 166.817165 167.991769 159.914728 
C 174.894206 153.01229 183.089155 147.5366 192.107624 143.801028 
C 201.126093 140.065456 210.792695 138.142649 220.554216 138.142649 
" clip-path="url(#pf73de597ab)" style="fill: none; stroke: #b0b0b0; stroke-width: 0.8; stroke-linecap: square"/>
     </g>
     <g id="text_10">
      <!-- 8 -->
      <g transform="translate(257.721479 146.0219)scale(0.1 -0.1)">
       <defs>
        <path id="DejaVuSans-38" d="M 2034 2216 
Q 1584 2216 1326 1975 
Q 1069 1734 1069 1313 
Q 1069 891 1326 650 
Q 1584 409 2034 409 
Q 2484 409 2743 651 
Q 3003 894 3003 1313 
Q 3003 1734 2745 1975 
Q 2488 2216 2034 2216 
z
M 1403 2484 
Q 997 2584 770 2862 
Q 544 3141 544 3541 
Q 544 4100 942 4425 
Q 1341 4750 2034 4750 
Q 2731 4750 3128 4425 
Q 3525 4100 3525 3541 
Q 3525 3141 3298 2862 
Q 3072 2584 2669 2484 
Q 3125 2378 3379 2068 
Q 3634 1759 3634 1313 
Q 3634 634 3220 271 
Q 2806 -91 2034 -91 
Q 1263 -91 848 271 
Q 434 634 434 1313 
Q 434 1759 690 2068 
Q 947 2378 1403 2484 
z
M 1172 3481 
Q 1172 3119 1398 2916 
Q 1625 2713 2034 2713 
Q 2441 2713 2670 2916 
Q 2900 3119 2900 3481 
Q 2900 3844 2670 4047 
Q 2441 4250 2034 4250 
Q 1625 4250 1398 4047 
Q 1172 3844 1172 3481 
z
" transform="scale(0.015625)"/>
       </defs>
       <use xlink:href="#DejaVuSans-38"/>
      </g>
     </g>
    </g>
    <g id="ytick_5">
     <g id="line2d_11">
      <path d="M 220.554216 119.559018 
C 232.756117 119.559018 244.839369 121.962526 256.112455 126.631991 
C 267.385542 131.301456 277.629229 138.146069 286.257275 146.774116 
C 294.885322 155.402162 301.729935 165.645849 306.3994 176.918936 
C 311.068865 188.192022 313.472373 200.275274 313.472373 212.477175 
C 313.472373 224.679076 311.068865 236.762328 306.3994 248.035414 
C 301.729935 259.308501 294.885322 269.552188 286.257275 278.180234 
C 277.629229 286.808281 267.385542 293.652894 256.112455 298.322359 
C 244.839369 302.991824 232.756117 305.395332 220.554216 305.395332 
C 208.352315 305.395332 196.269063 302.991824 184.995977 298.322359 
C 173.72289 293.652894 163.479203 286.808281 154.851157 278.180234 
C 146.22311 269.552188 139.378497 259.308501 134.709032 248.035414 
C 130.039567 236.762328 127.636059 224.679076 127.636059 212.477175 
C 127.636059 200.275274 130.039567 188.192022 134.709032 176.918936 
C 139.378497 165.645849 146.22311 155.402162 154.851157 146.774116 
C 163.479203 138.146069 173.72289 131.301456 184.995977 126.631991 
C 196.269063 121.962526 208.352315 119.559018 220.554216 119.559018 
" clip-path="url(#pf73de597ab)" style="fill: none; stroke: #b0b0b0; stroke-width: 0.8; stroke-linecap: square"/>
     </g>
     <g id="text_11">
      <!-- 10 -->
      <g transform="translate(267.013295 129.928003)scale(0.1 -0.1)">
       <defs>
        <path id="DejaVuSans-31" d="M 794 531 
L 1825 531 
L 1825 4091 
L 703 3866 
L 703 4441 
L 1819 4666 
L 2450 4666 
L 2450 531 
L 3481 531 
L 3481 0 
L 794 0 
L 794 531 
z
" transform="scale(0.015625)"/>
        <path id="DejaVuSans-30" d="M 2034 4250 
Q 1547 4250 1301 3770 
Q 1056 3291 1056 2328 
Q 1056 1369 1301 889 
Q 1547 409 2034 409 
Q 2525 409 2770 889 
Q 3016 1369 3016 2328 
Q 3016 3291 2770 3770 
Q 2525 4250 2034 4250 
z
M 2034 4750 
Q 2819 4750 3233 4129 
Q 3647 3509 3647 2328 
Q 3647 1150 3233 529 
Q 2819 -91 2034 -91 
Q 1250 -91 836 529 
Q 422 1150 422 2328 
Q 422 3509 836 4129 
Q 1250 4750 2034 4750 
z
" transform="scale(0.015625)"/>
       </defs>
       <use xlink:href="#DejaVuSans-31"/>
       <use xlink:href="#DejaVuSans-30" x="63.623047"/>
      </g>
     </g>
    </g>
    <g id="ytick_6">
     <g id="line2d_12">
      <path d="M 220.554216 100.975386 
C 235.196497 100.975386 249.6964 103.859596 263.224103 109.462954 
C 276.751807 115.066313 289.044231 123.279848 299.397887 133.633504 
C 309.751543 143.98716 317.965078 156.279584 323.568437 169.807288 
C 329.171795 183.334991 332.056005 197.834894 332.056005 212.477175 
C 332.056005 227.119456 329.171795 241.619359 323.568437 255.147062 
C 317.965078 268.674766 309.751543 280.96719 299.397887 291.320846 
C 289.044231 301.674502 276.751807 309.888037 263.224103 315.491396 
C 249.6964 321.094754 235.196497 323.978964 220.554216 323.978964 
C 205.911935 323.978964 191.412032 321.094754 177.884329 315.491396 
C 164.356625 309.888037 152.064201 301.674502 141.710545 291.320846 
C 131.356889 280.96719 123.143354 268.674766 117.539995 255.147062 
C 111.936637 241.619359 109.052427 227.119456 109.052427 212.477175 
C 109.052427 197.834894 111.936637 183.334991 117.539995 169.807288 
C 123.143354 156.279584 131.356889 143.98716 141.710545 133.633504 
C 152.064201 123.279848 164.356625 115.066313 177.884329 109.462954 
C 191.412032 103.859596 205.911935 100.975386 220.554216 100.975386 
" clip-path="url(#pf73de597ab)" style="fill: none; stroke: #b0b0b0; stroke-width: 0.8; stroke-linecap: square"/>
     </g>
     <g id="text_12">
      <!-- 12 -->
      <g transform="translate(276.30511 113.834106)scale(0.1 -0.1)">
       <use xlink:href="#DejaVuSans-31"/>
       <use xlink:href="#DejaVuSans-32" x="63.623047"/>
      </g>
     </g>
    </g>
    <g id="ytick_7">
     <g id="line2d_13">
      <path d="M 220.554216 82.391755 
C 237.636877 82.391755 254.55343 85.756666 270.335751 92.293918 
C 286.118072 98.831169 300.459234 108.413627 312.538499 120.492892 
C 324.617764 132.572157 334.200222 146.913319 340.737473 162.69564 
C 347.274725 178.477961 350.639636 195.394514 350.639636 212.477175 
C 350.639636 229.559836 347.274725 246.476389 340.737473 262.25871 
C 334.200222 278.041031 324.617764 292.382193 312.538499 304.461458 
C 300.459234 316.540723 286.118072 326.123181 270.335751 332.660432 
C 254.55343 339.197684 237.636877 342.562595 220.554216 342.562595 
C 203.471555 342.562595 186.555002 339.197684 170.772681 332.660432 
C 154.99036 326.123181 140.649198 316.540723 128.569933 304.461458 
C 116.490668 292.382193 106.90821 278.041031 100.370959 262.25871 
C 93.833707 246.476389 90.468796 229.559836 90.468796 212.477175 
C 90.468796 195.394514 93.833707 178.477961 100.370959 162.69564 
C 106.90821 146.913319 116.490668 132.572157 128.569933 120.492892 
C 140.649198 108.413627 154.99036 98.831169 170.772681 92.293918 
C 186.555002 85.756666 203.471555 82.391755 220.554216 82.391755 
" clip-path="url(#pf73de597ab)" style="fill: none; stroke: #b0b0b0; stroke-width: 0.8; stroke-linecap: square"/>
     </g>
     <g id="text_13">
      <!-- 14 -->
      <g transform="translate(285.596926 97.740209)scale(0.1 -0.1)">
       <use xlink:href="#DejaVuSans-31"/>
       <use xlink:href="#DejaVuSans-34" x="63.623047"/>
      </g>
     </g>
    </g>
    <g id="ytick_8">
     <g id="line2d_14">
      <path d="M 220.554216 63.808123 
C 240.077257 63.808123 259.410461 67.653736 277.447399 75.124881 
C 295.484337 82.596025 311.874236 93.547405 325.679111 107.35228 
C 339.483986 121.157155 350.435366 137.547054 357.90651 155.583992 
C 365.377655 173.62093 369.223268 192.954134 369.223268 212.477175 
C 369.223268 232.000216 365.377655 251.33342 357.90651 269.370358 
C 350.435366 287.407296 339.483986 303.797195 325.679111 317.60207 
C 311.874236 331.406945 295.484337 342.358325 277.447399 349.829469 
C 259.410461 357.300614 240.077257 361.146227 220.554216 361.146227 
C 201.031175 361.146227 181.697971 357.300614 163.661033 349.829469 
C 145.624095 342.358325 129.234196 331.406945 115.429321 317.60207 
C 101.624446 303.797195 90.673066 287.407296 83.201922 269.370358 
C 75.730777 251.33342 71.885164 232.000216 71.885164 212.477175 
C 71.885164 192.954134 75.730777 173.62093 83.201922 155.583992 
C 90.673066 137.547054 101.624446 121.157155 115.429321 107.35228 
C 129.234196 93.547405 145.624095 82.596025 163.661033 75.124881 
C 181.697971 67.653736 201.031175 63.808123 220.554216 63.808123 
" clip-path="url(#pf73de597ab)" style="fill: none; stroke: #b0b0b0; stroke-width: 0.8; stroke-linecap: square"/>
     </g>
     <g id="text_14">
      <!-- 16 -->
      <g transform="translate(294.888742 81.646312)scale(0.1 -0.1)">
       <use xlink:href="#DejaVuSans-31"/>
       <use xlink:href="#DejaVuSans-36" x="63.623047"/>
      </g>
     </g>
    </g>
   </g>
   <g id="line2d_15">
    <path d="M 220.554216 188.270765 
L 252.941745 193.778226 
L 243.976426 225.999994 
L 220.554216 259.270429 
L 85.049843 290.710661 
L 140.355241 166.174275 
" clip-path="url(#pf73de597ab)" style="fill: none; stroke: #00ff3e; stroke-linecap: square"/>
   </g>
   <g id="patch_4">
    <path d="M 220.554216 49.397175 
C 199.138747 49.397175 177.931516 53.615556 158.146202 61.810901 
C 138.360888 70.006246 120.382266 82.019178 105.239242 97.162201 
C 90.096219 112.305225 78.083287 130.283847 69.887942 150.069161 
C 61.692597 169.854475 57.474216 191.061706 57.474216 212.477175 
C 57.474216 233.892644 61.692597 255.099875 69.887942 274.885189 
C 78.083287 294.670503 90.096219 312.649125 105.239242 327.792149 
C 120.382266 342.935172 138.360888 354.948104 158.146202 363.143449 
C 177.931516 371.338794 199.138747 375.557175 220.554216 375.557175 
C 241.969685 375.557175 263.176916 371.338794 282.96223 363.143449 
C 302.747544 354.948104 320.726166 342.935172 335.86919 327.792149 
C 351.012214 312.649125 363.025145 294.670503 371.22049 274.885189 
C 379.415835 255.099875 383.634216 233.892644 383.634216 212.477175 
C 383.634216 191.061706 379.415835 169.854475 371.22049 150.069161 
C 363.025145 130.283847 351.012214 112.305225 335.86919 97.162201 
C 320.726166 82.019178 302.747544 70.006246 282.96223 61.810901 
C 263.176916 53.615556 241.969685 49.397175 220.554216 49.397175 
" style="fill: none; stroke: #000000; stroke-width: 0.8; stroke-linejoin: miter; stroke-linecap: square"/>
   </g>
   <g id="text_15">
    <!-- MAE Metrics  [x $10^{-2}$]  -->
    <g transform="translate(153.834216 17.304375)scale(0.12 -0.12)">
     <defs>
      <path id="DejaVuSans-41" d="M 2188 4044 
L 1331 1722 
L 3047 1722 
L 2188 4044 
z
M 1831 4666 
L 2547 4666 
L 4325 0 
L 3669 0 
L 3244 1197 
L 1141 1197 
L 716 0 
L 50 0 
L 1831 4666 
z
" transform="scale(0.015625)"/>
      <path id="DejaVuSans-45" d="M 628 4666 
L 3578 4666 
L 3578 4134 
L 1259 4134 
L 1259 2753 
L 3481 2753 
L 3481 2222 
L 1259 2222 
L 1259 531 
L 3634 531 
L 3634 0 
L 628 0 
L 628 4666 
z
" transform="scale(0.015625)"/>
      <path id="DejaVuSans-20" transform="scale(0.015625)"/>
      <path id="DejaVuSans-74" d="M 1172 4494 
L 1172 3500 
L 2356 3500 
L 2356 3053 
L 1172 3053 
L 1172 1153 
Q 1172 725 1289 603 
Q 1406 481 1766 481 
L 2356 481 
L 2356 0 
L 1766 0 
Q 1100 0 847 248 
Q 594 497 594 1153 
L 594 3053 
L 172 3053 
L 172 3500 
L 594 3500 
L 594 4494 
L 1172 4494 
z
" transform="scale(0.015625)"/>
      <path id="DejaVuSans-69" d="M 603 3500 
L 1178 3500 
L 1178 0 
L 603 0 
L 603 3500 
z
M 603 4863 
L 1178 4863 
L 1178 4134 
L 603 4134 
L 603 4863 
z
" transform="scale(0.015625)"/>
      <path id="DejaVuSans-63" d="M 3122 3366 
L 3122 2828 
Q 2878 2963 2633 3030 
Q 2388 3097 2138 3097 
Q 1578 3097 1268 2742 
Q 959 2388 959 1747 
Q 959 1106 1268 751 
Q 1578 397 2138 397 
Q 2388 397 2633 464 
Q 2878 531 3122 666 
L 3122 134 
Q 2881 22 2623 -34 
Q 2366 -91 2075 -91 
Q 1284 -91 818 406 
Q 353 903 353 1747 
Q 353 2603 823 3093 
Q 1294 3584 2113 3584 
Q 2378 3584 2631 3529 
Q 2884 3475 3122 3366 
z
" transform="scale(0.015625)"/>
      <path id="DejaVuSans-5b" d="M 550 4863 
L 1875 4863 
L 1875 4416 
L 1125 4416 
L 1125 -397 
L 1875 -397 
L 1875 -844 
L 550 -844 
L 550 4863 
z
" transform="scale(0.015625)"/>
      <path id="DejaVuSans-78" d="M 3513 3500 
L 2247 1797 
L 3578 0 
L 2900 0 
L 1881 1375 
L 863 0 
L 184 0 
L 1544 1831 
L 300 3500 
L 978 3500 
L 1906 2253 
L 2834 3500 
L 3513 3500 
z
" transform="scale(0.015625)"/>
      <path id="DejaVuSans-2212" d="M 678 2272 
L 4684 2272 
L 4684 1741 
L 678 1741 
L 678 2272 
z
" transform="scale(0.015625)"/>
      <path id="DejaVuSans-5d" d="M 1947 4863 
L 1947 -844 
L 622 -844 
L 622 -397 
L 1369 -397 
L 1369 4416 
L 622 4416 
L 622 4863 
L 1947 4863 
z
" transform="scale(0.015625)"/>
     </defs>
     <use xlink:href="#DejaVuSans-4d" transform="translate(0 0.765625)"/>
     <use xlink:href="#DejaVuSans-41" transform="translate(86.279297 0.765625)"/>
     <use xlink:href="#DejaVuSans-45" transform="translate(154.6875 0.765625)"/>
     <use xlink:href="#DejaVuSans-20" transform="translate(217.871094 0.765625)"/>
     <use xlink:href="#DejaVuSans-4d" transform="translate(249.658203 0.765625)"/>
     <use xlink:href="#DejaVuSans-65" transform="translate(335.9375 0.765625)"/>
     <use xlink:href="#DejaVuSans-74" transform="translate(397.460938 0.765625)"/>
     <use xlink:href="#DejaVuSans-72" transform="translate(436.669922 0.765625)"/>
     <use xlink:href="#DejaVuSans-69" transform="translate(477.783203 0.765625)"/>
     <use xlink:href="#DejaVuSans-63" transform="translate(505.566406 0.765625)"/>
     <use xlink:href="#DejaVuSans-73" transform="translate(560.546875 0.765625)"/>
     <use xlink:href="#DejaVuSans-20" transform="translate(612.646484 0.765625)"/>
     <use xlink:href="#DejaVuSans-20" transform="translate(644.433594 0.765625)"/>
     <use xlink:href="#DejaVuSans-5b" transform="translate(676.220703 0.765625)"/>
     <use xlink:href="#DejaVuSans-78" transform="translate(715.234375 0.765625)"/>
     <use xlink:href="#DejaVuSans-20" transform="translate(774.414062 0.765625)"/>
     <use xlink:href="#DejaVuSans-31" transform="translate(806.201172 0.765625)"/>
     <use xlink:href="#DejaVuSans-30" transform="translate(869.824219 0.765625)"/>
     <use xlink:href="#DejaVuSans-2212" transform="translate(934.404297 39.046875)scale(0.7)"/>
     <use xlink:href="#DejaVuSans-32" transform="translate(993.056641 39.046875)scale(0.7)"/>
     <use xlink:href="#DejaVuSans-5d" transform="translate(1040.327148 0.765625)"/>
     <use xlink:href="#DejaVuSans-20" transform="translate(1079.34082 0.765625)"/>
    </g>
   </g>
  </g>
 </g>
 <defs>
  <clipPath id="pf73de597ab">
   <path d="M 383.634216 212.477175 
C 383.634216 191.061706 379.415835 169.854475 371.22049 150.069161 
C 363.025145 130.283847 351.012214 112.305225 335.86919 97.162201 
C 320.726166 82.019178 302.747544 70.006246 282.96223 61.810901 
C 263.176916 53.615556 241.969685 49.397175 220.554216 49.397175 
C 199.138747 49.397175 177.931516 53.615556 158.146202 61.810901 
C 138.360888 70.006246 120.382266 82.019178 105.239242 97.162201 
C 90.096219 112.305225 78.083287 130.283847 69.887942 150.069161 
C 61.692597 169.854475 57.474216 191.061706 57.474216 212.477175 
C 57.474216 233.892644 61.692597 255.099875 69.887942 274.885189 
C 78.083287 294.670503 90.096219 312.649125 105.239242 327.792149 
C 120.382266 342.935172 138.360888 354.948104 158.146202 363.143449 
C 177.931516 371.338794 199.138747 375.557175 220.554216 375.557175 
C 241.969685 375.557175 263.176916 371.338794 282.96223 363.143449 
C 302.747544 354.948104 320.726166 342.935172 335.86919 327.792149 
C 351.012214 312.649125 363.025145 294.670503 371.22049 274.885189 
C 379.415835 255.099875 383.634216 233.892644 383.634216 212.477175 
M 220.554216 212.477175 
C 220.554216 212.477175 220.554216 212.477175 220.554216 212.477175 
C 220.554216 212.477175 220.554216 212.477175 220.554216 212.477175 
C 220.554216 212.477175 220.554216 212.477175 220.554216 212.477175 
C 220.554216 212.477175 220.554216 212.477175 220.554216 212.477175 
C 220.554216 212.477175 220.554216 212.477175 220.554216 212.477175 
C 220.554216 212.477175 220.554216 212.477175 220.554216 212.477175 
C 220.554216 212.477175 220.554216 212.477175 220.554216 212.477175 
C 220.554216 212.477175 220.554216 212.477175 220.554216 212.477175 
C 220.554216 212.477175 220.554216 212.477175 220.554216 212.477175 
C 220.554216 212.477175 220.554216 212.477175 220.554216 212.477175 
C 220.554216 212.477175 220.554216 212.477175 220.554216 212.477175 
C 220.554216 212.477175 220.554216 212.477175 220.554216 212.477175 
C 220.554216 212.477175 220.554216 212.477175 220.554216 212.477175 
C 220.554216 212.477175 220.554216 212.477175 220.554216 212.477175 
C 220.554216 212.477175 220.554216 212.477175 220.554216 212.477175 
C 220.554216 212.477175 220.554216 212.477175 220.554216 212.477175 
M 383.634216 212.477175 
z
"/>
  </clipPath>
 </defs>
</svg>
