<?xml version="1.0" encoding="utf-8" standalone="no"?>
<!DOCTYPE svg PUBLIC "-//W3C//DTD SVG 1.1//EN"
  "http://www.w3.org/Graphics/SVG/1.1/DTD/svg11.dtd">
<svg xmlns:xlink="http://www.w3.org/1999/xlink" width="407.766245pt" height="401.596237pt" viewBox="0 0 407.766245 401.596237" xmlns="http://www.w3.org/2000/svg" version="1.1">
 <metadata>
  <rdf:RDF xmlns:dc="http://purl.org/dc/elements/1.1/" xmlns:cc="http://creativecommons.org/ns#" xmlns:rdf="http://www.w3.org/1999/02/22-rdf-syntax-ns#">
   <cc:Work>
    <dc:type rdf:resource="http://purl.org/dc/dcmitype/StillImage"/>
    <dc:date>2022-07-28T11:20:08.820008</dc:date>
    <dc:format>image/svg+xml</dc:format>
    <dc:creator>
     <cc:Agent>
      <dc:title>Matplotlib v3.5.2, https://matplotlib.org/</dc:title>
     </cc:Agent>
    </dc:creator>
   </cc:Work>
  </rdf:RDF>
 </metadata>
 <defs>
  <style type="text/css">*{stroke-linejoin: round; stroke-linecap: butt}</style>
 </defs>
 <g id="figure_1">
  <g id="patch_1">
   <path d="M -0 401.596237 
L 407.766245 401.596237 
L 407.766245 0 
L -0 0 
L -0 401.596237 
z
" style="fill: none"/>
  </g>
  <g id="axes_1">
   <g id="patch_2">
    <path d="M 383.634216 212.477175 
C 383.634216 191.061706 379.415835 169.854475 371.22049 150.069161 
C 363.025145 130.283847 351.012214 112.305225 335.86919 97.162201 
C 320.726166 82.019178 302.747544 70.006246 282.96223 61.810901 
C 263.176916 53.615556 241.969685 49.397175 220.554216 49.397175 
C 199.138747 49.397175 177.931516 53.615556 158.146202 61.810901 
C 138.360888 70.006246 120.382266 82.019178 105.239242 97.162201 
C 90.096219 112.305225 78.083287 130.283847 69.887942 150.069161 
C 61.692597 169.854475 57.474216 191.061706 57.474216 212.477175 
C 57.474216 233.892644 61.692597 255.099875 69.887942 274.885189 
C 78.083287 294.670503 90.096219 312.649125 105.239242 327.792149 
C 120.382266 342.935172 138.360888 354.948104 158.146202 363.143449 
C 177.931516 371.338794 199.138747 375.557175 220.554216 375.557175 
C 241.969685 375.557175 263.176916 371.338794 282.96223 363.143449 
C 302.747544 354.948104 320.726166 342.935172 335.86919 327.792149 
C 351.012214 312.649125 363.025145 294.670503 371.22049 274.885189 
C 379.415835 255.099875 383.634216 233.892644 383.634216 212.477175 
M 220.554216 212.477175 
C 220.554216 212.477175 220.554216 212.477175 220.554216 212.477175 
C 220.554216 212.477175 220.554216 212.477175 220.554216 212.477175 
C 220.554216 212.477175 220.554216 212.477175 220.554216 212.477175 
C 220.554216 212.477175 220.554216 212.477175 220.554216 212.477175 
C 220.554216 212.477175 220.554216 212.477175 220.554216 212.477175 
C 220.554216 212.477175 220.554216 212.477175 220.554216 212.477175 
C 220.554216 212.477175 220.554216 212.477175 220.554216 212.477175 
C 220.554216 212.477175 220.554216 212.477175 220.554216 212.477175 
C 220.554216 212.477175 220.554216 212.477175 220.554216 212.477175 
C 220.554216 212.477175 220.554216 212.477175 220.554216 212.477175 
C 220.554216 212.477175 220.554216 212.477175 220.554216 212.477175 
C 220.554216 212.477175 220.554216 212.477175 220.554216 212.477175 
C 220.554216 212.477175 220.554216 212.477175 220.554216 212.477175 
C 220.554216 212.477175 220.554216 212.477175 220.554216 212.477175 
C 220.554216 212.477175 220.554216 212.477175 220.554216 212.477175 
C 220.554216 212.477175 220.554216 212.477175 220.554216 212.477175 
M 383.634216 212.477175 
z
" style="fill: #ffffff"/>
   </g>
   <g id="patch_3">
    <path d="M 220.554216 200.592728 
L 235.347862 203.93606 
L 232.135378 219.163562 
L 220.554216 243.084651 
L 85.557993 290.417281 
L 173.538012 185.332357 
z
" clip-path="url(#pe5ccdb861a)" style="fill: #ff00e4; opacity: 0.25; stroke: #ff00e4; stroke-linejoin: miter"/>
   </g>
   <g id="matplotlib.axis_1">
    <g id="xtick_1">
     <g id="line2d_1">
      <path d="M 220.554216 212.477175 
L 220.554216 49.397175 
" clip-path="url(#pe5ccdb861a)" style="fill: none; stroke: #b0b0b0; stroke-width: 0.8; stroke-linecap: square"/>
     </g>
     <g id="text_1">
      <!-- RNN -->
      <g transform="translate(209.598747 38.15655)scale(0.1 -0.1)">
       <defs>
        <path id="DejaVuSans-52" d="M 2841 2188 
Q 3044 2119 3236 1894 
Q 3428 1669 3622 1275 
L 4263 0 
L 3584 0 
L 2988 1197 
Q 2756 1666 2539 1819 
Q 2322 1972 1947 1972 
L 1259 1972 
L 1259 0 
L 628 0 
L 628 4666 
L 2053 4666 
Q 2853 4666 3247 4331 
Q 3641 3997 3641 3322 
Q 3641 2881 3436 2590 
Q 3231 2300 2841 2188 
z
M 1259 4147 
L 1259 2491 
L 2053 2491 
Q 2509 2491 2742 2702 
Q 2975 2913 2975 3322 
Q 2975 3731 2742 3939 
Q 2509 4147 2053 4147 
L 1259 4147 
z
" transform="scale(0.015625)"/>
        <path id="DejaVuSans-4e" d="M 628 4666 
L 1478 4666 
L 3547 763 
L 3547 4666 
L 4159 4666 
L 4159 0 
L 3309 0 
L 1241 3903 
L 1241 0 
L 628 0 
L 628 4666 
z
" transform="scale(0.015625)"/>
       </defs>
       <use xlink:href="#DejaVuSans-52"/>
       <use xlink:href="#DejaVuSans-4e" x="69.482422"/>
       <use xlink:href="#DejaVuSans-4e" x="144.287109"/>
      </g>
     </g>
    </g>
    <g id="xtick_2">
     <g id="line2d_2">
      <path d="M 220.554216 212.477175 
L 361.785639 130.937175 
" clip-path="url(#pe5ccdb861a)" style="fill: none; stroke: #b0b0b0; stroke-width: 0.8; stroke-linecap: square"/>
     </g>
     <g id="text_2">
      <!-- LSTM -->
      <g transform="translate(373.909995 126.69655)scale(0.1 -0.1)">
       <defs>
        <path id="DejaVuSans-4c" d="M 628 4666 
L 1259 4666 
L 1259 531 
L 3531 531 
L 3531 0 
L 628 0 
L 628 4666 
z
" transform="scale(0.015625)"/>
        <path id="DejaVuSans-53" d="M 3425 4513 
L 3425 3897 
Q 3066 4069 2747 4153 
Q 2428 4238 2131 4238 
Q 1616 4238 1336 4038 
Q 1056 3838 1056 3469 
Q 1056 3159 1242 3001 
Q 1428 2844 1947 2747 
L 2328 2669 
Q 3034 2534 3370 2195 
Q 3706 1856 3706 1288 
Q 3706 609 3251 259 
Q 2797 -91 1919 -91 
Q 1588 -91 1214 -16 
Q 841 59 441 206 
L 441 856 
Q 825 641 1194 531 
Q 1563 422 1919 422 
Q 2459 422 2753 634 
Q 3047 847 3047 1241 
Q 3047 1584 2836 1778 
Q 2625 1972 2144 2069 
L 1759 2144 
Q 1053 2284 737 2584 
Q 422 2884 422 3419 
Q 422 4038 858 4394 
Q 1294 4750 2059 4750 
Q 2388 4750 2728 4690 
Q 3069 4631 3425 4513 
z
" transform="scale(0.015625)"/>
        <path id="DejaVuSans-54" d="M -19 4666 
L 3928 4666 
L 3928 4134 
L 2272 4134 
L 2272 0 
L 1638 0 
L 1638 4134 
L -19 4134 
L -19 4666 
z
" transform="scale(0.015625)"/>
        <path id="DejaVuSans-4d" d="M 628 4666 
L 1569 4666 
L 2759 1491 
L 3956 4666 
L 4897 4666 
L 4897 0 
L 4281 0 
L 4281 4097 
L 3078 897 
L 2444 897 
L 1241 4097 
L 1241 0 
L 628 0 
L 628 4666 
z
" transform="scale(0.015625)"/>
       </defs>
       <use xlink:href="#DejaVuSans-4c"/>
       <use xlink:href="#DejaVuSans-53" x="55.712891"/>
       <use xlink:href="#DejaVuSans-54" x="119.189453"/>
       <use xlink:href="#DejaVuSans-4d" x="180.273438"/>
      </g>
     </g>
    </g>
    <g id="xtick_3">
     <g id="line2d_3">
      <path d="M 220.554216 212.477175 
L 361.785639 294.017175 
" clip-path="url(#pe5ccdb861a)" style="fill: none; stroke: #b0b0b0; stroke-width: 0.8; stroke-linecap: square"/>
     </g>
     <g id="text_3">
      <!-- GRU -->
      <g transform="translate(373.909995 303.77655)scale(0.1 -0.1)">
       <defs>
        <path id="DejaVuSans-47" d="M 3809 666 
L 3809 1919 
L 2778 1919 
L 2778 2438 
L 4434 2438 
L 4434 434 
Q 4069 175 3628 42 
Q 3188 -91 2688 -91 
Q 1594 -91 976 548 
Q 359 1188 359 2328 
Q 359 3472 976 4111 
Q 1594 4750 2688 4750 
Q 3144 4750 3555 4637 
Q 3966 4525 4313 4306 
L 4313 3634 
Q 3963 3931 3569 4081 
Q 3175 4231 2741 4231 
Q 1884 4231 1454 3753 
Q 1025 3275 1025 2328 
Q 1025 1384 1454 906 
Q 1884 428 2741 428 
Q 3075 428 3337 486 
Q 3600 544 3809 666 
z
" transform="scale(0.015625)"/>
        <path id="DejaVuSans-55" d="M 556 4666 
L 1191 4666 
L 1191 1831 
Q 1191 1081 1462 751 
Q 1734 422 2344 422 
Q 2950 422 3222 751 
Q 3494 1081 3494 1831 
L 3494 4666 
L 4128 4666 
L 4128 1753 
Q 4128 841 3676 375 
Q 3225 -91 2344 -91 
Q 1459 -91 1007 375 
Q 556 841 556 1753 
L 556 4666 
z
" transform="scale(0.015625)"/>
       </defs>
       <use xlink:href="#DejaVuSans-47"/>
       <use xlink:href="#DejaVuSans-52" x="77.490234"/>
       <use xlink:href="#DejaVuSans-55" x="146.972656"/>
      </g>
     </g>
    </g>
    <g id="xtick_4">
     <g id="line2d_4">
      <path d="M 220.554216 212.477175 
L 220.554216 375.557175 
" clip-path="url(#pe5ccdb861a)" style="fill: none; stroke: #b0b0b0; stroke-width: 0.8; stroke-linecap: square"/>
     </g>
     <g id="text_4">
      <!-- TST -->
      <g transform="translate(211.272185 392.31655)scale(0.1 -0.1)">
       <use xlink:href="#DejaVuSans-54"/>
       <use xlink:href="#DejaVuSans-53" x="61.083984"/>
       <use xlink:href="#DejaVuSans-54" x="124.560547"/>
      </g>
     </g>
    </g>
    <g id="xtick_5">
     <g id="line2d_5">
      <path d="M 220.554216 212.477175 
L 79.322793 294.017175 
" clip-path="url(#pe5ccdb861a)" style="fill: none; stroke: #b0b0b0; stroke-width: 0.8; stroke-linecap: square"/>
     </g>
     <g id="text_5">
      <!-- Transformer -->
      <g transform="translate(7.2 303.77655)scale(0.1 -0.1)">
       <defs>
        <path id="DejaVuSans-72" d="M 2631 2963 
Q 2534 3019 2420 3045 
Q 2306 3072 2169 3072 
Q 1681 3072 1420 2755 
Q 1159 2438 1159 1844 
L 1159 0 
L 581 0 
L 581 3500 
L 1159 3500 
L 1159 2956 
Q 1341 3275 1631 3429 
Q 1922 3584 2338 3584 
Q 2397 3584 2469 3576 
Q 2541 3569 2628 3553 
L 2631 2963 
z
" transform="scale(0.015625)"/>
        <path id="DejaVuSans-61" d="M 2194 1759 
Q 1497 1759 1228 1600 
Q 959 1441 959 1056 
Q 959 750 1161 570 
Q 1363 391 1709 391 
Q 2188 391 2477 730 
Q 2766 1069 2766 1631 
L 2766 1759 
L 2194 1759 
z
M 3341 1997 
L 3341 0 
L 2766 0 
L 2766 531 
Q 2569 213 2275 61 
Q 1981 -91 1556 -91 
Q 1019 -91 701 211 
Q 384 513 384 1019 
Q 384 1609 779 1909 
Q 1175 2209 1959 2209 
L 2766 2209 
L 2766 2266 
Q 2766 2663 2505 2880 
Q 2244 3097 1772 3097 
Q 1472 3097 1187 3025 
Q 903 2953 641 2809 
L 641 3341 
Q 956 3463 1253 3523 
Q 1550 3584 1831 3584 
Q 2591 3584 2966 3190 
Q 3341 2797 3341 1997 
z
" transform="scale(0.015625)"/>
        <path id="DejaVuSans-6e" d="M 3513 2113 
L 3513 0 
L 2938 0 
L 2938 2094 
Q 2938 2591 2744 2837 
Q 2550 3084 2163 3084 
Q 1697 3084 1428 2787 
Q 1159 2491 1159 1978 
L 1159 0 
L 581 0 
L 581 3500 
L 1159 3500 
L 1159 2956 
Q 1366 3272 1645 3428 
Q 1925 3584 2291 3584 
Q 2894 3584 3203 3211 
Q 3513 2838 3513 2113 
z
" transform="scale(0.015625)"/>
        <path id="DejaVuSans-73" d="M 2834 3397 
L 2834 2853 
Q 2591 2978 2328 3040 
Q 2066 3103 1784 3103 
Q 1356 3103 1142 2972 
Q 928 2841 928 2578 
Q 928 2378 1081 2264 
Q 1234 2150 1697 2047 
L 1894 2003 
Q 2506 1872 2764 1633 
Q 3022 1394 3022 966 
Q 3022 478 2636 193 
Q 2250 -91 1575 -91 
Q 1294 -91 989 -36 
Q 684 19 347 128 
L 347 722 
Q 666 556 975 473 
Q 1284 391 1588 391 
Q 1994 391 2212 530 
Q 2431 669 2431 922 
Q 2431 1156 2273 1281 
Q 2116 1406 1581 1522 
L 1381 1569 
Q 847 1681 609 1914 
Q 372 2147 372 2553 
Q 372 3047 722 3315 
Q 1072 3584 1716 3584 
Q 2034 3584 2315 3537 
Q 2597 3491 2834 3397 
z
" transform="scale(0.015625)"/>
        <path id="DejaVuSans-66" d="M 2375 4863 
L 2375 4384 
L 1825 4384 
Q 1516 4384 1395 4259 
Q 1275 4134 1275 3809 
L 1275 3500 
L 2222 3500 
L 2222 3053 
L 1275 3053 
L 1275 0 
L 697 0 
L 697 3053 
L 147 3053 
L 147 3500 
L 697 3500 
L 697 3744 
Q 697 4328 969 4595 
Q 1241 4863 1831 4863 
L 2375 4863 
z
" transform="scale(0.015625)"/>
        <path id="DejaVuSans-6f" d="M 1959 3097 
Q 1497 3097 1228 2736 
Q 959 2375 959 1747 
Q 959 1119 1226 758 
Q 1494 397 1959 397 
Q 2419 397 2687 759 
Q 2956 1122 2956 1747 
Q 2956 2369 2687 2733 
Q 2419 3097 1959 3097 
z
M 1959 3584 
Q 2709 3584 3137 3096 
Q 3566 2609 3566 1747 
Q 3566 888 3137 398 
Q 2709 -91 1959 -91 
Q 1206 -91 779 398 
Q 353 888 353 1747 
Q 353 2609 779 3096 
Q 1206 3584 1959 3584 
z
" transform="scale(0.015625)"/>
        <path id="DejaVuSans-6d" d="M 3328 2828 
Q 3544 3216 3844 3400 
Q 4144 3584 4550 3584 
Q 5097 3584 5394 3201 
Q 5691 2819 5691 2113 
L 5691 0 
L 5113 0 
L 5113 2094 
Q 5113 2597 4934 2840 
Q 4756 3084 4391 3084 
Q 3944 3084 3684 2787 
Q 3425 2491 3425 1978 
L 3425 0 
L 2847 0 
L 2847 2094 
Q 2847 2600 2669 2842 
Q 2491 3084 2119 3084 
Q 1678 3084 1418 2786 
Q 1159 2488 1159 1978 
L 1159 0 
L 581 0 
L 581 3500 
L 1159 3500 
L 1159 2956 
Q 1356 3278 1631 3431 
Q 1906 3584 2284 3584 
Q 2666 3584 2933 3390 
Q 3200 3197 3328 2828 
z
" transform="scale(0.015625)"/>
        <path id="DejaVuSans-65" d="M 3597 1894 
L 3597 1613 
L 953 1613 
Q 991 1019 1311 708 
Q 1631 397 2203 397 
Q 2534 397 2845 478 
Q 3156 559 3463 722 
L 3463 178 
Q 3153 47 2828 -22 
Q 2503 -91 2169 -91 
Q 1331 -91 842 396 
Q 353 884 353 1716 
Q 353 2575 817 3079 
Q 1281 3584 2069 3584 
Q 2775 3584 3186 3129 
Q 3597 2675 3597 1894 
z
M 3022 2063 
Q 3016 2534 2758 2815 
Q 2500 3097 2075 3097 
Q 1594 3097 1305 2825 
Q 1016 2553 972 2059 
L 3022 2063 
z
" transform="scale(0.015625)"/>
       </defs>
       <use xlink:href="#DejaVuSans-54"/>
       <use xlink:href="#DejaVuSans-72" x="46.333984"/>
       <use xlink:href="#DejaVuSans-61" x="87.447266"/>
       <use xlink:href="#DejaVuSans-6e" x="148.726562"/>
       <use xlink:href="#DejaVuSans-73" x="212.105469"/>
       <use xlink:href="#DejaVuSans-66" x="264.205078"/>
       <use xlink:href="#DejaVuSans-6f" x="299.410156"/>
       <use xlink:href="#DejaVuSans-72" x="360.591797"/>
       <use xlink:href="#DejaVuSans-6d" x="399.955078"/>
       <use xlink:href="#DejaVuSans-65" x="497.367188"/>
       <use xlink:href="#DejaVuSans-72" x="558.890625"/>
      </g>
     </g>
    </g>
    <g id="xtick_6">
     <g id="line2d_6">
      <path d="M 220.554216 212.477175 
L 79.322793 130.937175 
" clip-path="url(#pe5ccdb861a)" style="fill: none; stroke: #b0b0b0; stroke-width: 0.8; stroke-linecap: square"/>
     </g>
     <g id="text_6">
      <!-- TCN -->
      <g transform="translate(47.214062 126.69655)scale(0.1 -0.1)">
       <defs>
        <path id="DejaVuSans-43" d="M 4122 4306 
L 4122 3641 
Q 3803 3938 3442 4084 
Q 3081 4231 2675 4231 
Q 1875 4231 1450 3742 
Q 1025 3253 1025 2328 
Q 1025 1406 1450 917 
Q 1875 428 2675 428 
Q 3081 428 3442 575 
Q 3803 722 4122 1019 
L 4122 359 
Q 3791 134 3420 21 
Q 3050 -91 2638 -91 
Q 1578 -91 968 557 
Q 359 1206 359 2328 
Q 359 3453 968 4101 
Q 1578 4750 2638 4750 
Q 3056 4750 3426 4639 
Q 3797 4528 4122 4306 
z
" transform="scale(0.015625)"/>
       </defs>
       <use xlink:href="#DejaVuSans-54"/>
       <use xlink:href="#DejaVuSans-43" x="55.208984"/>
       <use xlink:href="#DejaVuSans-4e" x="125.033203"/>
      </g>
     </g>
    </g>
   </g>
   <g id="matplotlib.axis_2">
    <g id="ytick_1">
     <g id="line2d_7">
      <path d="M 220.554216 191.665252 
C 223.287213 191.665252 225.993634 192.203593 228.518594 193.249465 
C 231.043554 194.295338 233.337947 195.828403 235.270468 197.760923 
C 237.202988 199.693444 238.736053 201.987837 239.781926 204.512797 
C 240.827798 207.037757 241.366139 209.744178 241.366139 212.477175 
C 241.366139 215.210172 240.827798 217.916593 239.781926 220.441553 
C 238.736053 222.966513 237.202988 225.260906 235.270468 227.193427 
C 233.337947 229.125947 231.043554 230.659012 228.518594 231.704885 
C 225.993634 232.750757 223.287213 233.289098 220.554216 233.289098 
C 217.821219 233.289098 215.114798 232.750757 212.589838 231.704885 
C 210.064878 230.659012 207.770485 229.125947 205.837964 227.193427 
C 203.905444 225.260906 202.372379 222.966513 201.326506 220.441553 
C 200.280634 217.916593 199.742293 215.210172 199.742293 212.477175 
C 199.742293 209.744178 200.280634 207.037757 201.326506 204.512797 
C 202.372379 201.987837 203.905444 199.693444 205.837964 197.760923 
C 207.770485 195.828403 210.064878 194.295338 212.589838 193.249465 
C 215.114798 192.203593 217.821219 191.665252 220.554216 191.665252 
" clip-path="url(#pe5ccdb861a)" style="fill: none; stroke: #b0b0b0; stroke-width: 0.8; stroke-linecap: square"/>
     </g>
     <g id="text_7">
      <!-- 5 -->
      <g transform="translate(230.960178 192.373833)scale(0.1 -0.1)">
       <defs>
        <path id="DejaVuSans-35" d="M 691 4666 
L 3169 4666 
L 3169 4134 
L 1269 4134 
L 1269 2991 
Q 1406 3038 1543 3061 
Q 1681 3084 1819 3084 
Q 2600 3084 3056 2656 
Q 3513 2228 3513 1497 
Q 3513 744 3044 326 
Q 2575 -91 1722 -91 
Q 1428 -91 1123 -41 
Q 819 9 494 109 
L 494 744 
Q 775 591 1075 516 
Q 1375 441 1709 441 
Q 2250 441 2565 725 
Q 2881 1009 2881 1497 
Q 2881 1984 2565 2268 
Q 2250 2553 1709 2553 
Q 1456 2553 1204 2497 
Q 953 2441 691 2322 
L 691 4666 
z
" transform="scale(0.015625)"/>
       </defs>
       <use xlink:href="#DejaVuSans-35"/>
      </g>
     </g>
    </g>
    <g id="ytick_2">
     <g id="line2d_8">
      <path d="M 220.554216 170.853329 
C 226.020209 170.853329 231.433053 171.93001 236.482972 174.021756 
C 241.532892 176.113501 246.121679 179.17963 249.98672 183.044671 
C 253.851761 186.909712 256.91789 191.498499 259.009635 196.548419 
C 261.101381 201.598338 262.178062 207.011182 262.178062 212.477175 
C 262.178062 217.943168 261.101381 223.356012 259.009635 228.405931 
C 256.91789 233.455851 253.851761 238.044638 249.98672 241.909679 
C 246.121679 245.77472 241.532892 248.840849 236.482972 250.932594 
C 231.433053 253.02434 226.020209 254.101021 220.554216 254.101021 
C 215.088223 254.101021 209.675379 253.02434 204.62546 250.932594 
C 199.57554 248.840849 194.986753 245.77472 191.121712 241.909679 
C 187.256671 238.044638 184.190542 233.455851 182.098797 228.405931 
C 180.007051 223.356012 178.93037 217.943168 178.93037 212.477175 
C 178.93037 207.011182 180.007051 201.598338 182.098797 196.548419 
C 184.190542 191.498499 187.256671 186.909712 191.121712 183.044671 
C 194.986753 179.17963 199.57554 176.113501 204.62546 174.021756 
C 209.675379 171.93001 215.088223 170.853329 220.554216 170.853329 
" clip-path="url(#pe5ccdb861a)" style="fill: none; stroke: #b0b0b0; stroke-width: 0.8; stroke-linecap: square"/>
     </g>
     <g id="text_8">
      <!-- 10 -->
      <g transform="translate(241.366139 174.350179)scale(0.1 -0.1)">
       <defs>
        <path id="DejaVuSans-31" d="M 794 531 
L 1825 531 
L 1825 4091 
L 703 3866 
L 703 4441 
L 1819 4666 
L 2450 4666 
L 2450 531 
L 3481 531 
L 3481 0 
L 794 0 
L 794 531 
z
" transform="scale(0.015625)"/>
        <path id="DejaVuSans-30" d="M 2034 4250 
Q 1547 4250 1301 3770 
Q 1056 3291 1056 2328 
Q 1056 1369 1301 889 
Q 1547 409 2034 409 
Q 2525 409 2770 889 
Q 3016 1369 3016 2328 
Q 3016 3291 2770 3770 
Q 2525 4250 2034 4250 
z
M 2034 4750 
Q 2819 4750 3233 4129 
Q 3647 3509 3647 2328 
Q 3647 1150 3233 529 
Q 2819 -91 2034 -91 
Q 1250 -91 836 529 
Q 422 1150 422 2328 
Q 422 3509 836 4129 
Q 1250 4750 2034 4750 
z
" transform="scale(0.015625)"/>
       </defs>
       <use xlink:href="#DejaVuSans-31"/>
       <use xlink:href="#DejaVuSans-30" x="63.623047"/>
      </g>
     </g>
    </g>
    <g id="ytick_3">
     <g id="line2d_9">
      <path d="M 220.554216 150.041406 
C 228.753206 150.041406 236.872471 151.656428 244.44735 154.794046 
C 252.02223 157.931663 258.90541 162.530858 264.702972 168.328419 
C 270.500533 174.125981 275.099728 181.009161 278.237345 188.584041 
C 281.374963 196.15892 282.989985 204.278185 282.989985 212.477175 
C 282.989985 220.676165 281.374963 228.79543 278.237345 236.370309 
C 275.099728 243.945189 270.500533 250.828369 264.702972 256.625931 
C 258.90541 262.423492 252.02223 267.022687 244.44735 270.160304 
C 236.872471 273.297922 228.753206 274.912944 220.554216 274.912944 
C 212.355226 274.912944 204.235961 273.297922 196.661082 270.160304 
C 189.086202 267.022687 182.203022 262.423492 176.40546 256.625931 
C 170.607899 250.828369 166.008704 243.945189 162.871087 236.370309 
C 159.733469 228.79543 158.118447 220.676165 158.118447 212.477175 
C 158.118447 204.278185 159.733469 196.15892 162.871087 188.584041 
C 166.008704 181.009161 170.607899 174.125981 176.40546 168.328419 
C 182.203022 162.530858 189.086202 157.931663 196.661082 154.794046 
C 204.235961 151.656428 212.355226 150.041406 220.554216 150.041406 
" clip-path="url(#pe5ccdb861a)" style="fill: none; stroke: #b0b0b0; stroke-width: 0.8; stroke-linecap: square"/>
     </g>
     <g id="text_9">
      <!-- 15 -->
      <g transform="translate(251.772101 156.326525)scale(0.1 -0.1)">
       <use xlink:href="#DejaVuSans-31"/>
       <use xlink:href="#DejaVuSans-35" x="63.623047"/>
      </g>
     </g>
    </g>
    <g id="ytick_4">
     <g id="line2d_10">
      <path d="M 220.554216 129.229483 
C 231.486203 129.229483 242.31189 131.382846 252.411729 135.566336 
C 262.511567 139.749826 271.689142 145.882085 279.419224 153.612167 
C 287.149306 161.342249 293.281565 170.519824 297.465055 180.619662 
C 301.648545 190.719501 303.801908 201.545188 303.801908 212.477175 
C 303.801908 223.409162 301.648545 234.234849 297.465055 244.334688 
C 293.281565 254.434526 287.149306 263.612101 279.419224 271.342183 
C 271.689142 279.072265 262.511567 285.204524 252.411729 289.388014 
C 242.31189 293.571504 231.486203 295.724867 220.554216 295.724867 
C 209.622229 295.724867 198.796542 293.571504 188.696703 289.388014 
C 178.596865 285.204524 169.41929 279.072265 161.689208 271.342183 
C 153.959126 263.612101 147.826867 254.434526 143.643377 244.334688 
C 139.459887 234.234849 137.306524 223.409162 137.306524 212.477175 
C 137.306524 201.545188 139.459887 190.719501 143.643377 180.619662 
C 147.826867 170.519824 153.959126 161.342249 161.689208 153.612167 
C 169.41929 145.882085 178.596865 139.749826 188.696703 135.566336 
C 198.796542 131.382846 209.622229 129.229483 220.554216 129.229483 
" clip-path="url(#pe5ccdb861a)" style="fill: none; stroke: #b0b0b0; stroke-width: 0.8; stroke-linecap: square"/>
     </g>
     <g id="text_10">
      <!-- 20 -->
      <g transform="translate(262.178062 138.302871)scale(0.1 -0.1)">
       <defs>
        <path id="DejaVuSans-32" d="M 1228 531 
L 3431 531 
L 3431 0 
L 469 0 
L 469 531 
Q 828 903 1448 1529 
Q 2069 2156 2228 2338 
Q 2531 2678 2651 2914 
Q 2772 3150 2772 3378 
Q 2772 3750 2511 3984 
Q 2250 4219 1831 4219 
Q 1534 4219 1204 4116 
Q 875 4013 500 3803 
L 500 4441 
Q 881 4594 1212 4672 
Q 1544 4750 1819 4750 
Q 2544 4750 2975 4387 
Q 3406 4025 3406 3419 
Q 3406 3131 3298 2873 
Q 3191 2616 2906 2266 
Q 2828 2175 2409 1742 
Q 1991 1309 1228 531 
z
" transform="scale(0.015625)"/>
       </defs>
       <use xlink:href="#DejaVuSans-32"/>
       <use xlink:href="#DejaVuSans-30" x="63.623047"/>
      </g>
     </g>
    </g>
    <g id="ytick_5">
     <g id="line2d_11">
      <path d="M 220.554216 108.41756 
C 234.219199 108.41756 247.751308 111.109264 260.376107 116.338626 
C 273.000905 121.567989 284.472873 129.233313 294.135476 138.895915 
C 303.798078 148.558518 311.463402 160.030486 316.692765 172.655284 
C 321.922127 185.280083 324.613831 198.812192 324.613831 212.477175 
C 324.613831 226.142158 321.922127 239.674267 316.692765 252.299066 
C 311.463402 264.923864 303.798078 276.395832 294.135476 286.058435 
C 284.472873 295.721037 273.000905 303.386361 260.376107 308.615724 
C 247.751308 313.845086 234.219199 316.53679 220.554216 316.53679 
C 206.889233 316.53679 193.357124 313.845086 180.732325 308.615724 
C 168.107527 303.386361 156.635559 295.721037 146.972956 286.058435 
C 137.310354 276.395832 129.64503 264.923864 124.415667 252.299066 
C 119.186305 239.674267 116.494601 226.142158 116.494601 212.477175 
C 116.494601 198.812192 119.186305 185.280083 124.415667 172.655284 
C 129.64503 160.030486 137.310354 148.558518 146.972956 138.895915 
C 156.635559 129.233313 168.107527 121.567989 180.732325 116.338626 
C 193.357124 111.109264 206.889233 108.41756 220.554216 108.41756 
" clip-path="url(#pe5ccdb861a)" style="fill: none; stroke: #b0b0b0; stroke-width: 0.8; stroke-linecap: square"/>
     </g>
     <g id="text_11">
      <!-- 25 -->
      <g transform="translate(272.584024 120.279217)scale(0.1 -0.1)">
       <use xlink:href="#DejaVuSans-32"/>
       <use xlink:href="#DejaVuSans-35" x="63.623047"/>
      </g>
     </g>
    </g>
    <g id="ytick_6">
     <g id="line2d_12">
      <path d="M 220.554216 87.605637 
C 236.952196 87.605637 253.190727 90.835681 268.340485 97.110917 
C 283.490243 103.386152 297.256605 112.584541 308.851727 124.179664 
C 320.44685 135.774786 329.645239 149.541148 335.920474 164.690906 
C 342.19571 179.840664 345.425754 196.079195 345.425754 212.477175 
C 345.425754 228.875155 342.19571 245.113686 335.920474 260.263444 
C 329.645239 275.413202 320.44685 289.179564 308.851727 300.774686 
C 297.256605 312.369809 283.490243 321.568198 268.340485 327.843433 
C 253.190727 334.118669 236.952196 337.348713 220.554216 337.348713 
C 204.156236 337.348713 187.917705 334.118669 172.767947 327.843433 
C 157.618189 321.568198 143.851827 312.369809 132.256705 300.774686 
C 120.661582 289.179564 111.463193 275.413202 105.187958 260.263444 
C 98.912722 245.113686 95.682678 228.875155 95.682678 212.477175 
C 95.682678 196.079195 98.912722 179.840664 105.187958 164.690906 
C 111.463193 149.541148 120.661582 135.774786 132.256705 124.179664 
C 143.851827 112.584541 157.618189 103.386152 172.767947 97.110917 
C 187.917705 90.835681 204.156236 87.605637 220.554216 87.605637 
" clip-path="url(#pe5ccdb861a)" style="fill: none; stroke: #b0b0b0; stroke-width: 0.8; stroke-linecap: square"/>
     </g>
     <g id="text_12">
      <!-- 30 -->
      <g transform="translate(282.989985 102.255563)scale(0.1 -0.1)">
       <defs>
        <path id="DejaVuSans-33" d="M 2597 2516 
Q 3050 2419 3304 2112 
Q 3559 1806 3559 1356 
Q 3559 666 3084 287 
Q 2609 -91 1734 -91 
Q 1441 -91 1130 -33 
Q 819 25 488 141 
L 488 750 
Q 750 597 1062 519 
Q 1375 441 1716 441 
Q 2309 441 2620 675 
Q 2931 909 2931 1356 
Q 2931 1769 2642 2001 
Q 2353 2234 1838 2234 
L 1294 2234 
L 1294 2753 
L 1863 2753 
Q 2328 2753 2575 2939 
Q 2822 3125 2822 3475 
Q 2822 3834 2567 4026 
Q 2313 4219 1838 4219 
Q 1578 4219 1281 4162 
Q 984 4106 628 3988 
L 628 4550 
Q 988 4650 1302 4700 
Q 1616 4750 1894 4750 
Q 2613 4750 3031 4423 
Q 3450 4097 3450 3541 
Q 3450 3153 3228 2886 
Q 3006 2619 2597 2516 
z
" transform="scale(0.015625)"/>
       </defs>
       <use xlink:href="#DejaVuSans-33"/>
       <use xlink:href="#DejaVuSans-30" x="63.623047"/>
      </g>
     </g>
    </g>
    <g id="ytick_7">
     <g id="line2d_13">
      <path d="M 220.554216 66.793714 
C 239.685193 66.793714 258.630145 70.562099 276.304863 77.883207 
C 293.979581 85.204315 310.040336 95.935768 323.567979 109.463412 
C 337.095623 122.991055 347.827076 139.05181 355.148184 156.726528 
C 362.469292 174.401246 366.237677 193.346198 366.237677 212.477175 
C 366.237677 231.608152 362.469292 250.553104 355.148184 268.227822 
C 347.827076 285.90254 337.095623 301.963295 323.567979 315.490938 
C 310.040336 329.018582 293.979581 339.750035 276.304863 347.071143 
C 258.630145 354.392251 239.685193 358.160636 220.554216 358.160636 
C 201.423239 358.160636 182.478287 354.392251 164.803569 347.071143 
C 147.128851 339.750035 131.068096 329.018582 117.540453 315.490938 
C 104.012809 301.963295 93.281356 285.90254 85.960248 268.227822 
C 78.63914 250.553104 74.870755 231.608152 74.870755 212.477175 
C 74.870755 193.346198 78.63914 174.401246 85.960248 156.726528 
C 93.281356 139.05181 104.012809 122.991055 117.540453 109.463412 
C 131.068096 95.935768 147.128851 85.204315 164.803569 77.883207 
C 182.478287 70.562099 201.423239 66.793714 220.554216 66.793714 
" clip-path="url(#pe5ccdb861a)" style="fill: none; stroke: #b0b0b0; stroke-width: 0.8; stroke-linecap: square"/>
     </g>
     <g id="text_13">
      <!-- 35 -->
      <g transform="translate(293.395947 84.231909)scale(0.1 -0.1)">
       <use xlink:href="#DejaVuSans-33"/>
       <use xlink:href="#DejaVuSans-35" x="63.623047"/>
      </g>
     </g>
    </g>
   </g>
   <g id="line2d_14">
    <path d="M 220.554216 200.592728 
L 235.347862 203.93606 
L 232.135378 219.163562 
L 220.554216 243.084651 
L 85.557993 290.417281 
L 173.538012 185.332357 
" clip-path="url(#pe5ccdb861a)" style="fill: none; stroke: #ff00e4; stroke-linecap: square"/>
   </g>
   <g id="patch_4">
    <path d="M 220.554216 49.397175 
C 199.138747 49.397175 177.931516 53.615556 158.146202 61.810901 
C 138.360888 70.006246 120.382266 82.019178 105.239242 97.162201 
C 90.096219 112.305225 78.083287 130.283847 69.887942 150.069161 
C 61.692597 169.854475 57.474216 191.061706 57.474216 212.477175 
C 57.474216 233.892644 61.692597 255.099875 69.887942 274.885189 
C 78.083287 294.670503 90.096219 312.649125 105.239242 327.792149 
C 120.382266 342.935172 138.360888 354.948104 158.146202 363.143449 
C 177.931516 371.338794 199.138747 375.557175 220.554216 375.557175 
C 241.969685 375.557175 263.176916 371.338794 282.96223 363.143449 
C 302.747544 354.948104 320.726166 342.935172 335.86919 327.792149 
C 351.012214 312.649125 363.025145 294.670503 371.22049 274.885189 
C 379.415835 255.099875 383.634216 233.892644 383.634216 212.477175 
C 383.634216 191.061706 379.415835 169.854475 371.22049 150.069161 
C 363.025145 130.283847 351.012214 112.305225 335.86919 97.162201 
C 320.726166 82.019178 302.747544 70.006246 282.96223 61.810901 
C 263.176916 53.615556 241.969685 49.397175 220.554216 49.397175 
" style="fill: none; stroke: #000000; stroke-width: 0.8; stroke-linejoin: miter; stroke-linecap: square"/>
   </g>
   <g id="text_14">
    <!-- MSE Metrics  [x $10^{-3}$]  -->
    <g transform="translate(154.134216 17.304375)scale(0.12 -0.12)">
     <defs>
      <path id="DejaVuSans-45" d="M 628 4666 
L 3578 4666 
L 3578 4134 
L 1259 4134 
L 1259 2753 
L 3481 2753 
L 3481 2222 
L 1259 2222 
L 1259 531 
L 3634 531 
L 3634 0 
L 628 0 
L 628 4666 
z
" transform="scale(0.015625)"/>
      <path id="DejaVuSans-20" transform="scale(0.015625)"/>
      <path id="DejaVuSans-74" d="M 1172 4494 
L 1172 3500 
L 2356 3500 
L 2356 3053 
L 1172 3053 
L 1172 1153 
Q 1172 725 1289 603 
Q 1406 481 1766 481 
L 2356 481 
L 2356 0 
L 1766 0 
Q 1100 0 847 248 
Q 594 497 594 1153 
L 594 3053 
L 172 3053 
L 172 3500 
L 594 3500 
L 594 4494 
L 1172 4494 
z
" transform="scale(0.015625)"/>
      <path id="DejaVuSans-69" d="M 603 3500 
L 1178 3500 
L 1178 0 
L 603 0 
L 603 3500 
z
M 603 4863 
L 1178 4863 
L 1178 4134 
L 603 4134 
L 603 4863 
z
" transform="scale(0.015625)"/>
      <path id="DejaVuSans-63" d="M 3122 3366 
L 3122 2828 
Q 2878 2963 2633 3030 
Q 2388 3097 2138 3097 
Q 1578 3097 1268 2742 
Q 959 2388 959 1747 
Q 959 1106 1268 751 
Q 1578 397 2138 397 
Q 2388 397 2633 464 
Q 2878 531 3122 666 
L 3122 134 
Q 2881 22 2623 -34 
Q 2366 -91 2075 -91 
Q 1284 -91 818 406 
Q 353 903 353 1747 
Q 353 2603 823 3093 
Q 1294 3584 2113 3584 
Q 2378 3584 2631 3529 
Q 2884 3475 3122 3366 
z
" transform="scale(0.015625)"/>
      <path id="DejaVuSans-5b" d="M 550 4863 
L 1875 4863 
L 1875 4416 
L 1125 4416 
L 1125 -397 
L 1875 -397 
L 1875 -844 
L 550 -844 
L 550 4863 
z
" transform="scale(0.015625)"/>
      <path id="DejaVuSans-78" d="M 3513 3500 
L 2247 1797 
L 3578 0 
L 2900 0 
L 1881 1375 
L 863 0 
L 184 0 
L 1544 1831 
L 300 3500 
L 978 3500 
L 1906 2253 
L 2834 3500 
L 3513 3500 
z
" transform="scale(0.015625)"/>
      <path id="DejaVuSans-2212" d="M 678 2272 
L 4684 2272 
L 4684 1741 
L 678 1741 
L 678 2272 
z
" transform="scale(0.015625)"/>
      <path id="DejaVuSans-5d" d="M 1947 4863 
L 1947 -844 
L 622 -844 
L 622 -397 
L 1369 -397 
L 1369 4416 
L 622 4416 
L 622 4863 
L 1947 4863 
z
" transform="scale(0.015625)"/>
     </defs>
     <use xlink:href="#DejaVuSans-4d" transform="translate(0 0.765625)"/>
     <use xlink:href="#DejaVuSans-53" transform="translate(86.279297 0.765625)"/>
     <use xlink:href="#DejaVuSans-45" transform="translate(149.755859 0.765625)"/>
     <use xlink:href="#DejaVuSans-20" transform="translate(212.939453 0.765625)"/>
     <use xlink:href="#DejaVuSans-4d" transform="translate(244.726562 0.765625)"/>
     <use xlink:href="#DejaVuSans-65" transform="translate(331.005859 0.765625)"/>
     <use xlink:href="#DejaVuSans-74" transform="translate(392.529297 0.765625)"/>
     <use xlink:href="#DejaVuSans-72" transform="translate(431.738281 0.765625)"/>
     <use xlink:href="#DejaVuSans-69" transform="translate(472.851562 0.765625)"/>
     <use xlink:href="#DejaVuSans-63" transform="translate(500.634766 0.765625)"/>
     <use xlink:href="#DejaVuSans-73" transform="translate(555.615234 0.765625)"/>
     <use xlink:href="#DejaVuSans-20" transform="translate(607.714844 0.765625)"/>
     <use xlink:href="#DejaVuSans-20" transform="translate(639.501953 0.765625)"/>
     <use xlink:href="#DejaVuSans-5b" transform="translate(671.289062 0.765625)"/>
     <use xlink:href="#DejaVuSans-78" transform="translate(710.302734 0.765625)"/>
     <use xlink:href="#DejaVuSans-20" transform="translate(769.482422 0.765625)"/>
     <use xlink:href="#DejaVuSans-31" transform="translate(801.269531 0.765625)"/>
     <use xlink:href="#DejaVuSans-30" transform="translate(864.892578 0.765625)"/>
     <use xlink:href="#DejaVuSans-2212" transform="translate(929.472656 39.046875)scale(0.7)"/>
     <use xlink:href="#DejaVuSans-33" transform="translate(988.125 39.046875)scale(0.7)"/>
     <use xlink:href="#DejaVuSans-5d" transform="translate(1035.395508 0.765625)"/>
     <use xlink:href="#DejaVuSans-20" transform="translate(1074.40918 0.765625)"/>
    </g>
   </g>
  </g>
 </g>
 <defs>
  <clipPath id="pe5ccdb861a">
   <path d="M 383.634216 212.477175 
C 383.634216 191.061706 379.415835 169.854475 371.22049 150.069161 
C 363.025145 130.283847 351.012214 112.305225 335.86919 97.162201 
C 320.726166 82.019178 302.747544 70.006246 282.96223 61.810901 
C 263.176916 53.615556 241.969685 49.397175 220.554216 49.397175 
C 199.138747 49.397175 177.931516 53.615556 158.146202 61.810901 
C 138.360888 70.006246 120.382266 82.019178 105.239242 97.162201 
C 90.096219 112.305225 78.083287 130.283847 69.887942 150.069161 
C 61.692597 169.854475 57.474216 191.061706 57.474216 212.477175 
C 57.474216 233.892644 61.692597 255.099875 69.887942 274.885189 
C 78.083287 294.670503 90.096219 312.649125 105.239242 327.792149 
C 120.382266 342.935172 138.360888 354.948104 158.146202 363.143449 
C 177.931516 371.338794 199.138747 375.557175 220.554216 375.557175 
C 241.969685 375.557175 263.176916 371.338794 282.96223 363.143449 
C 302.747544 354.948104 320.726166 342.935172 335.86919 327.792149 
C 351.012214 312.649125 363.025145 294.670503 371.22049 274.885189 
C 379.415835 255.099875 383.634216 233.892644 383.634216 212.477175 
M 220.554216 212.477175 
C 220.554216 212.477175 220.554216 212.477175 220.554216 212.477175 
C 220.554216 212.477175 220.554216 212.477175 220.554216 212.477175 
C 220.554216 212.477175 220.554216 212.477175 220.554216 212.477175 
C 220.554216 212.477175 220.554216 212.477175 220.554216 212.477175 
C 220.554216 212.477175 220.554216 212.477175 220.554216 212.477175 
C 220.554216 212.477175 220.554216 212.477175 220.554216 212.477175 
C 220.554216 212.477175 220.554216 212.477175 220.554216 212.477175 
C 220.554216 212.477175 220.554216 212.477175 220.554216 212.477175 
C 220.554216 212.477175 220.554216 212.477175 220.554216 212.477175 
C 220.554216 212.477175 220.554216 212.477175 220.554216 212.477175 
C 220.554216 212.477175 220.554216 212.477175 220.554216 212.477175 
C 220.554216 212.477175 220.554216 212.477175 220.554216 212.477175 
C 220.554216 212.477175 220.554216 212.477175 220.554216 212.477175 
C 220.554216 212.477175 220.554216 212.477175 220.554216 212.477175 
C 220.554216 212.477175 220.554216 212.477175 220.554216 212.477175 
C 220.554216 212.477175 220.554216 212.477175 220.554216 212.477175 
M 383.634216 212.477175 
z
"/>
  </clipPath>
 </defs>
</svg>
