<?xml version="1.0" encoding="utf-8" standalone="no"?>
<!DOCTYPE svg PUBLIC "-//W3C//DTD SVG 1.1//EN"
  "http://www.w3.org/Graphics/SVG/1.1/DTD/svg11.dtd">
<svg xmlns:xlink="http://www.w3.org/1999/xlink" width="437.880863pt" height="382.757175pt" viewBox="0 0 437.880863 382.757175" xmlns="http://www.w3.org/2000/svg" version="1.1">
 <metadata>
  <rdf:RDF xmlns:dc="http://purl.org/dc/elements/1.1/" xmlns:cc="http://creativecommons.org/ns#" xmlns:rdf="http://www.w3.org/1999/02/22-rdf-syntax-ns#">
   <cc:Work>
    <dc:type rdf:resource="http://purl.org/dc/dcmitype/StillImage"/>
    <dc:date>2022-07-13T10:57:01.502589</dc:date>
    <dc:format>image/svg+xml</dc:format>
    <dc:creator>
     <cc:Agent>
      <dc:title>Matplotlib v3.5.2, https://matplotlib.org/</dc:title>
     </cc:Agent>
    </dc:creator>
   </cc:Work>
  </rdf:RDF>
 </metadata>
 <defs>
  <style type="text/css">*{stroke-linejoin: round; stroke-linecap: butt}</style>
 </defs>
 <g id="figure_1">
  <g id="patch_1">
   <path d="M 0 382.757175 
L 437.880863 382.757175 
L 437.880863 0 
L 0 0 
L 0 382.757175 
z
" style="fill: none"/>
  </g>
  <g id="axes_1">
   <g id="patch_2">
    <path d="M 398.691525 212.477175 
C 398.691525 191.061706 394.473145 169.854475 386.2778 150.069161 
C 378.082454 130.283847 366.069523 112.305225 350.926499 97.162201 
C 335.783476 82.019178 317.804853 70.006246 298.01954 61.810901 
C 278.234226 53.615556 257.026995 49.397175 235.611525 49.397175 
C 214.196056 49.397175 192.988825 53.615556 173.203511 61.810901 
C 153.418197 70.006246 135.439575 82.019178 120.296552 97.162201 
C 105.153528 112.305225 93.140597 130.283847 84.945251 150.069161 
C 76.749906 169.854475 72.531525 191.061706 72.531525 212.477175 
C 72.531525 233.892644 76.749906 255.099875 84.945251 274.885189 
C 93.140597 294.670503 105.153528 312.649125 120.296552 327.792149 
C 135.439575 342.935172 153.418197 354.948104 173.203511 363.143449 
C 192.988825 371.338794 214.196056 375.557175 235.611525 375.557175 
C 257.026995 375.557175 278.234226 371.338794 298.01954 363.143449 
C 317.804853 354.948104 335.783476 342.935172 350.926499 327.792149 
C 366.069523 312.649125 378.082454 294.670503 386.2778 274.885189 
C 394.473145 255.099875 398.691525 233.892644 398.691525 212.477175 
M 235.611525 212.477175 
C 235.611525 212.477175 235.611525 212.477175 235.611525 212.477175 
C 235.611525 212.477175 235.611525 212.477175 235.611525 212.477175 
C 235.611525 212.477175 235.611525 212.477175 235.611525 212.477175 
C 235.611525 212.477175 235.611525 212.477175 235.611525 212.477175 
C 235.611525 212.477175 235.611525 212.477175 235.611525 212.477175 
C 235.611525 212.477175 235.611525 212.477175 235.611525 212.477175 
C 235.611525 212.477175 235.611525 212.477175 235.611525 212.477175 
C 235.611525 212.477175 235.611525 212.477175 235.611525 212.477175 
C 235.611525 212.477175 235.611525 212.477175 235.611525 212.477175 
C 235.611525 212.477175 235.611525 212.477175 235.611525 212.477175 
C 235.611525 212.477175 235.611525 212.477175 235.611525 212.477175 
C 235.611525 212.477175 235.611525 212.477175 235.611525 212.477175 
C 235.611525 212.477175 235.611525 212.477175 235.611525 212.477175 
C 235.611525 212.477175 235.611525 212.477175 235.611525 212.477175 
C 235.611525 212.477175 235.611525 212.477175 235.611525 212.477175 
C 235.611525 212.477175 235.611525 212.477175 235.611525 212.477175 
M 398.691525 212.477175 
z
" style="fill: #ffffff"/>
   </g>
   <g id="patch_3">
    <path d="M 235.611525 200.592728 
L 251.857692 207.198475 
L 243.471845 223.295977 
L 217.620903 237.239143 
L 87.360634 164.30754 
z
" clip-path="url(#pd1198da3d1)" style="fill: #ff00e4; opacity: 0.25; stroke: #ff00e4; stroke-linejoin: miter"/>
   </g>
   <g id="matplotlib.axis_1">
    <g id="xtick_1">
     <g id="line2d_1">
      <path d="M 235.611525 212.477175 
L 235.611525 49.397175 
" clip-path="url(#pd1198da3d1)" style="fill: none; stroke: #b0b0b0; stroke-width: 0.8; stroke-linecap: square"/>
     </g>
     <g id="text_1">
      <!-- RNN -->
      <g transform="translate(224.656057 38.15655)scale(0.1 -0.1)">
       <defs>
        <path id="DejaVuSans-52" d="M 2841 2188 
Q 3044 2119 3236 1894 
Q 3428 1669 3622 1275 
L 4263 0 
L 3584 0 
L 2988 1197 
Q 2756 1666 2539 1819 
Q 2322 1972 1947 1972 
L 1259 1972 
L 1259 0 
L 628 0 
L 628 4666 
L 2053 4666 
Q 2853 4666 3247 4331 
Q 3641 3997 3641 3322 
Q 3641 2881 3436 2590 
Q 3231 2300 2841 2188 
z
M 1259 4147 
L 1259 2491 
L 2053 2491 
Q 2509 2491 2742 2702 
Q 2975 2913 2975 3322 
Q 2975 3731 2742 3939 
Q 2509 4147 2053 4147 
L 1259 4147 
z
" transform="scale(0.015625)"/>
        <path id="DejaVuSans-4e" d="M 628 4666 
L 1478 4666 
L 3547 763 
L 3547 4666 
L 4159 4666 
L 4159 0 
L 3309 0 
L 1241 3903 
L 1241 0 
L 628 0 
L 628 4666 
z
" transform="scale(0.015625)"/>
       </defs>
       <use xlink:href="#DejaVuSans-52"/>
       <use xlink:href="#DejaVuSans-4e" x="69.482422"/>
       <use xlink:href="#DejaVuSans-4e" x="144.287109"/>
      </g>
     </g>
    </g>
    <g id="xtick_2">
     <g id="line2d_2">
      <path d="M 235.611525 212.477175 
L 390.709822 162.082684 
" clip-path="url(#pd1198da3d1)" style="fill: none; stroke: #b0b0b0; stroke-width: 0.8; stroke-linecap: square"/>
     </g>
     <g id="text_2">
      <!-- LSTM -->
      <g transform="translate(404.024613 160.515821)scale(0.1 -0.1)">
       <defs>
        <path id="DejaVuSans-4c" d="M 628 4666 
L 1259 4666 
L 1259 531 
L 3531 531 
L 3531 0 
L 628 0 
L 628 4666 
z
" transform="scale(0.015625)"/>
        <path id="DejaVuSans-53" d="M 3425 4513 
L 3425 3897 
Q 3066 4069 2747 4153 
Q 2428 4238 2131 4238 
Q 1616 4238 1336 4038 
Q 1056 3838 1056 3469 
Q 1056 3159 1242 3001 
Q 1428 2844 1947 2747 
L 2328 2669 
Q 3034 2534 3370 2195 
Q 3706 1856 3706 1288 
Q 3706 609 3251 259 
Q 2797 -91 1919 -91 
Q 1588 -91 1214 -16 
Q 841 59 441 206 
L 441 856 
Q 825 641 1194 531 
Q 1563 422 1919 422 
Q 2459 422 2753 634 
Q 3047 847 3047 1241 
Q 3047 1584 2836 1778 
Q 2625 1972 2144 2069 
L 1759 2144 
Q 1053 2284 737 2584 
Q 422 2884 422 3419 
Q 422 4038 858 4394 
Q 1294 4750 2059 4750 
Q 2388 4750 2728 4690 
Q 3069 4631 3425 4513 
z
" transform="scale(0.015625)"/>
        <path id="DejaVuSans-54" d="M -19 4666 
L 3928 4666 
L 3928 4134 
L 2272 4134 
L 2272 0 
L 1638 0 
L 1638 4134 
L -19 4134 
L -19 4666 
z
" transform="scale(0.015625)"/>
        <path id="DejaVuSans-4d" d="M 628 4666 
L 1569 4666 
L 2759 1491 
L 3956 4666 
L 4897 4666 
L 4897 0 
L 4281 0 
L 4281 4097 
L 3078 897 
L 2444 897 
L 1241 4097 
L 1241 0 
L 628 0 
L 628 4666 
z
" transform="scale(0.015625)"/>
       </defs>
       <use xlink:href="#DejaVuSans-4c"/>
       <use xlink:href="#DejaVuSans-53" x="55.712891"/>
       <use xlink:href="#DejaVuSans-54" x="119.189453"/>
       <use xlink:href="#DejaVuSans-4d" x="180.273438"/>
      </g>
     </g>
    </g>
    <g id="xtick_3">
     <g id="line2d_3">
      <path d="M 235.611525 212.477175 
L 331.467544 344.411666 
" clip-path="url(#pd1198da3d1)" style="fill: none; stroke: #b0b0b0; stroke-width: 0.8; stroke-linecap: square"/>
     </g>
     <g id="text_3">
      <!-- GRU -->
      <g transform="translate(339.696538 358.497279)scale(0.1 -0.1)">
       <defs>
        <path id="DejaVuSans-47" d="M 3809 666 
L 3809 1919 
L 2778 1919 
L 2778 2438 
L 4434 2438 
L 4434 434 
Q 4069 175 3628 42 
Q 3188 -91 2688 -91 
Q 1594 -91 976 548 
Q 359 1188 359 2328 
Q 359 3472 976 4111 
Q 1594 4750 2688 4750 
Q 3144 4750 3555 4637 
Q 3966 4525 4313 4306 
L 4313 3634 
Q 3963 3931 3569 4081 
Q 3175 4231 2741 4231 
Q 1884 4231 1454 3753 
Q 1025 3275 1025 2328 
Q 1025 1384 1454 906 
Q 1884 428 2741 428 
Q 3075 428 3337 486 
Q 3600 544 3809 666 
z
" transform="scale(0.015625)"/>
        <path id="DejaVuSans-55" d="M 556 4666 
L 1191 4666 
L 1191 1831 
Q 1191 1081 1462 751 
Q 1734 422 2344 422 
Q 2950 422 3222 751 
Q 3494 1081 3494 1831 
L 3494 4666 
L 4128 4666 
L 4128 1753 
Q 4128 841 3676 375 
Q 3225 -91 2344 -91 
Q 1459 -91 1007 375 
Q 556 841 556 1753 
L 556 4666 
z
" transform="scale(0.015625)"/>
       </defs>
       <use xlink:href="#DejaVuSans-47"/>
       <use xlink:href="#DejaVuSans-52" x="77.490234"/>
       <use xlink:href="#DejaVuSans-55" x="146.972656"/>
      </g>
     </g>
    </g>
    <g id="xtick_4">
     <g id="line2d_4">
      <path d="M 235.611525 212.477175 
L 139.755506 344.411666 
" clip-path="url(#pd1198da3d1)" style="fill: none; stroke: #b0b0b0; stroke-width: 0.8; stroke-linecap: square"/>
     </g>
     <g id="text_4">
      <!-- TST -->
      <g transform="translate(112.96245 358.497279)scale(0.1 -0.1)">
       <use xlink:href="#DejaVuSans-54"/>
       <use xlink:href="#DejaVuSans-53" x="61.083984"/>
       <use xlink:href="#DejaVuSans-54" x="124.560547"/>
      </g>
     </g>
    </g>
    <g id="xtick_5">
     <g id="line2d_5">
      <path d="M 235.611525 212.477175 
L 80.513229 162.082684 
" clip-path="url(#pd1198da3d1)" style="fill: none; stroke: #b0b0b0; stroke-width: 0.8; stroke-linecap: square"/>
     </g>
     <g id="text_5">
      <!-- Transformer -->
      <g transform="translate(7.2 160.515821)scale(0.1 -0.1)">
       <defs>
        <path id="DejaVuSans-72" d="M 2631 2963 
Q 2534 3019 2420 3045 
Q 2306 3072 2169 3072 
Q 1681 3072 1420 2755 
Q 1159 2438 1159 1844 
L 1159 0 
L 581 0 
L 581 3500 
L 1159 3500 
L 1159 2956 
Q 1341 3275 1631 3429 
Q 1922 3584 2338 3584 
Q 2397 3584 2469 3576 
Q 2541 3569 2628 3553 
L 2631 2963 
z
" transform="scale(0.015625)"/>
        <path id="DejaVuSans-61" d="M 2194 1759 
Q 1497 1759 1228 1600 
Q 959 1441 959 1056 
Q 959 750 1161 570 
Q 1363 391 1709 391 
Q 2188 391 2477 730 
Q 2766 1069 2766 1631 
L 2766 1759 
L 2194 1759 
z
M 3341 1997 
L 3341 0 
L 2766 0 
L 2766 531 
Q 2569 213 2275 61 
Q 1981 -91 1556 -91 
Q 1019 -91 701 211 
Q 384 513 384 1019 
Q 384 1609 779 1909 
Q 1175 2209 1959 2209 
L 2766 2209 
L 2766 2266 
Q 2766 2663 2505 2880 
Q 2244 3097 1772 3097 
Q 1472 3097 1187 3025 
Q 903 2953 641 2809 
L 641 3341 
Q 956 3463 1253 3523 
Q 1550 3584 1831 3584 
Q 2591 3584 2966 3190 
Q 3341 2797 3341 1997 
z
" transform="scale(0.015625)"/>
        <path id="DejaVuSans-6e" d="M 3513 2113 
L 3513 0 
L 2938 0 
L 2938 2094 
Q 2938 2591 2744 2837 
Q 2550 3084 2163 3084 
Q 1697 3084 1428 2787 
Q 1159 2491 1159 1978 
L 1159 0 
L 581 0 
L 581 3500 
L 1159 3500 
L 1159 2956 
Q 1366 3272 1645 3428 
Q 1925 3584 2291 3584 
Q 2894 3584 3203 3211 
Q 3513 2838 3513 2113 
z
" transform="scale(0.015625)"/>
        <path id="DejaVuSans-73" d="M 2834 3397 
L 2834 2853 
Q 2591 2978 2328 3040 
Q 2066 3103 1784 3103 
Q 1356 3103 1142 2972 
Q 928 2841 928 2578 
Q 928 2378 1081 2264 
Q 1234 2150 1697 2047 
L 1894 2003 
Q 2506 1872 2764 1633 
Q 3022 1394 3022 966 
Q 3022 478 2636 193 
Q 2250 -91 1575 -91 
Q 1294 -91 989 -36 
Q 684 19 347 128 
L 347 722 
Q 666 556 975 473 
Q 1284 391 1588 391 
Q 1994 391 2212 530 
Q 2431 669 2431 922 
Q 2431 1156 2273 1281 
Q 2116 1406 1581 1522 
L 1381 1569 
Q 847 1681 609 1914 
Q 372 2147 372 2553 
Q 372 3047 722 3315 
Q 1072 3584 1716 3584 
Q 2034 3584 2315 3537 
Q 2597 3491 2834 3397 
z
" transform="scale(0.015625)"/>
        <path id="DejaVuSans-66" d="M 2375 4863 
L 2375 4384 
L 1825 4384 
Q 1516 4384 1395 4259 
Q 1275 4134 1275 3809 
L 1275 3500 
L 2222 3500 
L 2222 3053 
L 1275 3053 
L 1275 0 
L 697 0 
L 697 3053 
L 147 3053 
L 147 3500 
L 697 3500 
L 697 3744 
Q 697 4328 969 4595 
Q 1241 4863 1831 4863 
L 2375 4863 
z
" transform="scale(0.015625)"/>
        <path id="DejaVuSans-6f" d="M 1959 3097 
Q 1497 3097 1228 2736 
Q 959 2375 959 1747 
Q 959 1119 1226 758 
Q 1494 397 1959 397 
Q 2419 397 2687 759 
Q 2956 1122 2956 1747 
Q 2956 2369 2687 2733 
Q 2419 3097 1959 3097 
z
M 1959 3584 
Q 2709 3584 3137 3096 
Q 3566 2609 3566 1747 
Q 3566 888 3137 398 
Q 2709 -91 1959 -91 
Q 1206 -91 779 398 
Q 353 888 353 1747 
Q 353 2609 779 3096 
Q 1206 3584 1959 3584 
z
" transform="scale(0.015625)"/>
        <path id="DejaVuSans-6d" d="M 3328 2828 
Q 3544 3216 3844 3400 
Q 4144 3584 4550 3584 
Q 5097 3584 5394 3201 
Q 5691 2819 5691 2113 
L 5691 0 
L 5113 0 
L 5113 2094 
Q 5113 2597 4934 2840 
Q 4756 3084 4391 3084 
Q 3944 3084 3684 2787 
Q 3425 2491 3425 1978 
L 3425 0 
L 2847 0 
L 2847 2094 
Q 2847 2600 2669 2842 
Q 2491 3084 2119 3084 
Q 1678 3084 1418 2786 
Q 1159 2488 1159 1978 
L 1159 0 
L 581 0 
L 581 3500 
L 1159 3500 
L 1159 2956 
Q 1356 3278 1631 3431 
Q 1906 3584 2284 3584 
Q 2666 3584 2933 3390 
Q 3200 3197 3328 2828 
z
" transform="scale(0.015625)"/>
        <path id="DejaVuSans-65" d="M 3597 1894 
L 3597 1613 
L 953 1613 
Q 991 1019 1311 708 
Q 1631 397 2203 397 
Q 2534 397 2845 478 
Q 3156 559 3463 722 
L 3463 178 
Q 3153 47 2828 -22 
Q 2503 -91 2169 -91 
Q 1331 -91 842 396 
Q 353 884 353 1716 
Q 353 2575 817 3079 
Q 1281 3584 2069 3584 
Q 2775 3584 3186 3129 
Q 3597 2675 3597 1894 
z
M 3022 2063 
Q 3016 2534 2758 2815 
Q 2500 3097 2075 3097 
Q 1594 3097 1305 2825 
Q 1016 2553 972 2059 
L 3022 2063 
z
" transform="scale(0.015625)"/>
       </defs>
       <use xlink:href="#DejaVuSans-54"/>
       <use xlink:href="#DejaVuSans-72" x="46.333984"/>
       <use xlink:href="#DejaVuSans-61" x="87.447266"/>
       <use xlink:href="#DejaVuSans-6e" x="148.726562"/>
       <use xlink:href="#DejaVuSans-73" x="212.105469"/>
       <use xlink:href="#DejaVuSans-66" x="264.205078"/>
       <use xlink:href="#DejaVuSans-6f" x="299.410156"/>
       <use xlink:href="#DejaVuSans-72" x="360.591797"/>
       <use xlink:href="#DejaVuSans-6d" x="399.955078"/>
       <use xlink:href="#DejaVuSans-65" x="497.367188"/>
       <use xlink:href="#DejaVuSans-72" x="558.890625"/>
      </g>
     </g>
    </g>
   </g>
   <g id="matplotlib.axis_2">
    <g id="ytick_1">
     <g id="line2d_6">
      <path d="M 235.611525 191.665252 
C 238.344522 191.665252 241.050944 192.203593 243.575904 193.249465 
C 246.100863 194.295338 248.395257 195.828403 250.327777 197.760923 
C 252.260298 199.693444 253.793363 201.987837 254.839235 204.512797 
C 255.885108 207.037757 256.423448 209.744178 256.423448 212.477175 
C 256.423448 215.210172 255.885108 217.916593 254.839235 220.441553 
C 253.793363 222.966513 252.260298 225.260906 250.327777 227.193427 
C 248.395257 229.125947 246.100863 230.659012 243.575904 231.704885 
C 241.050944 232.750757 238.344522 233.289098 235.611525 233.289098 
C 232.878529 233.289098 230.172107 232.750757 227.647147 231.704885 
C 225.122188 230.659012 222.827794 229.125947 220.895273 227.193427 
C 218.962753 225.260906 217.429688 222.966513 216.383816 220.441553 
C 215.337943 217.916593 214.799602 215.210172 214.799602 212.477175 
C 214.799602 209.744178 215.337943 207.037757 216.383816 204.512797 
C 217.429688 201.987837 218.962753 199.693444 220.895273 197.760923 
C 222.827794 195.828403 225.122188 194.295338 227.647147 193.249465 
C 230.172107 192.203593 232.878529 191.665252 235.611525 191.665252 
" clip-path="url(#pd1198da3d1)" style="fill: none; stroke: #b0b0b0; stroke-width: 0.8; stroke-linecap: square"/>
     </g>
     <g id="text_6">
      <!-- 5 -->
      <g transform="translate(247.844467 193.560288)scale(0.1 -0.1)">
       <defs>
        <path id="DejaVuSans-35" d="M 691 4666 
L 3169 4666 
L 3169 4134 
L 1269 4134 
L 1269 2991 
Q 1406 3038 1543 3061 
Q 1681 3084 1819 3084 
Q 2600 3084 3056 2656 
Q 3513 2228 3513 1497 
Q 3513 744 3044 326 
Q 2575 -91 1722 -91 
Q 1428 -91 1123 -41 
Q 819 9 494 109 
L 494 744 
Q 775 591 1075 516 
Q 1375 441 1709 441 
Q 2250 441 2565 725 
Q 2881 1009 2881 1497 
Q 2881 1984 2565 2268 
Q 2250 2553 1709 2553 
Q 1456 2553 1204 2497 
Q 953 2441 691 2322 
L 691 4666 
z
" transform="scale(0.015625)"/>
       </defs>
       <use xlink:href="#DejaVuSans-35"/>
      </g>
     </g>
    </g>
    <g id="ytick_2">
     <g id="line2d_7">
      <path d="M 235.611525 170.853329 
C 241.077519 170.853329 246.490362 171.93001 251.540282 174.021756 
C 256.590201 176.113501 261.178988 179.17963 265.044029 183.044671 
C 268.90907 186.909712 271.9752 191.498499 274.066945 196.548419 
C 276.15869 201.598338 277.235371 207.011182 277.235371 212.477175 
C 277.235371 217.943168 276.15869 223.356012 274.066945 228.405931 
C 271.9752 233.455851 268.90907 238.044638 265.044029 241.909679 
C 261.178988 245.77472 256.590201 248.840849 251.540282 250.932594 
C 246.490362 253.02434 241.077519 254.101021 235.611525 254.101021 
C 230.145532 254.101021 224.732689 253.02434 219.682769 250.932594 
C 214.63285 248.840849 210.044063 245.77472 206.179022 241.909679 
C 202.313981 238.044638 199.247851 233.455851 197.156106 228.405931 
C 195.064361 223.356012 193.987679 217.943168 193.987679 212.477175 
C 193.987679 207.011182 195.064361 201.598338 197.156106 196.548419 
C 199.247851 191.498499 202.313981 186.909712 206.179022 183.044671 
C 210.044063 179.17963 214.63285 176.113501 219.682769 174.021756 
C 224.732689 171.93001 230.145532 170.853329 235.611525 170.853329 
" clip-path="url(#pd1198da3d1)" style="fill: none; stroke: #b0b0b0; stroke-width: 0.8; stroke-linecap: square"/>
     </g>
     <g id="text_7">
      <!-- 10 -->
      <g transform="translate(260.077408 176.723089)scale(0.1 -0.1)">
       <defs>
        <path id="DejaVuSans-31" d="M 794 531 
L 1825 531 
L 1825 4091 
L 703 3866 
L 703 4441 
L 1819 4666 
L 2450 4666 
L 2450 531 
L 3481 531 
L 3481 0 
L 794 0 
L 794 531 
z
" transform="scale(0.015625)"/>
        <path id="DejaVuSans-30" d="M 2034 4250 
Q 1547 4250 1301 3770 
Q 1056 3291 1056 2328 
Q 1056 1369 1301 889 
Q 1547 409 2034 409 
Q 2525 409 2770 889 
Q 3016 1369 3016 2328 
Q 3016 3291 2770 3770 
Q 2525 4250 2034 4250 
z
M 2034 4750 
Q 2819 4750 3233 4129 
Q 3647 3509 3647 2328 
Q 3647 1150 3233 529 
Q 2819 -91 2034 -91 
Q 1250 -91 836 529 
Q 422 1150 422 2328 
Q 422 3509 836 4129 
Q 1250 4750 2034 4750 
z
" transform="scale(0.015625)"/>
       </defs>
       <use xlink:href="#DejaVuSans-31"/>
       <use xlink:href="#DejaVuSans-30" x="63.623047"/>
      </g>
     </g>
    </g>
    <g id="ytick_3">
     <g id="line2d_8">
      <path d="M 235.611525 150.041406 
C 243.810515 150.041406 251.929781 151.656428 259.50466 154.794046 
C 267.079539 157.931663 273.96272 162.530858 279.760281 168.328419 
C 285.557843 174.125981 290.157037 181.009161 293.294655 188.584041 
C 296.432272 196.15892 298.047295 204.278185 298.047295 212.477175 
C 298.047295 220.676165 296.432272 228.79543 293.294655 236.370309 
C 290.157037 243.945189 285.557843 250.828369 279.760281 256.625931 
C 273.96272 262.423492 267.079539 267.022687 259.50466 270.160304 
C 251.929781 273.297922 243.810515 274.912944 235.611525 274.912944 
C 227.412535 274.912944 219.29327 273.297922 211.718391 270.160304 
C 204.143512 267.022687 197.260331 262.423492 191.46277 256.625931 
C 185.665208 250.828369 181.066014 243.945189 177.928396 236.370309 
C 174.790779 228.79543 173.175756 220.676165 173.175756 212.477175 
C 173.175756 204.278185 174.790779 196.15892 177.928396 188.584041 
C 181.066014 181.009161 185.665208 174.125981 191.46277 168.328419 
C 197.260331 162.530858 204.143512 157.931663 211.718391 154.794046 
C 219.29327 151.656428 227.412535 150.041406 235.611525 150.041406 
" clip-path="url(#pd1198da3d1)" style="fill: none; stroke: #b0b0b0; stroke-width: 0.8; stroke-linecap: square"/>
     </g>
     <g id="text_8">
      <!-- 15 -->
      <g transform="translate(272.31035 159.885889)scale(0.1 -0.1)">
       <use xlink:href="#DejaVuSans-31"/>
       <use xlink:href="#DejaVuSans-35" x="63.623047"/>
      </g>
     </g>
    </g>
    <g id="ytick_4">
     <g id="line2d_9">
      <path d="M 235.611525 129.229483 
C 246.543512 129.229483 257.369199 131.382846 267.469038 135.566336 
C 277.568877 139.749826 286.746451 145.882085 294.476533 153.612167 
C 302.206615 161.342249 308.338874 170.519824 312.522364 180.619662 
C 316.705855 190.719501 318.859218 201.545188 318.859218 212.477175 
C 318.859218 223.409162 316.705855 234.234849 312.522364 244.334688 
C 308.338874 254.434526 302.206615 263.612101 294.476533 271.342183 
C 286.746451 279.072265 277.568877 285.204524 267.469038 289.388014 
C 257.369199 293.571504 246.543512 295.724867 235.611525 295.724867 
C 224.679539 295.724867 213.853852 293.571504 203.754013 289.388014 
C 193.654174 285.204524 184.4766 279.072265 176.746518 271.342183 
C 169.016436 263.612101 162.884177 254.434526 158.700686 244.334688 
C 154.517196 234.234849 152.363833 223.409162 152.363833 212.477175 
C 152.363833 201.545188 154.517196 190.719501 158.700686 180.619662 
C 162.884177 170.519824 169.016436 161.342249 176.746518 153.612167 
C 184.4766 145.882085 193.654174 139.749826 203.754013 135.566336 
C 213.853852 131.382846 224.679539 129.229483 235.611525 129.229483 
" clip-path="url(#pd1198da3d1)" style="fill: none; stroke: #b0b0b0; stroke-width: 0.8; stroke-linecap: square"/>
     </g>
     <g id="text_9">
      <!-- 20 -->
      <g transform="translate(284.543291 143.04869)scale(0.1 -0.1)">
       <defs>
        <path id="DejaVuSans-32" d="M 1228 531 
L 3431 531 
L 3431 0 
L 469 0 
L 469 531 
Q 828 903 1448 1529 
Q 2069 2156 2228 2338 
Q 2531 2678 2651 2914 
Q 2772 3150 2772 3378 
Q 2772 3750 2511 3984 
Q 2250 4219 1831 4219 
Q 1534 4219 1204 4116 
Q 875 4013 500 3803 
L 500 4441 
Q 881 4594 1212 4672 
Q 1544 4750 1819 4750 
Q 2544 4750 2975 4387 
Q 3406 4025 3406 3419 
Q 3406 3131 3298 2873 
Q 3191 2616 2906 2266 
Q 2828 2175 2409 1742 
Q 1991 1309 1228 531 
z
" transform="scale(0.015625)"/>
       </defs>
       <use xlink:href="#DejaVuSans-32"/>
       <use xlink:href="#DejaVuSans-30" x="63.623047"/>
      </g>
     </g>
    </g>
    <g id="ytick_5">
     <g id="line2d_10">
      <path d="M 235.611525 108.41756 
C 249.276509 108.41756 262.808618 111.109264 275.433416 116.338626 
C 288.058215 121.567989 299.530183 129.233313 309.192785 138.895915 
C 318.855387 148.558518 326.520711 160.030486 331.750074 172.655284 
C 336.979437 185.280083 339.671141 198.812192 339.671141 212.477175 
C 339.671141 226.142158 336.979437 239.674267 331.750074 252.299066 
C 326.520711 264.923864 318.855387 276.395832 309.192785 286.058435 
C 299.530183 295.721037 288.058215 303.386361 275.433416 308.615724 
C 262.808618 313.845086 249.276509 316.53679 235.611525 316.53679 
C 221.946542 316.53679 208.414433 313.845086 195.789635 308.615724 
C 183.164836 303.386361 171.692868 295.721037 162.030266 286.058435 
C 152.367663 276.395832 144.70234 264.923864 139.472977 252.299066 
C 134.243614 239.674267 131.55191 226.142158 131.55191 212.477175 
C 131.55191 198.812192 134.243614 185.280083 139.472977 172.655284 
C 144.70234 160.030486 152.367663 148.558518 162.030266 138.895915 
C 171.692868 129.233313 183.164836 121.567989 195.789635 116.338626 
C 208.414433 111.109264 221.946542 108.41756 235.611525 108.41756 
" clip-path="url(#pd1198da3d1)" style="fill: none; stroke: #b0b0b0; stroke-width: 0.8; stroke-linecap: square"/>
     </g>
     <g id="text_10">
      <!-- 25 -->
      <g transform="translate(296.776233 126.21149)scale(0.1 -0.1)">
       <use xlink:href="#DejaVuSans-32"/>
       <use xlink:href="#DejaVuSans-35" x="63.623047"/>
      </g>
     </g>
    </g>
    <g id="ytick_6">
     <g id="line2d_11">
      <path d="M 235.611525 87.605637 
C 252.009506 87.605637 268.248036 90.835681 283.397794 97.110917 
C 298.547553 103.386152 312.313914 112.584541 323.909037 124.179664 
C 335.50416 135.774786 344.702548 149.541148 350.977784 164.690906 
C 357.253019 179.840664 360.483064 196.079195 360.483064 212.477175 
C 360.483064 228.875155 357.253019 245.113686 350.977784 260.263444 
C 344.702548 275.413202 335.50416 289.179564 323.909037 300.774686 
C 312.313914 312.369809 298.547553 321.568198 283.397794 327.843433 
C 268.248036 334.118669 252.009506 337.348713 235.611525 337.348713 
C 219.213545 337.348713 202.975015 334.118669 187.825257 327.843433 
C 172.675498 321.568198 158.909137 312.369809 147.314014 300.774686 
C 135.718891 289.179564 126.520502 275.413202 120.245267 260.263444 
C 113.970032 245.113686 110.739987 228.875155 110.739987 212.477175 
C 110.739987 196.079195 113.970032 179.840664 120.245267 164.690906 
C 126.520502 149.541148 135.718891 135.774786 147.314014 124.179664 
C 158.909137 112.584541 172.675498 103.386152 187.825257 97.110917 
C 202.975015 90.835681 219.213545 87.605637 235.611525 87.605637 
" clip-path="url(#pd1198da3d1)" style="fill: none; stroke: #b0b0b0; stroke-width: 0.8; stroke-linecap: square"/>
     </g>
     <g id="text_11">
      <!-- 30 -->
      <g transform="translate(309.009174 109.374291)scale(0.1 -0.1)">
       <defs>
        <path id="DejaVuSans-33" d="M 2597 2516 
Q 3050 2419 3304 2112 
Q 3559 1806 3559 1356 
Q 3559 666 3084 287 
Q 2609 -91 1734 -91 
Q 1441 -91 1130 -33 
Q 819 25 488 141 
L 488 750 
Q 750 597 1062 519 
Q 1375 441 1716 441 
Q 2309 441 2620 675 
Q 2931 909 2931 1356 
Q 2931 1769 2642 2001 
Q 2353 2234 1838 2234 
L 1294 2234 
L 1294 2753 
L 1863 2753 
Q 2328 2753 2575 2939 
Q 2822 3125 2822 3475 
Q 2822 3834 2567 4026 
Q 2313 4219 1838 4219 
Q 1578 4219 1281 4162 
Q 984 4106 628 3988 
L 628 4550 
Q 988 4650 1302 4700 
Q 1616 4750 1894 4750 
Q 2613 4750 3031 4423 
Q 3450 4097 3450 3541 
Q 3450 3153 3228 2886 
Q 3006 2619 2597 2516 
z
" transform="scale(0.015625)"/>
       </defs>
       <use xlink:href="#DejaVuSans-33"/>
       <use xlink:href="#DejaVuSans-30" x="63.623047"/>
      </g>
     </g>
    </g>
    <g id="ytick_7">
     <g id="line2d_12">
      <path d="M 235.611525 66.793714 
C 254.742502 66.793714 273.687454 70.562099 291.362172 77.883207 
C 309.03689 85.204315 325.097645 95.935768 338.625289 109.463412 
C 352.152932 122.991055 362.884386 139.05181 370.205494 156.726528 
C 377.526601 174.401246 381.294987 193.346198 381.294987 212.477175 
C 381.294987 231.608152 377.526601 250.553104 370.205494 268.227822 
C 362.884386 285.90254 352.152932 301.963295 338.625289 315.490938 
C 325.097645 329.018582 309.03689 339.750035 291.362172 347.071143 
C 273.687454 354.392251 254.742502 358.160636 235.611525 358.160636 
C 216.480549 358.160636 197.535596 354.392251 179.860878 347.071143 
C 162.18616 339.750035 146.125405 329.018582 132.597762 315.490938 
C 119.070119 301.963295 108.338665 285.90254 101.017557 268.227822 
C 93.696449 250.553104 89.928064 231.608152 89.928064 212.477175 
C 89.928064 193.346198 93.696449 174.401246 101.017557 156.726528 
C 108.338665 139.05181 119.070119 122.991055 132.597762 109.463412 
C 146.125405 95.935768 162.18616 85.204315 179.860878 77.883207 
C 197.535596 70.562099 216.480549 66.793714 235.611525 66.793714 
" clip-path="url(#pd1198da3d1)" style="fill: none; stroke: #b0b0b0; stroke-width: 0.8; stroke-linecap: square"/>
     </g>
     <g id="text_12">
      <!-- 35 -->
      <g transform="translate(321.242115 92.537092)scale(0.1 -0.1)">
       <use xlink:href="#DejaVuSans-33"/>
       <use xlink:href="#DejaVuSans-35" x="63.623047"/>
      </g>
     </g>
    </g>
   </g>
   <g id="line2d_13">
    <path d="M 235.611525 200.592728 
L 251.857692 207.198475 
L 243.471845 223.295977 
L 217.620903 237.239143 
L 87.360634 164.30754 
" clip-path="url(#pd1198da3d1)" style="fill: none; stroke: #ff00e4; stroke-linecap: square"/>
   </g>
   <g id="patch_4">
    <path d="M 235.611525 49.397175 
C 214.196056 49.397175 192.988825 53.615556 173.203511 61.810901 
C 153.418197 70.006246 135.439575 82.019178 120.296552 97.162201 
C 105.153528 112.305225 93.140597 130.283847 84.945251 150.069161 
C 76.749906 169.854475 72.531525 191.061706 72.531525 212.477175 
C 72.531525 233.892644 76.749906 255.099875 84.945251 274.885189 
C 93.140597 294.670503 105.153528 312.649125 120.296552 327.792149 
C 135.439575 342.935172 153.418197 354.948104 173.203511 363.143449 
C 192.988825 371.338794 214.196056 375.557175 235.611525 375.557175 
C 257.026995 375.557175 278.234226 371.338794 298.01954 363.143449 
C 317.804853 354.948104 335.783476 342.935172 350.926499 327.792149 
C 366.069523 312.649125 378.082454 294.670503 386.2778 274.885189 
C 394.473145 255.099875 398.691525 233.892644 398.691525 212.477175 
C 398.691525 191.061706 394.473145 169.854475 386.2778 150.069161 
C 378.082454 130.283847 366.069523 112.305225 350.926499 97.162201 
C 335.783476 82.019178 317.804853 70.006246 298.01954 61.810901 
C 278.234226 53.615556 257.026995 49.397175 235.611525 49.397175 
" style="fill: none; stroke: #000000; stroke-width: 0.8; stroke-linejoin: miter; stroke-linecap: square"/>
   </g>
   <g id="text_13">
    <!-- MSE Metrics  [x $10^{-3}$]  -->
    <g transform="translate(169.191525 17.304375)scale(0.12 -0.12)">
     <defs>
      <path id="DejaVuSans-45" d="M 628 4666 
L 3578 4666 
L 3578 4134 
L 1259 4134 
L 1259 2753 
L 3481 2753 
L 3481 2222 
L 1259 2222 
L 1259 531 
L 3634 531 
L 3634 0 
L 628 0 
L 628 4666 
z
" transform="scale(0.015625)"/>
      <path id="DejaVuSans-20" transform="scale(0.015625)"/>
      <path id="DejaVuSans-74" d="M 1172 4494 
L 1172 3500 
L 2356 3500 
L 2356 3053 
L 1172 3053 
L 1172 1153 
Q 1172 725 1289 603 
Q 1406 481 1766 481 
L 2356 481 
L 2356 0 
L 1766 0 
Q 1100 0 847 248 
Q 594 497 594 1153 
L 594 3053 
L 172 3053 
L 172 3500 
L 594 3500 
L 594 4494 
L 1172 4494 
z
" transform="scale(0.015625)"/>
      <path id="DejaVuSans-69" d="M 603 3500 
L 1178 3500 
L 1178 0 
L 603 0 
L 603 3500 
z
M 603 4863 
L 1178 4863 
L 1178 4134 
L 603 4134 
L 603 4863 
z
" transform="scale(0.015625)"/>
      <path id="DejaVuSans-63" d="M 3122 3366 
L 3122 2828 
Q 2878 2963 2633 3030 
Q 2388 3097 2138 3097 
Q 1578 3097 1268 2742 
Q 959 2388 959 1747 
Q 959 1106 1268 751 
Q 1578 397 2138 397 
Q 2388 397 2633 464 
Q 2878 531 3122 666 
L 3122 134 
Q 2881 22 2623 -34 
Q 2366 -91 2075 -91 
Q 1284 -91 818 406 
Q 353 903 353 1747 
Q 353 2603 823 3093 
Q 1294 3584 2113 3584 
Q 2378 3584 2631 3529 
Q 2884 3475 3122 3366 
z
" transform="scale(0.015625)"/>
      <path id="DejaVuSans-5b" d="M 550 4863 
L 1875 4863 
L 1875 4416 
L 1125 4416 
L 1125 -397 
L 1875 -397 
L 1875 -844 
L 550 -844 
L 550 4863 
z
" transform="scale(0.015625)"/>
      <path id="DejaVuSans-78" d="M 3513 3500 
L 2247 1797 
L 3578 0 
L 2900 0 
L 1881 1375 
L 863 0 
L 184 0 
L 1544 1831 
L 300 3500 
L 978 3500 
L 1906 2253 
L 2834 3500 
L 3513 3500 
z
" transform="scale(0.015625)"/>
      <path id="DejaVuSans-2212" d="M 678 2272 
L 4684 2272 
L 4684 1741 
L 678 1741 
L 678 2272 
z
" transform="scale(0.015625)"/>
      <path id="DejaVuSans-5d" d="M 1947 4863 
L 1947 -844 
L 622 -844 
L 622 -397 
L 1369 -397 
L 1369 4416 
L 622 4416 
L 622 4863 
L 1947 4863 
z
" transform="scale(0.015625)"/>
     </defs>
     <use xlink:href="#DejaVuSans-4d" transform="translate(0 0.765625)"/>
     <use xlink:href="#DejaVuSans-53" transform="translate(86.279297 0.765625)"/>
     <use xlink:href="#DejaVuSans-45" transform="translate(149.755859 0.765625)"/>
     <use xlink:href="#DejaVuSans-20" transform="translate(212.939453 0.765625)"/>
     <use xlink:href="#DejaVuSans-4d" transform="translate(244.726562 0.765625)"/>
     <use xlink:href="#DejaVuSans-65" transform="translate(331.005859 0.765625)"/>
     <use xlink:href="#DejaVuSans-74" transform="translate(392.529297 0.765625)"/>
     <use xlink:href="#DejaVuSans-72" transform="translate(431.738281 0.765625)"/>
     <use xlink:href="#DejaVuSans-69" transform="translate(472.851562 0.765625)"/>
     <use xlink:href="#DejaVuSans-63" transform="translate(500.634766 0.765625)"/>
     <use xlink:href="#DejaVuSans-73" transform="translate(555.615234 0.765625)"/>
     <use xlink:href="#DejaVuSans-20" transform="translate(607.714844 0.765625)"/>
     <use xlink:href="#DejaVuSans-20" transform="translate(639.501953 0.765625)"/>
     <use xlink:href="#DejaVuSans-5b" transform="translate(671.289062 0.765625)"/>
     <use xlink:href="#DejaVuSans-78" transform="translate(710.302734 0.765625)"/>
     <use xlink:href="#DejaVuSans-20" transform="translate(769.482422 0.765625)"/>
     <use xlink:href="#DejaVuSans-31" transform="translate(801.269531 0.765625)"/>
     <use xlink:href="#DejaVuSans-30" transform="translate(864.892578 0.765625)"/>
     <use xlink:href="#DejaVuSans-2212" transform="translate(929.472656 39.046875)scale(0.7)"/>
     <use xlink:href="#DejaVuSans-33" transform="translate(988.125 39.046875)scale(0.7)"/>
     <use xlink:href="#DejaVuSans-5d" transform="translate(1035.395508 0.765625)"/>
     <use xlink:href="#DejaVuSans-20" transform="translate(1074.40918 0.765625)"/>
    </g>
   </g>
  </g>
 </g>
 <defs>
  <clipPath id="pd1198da3d1">
   <path d="M 398.691525 212.477175 
C 398.691525 191.061706 394.473145 169.854475 386.2778 150.069161 
C 378.082454 130.283847 366.069523 112.305225 350.926499 97.162201 
C 335.783476 82.019178 317.804853 70.006246 298.01954 61.810901 
C 278.234226 53.615556 257.026995 49.397175 235.611525 49.397175 
C 214.196056 49.397175 192.988825 53.615556 173.203511 61.810901 
C 153.418197 70.006246 135.439575 82.019178 120.296552 97.162201 
C 105.153528 112.305225 93.140597 130.283847 84.945251 150.069161 
C 76.749906 169.854475 72.531525 191.061706 72.531525 212.477175 
C 72.531525 233.892644 76.749906 255.099875 84.945251 274.885189 
C 93.140597 294.670503 105.153528 312.649125 120.296552 327.792149 
C 135.439575 342.935172 153.418197 354.948104 173.203511 363.143449 
C 192.988825 371.338794 214.196056 375.557175 235.611525 375.557175 
C 257.026995 375.557175 278.234226 371.338794 298.01954 363.143449 
C 317.804853 354.948104 335.783476 342.935172 350.926499 327.792149 
C 366.069523 312.649125 378.082454 294.670503 386.2778 274.885189 
C 394.473145 255.099875 398.691525 233.892644 398.691525 212.477175 
M 235.611525 212.477175 
C 235.611525 212.477175 235.611525 212.477175 235.611525 212.477175 
C 235.611525 212.477175 235.611525 212.477175 235.611525 212.477175 
C 235.611525 212.477175 235.611525 212.477175 235.611525 212.477175 
C 235.611525 212.477175 235.611525 212.477175 235.611525 212.477175 
C 235.611525 212.477175 235.611525 212.477175 235.611525 212.477175 
C 235.611525 212.477175 235.611525 212.477175 235.611525 212.477175 
C 235.611525 212.477175 235.611525 212.477175 235.611525 212.477175 
C 235.611525 212.477175 235.611525 212.477175 235.611525 212.477175 
C 235.611525 212.477175 235.611525 212.477175 235.611525 212.477175 
C 235.611525 212.477175 235.611525 212.477175 235.611525 212.477175 
C 235.611525 212.477175 235.611525 212.477175 235.611525 212.477175 
C 235.611525 212.477175 235.611525 212.477175 235.611525 212.477175 
C 235.611525 212.477175 235.611525 212.477175 235.611525 212.477175 
C 235.611525 212.477175 235.611525 212.477175 235.611525 212.477175 
C 235.611525 212.477175 235.611525 212.477175 235.611525 212.477175 
C 235.611525 212.477175 235.611525 212.477175 235.611525 212.477175 
M 398.691525 212.477175 
z
"/>
  </clipPath>
 </defs>
</svg>
