<?xml version="1.0" encoding="UTF-8" standalone="no"?>
<!DOCTYPE svg PUBLIC "-//W3C//DTD SVG 1.1//EN"
 "http://www.w3.org/Graphics/SVG/1.1/DTD/svg11.dtd">
<!-- Generated by graphviz version 2.50.0 (0)
 -->
<!-- Pages: 1 -->
<svg width="2420pt" height="392pt"
 viewBox="0.00 0.00 2420.00 392.00" xmlns="http://www.w3.org/2000/svg" xmlns:xlink="http://www.w3.org/1999/xlink">
<g id="graph0" class="graph" transform="scale(1 1) rotate(0) translate(4 388)">
<polygon fill="white" stroke="transparent" points="-4,4 -4,-388 2416,-388 2416,4 -4,4"/>
<!-- 0 -->
<g id="node1" class="node">
<title>0</title>
<ellipse fill="#78cb0e" stroke="black" cx="1276" cy="-366" rx="102.88" ry="18"/>
<text text-anchor="middle" x="1276" y="-362.3" font-family="Times,serif" font-size="14.00">generation&lt;&#45;0.586474299</text>
</g>
<!-- 1 -->
<g id="node2" class="node">
<title>1</title>
<ellipse fill="#78cb0e" stroke="black" cx="877" cy="-279" rx="102.08" ry="18"/>
<text text-anchor="middle" x="877" y="-275.3" font-family="Times,serif" font-size="14.00">maxtempC&lt;0.488888919</text>
</g>
<!-- 0&#45;&gt;1 -->
<g id="edge1" class="edge">
<title>0&#45;&gt;1</title>
<path fill="none" stroke="#0000ff" d="M1213.22,-351.63C1141.6,-336.37 1024.68,-311.46 949.31,-295.4"/>
<polygon fill="#0000ff" stroke="#0000ff" points="949.93,-291.96 939.42,-293.3 948.47,-298.8 949.93,-291.96"/>
<text text-anchor="middle" x="1135.5" y="-318.8" font-family="Times,serif" font-size="14.00">yes, missing</text>
</g>
<!-- 2 -->
<g id="node3" class="node">
<title>2</title>
<ellipse fill="#78cb0e" stroke="black" cx="1533" cy="-279" rx="76.89" ry="18"/>
<text text-anchor="middle" x="1533" y="-275.3" font-family="Times,serif" font-size="14.00">FeelsLikeC&lt;0.625</text>
</g>
<!-- 0&#45;&gt;2 -->
<g id="edge2" class="edge">
<title>0&#45;&gt;2</title>
<path fill="none" stroke="#ff0000" d="M1321.95,-349.8C1366.56,-335.05 1434.2,-312.68 1480.82,-297.26"/>
<polygon fill="#ff0000" stroke="#ff0000" points="1482.04,-300.54 1490.44,-294.08 1479.84,-293.89 1482.04,-300.54"/>
<text text-anchor="middle" x="1427" y="-318.8" font-family="Times,serif" font-size="14.00">no</text>
</g>
<!-- 3 -->
<g id="node4" class="node">
<title>3</title>
<ellipse fill="#78cb0e" stroke="black" cx="430" cy="-192" rx="141.88" ry="18"/>
<text text-anchor="middle" x="430" y="-188.3" font-family="Times,serif" font-size="14.00">consumption_change&lt;0.0817838758</text>
</g>
<!-- 1&#45;&gt;3 -->
<g id="edge3" class="edge">
<title>1&#45;&gt;3</title>
<path fill="none" stroke="#0000ff" d="M810.08,-265.27C731.48,-250.33 600.96,-225.51 515.2,-209.2"/>
<polygon fill="#0000ff" stroke="#0000ff" points="515.71,-205.74 505.23,-207.31 514.4,-212.61 515.71,-205.74"/>
<text text-anchor="middle" x="715.5" y="-231.8" font-family="Times,serif" font-size="14.00">yes, missing</text>
</g>
<!-- 4 -->
<g id="node5" class="node">
<title>4</title>
<ellipse fill="#78cb0e" stroke="black" cx="877" cy="-192" rx="98.58" ry="18"/>
<text text-anchor="middle" x="877" y="-188.3" font-family="Times,serif" font-size="14.00">time_hour&lt;0.260869563</text>
</g>
<!-- 1&#45;&gt;4 -->
<g id="edge4" class="edge">
<title>1&#45;&gt;4</title>
<path fill="none" stroke="#ff0000" d="M877,-260.8C877,-249.16 877,-233.55 877,-220.24"/>
<polygon fill="#ff0000" stroke="#ff0000" points="880.5,-220.18 877,-210.18 873.5,-220.18 880.5,-220.18"/>
<text text-anchor="middle" x="884" y="-231.8" font-family="Times,serif" font-size="14.00">no</text>
</g>
<!-- 5 -->
<g id="node18" class="node">
<title>5</title>
<ellipse fill="#78cb0e" stroke="black" cx="1533" cy="-192" rx="99.38" ry="18"/>
<text text-anchor="middle" x="1533" y="-188.3" font-family="Times,serif" font-size="14.00">generation&lt;0.202164114</text>
</g>
<!-- 2&#45;&gt;5 -->
<g id="edge17" class="edge">
<title>2&#45;&gt;5</title>
<path fill="none" stroke="#0000ff" d="M1533,-260.8C1533,-249.16 1533,-233.55 1533,-220.24"/>
<polygon fill="#0000ff" stroke="#0000ff" points="1536.5,-220.18 1533,-210.18 1529.5,-220.18 1536.5,-220.18"/>
<text text-anchor="middle" x="1567.5" y="-231.8" font-family="Times,serif" font-size="14.00">yes, missing</text>
</g>
<!-- 6 -->
<g id="node19" class="node">
<title>6</title>
<ellipse fill="#78cb0e" stroke="black" cx="1918" cy="-192" rx="98.58" ry="18"/>
<text text-anchor="middle" x="1918" y="-188.3" font-family="Times,serif" font-size="14.00">time_hour&lt;0.260869563</text>
</g>
<!-- 2&#45;&gt;6 -->
<g id="edge18" class="edge">
<title>2&#45;&gt;6</title>
<path fill="none" stroke="#ff0000" d="M1586.94,-266.09C1655.17,-251.03 1772.8,-225.06 1847.92,-208.47"/>
<polygon fill="#ff0000" stroke="#ff0000" points="1848.77,-211.87 1857.78,-206.3 1847.26,-205.03 1848.77,-211.87"/>
<text text-anchor="middle" x="1756" y="-231.8" font-family="Times,serif" font-size="14.00">no</text>
</g>
<!-- 7 -->
<g id="node6" class="node">
<title>7</title>
<ellipse fill="#78cb0e" stroke="black" cx="172" cy="-105" rx="102.88" ry="18"/>
<text text-anchor="middle" x="172" y="-101.3" font-family="Times,serif" font-size="14.00">generation&lt;&#45;0.899909854</text>
</g>
<!-- 3&#45;&gt;7 -->
<g id="edge5" class="edge">
<title>3&#45;&gt;7</title>
<path fill="none" stroke="#0000ff" d="M381.47,-175.01C337.82,-160.63 273.7,-139.5 227.91,-124.42"/>
<polygon fill="#0000ff" stroke="#0000ff" points="228.73,-121.01 218.14,-121.2 226.54,-127.66 228.73,-121.01"/>
<text text-anchor="middle" x="351.5" y="-144.8" font-family="Times,serif" font-size="14.00">yes, missing</text>
</g>
<!-- 8 -->
<g id="node7" class="node">
<title>8</title>
<ellipse fill="#78cb0e" stroke="black" cx="430" cy="-105" rx="137.58" ry="18"/>
<text text-anchor="middle" x="430" y="-101.3" font-family="Times,serif" font-size="14.00">consumption_change&lt;0.314588368</text>
</g>
<!-- 3&#45;&gt;8 -->
<g id="edge6" class="edge">
<title>3&#45;&gt;8</title>
<path fill="none" stroke="#ff0000" d="M430,-173.8C430,-162.16 430,-146.55 430,-133.24"/>
<polygon fill="#ff0000" stroke="#ff0000" points="433.5,-133.18 430,-123.18 426.5,-133.18 433.5,-133.18"/>
<text text-anchor="middle" x="437" y="-144.8" font-family="Times,serif" font-size="14.00">no</text>
</g>
<!-- 9 -->
<g id="node12" class="node">
<title>9</title>
<ellipse fill="#78cb0e" stroke="black" cx="727" cy="-105" rx="141.88" ry="18"/>
<text text-anchor="middle" x="727" y="-101.3" font-family="Times,serif" font-size="14.00">consumption_change&lt;0.0633722767</text>
</g>
<!-- 4&#45;&gt;9 -->
<g id="edge11" class="edge">
<title>4&#45;&gt;9</title>
<path fill="none" stroke="#0000ff" d="M848.08,-174.61C824.47,-161.23 790.92,-142.22 765.12,-127.6"/>
<polygon fill="#0000ff" stroke="#0000ff" points="766.77,-124.51 756.34,-122.63 763.32,-130.6 766.77,-124.51"/>
<text text-anchor="middle" x="845.5" y="-144.8" font-family="Times,serif" font-size="14.00">yes, missing</text>
</g>
<!-- 10 -->
<g id="node13" class="node">
<title>10</title>
<ellipse fill="#78cb0e" stroke="black" cx="1027" cy="-105" rx="140.28" ry="18"/>
<text text-anchor="middle" x="1027" y="-101.3" font-family="Times,serif" font-size="14.00">consumption_change&lt;&#45;0.144837931</text>
</g>
<!-- 4&#45;&gt;10 -->
<g id="edge12" class="edge">
<title>4&#45;&gt;10</title>
<path fill="none" stroke="#ff0000" d="M905.92,-174.61C929.53,-161.23 963.08,-142.22 988.88,-127.6"/>
<polygon fill="#ff0000" stroke="#ff0000" points="990.68,-130.6 997.66,-122.63 987.23,-124.51 990.68,-130.6"/>
<text text-anchor="middle" x="968" y="-144.8" font-family="Times,serif" font-size="14.00">no</text>
</g>
<!-- 15 -->
<g id="node8" class="node">
<title>15</title>
<polygon fill="#e48038" stroke="black" points="128,-36 0,-36 0,0 128,0 128,-36"/>
<text text-anchor="middle" x="64" y="-14.3" font-family="Times,serif" font-size="14.00">leaf=&#45;0.0904457197</text>
</g>
<!-- 7&#45;&gt;15 -->
<g id="edge7" class="edge">
<title>7&#45;&gt;15</title>
<path fill="none" stroke="#0000ff" d="M143.32,-87.65C134.31,-82.11 124.5,-75.63 116,-69 106.07,-61.26 95.92,-51.88 87.25,-43.35"/>
<polygon fill="#0000ff" stroke="#0000ff" points="89.6,-40.75 80.06,-36.14 84.64,-45.69 89.6,-40.75"/>
<text text-anchor="middle" x="150.5" y="-57.8" font-family="Times,serif" font-size="14.00">yes, missing</text>
</g>
<!-- 16 -->
<g id="node9" class="node">
<title>16</title>
<polygon fill="#e48038" stroke="black" points="274,-36 146,-36 146,0 274,0 274,-36"/>
<text text-anchor="middle" x="210" y="-14.3" font-family="Times,serif" font-size="14.00">leaf=&#45;0.0987807289</text>
</g>
<!-- 7&#45;&gt;16 -->
<g id="edge8" class="edge">
<title>7&#45;&gt;16</title>
<path fill="none" stroke="#ff0000" d="M179.69,-86.8C185,-74.93 192.15,-58.93 198.18,-45.45"/>
<polygon fill="#ff0000" stroke="#ff0000" points="201.44,-46.73 202.32,-36.18 195.04,-43.88 201.44,-46.73"/>
<text text-anchor="middle" x="201" y="-57.8" font-family="Times,serif" font-size="14.00">no</text>
</g>
<!-- 17 -->
<g id="node10" class="node">
<title>17</title>
<polygon fill="#e48038" stroke="black" points="457,-36 329,-36 329,0 457,0 457,-36"/>
<text text-anchor="middle" x="393" y="-14.3" font-family="Times,serif" font-size="14.00">leaf=&#45;0.0623400994</text>
</g>
<!-- 8&#45;&gt;17 -->
<g id="edge9" class="edge">
<title>8&#45;&gt;17</title>
<path fill="none" stroke="#0000ff" d="M422.51,-86.8C417.35,-74.93 410.38,-58.93 404.51,-45.45"/>
<polygon fill="#0000ff" stroke="#0000ff" points="407.68,-43.95 400.48,-36.18 401.26,-46.74 407.68,-43.95"/>
<text text-anchor="middle" x="448.5" y="-57.8" font-family="Times,serif" font-size="14.00">yes, missing</text>
</g>
<!-- 18 -->
<g id="node11" class="node">
<title>18</title>
<polygon fill="#e48038" stroke="black" points="603,-36 475,-36 475,0 603,0 603,-36"/>
<text text-anchor="middle" x="539" y="-14.3" font-family="Times,serif" font-size="14.00">leaf=&#45;0.0394072607</text>
</g>
<!-- 8&#45;&gt;18 -->
<g id="edge10" class="edge">
<title>8&#45;&gt;18</title>
<path fill="none" stroke="#ff0000" d="M459.8,-87.36C468.81,-81.89 478.55,-75.54 487,-69 496.96,-61.3 507.12,-51.93 515.78,-43.4"/>
<polygon fill="#ff0000" stroke="#ff0000" points="518.4,-45.73 522.97,-36.18 513.44,-40.8 518.4,-45.73"/>
<text text-anchor="middle" x="511" y="-57.8" font-family="Times,serif" font-size="14.00">no</text>
</g>
<!-- 19 -->
<g id="node14" class="node">
<title>19</title>
<polygon fill="#e48038" stroke="black" points="770,-36 642,-36 642,0 770,0 770,-36"/>
<text text-anchor="middle" x="706" y="-14.3" font-family="Times,serif" font-size="14.00">leaf=&#45;0.0808277279</text>
</g>
<!-- 9&#45;&gt;19 -->
<g id="edge13" class="edge">
<title>9&#45;&gt;19</title>
<path fill="none" stroke="#0000ff" d="M722.75,-86.8C719.88,-75.16 716.02,-59.55 712.73,-46.24"/>
<polygon fill="#0000ff" stroke="#0000ff" points="716.04,-45.04 710.24,-36.18 709.24,-46.72 716.04,-45.04"/>
<text text-anchor="middle" x="752.5" y="-57.8" font-family="Times,serif" font-size="14.00">yes, missing</text>
</g>
<!-- 20 -->
<g id="node15" class="node">
<title>20</title>
<polygon fill="#e48038" stroke="black" points="916,-36 788,-36 788,0 916,0 916,-36"/>
<text text-anchor="middle" x="852" y="-14.3" font-family="Times,serif" font-size="14.00">leaf=&#45;0.0525268391</text>
</g>
<!-- 9&#45;&gt;20 -->
<g id="edge14" class="edge">
<title>9&#45;&gt;20</title>
<path fill="none" stroke="#ff0000" d="M760.25,-87.33C770.36,-81.87 781.34,-75.52 791,-69 802.64,-61.14 814.75,-51.56 825.08,-42.89"/>
<polygon fill="#ff0000" stroke="#ff0000" points="827.6,-45.33 832.94,-36.18 823.06,-40.01 827.6,-45.33"/>
<text text-anchor="middle" x="818" y="-57.8" font-family="Times,serif" font-size="14.00">no</text>
</g>
<!-- 21 -->
<g id="node16" class="node">
<title>21</title>
<polygon fill="#e48038" stroke="black" points="1076,-36 948,-36 948,0 1076,0 1076,-36"/>
<text text-anchor="middle" x="1012" y="-14.3" font-family="Times,serif" font-size="14.00">leaf=&#45;0.0711561069</text>
</g>
<!-- 10&#45;&gt;21 -->
<g id="edge15" class="edge">
<title>10&#45;&gt;21</title>
<path fill="none" stroke="#0000ff" d="M1023.96,-86.8C1021.91,-75.16 1019.16,-59.55 1016.81,-46.24"/>
<polygon fill="#0000ff" stroke="#0000ff" points="1020.22,-45.41 1015.03,-36.18 1013.32,-46.63 1020.22,-45.41"/>
<text text-anchor="middle" x="1055.5" y="-57.8" font-family="Times,serif" font-size="14.00">yes, missing</text>
</g>
<!-- 22 -->
<g id="node17" class="node">
<title>22</title>
<polygon fill="#e48038" stroke="black" points="1222,-36 1094,-36 1094,0 1222,0 1222,-36"/>
<text text-anchor="middle" x="1158" y="-14.3" font-family="Times,serif" font-size="14.00">leaf=&#45;0.0449556224</text>
</g>
<!-- 10&#45;&gt;22 -->
<g id="edge16" class="edge">
<title>10&#45;&gt;22</title>
<path fill="none" stroke="#ff0000" d="M1061.42,-87.54C1072.09,-82.04 1083.74,-75.61 1094,-69 1106.28,-61.09 1119.1,-51.39 1130.01,-42.65"/>
<polygon fill="#ff0000" stroke="#ff0000" points="1132.4,-45.22 1137.95,-36.2 1127.98,-39.79 1132.4,-45.22"/>
<text text-anchor="middle" x="1122" y="-57.8" font-family="Times,serif" font-size="14.00">no</text>
</g>
<!-- 11 -->
<g id="node20" class="node">
<title>11</title>
<ellipse fill="#78cb0e" stroke="black" cx="1323" cy="-105" rx="137.58" ry="18"/>
<text text-anchor="middle" x="1323" y="-101.3" font-family="Times,serif" font-size="14.00">consumption_change&lt;0.151066065</text>
</g>
<!-- 5&#45;&gt;11 -->
<g id="edge19" class="edge">
<title>5&#45;&gt;11</title>
<path fill="none" stroke="#0000ff" d="M1493.99,-175.21C1459.8,-161.37 1409.92,-141.18 1372.84,-126.17"/>
<polygon fill="#0000ff" stroke="#0000ff" points="1373.81,-122.79 1363.23,-122.28 1371.18,-129.28 1373.81,-122.79"/>
<text text-anchor="middle" x="1475.5" y="-144.8" font-family="Times,serif" font-size="14.00">yes, missing</text>
</g>
<!-- 12 -->
<g id="node21" class="node">
<title>12</title>
<ellipse fill="#78cb0e" stroke="black" cx="1617" cy="-105" rx="137.58" ry="18"/>
<text text-anchor="middle" x="1617" y="-101.3" font-family="Times,serif" font-size="14.00">consumption_change&lt;0.119425379</text>
</g>
<!-- 5&#45;&gt;12 -->
<g id="edge20" class="edge">
<title>5&#45;&gt;12</title>
<path fill="none" stroke="#ff0000" d="M1549.6,-174.21C1561.94,-161.72 1578.98,-144.48 1592.83,-130.46"/>
<polygon fill="#ff0000" stroke="#ff0000" points="1595.61,-132.62 1600.15,-123.05 1590.63,-127.7 1595.61,-132.62"/>
<text text-anchor="middle" x="1588" y="-144.8" font-family="Times,serif" font-size="14.00">no</text>
</g>
<!-- 13 -->
<g id="node26" class="node">
<title>13</title>
<ellipse fill="#78cb0e" stroke="black" cx="1918" cy="-105" rx="144.87" ry="18"/>
<text text-anchor="middle" x="1918" y="-101.3" font-family="Times,serif" font-size="14.00">consumption_change&lt;&#45;0.0119561758</text>
</g>
<!-- 6&#45;&gt;13 -->
<g id="edge25" class="edge">
<title>6&#45;&gt;13</title>
<path fill="none" stroke="#0000ff" d="M1918,-173.8C1918,-162.16 1918,-146.55 1918,-133.24"/>
<polygon fill="#0000ff" stroke="#0000ff" points="1921.5,-133.18 1918,-123.18 1914.5,-133.18 1921.5,-133.18"/>
<text text-anchor="middle" x="1952.5" y="-144.8" font-family="Times,serif" font-size="14.00">yes, missing</text>
</g>
<!-- 14 -->
<g id="node27" class="node">
<title>14</title>
<ellipse fill="#78cb0e" stroke="black" cx="2221" cy="-105" rx="140.28" ry="18"/>
<text text-anchor="middle" x="2221" y="-101.3" font-family="Times,serif" font-size="14.00">consumption_change&lt;&#45;0.192889929</text>
</g>
<!-- 6&#45;&gt;14 -->
<g id="edge26" class="edge">
<title>6&#45;&gt;14</title>
<path fill="none" stroke="#ff0000" d="M1969.4,-176.58C2020.77,-162.17 2099.92,-139.97 2155.71,-124.32"/>
<polygon fill="#ff0000" stroke="#ff0000" points="2156.81,-127.64 2165.49,-121.57 2154.92,-120.9 2156.81,-127.64"/>
<text text-anchor="middle" x="2095" y="-144.8" font-family="Times,serif" font-size="14.00">no</text>
</g>
<!-- 23 -->
<g id="node22" class="node">
<title>23</title>
<polygon fill="#e48038" stroke="black" points="1372.5,-36 1251.5,-36 1251.5,0 1372.5,0 1372.5,-36"/>
<text text-anchor="middle" x="1312" y="-14.3" font-family="Times,serif" font-size="14.00">leaf=&#45;0.111866735</text>
</g>
<!-- 11&#45;&gt;23 -->
<g id="edge21" class="edge">
<title>11&#45;&gt;23</title>
<path fill="none" stroke="#0000ff" d="M1320.77,-86.8C1319.27,-75.16 1317.25,-59.55 1315.52,-46.24"/>
<polygon fill="#0000ff" stroke="#0000ff" points="1318.98,-45.64 1314.22,-36.18 1312.04,-46.54 1318.98,-45.64"/>
<text text-anchor="middle" x="1353.5" y="-57.8" font-family="Times,serif" font-size="14.00">yes, missing</text>
</g>
<!-- 24 -->
<g id="node23" class="node">
<title>24</title>
<polygon fill="#e48038" stroke="black" points="1519,-36 1391,-36 1391,0 1519,0 1519,-36"/>
<text text-anchor="middle" x="1455" y="-14.3" font-family="Times,serif" font-size="14.00">leaf=&#45;0.0752447546</text>
</g>
<!-- 11&#45;&gt;24 -->
<g id="edge22" class="edge">
<title>11&#45;&gt;24</title>
<path fill="none" stroke="#ff0000" d="M1358.86,-87.52C1369.76,-82.07 1381.6,-75.67 1392,-69 1404.27,-61.13 1417.01,-51.37 1427.8,-42.56"/>
<polygon fill="#ff0000" stroke="#ff0000" points="1430.17,-45.14 1435.62,-36.06 1425.69,-39.76 1430.17,-45.14"/>
<text text-anchor="middle" x="1419" y="-57.8" font-family="Times,serif" font-size="14.00">no</text>
</g>
<!-- 25 -->
<g id="node24" class="node">
<title>25</title>
<polygon fill="#e48038" stroke="black" points="1667.5,-36 1546.5,-36 1546.5,0 1667.5,0 1667.5,-36"/>
<text text-anchor="middle" x="1607" y="-14.3" font-family="Times,serif" font-size="14.00">leaf=&#45;0.135441944</text>
</g>
<!-- 12&#45;&gt;25 -->
<g id="edge23" class="edge">
<title>12&#45;&gt;25</title>
<path fill="none" stroke="#0000ff" d="M1614.98,-86.8C1613.61,-75.16 1611.77,-59.55 1610.2,-46.24"/>
<polygon fill="#0000ff" stroke="#0000ff" points="1613.67,-45.7 1609.02,-36.18 1606.71,-46.52 1613.67,-45.7"/>
<text text-anchor="middle" x="1647.5" y="-57.8" font-family="Times,serif" font-size="14.00">yes, missing</text>
</g>
<!-- 26 -->
<g id="node25" class="node">
<title>26</title>
<polygon fill="#e48038" stroke="black" points="1814,-36 1686,-36 1686,0 1814,0 1814,-36"/>
<text text-anchor="middle" x="1750" y="-14.3" font-family="Times,serif" font-size="14.00">leaf=&#45;0.0934258774</text>
</g>
<!-- 12&#45;&gt;26 -->
<g id="edge24" class="edge">
<title>12&#45;&gt;26</title>
<path fill="none" stroke="#ff0000" d="M1652.83,-87.47C1663.73,-82.02 1675.57,-75.63 1686,-69 1698.42,-61.1 1711.35,-51.33 1722.32,-42.53"/>
<polygon fill="#ff0000" stroke="#ff0000" points="1724.74,-45.07 1730.27,-36.03 1720.31,-39.65 1724.74,-45.07"/>
<text text-anchor="middle" x="1714" y="-57.8" font-family="Times,serif" font-size="14.00">no</text>
</g>
<!-- 27 -->
<g id="node28" class="node">
<title>27</title>
<polygon fill="#e48038" stroke="black" points="1955.5,-36 1848.5,-36 1848.5,0 1955.5,0 1955.5,-36"/>
<text text-anchor="middle" x="1902" y="-14.3" font-family="Times,serif" font-size="14.00">leaf=&#45;0.1065768</text>
</g>
<!-- 13&#45;&gt;27 -->
<g id="edge27" class="edge">
<title>13&#45;&gt;27</title>
<path fill="none" stroke="#0000ff" d="M1914.76,-86.8C1912.57,-75.16 1909.63,-59.55 1907.13,-46.24"/>
<polygon fill="#0000ff" stroke="#0000ff" points="1910.52,-45.36 1905.23,-36.18 1903.64,-46.65 1910.52,-45.36"/>
<text text-anchor="middle" x="1945.5" y="-57.8" font-family="Times,serif" font-size="14.00">yes, missing</text>
</g>
<!-- 28 -->
<g id="node29" class="node">
<title>28</title>
<polygon fill="#e48038" stroke="black" points="2102,-36 1974,-36 1974,0 2102,0 2102,-36"/>
<text text-anchor="middle" x="2038" y="-14.3" font-family="Times,serif" font-size="14.00">leaf=&#45;0.0837147906</text>
</g>
<!-- 13&#45;&gt;28 -->
<g id="edge28" class="edge">
<title>13&#45;&gt;28</title>
<path fill="none" stroke="#ff0000" d="M1953.26,-87.46C1963.5,-82.09 1974.48,-75.76 1984,-69 1994.58,-61.49 2005.27,-52.07 2014.31,-43.43"/>
<polygon fill="#ff0000" stroke="#ff0000" points="2016.77,-45.92 2021.48,-36.43 2011.88,-40.91 2016.77,-45.92"/>
<text text-anchor="middle" x="2009" y="-57.8" font-family="Times,serif" font-size="14.00">no</text>
</g>
<!-- 29 -->
<g id="node30" class="node">
<title>29</title>
<polygon fill="#e48038" stroke="black" points="2266,-36 2138,-36 2138,0 2266,0 2266,-36"/>
<text text-anchor="middle" x="2202" y="-14.3" font-family="Times,serif" font-size="14.00">leaf=&#45;0.0938587487</text>
</g>
<!-- 14&#45;&gt;29 -->
<g id="edge29" class="edge">
<title>14&#45;&gt;29</title>
<path fill="none" stroke="#0000ff" d="M2217.16,-86.8C2214.55,-75.16 2211.06,-59.55 2208.09,-46.24"/>
<polygon fill="#0000ff" stroke="#0000ff" points="2211.44,-45.17 2205.84,-36.18 2204.61,-46.7 2211.44,-45.17"/>
<text text-anchor="middle" x="2247.5" y="-57.8" font-family="Times,serif" font-size="14.00">yes, missing</text>
</g>
<!-- 30 -->
<g id="node31" class="node">
<title>30</title>
<polygon fill="#e48038" stroke="black" points="2412,-36 2284,-36 2284,0 2412,0 2412,-36"/>
<text text-anchor="middle" x="2348" y="-14.3" font-family="Times,serif" font-size="14.00">leaf=&#45;0.0689888448</text>
</g>
<!-- 14&#45;&gt;30 -->
<g id="edge30" class="edge">
<title>14&#45;&gt;30</title>
<path fill="none" stroke="#ff0000" d="M2254.76,-87.34C2265.02,-81.88 2276.18,-75.52 2286,-69 2297.93,-61.07 2310.36,-51.38 2320.93,-42.64"/>
<polygon fill="#ff0000" stroke="#ff0000" points="2323.2,-45.3 2328.61,-36.19 2318.7,-39.94 2323.2,-45.3"/>
<text text-anchor="middle" x="2312" y="-57.8" font-family="Times,serif" font-size="14.00">no</text>
</g>
</g>
</svg>
