<?xml version="1.0" encoding="utf-8" standalone="no"?>
<!DOCTYPE svg PUBLIC "-//W3C//DTD SVG 1.1//EN"
  "http://www.w3.org/Graphics/SVG/1.1/DTD/svg11.dtd">
<svg xmlns:xlink="http://www.w3.org/1999/xlink" width="411.285625pt" height="326.466375pt" viewBox="0 0 411.285625 326.466375" xmlns="http://www.w3.org/2000/svg" version="1.1">
 <metadata>
  <rdf:RDF xmlns:dc="http://purl.org/dc/elements/1.1/" xmlns:cc="http://creativecommons.org/ns#" xmlns:rdf="http://www.w3.org/1999/02/22-rdf-syntax-ns#">
   <cc:Work>
    <dc:type rdf:resource="http://purl.org/dc/dcmitype/StillImage"/>
    <dc:date>2022-09-13T12:35:06.992070</dc:date>
    <dc:format>image/svg+xml</dc:format>
    <dc:creator>
     <cc:Agent>
      <dc:title>Matplotlib v3.5.2, https://matplotlib.org/</dc:title>
     </cc:Agent>
    </dc:creator>
   </cc:Work>
  </rdf:RDF>
 </metadata>
 <defs>
  <style type="text/css">*{stroke-linejoin: round; stroke-linecap: butt}</style>
 </defs>
 <g id="figure_1">
  <g id="patch_1">
   <path d="M 0 326.466375 
L 411.285625 326.466375 
L 411.285625 0 
L 0 0 
z
" style="fill: #ffffff"/>
  </g>
  <g id="axes_1">
   <g id="patch_2">
    <path d="M 46.965625 288.910125 
L 404.085625 288.910125 
L 404.085625 22.798125 
L 46.965625 22.798125 
z
" style="fill: #ffffff"/>
   </g>
   <g id="matplotlib.axis_1">
    <g id="xtick_1">
     <g id="line2d_1">
      <defs>
       <path id="m3c5bfd95b7" d="M 0 0 
L 0 3.5 
" style="stroke: #000000; stroke-width: 0.8"/>
      </defs>
      <g>
       <use xlink:href="#m3c5bfd95b7" x="63.198352" y="288.910125" style="stroke: #000000; stroke-width: 0.8"/>
      </g>
     </g>
     <g id="text_1">
      <!-- 0 -->
      <g transform="translate(60.017102 303.508562)scale(0.1 -0.1)">
       <defs>
        <path id="DejaVuSans-30" d="M 2034 4250 
Q 1547 4250 1301 3770 
Q 1056 3291 1056 2328 
Q 1056 1369 1301 889 
Q 1547 409 2034 409 
Q 2525 409 2770 889 
Q 3016 1369 3016 2328 
Q 3016 3291 2770 3770 
Q 2525 4250 2034 4250 
z
M 2034 4750 
Q 2819 4750 3233 4129 
Q 3647 3509 3647 2328 
Q 3647 1150 3233 529 
Q 2819 -91 2034 -91 
Q 1250 -91 836 529 
Q 422 1150 422 2328 
Q 422 3509 836 4129 
Q 1250 4750 2034 4750 
z
" transform="scale(0.015625)"/>
       </defs>
       <use xlink:href="#DejaVuSans-30"/>
      </g>
     </g>
    </g>
    <g id="xtick_2">
     <g id="line2d_2">
      <g>
       <use xlink:href="#m3c5bfd95b7" x="103.628557" y="288.910125" style="stroke: #000000; stroke-width: 0.8"/>
      </g>
     </g>
     <g id="text_2">
      <!-- 100 -->
      <g transform="translate(94.084807 303.508562)scale(0.1 -0.1)">
       <defs>
        <path id="DejaVuSans-31" d="M 794 531 
L 1825 531 
L 1825 4091 
L 703 3866 
L 703 4441 
L 1819 4666 
L 2450 4666 
L 2450 531 
L 3481 531 
L 3481 0 
L 794 0 
L 794 531 
z
" transform="scale(0.015625)"/>
       </defs>
       <use xlink:href="#DejaVuSans-31"/>
       <use xlink:href="#DejaVuSans-30" x="63.623047"/>
       <use xlink:href="#DejaVuSans-30" x="127.246094"/>
      </g>
     </g>
    </g>
    <g id="xtick_3">
     <g id="line2d_3">
      <g>
       <use xlink:href="#m3c5bfd95b7" x="144.058762" y="288.910125" style="stroke: #000000; stroke-width: 0.8"/>
      </g>
     </g>
     <g id="text_3">
      <!-- 200 -->
      <g transform="translate(134.515012 303.508562)scale(0.1 -0.1)">
       <defs>
        <path id="DejaVuSans-32" d="M 1228 531 
L 3431 531 
L 3431 0 
L 469 0 
L 469 531 
Q 828 903 1448 1529 
Q 2069 2156 2228 2338 
Q 2531 2678 2651 2914 
Q 2772 3150 2772 3378 
Q 2772 3750 2511 3984 
Q 2250 4219 1831 4219 
Q 1534 4219 1204 4116 
Q 875 4013 500 3803 
L 500 4441 
Q 881 4594 1212 4672 
Q 1544 4750 1819 4750 
Q 2544 4750 2975 4387 
Q 3406 4025 3406 3419 
Q 3406 3131 3298 2873 
Q 3191 2616 2906 2266 
Q 2828 2175 2409 1742 
Q 1991 1309 1228 531 
z
" transform="scale(0.015625)"/>
       </defs>
       <use xlink:href="#DejaVuSans-32"/>
       <use xlink:href="#DejaVuSans-30" x="63.623047"/>
       <use xlink:href="#DejaVuSans-30" x="127.246094"/>
      </g>
     </g>
    </g>
    <g id="xtick_4">
     <g id="line2d_4">
      <g>
       <use xlink:href="#m3c5bfd95b7" x="184.488967" y="288.910125" style="stroke: #000000; stroke-width: 0.8"/>
      </g>
     </g>
     <g id="text_4">
      <!-- 300 -->
      <g transform="translate(174.945217 303.508562)scale(0.1 -0.1)">
       <defs>
        <path id="DejaVuSans-33" d="M 2597 2516 
Q 3050 2419 3304 2112 
Q 3559 1806 3559 1356 
Q 3559 666 3084 287 
Q 2609 -91 1734 -91 
Q 1441 -91 1130 -33 
Q 819 25 488 141 
L 488 750 
Q 750 597 1062 519 
Q 1375 441 1716 441 
Q 2309 441 2620 675 
Q 2931 909 2931 1356 
Q 2931 1769 2642 2001 
Q 2353 2234 1838 2234 
L 1294 2234 
L 1294 2753 
L 1863 2753 
Q 2328 2753 2575 2939 
Q 2822 3125 2822 3475 
Q 2822 3834 2567 4026 
Q 2313 4219 1838 4219 
Q 1578 4219 1281 4162 
Q 984 4106 628 3988 
L 628 4550 
Q 988 4650 1302 4700 
Q 1616 4750 1894 4750 
Q 2613 4750 3031 4423 
Q 3450 4097 3450 3541 
Q 3450 3153 3228 2886 
Q 3006 2619 2597 2516 
z
" transform="scale(0.015625)"/>
       </defs>
       <use xlink:href="#DejaVuSans-33"/>
       <use xlink:href="#DejaVuSans-30" x="63.623047"/>
       <use xlink:href="#DejaVuSans-30" x="127.246094"/>
      </g>
     </g>
    </g>
    <g id="xtick_5">
     <g id="line2d_5">
      <g>
       <use xlink:href="#m3c5bfd95b7" x="224.919172" y="288.910125" style="stroke: #000000; stroke-width: 0.8"/>
      </g>
     </g>
     <g id="text_5">
      <!-- 400 -->
      <g transform="translate(215.375422 303.508562)scale(0.1 -0.1)">
       <defs>
        <path id="DejaVuSans-34" d="M 2419 4116 
L 825 1625 
L 2419 1625 
L 2419 4116 
z
M 2253 4666 
L 3047 4666 
L 3047 1625 
L 3713 1625 
L 3713 1100 
L 3047 1100 
L 3047 0 
L 2419 0 
L 2419 1100 
L 313 1100 
L 313 1709 
L 2253 4666 
z
" transform="scale(0.015625)"/>
       </defs>
       <use xlink:href="#DejaVuSans-34"/>
       <use xlink:href="#DejaVuSans-30" x="63.623047"/>
       <use xlink:href="#DejaVuSans-30" x="127.246094"/>
      </g>
     </g>
    </g>
    <g id="xtick_6">
     <g id="line2d_6">
      <g>
       <use xlink:href="#m3c5bfd95b7" x="265.349377" y="288.910125" style="stroke: #000000; stroke-width: 0.8"/>
      </g>
     </g>
     <g id="text_6">
      <!-- 500 -->
      <g transform="translate(255.805627 303.508562)scale(0.1 -0.1)">
       <defs>
        <path id="DejaVuSans-35" d="M 691 4666 
L 3169 4666 
L 3169 4134 
L 1269 4134 
L 1269 2991 
Q 1406 3038 1543 3061 
Q 1681 3084 1819 3084 
Q 2600 3084 3056 2656 
Q 3513 2228 3513 1497 
Q 3513 744 3044 326 
Q 2575 -91 1722 -91 
Q 1428 -91 1123 -41 
Q 819 9 494 109 
L 494 744 
Q 775 591 1075 516 
Q 1375 441 1709 441 
Q 2250 441 2565 725 
Q 2881 1009 2881 1497 
Q 2881 1984 2565 2268 
Q 2250 2553 1709 2553 
Q 1456 2553 1204 2497 
Q 953 2441 691 2322 
L 691 4666 
z
" transform="scale(0.015625)"/>
       </defs>
       <use xlink:href="#DejaVuSans-35"/>
       <use xlink:href="#DejaVuSans-30" x="63.623047"/>
       <use xlink:href="#DejaVuSans-30" x="127.246094"/>
      </g>
     </g>
    </g>
    <g id="xtick_7">
     <g id="line2d_7">
      <g>
       <use xlink:href="#m3c5bfd95b7" x="305.779582" y="288.910125" style="stroke: #000000; stroke-width: 0.8"/>
      </g>
     </g>
     <g id="text_7">
      <!-- 600 -->
      <g transform="translate(296.235832 303.508562)scale(0.1 -0.1)">
       <defs>
        <path id="DejaVuSans-36" d="M 2113 2584 
Q 1688 2584 1439 2293 
Q 1191 2003 1191 1497 
Q 1191 994 1439 701 
Q 1688 409 2113 409 
Q 2538 409 2786 701 
Q 3034 994 3034 1497 
Q 3034 2003 2786 2293 
Q 2538 2584 2113 2584 
z
M 3366 4563 
L 3366 3988 
Q 3128 4100 2886 4159 
Q 2644 4219 2406 4219 
Q 1781 4219 1451 3797 
Q 1122 3375 1075 2522 
Q 1259 2794 1537 2939 
Q 1816 3084 2150 3084 
Q 2853 3084 3261 2657 
Q 3669 2231 3669 1497 
Q 3669 778 3244 343 
Q 2819 -91 2113 -91 
Q 1303 -91 875 529 
Q 447 1150 447 2328 
Q 447 3434 972 4092 
Q 1497 4750 2381 4750 
Q 2619 4750 2861 4703 
Q 3103 4656 3366 4563 
z
" transform="scale(0.015625)"/>
       </defs>
       <use xlink:href="#DejaVuSans-36"/>
       <use xlink:href="#DejaVuSans-30" x="63.623047"/>
       <use xlink:href="#DejaVuSans-30" x="127.246094"/>
      </g>
     </g>
    </g>
    <g id="xtick_8">
     <g id="line2d_8">
      <g>
       <use xlink:href="#m3c5bfd95b7" x="346.209787" y="288.910125" style="stroke: #000000; stroke-width: 0.8"/>
      </g>
     </g>
     <g id="text_8">
      <!-- 700 -->
      <g transform="translate(336.666037 303.508562)scale(0.1 -0.1)">
       <defs>
        <path id="DejaVuSans-37" d="M 525 4666 
L 3525 4666 
L 3525 4397 
L 1831 0 
L 1172 0 
L 2766 4134 
L 525 4134 
L 525 4666 
z
" transform="scale(0.015625)"/>
       </defs>
       <use xlink:href="#DejaVuSans-37"/>
       <use xlink:href="#DejaVuSans-30" x="63.623047"/>
       <use xlink:href="#DejaVuSans-30" x="127.246094"/>
      </g>
     </g>
    </g>
    <g id="xtick_9">
     <g id="line2d_9">
      <g>
       <use xlink:href="#m3c5bfd95b7" x="386.639992" y="288.910125" style="stroke: #000000; stroke-width: 0.8"/>
      </g>
     </g>
     <g id="text_9">
      <!-- 800 -->
      <g transform="translate(377.096242 303.508562)scale(0.1 -0.1)">
       <defs>
        <path id="DejaVuSans-38" d="M 2034 2216 
Q 1584 2216 1326 1975 
Q 1069 1734 1069 1313 
Q 1069 891 1326 650 
Q 1584 409 2034 409 
Q 2484 409 2743 651 
Q 3003 894 3003 1313 
Q 3003 1734 2745 1975 
Q 2488 2216 2034 2216 
z
M 1403 2484 
Q 997 2584 770 2862 
Q 544 3141 544 3541 
Q 544 4100 942 4425 
Q 1341 4750 2034 4750 
Q 2731 4750 3128 4425 
Q 3525 4100 3525 3541 
Q 3525 3141 3298 2862 
Q 3072 2584 2669 2484 
Q 3125 2378 3379 2068 
Q 3634 1759 3634 1313 
Q 3634 634 3220 271 
Q 2806 -91 2034 -91 
Q 1263 -91 848 271 
Q 434 634 434 1313 
Q 434 1759 690 2068 
Q 947 2378 1403 2484 
z
M 1172 3481 
Q 1172 3119 1398 2916 
Q 1625 2713 2034 2713 
Q 2441 2713 2670 2916 
Q 2900 3119 2900 3481 
Q 2900 3844 2670 4047 
Q 2441 4250 2034 4250 
Q 1625 4250 1398 4047 
Q 1172 3844 1172 3481 
z
" transform="scale(0.015625)"/>
       </defs>
       <use xlink:href="#DejaVuSans-38"/>
       <use xlink:href="#DejaVuSans-30" x="63.623047"/>
       <use xlink:href="#DejaVuSans-30" x="127.246094"/>
      </g>
     </g>
    </g>
    <g id="text_10">
     <!-- Time [h] -->
     <g transform="translate(204.632656 317.186687)scale(0.1 -0.1)">
      <defs>
       <path id="DejaVuSans-54" d="M -19 4666 
L 3928 4666 
L 3928 4134 
L 2272 4134 
L 2272 0 
L 1638 0 
L 1638 4134 
L -19 4134 
L -19 4666 
z
" transform="scale(0.015625)"/>
       <path id="DejaVuSans-69" d="M 603 3500 
L 1178 3500 
L 1178 0 
L 603 0 
L 603 3500 
z
M 603 4863 
L 1178 4863 
L 1178 4134 
L 603 4134 
L 603 4863 
z
" transform="scale(0.015625)"/>
       <path id="DejaVuSans-6d" d="M 3328 2828 
Q 3544 3216 3844 3400 
Q 4144 3584 4550 3584 
Q 5097 3584 5394 3201 
Q 5691 2819 5691 2113 
L 5691 0 
L 5113 0 
L 5113 2094 
Q 5113 2597 4934 2840 
Q 4756 3084 4391 3084 
Q 3944 3084 3684 2787 
Q 3425 2491 3425 1978 
L 3425 0 
L 2847 0 
L 2847 2094 
Q 2847 2600 2669 2842 
Q 2491 3084 2119 3084 
Q 1678 3084 1418 2786 
Q 1159 2488 1159 1978 
L 1159 0 
L 581 0 
L 581 3500 
L 1159 3500 
L 1159 2956 
Q 1356 3278 1631 3431 
Q 1906 3584 2284 3584 
Q 2666 3584 2933 3390 
Q 3200 3197 3328 2828 
z
" transform="scale(0.015625)"/>
       <path id="DejaVuSans-65" d="M 3597 1894 
L 3597 1613 
L 953 1613 
Q 991 1019 1311 708 
Q 1631 397 2203 397 
Q 2534 397 2845 478 
Q 3156 559 3463 722 
L 3463 178 
Q 3153 47 2828 -22 
Q 2503 -91 2169 -91 
Q 1331 -91 842 396 
Q 353 884 353 1716 
Q 353 2575 817 3079 
Q 1281 3584 2069 3584 
Q 2775 3584 3186 3129 
Q 3597 2675 3597 1894 
z
M 3022 2063 
Q 3016 2534 2758 2815 
Q 2500 3097 2075 3097 
Q 1594 3097 1305 2825 
Q 1016 2553 972 2059 
L 3022 2063 
z
" transform="scale(0.015625)"/>
       <path id="DejaVuSans-20" transform="scale(0.015625)"/>
       <path id="DejaVuSans-5b" d="M 550 4863 
L 1875 4863 
L 1875 4416 
L 1125 4416 
L 1125 -397 
L 1875 -397 
L 1875 -844 
L 550 -844 
L 550 4863 
z
" transform="scale(0.015625)"/>
       <path id="DejaVuSans-68" d="M 3513 2113 
L 3513 0 
L 2938 0 
L 2938 2094 
Q 2938 2591 2744 2837 
Q 2550 3084 2163 3084 
Q 1697 3084 1428 2787 
Q 1159 2491 1159 1978 
L 1159 0 
L 581 0 
L 581 4863 
L 1159 4863 
L 1159 2956 
Q 1366 3272 1645 3428 
Q 1925 3584 2291 3584 
Q 2894 3584 3203 3211 
Q 3513 2838 3513 2113 
z
" transform="scale(0.015625)"/>
       <path id="DejaVuSans-5d" d="M 1947 4863 
L 1947 -844 
L 622 -844 
L 622 -397 
L 1369 -397 
L 1369 4416 
L 622 4416 
L 622 4863 
L 1947 4863 
z
" transform="scale(0.015625)"/>
      </defs>
      <use xlink:href="#DejaVuSans-54"/>
      <use xlink:href="#DejaVuSans-69" x="57.958984"/>
      <use xlink:href="#DejaVuSans-6d" x="85.742188"/>
      <use xlink:href="#DejaVuSans-65" x="183.154297"/>
      <use xlink:href="#DejaVuSans-20" x="244.677734"/>
      <use xlink:href="#DejaVuSans-5b" x="276.464844"/>
      <use xlink:href="#DejaVuSans-68" x="315.478516"/>
      <use xlink:href="#DejaVuSans-5d" x="378.857422"/>
     </g>
    </g>
   </g>
   <g id="matplotlib.axis_2">
    <g id="ytick_1">
     <g id="line2d_10">
      <defs>
       <path id="m1a107a061b" d="M 0 0 
L -3.5 0 
" style="stroke: #000000; stroke-width: 0.8"/>
      </defs>
      <g>
       <use xlink:href="#m1a107a061b" x="46.965625" y="276.814125" style="stroke: #000000; stroke-width: 0.8"/>
      </g>
     </g>
     <g id="text_11">
      <!-- 0 -->
      <g transform="translate(33.603125 280.613344)scale(0.1 -0.1)">
       <use xlink:href="#DejaVuSans-30"/>
      </g>
     </g>
    </g>
    <g id="ytick_2">
     <g id="line2d_11">
      <g>
       <use xlink:href="#m1a107a061b" x="46.965625" y="228.74727" style="stroke: #000000; stroke-width: 0.8"/>
      </g>
     </g>
     <g id="text_12">
      <!-- 100 -->
      <g transform="translate(20.878125 232.546489)scale(0.1 -0.1)">
       <use xlink:href="#DejaVuSans-31"/>
       <use xlink:href="#DejaVuSans-30" x="63.623047"/>
       <use xlink:href="#DejaVuSans-30" x="127.246094"/>
      </g>
     </g>
    </g>
    <g id="ytick_3">
     <g id="line2d_12">
      <g>
       <use xlink:href="#m1a107a061b" x="46.965625" y="180.680415" style="stroke: #000000; stroke-width: 0.8"/>
      </g>
     </g>
     <g id="text_13">
      <!-- 200 -->
      <g transform="translate(20.878125 184.479634)scale(0.1 -0.1)">
       <use xlink:href="#DejaVuSans-32"/>
       <use xlink:href="#DejaVuSans-30" x="63.623047"/>
       <use xlink:href="#DejaVuSans-30" x="127.246094"/>
      </g>
     </g>
    </g>
    <g id="ytick_4">
     <g id="line2d_13">
      <g>
       <use xlink:href="#m1a107a061b" x="46.965625" y="132.61356" style="stroke: #000000; stroke-width: 0.8"/>
      </g>
     </g>
     <g id="text_14">
      <!-- 300 -->
      <g transform="translate(20.878125 136.412779)scale(0.1 -0.1)">
       <use xlink:href="#DejaVuSans-33"/>
       <use xlink:href="#DejaVuSans-30" x="63.623047"/>
       <use xlink:href="#DejaVuSans-30" x="127.246094"/>
      </g>
     </g>
    </g>
    <g id="ytick_5">
     <g id="line2d_14">
      <g>
       <use xlink:href="#m1a107a061b" x="46.965625" y="84.546705" style="stroke: #000000; stroke-width: 0.8"/>
      </g>
     </g>
     <g id="text_15">
      <!-- 400 -->
      <g transform="translate(20.878125 88.345924)scale(0.1 -0.1)">
       <use xlink:href="#DejaVuSans-34"/>
       <use xlink:href="#DejaVuSans-30" x="63.623047"/>
       <use xlink:href="#DejaVuSans-30" x="127.246094"/>
      </g>
     </g>
    </g>
    <g id="ytick_6">
     <g id="line2d_15">
      <g>
       <use xlink:href="#m1a107a061b" x="46.965625" y="36.479851" style="stroke: #000000; stroke-width: 0.8"/>
      </g>
     </g>
     <g id="text_16">
      <!-- 500 -->
      <g transform="translate(20.878125 40.279069)scale(0.1 -0.1)">
       <use xlink:href="#DejaVuSans-35"/>
       <use xlink:href="#DejaVuSans-30" x="63.623047"/>
       <use xlink:href="#DejaVuSans-30" x="127.246094"/>
      </g>
     </g>
    </g>
    <g id="text_17">
     <!-- Energy [kW] -->
     <g transform="translate(14.798438 186.690062)rotate(-90)scale(0.1 -0.1)">
      <defs>
       <path id="DejaVuSans-45" d="M 628 4666 
L 3578 4666 
L 3578 4134 
L 1259 4134 
L 1259 2753 
L 3481 2753 
L 3481 2222 
L 1259 2222 
L 1259 531 
L 3634 531 
L 3634 0 
L 628 0 
L 628 4666 
z
" transform="scale(0.015625)"/>
       <path id="DejaVuSans-6e" d="M 3513 2113 
L 3513 0 
L 2938 0 
L 2938 2094 
Q 2938 2591 2744 2837 
Q 2550 3084 2163 3084 
Q 1697 3084 1428 2787 
Q 1159 2491 1159 1978 
L 1159 0 
L 581 0 
L 581 3500 
L 1159 3500 
L 1159 2956 
Q 1366 3272 1645 3428 
Q 1925 3584 2291 3584 
Q 2894 3584 3203 3211 
Q 3513 2838 3513 2113 
z
" transform="scale(0.015625)"/>
       <path id="DejaVuSans-72" d="M 2631 2963 
Q 2534 3019 2420 3045 
Q 2306 3072 2169 3072 
Q 1681 3072 1420 2755 
Q 1159 2438 1159 1844 
L 1159 0 
L 581 0 
L 581 3500 
L 1159 3500 
L 1159 2956 
Q 1341 3275 1631 3429 
Q 1922 3584 2338 3584 
Q 2397 3584 2469 3576 
Q 2541 3569 2628 3553 
L 2631 2963 
z
" transform="scale(0.015625)"/>
       <path id="DejaVuSans-67" d="M 2906 1791 
Q 2906 2416 2648 2759 
Q 2391 3103 1925 3103 
Q 1463 3103 1205 2759 
Q 947 2416 947 1791 
Q 947 1169 1205 825 
Q 1463 481 1925 481 
Q 2391 481 2648 825 
Q 2906 1169 2906 1791 
z
M 3481 434 
Q 3481 -459 3084 -895 
Q 2688 -1331 1869 -1331 
Q 1566 -1331 1297 -1286 
Q 1028 -1241 775 -1147 
L 775 -588 
Q 1028 -725 1275 -790 
Q 1522 -856 1778 -856 
Q 2344 -856 2625 -561 
Q 2906 -266 2906 331 
L 2906 616 
Q 2728 306 2450 153 
Q 2172 0 1784 0 
Q 1141 0 747 490 
Q 353 981 353 1791 
Q 353 2603 747 3093 
Q 1141 3584 1784 3584 
Q 2172 3584 2450 3431 
Q 2728 3278 2906 2969 
L 2906 3500 
L 3481 3500 
L 3481 434 
z
" transform="scale(0.015625)"/>
       <path id="DejaVuSans-79" d="M 2059 -325 
Q 1816 -950 1584 -1140 
Q 1353 -1331 966 -1331 
L 506 -1331 
L 506 -850 
L 844 -850 
Q 1081 -850 1212 -737 
Q 1344 -625 1503 -206 
L 1606 56 
L 191 3500 
L 800 3500 
L 1894 763 
L 2988 3500 
L 3597 3500 
L 2059 -325 
z
" transform="scale(0.015625)"/>
       <path id="DejaVuSans-6b" d="M 581 4863 
L 1159 4863 
L 1159 1991 
L 2875 3500 
L 3609 3500 
L 1753 1863 
L 3688 0 
L 2938 0 
L 1159 1709 
L 1159 0 
L 581 0 
L 581 4863 
z
" transform="scale(0.015625)"/>
       <path id="DejaVuSans-57" d="M 213 4666 
L 850 4666 
L 1831 722 
L 2809 4666 
L 3519 4666 
L 4500 722 
L 5478 4666 
L 6119 4666 
L 4947 0 
L 4153 0 
L 3169 4050 
L 2175 0 
L 1381 0 
L 213 4666 
z
" transform="scale(0.015625)"/>
      </defs>
      <use xlink:href="#DejaVuSans-45"/>
      <use xlink:href="#DejaVuSans-6e" x="63.183594"/>
      <use xlink:href="#DejaVuSans-65" x="126.5625"/>
      <use xlink:href="#DejaVuSans-72" x="188.085938"/>
      <use xlink:href="#DejaVuSans-67" x="227.449219"/>
      <use xlink:href="#DejaVuSans-79" x="290.925781"/>
      <use xlink:href="#DejaVuSans-20" x="350.105469"/>
      <use xlink:href="#DejaVuSans-5b" x="381.892578"/>
      <use xlink:href="#DejaVuSans-6b" x="420.90625"/>
      <use xlink:href="#DejaVuSans-57" x="478.816406"/>
      <use xlink:href="#DejaVuSans-5d" x="577.693359"/>
     </g>
    </g>
   </g>
   <g id="line2d_16">
    <path d="M 63.198352 274.353102 
L 63.602654 276.186853 
L 64.006956 263.845688 
L 64.411258 257.642179 
L 64.81556 233.445805 
L 65.219863 147.157629 
L 65.624165 142.538885 
L 66.028467 249.680866 
L 66.432769 246.185444 
L 66.837071 225.401817 
L 67.241373 247.592361 
L 67.645675 260.930433 
L 68.049977 259.613882 
L 68.454279 259.894592 
L 68.858581 259.08034 
L 69.262883 259.520632 
L 70.071487 258.523245 
L 70.475789 259.076494 
L 70.880091 260.294989 
L 71.284393 272.667397 
L 71.688695 276.732892 
L 72.497299 276.814125 
L 74.114508 276.814125 
L 74.51881 276.183969 
L 74.923112 257.734948 
L 75.327414 247.957189 
L 75.731716 242.422771 
L 76.136018 243.024568 
L 76.54032 244.771318 
L 76.944622 244.961662 
L 77.348924 248.816624 
L 77.753226 256.702953 
L 78.157528 257.105272 
L 78.56183 255.609432 
L 78.966132 225.670511 
L 79.370434 59.977813 
L 79.774736 183.472619 
L 80.179038 256.717373 
L 80.58334 260.380067 
L 80.987642 274.074314 
L 81.391944 276.814125 
L 83.817757 276.814125 
L 84.222059 261.514445 
L 84.626361 225.373938 
L 85.030663 229.613435 
L 85.434965 238.202982 
L 86.243569 241.690232 
L 86.647871 254.018419 
L 87.052173 254.277499 
L 87.456475 253.549767 
L 87.860777 254.355368 
L 88.265079 250.746028 
L 88.669381 203.629935 
L 89.073683 53.875726 
L 89.882288 253.895368 
L 90.28659 252.470666 
L 90.690892 267.117118 
L 91.095194 276.669444 
L 91.499496 276.814125 
L 92.712402 276.814125 
L 93.116704 231.126099 
L 93.521006 110.985398 
L 93.925308 118.874611 
L 94.32961 216.84111 
L 94.733912 250.182203 
L 95.138214 241.774349 
L 95.542516 243.150984 
L 95.946818 246.065758 
L 96.35112 246.37675 
L 96.755422 259.465355 
L 97.159724 259.136097 
L 97.564026 256.478481 
L 97.968328 256.776015 
L 98.372631 259.557163 
L 98.776933 155.414073 
L 99.181235 216.282573 
L 99.585537 255.750268 
L 99.989839 251.139695 
L 100.394141 257.123538 
L 100.798443 274.834732 
L 101.202745 276.814125 
L 102.819953 276.814125 
L 103.224255 276.404115 
L 103.628557 275.162067 
L 104.032859 260.54013 
L 104.437161 260.225773 
L 104.841463 260.630015 
L 105.245765 258.768866 
L 105.650067 258.874613 
L 106.054369 245.256312 
L 106.862974 249.638567 
L 107.267276 250.958483 
L 107.671578 257.909431 
L 108.07588 258.093527 
L 108.480182 83.693519 
L 108.884484 218.546522 
L 109.288786 259.881133 
L 110.09739 255.679129 
L 110.501692 264.215322 
L 110.905994 265.416993 
L 111.310296 274.246874 
L 111.714598 276.660792 
L 112.1189 275.457678 
L 112.523202 276.77423 
L 112.927504 270.301547 
L 113.331806 271.8642 
L 114.14041 244.469938 
L 114.544713 245.21882 
L 114.949015 246.982393 
L 115.353317 247.103041 
L 115.757619 248.006698 
L 116.161921 249.767867 
L 116.566223 257.646025 
L 116.970525 259.650893 
L 117.374827 259.410078 
L 117.779129 259.403829 
L 118.183431 133.780624 
L 118.587733 224.859623 
L 118.992035 258.765021 
L 119.396337 253.247427 
L 119.800639 267.187295 
L 120.204941 276.814125 
L 120.609243 276.814125 
L 121.013545 222.458683 
L 121.417847 262.469053 
L 121.822149 276.814125 
L 122.630753 276.814125 
L 123.035056 152.554576 
L 123.439358 246.105653 
L 123.84366 122.271976 
L 124.652264 222.931181 
L 125.056566 111.664583 
L 125.460868 228.101252 
L 125.86517 247.800971 
L 126.673774 258.932774 
L 127.078076 256.005984 
L 127.482378 256.763036 
L 128.290982 255.532525 
L 128.695284 253.91123 
L 129.099586 257.011061 
L 129.503888 272.672204 
L 129.90819 275.92585 
L 130.312492 224.842319 
L 130.716794 276.814125 
L 131.121097 248.528223 
L 131.525399 276.814125 
L 131.929701 276.814125 
L 132.334003 265.553503 
L 132.738305 263.677934 
L 133.546909 215.437077 
L 133.951211 217.837055 
L 134.355513 227.10098 
L 134.759815 225.27444 
L 135.164117 244.925612 
L 135.568419 251.84772 
L 135.972721 256.124228 
L 136.377023 252.924417 
L 136.781325 56.323771 
L 137.185627 65.012336 
L 137.589929 59.203937 
L 137.994231 227.238452 
L 138.398533 255.631543 
L 139.207138 156.009621 
L 139.61144 276.814125 
L 141.63295 276.814125 
L 142.037252 276.018138 
L 142.441554 268.622091 
L 142.845856 253.456998 
L 143.65446 240.185259 
L 144.058762 241.146596 
L 144.463064 234.744572 
L 145.271668 253.935744 
L 145.67597 247.606781 
L 146.080272 250.322078 
L 146.484574 253.986695 
L 146.888876 252.202453 
L 147.293178 79.566499 
L 147.697481 210.245857 
L 148.101783 251.815034 
L 148.506085 249.202601 
L 148.910387 275.403843 
L 149.314689 276.814125 
L 151.740501 276.814125 
L 152.144803 272.519832 
L 152.549105 243.635017 
L 152.953407 241.586888 
L 153.357709 211.321113 
L 153.762011 228.859747 
L 154.166313 236.082753 
L 154.570615 238.734601 
L 154.974917 248.612821 
L 155.379219 247.362121 
L 155.783522 251.146905 
L 156.187824 251.558838 
L 156.592126 250.699403 
L 156.996428 252.338963 
L 157.40073 250.264878 
L 157.805032 251.910207 
L 158.209334 251.735724 
L 159.017938 276.679057 
L 159.42224 276.814125 
L 160.230844 276.814125 
L 160.635146 267.385331 
L 161.44375 271.453229 
L 161.848052 265.387192 
L 162.252354 250.083186 
L 162.656656 250.962809 
L 163.46526 234.285052 
L 163.869563 241.736857 
L 164.273865 244.12578 
L 164.678167 251.813112 
L 165.082469 254.697123 
L 165.486771 222.271703 
L 165.891073 61.170833 
L 166.295375 64.883036 
L 166.699677 58.716058 
L 167.508281 259.308176 
L 167.912583 249.974555 
L 168.316885 251.024815 
L 168.721187 259.448532 
L 169.125489 257.885878 
L 169.529791 263.640923 
L 169.934093 263.255427 
L 170.338395 262.568071 
L 170.742697 206.856663 
L 171.146999 92.874288 
L 171.551301 240.249188 
L 171.955603 250.279298 
L 172.359906 247.927868 
L 172.764208 248.05909 
L 173.16851 257.109599 
L 173.572812 255.335932 
L 173.977114 236.759053 
L 174.381416 243.575895 
L 174.785718 241.513346 
L 175.19002 243.182708 
L 175.594322 256.310247 
L 175.998624 254.227991 
L 176.402926 66.809555 
L 176.807228 207.798773 
L 177.21153 255.884374 
L 177.615832 250.46003 
L 178.020134 253.053237 
L 178.424436 264.108613 
L 178.828738 261.599523 
L 179.23304 268.926835 
L 179.637342 265.454966 
L 180.041644 258.741468 
L 180.445947 262.346963 
L 180.850249 259.82826 
L 181.254551 256.179024 
L 181.658853 236.0592 
L 182.063155 243.806135 
L 182.467457 243.417274 
L 182.871759 215.375071 
L 183.680363 236.982084 
L 184.084665 234.782544 
L 184.488967 241.274934 
L 184.893269 221.680481 
L 185.297571 47.520326 
L 185.701873 62.91614 
L 186.106175 57.119277 
L 186.510477 198.142142 
L 186.914779 253.301742 
L 187.319081 247.81443 
L 187.723383 246.175831 
L 188.127685 262.609889 
L 188.531988 242.540535 
L 189.340592 259.866713 
L 189.744894 234.016839 
L 190.149196 189.16806 
L 190.553498 225.402778 
L 191.362102 209.743078 
L 191.766404 158.299046 
L 192.170706 202.912778 
L 192.575008 212.540088 
L 192.97931 201.734178 
L 193.383612 229.27937 
L 193.787914 242.031507 
L 194.192216 248.042748 
L 194.596518 246.239279 
L 195.00082 247.889895 
L 195.405122 228.689109 
L 195.809424 53.726719 
L 196.213726 195.667661 
L 196.618028 243.674913 
L 197.022331 249.123291 
L 197.426633 249.106948 
L 197.830935 274.254084 
L 198.235237 276.814125 
L 199.043841 276.814125 
L 199.448143 275.930176 
L 199.852445 190.367328 
L 200.256747 233.403506 
L 200.661049 234.878678 
L 201.065351 168.366168 
L 201.469653 221.429572 
L 201.873955 217.600086 
L 202.278257 218.368675 
L 202.682559 219.913544 
L 203.086861 224.466436 
L 203.491163 249.154534 
L 203.895465 251.46655 
L 204.299767 231.83893 
L 204.704069 58.05562 
L 205.108372 60.374365 
L 205.512674 59.079444 
L 205.916976 184.146997 
L 206.321278 250.61144 
L 206.72558 251.973174 
L 207.129882 274.681879 
L 207.534184 276.814125 
L 209.959996 276.814125 
L 211.172902 231.728376 
L 211.577204 225.449884 
L 211.981506 162.269848 
L 212.385808 173.965956 
L 212.79011 232.665199 
L 214.003017 251.136811 
L 214.407319 250.282182 
L 214.811621 131.358535 
L 215.215923 62.061511 
L 215.620225 134.990466 
L 216.024527 248.829121 
L 216.428829 249.805359 
L 216.833131 271.586855 
L 217.237433 276.814125 
L 219.663245 276.714627 
L 220.067547 265.088696 
L 220.471849 248.380658 
L 220.876151 243.491297 
L 221.280453 246.388767 
L 221.684756 255.959839 
L 222.089058 244.071945 
L 222.49336 236.474978 
L 222.897662 250.822454 
L 223.301964 253.904981 
L 223.706266 232.323925 
L 224.110568 61.638042 
L 224.51487 60.705545 
L 224.919172 62.255221 
L 225.323474 195.426365 
L 225.727776 254.613967 
L 226.132078 252.078441 
L 226.53638 257.457122 
L 226.940682 272.23768 
L 227.344984 274.778974 
L 227.749286 273.804659 
L 228.153588 273.563844 
L 228.55789 271.062445 
L 228.962192 275.893164 
L 229.366494 273.046645 
L 229.770797 267.93137 
L 230.175099 256.425126 
L 230.579401 231.997551 
L 231.388005 234.444154 
L 231.792307 233.095878 
L 232.196609 232.989651 
L 232.600911 255.159526 
L 233.005213 258.497769 
L 233.409515 254.800467 
L 233.813817 261.168364 
L 234.218119 260.891018 
L 234.622421 67.33781 
L 235.026723 203.631858 
L 235.431025 257.999797 
L 235.835327 257.946923 
L 236.239629 273.535965 
L 236.643931 276.814125 
L 239.069744 276.814125 
L 239.474046 275.427396 
L 240.28265 245.588935 
L 241.091254 257.018271 
L 241.495556 255.051376 
L 241.899858 228.134418 
L 242.30416 239.040787 
L 242.708462 228.34447 
L 243.112764 228.237281 
L 243.517066 63.073319 
L 243.921368 59.917249 
L 244.32567 60.213341 
L 244.729972 177.259016 
L 245.134274 251.907323 
L 245.538576 248.804127 
L 246.347181 273.61143 
L 246.751483 273.144221 
L 247.155785 269.69975 
L 247.964389 276.727124 
L 248.368691 276.790092 
L 248.772993 271.843532 
L 249.177295 262.684873 
L 249.581597 235.99431 
L 249.985899 240.484715 
L 250.390201 236.057758 
L 250.794503 201.730814 
L 251.198805 201.182852 
L 251.603107 226.989465 
L 252.007409 237.43247 
L 252.816013 246.122957 
L 253.220315 256.761594 
L 253.624617 252.320698 
L 254.028919 75.395738 
L 254.433222 218.24995 
L 254.837524 250.888786 
L 255.241826 248.923813 
L 255.646128 273.94886 
L 256.05043 276.814125 
L 258.476242 276.814125 
L 258.880544 275.769632 
L 259.284846 259.319712 
L 259.689148 253.957374 
L 260.09345 230.258973 
L 260.497752 239.606053 
L 260.902054 234.953182 
L 261.306356 247.30396 
L 261.710658 255.670477 
L 262.11496 251.779465 
L 262.519262 229.158722 
L 262.923565 62.579191 
L 263.327867 57.753279 
L 263.732169 61.598147 
L 264.136471 181.156277 
L 264.540773 251.693425 
L 264.945075 252.350019 
L 265.349377 258.26128 
L 265.753679 244.390628 
L 266.157981 74.276741 
L 266.562283 272.595778 
L 266.966585 159.816036 
L 267.370887 253.418064 
L 267.775189 135.295691 
L 268.179491 229.432223 
L 268.583793 230.404135 
L 268.988095 163.618124 
L 269.392397 159.552629 
L 269.796699 77.679394 
L 270.201001 224.701002 
L 270.605303 182.336799 
L 271.009606 248.024002 
L 271.413908 252.109684 
L 271.81821 254.055911 
L 272.222512 252.319736 
L 272.626814 256.471271 
L 273.031116 258.693401 
L 273.435418 254.575033 
L 273.83972 252.575452 
L 274.244022 256.0752 
L 274.648324 252.526905 
L 275.052626 255.426297 
L 275.456928 275.978242 
L 275.86123 276.814125 
L 276.669834 276.814125 
L 277.074136 276.423341 
L 277.478438 276.814125 
L 277.88274 276.814125 
L 278.287042 275.579768 
L 278.691344 250.566258 
L 279.095647 249.74816 
L 279.499949 256.249682 
L 279.904251 256.996161 
L 280.308553 258.816453 
L 281.117157 239.258049 
L 281.521459 241.750796 
L 281.925761 253.052275 
L 282.330063 256.725544 
L 282.734365 251.501158 
L 283.138667 72.328592 
L 283.542969 205.585775 
L 283.947271 256.025691 
L 284.351573 246.532006 
L 285.160177 274.339643 
L 285.564479 276.624261 
L 285.968781 276.814125 
L 287.181687 276.814125 
L 287.58599 273.701796 
L 287.990292 265.992353 
L 288.394594 250.947428 
L 288.798896 250.420134 
L 289.6075 257.483078 
L 290.011802 257.473465 
L 290.416104 244.047431 
L 290.820406 246.441641 
L 291.224708 243.125508 
L 291.62901 256.863496 
L 292.033312 260.668949 
L 292.437614 232.583966 
L 292.841916 65.726128 
L 293.65052 258.80011 
L 294.054822 256.457331 
L 294.459124 258.651103 
L 294.863426 265.75298 
L 295.267728 267.654505 
L 295.672031 268.437995 
L 296.076333 273.842151 
L 296.480635 275.557657 
L 296.884937 274.123823 
L 297.693541 269.161882 
L 298.097843 251.743895 
L 298.502145 246.54931 
L 298.906447 238.893703 
L 299.310749 242.782792 
L 299.715051 242.048811 
L 300.119353 247.999968 
L 300.523655 257.960382 
L 300.927957 255.423413 
L 301.332259 254.612045 
L 301.736561 259.640318 
L 302.140863 242.681851 
L 302.545165 65.206045 
L 302.949467 183.326496 
L 303.353769 258.096892 
L 303.758072 256.964917 
L 304.162374 272.968777 
L 304.566676 276.814125 
L 306.992488 276.814125 
L 307.39679 276.573791 
L 307.801092 256.446757 
L 308.205394 250.117313 
L 308.609696 248.171086 
L 309.013998 259.521593 
L 309.4183 240.644778 
L 309.822602 237.863149 
L 310.226904 243.730189 
L 310.631206 252.288493 
L 311.035508 255.32776 
L 311.43981 257.140842 
L 312.248415 61.143915 
L 312.652717 141.62946 
L 313.057019 255.202786 
L 313.461321 250.960406 
L 313.865623 275.371158 
L 314.269925 276.814125 
L 316.695737 276.814125 
L 317.100039 275.68888 
L 317.908643 234.706599 
L 318.312945 199.575496 
L 318.717247 219.078142 
L 319.121549 229.028461 
L 319.525851 226.307397 
L 319.930153 243.652321 
L 320.334456 248.480637 
L 320.738758 254.805754 
L 321.14306 252.589872 
L 321.547362 203.033906 
L 321.951664 58.706445 
L 322.760268 250.932527 
L 323.16457 251.913091 
L 323.568872 259.088992 
L 323.973174 276.331053 
L 324.377476 222.015026 
L 324.781778 276.814125 
L 326.398986 276.814125 
L 326.803288 275.848943 
L 327.611892 243.272593 
L 328.016194 243.459092 
L 328.420497 244.495894 
L 328.824799 242.243962 
L 329.633403 251.23631 
L 330.442007 254.2203 
L 330.846309 253.668973 
L 331.250611 252.411544 
L 331.654913 251.918378 
L 332.059215 254.207802 
L 332.463517 251.079612 
L 332.867819 245.200074 
L 333.272121 276.598305 
L 333.676423 276.814125 
L 336.102235 276.814125 
L 336.506537 274.099309 
L 336.91084 249.146843 
L 337.315142 239.857924 
L 337.719444 234.09615 
L 338.123746 226.48957 
L 338.93235 247.258297 
L 339.336652 244.07579 
L 339.740954 246.18256 
L 340.145256 251.546821 
L 340.95386 239.644987 
L 341.358162 238.831216 
L 341.762464 241.490274 
L 342.166766 240.846659 
L 342.571068 239.096064 
L 342.97537 260.551185 
L 343.783974 274.637658 
L 344.188276 269.939603 
L 344.592578 267.511747 
L 344.996881 272.391013 
L 345.401183 269.0023 
L 345.805485 260.377664 
L 346.209787 270.678391 
L 346.614089 236.44037 
L 347.018391 236.629754 
L 347.826995 244.013784 
L 348.231297 244.057044 
L 348.635599 253.651188 
L 349.039901 241.326366 
L 349.444203 241.783482 
L 349.848505 252.758587 
L 350.252807 255.16241 
L 350.657109 255.601261 
L 351.061411 255.0259 
L 351.465713 256.95242 
L 351.870015 255.871396 
L 352.274317 257.584499 
L 352.678619 258.409807 
L 353.082922 259.689347 
L 353.487224 258.406442 
L 353.891526 263.967777 
L 354.295828 271.736342 
L 354.70013 275.733582 
L 355.104432 273.559518 
L 355.508734 268.790806 
L 355.913036 260.826128 
L 356.317338 248.37489 
L 356.72164 244.494452 
L 357.125942 244.220952 
L 357.530244 244.271422 
L 357.934546 245.075581 
L 358.74315 247.319342 
L 359.147452 255.157604 
L 359.551754 256.38427 
L 359.956056 259.119754 
L 360.360358 259.598981 
L 361.168962 255.795451 
L 361.573265 257.019233 
L 361.977567 259.780674 
L 362.381869 243.790273 
L 362.786171 246.030188 
L 363.190473 249.491002 
L 363.594775 254.393341 
L 363.999077 255.340738 
L 364.403379 250.241326 
L 364.807681 247.637063 
L 365.211983 247.31117 
L 365.616285 245.92348 
L 366.020587 246.58488 
L 366.424889 227.07935 
L 366.829191 228.59634 
L 367.233493 229.27216 
L 367.637795 231.703382 
L 368.042097 236.997465 
L 368.850701 252.668702 
L 369.255003 236.926807 
L 369.659306 66.354362 
L 370.063608 68.048238 
L 370.46791 60.112881 
L 371.276514 245.777357 
L 371.680816 247.82164 
L 372.085118 274.994314 
L 372.48942 276.814125 
L 373.702326 276.814125 
L 374.106628 263.037203 
L 374.51093 149.23604 
L 374.915232 119.720588 
L 375.319534 78.822904 
L 375.723836 126.929174 
L 376.128138 210.863035 
L 376.53244 212.526629 
L 376.936742 34.894125 
L 377.341044 153.908138 
L 377.745346 226.787584 
L 378.553951 242.430942 
L 378.958253 251.700635 
L 379.362555 257.284081 
L 379.766857 251.524711 
L 380.171159 255.37775 
L 380.575461 189.357925 
L 380.979763 251.868389 
L 381.384065 239.492135 
L 381.788367 273.25862 
L 382.192669 252.76772 
L 382.596971 276.814125 
L 384.214179 276.814125 
L 384.618481 274.291576 
L 385.022783 104.568473 
L 385.427085 43.806681 
L 385.831387 62.868073 
L 386.23569 224.877888 
L 386.639992 218.104788 
L 387.044294 219.851537 
L 387.448596 219.737619 
L 387.852898 222.857638 
L 387.852898 222.857638 
" clip-path="url(#pe6214224e5)" style="fill: none; stroke-dasharray: 9.6,2.4,1.5,2.4; stroke-dashoffset: 0; stroke: #1f77b4; stroke-width: 1.5"/>
   </g>
   <g id="line2d_17">
    <path d="M 63.198352 271.93713 
L 63.602654 271.93713 
L 64.006956 261.422146 
L 64.411258 255.754421 
L 64.81556 236.923179 
L 65.219863 157.783527 
L 65.624165 145.361297 
L 66.028467 232.241592 
L 66.432769 247.177779 
L 66.837071 227.465513 
L 67.241373 245.8334 
L 68.049977 259.101241 
L 68.454279 258.923414 
L 68.858581 257.183691 
L 69.262883 258.923414 
L 69.667185 257.183691 
L 70.071487 257.770453 
L 70.475789 258.923414 
L 70.880091 258.923414 
L 71.284393 263.349933 
L 71.688695 271.93713 
L 74.114508 271.93713 
L 74.51881 270.197407 
L 74.923112 253.992108 
L 75.327414 247.112925 
L 75.731716 242.799685 
L 76.136018 246.254304 
L 76.54032 246.254304 
L 76.944622 247.042897 
L 77.753226 254.588746 
L 78.157528 257.377291 
L 78.56183 255.637568 
L 78.966132 228.25838 
L 79.370434 72.108401 
L 79.774736 197.616485 
L 80.179038 242.809615 
L 80.58334 258.405179 
L 81.391944 271.93713 
L 83.817757 271.93713 
L 84.222059 258.870748 
L 84.626361 226.458494 
L 85.434965 238.899139 
L 85.839267 243.739185 
L 86.243569 243.739185 
L 87.052173 254.203256 
L 87.456475 252.463534 
L 87.860777 254.203256 
L 88.265079 249.974907 
L 88.669381 211.552537 
L 89.073683 58.346929 
L 89.477985 175.238297 
L 89.882288 235.227541 
L 90.28659 252.463534 
L 90.690892 260.335027 
L 91.095194 271.566383 
L 91.499496 271.93713 
L 92.712402 271.93713 
L 93.116704 222.387026 
L 93.521006 125.896255 
L 93.925308 127.048389 
L 94.32961 214.902711 
L 94.733912 245.71635 
L 95.138214 243.958137 
L 95.542516 246.254304 
L 95.946818 246.254304 
L 96.755422 252.391302 
L 97.159724 258.923414 
L 97.564026 255.229555 
L 97.968328 257.377291 
L 98.372631 257.377291 
L 98.776933 152.182783 
L 99.181235 218.932155 
L 99.585537 247.967151 
L 99.989839 252.311673 
L 100.394141 254.307833 
L 101.202745 271.93713 
L 103.224255 271.93713 
L 103.628557 270.197407 
L 104.032859 258.870748 
L 104.437161 259.951093 
L 104.841463 258.923414 
L 105.245765 259.101241 
L 105.650067 258.923414 
L 106.054369 247.259788 
L 106.458672 249.270076 
L 106.862974 249.270076 
L 107.267276 251.46752 
L 107.671578 254.307833 
L 108.07588 258.923414 
L 108.480182 86.155527 
L 108.884484 207.008968 
L 109.288786 247.967151 
L 109.693088 255.229555 
L 110.09739 255.637568 
L 110.501692 259.821143 
L 110.905994 261.309251 
L 111.310296 268.804055 
L 111.714598 271.93713 
L 112.1189 270.197407 
L 112.523202 271.93713 
L 112.927504 263.371756 
L 113.331806 271.177189 
L 114.14041 248.867587 
L 114.544713 247.042897 
L 114.949015 249.270076 
L 116.161921 249.270076 
L 116.566223 255.155789 
L 116.970525 257.377291 
L 117.374827 258.923414 
L 117.779129 258.923414 
L 118.183431 136.495407 
L 118.587733 218.584744 
L 118.992035 249.952383 
L 119.396337 253.081446 
L 119.800639 260.335027 
L 120.204941 271.566383 
L 120.609243 271.93713 
L 121.013545 200.136953 
L 121.417847 252.171791 
L 121.822149 265.73577 
L 122.226451 271.93713 
L 122.630753 271.93713 
L 123.035056 142.58101 
L 123.439358 233.094371 
L 123.84366 135.257196 
L 124.247962 171.044178 
L 124.652264 222.948414 
L 125.056566 126.160371 
L 125.460868 216.660168 
L 125.86517 245.77647 
L 126.673774 256.476526 
L 127.078076 255.229555 
L 127.482378 257.377291 
L 127.88668 255.637568 
L 128.290982 255.637568 
L 128.695284 254.659212 
L 129.099586 255.270537 
L 129.90819 271.93713 
L 130.312492 207.087337 
L 130.716794 252.171791 
L 131.121097 242.198619 
L 131.929701 271.93713 
L 132.334003 261.422146 
L 132.738305 265.648369 
L 133.546909 215.423993 
L 133.951211 222.76161 
L 134.759815 232.665149 
L 135.568419 251.543346 
L 135.972721 255.041688 
L 136.377023 253.683432 
L 136.781325 73.04489 
L 137.185627 75.228085 
L 137.589929 61.823404 
L 137.994231 210.208804 
L 138.398533 250.045516 
L 138.802835 215.379887 
L 139.207138 154.494668 
L 139.61144 237.330009 
L 140.015742 271.93713 
L 141.63295 271.93713 
L 142.037252 270.197407 
L 142.441554 262.30624 
L 142.845856 258.110806 
L 143.250158 246.755265 
L 143.65446 242.799685 
L 144.058762 243.739185 
L 144.463064 235.222291 
L 145.271668 252.391302 
L 145.67597 248.361299 
L 146.080272 249.270076 
L 146.484574 253.739825 
L 146.888876 252.463534 
L 147.293178 92.028304 
L 147.697481 207.008968 
L 148.101783 245.768381 
L 148.506085 250.709847 
L 148.910387 259.390265 
L 149.314689 271.93713 
L 151.740501 271.93713 
L 152.144803 266.080376 
L 152.549105 242.198619 
L 152.953407 244.514581 
L 153.357709 211.276107 
L 153.762011 230.873636 
L 154.570615 243.739185 
L 154.974917 246.8604 
L 155.379219 247.530354 
L 155.783522 250.975338 
L 156.187824 252.034563 
L 156.592126 251.596703 
L 156.996428 252.034563 
L 157.40073 250.509408 
L 158.209334 253.336426 
L 158.613636 259.468196 
L 159.017938 268.804055 
L 159.42224 271.93713 
L 160.230844 271.93713 
L 160.635146 261.422146 
L 161.039448 270.150419 
L 161.44375 271.177189 
L 161.848052 261.152336 
L 162.252354 254.321709 
L 162.656656 252.034563 
L 163.060958 243.958137 
L 163.46526 232.185802 
L 163.869563 243.043474 
L 165.082469 253.336426 
L 165.486771 225.150165 
L 165.891073 72.823508 
L 166.295375 65.903605 
L 166.699677 61.823404 
L 167.103979 189.494024 
L 167.508281 238.982824 
L 167.912583 248.659048 
L 168.721187 255.155789 
L 169.934093 261.309251 
L 170.338395 259.569528 
L 170.742697 198.350252 
L 171.146999 108.155019 
L 171.551301 214.531098 
L 171.955603 246.8604 
L 172.359906 247.71228 
L 172.764208 249.270076 
L 173.572812 255.637568 
L 173.977114 240.04389 
L 174.381416 246.012444 
L 174.785718 244.514581 
L 175.19002 246.254304 
L 175.594322 249.375519 
L 175.998624 253.683432 
L 176.402926 79.045145 
L 176.807228 210.208804 
L 177.21153 247.47966 
L 177.615832 251.535323 
L 178.020134 252.034563 
L 178.424436 257.324482 
L 178.828738 257.615391 
L 179.23304 263.792495 
L 179.637342 263.938284 
L 180.041644 256.603298 
L 180.445947 258.923414 
L 180.850249 257.615391 
L 181.254551 254.695054 
L 181.658853 238.8939 
L 182.063155 246.8604 
L 182.467457 246.254304 
L 182.871759 215.557923 
L 183.276061 228.205999 
L 183.680363 237.352271 
L 184.084665 241.999452 
L 184.488967 242.195517 
L 184.893269 222.403248 
L 185.297571 56.628372 
L 185.701873 74.255505 
L 186.106175 61.823404 
L 186.510477 201.406514 
L 186.914779 243.335282 
L 187.319081 248.361299 
L 187.723383 247.530354 
L 188.127685 254.304314 
L 188.531988 244.246437 
L 188.93629 252.386063 
L 189.340592 258.166333 
L 189.744894 237.199774 
L 190.149196 197.446451 
L 190.553498 224.396888 
L 191.362102 210.065701 
L 191.766404 154.494668 
L 192.170706 205.464917 
L 192.575008 221.056008 
L 192.97931 201.719958 
L 193.383612 231.577262 
L 194.192216 248.527563 
L 194.596518 247.530354 
L 195.00082 249.270076 
L 195.405122 227.465513 
L 195.809424 67.339356 
L 196.213726 193.760473 
L 196.618028 243.335282 
L 197.426633 251.46752 
L 197.830935 259.390265 
L 198.235237 271.93713 
L 199.043841 271.93713 
L 199.448143 270.197407 
L 199.852445 166.881012 
L 200.256747 226.117166 
L 200.661049 239.922248 
L 201.065351 179.18239 
L 201.469653 219.614023 
L 201.873955 222.521811 
L 202.278257 223.213368 
L 202.682559 223.213368 
L 203.086861 225.897765 
L 203.491163 247.420516 
L 203.895465 251.46752 
L 204.299767 233.221374 
L 204.704069 76.953003 
L 205.108372 65.226242 
L 205.512674 61.823404 
L 205.916976 197.616485 
L 206.321278 239.631865 
L 207.129882 261.259171 
L 207.534184 271.93713 
L 209.959996 271.93713 
L 210.7686 246.374784 
L 211.172902 227.737745 
L 211.577204 228.414001 
L 211.981506 161.815547 
L 212.385808 170.865671 
L 212.79011 226.251139 
L 213.194413 238.051183 
L 213.598715 245.444436 
L 214.003017 249.316155 
L 214.407319 250.29484 
L 214.811621 141.259101 
L 215.215923 63.522449 
L 216.024527 231.07481 
L 216.428829 251.46752 
L 216.833131 259.957308 
L 217.237433 271.93713 
L 219.663245 271.93713 
L 220.471849 249.44307 
L 220.876151 243.576034 
L 221.280453 246.254304 
L 221.684756 252.391302 
L 222.089058 247.112925 
L 222.49336 235.935134 
L 222.897662 248.535575 
L 223.301964 252.034563 
L 223.706266 234.088204 
L 224.110568 76.953003 
L 224.51487 61.823404 
L 224.919172 64.980044 
L 225.323474 200.92229 
L 225.727776 243.335282 
L 226.132078 252.705076 
L 226.53638 255.041688 
L 227.344984 271.93713 
L 227.749286 270.197407 
L 228.153588 271.93713 
L 228.55789 268.243271 
L 228.962192 271.93713 
L 230.175099 258.483296 
L 230.579401 236.923179 
L 230.983703 235.777924 
L 231.388005 239.922248 
L 232.196609 236.378189 
L 232.600911 250.605534 
L 233.005213 258.104186 
L 233.409515 254.695054 
L 233.813817 258.672194 
L 234.218119 260.840964 
L 234.622421 80.0235 
L 235.026723 200.92229 
L 235.431025 247.481633 
L 235.835327 258.923414 
L 236.239629 264.195675 
L 236.643931 271.93713 
L 239.069744 271.93713 
L 239.474046 270.197407 
L 239.878348 258.870748 
L 240.28265 250.785136 
L 240.686952 251.543346 
L 241.091254 254.307833 
L 241.495556 255.637568 
L 241.899858 233.067496 
L 242.30416 239.675434 
L 242.708462 225.222626 
L 243.112764 233.25191 
L 243.517066 72.108401 
L 243.921368 61.823404 
L 244.32567 64.980044 
L 244.729972 189.494024 
L 245.134274 232.561317 
L 245.538576 249.642577 
L 246.751483 270.784169 
L 247.155785 265.765495 
L 247.560087 271.177189 
L 247.964389 271.93713 
L 248.368691 271.93713 
L 249.177295 261.154101 
L 249.581597 238.37071 
L 249.985899 244.053912 
L 250.390201 235.99864 
L 250.794503 205.652773 
L 251.198805 205.076862 
L 251.603107 224.902704 
L 252.007409 237.352271 
L 252.411711 245.444436 
L 252.816013 247.959555 
L 253.220315 252.391302 
L 253.624617 252.311673 
L 254.028919 82.714528 
L 254.433222 210.317995 
L 254.837524 244.25308 
L 255.241826 250.29484 
L 255.646128 259.390265 
L 256.05043 271.93713 
L 258.476242 271.93713 
L 258.880544 270.197407 
L 259.284846 253.992108 
L 259.689148 253.081446 
L 260.09345 232.117473 
L 260.497752 238.899139 
L 260.902054 235.99864 
L 261.306356 243.043474 
L 261.710658 252.391302 
L 262.11496 253.148931 
L 262.519262 231.250642 
L 262.923565 74.190488 
L 263.327867 61.823404 
L 263.732169 65.903605 
L 264.136471 189.494024 
L 264.540773 240.927447 
L 264.945075 253.336426 
L 265.349377 259.48707 
L 265.753679 247.259788 
L 266.157981 86.127595 
L 266.562283 210.317995 
L 266.966585 154.11365 
L 267.370887 232.885723 
L 267.775189 141.259101 
L 268.179491 223.461596 
L 268.583793 235.777924 
L 268.988095 165.035639 
L 269.392397 160.812003 
L 269.796699 79.035267 
L 270.201001 212.903011 
L 270.605303 181.175536 
L 271.009606 239.631865 
L 271.413908 250.975338 
L 271.81821 253.336426 
L 272.222512 252.463534 
L 272.626814 255.908518 
L 273.031116 257.377291 
L 273.435418 253.857795 
L 273.83972 252.463534 
L 274.244022 255.908518 
L 274.648324 253.148931 
L 275.052626 254.203256 
L 275.86123 271.93713 
L 277.88274 271.93713 
L 278.287042 270.197407 
L 278.691344 245.815819 
L 279.499949 254.307833 
L 279.904251 257.377291 
L 280.308553 257.377291 
L 280.712855 249.543141 
L 281.117157 239.510091 
L 281.521459 243.739185 
L 282.330063 255.908518 
L 282.734365 251.535323 
L 283.138667 82.714528 
L 283.542969 204.423953 
L 283.947271 247.481633 
L 284.351573 247.112925 
L 284.755875 253.458572 
L 285.160177 265.73577 
L 285.564479 271.93713 
L 287.181687 271.93713 
L 287.58599 268.243271 
L 288.394594 255.6207 
L 288.798896 250.29484 
L 289.203198 253.739825 
L 289.6075 255.908518 
L 290.011802 257.377291 
L 290.416104 245.713665 
L 290.820406 247.042897 
L 291.224708 244.413293 
L 291.62901 249.375519 
L 292.033312 258.405179 
L 292.437614 235.282958 
L 292.841916 76.953003 
L 293.246218 181.880794 
L 293.65052 232.885723 
L 294.054822 255.229555 
L 294.863426 259.491422 
L 295.267728 264.377547 
L 295.672031 267.139863 
L 296.076333 271.177189 
L 296.480635 271.93713 
L 296.884937 270.197407 
L 297.289239 267.452135 
L 297.693541 266.299996 
L 298.097843 253.232167 
L 298.502145 248.270818 
L 298.906447 237.248067 
L 299.310749 245.444436 
L 299.715051 244.514581 
L 300.523655 252.391302 
L 300.927957 255.229555 
L 301.332259 254.659212 
L 301.736561 258.104186 
L 302.140863 244.176168 
L 302.545165 76.813806 
L 302.949467 189.494024 
L 303.353769 242.809615 
L 303.758072 257.183691 
L 304.566676 271.93713 
L 307.39679 271.93713 
L 307.801092 251.863762 
L 308.205394 249.603053 
L 308.609696 250.29484 
L 309.013998 252.391302 
L 309.4183 242.047821 
L 309.822602 237.370389 
L 310.226904 246.012444 
L 310.631206 249.375519 
L 311.035508 254.203256 
L 311.43981 256.398935 
L 312.248415 61.355841 
L 313.057019 232.241592 
L 313.461321 251.333316 
L 313.865623 259.957308 
L 314.269925 271.93713 
L 316.695737 271.93713 
L 317.100039 270.197407 
L 317.504341 248.020442 
L 317.908643 234.91197 
L 318.312945 203.204011 
L 319.121549 227.313729 
L 319.525851 229.540021 
L 319.930153 244.831237 
L 320.738758 251.543346 
L 321.14306 252.705076 
L 321.547362 205.84623 
L 321.951664 61.827391 
L 322.355966 181.880794 
L 322.760268 233.094371 
L 323.16457 252.034563 
L 323.568872 259.468196 
L 323.973174 264.195675 
L 324.377476 200.136953 
L 324.781778 251.147795 
L 325.18608 271.93713 
L 326.398986 271.93713 
L 326.803288 270.197407 
L 327.20759 253.992108 
L 327.611892 245.713665 
L 328.016194 246.254304 
L 328.420497 246.254304 
L 328.824799 245.303174 
L 329.633403 250.975338 
L 330.037705 252.034563 
L 330.442007 254.203256 
L 330.846309 252.463534 
L 331.654913 252.463534 
L 332.059215 253.336426 
L 332.463517 250.509408 
L 332.867819 245.564171 
L 333.676423 271.93713 
L 336.102235 271.93713 
L 336.506537 268.243271 
L 336.91084 245.815819 
L 337.315142 243.391094 
L 338.123746 225.853757 
L 338.528048 239.675434 
L 338.93235 246.8604 
L 339.336652 244.947794 
L 339.740954 247.042897 
L 340.145256 250.975338 
L 340.549558 247.494468 
L 340.95386 242.799685 
L 341.358162 241.999452 
L 341.762464 243.739185 
L 342.166766 244.514581 
L 342.571068 241.999452 
L 342.97537 255.97197 
L 343.379672 265.267483 
L 343.783974 270.718426 
L 344.188276 266.080376 
L 344.592578 267.483329 
L 344.996881 270.150419 
L 345.401183 266.917634 
L 345.805485 261.546299 
L 346.209787 264.377613 
L 346.614089 233.456284 
L 347.018391 243.739185 
L 347.422693 245.444436 
L 347.826995 245.444436 
L 348.231297 247.042897 
L 348.635599 250.164112 
L 349.039901 242.307218 
L 350.252807 254.203256 
L 350.657109 256.398935 
L 351.061411 254.659212 
L 351.465713 256.398935 
L 351.870015 255.637568 
L 352.274317 257.377291 
L 352.678619 257.377291 
L 353.487224 260.194247 
L 353.891526 262.501977 
L 354.295828 265.73577 
L 354.70013 271.93713 
L 355.104432 268.243271 
L 355.508734 266.080376 
L 355.913036 261.546299 
L 356.72164 244.413293 
L 357.125942 247.042897 
L 357.934546 247.042897 
L 358.338848 249.270076 
L 358.74315 249.270076 
L 359.147452 252.391302 
L 359.551754 256.398935 
L 359.956056 257.377291 
L 360.360358 258.923414 
L 361.168962 255.229555 
L 361.573265 257.377291 
L 361.977567 257.377291 
L 362.381869 244.878818 
L 362.786171 246.254304 
L 363.190473 250.975338 
L 363.594775 253.172782 
L 363.999077 254.203256 
L 364.807681 247.71228 
L 365.211983 249.270076 
L 365.616285 247.530354 
L 366.020587 249.270076 
L 366.424889 227.465513 
L 366.829191 233.25191 
L 367.233493 234.755834 
L 367.637795 234.755834 
L 368.042097 237.483175 
L 368.446399 246.8604 
L 368.850701 252.391302 
L 369.255003 239.803696 
L 369.659306 86.127595 
L 370.063608 64.980044 
L 370.46791 61.823404 
L 370.872212 181.880794 
L 371.276514 233.094371 
L 371.680816 249.270076 
L 372.085118 257.192822 
L 372.48942 271.93713 
L 373.702326 271.93713 
L 374.106628 258.870748 
L 374.51093 153.353709 
L 375.319534 86.806767 
L 376.128138 200.970473 
L 376.53244 219.29432 
L 376.936742 43.867427 
L 377.745346 223.37014 
L 378.149649 236.504314 
L 379.362555 255.609695 
L 379.766857 251.535323 
L 380.171159 255.041688 
L 380.575461 183.787207 
L 380.979763 244.513617 
L 381.384065 241.440388 
L 381.788367 255.97197 
L 382.192669 251.863762 
L 383.001273 271.93713 
L 384.214179 271.93713 
L 384.618481 268.243271 
L 385.022783 94.937531 
L 385.427085 61.532451 
L 385.831387 74.255505 
L 386.23569 210.208804 
L 386.639992 221.424826 
L 387.044294 223.213368 
L 387.448596 222.446741 
L 387.852898 224.192514 
L 387.852898 224.192514 
" clip-path="url(#pe6214224e5)" style="fill: none; stroke: #ff7f0e; stroke-width: 1.5; stroke-linecap: square"/>
   </g>
   <g id="patch_3">
    <path d="M 46.965625 288.910125 
L 46.965625 22.798125 
" style="fill: none; stroke: #000000; stroke-width: 0.8; stroke-linejoin: miter; stroke-linecap: square"/>
   </g>
   <g id="patch_4">
    <path d="M 404.085625 288.910125 
L 404.085625 22.798125 
" style="fill: none; stroke: #000000; stroke-width: 0.8; stroke-linejoin: miter; stroke-linecap: square"/>
   </g>
   <g id="patch_5">
    <path d="M 46.965625 288.910125 
L 404.085625 288.910125 
" style="fill: none; stroke: #000000; stroke-width: 0.8; stroke-linejoin: miter; stroke-linecap: square"/>
   </g>
   <g id="patch_6">
    <path d="M 46.965625 22.798125 
L 404.085625 22.798125 
" style="fill: none; stroke: #000000; stroke-width: 0.8; stroke-linejoin: miter; stroke-linecap: square"/>
   </g>
   <g id="text_18">
    <!-- [`XGBoost`] - Descaled consumption predictions -->
    <g transform="translate(79.70125 16.798125)scale(0.12 -0.12)">
     <defs>
      <path id="DejaVuSans-60" d="M 1147 5119 
L 2028 3950 
L 1550 3950 
L 531 5119 
L 1147 5119 
z
" transform="scale(0.015625)"/>
      <path id="DejaVuSans-58" d="M 403 4666 
L 1081 4666 
L 2241 2931 
L 3406 4666 
L 4084 4666 
L 2584 2425 
L 4184 0 
L 3506 0 
L 2194 1984 
L 872 0 
L 191 0 
L 1856 2491 
L 403 4666 
z
" transform="scale(0.015625)"/>
      <path id="DejaVuSans-47" d="M 3809 666 
L 3809 1919 
L 2778 1919 
L 2778 2438 
L 4434 2438 
L 4434 434 
Q 4069 175 3628 42 
Q 3188 -91 2688 -91 
Q 1594 -91 976 548 
Q 359 1188 359 2328 
Q 359 3472 976 4111 
Q 1594 4750 2688 4750 
Q 3144 4750 3555 4637 
Q 3966 4525 4313 4306 
L 4313 3634 
Q 3963 3931 3569 4081 
Q 3175 4231 2741 4231 
Q 1884 4231 1454 3753 
Q 1025 3275 1025 2328 
Q 1025 1384 1454 906 
Q 1884 428 2741 428 
Q 3075 428 3337 486 
Q 3600 544 3809 666 
z
" transform="scale(0.015625)"/>
      <path id="DejaVuSans-42" d="M 1259 2228 
L 1259 519 
L 2272 519 
Q 2781 519 3026 730 
Q 3272 941 3272 1375 
Q 3272 1813 3026 2020 
Q 2781 2228 2272 2228 
L 1259 2228 
z
M 1259 4147 
L 1259 2741 
L 2194 2741 
Q 2656 2741 2882 2914 
Q 3109 3088 3109 3444 
Q 3109 3797 2882 3972 
Q 2656 4147 2194 4147 
L 1259 4147 
z
M 628 4666 
L 2241 4666 
Q 2963 4666 3353 4366 
Q 3744 4066 3744 3513 
Q 3744 3084 3544 2831 
Q 3344 2578 2956 2516 
Q 3422 2416 3680 2098 
Q 3938 1781 3938 1306 
Q 3938 681 3513 340 
Q 3088 0 2303 0 
L 628 0 
L 628 4666 
z
" transform="scale(0.015625)"/>
      <path id="DejaVuSans-6f" d="M 1959 3097 
Q 1497 3097 1228 2736 
Q 959 2375 959 1747 
Q 959 1119 1226 758 
Q 1494 397 1959 397 
Q 2419 397 2687 759 
Q 2956 1122 2956 1747 
Q 2956 2369 2687 2733 
Q 2419 3097 1959 3097 
z
M 1959 3584 
Q 2709 3584 3137 3096 
Q 3566 2609 3566 1747 
Q 3566 888 3137 398 
Q 2709 -91 1959 -91 
Q 1206 -91 779 398 
Q 353 888 353 1747 
Q 353 2609 779 3096 
Q 1206 3584 1959 3584 
z
" transform="scale(0.015625)"/>
      <path id="DejaVuSans-73" d="M 2834 3397 
L 2834 2853 
Q 2591 2978 2328 3040 
Q 2066 3103 1784 3103 
Q 1356 3103 1142 2972 
Q 928 2841 928 2578 
Q 928 2378 1081 2264 
Q 1234 2150 1697 2047 
L 1894 2003 
Q 2506 1872 2764 1633 
Q 3022 1394 3022 966 
Q 3022 478 2636 193 
Q 2250 -91 1575 -91 
Q 1294 -91 989 -36 
Q 684 19 347 128 
L 347 722 
Q 666 556 975 473 
Q 1284 391 1588 391 
Q 1994 391 2212 530 
Q 2431 669 2431 922 
Q 2431 1156 2273 1281 
Q 2116 1406 1581 1522 
L 1381 1569 
Q 847 1681 609 1914 
Q 372 2147 372 2553 
Q 372 3047 722 3315 
Q 1072 3584 1716 3584 
Q 2034 3584 2315 3537 
Q 2597 3491 2834 3397 
z
" transform="scale(0.015625)"/>
      <path id="DejaVuSans-74" d="M 1172 4494 
L 1172 3500 
L 2356 3500 
L 2356 3053 
L 1172 3053 
L 1172 1153 
Q 1172 725 1289 603 
Q 1406 481 1766 481 
L 2356 481 
L 2356 0 
L 1766 0 
Q 1100 0 847 248 
Q 594 497 594 1153 
L 594 3053 
L 172 3053 
L 172 3500 
L 594 3500 
L 594 4494 
L 1172 4494 
z
" transform="scale(0.015625)"/>
      <path id="DejaVuSans-2d" d="M 313 2009 
L 1997 2009 
L 1997 1497 
L 313 1497 
L 313 2009 
z
" transform="scale(0.015625)"/>
      <path id="DejaVuSans-44" d="M 1259 4147 
L 1259 519 
L 2022 519 
Q 2988 519 3436 956 
Q 3884 1394 3884 2338 
Q 3884 3275 3436 3711 
Q 2988 4147 2022 4147 
L 1259 4147 
z
M 628 4666 
L 1925 4666 
Q 3281 4666 3915 4102 
Q 4550 3538 4550 2338 
Q 4550 1131 3912 565 
Q 3275 0 1925 0 
L 628 0 
L 628 4666 
z
" transform="scale(0.015625)"/>
      <path id="DejaVuSans-63" d="M 3122 3366 
L 3122 2828 
Q 2878 2963 2633 3030 
Q 2388 3097 2138 3097 
Q 1578 3097 1268 2742 
Q 959 2388 959 1747 
Q 959 1106 1268 751 
Q 1578 397 2138 397 
Q 2388 397 2633 464 
Q 2878 531 3122 666 
L 3122 134 
Q 2881 22 2623 -34 
Q 2366 -91 2075 -91 
Q 1284 -91 818 406 
Q 353 903 353 1747 
Q 353 2603 823 3093 
Q 1294 3584 2113 3584 
Q 2378 3584 2631 3529 
Q 2884 3475 3122 3366 
z
" transform="scale(0.015625)"/>
      <path id="DejaVuSans-61" d="M 2194 1759 
Q 1497 1759 1228 1600 
Q 959 1441 959 1056 
Q 959 750 1161 570 
Q 1363 391 1709 391 
Q 2188 391 2477 730 
Q 2766 1069 2766 1631 
L 2766 1759 
L 2194 1759 
z
M 3341 1997 
L 3341 0 
L 2766 0 
L 2766 531 
Q 2569 213 2275 61 
Q 1981 -91 1556 -91 
Q 1019 -91 701 211 
Q 384 513 384 1019 
Q 384 1609 779 1909 
Q 1175 2209 1959 2209 
L 2766 2209 
L 2766 2266 
Q 2766 2663 2505 2880 
Q 2244 3097 1772 3097 
Q 1472 3097 1187 3025 
Q 903 2953 641 2809 
L 641 3341 
Q 956 3463 1253 3523 
Q 1550 3584 1831 3584 
Q 2591 3584 2966 3190 
Q 3341 2797 3341 1997 
z
" transform="scale(0.015625)"/>
      <path id="DejaVuSans-6c" d="M 603 4863 
L 1178 4863 
L 1178 0 
L 603 0 
L 603 4863 
z
" transform="scale(0.015625)"/>
      <path id="DejaVuSans-64" d="M 2906 2969 
L 2906 4863 
L 3481 4863 
L 3481 0 
L 2906 0 
L 2906 525 
Q 2725 213 2448 61 
Q 2172 -91 1784 -91 
Q 1150 -91 751 415 
Q 353 922 353 1747 
Q 353 2572 751 3078 
Q 1150 3584 1784 3584 
Q 2172 3584 2448 3432 
Q 2725 3281 2906 2969 
z
M 947 1747 
Q 947 1113 1208 752 
Q 1469 391 1925 391 
Q 2381 391 2643 752 
Q 2906 1113 2906 1747 
Q 2906 2381 2643 2742 
Q 2381 3103 1925 3103 
Q 1469 3103 1208 2742 
Q 947 2381 947 1747 
z
" transform="scale(0.015625)"/>
      <path id="DejaVuSans-75" d="M 544 1381 
L 544 3500 
L 1119 3500 
L 1119 1403 
Q 1119 906 1312 657 
Q 1506 409 1894 409 
Q 2359 409 2629 706 
Q 2900 1003 2900 1516 
L 2900 3500 
L 3475 3500 
L 3475 0 
L 2900 0 
L 2900 538 
Q 2691 219 2414 64 
Q 2138 -91 1772 -91 
Q 1169 -91 856 284 
Q 544 659 544 1381 
z
M 1991 3584 
L 1991 3584 
z
" transform="scale(0.015625)"/>
      <path id="DejaVuSans-70" d="M 1159 525 
L 1159 -1331 
L 581 -1331 
L 581 3500 
L 1159 3500 
L 1159 2969 
Q 1341 3281 1617 3432 
Q 1894 3584 2278 3584 
Q 2916 3584 3314 3078 
Q 3713 2572 3713 1747 
Q 3713 922 3314 415 
Q 2916 -91 2278 -91 
Q 1894 -91 1617 61 
Q 1341 213 1159 525 
z
M 3116 1747 
Q 3116 2381 2855 2742 
Q 2594 3103 2138 3103 
Q 1681 3103 1420 2742 
Q 1159 2381 1159 1747 
Q 1159 1113 1420 752 
Q 1681 391 2138 391 
Q 2594 391 2855 752 
Q 3116 1113 3116 1747 
z
" transform="scale(0.015625)"/>
     </defs>
     <use xlink:href="#DejaVuSans-5b"/>
     <use xlink:href="#DejaVuSans-60" x="39.013672"/>
     <use xlink:href="#DejaVuSans-58" x="89.013672"/>
     <use xlink:href="#DejaVuSans-47" x="157.519531"/>
     <use xlink:href="#DejaVuSans-42" x="235.009766"/>
     <use xlink:href="#DejaVuSans-6f" x="303.613281"/>
     <use xlink:href="#DejaVuSans-6f" x="364.794922"/>
     <use xlink:href="#DejaVuSans-73" x="425.976562"/>
     <use xlink:href="#DejaVuSans-74" x="478.076172"/>
     <use xlink:href="#DejaVuSans-60" x="517.285156"/>
     <use xlink:href="#DejaVuSans-5d" x="567.285156"/>
     <use xlink:href="#DejaVuSans-20" x="606.298828"/>
     <use xlink:href="#DejaVuSans-2d" x="638.085938"/>
     <use xlink:href="#DejaVuSans-20" x="674.169922"/>
     <use xlink:href="#DejaVuSans-44" x="705.957031"/>
     <use xlink:href="#DejaVuSans-65" x="782.958984"/>
     <use xlink:href="#DejaVuSans-73" x="844.482422"/>
     <use xlink:href="#DejaVuSans-63" x="896.582031"/>
     <use xlink:href="#DejaVuSans-61" x="951.5625"/>
     <use xlink:href="#DejaVuSans-6c" x="1012.841797"/>
     <use xlink:href="#DejaVuSans-65" x="1040.625"/>
     <use xlink:href="#DejaVuSans-64" x="1102.148438"/>
     <use xlink:href="#DejaVuSans-20" x="1165.625"/>
     <use xlink:href="#DejaVuSans-63" x="1197.412109"/>
     <use xlink:href="#DejaVuSans-6f" x="1252.392578"/>
     <use xlink:href="#DejaVuSans-6e" x="1313.574219"/>
     <use xlink:href="#DejaVuSans-73" x="1376.953125"/>
     <use xlink:href="#DejaVuSans-75" x="1429.052734"/>
     <use xlink:href="#DejaVuSans-6d" x="1492.431641"/>
     <use xlink:href="#DejaVuSans-70" x="1589.84375"/>
     <use xlink:href="#DejaVuSans-74" x="1653.320312"/>
     <use xlink:href="#DejaVuSans-69" x="1692.529297"/>
     <use xlink:href="#DejaVuSans-6f" x="1720.3125"/>
     <use xlink:href="#DejaVuSans-6e" x="1781.494141"/>
     <use xlink:href="#DejaVuSans-20" x="1844.873047"/>
     <use xlink:href="#DejaVuSans-70" x="1876.660156"/>
     <use xlink:href="#DejaVuSans-72" x="1940.136719"/>
     <use xlink:href="#DejaVuSans-65" x="1979"/>
     <use xlink:href="#DejaVuSans-64" x="2040.523438"/>
     <use xlink:href="#DejaVuSans-69" x="2104"/>
     <use xlink:href="#DejaVuSans-63" x="2131.783203"/>
     <use xlink:href="#DejaVuSans-74" x="2186.763672"/>
     <use xlink:href="#DejaVuSans-69" x="2225.972656"/>
     <use xlink:href="#DejaVuSans-6f" x="2253.755859"/>
     <use xlink:href="#DejaVuSans-6e" x="2314.9375"/>
     <use xlink:href="#DejaVuSans-73" x="2378.316406"/>
    </g>
   </g>
   <g id="legend_1">
    <g id="patch_7">
     <path d="M 53.965625 60.154375 
L 132.954688 60.154375 
Q 134.954688 60.154375 134.954688 58.154375 
L 134.954688 29.798125 
Q 134.954688 27.798125 132.954688 27.798125 
L 53.965625 27.798125 
Q 51.965625 27.798125 51.965625 29.798125 
L 51.965625 58.154375 
Q 51.965625 60.154375 53.965625 60.154375 
z
" style="fill: #ffffff; opacity: 0.8; stroke: #cccccc; stroke-linejoin: miter"/>
    </g>
    <g id="line2d_18">
     <path d="M 55.965625 35.896562 
L 65.965625 35.896562 
L 75.965625 35.896562 
" style="fill: none; stroke-dasharray: 9.6,2.4,1.5,2.4; stroke-dashoffset: 0; stroke: #1f77b4; stroke-width: 1.5"/>
    </g>
    <g id="text_19">
     <!-- Real -->
     <g transform="translate(83.965625 39.396562)scale(0.1 -0.1)">
      <defs>
       <path id="DejaVuSans-52" d="M 2841 2188 
Q 3044 2119 3236 1894 
Q 3428 1669 3622 1275 
L 4263 0 
L 3584 0 
L 2988 1197 
Q 2756 1666 2539 1819 
Q 2322 1972 1947 1972 
L 1259 1972 
L 1259 0 
L 628 0 
L 628 4666 
L 2053 4666 
Q 2853 4666 3247 4331 
Q 3641 3997 3641 3322 
Q 3641 2881 3436 2590 
Q 3231 2300 2841 2188 
z
M 1259 4147 
L 1259 2491 
L 2053 2491 
Q 2509 2491 2742 2702 
Q 2975 2913 2975 3322 
Q 2975 3731 2742 3939 
Q 2509 4147 2053 4147 
L 1259 4147 
z
" transform="scale(0.015625)"/>
      </defs>
      <use xlink:href="#DejaVuSans-52"/>
      <use xlink:href="#DejaVuSans-65" x="64.982422"/>
      <use xlink:href="#DejaVuSans-61" x="126.505859"/>
      <use xlink:href="#DejaVuSans-6c" x="187.785156"/>
     </g>
    </g>
    <g id="line2d_19">
     <path d="M 55.965625 50.574687 
L 65.965625 50.574687 
L 75.965625 50.574687 
" style="fill: none; stroke: #ff7f0e; stroke-width: 1.5; stroke-linecap: square"/>
    </g>
    <g id="text_20">
     <!-- Inference -->
     <g transform="translate(83.965625 54.074687)scale(0.1 -0.1)">
      <defs>
       <path id="DejaVuSans-49" d="M 628 4666 
L 1259 4666 
L 1259 0 
L 628 0 
L 628 4666 
z
" transform="scale(0.015625)"/>
       <path id="DejaVuSans-66" d="M 2375 4863 
L 2375 4384 
L 1825 4384 
Q 1516 4384 1395 4259 
Q 1275 4134 1275 3809 
L 1275 3500 
L 2222 3500 
L 2222 3053 
L 1275 3053 
L 1275 0 
L 697 0 
L 697 3053 
L 147 3053 
L 147 3500 
L 697 3500 
L 697 3744 
Q 697 4328 969 4595 
Q 1241 4863 1831 4863 
L 2375 4863 
z
" transform="scale(0.015625)"/>
      </defs>
      <use xlink:href="#DejaVuSans-49"/>
      <use xlink:href="#DejaVuSans-6e" x="29.492188"/>
      <use xlink:href="#DejaVuSans-66" x="92.871094"/>
      <use xlink:href="#DejaVuSans-65" x="128.076172"/>
      <use xlink:href="#DejaVuSans-72" x="189.599609"/>
      <use xlink:href="#DejaVuSans-65" x="228.462891"/>
      <use xlink:href="#DejaVuSans-6e" x="289.986328"/>
      <use xlink:href="#DejaVuSans-63" x="353.365234"/>
      <use xlink:href="#DejaVuSans-65" x="408.345703"/>
     </g>
    </g>
   </g>
  </g>
 </g>
 <defs>
  <clipPath id="pe6214224e5">
   <rect x="46.965625" y="22.798125" width="357.12" height="266.112"/>
  </clipPath>
 </defs>
</svg>
