<?xml version="1.0" encoding="UTF-8" standalone="no"?>
<!DOCTYPE svg PUBLIC "-//W3C//DTD SVG 1.1//EN"
 "http://www.w3.org/Graphics/SVG/1.1/DTD/svg11.dtd">
<!-- Generated by graphviz version 2.50.0 (0)
 -->
<!-- Pages: 1 -->
<svg width="2400pt" height="392pt"
 viewBox="0.00 0.00 2400.39 392.00" xmlns="http://www.w3.org/2000/svg" xmlns:xlink="http://www.w3.org/1999/xlink">
<g id="graph0" class="graph" transform="scale(1 1) rotate(0) translate(4 388)">
<polygon fill="white" stroke="transparent" points="-4,4 -4,-388 2396.39,-388 2396.39,4 -4,4"/>
<!-- 0 -->
<g id="node1" class="node">
<title>0</title>
<ellipse fill="#78cb0e" stroke="black" cx="1286.39" cy="-366" rx="126.98" ry="18"/>
<text text-anchor="middle" x="1286.39" y="-362.3" font-family="Times,serif" font-size="14.00">prev_consumption&lt;&#45;0.59665215</text>
</g>
<!-- 1 -->
<g id="node2" class="node">
<title>1</title>
<ellipse fill="#78cb0e" stroke="black" cx="848.39" cy="-279" rx="144.87" ry="18"/>
<text text-anchor="middle" x="848.39" y="-275.3" font-family="Times,serif" font-size="14.00">consumption_change&lt;&#45;0.0176042616</text>
</g>
<!-- 0&#45;&gt;1 -->
<g id="edge1" class="edge">
<title>0&#45;&gt;1</title>
<path fill="none" stroke="#0000ff" d="M1214.55,-351.06C1137.32,-336.07 1014.64,-312.26 932.84,-296.39"/>
<polygon fill="#0000ff" stroke="#0000ff" points="933.31,-292.92 922.83,-294.45 931.98,-299.79 933.31,-292.92"/>
<text text-anchor="middle" x="1128.89" y="-318.8" font-family="Times,serif" font-size="14.00">yes, missing</text>
</g>
<!-- 2 -->
<g id="node3" class="node">
<title>2</title>
<ellipse fill="#78cb0e" stroke="black" cx="1541.39" cy="-279" rx="140.28" ry="18"/>
<text text-anchor="middle" x="1541.39" y="-275.3" font-family="Times,serif" font-size="14.00">consumption_change&lt;&#45;0.229966581</text>
</g>
<!-- 0&#45;&gt;2 -->
<g id="edge2" class="edge">
<title>0&#45;&gt;2</title>
<path fill="none" stroke="#ff0000" d="M1333.75,-349.21C1376.16,-335.08 1438.44,-314.31 1483.73,-299.22"/>
<polygon fill="#ff0000" stroke="#ff0000" points="1485.03,-302.48 1493.41,-295.99 1482.82,-295.83 1485.03,-302.48"/>
<text text-anchor="middle" x="1436.39" y="-318.8" font-family="Times,serif" font-size="14.00">no</text>
</g>
<!-- 3 -->
<g id="node4" class="node">
<title>3</title>
<ellipse fill="#78cb0e" stroke="black" cx="434.39" cy="-192" rx="131.08" ry="18"/>
<text text-anchor="middle" x="434.39" y="-188.3" font-family="Times,serif" font-size="14.00">prev_consumption&lt;&#45;0.847431719</text>
</g>
<!-- 1&#45;&gt;3 -->
<g id="edge3" class="edge">
<title>1&#45;&gt;3</title>
<path fill="none" stroke="#0000ff" d="M776.75,-263.29C703.55,-248.26 590.13,-224.98 514.12,-209.37"/>
<polygon fill="#0000ff" stroke="#0000ff" points="514.62,-205.9 504.12,-207.32 513.21,-212.76 514.62,-205.9"/>
<text text-anchor="middle" x="700.89" y="-231.8" font-family="Times,serif" font-size="14.00">yes, missing</text>
</g>
<!-- 4 -->
<g id="node5" class="node">
<title>4</title>
<ellipse fill="#78cb0e" stroke="black" cx="848.39" cy="-192" rx="137.58" ry="18"/>
<text text-anchor="middle" x="848.39" y="-188.3" font-family="Times,serif" font-size="14.00">consumption_change&lt;0.321163893</text>
</g>
<!-- 1&#45;&gt;4 -->
<g id="edge4" class="edge">
<title>1&#45;&gt;4</title>
<path fill="none" stroke="#ff0000" d="M848.39,-260.8C848.39,-249.16 848.39,-233.55 848.39,-220.24"/>
<polygon fill="#ff0000" stroke="#ff0000" points="851.89,-220.18 848.39,-210.18 844.89,-220.18 851.89,-220.18"/>
<text text-anchor="middle" x="855.39" y="-231.8" font-family="Times,serif" font-size="14.00">no</text>
</g>
<!-- 5 -->
<g id="node18" class="node">
<title>5</title>
<ellipse fill="#78cb0e" stroke="black" cx="1541.39" cy="-192" rx="131.08" ry="18"/>
<text text-anchor="middle" x="1541.39" y="-188.3" font-family="Times,serif" font-size="14.00">prev_consumption&lt;&#45;0.141575605</text>
</g>
<!-- 2&#45;&gt;5 -->
<g id="edge17" class="edge">
<title>2&#45;&gt;5</title>
<path fill="none" stroke="#0000ff" d="M1541.39,-260.8C1541.39,-249.16 1541.39,-233.55 1541.39,-220.24"/>
<polygon fill="#0000ff" stroke="#0000ff" points="1544.89,-220.18 1541.39,-210.18 1537.89,-220.18 1544.89,-220.18"/>
<text text-anchor="middle" x="1575.89" y="-231.8" font-family="Times,serif" font-size="14.00">yes, missing</text>
</g>
<!-- 6 -->
<g id="node19" class="node">
<title>6</title>
<ellipse fill="#78cb0e" stroke="black" cx="1902.39" cy="-192" rx="131.08" ry="18"/>
<text text-anchor="middle" x="1902.39" y="-188.3" font-family="Times,serif" font-size="14.00">prev_consumption&lt;&#45;0.258077562</text>
</g>
<!-- 2&#45;&gt;6 -->
<g id="edge18" class="edge">
<title>2&#45;&gt;6</title>
<path fill="none" stroke="#ff0000" d="M1605.51,-262.9C1668.34,-248.11 1763.95,-225.59 1829.6,-210.14"/>
<polygon fill="#ff0000" stroke="#ff0000" points="1830.53,-213.51 1839.47,-207.82 1828.93,-206.7 1830.53,-213.51"/>
<text text-anchor="middle" x="1751.39" y="-231.8" font-family="Times,serif" font-size="14.00">no</text>
</g>
<!-- 7 -->
<g id="node6" class="node">
<title>7</title>
<ellipse fill="#78cb0e" stroke="black" cx="140.39" cy="-105" rx="140.28" ry="18"/>
<text text-anchor="middle" x="140.39" y="-101.3" font-family="Times,serif" font-size="14.00">consumption_change&lt;&#45;0.147898749</text>
</g>
<!-- 3&#45;&gt;7 -->
<g id="edge5" class="edge">
<title>3&#45;&gt;7</title>
<path fill="none" stroke="#0000ff" d="M380.81,-175.51C331.17,-161.16 257.27,-139.79 204.52,-124.54"/>
<polygon fill="#0000ff" stroke="#0000ff" points="205.17,-121.09 194.6,-121.67 203.23,-127.81 205.17,-121.09"/>
<text text-anchor="middle" x="339.89" y="-144.8" font-family="Times,serif" font-size="14.00">yes, missing</text>
</g>
<!-- 8 -->
<g id="node7" class="node">
<title>8</title>
<ellipse fill="#78cb0e" stroke="black" cx="434.39" cy="-105" rx="135.68" ry="18"/>
<text text-anchor="middle" x="434.39" y="-101.3" font-family="Times,serif" font-size="14.00">consumption_change&lt;&#45;0.17977199</text>
</g>
<!-- 3&#45;&gt;8 -->
<g id="edge6" class="edge">
<title>3&#45;&gt;8</title>
<path fill="none" stroke="#ff0000" d="M434.39,-173.8C434.39,-162.16 434.39,-146.55 434.39,-133.24"/>
<polygon fill="#ff0000" stroke="#ff0000" points="437.89,-133.18 434.39,-123.18 430.89,-133.18 437.89,-133.18"/>
<text text-anchor="middle" x="441.39" y="-144.8" font-family="Times,serif" font-size="14.00">no</text>
</g>
<!-- 9 -->
<g id="node12" class="node">
<title>9</title>
<ellipse fill="#78cb0e" stroke="black" cx="726.39" cy="-105" rx="137.58" ry="18"/>
<text text-anchor="middle" x="726.39" y="-101.3" font-family="Times,serif" font-size="14.00">consumption_change&lt;0.137559325</text>
</g>
<!-- 4&#45;&gt;9 -->
<g id="edge11" class="edge">
<title>4&#45;&gt;9</title>
<path fill="none" stroke="#0000ff" d="M824.28,-174.21C805.57,-161.17 779.43,-142.96 758.87,-128.63"/>
<polygon fill="#0000ff" stroke="#0000ff" points="760.65,-125.6 750.44,-122.76 756.64,-131.35 760.65,-125.6"/>
<text text-anchor="middle" x="829.89" y="-144.8" font-family="Times,serif" font-size="14.00">yes, missing</text>
</g>
<!-- 10 -->
<g id="node13" class="node">
<title>10</title>
<ellipse fill="#78cb0e" stroke="black" cx="1013.39" cy="-105" rx="131.08" ry="18"/>
<text text-anchor="middle" x="1013.39" y="-101.3" font-family="Times,serif" font-size="14.00">prev_consumption&lt;&#45;0.845697403</text>
</g>
<!-- 4&#45;&gt;10 -->
<g id="edge12" class="edge">
<title>4&#45;&gt;10</title>
<path fill="none" stroke="#ff0000" d="M880.59,-174.41C906.71,-160.95 943.71,-141.89 972.02,-127.31"/>
<polygon fill="#ff0000" stroke="#ff0000" points="973.98,-130.24 981.26,-122.55 970.77,-124.02 973.98,-130.24"/>
<text text-anchor="middle" x="948.39" y="-144.8" font-family="Times,serif" font-size="14.00">no</text>
</g>
<!-- 15 -->
<g id="node8" class="node">
<title>15</title>
<polygon fill="#e48038" stroke="black" points="154.89,-36 33.89,-36 33.89,0 154.89,0 154.89,-36"/>
<text text-anchor="middle" x="94.39" y="-14.3" font-family="Times,serif" font-size="14.00">leaf=&#45;0.144016311</text>
</g>
<!-- 7&#45;&gt;15 -->
<g id="edge7" class="edge">
<title>7&#45;&gt;15</title>
<path fill="none" stroke="#0000ff" d="M131.08,-86.8C124.59,-74.82 115.83,-58.62 108.49,-45.06"/>
<polygon fill="#0000ff" stroke="#0000ff" points="111.52,-43.3 103.68,-36.18 105.36,-46.64 111.52,-43.3"/>
<text text-anchor="middle" x="154.89" y="-57.8" font-family="Times,serif" font-size="14.00">yes, missing</text>
</g>
<!-- 16 -->
<g id="node9" class="node">
<title>16</title>
<polygon fill="#e48038" stroke="black" points="293.89,-36 172.89,-36 172.89,0 293.89,0 293.89,-36"/>
<text text-anchor="middle" x="233.39" y="-14.3" font-family="Times,serif" font-size="14.00">leaf=&#45;0.128330365</text>
</g>
<!-- 7&#45;&gt;16 -->
<g id="edge8" class="edge">
<title>7&#45;&gt;16</title>
<path fill="none" stroke="#ff0000" d="M169.1,-87.38C177.33,-82 186.06,-75.69 193.39,-69 201.39,-61.69 209.1,-52.7 215.58,-44.36"/>
<polygon fill="#ff0000" stroke="#ff0000" points="218.4,-46.43 221.61,-36.33 212.81,-42.23 218.4,-46.43"/>
<text text-anchor="middle" x="214.39" y="-57.8" font-family="Times,serif" font-size="14.00">no</text>
</g>
<!-- 17 -->
<g id="node10" class="node">
<title>17</title>
<polygon fill="#e48038" stroke="black" points="463.89,-36 342.89,-36 342.89,0 463.89,0 463.89,-36"/>
<text text-anchor="middle" x="403.39" y="-14.3" font-family="Times,serif" font-size="14.00">leaf=&#45;0.132066607</text>
</g>
<!-- 8&#45;&gt;17 -->
<g id="edge9" class="edge">
<title>8&#45;&gt;17</title>
<path fill="none" stroke="#0000ff" d="M428.11,-86.8C423.83,-75.05 418.06,-59.24 413.18,-45.84"/>
<polygon fill="#0000ff" stroke="#0000ff" points="416.37,-44.37 409.65,-36.18 409.79,-46.77 416.37,-44.37"/>
<text text-anchor="middle" x="455.89" y="-57.8" font-family="Times,serif" font-size="14.00">yes, missing</text>
</g>
<!-- 18 -->
<g id="node11" class="node">
<title>18</title>
<polygon fill="#e48038" stroke="black" points="602.89,-36 481.89,-36 481.89,0 602.89,0 602.89,-36"/>
<text text-anchor="middle" x="542.39" y="-14.3" font-family="Times,serif" font-size="14.00">leaf=&#45;0.110610485</text>
</g>
<!-- 8&#45;&gt;18 -->
<g id="edge10" class="edge">
<title>8&#45;&gt;18</title>
<path fill="none" stroke="#ff0000" d="M466.6,-87.4C475.91,-82.03 485.86,-75.71 494.39,-69 503.8,-61.59 513.15,-52.39 521.06,-43.9"/>
<polygon fill="#ff0000" stroke="#ff0000" points="523.75,-46.14 527.88,-36.38 518.57,-41.43 523.75,-46.14"/>
<text text-anchor="middle" x="517.39" y="-57.8" font-family="Times,serif" font-size="14.00">no</text>
</g>
<!-- 19 -->
<g id="node14" class="node">
<title>19</title>
<polygon fill="#e48038" stroke="black" points="767.39,-36 639.39,-36 639.39,0 767.39,0 767.39,-36"/>
<text text-anchor="middle" x="703.39" y="-14.3" font-family="Times,serif" font-size="14.00">leaf=&#45;0.0905341133</text>
</g>
<!-- 9&#45;&gt;19 -->
<g id="edge13" class="edge">
<title>9&#45;&gt;19</title>
<path fill="none" stroke="#0000ff" d="M721.73,-86.8C718.55,-75.05 714.28,-59.24 710.65,-45.84"/>
<polygon fill="#0000ff" stroke="#0000ff" points="714.03,-44.91 708.04,-36.18 707.27,-46.74 714.03,-44.91"/>
<text text-anchor="middle" x="750.89" y="-57.8" font-family="Times,serif" font-size="14.00">yes, missing</text>
</g>
<!-- 20 -->
<g id="node15" class="node">
<title>20</title>
<polygon fill="#e48038" stroke="black" points="913.39,-36 785.39,-36 785.39,0 913.39,0 913.39,-36"/>
<text text-anchor="middle" x="849.39" y="-14.3" font-family="Times,serif" font-size="14.00">leaf=&#45;0.0701202676</text>
</g>
<!-- 9&#45;&gt;20 -->
<g id="edge14" class="edge">
<title>9&#45;&gt;20</title>
<path fill="none" stroke="#ff0000" d="M758.81,-87.5C768.85,-82 779.79,-75.58 789.39,-69 800.86,-61.14 812.77,-51.55 822.93,-42.88"/>
<polygon fill="#ff0000" stroke="#ff0000" points="825.4,-45.37 830.66,-36.17 820.81,-40.08 825.4,-45.37"/>
<text text-anchor="middle" x="815.39" y="-57.8" font-family="Times,serif" font-size="14.00">no</text>
</g>
<!-- 21 -->
<g id="node16" class="node">
<title>21</title>
<polygon fill="#e48038" stroke="black" points="1068.39,-36 940.39,-36 940.39,0 1068.39,0 1068.39,-36"/>
<text text-anchor="middle" x="1004.39" y="-14.3" font-family="Times,serif" font-size="14.00">leaf=&#45;0.0474994183</text>
</g>
<!-- 10&#45;&gt;21 -->
<g id="edge15" class="edge">
<title>10&#45;&gt;21</title>
<path fill="none" stroke="#0000ff" d="M1011.57,-86.8C1010.33,-75.16 1008.68,-59.55 1007.27,-46.24"/>
<polygon fill="#0000ff" stroke="#0000ff" points="1010.74,-45.75 1006.21,-36.18 1003.78,-46.49 1010.74,-45.75"/>
<text text-anchor="middle" x="1044.89" y="-57.8" font-family="Times,serif" font-size="14.00">yes, missing</text>
</g>
<!-- 22 -->
<g id="node17" class="node">
<title>22</title>
<polygon fill="#e48038" stroke="black" points="1214.39,-36 1086.39,-36 1086.39,0 1214.39,0 1214.39,-36"/>
<text text-anchor="middle" x="1150.39" y="-14.3" font-family="Times,serif" font-size="14.00">leaf=&#45;0.0271056052</text>
</g>
<!-- 10&#45;&gt;22 -->
<g id="edge16" class="edge">
<title>10&#45;&gt;22</title>
<path fill="none" stroke="#ff0000" d="M1049.3,-87.57C1060.45,-82.06 1072.63,-75.63 1083.39,-69 1096.31,-61.03 1109.86,-51.23 1121.37,-42.42"/>
<polygon fill="#ff0000" stroke="#ff0000" points="1123.6,-45.12 1129.35,-36.22 1119.3,-39.59 1123.6,-45.12"/>
<text text-anchor="middle" x="1112.39" y="-57.8" font-family="Times,serif" font-size="14.00">no</text>
</g>
<!-- 11 -->
<g id="node20" class="node">
<title>11</title>
<ellipse fill="#78cb0e" stroke="black" cx="1303.39" cy="-105" rx="140.28" ry="18"/>
<text text-anchor="middle" x="1303.39" y="-101.3" font-family="Times,serif" font-size="14.00">consumption_change&lt;&#45;0.384129286</text>
</g>
<!-- 5&#45;&gt;11 -->
<g id="edge19" class="edge">
<title>5&#45;&gt;11</title>
<path fill="none" stroke="#0000ff" d="M1496.62,-175.01C1457.27,-160.96 1399.89,-140.46 1357.88,-125.46"/>
<polygon fill="#0000ff" stroke="#0000ff" points="1358.95,-122.13 1348.36,-122.06 1356.6,-128.72 1358.95,-122.13"/>
<text text-anchor="middle" x="1471.89" y="-144.8" font-family="Times,serif" font-size="14.00">yes, missing</text>
</g>
<!-- 12 -->
<g id="node21" class="node">
<title>12</title>
<ellipse fill="#78cb0e" stroke="black" cx="1602.39" cy="-105" rx="140.28" ry="18"/>
<text text-anchor="middle" x="1602.39" y="-101.3" font-family="Times,serif" font-size="14.00">consumption_change&lt;&#45;0.547203541</text>
</g>
<!-- 5&#45;&gt;12 -->
<g id="edge20" class="edge">
<title>5&#45;&gt;12</title>
<path fill="none" stroke="#ff0000" d="M1553.73,-173.8C1562.41,-161.7 1574.18,-145.3 1583.97,-131.67"/>
<polygon fill="#ff0000" stroke="#ff0000" points="1587.07,-133.34 1590.06,-123.18 1581.39,-129.26 1587.07,-133.34"/>
<text text-anchor="middle" x="1583.39" y="-144.8" font-family="Times,serif" font-size="14.00">no</text>
</g>
<!-- 13 -->
<g id="node26" class="node">
<title>13</title>
<ellipse fill="#78cb0e" stroke="black" cx="1902.39" cy="-105" rx="141.88" ry="18"/>
<text text-anchor="middle" x="1902.39" y="-101.3" font-family="Times,serif" font-size="14.00">consumption_change&lt;0.0599708557</text>
</g>
<!-- 6&#45;&gt;13 -->
<g id="edge25" class="edge">
<title>6&#45;&gt;13</title>
<path fill="none" stroke="#0000ff" d="M1902.39,-173.8C1902.39,-162.16 1902.39,-146.55 1902.39,-133.24"/>
<polygon fill="#0000ff" stroke="#0000ff" points="1905.89,-133.18 1902.39,-123.18 1898.89,-133.18 1905.89,-133.18"/>
<text text-anchor="middle" x="1936.89" y="-144.8" font-family="Times,serif" font-size="14.00">yes, missing</text>
</g>
<!-- 14 -->
<g id="node27" class="node">
<title>14</title>
<ellipse fill="#78cb0e" stroke="black" cx="2186.39" cy="-105" rx="124.28" ry="18"/>
<text text-anchor="middle" x="2186.39" y="-101.3" font-family="Times,serif" font-size="14.00">prev_consumption&lt;0.13232246</text>
</g>
<!-- 6&#45;&gt;14 -->
<g id="edge26" class="edge">
<title>6&#45;&gt;14</title>
<path fill="none" stroke="#ff0000" d="M1954.48,-175.41C2002.52,-161.03 2073.88,-139.67 2124.74,-124.45"/>
<polygon fill="#ff0000" stroke="#ff0000" points="2126.05,-127.71 2134.63,-121.49 2124.04,-121.01 2126.05,-127.71"/>
<text text-anchor="middle" x="2069.39" y="-144.8" font-family="Times,serif" font-size="14.00">no</text>
</g>
<!-- 23 -->
<g id="node22" class="node">
<title>23</title>
<polygon fill="#e48038" stroke="black" points="1358.89,-36 1237.89,-36 1237.89,0 1358.89,0 1358.89,-36"/>
<text text-anchor="middle" x="1298.39" y="-14.3" font-family="Times,serif" font-size="14.00">leaf=&#45;0.124728516</text>
</g>
<!-- 11&#45;&gt;23 -->
<g id="edge21" class="edge">
<title>11&#45;&gt;23</title>
<path fill="none" stroke="#0000ff" d="M1302.38,-86.8C1301.69,-75.16 1300.77,-59.55 1299.99,-46.24"/>
<polygon fill="#0000ff" stroke="#0000ff" points="1303.48,-45.95 1299.4,-36.18 1296.49,-46.36 1303.48,-45.95"/>
<text text-anchor="middle" x="1335.89" y="-57.8" font-family="Times,serif" font-size="14.00">yes, missing</text>
</g>
<!-- 24 -->
<g id="node23" class="node">
<title>24</title>
<polygon fill="#e48038" stroke="black" points="1497.89,-36 1376.89,-36 1376.89,0 1497.89,0 1497.89,-36"/>
<text text-anchor="middle" x="1437.39" y="-14.3" font-family="Times,serif" font-size="14.00">leaf=&#45;0.102976039</text>
</g>
<!-- 11&#45;&gt;24 -->
<g id="edge22" class="edge">
<title>11&#45;&gt;24</title>
<path fill="none" stroke="#ff0000" d="M1340.68,-87.46C1351.8,-82.05 1363.82,-75.69 1374.39,-69 1386.7,-61.2 1399.45,-51.45 1410.23,-42.63"/>
<polygon fill="#ff0000" stroke="#ff0000" points="1412.6,-45.21 1418.05,-36.12 1408.12,-39.83 1412.6,-45.21"/>
<text text-anchor="middle" x="1401.39" y="-57.8" font-family="Times,serif" font-size="14.00">no</text>
</g>
<!-- 25 -->
<g id="node24" class="node">
<title>25</title>
<polygon fill="#e48038" stroke="black" points="1649.89,-36 1528.89,-36 1528.89,0 1649.89,0 1649.89,-36"/>
<text text-anchor="middle" x="1589.39" y="-14.3" font-family="Times,serif" font-size="14.00">leaf=&#45;0.102393888</text>
</g>
<!-- 12&#45;&gt;25 -->
<g id="edge23" class="edge">
<title>12&#45;&gt;25</title>
<path fill="none" stroke="#0000ff" d="M1599.76,-86.8C1597.98,-75.16 1595.59,-59.55 1593.55,-46.24"/>
<polygon fill="#0000ff" stroke="#0000ff" points="1596.99,-45.53 1592.01,-36.18 1590.07,-46.59 1596.99,-45.53"/>
<text text-anchor="middle" x="1631.89" y="-57.8" font-family="Times,serif" font-size="14.00">yes, missing</text>
</g>
<!-- 26 -->
<g id="node25" class="node">
<title>26</title>
<polygon fill="#e48038" stroke="black" points="1796.39,-36 1668.39,-36 1668.39,0 1796.39,0 1796.39,-36"/>
<text text-anchor="middle" x="1732.39" y="-14.3" font-family="Times,serif" font-size="14.00">leaf=&#45;0.0611015335</text>
</g>
<!-- 12&#45;&gt;26 -->
<g id="edge24" class="edge">
<title>12&#45;&gt;26</title>
<path fill="none" stroke="#ff0000" d="M1637.75,-87.52C1648.49,-82.06 1660.15,-75.66 1670.39,-69 1682.49,-61.13 1695.03,-51.36 1705.64,-42.55"/>
<polygon fill="#ff0000" stroke="#ff0000" points="1707.95,-45.18 1713.34,-36.05 1703.44,-39.83 1707.95,-45.18"/>
<text text-anchor="middle" x="1697.39" y="-57.8" font-family="Times,serif" font-size="14.00">no</text>
</g>
<!-- 27 -->
<g id="node28" class="node">
<title>27</title>
<polygon fill="#e48038" stroke="black" points="1950.39,-36 1822.39,-36 1822.39,0 1950.39,0 1950.39,-36"/>
<text text-anchor="middle" x="1886.39" y="-14.3" font-family="Times,serif" font-size="14.00">leaf=&#45;0.0833331496</text>
</g>
<!-- 13&#45;&gt;27 -->
<g id="edge27" class="edge">
<title>13&#45;&gt;27</title>
<path fill="none" stroke="#0000ff" d="M1899.15,-86.8C1896.96,-75.16 1894.02,-59.55 1891.51,-46.24"/>
<polygon fill="#0000ff" stroke="#0000ff" points="1894.91,-45.36 1889.62,-36.18 1888.03,-46.65 1894.91,-45.36"/>
<text text-anchor="middle" x="1929.89" y="-57.8" font-family="Times,serif" font-size="14.00">yes, missing</text>
</g>
<!-- 28 -->
<g id="node29" class="node">
<title>28</title>
<polygon fill="#e48038" stroke="black" points="2096.39,-36 1968.39,-36 1968.39,0 2096.39,0 2096.39,-36"/>
<text text-anchor="middle" x="2032.39" y="-14.3" font-family="Times,serif" font-size="14.00">leaf=&#45;0.0271792263</text>
</g>
<!-- 13&#45;&gt;28 -->
<g id="edge28" class="edge">
<title>13&#45;&gt;28</title>
<path fill="none" stroke="#ff0000" d="M1936.28,-87.48C1946.79,-81.98 1958.27,-75.56 1968.39,-69 1980.64,-61.05 1993.46,-51.35 2004.38,-42.61"/>
<polygon fill="#ff0000" stroke="#ff0000" points="2006.76,-45.19 2012.31,-36.17 2002.34,-39.75 2006.76,-45.19"/>
<text text-anchor="middle" x="1996.39" y="-57.8" font-family="Times,serif" font-size="14.00">no</text>
</g>
<!-- 29 -->
<g id="node30" class="node">
<title>29</title>
<polygon fill="#e48038" stroke="black" points="2246.39,-36 2118.39,-36 2118.39,0 2246.39,0 2246.39,-36"/>
<text text-anchor="middle" x="2182.39" y="-14.3" font-family="Times,serif" font-size="14.00">leaf=&#45;0.0442810282</text>
</g>
<!-- 14&#45;&gt;29 -->
<g id="edge29" class="edge">
<title>14&#45;&gt;29</title>
<path fill="none" stroke="#0000ff" d="M2185.58,-86.8C2185.03,-75.16 2184.3,-59.55 2183.67,-46.24"/>
<polygon fill="#0000ff" stroke="#0000ff" points="2187.16,-46 2183.2,-36.18 2180.17,-46.33 2187.16,-46"/>
<text text-anchor="middle" x="2219.89" y="-57.8" font-family="Times,serif" font-size="14.00">yes, missing</text>
</g>
<!-- 30 -->
<g id="node31" class="node">
<title>30</title>
<polygon fill="#e48038" stroke="black" points="2392.39,-36 2264.39,-36 2264.39,0 2392.39,0 2392.39,-36"/>
<text text-anchor="middle" x="2328.39" y="-14.3" font-family="Times,serif" font-size="14.00">leaf=&#45;0.0103947995</text>
</g>
<!-- 14&#45;&gt;30 -->
<g id="edge30" class="edge">
<title>14&#45;&gt;30</title>
<path fill="none" stroke="#ff0000" d="M2222.9,-87.71C2234.47,-82.17 2247.16,-75.68 2258.39,-69 2271.82,-61.02 2285.96,-51.21 2297.99,-42.4"/>
<polygon fill="#ff0000" stroke="#ff0000" points="2300.39,-44.98 2306.34,-36.2 2296.22,-39.35 2300.39,-44.98"/>
<text text-anchor="middle" x="2286.39" y="-57.8" font-family="Times,serif" font-size="14.00">no</text>
</g>
</g>
</svg>
