<?xml version="1.0" encoding="utf-8" standalone="no"?>
<!DOCTYPE svg PUBLIC "-//W3C//DTD SVG 1.1//EN"
  "http://www.w3.org/Graphics/SVG/1.1/DTD/svg11.dtd">
<svg xmlns:xlink="http://www.w3.org/1999/xlink" width="1178.782813pt" height="610.592969pt" viewBox="0 0 1178.782813 610.592969" xmlns="http://www.w3.org/2000/svg" version="1.1">
 <metadata>
  <rdf:RDF xmlns:dc="http://purl.org/dc/elements/1.1/" xmlns:cc="http://creativecommons.org/ns#" xmlns:rdf="http://www.w3.org/1999/02/22-rdf-syntax-ns#">
   <cc:Work>
    <dc:type rdf:resource="http://purl.org/dc/dcmitype/StillImage"/>
    <dc:date>2022-07-13T15:36:32.030311</dc:date>
    <dc:format>image/svg+xml</dc:format>
    <dc:creator>
     <cc:Agent>
      <dc:title>Matplotlib v3.5.2, https://matplotlib.org/</dc:title>
     </cc:Agent>
    </dc:creator>
   </cc:Work>
  </rdf:RDF>
 </metadata>
 <defs>
  <style type="text/css">*{stroke-linejoin: round; stroke-linecap: butt}</style>
 </defs>
 <g id="figure_1">
  <g id="patch_1">
   <path d="M 0 610.592969 
L 1178.782813 610.592969 
L 1178.782813 0 
L 0 0 
L 0 610.592969 
z
" style="fill: none"/>
  </g>
  <g id="axes_1">
   <g id="patch_2">
    <path d="M 55.582813 568.197656 
L 1171.582813 568.197656 
L 1171.582813 24.597656 
L 55.582813 24.597656 
z
" style="fill: #ffffff"/>
   </g>
   <g id="matplotlib.axis_1">
    <g id="xtick_1">
     <g id="line2d_1">
      <defs>
       <path id="m9f70f07aa7" d="M 0 0 
L 0 3.5 
" style="stroke: #000000; stroke-width: 0.8"/>
      </defs>
      <g>
       <use xlink:href="#m9f70f07aa7" x="106.310085" y="568.197656" style="stroke: #000000; stroke-width: 0.8"/>
      </g>
     </g>
     <g id="text_1">
      <!-- 0 -->
      <g transform="translate(103.128835 582.796094)scale(0.1 -0.1)">
       <defs>
        <path id="DejaVuSans-30" d="M 2034 4250 
Q 1547 4250 1301 3770 
Q 1056 3291 1056 2328 
Q 1056 1369 1301 889 
Q 1547 409 2034 409 
Q 2525 409 2770 889 
Q 3016 1369 3016 2328 
Q 3016 3291 2770 3770 
Q 2525 4250 2034 4250 
z
M 2034 4750 
Q 2819 4750 3233 4129 
Q 3647 3509 3647 2328 
Q 3647 1150 3233 529 
Q 2819 -91 2034 -91 
Q 1250 -91 836 529 
Q 422 1150 422 2328 
Q 422 3509 836 4129 
Q 1250 4750 2034 4750 
z
" transform="scale(0.015625)"/>
       </defs>
       <use xlink:href="#DejaVuSans-30"/>
      </g>
     </g>
    </g>
    <g id="xtick_2">
     <g id="line2d_2">
      <g>
       <use xlink:href="#m9f70f07aa7" x="278.266942" y="568.197656" style="stroke: #000000; stroke-width: 0.8"/>
      </g>
     </g>
     <g id="text_2">
      <!-- 10 -->
      <g transform="translate(271.904442 582.796094)scale(0.1 -0.1)">
       <defs>
        <path id="DejaVuSans-31" d="M 794 531 
L 1825 531 
L 1825 4091 
L 703 3866 
L 703 4441 
L 1819 4666 
L 2450 4666 
L 2450 531 
L 3481 531 
L 3481 0 
L 794 0 
L 794 531 
z
" transform="scale(0.015625)"/>
       </defs>
       <use xlink:href="#DejaVuSans-31"/>
       <use xlink:href="#DejaVuSans-30" x="63.623047"/>
      </g>
     </g>
    </g>
    <g id="xtick_3">
     <g id="line2d_3">
      <g>
       <use xlink:href="#m9f70f07aa7" x="450.223799" y="568.197656" style="stroke: #000000; stroke-width: 0.8"/>
      </g>
     </g>
     <g id="text_3">
      <!-- 20 -->
      <g transform="translate(443.861299 582.796094)scale(0.1 -0.1)">
       <defs>
        <path id="DejaVuSans-32" d="M 1228 531 
L 3431 531 
L 3431 0 
L 469 0 
L 469 531 
Q 828 903 1448 1529 
Q 2069 2156 2228 2338 
Q 2531 2678 2651 2914 
Q 2772 3150 2772 3378 
Q 2772 3750 2511 3984 
Q 2250 4219 1831 4219 
Q 1534 4219 1204 4116 
Q 875 4013 500 3803 
L 500 4441 
Q 881 4594 1212 4672 
Q 1544 4750 1819 4750 
Q 2544 4750 2975 4387 
Q 3406 4025 3406 3419 
Q 3406 3131 3298 2873 
Q 3191 2616 2906 2266 
Q 2828 2175 2409 1742 
Q 1991 1309 1228 531 
z
" transform="scale(0.015625)"/>
       </defs>
       <use xlink:href="#DejaVuSans-32"/>
       <use xlink:href="#DejaVuSans-30" x="63.623047"/>
      </g>
     </g>
    </g>
    <g id="xtick_4">
     <g id="line2d_4">
      <g>
       <use xlink:href="#m9f70f07aa7" x="622.180655" y="568.197656" style="stroke: #000000; stroke-width: 0.8"/>
      </g>
     </g>
     <g id="text_4">
      <!-- 30 -->
      <g transform="translate(615.818155 582.796094)scale(0.1 -0.1)">
       <defs>
        <path id="DejaVuSans-33" d="M 2597 2516 
Q 3050 2419 3304 2112 
Q 3559 1806 3559 1356 
Q 3559 666 3084 287 
Q 2609 -91 1734 -91 
Q 1441 -91 1130 -33 
Q 819 25 488 141 
L 488 750 
Q 750 597 1062 519 
Q 1375 441 1716 441 
Q 2309 441 2620 675 
Q 2931 909 2931 1356 
Q 2931 1769 2642 2001 
Q 2353 2234 1838 2234 
L 1294 2234 
L 1294 2753 
L 1863 2753 
Q 2328 2753 2575 2939 
Q 2822 3125 2822 3475 
Q 2822 3834 2567 4026 
Q 2313 4219 1838 4219 
Q 1578 4219 1281 4162 
Q 984 4106 628 3988 
L 628 4550 
Q 988 4650 1302 4700 
Q 1616 4750 1894 4750 
Q 2613 4750 3031 4423 
Q 3450 4097 3450 3541 
Q 3450 3153 3228 2886 
Q 3006 2619 2597 2516 
z
" transform="scale(0.015625)"/>
       </defs>
       <use xlink:href="#DejaVuSans-33"/>
       <use xlink:href="#DejaVuSans-30" x="63.623047"/>
      </g>
     </g>
    </g>
    <g id="xtick_5">
     <g id="line2d_5">
      <g>
       <use xlink:href="#m9f70f07aa7" x="794.137512" y="568.197656" style="stroke: #000000; stroke-width: 0.8"/>
      </g>
     </g>
     <g id="text_5">
      <!-- 40 -->
      <g transform="translate(787.775012 582.796094)scale(0.1 -0.1)">
       <defs>
        <path id="DejaVuSans-34" d="M 2419 4116 
L 825 1625 
L 2419 1625 
L 2419 4116 
z
M 2253 4666 
L 3047 4666 
L 3047 1625 
L 3713 1625 
L 3713 1100 
L 3047 1100 
L 3047 0 
L 2419 0 
L 2419 1100 
L 313 1100 
L 313 1709 
L 2253 4666 
z
" transform="scale(0.015625)"/>
       </defs>
       <use xlink:href="#DejaVuSans-34"/>
       <use xlink:href="#DejaVuSans-30" x="63.623047"/>
      </g>
     </g>
    </g>
    <g id="xtick_6">
     <g id="line2d_6">
      <g>
       <use xlink:href="#m9f70f07aa7" x="966.094369" y="568.197656" style="stroke: #000000; stroke-width: 0.8"/>
      </g>
     </g>
     <g id="text_6">
      <!-- 50 -->
      <g transform="translate(959.731869 582.796094)scale(0.1 -0.1)">
       <defs>
        <path id="DejaVuSans-35" d="M 691 4666 
L 3169 4666 
L 3169 4134 
L 1269 4134 
L 1269 2991 
Q 1406 3038 1543 3061 
Q 1681 3084 1819 3084 
Q 2600 3084 3056 2656 
Q 3513 2228 3513 1497 
Q 3513 744 3044 326 
Q 2575 -91 1722 -91 
Q 1428 -91 1123 -41 
Q 819 9 494 109 
L 494 744 
Q 775 591 1075 516 
Q 1375 441 1709 441 
Q 2250 441 2565 725 
Q 2881 1009 2881 1497 
Q 2881 1984 2565 2268 
Q 2250 2553 1709 2553 
Q 1456 2553 1204 2497 
Q 953 2441 691 2322 
L 691 4666 
z
" transform="scale(0.015625)"/>
       </defs>
       <use xlink:href="#DejaVuSans-35"/>
       <use xlink:href="#DejaVuSans-30" x="63.623047"/>
      </g>
     </g>
    </g>
    <g id="xtick_7">
     <g id="line2d_7">
      <g>
       <use xlink:href="#m9f70f07aa7" x="1138.051225" y="568.197656" style="stroke: #000000; stroke-width: 0.8"/>
      </g>
     </g>
     <g id="text_7">
      <!-- 60 -->
      <g transform="translate(1131.688725 582.796094)scale(0.1 -0.1)">
       <defs>
        <path id="DejaVuSans-36" d="M 2113 2584 
Q 1688 2584 1439 2293 
Q 1191 2003 1191 1497 
Q 1191 994 1439 701 
Q 1688 409 2113 409 
Q 2538 409 2786 701 
Q 3034 994 3034 1497 
Q 3034 2003 2786 2293 
Q 2538 2584 2113 2584 
z
M 3366 4563 
L 3366 3988 
Q 3128 4100 2886 4159 
Q 2644 4219 2406 4219 
Q 1781 4219 1451 3797 
Q 1122 3375 1075 2522 
Q 1259 2794 1537 2939 
Q 1816 3084 2150 3084 
Q 2853 3084 3261 2657 
Q 3669 2231 3669 1497 
Q 3669 778 3244 343 
Q 2819 -91 2113 -91 
Q 1303 -91 875 529 
Q 447 1150 447 2328 
Q 447 3434 972 4092 
Q 1497 4750 2381 4750 
Q 2619 4750 2861 4703 
Q 3103 4656 3366 4563 
z
" transform="scale(0.015625)"/>
       </defs>
       <use xlink:href="#DejaVuSans-36"/>
       <use xlink:href="#DejaVuSans-30" x="63.623047"/>
      </g>
     </g>
    </g>
    <g id="text_8">
     <!-- time [`min`] -->
     <g transform="translate(566.760547 600.273438)scale(0.15 -0.15)">
      <defs>
       <path id="DejaVuSans-74" d="M 1172 4494 
L 1172 3500 
L 2356 3500 
L 2356 3053 
L 1172 3053 
L 1172 1153 
Q 1172 725 1289 603 
Q 1406 481 1766 481 
L 2356 481 
L 2356 0 
L 1766 0 
Q 1100 0 847 248 
Q 594 497 594 1153 
L 594 3053 
L 172 3053 
L 172 3500 
L 594 3500 
L 594 4494 
L 1172 4494 
z
" transform="scale(0.015625)"/>
       <path id="DejaVuSans-69" d="M 603 3500 
L 1178 3500 
L 1178 0 
L 603 0 
L 603 3500 
z
M 603 4863 
L 1178 4863 
L 1178 4134 
L 603 4134 
L 603 4863 
z
" transform="scale(0.015625)"/>
       <path id="DejaVuSans-6d" d="M 3328 2828 
Q 3544 3216 3844 3400 
Q 4144 3584 4550 3584 
Q 5097 3584 5394 3201 
Q 5691 2819 5691 2113 
L 5691 0 
L 5113 0 
L 5113 2094 
Q 5113 2597 4934 2840 
Q 4756 3084 4391 3084 
Q 3944 3084 3684 2787 
Q 3425 2491 3425 1978 
L 3425 0 
L 2847 0 
L 2847 2094 
Q 2847 2600 2669 2842 
Q 2491 3084 2119 3084 
Q 1678 3084 1418 2786 
Q 1159 2488 1159 1978 
L 1159 0 
L 581 0 
L 581 3500 
L 1159 3500 
L 1159 2956 
Q 1356 3278 1631 3431 
Q 1906 3584 2284 3584 
Q 2666 3584 2933 3390 
Q 3200 3197 3328 2828 
z
" transform="scale(0.015625)"/>
       <path id="DejaVuSans-65" d="M 3597 1894 
L 3597 1613 
L 953 1613 
Q 991 1019 1311 708 
Q 1631 397 2203 397 
Q 2534 397 2845 478 
Q 3156 559 3463 722 
L 3463 178 
Q 3153 47 2828 -22 
Q 2503 -91 2169 -91 
Q 1331 -91 842 396 
Q 353 884 353 1716 
Q 353 2575 817 3079 
Q 1281 3584 2069 3584 
Q 2775 3584 3186 3129 
Q 3597 2675 3597 1894 
z
M 3022 2063 
Q 3016 2534 2758 2815 
Q 2500 3097 2075 3097 
Q 1594 3097 1305 2825 
Q 1016 2553 972 2059 
L 3022 2063 
z
" transform="scale(0.015625)"/>
       <path id="DejaVuSans-20" transform="scale(0.015625)"/>
       <path id="DejaVuSans-5b" d="M 550 4863 
L 1875 4863 
L 1875 4416 
L 1125 4416 
L 1125 -397 
L 1875 -397 
L 1875 -844 
L 550 -844 
L 550 4863 
z
" transform="scale(0.015625)"/>
       <path id="DejaVuSans-60" d="M 1147 5119 
L 2028 3950 
L 1550 3950 
L 531 5119 
L 1147 5119 
z
" transform="scale(0.015625)"/>
       <path id="DejaVuSans-6e" d="M 3513 2113 
L 3513 0 
L 2938 0 
L 2938 2094 
Q 2938 2591 2744 2837 
Q 2550 3084 2163 3084 
Q 1697 3084 1428 2787 
Q 1159 2491 1159 1978 
L 1159 0 
L 581 0 
L 581 3500 
L 1159 3500 
L 1159 2956 
Q 1366 3272 1645 3428 
Q 1925 3584 2291 3584 
Q 2894 3584 3203 3211 
Q 3513 2838 3513 2113 
z
" transform="scale(0.015625)"/>
       <path id="DejaVuSans-5d" d="M 1947 4863 
L 1947 -844 
L 622 -844 
L 622 -397 
L 1369 -397 
L 1369 4416 
L 622 4416 
L 622 4863 
L 1947 4863 
z
" transform="scale(0.015625)"/>
      </defs>
      <use xlink:href="#DejaVuSans-74"/>
      <use xlink:href="#DejaVuSans-69" x="39.208984"/>
      <use xlink:href="#DejaVuSans-6d" x="66.992188"/>
      <use xlink:href="#DejaVuSans-65" x="164.404297"/>
      <use xlink:href="#DejaVuSans-20" x="225.927734"/>
      <use xlink:href="#DejaVuSans-5b" x="257.714844"/>
      <use xlink:href="#DejaVuSans-60" x="296.728516"/>
      <use xlink:href="#DejaVuSans-6d" x="346.728516"/>
      <use xlink:href="#DejaVuSans-69" x="444.140625"/>
      <use xlink:href="#DejaVuSans-6e" x="471.923828"/>
      <use xlink:href="#DejaVuSans-60" x="535.302734"/>
      <use xlink:href="#DejaVuSans-5d" x="585.302734"/>
     </g>
    </g>
   </g>
   <g id="matplotlib.axis_2">
    <g id="ytick_1">
     <g id="line2d_8">
      <defs>
       <path id="m10047e9e9b" d="M 0 0 
L -3.5 0 
" style="stroke: #000000; stroke-width: 0.8"/>
      </defs>
      <g>
       <use xlink:href="#m10047e9e9b" x="55.582813" y="565.181721" style="stroke: #000000; stroke-width: 0.8"/>
      </g>
     </g>
     <g id="text_9">
      <!-- 9.0 -->
      <g transform="translate(32.679688 568.98094)scale(0.1 -0.1)">
       <defs>
        <path id="DejaVuSans-39" d="M 703 97 
L 703 672 
Q 941 559 1184 500 
Q 1428 441 1663 441 
Q 2288 441 2617 861 
Q 2947 1281 2994 2138 
Q 2813 1869 2534 1725 
Q 2256 1581 1919 1581 
Q 1219 1581 811 2004 
Q 403 2428 403 3163 
Q 403 3881 828 4315 
Q 1253 4750 1959 4750 
Q 2769 4750 3195 4129 
Q 3622 3509 3622 2328 
Q 3622 1225 3098 567 
Q 2575 -91 1691 -91 
Q 1453 -91 1209 -44 
Q 966 3 703 97 
z
M 1959 2075 
Q 2384 2075 2632 2365 
Q 2881 2656 2881 3163 
Q 2881 3666 2632 3958 
Q 2384 4250 1959 4250 
Q 1534 4250 1286 3958 
Q 1038 3666 1038 3163 
Q 1038 2656 1286 2365 
Q 1534 2075 1959 2075 
z
" transform="scale(0.015625)"/>
        <path id="DejaVuSans-2e" d="M 684 794 
L 1344 794 
L 1344 0 
L 684 0 
L 684 794 
z
" transform="scale(0.015625)"/>
       </defs>
       <use xlink:href="#DejaVuSans-39"/>
       <use xlink:href="#DejaVuSans-2e" x="63.623047"/>
       <use xlink:href="#DejaVuSans-30" x="95.410156"/>
      </g>
     </g>
    </g>
    <g id="ytick_2">
     <g id="line2d_9">
      <g>
       <use xlink:href="#m10047e9e9b" x="55.582813" y="472.061008" style="stroke: #000000; stroke-width: 0.8"/>
      </g>
     </g>
     <g id="text_10">
      <!-- 9.5 -->
      <g transform="translate(32.679688 475.860226)scale(0.1 -0.1)">
       <use xlink:href="#DejaVuSans-39"/>
       <use xlink:href="#DejaVuSans-2e" x="63.623047"/>
       <use xlink:href="#DejaVuSans-35" x="95.410156"/>
      </g>
     </g>
    </g>
    <g id="ytick_3">
     <g id="line2d_10">
      <g>
       <use xlink:href="#m10047e9e9b" x="55.582813" y="378.940294" style="stroke: #000000; stroke-width: 0.8"/>
      </g>
     </g>
     <g id="text_11">
      <!-- 10.0 -->
      <g transform="translate(26.317188 382.739513)scale(0.1 -0.1)">
       <use xlink:href="#DejaVuSans-31"/>
       <use xlink:href="#DejaVuSans-30" x="63.623047"/>
       <use xlink:href="#DejaVuSans-2e" x="127.246094"/>
       <use xlink:href="#DejaVuSans-30" x="159.033203"/>
      </g>
     </g>
    </g>
    <g id="ytick_4">
     <g id="line2d_11">
      <g>
       <use xlink:href="#m10047e9e9b" x="55.582813" y="285.81958" style="stroke: #000000; stroke-width: 0.8"/>
      </g>
     </g>
     <g id="text_12">
      <!-- 10.5 -->
      <g transform="translate(26.317188 289.618799)scale(0.1 -0.1)">
       <use xlink:href="#DejaVuSans-31"/>
       <use xlink:href="#DejaVuSans-30" x="63.623047"/>
       <use xlink:href="#DejaVuSans-2e" x="127.246094"/>
       <use xlink:href="#DejaVuSans-35" x="159.033203"/>
      </g>
     </g>
    </g>
    <g id="ytick_5">
     <g id="line2d_12">
      <g>
       <use xlink:href="#m10047e9e9b" x="55.582813" y="192.698867" style="stroke: #000000; stroke-width: 0.8"/>
      </g>
     </g>
     <g id="text_13">
      <!-- 11.0 -->
      <g transform="translate(26.317188 196.498085)scale(0.1 -0.1)">
       <use xlink:href="#DejaVuSans-31"/>
       <use xlink:href="#DejaVuSans-31" x="63.623047"/>
       <use xlink:href="#DejaVuSans-2e" x="127.246094"/>
       <use xlink:href="#DejaVuSans-30" x="159.033203"/>
      </g>
     </g>
    </g>
    <g id="ytick_6">
     <g id="line2d_13">
      <g>
       <use xlink:href="#m10047e9e9b" x="55.582813" y="99.578153" style="stroke: #000000; stroke-width: 0.8"/>
      </g>
     </g>
     <g id="text_14">
      <!-- 11.5 -->
      <g transform="translate(26.317188 103.377372)scale(0.1 -0.1)">
       <use xlink:href="#DejaVuSans-31"/>
       <use xlink:href="#DejaVuSans-31" x="63.623047"/>
       <use xlink:href="#DejaVuSans-2e" x="127.246094"/>
       <use xlink:href="#DejaVuSans-35" x="159.033203"/>
      </g>
     </g>
    </g>
    <g id="text_15">
     <!-- consumption [`kw`] -->
     <g transform="translate(19.197656 371.169141)rotate(-90)scale(0.15 -0.15)">
      <defs>
       <path id="DejaVuSans-63" d="M 3122 3366 
L 3122 2828 
Q 2878 2963 2633 3030 
Q 2388 3097 2138 3097 
Q 1578 3097 1268 2742 
Q 959 2388 959 1747 
Q 959 1106 1268 751 
Q 1578 397 2138 397 
Q 2388 397 2633 464 
Q 2878 531 3122 666 
L 3122 134 
Q 2881 22 2623 -34 
Q 2366 -91 2075 -91 
Q 1284 -91 818 406 
Q 353 903 353 1747 
Q 353 2603 823 3093 
Q 1294 3584 2113 3584 
Q 2378 3584 2631 3529 
Q 2884 3475 3122 3366 
z
" transform="scale(0.015625)"/>
       <path id="DejaVuSans-6f" d="M 1959 3097 
Q 1497 3097 1228 2736 
Q 959 2375 959 1747 
Q 959 1119 1226 758 
Q 1494 397 1959 397 
Q 2419 397 2687 759 
Q 2956 1122 2956 1747 
Q 2956 2369 2687 2733 
Q 2419 3097 1959 3097 
z
M 1959 3584 
Q 2709 3584 3137 3096 
Q 3566 2609 3566 1747 
Q 3566 888 3137 398 
Q 2709 -91 1959 -91 
Q 1206 -91 779 398 
Q 353 888 353 1747 
Q 353 2609 779 3096 
Q 1206 3584 1959 3584 
z
" transform="scale(0.015625)"/>
       <path id="DejaVuSans-73" d="M 2834 3397 
L 2834 2853 
Q 2591 2978 2328 3040 
Q 2066 3103 1784 3103 
Q 1356 3103 1142 2972 
Q 928 2841 928 2578 
Q 928 2378 1081 2264 
Q 1234 2150 1697 2047 
L 1894 2003 
Q 2506 1872 2764 1633 
Q 3022 1394 3022 966 
Q 3022 478 2636 193 
Q 2250 -91 1575 -91 
Q 1294 -91 989 -36 
Q 684 19 347 128 
L 347 722 
Q 666 556 975 473 
Q 1284 391 1588 391 
Q 1994 391 2212 530 
Q 2431 669 2431 922 
Q 2431 1156 2273 1281 
Q 2116 1406 1581 1522 
L 1381 1569 
Q 847 1681 609 1914 
Q 372 2147 372 2553 
Q 372 3047 722 3315 
Q 1072 3584 1716 3584 
Q 2034 3584 2315 3537 
Q 2597 3491 2834 3397 
z
" transform="scale(0.015625)"/>
       <path id="DejaVuSans-75" d="M 544 1381 
L 544 3500 
L 1119 3500 
L 1119 1403 
Q 1119 906 1312 657 
Q 1506 409 1894 409 
Q 2359 409 2629 706 
Q 2900 1003 2900 1516 
L 2900 3500 
L 3475 3500 
L 3475 0 
L 2900 0 
L 2900 538 
Q 2691 219 2414 64 
Q 2138 -91 1772 -91 
Q 1169 -91 856 284 
Q 544 659 544 1381 
z
M 1991 3584 
L 1991 3584 
z
" transform="scale(0.015625)"/>
       <path id="DejaVuSans-70" d="M 1159 525 
L 1159 -1331 
L 581 -1331 
L 581 3500 
L 1159 3500 
L 1159 2969 
Q 1341 3281 1617 3432 
Q 1894 3584 2278 3584 
Q 2916 3584 3314 3078 
Q 3713 2572 3713 1747 
Q 3713 922 3314 415 
Q 2916 -91 2278 -91 
Q 1894 -91 1617 61 
Q 1341 213 1159 525 
z
M 3116 1747 
Q 3116 2381 2855 2742 
Q 2594 3103 2138 3103 
Q 1681 3103 1420 2742 
Q 1159 2381 1159 1747 
Q 1159 1113 1420 752 
Q 1681 391 2138 391 
Q 2594 391 2855 752 
Q 3116 1113 3116 1747 
z
" transform="scale(0.015625)"/>
       <path id="DejaVuSans-6b" d="M 581 4863 
L 1159 4863 
L 1159 1991 
L 2875 3500 
L 3609 3500 
L 1753 1863 
L 3688 0 
L 2938 0 
L 1159 1709 
L 1159 0 
L 581 0 
L 581 4863 
z
" transform="scale(0.015625)"/>
       <path id="DejaVuSans-77" d="M 269 3500 
L 844 3500 
L 1563 769 
L 2278 3500 
L 2956 3500 
L 3675 769 
L 4391 3500 
L 4966 3500 
L 4050 0 
L 3372 0 
L 2619 2869 
L 1863 0 
L 1184 0 
L 269 3500 
z
" transform="scale(0.015625)"/>
      </defs>
      <use xlink:href="#DejaVuSans-63"/>
      <use xlink:href="#DejaVuSans-6f" x="54.980469"/>
      <use xlink:href="#DejaVuSans-6e" x="116.162109"/>
      <use xlink:href="#DejaVuSans-73" x="179.541016"/>
      <use xlink:href="#DejaVuSans-75" x="231.640625"/>
      <use xlink:href="#DejaVuSans-6d" x="295.019531"/>
      <use xlink:href="#DejaVuSans-70" x="392.431641"/>
      <use xlink:href="#DejaVuSans-74" x="455.908203"/>
      <use xlink:href="#DejaVuSans-69" x="495.117188"/>
      <use xlink:href="#DejaVuSans-6f" x="522.900391"/>
      <use xlink:href="#DejaVuSans-6e" x="584.082031"/>
      <use xlink:href="#DejaVuSans-20" x="647.460938"/>
      <use xlink:href="#DejaVuSans-5b" x="679.248047"/>
      <use xlink:href="#DejaVuSans-60" x="718.261719"/>
      <use xlink:href="#DejaVuSans-6b" x="768.261719"/>
      <use xlink:href="#DejaVuSans-77" x="826.171875"/>
      <use xlink:href="#DejaVuSans-60" x="907.958984"/>
      <use xlink:href="#DejaVuSans-5d" x="957.958984"/>
     </g>
    </g>
   </g>
   <g id="line2d_14">
    <path d="M 106.310085 408.050541 
L 123.505771 402.54616 
L 140.701457 394.451373 
L 157.897142 389.270793 
L 175.092828 387.004187 
L 192.288514 378.585599 
L 209.484199 371.462215 
L 226.679885 401.250957 
L 243.875571 440.105889 
L 261.071256 433.953907 
L 278.266942 433.953907 
L 295.462628 428.449526 
L 312.658313 423.592514 
L 329.853999 412.583752 
L 347.049685 400.603355 
L 364.24537 391.8612 
L 381.441056 384.737582 
L 398.636742 377.290396 
L 415.832427 368.22444 
L 433.028113 356.244043 
L 450.223799 347.825455 
L 467.419484 345.559082 
L 484.61517 341.025871 
L 501.810856 268.820504 
L 519.006541 86.850041 
L 536.202227 87.173842 
L 553.397913 87.497643 
L 570.593598 85.231154 
L 587.789284 120.524393 
L 604.98497 320.627119 
L 622.180655 316.09414 
L 639.376341 311.88473 
L 656.572027 306.380349 
L 673.767712 299.904566 
L 690.963398 294.076151 
L 708.159084 291.485978 
L 725.354769 287.924169 
L 742.550455 283.391191 
L 759.746141 278.534295 
L 776.941826 273.353599 
L 794.137512 268.820504 
L 811.333198 264.935127 
L 828.528883 262.992322 
L 845.724569 260.402032 
L 862.920255 258.135427 
L 880.11594 255.868937 
L 897.311626 252.307245 
L 914.507312 249.393154 
L 931.702997 246.802748 
L 948.898683 243.888657 
L 966.094369 142.542149 
L 983.290054 143.513435 
L 1000.48574 146.751443 
L 1017.681426 145.45624 
L 1034.877111 144.484838 
L 1052.072797 143.513435 
L 1069.268483 141.570747 
L 1086.464168 141.246946 
L 1103.659854 139.628059 
L 1120.85554 138.980457 
" clip-path="url(#p048b712e94)" style="fill: none; stroke: #1f77b4; stroke-width: 1.5; stroke-linecap: square"/>
    <defs>
     <path id="m0607c1001d" d="M 0 -3 
L -3 3 
L 3 3 
z
" style="stroke: #1f77b4; stroke-linejoin: miter"/>
    </defs>
    <g clip-path="url(#p048b712e94)">
     <use xlink:href="#m0607c1001d" x="106.310085" y="408.050541" style="fill: #1f77b4; stroke: #1f77b4; stroke-linejoin: miter"/>
     <use xlink:href="#m0607c1001d" x="123.505771" y="402.54616" style="fill: #1f77b4; stroke: #1f77b4; stroke-linejoin: miter"/>
     <use xlink:href="#m0607c1001d" x="140.701457" y="394.451373" style="fill: #1f77b4; stroke: #1f77b4; stroke-linejoin: miter"/>
     <use xlink:href="#m0607c1001d" x="157.897142" y="389.270793" style="fill: #1f77b4; stroke: #1f77b4; stroke-linejoin: miter"/>
     <use xlink:href="#m0607c1001d" x="175.092828" y="387.004187" style="fill: #1f77b4; stroke: #1f77b4; stroke-linejoin: miter"/>
     <use xlink:href="#m0607c1001d" x="192.288514" y="378.585599" style="fill: #1f77b4; stroke: #1f77b4; stroke-linejoin: miter"/>
     <use xlink:href="#m0607c1001d" x="209.484199" y="371.462215" style="fill: #1f77b4; stroke: #1f77b4; stroke-linejoin: miter"/>
     <use xlink:href="#m0607c1001d" x="226.679885" y="401.250957" style="fill: #1f77b4; stroke: #1f77b4; stroke-linejoin: miter"/>
     <use xlink:href="#m0607c1001d" x="243.875571" y="440.105889" style="fill: #1f77b4; stroke: #1f77b4; stroke-linejoin: miter"/>
     <use xlink:href="#m0607c1001d" x="261.071256" y="433.953907" style="fill: #1f77b4; stroke: #1f77b4; stroke-linejoin: miter"/>
     <use xlink:href="#m0607c1001d" x="278.266942" y="433.953907" style="fill: #1f77b4; stroke: #1f77b4; stroke-linejoin: miter"/>
     <use xlink:href="#m0607c1001d" x="295.462628" y="428.449526" style="fill: #1f77b4; stroke: #1f77b4; stroke-linejoin: miter"/>
     <use xlink:href="#m0607c1001d" x="312.658313" y="423.592514" style="fill: #1f77b4; stroke: #1f77b4; stroke-linejoin: miter"/>
     <use xlink:href="#m0607c1001d" x="329.853999" y="412.583752" style="fill: #1f77b4; stroke: #1f77b4; stroke-linejoin: miter"/>
     <use xlink:href="#m0607c1001d" x="347.049685" y="400.603355" style="fill: #1f77b4; stroke: #1f77b4; stroke-linejoin: miter"/>
     <use xlink:href="#m0607c1001d" x="364.24537" y="391.8612" style="fill: #1f77b4; stroke: #1f77b4; stroke-linejoin: miter"/>
     <use xlink:href="#m0607c1001d" x="381.441056" y="384.737582" style="fill: #1f77b4; stroke: #1f77b4; stroke-linejoin: miter"/>
     <use xlink:href="#m0607c1001d" x="398.636742" y="377.290396" style="fill: #1f77b4; stroke: #1f77b4; stroke-linejoin: miter"/>
     <use xlink:href="#m0607c1001d" x="415.832427" y="368.22444" style="fill: #1f77b4; stroke: #1f77b4; stroke-linejoin: miter"/>
     <use xlink:href="#m0607c1001d" x="433.028113" y="356.244043" style="fill: #1f77b4; stroke: #1f77b4; stroke-linejoin: miter"/>
     <use xlink:href="#m0607c1001d" x="450.223799" y="347.825455" style="fill: #1f77b4; stroke: #1f77b4; stroke-linejoin: miter"/>
     <use xlink:href="#m0607c1001d" x="467.419484" y="345.559082" style="fill: #1f77b4; stroke: #1f77b4; stroke-linejoin: miter"/>
     <use xlink:href="#m0607c1001d" x="484.61517" y="341.025871" style="fill: #1f77b4; stroke: #1f77b4; stroke-linejoin: miter"/>
     <use xlink:href="#m0607c1001d" x="501.810856" y="268.820504" style="fill: #1f77b4; stroke: #1f77b4; stroke-linejoin: miter"/>
     <use xlink:href="#m0607c1001d" x="519.006541" y="86.850041" style="fill: #1f77b4; stroke: #1f77b4; stroke-linejoin: miter"/>
     <use xlink:href="#m0607c1001d" x="536.202227" y="87.173842" style="fill: #1f77b4; stroke: #1f77b4; stroke-linejoin: miter"/>
     <use xlink:href="#m0607c1001d" x="553.397913" y="87.497643" style="fill: #1f77b4; stroke: #1f77b4; stroke-linejoin: miter"/>
     <use xlink:href="#m0607c1001d" x="570.593598" y="85.231154" style="fill: #1f77b4; stroke: #1f77b4; stroke-linejoin: miter"/>
     <use xlink:href="#m0607c1001d" x="587.789284" y="120.524393" style="fill: #1f77b4; stroke: #1f77b4; stroke-linejoin: miter"/>
     <use xlink:href="#m0607c1001d" x="604.98497" y="320.627119" style="fill: #1f77b4; stroke: #1f77b4; stroke-linejoin: miter"/>
     <use xlink:href="#m0607c1001d" x="622.180655" y="316.09414" style="fill: #1f77b4; stroke: #1f77b4; stroke-linejoin: miter"/>
     <use xlink:href="#m0607c1001d" x="639.376341" y="311.88473" style="fill: #1f77b4; stroke: #1f77b4; stroke-linejoin: miter"/>
     <use xlink:href="#m0607c1001d" x="656.572027" y="306.380349" style="fill: #1f77b4; stroke: #1f77b4; stroke-linejoin: miter"/>
     <use xlink:href="#m0607c1001d" x="673.767712" y="299.904566" style="fill: #1f77b4; stroke: #1f77b4; stroke-linejoin: miter"/>
     <use xlink:href="#m0607c1001d" x="690.963398" y="294.076151" style="fill: #1f77b4; stroke: #1f77b4; stroke-linejoin: miter"/>
     <use xlink:href="#m0607c1001d" x="708.159084" y="291.485978" style="fill: #1f77b4; stroke: #1f77b4; stroke-linejoin: miter"/>
     <use xlink:href="#m0607c1001d" x="725.354769" y="287.924169" style="fill: #1f77b4; stroke: #1f77b4; stroke-linejoin: miter"/>
     <use xlink:href="#m0607c1001d" x="742.550455" y="283.391191" style="fill: #1f77b4; stroke: #1f77b4; stroke-linejoin: miter"/>
     <use xlink:href="#m0607c1001d" x="759.746141" y="278.534295" style="fill: #1f77b4; stroke: #1f77b4; stroke-linejoin: miter"/>
     <use xlink:href="#m0607c1001d" x="776.941826" y="273.353599" style="fill: #1f77b4; stroke: #1f77b4; stroke-linejoin: miter"/>
     <use xlink:href="#m0607c1001d" x="794.137512" y="268.820504" style="fill: #1f77b4; stroke: #1f77b4; stroke-linejoin: miter"/>
     <use xlink:href="#m0607c1001d" x="811.333198" y="264.935127" style="fill: #1f77b4; stroke: #1f77b4; stroke-linejoin: miter"/>
     <use xlink:href="#m0607c1001d" x="828.528883" y="262.992322" style="fill: #1f77b4; stroke: #1f77b4; stroke-linejoin: miter"/>
     <use xlink:href="#m0607c1001d" x="845.724569" y="260.402032" style="fill: #1f77b4; stroke: #1f77b4; stroke-linejoin: miter"/>
     <use xlink:href="#m0607c1001d" x="862.920255" y="258.135427" style="fill: #1f77b4; stroke: #1f77b4; stroke-linejoin: miter"/>
     <use xlink:href="#m0607c1001d" x="880.11594" y="255.868937" style="fill: #1f77b4; stroke: #1f77b4; stroke-linejoin: miter"/>
     <use xlink:href="#m0607c1001d" x="897.311626" y="252.307245" style="fill: #1f77b4; stroke: #1f77b4; stroke-linejoin: miter"/>
     <use xlink:href="#m0607c1001d" x="914.507312" y="249.393154" style="fill: #1f77b4; stroke: #1f77b4; stroke-linejoin: miter"/>
     <use xlink:href="#m0607c1001d" x="931.702997" y="246.802748" style="fill: #1f77b4; stroke: #1f77b4; stroke-linejoin: miter"/>
     <use xlink:href="#m0607c1001d" x="948.898683" y="243.888657" style="fill: #1f77b4; stroke: #1f77b4; stroke-linejoin: miter"/>
     <use xlink:href="#m0607c1001d" x="966.094369" y="142.542149" style="fill: #1f77b4; stroke: #1f77b4; stroke-linejoin: miter"/>
     <use xlink:href="#m0607c1001d" x="983.290054" y="143.513435" style="fill: #1f77b4; stroke: #1f77b4; stroke-linejoin: miter"/>
     <use xlink:href="#m0607c1001d" x="1000.48574" y="146.751443" style="fill: #1f77b4; stroke: #1f77b4; stroke-linejoin: miter"/>
     <use xlink:href="#m0607c1001d" x="1017.681426" y="145.45624" style="fill: #1f77b4; stroke: #1f77b4; stroke-linejoin: miter"/>
     <use xlink:href="#m0607c1001d" x="1034.877111" y="144.484838" style="fill: #1f77b4; stroke: #1f77b4; stroke-linejoin: miter"/>
     <use xlink:href="#m0607c1001d" x="1052.072797" y="143.513435" style="fill: #1f77b4; stroke: #1f77b4; stroke-linejoin: miter"/>
     <use xlink:href="#m0607c1001d" x="1069.268483" y="141.570747" style="fill: #1f77b4; stroke: #1f77b4; stroke-linejoin: miter"/>
     <use xlink:href="#m0607c1001d" x="1086.464168" y="141.246946" style="fill: #1f77b4; stroke: #1f77b4; stroke-linejoin: miter"/>
     <use xlink:href="#m0607c1001d" x="1103.659854" y="139.628059" style="fill: #1f77b4; stroke: #1f77b4; stroke-linejoin: miter"/>
     <use xlink:href="#m0607c1001d" x="1120.85554" y="138.980457" style="fill: #1f77b4; stroke: #1f77b4; stroke-linejoin: miter"/>
    </g>
   </g>
   <g id="line2d_15">
    <path d="M 106.310085 513.727797 
L 123.505771 520.266755 
L 140.701457 496.803901 
L 157.897142 505.317601 
L 175.092828 483.912479 
L 192.288514 494.973459 
L 209.484199 483.446243 
L 226.679885 468.325515 
L 243.875571 510.719876 
L 261.071256 543.488565 
L 278.266942 522.80541 
L 295.462628 523.969134 
L 312.658313 500.348926 
L 329.853999 487.413444 
L 347.049685 489.872839 
L 364.24537 474.479595 
L 381.441056 466.990448 
L 398.636742 460.073606 
L 415.832427 448.451977 
L 433.028113 440.257416 
L 450.223799 425.280521 
L 467.419484 418.316589 
L 484.61517 412.834587 
L 501.810856 410.701791 
L 519.006541 313.573669 
L 536.202227 97.185325 
L 553.397913 223.245248 
L 570.593598 166.993423 
L 587.789284 187.160806 
L 604.98497 315.777799 
L 622.180655 470.244542 
L 639.376341 421.913832 
L 656.572027 385.992222 
L 673.767712 386.129995 
L 690.963398 310.032142 
L 708.159084 363.546462 
L 725.354769 341.51332 
L 742.550455 347.744563 
L 759.746141 360.535744 
L 776.941826 331.057981 
L 794.137512 331.473863 
L 811.333198 327.507128 
L 828.528883 321.504341 
L 845.724569 305.751164 
L 862.920255 325.284116 
L 880.11594 354.0173 
L 897.311626 313.008824 
L 914.507312 355.501329 
L 931.702997 324.89714 
L 948.898683 309.472192 
L 966.094369 319.665973 
L 983.290054 173.903389 
L 1000.48574 219.875528 
L 1017.681426 237.089073 
L 1034.877111 204.194967 
L 1052.072797 248.226049 
L 1069.268483 233.025827 
L 1086.464168 217.532809 
L 1103.659854 234.812094 
L 1120.85554 214.609627 
" clip-path="url(#p048b712e94)" style="fill: none; stroke: #7fff00; stroke-width: 1.5; stroke-linecap: square"/>
    <defs>
     <path id="md0bb0d90a0" d="M 0 2.5 
C 0.663008 2.5 1.29895 2.236584 1.767767 1.767767 
C 2.236584 1.29895 2.5 0.663008 2.5 0 
C 2.5 -0.663008 2.236584 -1.29895 1.767767 -1.767767 
C 1.29895 -2.236584 0.663008 -2.5 0 -2.5 
C -0.663008 -2.5 -1.29895 -2.236584 -1.767767 -1.767767 
C -2.236584 -1.29895 -2.5 -0.663008 -2.5 0 
C -2.5 0.663008 -2.236584 1.29895 -1.767767 1.767767 
C -1.29895 2.236584 -0.663008 2.5 0 2.5 
z
" style="stroke: #7fff00"/>
    </defs>
    <g clip-path="url(#p048b712e94)">
     <use xlink:href="#md0bb0d90a0" x="106.310085" y="513.727797" style="fill: #7fff00; stroke: #7fff00"/>
     <use xlink:href="#md0bb0d90a0" x="123.505771" y="520.266755" style="fill: #7fff00; stroke: #7fff00"/>
     <use xlink:href="#md0bb0d90a0" x="140.701457" y="496.803901" style="fill: #7fff00; stroke: #7fff00"/>
     <use xlink:href="#md0bb0d90a0" x="157.897142" y="505.317601" style="fill: #7fff00; stroke: #7fff00"/>
     <use xlink:href="#md0bb0d90a0" x="175.092828" y="483.912479" style="fill: #7fff00; stroke: #7fff00"/>
     <use xlink:href="#md0bb0d90a0" x="192.288514" y="494.973459" style="fill: #7fff00; stroke: #7fff00"/>
     <use xlink:href="#md0bb0d90a0" x="209.484199" y="483.446243" style="fill: #7fff00; stroke: #7fff00"/>
     <use xlink:href="#md0bb0d90a0" x="226.679885" y="468.325515" style="fill: #7fff00; stroke: #7fff00"/>
     <use xlink:href="#md0bb0d90a0" x="243.875571" y="510.719876" style="fill: #7fff00; stroke: #7fff00"/>
     <use xlink:href="#md0bb0d90a0" x="261.071256" y="543.488565" style="fill: #7fff00; stroke: #7fff00"/>
     <use xlink:href="#md0bb0d90a0" x="278.266942" y="522.80541" style="fill: #7fff00; stroke: #7fff00"/>
     <use xlink:href="#md0bb0d90a0" x="295.462628" y="523.969134" style="fill: #7fff00; stroke: #7fff00"/>
     <use xlink:href="#md0bb0d90a0" x="312.658313" y="500.348926" style="fill: #7fff00; stroke: #7fff00"/>
     <use xlink:href="#md0bb0d90a0" x="329.853999" y="487.413444" style="fill: #7fff00; stroke: #7fff00"/>
     <use xlink:href="#md0bb0d90a0" x="347.049685" y="489.872839" style="fill: #7fff00; stroke: #7fff00"/>
     <use xlink:href="#md0bb0d90a0" x="364.24537" y="474.479595" style="fill: #7fff00; stroke: #7fff00"/>
     <use xlink:href="#md0bb0d90a0" x="381.441056" y="466.990448" style="fill: #7fff00; stroke: #7fff00"/>
     <use xlink:href="#md0bb0d90a0" x="398.636742" y="460.073606" style="fill: #7fff00; stroke: #7fff00"/>
     <use xlink:href="#md0bb0d90a0" x="415.832427" y="448.451977" style="fill: #7fff00; stroke: #7fff00"/>
     <use xlink:href="#md0bb0d90a0" x="433.028113" y="440.257416" style="fill: #7fff00; stroke: #7fff00"/>
     <use xlink:href="#md0bb0d90a0" x="450.223799" y="425.280521" style="fill: #7fff00; stroke: #7fff00"/>
     <use xlink:href="#md0bb0d90a0" x="467.419484" y="418.316589" style="fill: #7fff00; stroke: #7fff00"/>
     <use xlink:href="#md0bb0d90a0" x="484.61517" y="412.834587" style="fill: #7fff00; stroke: #7fff00"/>
     <use xlink:href="#md0bb0d90a0" x="501.810856" y="410.701791" style="fill: #7fff00; stroke: #7fff00"/>
     <use xlink:href="#md0bb0d90a0" x="519.006541" y="313.573669" style="fill: #7fff00; stroke: #7fff00"/>
     <use xlink:href="#md0bb0d90a0" x="536.202227" y="97.185325" style="fill: #7fff00; stroke: #7fff00"/>
     <use xlink:href="#md0bb0d90a0" x="553.397913" y="223.245248" style="fill: #7fff00; stroke: #7fff00"/>
     <use xlink:href="#md0bb0d90a0" x="570.593598" y="166.993423" style="fill: #7fff00; stroke: #7fff00"/>
     <use xlink:href="#md0bb0d90a0" x="587.789284" y="187.160806" style="fill: #7fff00; stroke: #7fff00"/>
     <use xlink:href="#md0bb0d90a0" x="604.98497" y="315.777799" style="fill: #7fff00; stroke: #7fff00"/>
     <use xlink:href="#md0bb0d90a0" x="622.180655" y="470.244542" style="fill: #7fff00; stroke: #7fff00"/>
     <use xlink:href="#md0bb0d90a0" x="639.376341" y="421.913832" style="fill: #7fff00; stroke: #7fff00"/>
     <use xlink:href="#md0bb0d90a0" x="656.572027" y="385.992222" style="fill: #7fff00; stroke: #7fff00"/>
     <use xlink:href="#md0bb0d90a0" x="673.767712" y="386.129995" style="fill: #7fff00; stroke: #7fff00"/>
     <use xlink:href="#md0bb0d90a0" x="690.963398" y="310.032142" style="fill: #7fff00; stroke: #7fff00"/>
     <use xlink:href="#md0bb0d90a0" x="708.159084" y="363.546462" style="fill: #7fff00; stroke: #7fff00"/>
     <use xlink:href="#md0bb0d90a0" x="725.354769" y="341.51332" style="fill: #7fff00; stroke: #7fff00"/>
     <use xlink:href="#md0bb0d90a0" x="742.550455" y="347.744563" style="fill: #7fff00; stroke: #7fff00"/>
     <use xlink:href="#md0bb0d90a0" x="759.746141" y="360.535744" style="fill: #7fff00; stroke: #7fff00"/>
     <use xlink:href="#md0bb0d90a0" x="776.941826" y="331.057981" style="fill: #7fff00; stroke: #7fff00"/>
     <use xlink:href="#md0bb0d90a0" x="794.137512" y="331.473863" style="fill: #7fff00; stroke: #7fff00"/>
     <use xlink:href="#md0bb0d90a0" x="811.333198" y="327.507128" style="fill: #7fff00; stroke: #7fff00"/>
     <use xlink:href="#md0bb0d90a0" x="828.528883" y="321.504341" style="fill: #7fff00; stroke: #7fff00"/>
     <use xlink:href="#md0bb0d90a0" x="845.724569" y="305.751164" style="fill: #7fff00; stroke: #7fff00"/>
     <use xlink:href="#md0bb0d90a0" x="862.920255" y="325.284116" style="fill: #7fff00; stroke: #7fff00"/>
     <use xlink:href="#md0bb0d90a0" x="880.11594" y="354.0173" style="fill: #7fff00; stroke: #7fff00"/>
     <use xlink:href="#md0bb0d90a0" x="897.311626" y="313.008824" style="fill: #7fff00; stroke: #7fff00"/>
     <use xlink:href="#md0bb0d90a0" x="914.507312" y="355.501329" style="fill: #7fff00; stroke: #7fff00"/>
     <use xlink:href="#md0bb0d90a0" x="931.702997" y="324.89714" style="fill: #7fff00; stroke: #7fff00"/>
     <use xlink:href="#md0bb0d90a0" x="948.898683" y="309.472192" style="fill: #7fff00; stroke: #7fff00"/>
     <use xlink:href="#md0bb0d90a0" x="966.094369" y="319.665973" style="fill: #7fff00; stroke: #7fff00"/>
     <use xlink:href="#md0bb0d90a0" x="983.290054" y="173.903389" style="fill: #7fff00; stroke: #7fff00"/>
     <use xlink:href="#md0bb0d90a0" x="1000.48574" y="219.875528" style="fill: #7fff00; stroke: #7fff00"/>
     <use xlink:href="#md0bb0d90a0" x="1017.681426" y="237.089073" style="fill: #7fff00; stroke: #7fff00"/>
     <use xlink:href="#md0bb0d90a0" x="1034.877111" y="204.194967" style="fill: #7fff00; stroke: #7fff00"/>
     <use xlink:href="#md0bb0d90a0" x="1052.072797" y="248.226049" style="fill: #7fff00; stroke: #7fff00"/>
     <use xlink:href="#md0bb0d90a0" x="1069.268483" y="233.025827" style="fill: #7fff00; stroke: #7fff00"/>
     <use xlink:href="#md0bb0d90a0" x="1086.464168" y="217.532809" style="fill: #7fff00; stroke: #7fff00"/>
     <use xlink:href="#md0bb0d90a0" x="1103.659854" y="234.812094" style="fill: #7fff00; stroke: #7fff00"/>
     <use xlink:href="#md0bb0d90a0" x="1120.85554" y="214.609627" style="fill: #7fff00; stroke: #7fff00"/>
    </g>
   </g>
   <g id="line2d_16">
    <path d="M 106.310085 453.827211 
L 123.505771 444.083347 
L 140.701457 437.891735 
L 157.897142 430.758559 
L 175.092828 428.119431 
L 192.288514 427.320303 
L 209.484199 417.169415 
L 226.679885 410.597121 
L 243.875571 446.314053 
L 261.071256 482.116539 
L 278.266942 464.309592 
L 295.462628 464.199793 
L 312.658313 451.308138 
L 329.853999 442.997484 
L 347.049685 428.305925 
L 364.24537 415.944147 
L 381.441056 408.483907 
L 398.636742 402.086452 
L 415.832427 394.938356 
L 433.028113 385.479596 
L 450.223799 372.306568 
L 467.419484 364.751449 
L 484.61517 363.689829 
L 501.810856 357.640885 
L 519.006541 267.030508 
L 536.202227 49.306747 
L 553.397913 132.34662 
L 570.593598 127.933231 
L 587.789284 137.64201 
L 604.98497 190.022911 
L 622.180655 405.178528 
L 639.376341 355.756593 
L 656.572027 344.354795 
L 673.767712 321.588264 
L 690.963398 301.949243 
L 708.159084 291.395295 
L 725.354769 290.006378 
L 742.550455 288.129546 
L 759.746141 285.421764 
L 776.941826 281.831981 
L 794.137512 277.01355 
L 811.333198 272.715788 
L 828.528883 268.979607 
L 845.724569 267.270619 
L 862.920255 264.93606 
L 880.11594 266.712418 
L 897.311626 260.463808 
L 914.507312 255.643396 
L 931.702997 252.562742 
L 948.898683 249.423576 
L 966.094369 246.109572 
L 983.290054 114.170181 
L 1000.48574 158.157904 
L 1017.681426 159.297618 
L 1034.877111 163.776163 
L 1052.072797 168.661965 
L 1069.268483 169.222147 
L 1086.464168 166.857283 
L 1103.659854 166.53896 
L 1120.85554 164.384601 
" clip-path="url(#p048b712e94)" style="fill: none; stroke: #6c3483; stroke-width: 1.5; stroke-linecap: square"/>
    <defs>
     <path id="mc724580088" d="M 0 2.5 
C 0.663008 2.5 1.29895 2.236584 1.767767 1.767767 
C 2.236584 1.29895 2.5 0.663008 2.5 0 
C 2.5 -0.663008 2.236584 -1.29895 1.767767 -1.767767 
C 1.29895 -2.236584 0.663008 -2.5 0 -2.5 
C -0.663008 -2.5 -1.29895 -2.236584 -1.767767 -1.767767 
C -2.236584 -1.29895 -2.5 -0.663008 -2.5 0 
C -2.5 0.663008 -2.236584 1.29895 -1.767767 1.767767 
C -1.29895 2.236584 -0.663008 2.5 0 2.5 
z
" style="stroke: #6c3483"/>
    </defs>
    <g clip-path="url(#p048b712e94)">
     <use xlink:href="#mc724580088" x="106.310085" y="453.827211" style="fill: #6c3483; stroke: #6c3483"/>
     <use xlink:href="#mc724580088" x="123.505771" y="444.083347" style="fill: #6c3483; stroke: #6c3483"/>
     <use xlink:href="#mc724580088" x="140.701457" y="437.891735" style="fill: #6c3483; stroke: #6c3483"/>
     <use xlink:href="#mc724580088" x="157.897142" y="430.758559" style="fill: #6c3483; stroke: #6c3483"/>
     <use xlink:href="#mc724580088" x="175.092828" y="428.119431" style="fill: #6c3483; stroke: #6c3483"/>
     <use xlink:href="#mc724580088" x="192.288514" y="427.320303" style="fill: #6c3483; stroke: #6c3483"/>
     <use xlink:href="#mc724580088" x="209.484199" y="417.169415" style="fill: #6c3483; stroke: #6c3483"/>
     <use xlink:href="#mc724580088" x="226.679885" y="410.597121" style="fill: #6c3483; stroke: #6c3483"/>
     <use xlink:href="#mc724580088" x="243.875571" y="446.314053" style="fill: #6c3483; stroke: #6c3483"/>
     <use xlink:href="#mc724580088" x="261.071256" y="482.116539" style="fill: #6c3483; stroke: #6c3483"/>
     <use xlink:href="#mc724580088" x="278.266942" y="464.309592" style="fill: #6c3483; stroke: #6c3483"/>
     <use xlink:href="#mc724580088" x="295.462628" y="464.199793" style="fill: #6c3483; stroke: #6c3483"/>
     <use xlink:href="#mc724580088" x="312.658313" y="451.308138" style="fill: #6c3483; stroke: #6c3483"/>
     <use xlink:href="#mc724580088" x="329.853999" y="442.997484" style="fill: #6c3483; stroke: #6c3483"/>
     <use xlink:href="#mc724580088" x="347.049685" y="428.305925" style="fill: #6c3483; stroke: #6c3483"/>
     <use xlink:href="#mc724580088" x="364.24537" y="415.944147" style="fill: #6c3483; stroke: #6c3483"/>
     <use xlink:href="#mc724580088" x="381.441056" y="408.483907" style="fill: #6c3483; stroke: #6c3483"/>
     <use xlink:href="#mc724580088" x="398.636742" y="402.086452" style="fill: #6c3483; stroke: #6c3483"/>
     <use xlink:href="#mc724580088" x="415.832427" y="394.938356" style="fill: #6c3483; stroke: #6c3483"/>
     <use xlink:href="#mc724580088" x="433.028113" y="385.479596" style="fill: #6c3483; stroke: #6c3483"/>
     <use xlink:href="#mc724580088" x="450.223799" y="372.306568" style="fill: #6c3483; stroke: #6c3483"/>
     <use xlink:href="#mc724580088" x="467.419484" y="364.751449" style="fill: #6c3483; stroke: #6c3483"/>
     <use xlink:href="#mc724580088" x="484.61517" y="363.689829" style="fill: #6c3483; stroke: #6c3483"/>
     <use xlink:href="#mc724580088" x="501.810856" y="357.640885" style="fill: #6c3483; stroke: #6c3483"/>
     <use xlink:href="#mc724580088" x="519.006541" y="267.030508" style="fill: #6c3483; stroke: #6c3483"/>
     <use xlink:href="#mc724580088" x="536.202227" y="49.306747" style="fill: #6c3483; stroke: #6c3483"/>
     <use xlink:href="#mc724580088" x="553.397913" y="132.34662" style="fill: #6c3483; stroke: #6c3483"/>
     <use xlink:href="#mc724580088" x="570.593598" y="127.933231" style="fill: #6c3483; stroke: #6c3483"/>
     <use xlink:href="#mc724580088" x="587.789284" y="137.64201" style="fill: #6c3483; stroke: #6c3483"/>
     <use xlink:href="#mc724580088" x="604.98497" y="190.022911" style="fill: #6c3483; stroke: #6c3483"/>
     <use xlink:href="#mc724580088" x="622.180655" y="405.178528" style="fill: #6c3483; stroke: #6c3483"/>
     <use xlink:href="#mc724580088" x="639.376341" y="355.756593" style="fill: #6c3483; stroke: #6c3483"/>
     <use xlink:href="#mc724580088" x="656.572027" y="344.354795" style="fill: #6c3483; stroke: #6c3483"/>
     <use xlink:href="#mc724580088" x="673.767712" y="321.588264" style="fill: #6c3483; stroke: #6c3483"/>
     <use xlink:href="#mc724580088" x="690.963398" y="301.949243" style="fill: #6c3483; stroke: #6c3483"/>
     <use xlink:href="#mc724580088" x="708.159084" y="291.395295" style="fill: #6c3483; stroke: #6c3483"/>
     <use xlink:href="#mc724580088" x="725.354769" y="290.006378" style="fill: #6c3483; stroke: #6c3483"/>
     <use xlink:href="#mc724580088" x="742.550455" y="288.129546" style="fill: #6c3483; stroke: #6c3483"/>
     <use xlink:href="#mc724580088" x="759.746141" y="285.421764" style="fill: #6c3483; stroke: #6c3483"/>
     <use xlink:href="#mc724580088" x="776.941826" y="281.831981" style="fill: #6c3483; stroke: #6c3483"/>
     <use xlink:href="#mc724580088" x="794.137512" y="277.01355" style="fill: #6c3483; stroke: #6c3483"/>
     <use xlink:href="#mc724580088" x="811.333198" y="272.715788" style="fill: #6c3483; stroke: #6c3483"/>
     <use xlink:href="#mc724580088" x="828.528883" y="268.979607" style="fill: #6c3483; stroke: #6c3483"/>
     <use xlink:href="#mc724580088" x="845.724569" y="267.270619" style="fill: #6c3483; stroke: #6c3483"/>
     <use xlink:href="#mc724580088" x="862.920255" y="264.93606" style="fill: #6c3483; stroke: #6c3483"/>
     <use xlink:href="#mc724580088" x="880.11594" y="266.712418" style="fill: #6c3483; stroke: #6c3483"/>
     <use xlink:href="#mc724580088" x="897.311626" y="260.463808" style="fill: #6c3483; stroke: #6c3483"/>
     <use xlink:href="#mc724580088" x="914.507312" y="255.643396" style="fill: #6c3483; stroke: #6c3483"/>
     <use xlink:href="#mc724580088" x="931.702997" y="252.562742" style="fill: #6c3483; stroke: #6c3483"/>
     <use xlink:href="#mc724580088" x="948.898683" y="249.423576" style="fill: #6c3483; stroke: #6c3483"/>
     <use xlink:href="#mc724580088" x="966.094369" y="246.109572" style="fill: #6c3483; stroke: #6c3483"/>
     <use xlink:href="#mc724580088" x="983.290054" y="114.170181" style="fill: #6c3483; stroke: #6c3483"/>
     <use xlink:href="#mc724580088" x="1000.48574" y="158.157904" style="fill: #6c3483; stroke: #6c3483"/>
     <use xlink:href="#mc724580088" x="1017.681426" y="159.297618" style="fill: #6c3483; stroke: #6c3483"/>
     <use xlink:href="#mc724580088" x="1034.877111" y="163.776163" style="fill: #6c3483; stroke: #6c3483"/>
     <use xlink:href="#mc724580088" x="1052.072797" y="168.661965" style="fill: #6c3483; stroke: #6c3483"/>
     <use xlink:href="#mc724580088" x="1069.268483" y="169.222147" style="fill: #6c3483; stroke: #6c3483"/>
     <use xlink:href="#mc724580088" x="1086.464168" y="166.857283" style="fill: #6c3483; stroke: #6c3483"/>
     <use xlink:href="#mc724580088" x="1103.659854" y="166.53896" style="fill: #6c3483; stroke: #6c3483"/>
     <use xlink:href="#mc724580088" x="1120.85554" y="164.384601" style="fill: #6c3483; stroke: #6c3483"/>
    </g>
   </g>
   <g id="line2d_17">
    <path d="M 106.310085 477.563046 
L 123.505771 471.431112 
L 140.701457 464.530588 
L 157.897142 455.767451 
L 175.092828 451.102062 
L 192.288514 449.016123 
L 209.484199 439.607716 
L 226.679885 432.890889 
L 243.875571 463.862938 
L 261.071256 496.188237 
L 278.266942 481.534909 
L 295.462628 482.10838 
L 312.658313 474.391943 
L 329.853999 468.352789 
L 347.049685 455.646696 
L 364.24537 443.633896 
L 381.441056 435.60578 
L 398.636742 428.740224 
L 415.832427 421.328706 
L 433.028113 412.267178 
L 450.223799 400.315921 
L 467.419484 393.028421 
L 484.61517 391.631812 
L 501.810856 386.232334 
L 519.006541 307.341727 
L 536.202227 115.393001 
L 553.397913 171.691449 
L 570.593598 173.254855 
L 587.789284 173.657333 
L 604.98497 216.369784 
L 622.180655 413.149063 
L 639.376341 369.781667 
L 656.572027 359.661552 
L 673.767712 352.099905 
L 690.963398 342.681474 
L 708.159084 335.209578 
L 725.354769 332.68561 
L 742.550455 329.044308 
L 759.746141 324.860307 
L 776.941826 320.635977 
L 794.137512 316.023506 
L 811.333198 312.151184 
L 828.528883 308.871447 
L 845.724569 307.505143 
L 862.920255 302.072097 
L 880.11594 305.018241 
L 897.311626 302.093077 
L 914.507312 296.685207 
L 931.702997 292.704952 
L 948.898683 289.69843 
L 966.094369 287.023867 
L 983.290054 178.161171 
L 1000.48574 203.367981 
L 1017.681426 208.201098 
L 1034.877111 207.743604 
L 1052.072797 209.366105 
L 1069.268483 210.530996 
L 1086.464168 209.717181 
L 1103.659854 210.162553 
L 1120.85554 208.521402 
" clip-path="url(#p048b712e94)" style="fill: none; stroke: #00ffb2; stroke-width: 1.5; stroke-linecap: square"/>
    <defs>
     <path id="m22a015a296" d="M 0 2.5 
C 0.663008 2.5 1.29895 2.236584 1.767767 1.767767 
C 2.236584 1.29895 2.5 0.663008 2.5 0 
C 2.5 -0.663008 2.236584 -1.29895 1.767767 -1.767767 
C 1.29895 -2.236584 0.663008 -2.5 0 -2.5 
C -0.663008 -2.5 -1.29895 -2.236584 -1.767767 -1.767767 
C -2.236584 -1.29895 -2.5 -0.663008 -2.5 0 
C -2.5 0.663008 -2.236584 1.29895 -1.767767 1.767767 
C -1.29895 2.236584 -0.663008 2.5 0 2.5 
z
" style="stroke: #00ffb2"/>
    </defs>
    <g clip-path="url(#p048b712e94)">
     <use xlink:href="#m22a015a296" x="106.310085" y="477.563046" style="fill: #00ffb2; stroke: #00ffb2"/>
     <use xlink:href="#m22a015a296" x="123.505771" y="471.431112" style="fill: #00ffb2; stroke: #00ffb2"/>
     <use xlink:href="#m22a015a296" x="140.701457" y="464.530588" style="fill: #00ffb2; stroke: #00ffb2"/>
     <use xlink:href="#m22a015a296" x="157.897142" y="455.767451" style="fill: #00ffb2; stroke: #00ffb2"/>
     <use xlink:href="#m22a015a296" x="175.092828" y="451.102062" style="fill: #00ffb2; stroke: #00ffb2"/>
     <use xlink:href="#m22a015a296" x="192.288514" y="449.016123" style="fill: #00ffb2; stroke: #00ffb2"/>
     <use xlink:href="#m22a015a296" x="209.484199" y="439.607716" style="fill: #00ffb2; stroke: #00ffb2"/>
     <use xlink:href="#m22a015a296" x="226.679885" y="432.890889" style="fill: #00ffb2; stroke: #00ffb2"/>
     <use xlink:href="#m22a015a296" x="243.875571" y="463.862938" style="fill: #00ffb2; stroke: #00ffb2"/>
     <use xlink:href="#m22a015a296" x="261.071256" y="496.188237" style="fill: #00ffb2; stroke: #00ffb2"/>
     <use xlink:href="#m22a015a296" x="278.266942" y="481.534909" style="fill: #00ffb2; stroke: #00ffb2"/>
     <use xlink:href="#m22a015a296" x="295.462628" y="482.10838" style="fill: #00ffb2; stroke: #00ffb2"/>
     <use xlink:href="#m22a015a296" x="312.658313" y="474.391943" style="fill: #00ffb2; stroke: #00ffb2"/>
     <use xlink:href="#m22a015a296" x="329.853999" y="468.352789" style="fill: #00ffb2; stroke: #00ffb2"/>
     <use xlink:href="#m22a015a296" x="347.049685" y="455.646696" style="fill: #00ffb2; stroke: #00ffb2"/>
     <use xlink:href="#m22a015a296" x="364.24537" y="443.633896" style="fill: #00ffb2; stroke: #00ffb2"/>
     <use xlink:href="#m22a015a296" x="381.441056" y="435.60578" style="fill: #00ffb2; stroke: #00ffb2"/>
     <use xlink:href="#m22a015a296" x="398.636742" y="428.740224" style="fill: #00ffb2; stroke: #00ffb2"/>
     <use xlink:href="#m22a015a296" x="415.832427" y="421.328706" style="fill: #00ffb2; stroke: #00ffb2"/>
     <use xlink:href="#m22a015a296" x="433.028113" y="412.267178" style="fill: #00ffb2; stroke: #00ffb2"/>
     <use xlink:href="#m22a015a296" x="450.223799" y="400.315921" style="fill: #00ffb2; stroke: #00ffb2"/>
     <use xlink:href="#m22a015a296" x="467.419484" y="393.028421" style="fill: #00ffb2; stroke: #00ffb2"/>
     <use xlink:href="#m22a015a296" x="484.61517" y="391.631812" style="fill: #00ffb2; stroke: #00ffb2"/>
     <use xlink:href="#m22a015a296" x="501.810856" y="386.232334" style="fill: #00ffb2; stroke: #00ffb2"/>
     <use xlink:href="#m22a015a296" x="519.006541" y="307.341727" style="fill: #00ffb2; stroke: #00ffb2"/>
     <use xlink:href="#m22a015a296" x="536.202227" y="115.393001" style="fill: #00ffb2; stroke: #00ffb2"/>
     <use xlink:href="#m22a015a296" x="553.397913" y="171.691449" style="fill: #00ffb2; stroke: #00ffb2"/>
     <use xlink:href="#m22a015a296" x="570.593598" y="173.254855" style="fill: #00ffb2; stroke: #00ffb2"/>
     <use xlink:href="#m22a015a296" x="587.789284" y="173.657333" style="fill: #00ffb2; stroke: #00ffb2"/>
     <use xlink:href="#m22a015a296" x="604.98497" y="216.369784" style="fill: #00ffb2; stroke: #00ffb2"/>
     <use xlink:href="#m22a015a296" x="622.180655" y="413.149063" style="fill: #00ffb2; stroke: #00ffb2"/>
     <use xlink:href="#m22a015a296" x="639.376341" y="369.781667" style="fill: #00ffb2; stroke: #00ffb2"/>
     <use xlink:href="#m22a015a296" x="656.572027" y="359.661552" style="fill: #00ffb2; stroke: #00ffb2"/>
     <use xlink:href="#m22a015a296" x="673.767712" y="352.099905" style="fill: #00ffb2; stroke: #00ffb2"/>
     <use xlink:href="#m22a015a296" x="690.963398" y="342.681474" style="fill: #00ffb2; stroke: #00ffb2"/>
     <use xlink:href="#m22a015a296" x="708.159084" y="335.209578" style="fill: #00ffb2; stroke: #00ffb2"/>
     <use xlink:href="#m22a015a296" x="725.354769" y="332.68561" style="fill: #00ffb2; stroke: #00ffb2"/>
     <use xlink:href="#m22a015a296" x="742.550455" y="329.044308" style="fill: #00ffb2; stroke: #00ffb2"/>
     <use xlink:href="#m22a015a296" x="759.746141" y="324.860307" style="fill: #00ffb2; stroke: #00ffb2"/>
     <use xlink:href="#m22a015a296" x="776.941826" y="320.635977" style="fill: #00ffb2; stroke: #00ffb2"/>
     <use xlink:href="#m22a015a296" x="794.137512" y="316.023506" style="fill: #00ffb2; stroke: #00ffb2"/>
     <use xlink:href="#m22a015a296" x="811.333198" y="312.151184" style="fill: #00ffb2; stroke: #00ffb2"/>
     <use xlink:href="#m22a015a296" x="828.528883" y="308.871447" style="fill: #00ffb2; stroke: #00ffb2"/>
     <use xlink:href="#m22a015a296" x="845.724569" y="307.505143" style="fill: #00ffb2; stroke: #00ffb2"/>
     <use xlink:href="#m22a015a296" x="862.920255" y="302.072097" style="fill: #00ffb2; stroke: #00ffb2"/>
     <use xlink:href="#m22a015a296" x="880.11594" y="305.018241" style="fill: #00ffb2; stroke: #00ffb2"/>
     <use xlink:href="#m22a015a296" x="897.311626" y="302.093077" style="fill: #00ffb2; stroke: #00ffb2"/>
     <use xlink:href="#m22a015a296" x="914.507312" y="296.685207" style="fill: #00ffb2; stroke: #00ffb2"/>
     <use xlink:href="#m22a015a296" x="931.702997" y="292.704952" style="fill: #00ffb2; stroke: #00ffb2"/>
     <use xlink:href="#m22a015a296" x="948.898683" y="289.69843" style="fill: #00ffb2; stroke: #00ffb2"/>
     <use xlink:href="#m22a015a296" x="966.094369" y="287.023867" style="fill: #00ffb2; stroke: #00ffb2"/>
     <use xlink:href="#m22a015a296" x="983.290054" y="178.161171" style="fill: #00ffb2; stroke: #00ffb2"/>
     <use xlink:href="#m22a015a296" x="1000.48574" y="203.367981" style="fill: #00ffb2; stroke: #00ffb2"/>
     <use xlink:href="#m22a015a296" x="1017.681426" y="208.201098" style="fill: #00ffb2; stroke: #00ffb2"/>
     <use xlink:href="#m22a015a296" x="1034.877111" y="207.743604" style="fill: #00ffb2; stroke: #00ffb2"/>
     <use xlink:href="#m22a015a296" x="1052.072797" y="209.366105" style="fill: #00ffb2; stroke: #00ffb2"/>
     <use xlink:href="#m22a015a296" x="1069.268483" y="210.530996" style="fill: #00ffb2; stroke: #00ffb2"/>
     <use xlink:href="#m22a015a296" x="1086.464168" y="209.717181" style="fill: #00ffb2; stroke: #00ffb2"/>
     <use xlink:href="#m22a015a296" x="1103.659854" y="210.162553" style="fill: #00ffb2; stroke: #00ffb2"/>
     <use xlink:href="#m22a015a296" x="1120.85554" y="208.521402" style="fill: #00ffb2; stroke: #00ffb2"/>
    </g>
   </g>
   <g id="line2d_18">
    <path d="M 106.310085 387.923371 
L 123.505771 386.367542 
L 140.701457 386.433981 
L 157.897142 376.870318 
L 175.092828 380.218357 
L 192.288514 373.699914 
L 209.484199 374.102508 
L 226.679885 366.911519 
L 243.875571 380.902792 
L 261.071256 385.358841 
L 278.266942 383.266141 
L 295.462628 376.404548 
L 312.658313 370.851679 
L 329.853999 367.975003 
L 347.049685 362.797454 
L 364.24537 344.175061 
L 381.441056 339.893617 
L 398.636742 328.648008 
L 415.832427 317.889615 
L 433.028113 317.680275 
L 450.223799 296.24881 
L 467.419484 292.714276 
L 484.61517 282.235392 
L 501.810856 272.894706 
L 519.006541 220.285233 
L 536.202227 94.819178 
L 553.397913 101.010907 
L 570.593598 90.341682 
L 587.789284 77.52882 
L 604.98497 102.753463 
L 622.180655 216.112655 
L 639.376341 208.748809 
L 656.572027 217.412754 
L 673.767712 224.500122 
L 690.963398 210.29205 
L 708.159084 204.148809 
L 725.354769 212.884438 
L 742.550455 198.628926 
L 759.746141 201.341603 
L 776.941826 198.331235 
L 794.137512 213.49544 
L 811.333198 206.400962 
L 828.528883 201.543716 
L 845.724569 195.952149 
L 862.920255 200.667076 
L 880.11594 199.527596 
L 897.311626 194.337458 
L 914.507312 197.365427 
L 931.702997 188.999057 
L 948.898683 177.022623 
L 966.094369 169.653416 
L 983.290054 102.37826 
L 1000.48574 98.501159 
L 1017.681426 97.957645 
L 1034.877111 96.657779 
L 1052.072797 104.693937 
L 1069.268483 91.545036 
L 1086.464168 89.397437 
L 1103.659854 93.032096 
L 1120.85554 89.427393 
" clip-path="url(#p048b712e94)" style="fill: none; stroke: #778700; stroke-width: 1.5; stroke-linecap: square"/>
   </g>
   <g id="patch_3">
    <path d="M 55.582813 568.197656 
L 55.582813 24.597656 
" style="fill: none; stroke: #000000; stroke-width: 0.8; stroke-linejoin: miter; stroke-linecap: square"/>
   </g>
   <g id="patch_4">
    <path d="M 1171.582813 568.197656 
L 1171.582813 24.597656 
" style="fill: none; stroke: #000000; stroke-width: 0.8; stroke-linejoin: miter; stroke-linecap: square"/>
   </g>
   <g id="patch_5">
    <path d="M 55.582813 568.197656 
L 1171.582813 568.197656 
" style="fill: none; stroke: #000000; stroke-width: 0.8; stroke-linejoin: miter; stroke-linecap: square"/>
   </g>
   <g id="patch_6">
    <path d="M 55.582813 24.597656 
L 1171.582813 24.597656 
" style="fill: none; stroke: #000000; stroke-width: 0.8; stroke-linejoin: miter; stroke-linecap: square"/>
   </g>
   <g id="text_16">
    <!-- Relationship between prediction and real data for recorrent models -->
    <g transform="translate(361.2125 18.597656)scale(0.15 -0.15)">
     <defs>
      <path id="DejaVuSans-52" d="M 2841 2188 
Q 3044 2119 3236 1894 
Q 3428 1669 3622 1275 
L 4263 0 
L 3584 0 
L 2988 1197 
Q 2756 1666 2539 1819 
Q 2322 1972 1947 1972 
L 1259 1972 
L 1259 0 
L 628 0 
L 628 4666 
L 2053 4666 
Q 2853 4666 3247 4331 
Q 3641 3997 3641 3322 
Q 3641 2881 3436 2590 
Q 3231 2300 2841 2188 
z
M 1259 4147 
L 1259 2491 
L 2053 2491 
Q 2509 2491 2742 2702 
Q 2975 2913 2975 3322 
Q 2975 3731 2742 3939 
Q 2509 4147 2053 4147 
L 1259 4147 
z
" transform="scale(0.015625)"/>
      <path id="DejaVuSans-6c" d="M 603 4863 
L 1178 4863 
L 1178 0 
L 603 0 
L 603 4863 
z
" transform="scale(0.015625)"/>
      <path id="DejaVuSans-61" d="M 2194 1759 
Q 1497 1759 1228 1600 
Q 959 1441 959 1056 
Q 959 750 1161 570 
Q 1363 391 1709 391 
Q 2188 391 2477 730 
Q 2766 1069 2766 1631 
L 2766 1759 
L 2194 1759 
z
M 3341 1997 
L 3341 0 
L 2766 0 
L 2766 531 
Q 2569 213 2275 61 
Q 1981 -91 1556 -91 
Q 1019 -91 701 211 
Q 384 513 384 1019 
Q 384 1609 779 1909 
Q 1175 2209 1959 2209 
L 2766 2209 
L 2766 2266 
Q 2766 2663 2505 2880 
Q 2244 3097 1772 3097 
Q 1472 3097 1187 3025 
Q 903 2953 641 2809 
L 641 3341 
Q 956 3463 1253 3523 
Q 1550 3584 1831 3584 
Q 2591 3584 2966 3190 
Q 3341 2797 3341 1997 
z
" transform="scale(0.015625)"/>
      <path id="DejaVuSans-68" d="M 3513 2113 
L 3513 0 
L 2938 0 
L 2938 2094 
Q 2938 2591 2744 2837 
Q 2550 3084 2163 3084 
Q 1697 3084 1428 2787 
Q 1159 2491 1159 1978 
L 1159 0 
L 581 0 
L 581 4863 
L 1159 4863 
L 1159 2956 
Q 1366 3272 1645 3428 
Q 1925 3584 2291 3584 
Q 2894 3584 3203 3211 
Q 3513 2838 3513 2113 
z
" transform="scale(0.015625)"/>
      <path id="DejaVuSans-62" d="M 3116 1747 
Q 3116 2381 2855 2742 
Q 2594 3103 2138 3103 
Q 1681 3103 1420 2742 
Q 1159 2381 1159 1747 
Q 1159 1113 1420 752 
Q 1681 391 2138 391 
Q 2594 391 2855 752 
Q 3116 1113 3116 1747 
z
M 1159 2969 
Q 1341 3281 1617 3432 
Q 1894 3584 2278 3584 
Q 2916 3584 3314 3078 
Q 3713 2572 3713 1747 
Q 3713 922 3314 415 
Q 2916 -91 2278 -91 
Q 1894 -91 1617 61 
Q 1341 213 1159 525 
L 1159 0 
L 581 0 
L 581 4863 
L 1159 4863 
L 1159 2969 
z
" transform="scale(0.015625)"/>
      <path id="DejaVuSans-72" d="M 2631 2963 
Q 2534 3019 2420 3045 
Q 2306 3072 2169 3072 
Q 1681 3072 1420 2755 
Q 1159 2438 1159 1844 
L 1159 0 
L 581 0 
L 581 3500 
L 1159 3500 
L 1159 2956 
Q 1341 3275 1631 3429 
Q 1922 3584 2338 3584 
Q 2397 3584 2469 3576 
Q 2541 3569 2628 3553 
L 2631 2963 
z
" transform="scale(0.015625)"/>
      <path id="DejaVuSans-64" d="M 2906 2969 
L 2906 4863 
L 3481 4863 
L 3481 0 
L 2906 0 
L 2906 525 
Q 2725 213 2448 61 
Q 2172 -91 1784 -91 
Q 1150 -91 751 415 
Q 353 922 353 1747 
Q 353 2572 751 3078 
Q 1150 3584 1784 3584 
Q 2172 3584 2448 3432 
Q 2725 3281 2906 2969 
z
M 947 1747 
Q 947 1113 1208 752 
Q 1469 391 1925 391 
Q 2381 391 2643 752 
Q 2906 1113 2906 1747 
Q 2906 2381 2643 2742 
Q 2381 3103 1925 3103 
Q 1469 3103 1208 2742 
Q 947 2381 947 1747 
z
" transform="scale(0.015625)"/>
      <path id="DejaVuSans-66" d="M 2375 4863 
L 2375 4384 
L 1825 4384 
Q 1516 4384 1395 4259 
Q 1275 4134 1275 3809 
L 1275 3500 
L 2222 3500 
L 2222 3053 
L 1275 3053 
L 1275 0 
L 697 0 
L 697 3053 
L 147 3053 
L 147 3500 
L 697 3500 
L 697 3744 
Q 697 4328 969 4595 
Q 1241 4863 1831 4863 
L 2375 4863 
z
" transform="scale(0.015625)"/>
     </defs>
     <use xlink:href="#DejaVuSans-52"/>
     <use xlink:href="#DejaVuSans-65" x="64.982422"/>
     <use xlink:href="#DejaVuSans-6c" x="126.505859"/>
     <use xlink:href="#DejaVuSans-61" x="154.289062"/>
     <use xlink:href="#DejaVuSans-74" x="215.568359"/>
     <use xlink:href="#DejaVuSans-69" x="254.777344"/>
     <use xlink:href="#DejaVuSans-6f" x="282.560547"/>
     <use xlink:href="#DejaVuSans-6e" x="343.742188"/>
     <use xlink:href="#DejaVuSans-73" x="407.121094"/>
     <use xlink:href="#DejaVuSans-68" x="459.220703"/>
     <use xlink:href="#DejaVuSans-69" x="522.599609"/>
     <use xlink:href="#DejaVuSans-70" x="550.382812"/>
     <use xlink:href="#DejaVuSans-20" x="613.859375"/>
     <use xlink:href="#DejaVuSans-62" x="645.646484"/>
     <use xlink:href="#DejaVuSans-65" x="709.123047"/>
     <use xlink:href="#DejaVuSans-74" x="770.646484"/>
     <use xlink:href="#DejaVuSans-77" x="809.855469"/>
     <use xlink:href="#DejaVuSans-65" x="891.642578"/>
     <use xlink:href="#DejaVuSans-65" x="953.166016"/>
     <use xlink:href="#DejaVuSans-6e" x="1014.689453"/>
     <use xlink:href="#DejaVuSans-20" x="1078.068359"/>
     <use xlink:href="#DejaVuSans-70" x="1109.855469"/>
     <use xlink:href="#DejaVuSans-72" x="1173.332031"/>
     <use xlink:href="#DejaVuSans-65" x="1212.195312"/>
     <use xlink:href="#DejaVuSans-64" x="1273.71875"/>
     <use xlink:href="#DejaVuSans-69" x="1337.195312"/>
     <use xlink:href="#DejaVuSans-63" x="1364.978516"/>
     <use xlink:href="#DejaVuSans-74" x="1419.958984"/>
     <use xlink:href="#DejaVuSans-69" x="1459.167969"/>
     <use xlink:href="#DejaVuSans-6f" x="1486.951172"/>
     <use xlink:href="#DejaVuSans-6e" x="1548.132812"/>
     <use xlink:href="#DejaVuSans-20" x="1611.511719"/>
     <use xlink:href="#DejaVuSans-61" x="1643.298828"/>
     <use xlink:href="#DejaVuSans-6e" x="1704.578125"/>
     <use xlink:href="#DejaVuSans-64" x="1767.957031"/>
     <use xlink:href="#DejaVuSans-20" x="1831.433594"/>
     <use xlink:href="#DejaVuSans-72" x="1863.220703"/>
     <use xlink:href="#DejaVuSans-65" x="1902.083984"/>
     <use xlink:href="#DejaVuSans-61" x="1963.607422"/>
     <use xlink:href="#DejaVuSans-6c" x="2024.886719"/>
     <use xlink:href="#DejaVuSans-20" x="2052.669922"/>
     <use xlink:href="#DejaVuSans-64" x="2084.457031"/>
     <use xlink:href="#DejaVuSans-61" x="2147.933594"/>
     <use xlink:href="#DejaVuSans-74" x="2209.212891"/>
     <use xlink:href="#DejaVuSans-61" x="2248.421875"/>
     <use xlink:href="#DejaVuSans-20" x="2309.701172"/>
     <use xlink:href="#DejaVuSans-66" x="2341.488281"/>
     <use xlink:href="#DejaVuSans-6f" x="2376.693359"/>
     <use xlink:href="#DejaVuSans-72" x="2437.875"/>
     <use xlink:href="#DejaVuSans-20" x="2478.988281"/>
     <use xlink:href="#DejaVuSans-72" x="2510.775391"/>
     <use xlink:href="#DejaVuSans-65" x="2549.638672"/>
     <use xlink:href="#DejaVuSans-63" x="2611.162109"/>
     <use xlink:href="#DejaVuSans-6f" x="2666.142578"/>
     <use xlink:href="#DejaVuSans-72" x="2727.324219"/>
     <use xlink:href="#DejaVuSans-72" x="2766.6875"/>
     <use xlink:href="#DejaVuSans-65" x="2805.550781"/>
     <use xlink:href="#DejaVuSans-6e" x="2867.074219"/>
     <use xlink:href="#DejaVuSans-74" x="2930.453125"/>
     <use xlink:href="#DejaVuSans-20" x="2969.662109"/>
     <use xlink:href="#DejaVuSans-6d" x="3001.449219"/>
     <use xlink:href="#DejaVuSans-6f" x="3098.861328"/>
     <use xlink:href="#DejaVuSans-64" x="3160.042969"/>
     <use xlink:href="#DejaVuSans-65" x="3223.519531"/>
     <use xlink:href="#DejaVuSans-6c" x="3285.042969"/>
     <use xlink:href="#DejaVuSans-73" x="3312.826172"/>
    </g>
   </g>
   <g id="legend_1">
    <g id="patch_7">
     <path d="M 66.082813 146.683594 
L 154.067188 146.683594 
Q 157.067188 146.683594 157.067188 143.683594 
L 157.067188 35.097656 
Q 157.067188 32.097656 154.067188 32.097656 
L 66.082813 32.097656 
Q 63.082813 32.097656 63.082813 35.097656 
L 63.082813 143.683594 
Q 63.082813 146.683594 66.082813 146.683594 
z
" style="fill: #ffffff; opacity: 0.8; stroke: #cccccc; stroke-linejoin: miter"/>
    </g>
    <g id="line2d_19">
     <path d="M 69.082813 44.245312 
L 84.082813 44.245312 
L 99.082813 44.245312 
" style="fill: none; stroke: #1f77b4; stroke-width: 1.5; stroke-linecap: square"/>
     <g>
      <use xlink:href="#m0607c1001d" x="84.082813" y="44.245312" style="fill: #1f77b4; stroke: #1f77b4; stroke-linejoin: miter"/>
     </g>
    </g>
    <g id="text_17">
     <!-- real -->
     <g transform="translate(111.082813 49.495312)scale(0.15 -0.15)">
      <use xlink:href="#DejaVuSans-72"/>
      <use xlink:href="#DejaVuSans-65" x="38.863281"/>
      <use xlink:href="#DejaVuSans-61" x="100.386719"/>
      <use xlink:href="#DejaVuSans-6c" x="161.666016"/>
     </g>
    </g>
    <g id="line2d_20">
     <path d="M 69.082813 66.2625 
L 84.082813 66.2625 
L 99.082813 66.2625 
" style="fill: none; stroke: #7fff00; stroke-width: 1.5; stroke-linecap: square"/>
     <g>
      <use xlink:href="#md0bb0d90a0" x="84.082813" y="66.2625" style="fill: #7fff00; stroke: #7fff00"/>
     </g>
    </g>
    <g id="text_18">
     <!-- RNN -->
     <g transform="translate(111.082813 71.5125)scale(0.15 -0.15)">
      <defs>
       <path id="DejaVuSans-4e" d="M 628 4666 
L 1478 4666 
L 3547 763 
L 3547 4666 
L 4159 4666 
L 4159 0 
L 3309 0 
L 1241 3903 
L 1241 0 
L 628 0 
L 628 4666 
z
" transform="scale(0.015625)"/>
      </defs>
      <use xlink:href="#DejaVuSans-52"/>
      <use xlink:href="#DejaVuSans-4e" x="69.482422"/>
      <use xlink:href="#DejaVuSans-4e" x="144.287109"/>
     </g>
    </g>
    <g id="line2d_21">
     <path d="M 69.082813 88.279687 
L 84.082813 88.279687 
L 99.082813 88.279687 
" style="fill: none; stroke: #6c3483; stroke-width: 1.5; stroke-linecap: square"/>
     <g>
      <use xlink:href="#mc724580088" x="84.082813" y="88.279687" style="fill: #6c3483; stroke: #6c3483"/>
     </g>
    </g>
    <g id="text_19">
     <!-- GRU -->
     <g transform="translate(111.082813 93.529687)scale(0.15 -0.15)">
      <defs>
       <path id="DejaVuSans-47" d="M 3809 666 
L 3809 1919 
L 2778 1919 
L 2778 2438 
L 4434 2438 
L 4434 434 
Q 4069 175 3628 42 
Q 3188 -91 2688 -91 
Q 1594 -91 976 548 
Q 359 1188 359 2328 
Q 359 3472 976 4111 
Q 1594 4750 2688 4750 
Q 3144 4750 3555 4637 
Q 3966 4525 4313 4306 
L 4313 3634 
Q 3963 3931 3569 4081 
Q 3175 4231 2741 4231 
Q 1884 4231 1454 3753 
Q 1025 3275 1025 2328 
Q 1025 1384 1454 906 
Q 1884 428 2741 428 
Q 3075 428 3337 486 
Q 3600 544 3809 666 
z
" transform="scale(0.015625)"/>
       <path id="DejaVuSans-55" d="M 556 4666 
L 1191 4666 
L 1191 1831 
Q 1191 1081 1462 751 
Q 1734 422 2344 422 
Q 2950 422 3222 751 
Q 3494 1081 3494 1831 
L 3494 4666 
L 4128 4666 
L 4128 1753 
Q 4128 841 3676 375 
Q 3225 -91 2344 -91 
Q 1459 -91 1007 375 
Q 556 841 556 1753 
L 556 4666 
z
" transform="scale(0.015625)"/>
      </defs>
      <use xlink:href="#DejaVuSans-47"/>
      <use xlink:href="#DejaVuSans-52" x="77.490234"/>
      <use xlink:href="#DejaVuSans-55" x="146.972656"/>
     </g>
    </g>
    <g id="line2d_22">
     <path d="M 69.082813 110.296875 
L 84.082813 110.296875 
L 99.082813 110.296875 
" style="fill: none; stroke: #00ffb2; stroke-width: 1.5; stroke-linecap: square"/>
     <g>
      <use xlink:href="#m22a015a296" x="84.082813" y="110.296875" style="fill: #00ffb2; stroke: #00ffb2"/>
     </g>
    </g>
    <g id="text_20">
     <!-- LSTM -->
     <g transform="translate(111.082813 115.546875)scale(0.15 -0.15)">
      <defs>
       <path id="DejaVuSans-4c" d="M 628 4666 
L 1259 4666 
L 1259 531 
L 3531 531 
L 3531 0 
L 628 0 
L 628 4666 
z
" transform="scale(0.015625)"/>
       <path id="DejaVuSans-53" d="M 3425 4513 
L 3425 3897 
Q 3066 4069 2747 4153 
Q 2428 4238 2131 4238 
Q 1616 4238 1336 4038 
Q 1056 3838 1056 3469 
Q 1056 3159 1242 3001 
Q 1428 2844 1947 2747 
L 2328 2669 
Q 3034 2534 3370 2195 
Q 3706 1856 3706 1288 
Q 3706 609 3251 259 
Q 2797 -91 1919 -91 
Q 1588 -91 1214 -16 
Q 841 59 441 206 
L 441 856 
Q 825 641 1194 531 
Q 1563 422 1919 422 
Q 2459 422 2753 634 
Q 3047 847 3047 1241 
Q 3047 1584 2836 1778 
Q 2625 1972 2144 2069 
L 1759 2144 
Q 1053 2284 737 2584 
Q 422 2884 422 3419 
Q 422 4038 858 4394 
Q 1294 4750 2059 4750 
Q 2388 4750 2728 4690 
Q 3069 4631 3425 4513 
z
" transform="scale(0.015625)"/>
       <path id="DejaVuSans-54" d="M -19 4666 
L 3928 4666 
L 3928 4134 
L 2272 4134 
L 2272 0 
L 1638 0 
L 1638 4134 
L -19 4134 
L -19 4666 
z
" transform="scale(0.015625)"/>
       <path id="DejaVuSans-4d" d="M 628 4666 
L 1569 4666 
L 2759 1491 
L 3956 4666 
L 4897 4666 
L 4897 0 
L 4281 0 
L 4281 4097 
L 3078 897 
L 2444 897 
L 1241 4097 
L 1241 0 
L 628 0 
L 628 4666 
z
" transform="scale(0.015625)"/>
      </defs>
      <use xlink:href="#DejaVuSans-4c"/>
      <use xlink:href="#DejaVuSans-53" x="55.712891"/>
      <use xlink:href="#DejaVuSans-54" x="119.189453"/>
      <use xlink:href="#DejaVuSans-4d" x="180.273438"/>
     </g>
    </g>
    <g id="line2d_23">
     <path d="M 69.082813 132.314062 
L 84.082813 132.314062 
L 99.082813 132.314062 
" style="fill: none; stroke: #778700; stroke-width: 1.5; stroke-linecap: square"/>
    </g>
    <g id="text_21">
     <!-- TST -->
     <g transform="translate(111.082813 137.564062)scale(0.15 -0.15)">
      <use xlink:href="#DejaVuSans-54"/>
      <use xlink:href="#DejaVuSans-53" x="61.083984"/>
      <use xlink:href="#DejaVuSans-54" x="124.560547"/>
     </g>
    </g>
   </g>
  </g>
 </g>
 <defs>
  <clipPath id="p048b712e94">
   <rect x="55.582813" y="24.597656" width="1116" height="543.6"/>
  </clipPath>
 </defs>
</svg>
