<?xml version="1.0" encoding="utf-8" standalone="no"?>
<!DOCTYPE svg PUBLIC "-//W3C//DTD SVG 1.1//EN"
  "http://www.w3.org/Graphics/SVG/1.1/DTD/svg11.dtd">
<svg xmlns:xlink="http://www.w3.org/1999/xlink" width="1178.782813pt" height="610.592969pt" viewBox="0 0 1178.782813 610.592969" xmlns="http://www.w3.org/2000/svg" version="1.1">
 <metadata>
  <rdf:RDF xmlns:dc="http://purl.org/dc/elements/1.1/" xmlns:cc="http://creativecommons.org/ns#" xmlns:rdf="http://www.w3.org/1999/02/22-rdf-syntax-ns#">
   <cc:Work>
    <dc:type rdf:resource="http://purl.org/dc/dcmitype/StillImage"/>
    <dc:date>2022-06-10T13:32:58.257408</dc:date>
    <dc:format>image/svg+xml</dc:format>
    <dc:creator>
     <cc:Agent>
      <dc:title>Matplotlib v3.5.2, https://matplotlib.org/</dc:title>
     </cc:Agent>
    </dc:creator>
   </cc:Work>
  </rdf:RDF>
 </metadata>
 <defs>
  <style type="text/css">*{stroke-linejoin: round; stroke-linecap: butt}</style>
 </defs>
 <g id="figure_1">
  <g id="patch_1">
   <path d="M 0 610.592969 
L 1178.782813 610.592969 
L 1178.782813 0 
L 0 0 
L 0 610.592969 
z
" style="fill: none"/>
  </g>
  <g id="axes_1">
   <g id="patch_2">
    <path d="M 55.582813 568.197656 
L 1171.582813 568.197656 
L 1171.582813 24.597656 
L 55.582813 24.597656 
z
" style="fill: #ffffff"/>
   </g>
   <g id="matplotlib.axis_1">
    <g id="xtick_1">
     <g id="line2d_1">
      <defs>
       <path id="maba2b94504" d="M 0 0 
L 0 3.5 
" style="stroke: #000000; stroke-width: 0.8"/>
      </defs>
      <g>
       <use xlink:href="#maba2b94504" x="106.310085" y="568.197656" style="stroke: #000000; stroke-width: 0.8"/>
      </g>
     </g>
     <g id="text_1">
      <!-- 0 -->
      <g transform="translate(103.128835 582.796094)scale(0.1 -0.1)">
       <defs>
        <path id="DejaVuSans-30" d="M 2034 4250 
Q 1547 4250 1301 3770 
Q 1056 3291 1056 2328 
Q 1056 1369 1301 889 
Q 1547 409 2034 409 
Q 2525 409 2770 889 
Q 3016 1369 3016 2328 
Q 3016 3291 2770 3770 
Q 2525 4250 2034 4250 
z
M 2034 4750 
Q 2819 4750 3233 4129 
Q 3647 3509 3647 2328 
Q 3647 1150 3233 529 
Q 2819 -91 2034 -91 
Q 1250 -91 836 529 
Q 422 1150 422 2328 
Q 422 3509 836 4129 
Q 1250 4750 2034 4750 
z
" transform="scale(0.015625)"/>
       </defs>
       <use xlink:href="#DejaVuSans-30"/>
      </g>
     </g>
    </g>
    <g id="xtick_2">
     <g id="line2d_2">
      <g>
       <use xlink:href="#maba2b94504" x="278.266942" y="568.197656" style="stroke: #000000; stroke-width: 0.8"/>
      </g>
     </g>
     <g id="text_2">
      <!-- 10 -->
      <g transform="translate(271.904442 582.796094)scale(0.1 -0.1)">
       <defs>
        <path id="DejaVuSans-31" d="M 794 531 
L 1825 531 
L 1825 4091 
L 703 3866 
L 703 4441 
L 1819 4666 
L 2450 4666 
L 2450 531 
L 3481 531 
L 3481 0 
L 794 0 
L 794 531 
z
" transform="scale(0.015625)"/>
       </defs>
       <use xlink:href="#DejaVuSans-31"/>
       <use xlink:href="#DejaVuSans-30" x="63.623047"/>
      </g>
     </g>
    </g>
    <g id="xtick_3">
     <g id="line2d_3">
      <g>
       <use xlink:href="#maba2b94504" x="450.223799" y="568.197656" style="stroke: #000000; stroke-width: 0.8"/>
      </g>
     </g>
     <g id="text_3">
      <!-- 20 -->
      <g transform="translate(443.861299 582.796094)scale(0.1 -0.1)">
       <defs>
        <path id="DejaVuSans-32" d="M 1228 531 
L 3431 531 
L 3431 0 
L 469 0 
L 469 531 
Q 828 903 1448 1529 
Q 2069 2156 2228 2338 
Q 2531 2678 2651 2914 
Q 2772 3150 2772 3378 
Q 2772 3750 2511 3984 
Q 2250 4219 1831 4219 
Q 1534 4219 1204 4116 
Q 875 4013 500 3803 
L 500 4441 
Q 881 4594 1212 4672 
Q 1544 4750 1819 4750 
Q 2544 4750 2975 4387 
Q 3406 4025 3406 3419 
Q 3406 3131 3298 2873 
Q 3191 2616 2906 2266 
Q 2828 2175 2409 1742 
Q 1991 1309 1228 531 
z
" transform="scale(0.015625)"/>
       </defs>
       <use xlink:href="#DejaVuSans-32"/>
       <use xlink:href="#DejaVuSans-30" x="63.623047"/>
      </g>
     </g>
    </g>
    <g id="xtick_4">
     <g id="line2d_4">
      <g>
       <use xlink:href="#maba2b94504" x="622.180655" y="568.197656" style="stroke: #000000; stroke-width: 0.8"/>
      </g>
     </g>
     <g id="text_4">
      <!-- 30 -->
      <g transform="translate(615.818155 582.796094)scale(0.1 -0.1)">
       <defs>
        <path id="DejaVuSans-33" d="M 2597 2516 
Q 3050 2419 3304 2112 
Q 3559 1806 3559 1356 
Q 3559 666 3084 287 
Q 2609 -91 1734 -91 
Q 1441 -91 1130 -33 
Q 819 25 488 141 
L 488 750 
Q 750 597 1062 519 
Q 1375 441 1716 441 
Q 2309 441 2620 675 
Q 2931 909 2931 1356 
Q 2931 1769 2642 2001 
Q 2353 2234 1838 2234 
L 1294 2234 
L 1294 2753 
L 1863 2753 
Q 2328 2753 2575 2939 
Q 2822 3125 2822 3475 
Q 2822 3834 2567 4026 
Q 2313 4219 1838 4219 
Q 1578 4219 1281 4162 
Q 984 4106 628 3988 
L 628 4550 
Q 988 4650 1302 4700 
Q 1616 4750 1894 4750 
Q 2613 4750 3031 4423 
Q 3450 4097 3450 3541 
Q 3450 3153 3228 2886 
Q 3006 2619 2597 2516 
z
" transform="scale(0.015625)"/>
       </defs>
       <use xlink:href="#DejaVuSans-33"/>
       <use xlink:href="#DejaVuSans-30" x="63.623047"/>
      </g>
     </g>
    </g>
    <g id="xtick_5">
     <g id="line2d_5">
      <g>
       <use xlink:href="#maba2b94504" x="794.137512" y="568.197656" style="stroke: #000000; stroke-width: 0.8"/>
      </g>
     </g>
     <g id="text_5">
      <!-- 40 -->
      <g transform="translate(787.775012 582.796094)scale(0.1 -0.1)">
       <defs>
        <path id="DejaVuSans-34" d="M 2419 4116 
L 825 1625 
L 2419 1625 
L 2419 4116 
z
M 2253 4666 
L 3047 4666 
L 3047 1625 
L 3713 1625 
L 3713 1100 
L 3047 1100 
L 3047 0 
L 2419 0 
L 2419 1100 
L 313 1100 
L 313 1709 
L 2253 4666 
z
" transform="scale(0.015625)"/>
       </defs>
       <use xlink:href="#DejaVuSans-34"/>
       <use xlink:href="#DejaVuSans-30" x="63.623047"/>
      </g>
     </g>
    </g>
    <g id="xtick_6">
     <g id="line2d_6">
      <g>
       <use xlink:href="#maba2b94504" x="966.094369" y="568.197656" style="stroke: #000000; stroke-width: 0.8"/>
      </g>
     </g>
     <g id="text_6">
      <!-- 50 -->
      <g transform="translate(959.731869 582.796094)scale(0.1 -0.1)">
       <defs>
        <path id="DejaVuSans-35" d="M 691 4666 
L 3169 4666 
L 3169 4134 
L 1269 4134 
L 1269 2991 
Q 1406 3038 1543 3061 
Q 1681 3084 1819 3084 
Q 2600 3084 3056 2656 
Q 3513 2228 3513 1497 
Q 3513 744 3044 326 
Q 2575 -91 1722 -91 
Q 1428 -91 1123 -41 
Q 819 9 494 109 
L 494 744 
Q 775 591 1075 516 
Q 1375 441 1709 441 
Q 2250 441 2565 725 
Q 2881 1009 2881 1497 
Q 2881 1984 2565 2268 
Q 2250 2553 1709 2553 
Q 1456 2553 1204 2497 
Q 953 2441 691 2322 
L 691 4666 
z
" transform="scale(0.015625)"/>
       </defs>
       <use xlink:href="#DejaVuSans-35"/>
       <use xlink:href="#DejaVuSans-30" x="63.623047"/>
      </g>
     </g>
    </g>
    <g id="xtick_7">
     <g id="line2d_7">
      <g>
       <use xlink:href="#maba2b94504" x="1138.051225" y="568.197656" style="stroke: #000000; stroke-width: 0.8"/>
      </g>
     </g>
     <g id="text_7">
      <!-- 60 -->
      <g transform="translate(1131.688725 582.796094)scale(0.1 -0.1)">
       <defs>
        <path id="DejaVuSans-36" d="M 2113 2584 
Q 1688 2584 1439 2293 
Q 1191 2003 1191 1497 
Q 1191 994 1439 701 
Q 1688 409 2113 409 
Q 2538 409 2786 701 
Q 3034 994 3034 1497 
Q 3034 2003 2786 2293 
Q 2538 2584 2113 2584 
z
M 3366 4563 
L 3366 3988 
Q 3128 4100 2886 4159 
Q 2644 4219 2406 4219 
Q 1781 4219 1451 3797 
Q 1122 3375 1075 2522 
Q 1259 2794 1537 2939 
Q 1816 3084 2150 3084 
Q 2853 3084 3261 2657 
Q 3669 2231 3669 1497 
Q 3669 778 3244 343 
Q 2819 -91 2113 -91 
Q 1303 -91 875 529 
Q 447 1150 447 2328 
Q 447 3434 972 4092 
Q 1497 4750 2381 4750 
Q 2619 4750 2861 4703 
Q 3103 4656 3366 4563 
z
" transform="scale(0.015625)"/>
       </defs>
       <use xlink:href="#DejaVuSans-36"/>
       <use xlink:href="#DejaVuSans-30" x="63.623047"/>
      </g>
     </g>
    </g>
    <g id="text_8">
     <!-- time [`min`] -->
     <g transform="translate(566.760547 600.273438)scale(0.15 -0.15)">
      <defs>
       <path id="DejaVuSans-74" d="M 1172 4494 
L 1172 3500 
L 2356 3500 
L 2356 3053 
L 1172 3053 
L 1172 1153 
Q 1172 725 1289 603 
Q 1406 481 1766 481 
L 2356 481 
L 2356 0 
L 1766 0 
Q 1100 0 847 248 
Q 594 497 594 1153 
L 594 3053 
L 172 3053 
L 172 3500 
L 594 3500 
L 594 4494 
L 1172 4494 
z
" transform="scale(0.015625)"/>
       <path id="DejaVuSans-69" d="M 603 3500 
L 1178 3500 
L 1178 0 
L 603 0 
L 603 3500 
z
M 603 4863 
L 1178 4863 
L 1178 4134 
L 603 4134 
L 603 4863 
z
" transform="scale(0.015625)"/>
       <path id="DejaVuSans-6d" d="M 3328 2828 
Q 3544 3216 3844 3400 
Q 4144 3584 4550 3584 
Q 5097 3584 5394 3201 
Q 5691 2819 5691 2113 
L 5691 0 
L 5113 0 
L 5113 2094 
Q 5113 2597 4934 2840 
Q 4756 3084 4391 3084 
Q 3944 3084 3684 2787 
Q 3425 2491 3425 1978 
L 3425 0 
L 2847 0 
L 2847 2094 
Q 2847 2600 2669 2842 
Q 2491 3084 2119 3084 
Q 1678 3084 1418 2786 
Q 1159 2488 1159 1978 
L 1159 0 
L 581 0 
L 581 3500 
L 1159 3500 
L 1159 2956 
Q 1356 3278 1631 3431 
Q 1906 3584 2284 3584 
Q 2666 3584 2933 3390 
Q 3200 3197 3328 2828 
z
" transform="scale(0.015625)"/>
       <path id="DejaVuSans-65" d="M 3597 1894 
L 3597 1613 
L 953 1613 
Q 991 1019 1311 708 
Q 1631 397 2203 397 
Q 2534 397 2845 478 
Q 3156 559 3463 722 
L 3463 178 
Q 3153 47 2828 -22 
Q 2503 -91 2169 -91 
Q 1331 -91 842 396 
Q 353 884 353 1716 
Q 353 2575 817 3079 
Q 1281 3584 2069 3584 
Q 2775 3584 3186 3129 
Q 3597 2675 3597 1894 
z
M 3022 2063 
Q 3016 2534 2758 2815 
Q 2500 3097 2075 3097 
Q 1594 3097 1305 2825 
Q 1016 2553 972 2059 
L 3022 2063 
z
" transform="scale(0.015625)"/>
       <path id="DejaVuSans-20" transform="scale(0.015625)"/>
       <path id="DejaVuSans-5b" d="M 550 4863 
L 1875 4863 
L 1875 4416 
L 1125 4416 
L 1125 -397 
L 1875 -397 
L 1875 -844 
L 550 -844 
L 550 4863 
z
" transform="scale(0.015625)"/>
       <path id="DejaVuSans-60" d="M 1147 5119 
L 2028 3950 
L 1550 3950 
L 531 5119 
L 1147 5119 
z
" transform="scale(0.015625)"/>
       <path id="DejaVuSans-6e" d="M 3513 2113 
L 3513 0 
L 2938 0 
L 2938 2094 
Q 2938 2591 2744 2837 
Q 2550 3084 2163 3084 
Q 1697 3084 1428 2787 
Q 1159 2491 1159 1978 
L 1159 0 
L 581 0 
L 581 3500 
L 1159 3500 
L 1159 2956 
Q 1366 3272 1645 3428 
Q 1925 3584 2291 3584 
Q 2894 3584 3203 3211 
Q 3513 2838 3513 2113 
z
" transform="scale(0.015625)"/>
       <path id="DejaVuSans-5d" d="M 1947 4863 
L 1947 -844 
L 622 -844 
L 622 -397 
L 1369 -397 
L 1369 4416 
L 622 4416 
L 622 4863 
L 1947 4863 
z
" transform="scale(0.015625)"/>
      </defs>
      <use xlink:href="#DejaVuSans-74"/>
      <use xlink:href="#DejaVuSans-69" x="39.208984"/>
      <use xlink:href="#DejaVuSans-6d" x="66.992188"/>
      <use xlink:href="#DejaVuSans-65" x="164.404297"/>
      <use xlink:href="#DejaVuSans-20" x="225.927734"/>
      <use xlink:href="#DejaVuSans-5b" x="257.714844"/>
      <use xlink:href="#DejaVuSans-60" x="296.728516"/>
      <use xlink:href="#DejaVuSans-6d" x="346.728516"/>
      <use xlink:href="#DejaVuSans-69" x="444.140625"/>
      <use xlink:href="#DejaVuSans-6e" x="471.923828"/>
      <use xlink:href="#DejaVuSans-60" x="535.302734"/>
      <use xlink:href="#DejaVuSans-5d" x="585.302734"/>
     </g>
    </g>
   </g>
   <g id="matplotlib.axis_2">
    <g id="ytick_1">
     <g id="line2d_8">
      <defs>
       <path id="mfd0b40f8cd" d="M 0 0 
L -3.5 0 
" style="stroke: #000000; stroke-width: 0.8"/>
      </defs>
      <g>
       <use xlink:href="#mfd0b40f8cd" x="55.582813" y="534.880435" style="stroke: #000000; stroke-width: 0.8"/>
      </g>
     </g>
     <g id="text_9">
      <!-- 9.5 -->
      <g transform="translate(32.679688 538.679654)scale(0.1 -0.1)">
       <defs>
        <path id="DejaVuSans-39" d="M 703 97 
L 703 672 
Q 941 559 1184 500 
Q 1428 441 1663 441 
Q 2288 441 2617 861 
Q 2947 1281 2994 2138 
Q 2813 1869 2534 1725 
Q 2256 1581 1919 1581 
Q 1219 1581 811 2004 
Q 403 2428 403 3163 
Q 403 3881 828 4315 
Q 1253 4750 1959 4750 
Q 2769 4750 3195 4129 
Q 3622 3509 3622 2328 
Q 3622 1225 3098 567 
Q 2575 -91 1691 -91 
Q 1453 -91 1209 -44 
Q 966 3 703 97 
z
M 1959 2075 
Q 2384 2075 2632 2365 
Q 2881 2656 2881 3163 
Q 2881 3666 2632 3958 
Q 2384 4250 1959 4250 
Q 1534 4250 1286 3958 
Q 1038 3666 1038 3163 
Q 1038 2656 1286 2365 
Q 1534 2075 1959 2075 
z
" transform="scale(0.015625)"/>
        <path id="DejaVuSans-2e" d="M 684 794 
L 1344 794 
L 1344 0 
L 684 0 
L 684 794 
z
" transform="scale(0.015625)"/>
       </defs>
       <use xlink:href="#DejaVuSans-39"/>
       <use xlink:href="#DejaVuSans-2e" x="63.623047"/>
       <use xlink:href="#DejaVuSans-35" x="95.410156"/>
      </g>
     </g>
    </g>
    <g id="ytick_2">
     <g id="line2d_9">
      <g>
       <use xlink:href="#mfd0b40f8cd" x="55.582813" y="430.642918" style="stroke: #000000; stroke-width: 0.8"/>
      </g>
     </g>
     <g id="text_10">
      <!-- 10.0 -->
      <g transform="translate(26.317188 434.442137)scale(0.1 -0.1)">
       <use xlink:href="#DejaVuSans-31"/>
       <use xlink:href="#DejaVuSans-30" x="63.623047"/>
       <use xlink:href="#DejaVuSans-2e" x="127.246094"/>
       <use xlink:href="#DejaVuSans-30" x="159.033203"/>
      </g>
     </g>
    </g>
    <g id="ytick_3">
     <g id="line2d_10">
      <g>
       <use xlink:href="#mfd0b40f8cd" x="55.582813" y="326.405401" style="stroke: #000000; stroke-width: 0.8"/>
      </g>
     </g>
     <g id="text_11">
      <!-- 10.5 -->
      <g transform="translate(26.317188 330.20462)scale(0.1 -0.1)">
       <use xlink:href="#DejaVuSans-31"/>
       <use xlink:href="#DejaVuSans-30" x="63.623047"/>
       <use xlink:href="#DejaVuSans-2e" x="127.246094"/>
       <use xlink:href="#DejaVuSans-35" x="159.033203"/>
      </g>
     </g>
    </g>
    <g id="ytick_4">
     <g id="line2d_11">
      <g>
       <use xlink:href="#mfd0b40f8cd" x="55.582813" y="222.167884" style="stroke: #000000; stroke-width: 0.8"/>
      </g>
     </g>
     <g id="text_12">
      <!-- 11.0 -->
      <g transform="translate(26.317188 225.967102)scale(0.1 -0.1)">
       <use xlink:href="#DejaVuSans-31"/>
       <use xlink:href="#DejaVuSans-31" x="63.623047"/>
       <use xlink:href="#DejaVuSans-2e" x="127.246094"/>
       <use xlink:href="#DejaVuSans-30" x="159.033203"/>
      </g>
     </g>
    </g>
    <g id="ytick_5">
     <g id="line2d_12">
      <g>
       <use xlink:href="#mfd0b40f8cd" x="55.582813" y="117.930366" style="stroke: #000000; stroke-width: 0.8"/>
      </g>
     </g>
     <g id="text_13">
      <!-- 11.5 -->
      <g transform="translate(26.317188 121.729585)scale(0.1 -0.1)">
       <use xlink:href="#DejaVuSans-31"/>
       <use xlink:href="#DejaVuSans-31" x="63.623047"/>
       <use xlink:href="#DejaVuSans-2e" x="127.246094"/>
       <use xlink:href="#DejaVuSans-35" x="159.033203"/>
      </g>
     </g>
    </g>
    <g id="text_14">
     <!-- consumption [`kw`] -->
     <g transform="translate(19.197656 371.169141)rotate(-90)scale(0.15 -0.15)">
      <defs>
       <path id="DejaVuSans-63" d="M 3122 3366 
L 3122 2828 
Q 2878 2963 2633 3030 
Q 2388 3097 2138 3097 
Q 1578 3097 1268 2742 
Q 959 2388 959 1747 
Q 959 1106 1268 751 
Q 1578 397 2138 397 
Q 2388 397 2633 464 
Q 2878 531 3122 666 
L 3122 134 
Q 2881 22 2623 -34 
Q 2366 -91 2075 -91 
Q 1284 -91 818 406 
Q 353 903 353 1747 
Q 353 2603 823 3093 
Q 1294 3584 2113 3584 
Q 2378 3584 2631 3529 
Q 2884 3475 3122 3366 
z
" transform="scale(0.015625)"/>
       <path id="DejaVuSans-6f" d="M 1959 3097 
Q 1497 3097 1228 2736 
Q 959 2375 959 1747 
Q 959 1119 1226 758 
Q 1494 397 1959 397 
Q 2419 397 2687 759 
Q 2956 1122 2956 1747 
Q 2956 2369 2687 2733 
Q 2419 3097 1959 3097 
z
M 1959 3584 
Q 2709 3584 3137 3096 
Q 3566 2609 3566 1747 
Q 3566 888 3137 398 
Q 2709 -91 1959 -91 
Q 1206 -91 779 398 
Q 353 888 353 1747 
Q 353 2609 779 3096 
Q 1206 3584 1959 3584 
z
" transform="scale(0.015625)"/>
       <path id="DejaVuSans-73" d="M 2834 3397 
L 2834 2853 
Q 2591 2978 2328 3040 
Q 2066 3103 1784 3103 
Q 1356 3103 1142 2972 
Q 928 2841 928 2578 
Q 928 2378 1081 2264 
Q 1234 2150 1697 2047 
L 1894 2003 
Q 2506 1872 2764 1633 
Q 3022 1394 3022 966 
Q 3022 478 2636 193 
Q 2250 -91 1575 -91 
Q 1294 -91 989 -36 
Q 684 19 347 128 
L 347 722 
Q 666 556 975 473 
Q 1284 391 1588 391 
Q 1994 391 2212 530 
Q 2431 669 2431 922 
Q 2431 1156 2273 1281 
Q 2116 1406 1581 1522 
L 1381 1569 
Q 847 1681 609 1914 
Q 372 2147 372 2553 
Q 372 3047 722 3315 
Q 1072 3584 1716 3584 
Q 2034 3584 2315 3537 
Q 2597 3491 2834 3397 
z
" transform="scale(0.015625)"/>
       <path id="DejaVuSans-75" d="M 544 1381 
L 544 3500 
L 1119 3500 
L 1119 1403 
Q 1119 906 1312 657 
Q 1506 409 1894 409 
Q 2359 409 2629 706 
Q 2900 1003 2900 1516 
L 2900 3500 
L 3475 3500 
L 3475 0 
L 2900 0 
L 2900 538 
Q 2691 219 2414 64 
Q 2138 -91 1772 -91 
Q 1169 -91 856 284 
Q 544 659 544 1381 
z
M 1991 3584 
L 1991 3584 
z
" transform="scale(0.015625)"/>
       <path id="DejaVuSans-70" d="M 1159 525 
L 1159 -1331 
L 581 -1331 
L 581 3500 
L 1159 3500 
L 1159 2969 
Q 1341 3281 1617 3432 
Q 1894 3584 2278 3584 
Q 2916 3584 3314 3078 
Q 3713 2572 3713 1747 
Q 3713 922 3314 415 
Q 2916 -91 2278 -91 
Q 1894 -91 1617 61 
Q 1341 213 1159 525 
z
M 3116 1747 
Q 3116 2381 2855 2742 
Q 2594 3103 2138 3103 
Q 1681 3103 1420 2742 
Q 1159 2381 1159 1747 
Q 1159 1113 1420 752 
Q 1681 391 2138 391 
Q 2594 391 2855 752 
Q 3116 1113 3116 1747 
z
" transform="scale(0.015625)"/>
       <path id="DejaVuSans-6b" d="M 581 4863 
L 1159 4863 
L 1159 1991 
L 2875 3500 
L 3609 3500 
L 1753 1863 
L 3688 0 
L 2938 0 
L 1159 1709 
L 1159 0 
L 581 0 
L 581 4863 
z
" transform="scale(0.015625)"/>
       <path id="DejaVuSans-77" d="M 269 3500 
L 844 3500 
L 1563 769 
L 2278 3500 
L 2956 3500 
L 3675 769 
L 4391 3500 
L 4966 3500 
L 4050 0 
L 3372 0 
L 2619 2869 
L 1863 0 
L 1184 0 
L 269 3500 
z
" transform="scale(0.015625)"/>
      </defs>
      <use xlink:href="#DejaVuSans-63"/>
      <use xlink:href="#DejaVuSans-6f" x="54.980469"/>
      <use xlink:href="#DejaVuSans-6e" x="116.162109"/>
      <use xlink:href="#DejaVuSans-73" x="179.541016"/>
      <use xlink:href="#DejaVuSans-75" x="231.640625"/>
      <use xlink:href="#DejaVuSans-6d" x="295.019531"/>
      <use xlink:href="#DejaVuSans-70" x="392.431641"/>
      <use xlink:href="#DejaVuSans-74" x="455.908203"/>
      <use xlink:href="#DejaVuSans-69" x="495.117188"/>
      <use xlink:href="#DejaVuSans-6f" x="522.900391"/>
      <use xlink:href="#DejaVuSans-6e" x="584.082031"/>
      <use xlink:href="#DejaVuSans-20" x="647.460938"/>
      <use xlink:href="#DejaVuSans-5b" x="679.248047"/>
      <use xlink:href="#DejaVuSans-60" x="718.261719"/>
      <use xlink:href="#DejaVuSans-6b" x="768.261719"/>
      <use xlink:href="#DejaVuSans-77" x="826.171875"/>
      <use xlink:href="#DejaVuSans-60" x="907.958984"/>
      <use xlink:href="#DejaVuSans-5d" x="957.958984"/>
     </g>
    </g>
   </g>
   <g id="line2d_13">
    <path d="M 106.310085 463.228363 
L 123.505771 457.066866 
L 140.701457 448.005719 
L 157.897142 442.206678 
L 175.092828 439.669484 
L 192.288514 430.24588 
L 209.484199 422.272102 
L 226.679885 455.617041 
L 243.875571 499.110497 
L 261.071256 492.224087 
L 278.266942 492.224087 
L 295.462628 486.06259 
L 312.658313 480.625745 
L 329.853999 468.302752 
L 347.049685 454.892128 
L 364.24537 445.106329 
L 381.441056 437.13229 
L 398.636742 428.796055 
L 415.832427 418.647799 
L 433.028113 405.237176 
L 450.223799 395.813572 
L 467.419484 393.276638 
L 484.61517 388.202249 
L 501.810856 307.376965 
L 519.006541 103.682765 
L 536.202227 104.045222 
L 553.397913 104.407678 
L 570.593598 101.870614 
L 587.789284 141.377181 
L 604.98497 365.368283 
L 622.180655 360.294155 
L 639.376341 355.582223 
L 656.572027 349.420726 
L 673.767712 342.17186 
L 690.963398 335.647646 
L 708.159084 332.748256 
L 725.354769 328.761237 
L 742.550455 323.687109 
L 759.746141 318.250394 
L 776.941826 312.451223 
L 794.137512 307.376965 
L 811.333198 303.02775 
L 828.528883 300.853012 
L 845.724569 297.953492 
L 862.920255 295.416297 
L 880.11594 292.879233 
L 897.311626 288.892344 
L 914.507312 285.630368 
L 931.702997 282.730717 
L 948.898683 279.46874 
L 966.094369 166.023429 
L 983.290054 167.110668 
L 1000.48574 170.735231 
L 1017.681426 169.285406 
L 1034.877111 168.198037 
L 1052.072797 167.110668 
L 1069.268483 164.93606 
L 1086.464168 164.573604 
L 1103.659854 162.761452 
L 1120.85554 162.03654 
" clip-path="url(#p678ece05cf)" style="fill: none; stroke: #1f77b4; stroke-width: 1.5; stroke-linecap: square"/>
    <defs>
     <path id="m0b48fce9fe" d="M 0 -3 
L -3 3 
L 3 3 
z
" style="stroke: #1f77b4; stroke-linejoin: miter"/>
    </defs>
    <g clip-path="url(#p678ece05cf)">
     <use xlink:href="#m0b48fce9fe" x="106.310085" y="463.228363" style="fill: #1f77b4; stroke: #1f77b4; stroke-linejoin: miter"/>
     <use xlink:href="#m0b48fce9fe" x="123.505771" y="457.066866" style="fill: #1f77b4; stroke: #1f77b4; stroke-linejoin: miter"/>
     <use xlink:href="#m0b48fce9fe" x="140.701457" y="448.005719" style="fill: #1f77b4; stroke: #1f77b4; stroke-linejoin: miter"/>
     <use xlink:href="#m0b48fce9fe" x="157.897142" y="442.206678" style="fill: #1f77b4; stroke: #1f77b4; stroke-linejoin: miter"/>
     <use xlink:href="#m0b48fce9fe" x="175.092828" y="439.669484" style="fill: #1f77b4; stroke: #1f77b4; stroke-linejoin: miter"/>
     <use xlink:href="#m0b48fce9fe" x="192.288514" y="430.24588" style="fill: #1f77b4; stroke: #1f77b4; stroke-linejoin: miter"/>
     <use xlink:href="#m0b48fce9fe" x="209.484199" y="422.272102" style="fill: #1f77b4; stroke: #1f77b4; stroke-linejoin: miter"/>
     <use xlink:href="#m0b48fce9fe" x="226.679885" y="455.617041" style="fill: #1f77b4; stroke: #1f77b4; stroke-linejoin: miter"/>
     <use xlink:href="#m0b48fce9fe" x="243.875571" y="499.110497" style="fill: #1f77b4; stroke: #1f77b4; stroke-linejoin: miter"/>
     <use xlink:href="#m0b48fce9fe" x="261.071256" y="492.224087" style="fill: #1f77b4; stroke: #1f77b4; stroke-linejoin: miter"/>
     <use xlink:href="#m0b48fce9fe" x="278.266942" y="492.224087" style="fill: #1f77b4; stroke: #1f77b4; stroke-linejoin: miter"/>
     <use xlink:href="#m0b48fce9fe" x="295.462628" y="486.06259" style="fill: #1f77b4; stroke: #1f77b4; stroke-linejoin: miter"/>
     <use xlink:href="#m0b48fce9fe" x="312.658313" y="480.625745" style="fill: #1f77b4; stroke: #1f77b4; stroke-linejoin: miter"/>
     <use xlink:href="#m0b48fce9fe" x="329.853999" y="468.302752" style="fill: #1f77b4; stroke: #1f77b4; stroke-linejoin: miter"/>
     <use xlink:href="#m0b48fce9fe" x="347.049685" y="454.892128" style="fill: #1f77b4; stroke: #1f77b4; stroke-linejoin: miter"/>
     <use xlink:href="#m0b48fce9fe" x="364.24537" y="445.106329" style="fill: #1f77b4; stroke: #1f77b4; stroke-linejoin: miter"/>
     <use xlink:href="#m0b48fce9fe" x="381.441056" y="437.13229" style="fill: #1f77b4; stroke: #1f77b4; stroke-linejoin: miter"/>
     <use xlink:href="#m0b48fce9fe" x="398.636742" y="428.796055" style="fill: #1f77b4; stroke: #1f77b4; stroke-linejoin: miter"/>
     <use xlink:href="#m0b48fce9fe" x="415.832427" y="418.647799" style="fill: #1f77b4; stroke: #1f77b4; stroke-linejoin: miter"/>
     <use xlink:href="#m0b48fce9fe" x="433.028113" y="405.237176" style="fill: #1f77b4; stroke: #1f77b4; stroke-linejoin: miter"/>
     <use xlink:href="#m0b48fce9fe" x="450.223799" y="395.813572" style="fill: #1f77b4; stroke: #1f77b4; stroke-linejoin: miter"/>
     <use xlink:href="#m0b48fce9fe" x="467.419484" y="393.276638" style="fill: #1f77b4; stroke: #1f77b4; stroke-linejoin: miter"/>
     <use xlink:href="#m0b48fce9fe" x="484.61517" y="388.202249" style="fill: #1f77b4; stroke: #1f77b4; stroke-linejoin: miter"/>
     <use xlink:href="#m0b48fce9fe" x="501.810856" y="307.376965" style="fill: #1f77b4; stroke: #1f77b4; stroke-linejoin: miter"/>
     <use xlink:href="#m0b48fce9fe" x="519.006541" y="103.682765" style="fill: #1f77b4; stroke: #1f77b4; stroke-linejoin: miter"/>
     <use xlink:href="#m0b48fce9fe" x="536.202227" y="104.045222" style="fill: #1f77b4; stroke: #1f77b4; stroke-linejoin: miter"/>
     <use xlink:href="#m0b48fce9fe" x="553.397913" y="104.407678" style="fill: #1f77b4; stroke: #1f77b4; stroke-linejoin: miter"/>
     <use xlink:href="#m0b48fce9fe" x="570.593598" y="101.870614" style="fill: #1f77b4; stroke: #1f77b4; stroke-linejoin: miter"/>
     <use xlink:href="#m0b48fce9fe" x="587.789284" y="141.377181" style="fill: #1f77b4; stroke: #1f77b4; stroke-linejoin: miter"/>
     <use xlink:href="#m0b48fce9fe" x="604.98497" y="365.368283" style="fill: #1f77b4; stroke: #1f77b4; stroke-linejoin: miter"/>
     <use xlink:href="#m0b48fce9fe" x="622.180655" y="360.294155" style="fill: #1f77b4; stroke: #1f77b4; stroke-linejoin: miter"/>
     <use xlink:href="#m0b48fce9fe" x="639.376341" y="355.582223" style="fill: #1f77b4; stroke: #1f77b4; stroke-linejoin: miter"/>
     <use xlink:href="#m0b48fce9fe" x="656.572027" y="349.420726" style="fill: #1f77b4; stroke: #1f77b4; stroke-linejoin: miter"/>
     <use xlink:href="#m0b48fce9fe" x="673.767712" y="342.17186" style="fill: #1f77b4; stroke: #1f77b4; stroke-linejoin: miter"/>
     <use xlink:href="#m0b48fce9fe" x="690.963398" y="335.647646" style="fill: #1f77b4; stroke: #1f77b4; stroke-linejoin: miter"/>
     <use xlink:href="#m0b48fce9fe" x="708.159084" y="332.748256" style="fill: #1f77b4; stroke: #1f77b4; stroke-linejoin: miter"/>
     <use xlink:href="#m0b48fce9fe" x="725.354769" y="328.761237" style="fill: #1f77b4; stroke: #1f77b4; stroke-linejoin: miter"/>
     <use xlink:href="#m0b48fce9fe" x="742.550455" y="323.687109" style="fill: #1f77b4; stroke: #1f77b4; stroke-linejoin: miter"/>
     <use xlink:href="#m0b48fce9fe" x="759.746141" y="318.250394" style="fill: #1f77b4; stroke: #1f77b4; stroke-linejoin: miter"/>
     <use xlink:href="#m0b48fce9fe" x="776.941826" y="312.451223" style="fill: #1f77b4; stroke: #1f77b4; stroke-linejoin: miter"/>
     <use xlink:href="#m0b48fce9fe" x="794.137512" y="307.376965" style="fill: #1f77b4; stroke: #1f77b4; stroke-linejoin: miter"/>
     <use xlink:href="#m0b48fce9fe" x="811.333198" y="303.02775" style="fill: #1f77b4; stroke: #1f77b4; stroke-linejoin: miter"/>
     <use xlink:href="#m0b48fce9fe" x="828.528883" y="300.853012" style="fill: #1f77b4; stroke: #1f77b4; stroke-linejoin: miter"/>
     <use xlink:href="#m0b48fce9fe" x="845.724569" y="297.953492" style="fill: #1f77b4; stroke: #1f77b4; stroke-linejoin: miter"/>
     <use xlink:href="#m0b48fce9fe" x="862.920255" y="295.416297" style="fill: #1f77b4; stroke: #1f77b4; stroke-linejoin: miter"/>
     <use xlink:href="#m0b48fce9fe" x="880.11594" y="292.879233" style="fill: #1f77b4; stroke: #1f77b4; stroke-linejoin: miter"/>
     <use xlink:href="#m0b48fce9fe" x="897.311626" y="288.892344" style="fill: #1f77b4; stroke: #1f77b4; stroke-linejoin: miter"/>
     <use xlink:href="#m0b48fce9fe" x="914.507312" y="285.630368" style="fill: #1f77b4; stroke: #1f77b4; stroke-linejoin: miter"/>
     <use xlink:href="#m0b48fce9fe" x="931.702997" y="282.730717" style="fill: #1f77b4; stroke: #1f77b4; stroke-linejoin: miter"/>
     <use xlink:href="#m0b48fce9fe" x="948.898683" y="279.46874" style="fill: #1f77b4; stroke: #1f77b4; stroke-linejoin: miter"/>
     <use xlink:href="#m0b48fce9fe" x="966.094369" y="166.023429" style="fill: #1f77b4; stroke: #1f77b4; stroke-linejoin: miter"/>
     <use xlink:href="#m0b48fce9fe" x="983.290054" y="167.110668" style="fill: #1f77b4; stroke: #1f77b4; stroke-linejoin: miter"/>
     <use xlink:href="#m0b48fce9fe" x="1000.48574" y="170.735231" style="fill: #1f77b4; stroke: #1f77b4; stroke-linejoin: miter"/>
     <use xlink:href="#m0b48fce9fe" x="1017.681426" y="169.285406" style="fill: #1f77b4; stroke: #1f77b4; stroke-linejoin: miter"/>
     <use xlink:href="#m0b48fce9fe" x="1034.877111" y="168.198037" style="fill: #1f77b4; stroke: #1f77b4; stroke-linejoin: miter"/>
     <use xlink:href="#m0b48fce9fe" x="1052.072797" y="167.110668" style="fill: #1f77b4; stroke: #1f77b4; stroke-linejoin: miter"/>
     <use xlink:href="#m0b48fce9fe" x="1069.268483" y="164.93606" style="fill: #1f77b4; stroke: #1f77b4; stroke-linejoin: miter"/>
     <use xlink:href="#m0b48fce9fe" x="1086.464168" y="164.573604" style="fill: #1f77b4; stroke: #1f77b4; stroke-linejoin: miter"/>
     <use xlink:href="#m0b48fce9fe" x="1103.659854" y="162.761452" style="fill: #1f77b4; stroke: #1f77b4; stroke-linejoin: miter"/>
     <use xlink:href="#m0b48fce9fe" x="1120.85554" y="162.03654" style="fill: #1f77b4; stroke: #1f77b4; stroke-linejoin: miter"/>
    </g>
   </g>
   <g id="line2d_14">
    <path d="M 106.310085 489.512319 
L 123.505771 483.576281 
L 140.701457 477.005618 
L 157.897142 467.280098 
L 175.092828 459.928158 
L 192.288514 456.022815 
L 209.484199 446.375839 
L 226.679885 436.820196 
L 243.875571 458.861403 
L 261.071256 492.540617 
L 278.266942 488.067713 
L 295.462628 484.348164 
L 312.658313 477.140267 
L 329.853999 470.212889 
L 347.049685 457.121926 
L 364.24537 442.192848 
L 381.441056 430.655568 
L 398.636742 421.234052 
L 415.832427 411.70633 
L 433.028113 400.409904 
L 450.223799 385.803357 
L 467.419484 374.774664 
L 484.61517 370.756331 
L 501.810856 365.045491 
L 519.006541 295.944716 
L 536.202227 115.949264 
L 553.397913 105.070877 
L 570.593598 113.004469 
L 587.789284 115.069348 
L 604.98497 148.355313 
L 622.180655 327.571054 
L 639.376341 347.617577 
L 656.572027 334.666744 
L 673.767712 324.585291 
L 690.963398 315.144986 
L 708.159084 306.160296 
L 725.354769 301.021715 
L 742.550455 295.423865 
L 759.746141 288.822671 
L 776.941826 282.087089 
L 794.137512 275.120308 
L 811.333198 268.948634 
L 828.528883 263.879464 
L 845.724569 260.884046 
L 862.920255 268.100293 
L 880.11594 269.637014 
L 897.311626 269.280299 
L 914.507312 268.709606 
L 931.702997 269.815502 
L 948.898683 271.179998 
L 966.094369 271.512445 
L 983.290054 184.696715 
L 1000.48574 175.12124 
L 1017.681426 181.786627 
L 1034.877111 183.980675 
L 1052.072797 184.333215 
L 1069.268483 184.16386 
L 1086.464168 182.81189 
L 1103.659854 182.38237 
L 1120.85554 180.791372 
" clip-path="url(#p678ece05cf)" style="fill: none; stroke: #a52a2a; stroke-width: 1.5; stroke-linecap: square"/>
    <defs>
     <path id="m9b4c3695b4" d="M 0 0 
L 0 6.5 
M 0 0 
L 5.2 -3.25 
M 0 0 
L -5.2 -3.25 
" style="stroke: #a52a2a"/>
    </defs>
    <g clip-path="url(#p678ece05cf)">
     <use xlink:href="#m9b4c3695b4" x="106.310085" y="489.512319" style="fill: #a52a2a; stroke: #a52a2a"/>
     <use xlink:href="#m9b4c3695b4" x="123.505771" y="483.576281" style="fill: #a52a2a; stroke: #a52a2a"/>
     <use xlink:href="#m9b4c3695b4" x="140.701457" y="477.005618" style="fill: #a52a2a; stroke: #a52a2a"/>
     <use xlink:href="#m9b4c3695b4" x="157.897142" y="467.280098" style="fill: #a52a2a; stroke: #a52a2a"/>
     <use xlink:href="#m9b4c3695b4" x="175.092828" y="459.928158" style="fill: #a52a2a; stroke: #a52a2a"/>
     <use xlink:href="#m9b4c3695b4" x="192.288514" y="456.022815" style="fill: #a52a2a; stroke: #a52a2a"/>
     <use xlink:href="#m9b4c3695b4" x="209.484199" y="446.375839" style="fill: #a52a2a; stroke: #a52a2a"/>
     <use xlink:href="#m9b4c3695b4" x="226.679885" y="436.820196" style="fill: #a52a2a; stroke: #a52a2a"/>
     <use xlink:href="#m9b4c3695b4" x="243.875571" y="458.861403" style="fill: #a52a2a; stroke: #a52a2a"/>
     <use xlink:href="#m9b4c3695b4" x="261.071256" y="492.540617" style="fill: #a52a2a; stroke: #a52a2a"/>
     <use xlink:href="#m9b4c3695b4" x="278.266942" y="488.067713" style="fill: #a52a2a; stroke: #a52a2a"/>
     <use xlink:href="#m9b4c3695b4" x="295.462628" y="484.348164" style="fill: #a52a2a; stroke: #a52a2a"/>
     <use xlink:href="#m9b4c3695b4" x="312.658313" y="477.140267" style="fill: #a52a2a; stroke: #a52a2a"/>
     <use xlink:href="#m9b4c3695b4" x="329.853999" y="470.212889" style="fill: #a52a2a; stroke: #a52a2a"/>
     <use xlink:href="#m9b4c3695b4" x="347.049685" y="457.121926" style="fill: #a52a2a; stroke: #a52a2a"/>
     <use xlink:href="#m9b4c3695b4" x="364.24537" y="442.192848" style="fill: #a52a2a; stroke: #a52a2a"/>
     <use xlink:href="#m9b4c3695b4" x="381.441056" y="430.655568" style="fill: #a52a2a; stroke: #a52a2a"/>
     <use xlink:href="#m9b4c3695b4" x="398.636742" y="421.234052" style="fill: #a52a2a; stroke: #a52a2a"/>
     <use xlink:href="#m9b4c3695b4" x="415.832427" y="411.70633" style="fill: #a52a2a; stroke: #a52a2a"/>
     <use xlink:href="#m9b4c3695b4" x="433.028113" y="400.409904" style="fill: #a52a2a; stroke: #a52a2a"/>
     <use xlink:href="#m9b4c3695b4" x="450.223799" y="385.803357" style="fill: #a52a2a; stroke: #a52a2a"/>
     <use xlink:href="#m9b4c3695b4" x="467.419484" y="374.774664" style="fill: #a52a2a; stroke: #a52a2a"/>
     <use xlink:href="#m9b4c3695b4" x="484.61517" y="370.756331" style="fill: #a52a2a; stroke: #a52a2a"/>
     <use xlink:href="#m9b4c3695b4" x="501.810856" y="365.045491" style="fill: #a52a2a; stroke: #a52a2a"/>
     <use xlink:href="#m9b4c3695b4" x="519.006541" y="295.944716" style="fill: #a52a2a; stroke: #a52a2a"/>
     <use xlink:href="#m9b4c3695b4" x="536.202227" y="115.949264" style="fill: #a52a2a; stroke: #a52a2a"/>
     <use xlink:href="#m9b4c3695b4" x="553.397913" y="105.070877" style="fill: #a52a2a; stroke: #a52a2a"/>
     <use xlink:href="#m9b4c3695b4" x="570.593598" y="113.004469" style="fill: #a52a2a; stroke: #a52a2a"/>
     <use xlink:href="#m9b4c3695b4" x="587.789284" y="115.069348" style="fill: #a52a2a; stroke: #a52a2a"/>
     <use xlink:href="#m9b4c3695b4" x="604.98497" y="148.355313" style="fill: #a52a2a; stroke: #a52a2a"/>
     <use xlink:href="#m9b4c3695b4" x="622.180655" y="327.571054" style="fill: #a52a2a; stroke: #a52a2a"/>
     <use xlink:href="#m9b4c3695b4" x="639.376341" y="347.617577" style="fill: #a52a2a; stroke: #a52a2a"/>
     <use xlink:href="#m9b4c3695b4" x="656.572027" y="334.666744" style="fill: #a52a2a; stroke: #a52a2a"/>
     <use xlink:href="#m9b4c3695b4" x="673.767712" y="324.585291" style="fill: #a52a2a; stroke: #a52a2a"/>
     <use xlink:href="#m9b4c3695b4" x="690.963398" y="315.144986" style="fill: #a52a2a; stroke: #a52a2a"/>
     <use xlink:href="#m9b4c3695b4" x="708.159084" y="306.160296" style="fill: #a52a2a; stroke: #a52a2a"/>
     <use xlink:href="#m9b4c3695b4" x="725.354769" y="301.021715" style="fill: #a52a2a; stroke: #a52a2a"/>
     <use xlink:href="#m9b4c3695b4" x="742.550455" y="295.423865" style="fill: #a52a2a; stroke: #a52a2a"/>
     <use xlink:href="#m9b4c3695b4" x="759.746141" y="288.822671" style="fill: #a52a2a; stroke: #a52a2a"/>
     <use xlink:href="#m9b4c3695b4" x="776.941826" y="282.087089" style="fill: #a52a2a; stroke: #a52a2a"/>
     <use xlink:href="#m9b4c3695b4" x="794.137512" y="275.120308" style="fill: #a52a2a; stroke: #a52a2a"/>
     <use xlink:href="#m9b4c3695b4" x="811.333198" y="268.948634" style="fill: #a52a2a; stroke: #a52a2a"/>
     <use xlink:href="#m9b4c3695b4" x="828.528883" y="263.879464" style="fill: #a52a2a; stroke: #a52a2a"/>
     <use xlink:href="#m9b4c3695b4" x="845.724569" y="260.884046" style="fill: #a52a2a; stroke: #a52a2a"/>
     <use xlink:href="#m9b4c3695b4" x="862.920255" y="268.100293" style="fill: #a52a2a; stroke: #a52a2a"/>
     <use xlink:href="#m9b4c3695b4" x="880.11594" y="269.637014" style="fill: #a52a2a; stroke: #a52a2a"/>
     <use xlink:href="#m9b4c3695b4" x="897.311626" y="269.280299" style="fill: #a52a2a; stroke: #a52a2a"/>
     <use xlink:href="#m9b4c3695b4" x="914.507312" y="268.709606" style="fill: #a52a2a; stroke: #a52a2a"/>
     <use xlink:href="#m9b4c3695b4" x="931.702997" y="269.815502" style="fill: #a52a2a; stroke: #a52a2a"/>
     <use xlink:href="#m9b4c3695b4" x="948.898683" y="271.179998" style="fill: #a52a2a; stroke: #a52a2a"/>
     <use xlink:href="#m9b4c3695b4" x="966.094369" y="271.512445" style="fill: #a52a2a; stroke: #a52a2a"/>
     <use xlink:href="#m9b4c3695b4" x="983.290054" y="184.696715" style="fill: #a52a2a; stroke: #a52a2a"/>
     <use xlink:href="#m9b4c3695b4" x="1000.48574" y="175.12124" style="fill: #a52a2a; stroke: #a52a2a"/>
     <use xlink:href="#m9b4c3695b4" x="1017.681426" y="181.786627" style="fill: #a52a2a; stroke: #a52a2a"/>
     <use xlink:href="#m9b4c3695b4" x="1034.877111" y="183.980675" style="fill: #a52a2a; stroke: #a52a2a"/>
     <use xlink:href="#m9b4c3695b4" x="1052.072797" y="184.333215" style="fill: #a52a2a; stroke: #a52a2a"/>
     <use xlink:href="#m9b4c3695b4" x="1069.268483" y="184.16386" style="fill: #a52a2a; stroke: #a52a2a"/>
     <use xlink:href="#m9b4c3695b4" x="1086.464168" y="182.81189" style="fill: #a52a2a; stroke: #a52a2a"/>
     <use xlink:href="#m9b4c3695b4" x="1103.659854" y="182.38237" style="fill: #a52a2a; stroke: #a52a2a"/>
     <use xlink:href="#m9b4c3695b4" x="1120.85554" y="180.791372" style="fill: #a52a2a; stroke: #a52a2a"/>
    </g>
   </g>
   <g id="line2d_15">
    <path d="M 106.310085 531.007698 
L 123.505771 524.208184 
L 140.701457 516.569724 
L 157.897142 506.718427 
L 175.092828 501.155544 
L 192.288514 498.451604 
L 209.484199 487.895748 
L 226.679885 479.961373 
L 243.875571 510.645167 
L 261.071256 543.488565 
L 278.266942 528.796428 
L 295.462628 529.449058 
L 312.658313 521.222943 
L 329.853999 514.739176 
L 347.049685 500.834317 
L 364.24537 487.221459 
L 381.441056 477.667642 
L 398.636742 469.426393 
L 415.832427 460.677599 
L 433.028113 450.103477 
L 450.223799 436.296474 
L 467.419484 427.383023 
L 484.61517 424.973954 
L 501.810856 418.67285 
L 519.006541 337.211767 
L 536.202227 138.371846 
L 553.397913 185.622427 
L 570.593598 183.01295 
L 587.789284 183.615087 
L 604.98497 226.807801 
L 622.180655 434.757144 
L 639.376341 393.882037 
L 656.572027 388.105699 
L 673.767712 378.844665 
L 690.963398 368.761386 
L 708.159084 360.293894 
L 725.354769 356.946979 
L 742.550455 352.454243 
L 759.746141 347.266342 
L 776.941826 341.927352 
L 794.137512 336.132226 
L 811.333198 331.148125 
L 828.528883 326.983139 
L 845.724569 324.91813 
L 862.920255 325.523006 
L 880.11594 329.975687 
L 897.311626 328.055895 
L 914.507312 321.842861 
L 931.702997 315.571244 
L 948.898683 309.712708 
L 966.094369 304.33575 
L 983.290054 189.308966 
L 1000.48574 212.189511 
L 1017.681426 213.637118 
L 1034.877111 213.614807 
L 1052.072797 215.172926 
L 1069.268483 216.338057 
L 1086.464168 215.663116 
L 1103.659854 216.397162 
L 1120.85554 214.936768 
" clip-path="url(#p678ece05cf)" style="fill: none; stroke: #7fff00; stroke-width: 1.5; stroke-linecap: square"/>
    <defs>
     <path id="me55d37cf58" d="M 0 2.5 
C 0.663008 2.5 1.29895 2.236584 1.767767 1.767767 
C 2.236584 1.29895 2.5 0.663008 2.5 0 
C 2.5 -0.663008 2.236584 -1.29895 1.767767 -1.767767 
C 1.29895 -2.236584 0.663008 -2.5 0 -2.5 
C -0.663008 -2.5 -1.29895 -2.236584 -1.767767 -1.767767 
C -2.236584 -1.29895 -2.5 -0.663008 -2.5 0 
C -2.5 0.663008 -2.236584 1.29895 -1.767767 1.767767 
C -1.29895 2.236584 -0.663008 2.5 0 2.5 
z
" style="stroke: #7fff00"/>
    </defs>
    <g clip-path="url(#p678ece05cf)">
     <use xlink:href="#me55d37cf58" x="106.310085" y="531.007698" style="fill: #7fff00; stroke: #7fff00"/>
     <use xlink:href="#me55d37cf58" x="123.505771" y="524.208184" style="fill: #7fff00; stroke: #7fff00"/>
     <use xlink:href="#me55d37cf58" x="140.701457" y="516.569724" style="fill: #7fff00; stroke: #7fff00"/>
     <use xlink:href="#me55d37cf58" x="157.897142" y="506.718427" style="fill: #7fff00; stroke: #7fff00"/>
     <use xlink:href="#me55d37cf58" x="175.092828" y="501.155544" style="fill: #7fff00; stroke: #7fff00"/>
     <use xlink:href="#me55d37cf58" x="192.288514" y="498.451604" style="fill: #7fff00; stroke: #7fff00"/>
     <use xlink:href="#me55d37cf58" x="209.484199" y="487.895748" style="fill: #7fff00; stroke: #7fff00"/>
     <use xlink:href="#me55d37cf58" x="226.679885" y="479.961373" style="fill: #7fff00; stroke: #7fff00"/>
     <use xlink:href="#me55d37cf58" x="243.875571" y="510.645167" style="fill: #7fff00; stroke: #7fff00"/>
     <use xlink:href="#me55d37cf58" x="261.071256" y="543.488565" style="fill: #7fff00; stroke: #7fff00"/>
     <use xlink:href="#me55d37cf58" x="278.266942" y="528.796428" style="fill: #7fff00; stroke: #7fff00"/>
     <use xlink:href="#me55d37cf58" x="295.462628" y="529.449058" style="fill: #7fff00; stroke: #7fff00"/>
     <use xlink:href="#me55d37cf58" x="312.658313" y="521.222943" style="fill: #7fff00; stroke: #7fff00"/>
     <use xlink:href="#me55d37cf58" x="329.853999" y="514.739176" style="fill: #7fff00; stroke: #7fff00"/>
     <use xlink:href="#me55d37cf58" x="347.049685" y="500.834317" style="fill: #7fff00; stroke: #7fff00"/>
     <use xlink:href="#me55d37cf58" x="364.24537" y="487.221459" style="fill: #7fff00; stroke: #7fff00"/>
     <use xlink:href="#me55d37cf58" x="381.441056" y="477.667642" style="fill: #7fff00; stroke: #7fff00"/>
     <use xlink:href="#me55d37cf58" x="398.636742" y="469.426393" style="fill: #7fff00; stroke: #7fff00"/>
     <use xlink:href="#me55d37cf58" x="415.832427" y="460.677599" style="fill: #7fff00; stroke: #7fff00"/>
     <use xlink:href="#me55d37cf58" x="433.028113" y="450.103477" style="fill: #7fff00; stroke: #7fff00"/>
     <use xlink:href="#me55d37cf58" x="450.223799" y="436.296474" style="fill: #7fff00; stroke: #7fff00"/>
     <use xlink:href="#me55d37cf58" x="467.419484" y="427.383023" style="fill: #7fff00; stroke: #7fff00"/>
     <use xlink:href="#me55d37cf58" x="484.61517" y="424.973954" style="fill: #7fff00; stroke: #7fff00"/>
     <use xlink:href="#me55d37cf58" x="501.810856" y="418.67285" style="fill: #7fff00; stroke: #7fff00"/>
     <use xlink:href="#me55d37cf58" x="519.006541" y="337.211767" style="fill: #7fff00; stroke: #7fff00"/>
     <use xlink:href="#me55d37cf58" x="536.202227" y="138.371846" style="fill: #7fff00; stroke: #7fff00"/>
     <use xlink:href="#me55d37cf58" x="553.397913" y="185.622427" style="fill: #7fff00; stroke: #7fff00"/>
     <use xlink:href="#me55d37cf58" x="570.593598" y="183.01295" style="fill: #7fff00; stroke: #7fff00"/>
     <use xlink:href="#me55d37cf58" x="587.789284" y="183.615087" style="fill: #7fff00; stroke: #7fff00"/>
     <use xlink:href="#me55d37cf58" x="604.98497" y="226.807801" style="fill: #7fff00; stroke: #7fff00"/>
     <use xlink:href="#me55d37cf58" x="622.180655" y="434.757144" style="fill: #7fff00; stroke: #7fff00"/>
     <use xlink:href="#me55d37cf58" x="639.376341" y="393.882037" style="fill: #7fff00; stroke: #7fff00"/>
     <use xlink:href="#me55d37cf58" x="656.572027" y="388.105699" style="fill: #7fff00; stroke: #7fff00"/>
     <use xlink:href="#me55d37cf58" x="673.767712" y="378.844665" style="fill: #7fff00; stroke: #7fff00"/>
     <use xlink:href="#me55d37cf58" x="690.963398" y="368.761386" style="fill: #7fff00; stroke: #7fff00"/>
     <use xlink:href="#me55d37cf58" x="708.159084" y="360.293894" style="fill: #7fff00; stroke: #7fff00"/>
     <use xlink:href="#me55d37cf58" x="725.354769" y="356.946979" style="fill: #7fff00; stroke: #7fff00"/>
     <use xlink:href="#me55d37cf58" x="742.550455" y="352.454243" style="fill: #7fff00; stroke: #7fff00"/>
     <use xlink:href="#me55d37cf58" x="759.746141" y="347.266342" style="fill: #7fff00; stroke: #7fff00"/>
     <use xlink:href="#me55d37cf58" x="776.941826" y="341.927352" style="fill: #7fff00; stroke: #7fff00"/>
     <use xlink:href="#me55d37cf58" x="794.137512" y="336.132226" style="fill: #7fff00; stroke: #7fff00"/>
     <use xlink:href="#me55d37cf58" x="811.333198" y="331.148125" style="fill: #7fff00; stroke: #7fff00"/>
     <use xlink:href="#me55d37cf58" x="828.528883" y="326.983139" style="fill: #7fff00; stroke: #7fff00"/>
     <use xlink:href="#me55d37cf58" x="845.724569" y="324.91813" style="fill: #7fff00; stroke: #7fff00"/>
     <use xlink:href="#me55d37cf58" x="862.920255" y="325.523006" style="fill: #7fff00; stroke: #7fff00"/>
     <use xlink:href="#me55d37cf58" x="880.11594" y="329.975687" style="fill: #7fff00; stroke: #7fff00"/>
     <use xlink:href="#me55d37cf58" x="897.311626" y="328.055895" style="fill: #7fff00; stroke: #7fff00"/>
     <use xlink:href="#me55d37cf58" x="914.507312" y="321.842861" style="fill: #7fff00; stroke: #7fff00"/>
     <use xlink:href="#me55d37cf58" x="931.702997" y="315.571244" style="fill: #7fff00; stroke: #7fff00"/>
     <use xlink:href="#me55d37cf58" x="948.898683" y="309.712708" style="fill: #7fff00; stroke: #7fff00"/>
     <use xlink:href="#me55d37cf58" x="966.094369" y="304.33575" style="fill: #7fff00; stroke: #7fff00"/>
     <use xlink:href="#me55d37cf58" x="983.290054" y="189.308966" style="fill: #7fff00; stroke: #7fff00"/>
     <use xlink:href="#me55d37cf58" x="1000.48574" y="212.189511" style="fill: #7fff00; stroke: #7fff00"/>
     <use xlink:href="#me55d37cf58" x="1017.681426" y="213.637118" style="fill: #7fff00; stroke: #7fff00"/>
     <use xlink:href="#me55d37cf58" x="1034.877111" y="213.614807" style="fill: #7fff00; stroke: #7fff00"/>
     <use xlink:href="#me55d37cf58" x="1052.072797" y="215.172926" style="fill: #7fff00; stroke: #7fff00"/>
     <use xlink:href="#me55d37cf58" x="1069.268483" y="216.338057" style="fill: #7fff00; stroke: #7fff00"/>
     <use xlink:href="#me55d37cf58" x="1086.464168" y="215.663116" style="fill: #7fff00; stroke: #7fff00"/>
     <use xlink:href="#me55d37cf58" x="1103.659854" y="216.397162" style="fill: #7fff00; stroke: #7fff00"/>
     <use xlink:href="#me55d37cf58" x="1120.85554" y="214.936768" style="fill: #7fff00; stroke: #7fff00"/>
    </g>
   </g>
   <g id="line2d_16">
    <path d="M 106.310085 493.430709 
L 123.505771 493.1969 
L 140.701457 459.460539 
L 157.897142 471.146299 
L 175.092828 461.511066 
L 192.288514 454.656492 
L 209.484199 451.036626 
L 226.679885 443.707127 
L 243.875571 487.917407 
L 261.071256 533.593168 
L 278.266942 511.963214 
L 295.462628 501.323333 
L 312.658313 493.512647 
L 329.853999 484.830396 
L 347.049685 477.91215 
L 364.24537 461.190101 
L 381.441056 460.570089 
L 398.636742 449.800778 
L 415.832427 440.825482 
L 433.028113 432.901806 
L 450.223799 418.490448 
L 467.419484 411.913261 
L 484.61517 409.963199 
L 501.810856 404.153199 
L 519.006541 303.87035 
L 536.202227 49.306747 
L 553.397913 148.744647 
L 570.593598 181.307005 
L 587.789284 165.518234 
L 604.98497 232.114433 
L 622.180655 440.97083 
L 639.376341 432.41018 
L 656.572027 328.345286 
L 673.767712 376.986979 
L 690.963398 331.767354 
L 708.159084 367.064704 
L 725.354769 328.718963 
L 742.550455 350.964232 
L 759.746141 349.369319 
L 776.941826 324.597033 
L 794.137512 337.016056 
L 811.333198 325.059694 
L 828.528883 321.117296 
L 845.724569 317.769859 
L 862.920255 324.677797 
L 880.11594 335.437322 
L 897.311626 313.285473 
L 914.507312 341.7092 
L 931.702997 320.353372 
L 948.898683 309.234391 
L 966.094369 304.922491 
L 983.290054 163.88966 
L 1000.48574 185.624776 
L 1017.681426 233.163573 
L 1034.877111 205.636201 
L 1052.072797 227.971366 
L 1069.268483 201.417852 
L 1086.464168 209.887692 
L 1103.659854 206.696954 
L 1120.85554 194.109751 
" clip-path="url(#p678ece05cf)" style="fill: none; stroke: #2e8b57; stroke-width: 1.5; stroke-linecap: square"/>
    <defs>
     <path id="md8ac9987ba" d="M -0.49999 0.49999 
L 0.50001 0.49999 
L 0.50001 -0.50001 
L -0.49999 -0.50001 
z
"/>
    </defs>
    <g clip-path="url(#p678ece05cf)">
     <use xlink:href="#md8ac9987ba" x="106.310085" y="493.430709" style="fill: #2e8b57"/>
     <use xlink:href="#md8ac9987ba" x="123.505771" y="493.1969" style="fill: #2e8b57"/>
     <use xlink:href="#md8ac9987ba" x="140.701457" y="459.460539" style="fill: #2e8b57"/>
     <use xlink:href="#md8ac9987ba" x="157.897142" y="471.146299" style="fill: #2e8b57"/>
     <use xlink:href="#md8ac9987ba" x="175.092828" y="461.511066" style="fill: #2e8b57"/>
     <use xlink:href="#md8ac9987ba" x="192.288514" y="454.656492" style="fill: #2e8b57"/>
     <use xlink:href="#md8ac9987ba" x="209.484199" y="451.036626" style="fill: #2e8b57"/>
     <use xlink:href="#md8ac9987ba" x="226.679885" y="443.707127" style="fill: #2e8b57"/>
     <use xlink:href="#md8ac9987ba" x="243.875571" y="487.917407" style="fill: #2e8b57"/>
     <use xlink:href="#md8ac9987ba" x="261.071256" y="533.593168" style="fill: #2e8b57"/>
     <use xlink:href="#md8ac9987ba" x="278.266942" y="511.963214" style="fill: #2e8b57"/>
     <use xlink:href="#md8ac9987ba" x="295.462628" y="501.323333" style="fill: #2e8b57"/>
     <use xlink:href="#md8ac9987ba" x="312.658313" y="493.512647" style="fill: #2e8b57"/>
     <use xlink:href="#md8ac9987ba" x="329.853999" y="484.830396" style="fill: #2e8b57"/>
     <use xlink:href="#md8ac9987ba" x="347.049685" y="477.91215" style="fill: #2e8b57"/>
     <use xlink:href="#md8ac9987ba" x="364.24537" y="461.190101" style="fill: #2e8b57"/>
     <use xlink:href="#md8ac9987ba" x="381.441056" y="460.570089" style="fill: #2e8b57"/>
     <use xlink:href="#md8ac9987ba" x="398.636742" y="449.800778" style="fill: #2e8b57"/>
     <use xlink:href="#md8ac9987ba" x="415.832427" y="440.825482" style="fill: #2e8b57"/>
     <use xlink:href="#md8ac9987ba" x="433.028113" y="432.901806" style="fill: #2e8b57"/>
     <use xlink:href="#md8ac9987ba" x="450.223799" y="418.490448" style="fill: #2e8b57"/>
     <use xlink:href="#md8ac9987ba" x="467.419484" y="411.913261" style="fill: #2e8b57"/>
     <use xlink:href="#md8ac9987ba" x="484.61517" y="409.963199" style="fill: #2e8b57"/>
     <use xlink:href="#md8ac9987ba" x="501.810856" y="404.153199" style="fill: #2e8b57"/>
     <use xlink:href="#md8ac9987ba" x="519.006541" y="303.87035" style="fill: #2e8b57"/>
     <use xlink:href="#md8ac9987ba" x="536.202227" y="49.306747" style="fill: #2e8b57"/>
     <use xlink:href="#md8ac9987ba" x="553.397913" y="148.744647" style="fill: #2e8b57"/>
     <use xlink:href="#md8ac9987ba" x="570.593598" y="181.307005" style="fill: #2e8b57"/>
     <use xlink:href="#md8ac9987ba" x="587.789284" y="165.518234" style="fill: #2e8b57"/>
     <use xlink:href="#md8ac9987ba" x="604.98497" y="232.114433" style="fill: #2e8b57"/>
     <use xlink:href="#md8ac9987ba" x="622.180655" y="440.97083" style="fill: #2e8b57"/>
     <use xlink:href="#md8ac9987ba" x="639.376341" y="432.41018" style="fill: #2e8b57"/>
     <use xlink:href="#md8ac9987ba" x="656.572027" y="328.345286" style="fill: #2e8b57"/>
     <use xlink:href="#md8ac9987ba" x="673.767712" y="376.986979" style="fill: #2e8b57"/>
     <use xlink:href="#md8ac9987ba" x="690.963398" y="331.767354" style="fill: #2e8b57"/>
     <use xlink:href="#md8ac9987ba" x="708.159084" y="367.064704" style="fill: #2e8b57"/>
     <use xlink:href="#md8ac9987ba" x="725.354769" y="328.718963" style="fill: #2e8b57"/>
     <use xlink:href="#md8ac9987ba" x="742.550455" y="350.964232" style="fill: #2e8b57"/>
     <use xlink:href="#md8ac9987ba" x="759.746141" y="349.369319" style="fill: #2e8b57"/>
     <use xlink:href="#md8ac9987ba" x="776.941826" y="324.597033" style="fill: #2e8b57"/>
     <use xlink:href="#md8ac9987ba" x="794.137512" y="337.016056" style="fill: #2e8b57"/>
     <use xlink:href="#md8ac9987ba" x="811.333198" y="325.059694" style="fill: #2e8b57"/>
     <use xlink:href="#md8ac9987ba" x="828.528883" y="321.117296" style="fill: #2e8b57"/>
     <use xlink:href="#md8ac9987ba" x="845.724569" y="317.769859" style="fill: #2e8b57"/>
     <use xlink:href="#md8ac9987ba" x="862.920255" y="324.677797" style="fill: #2e8b57"/>
     <use xlink:href="#md8ac9987ba" x="880.11594" y="335.437322" style="fill: #2e8b57"/>
     <use xlink:href="#md8ac9987ba" x="897.311626" y="313.285473" style="fill: #2e8b57"/>
     <use xlink:href="#md8ac9987ba" x="914.507312" y="341.7092" style="fill: #2e8b57"/>
     <use xlink:href="#md8ac9987ba" x="931.702997" y="320.353372" style="fill: #2e8b57"/>
     <use xlink:href="#md8ac9987ba" x="948.898683" y="309.234391" style="fill: #2e8b57"/>
     <use xlink:href="#md8ac9987ba" x="966.094369" y="304.922491" style="fill: #2e8b57"/>
     <use xlink:href="#md8ac9987ba" x="983.290054" y="163.88966" style="fill: #2e8b57"/>
     <use xlink:href="#md8ac9987ba" x="1000.48574" y="185.624776" style="fill: #2e8b57"/>
     <use xlink:href="#md8ac9987ba" x="1017.681426" y="233.163573" style="fill: #2e8b57"/>
     <use xlink:href="#md8ac9987ba" x="1034.877111" y="205.636201" style="fill: #2e8b57"/>
     <use xlink:href="#md8ac9987ba" x="1052.072797" y="227.971366" style="fill: #2e8b57"/>
     <use xlink:href="#md8ac9987ba" x="1069.268483" y="201.417852" style="fill: #2e8b57"/>
     <use xlink:href="#md8ac9987ba" x="1086.464168" y="209.887692" style="fill: #2e8b57"/>
     <use xlink:href="#md8ac9987ba" x="1103.659854" y="206.696954" style="fill: #2e8b57"/>
     <use xlink:href="#md8ac9987ba" x="1120.85554" y="194.109751" style="fill: #2e8b57"/>
    </g>
   </g>
   <g id="patch_3">
    <path d="M 55.582813 568.197656 
L 55.582813 24.597656 
" style="fill: none; stroke: #000000; stroke-width: 0.8; stroke-linejoin: miter; stroke-linecap: square"/>
   </g>
   <g id="patch_4">
    <path d="M 1171.582813 568.197656 
L 1171.582813 24.597656 
" style="fill: none; stroke: #000000; stroke-width: 0.8; stroke-linejoin: miter; stroke-linecap: square"/>
   </g>
   <g id="patch_5">
    <path d="M 55.582813 568.197656 
L 1171.582813 568.197656 
" style="fill: none; stroke: #000000; stroke-width: 0.8; stroke-linejoin: miter; stroke-linecap: square"/>
   </g>
   <g id="patch_6">
    <path d="M 55.582813 24.597656 
L 1171.582813 24.597656 
" style="fill: none; stroke: #000000; stroke-width: 0.8; stroke-linejoin: miter; stroke-linecap: square"/>
   </g>
   <g id="text_15">
    <!-- Relationship between prediction and real data for baseline models -->
    <g transform="translate(364.214844 18.597656)scale(0.15 -0.15)">
     <defs>
      <path id="DejaVuSans-52" d="M 2841 2188 
Q 3044 2119 3236 1894 
Q 3428 1669 3622 1275 
L 4263 0 
L 3584 0 
L 2988 1197 
Q 2756 1666 2539 1819 
Q 2322 1972 1947 1972 
L 1259 1972 
L 1259 0 
L 628 0 
L 628 4666 
L 2053 4666 
Q 2853 4666 3247 4331 
Q 3641 3997 3641 3322 
Q 3641 2881 3436 2590 
Q 3231 2300 2841 2188 
z
M 1259 4147 
L 1259 2491 
L 2053 2491 
Q 2509 2491 2742 2702 
Q 2975 2913 2975 3322 
Q 2975 3731 2742 3939 
Q 2509 4147 2053 4147 
L 1259 4147 
z
" transform="scale(0.015625)"/>
      <path id="DejaVuSans-6c" d="M 603 4863 
L 1178 4863 
L 1178 0 
L 603 0 
L 603 4863 
z
" transform="scale(0.015625)"/>
      <path id="DejaVuSans-61" d="M 2194 1759 
Q 1497 1759 1228 1600 
Q 959 1441 959 1056 
Q 959 750 1161 570 
Q 1363 391 1709 391 
Q 2188 391 2477 730 
Q 2766 1069 2766 1631 
L 2766 1759 
L 2194 1759 
z
M 3341 1997 
L 3341 0 
L 2766 0 
L 2766 531 
Q 2569 213 2275 61 
Q 1981 -91 1556 -91 
Q 1019 -91 701 211 
Q 384 513 384 1019 
Q 384 1609 779 1909 
Q 1175 2209 1959 2209 
L 2766 2209 
L 2766 2266 
Q 2766 2663 2505 2880 
Q 2244 3097 1772 3097 
Q 1472 3097 1187 3025 
Q 903 2953 641 2809 
L 641 3341 
Q 956 3463 1253 3523 
Q 1550 3584 1831 3584 
Q 2591 3584 2966 3190 
Q 3341 2797 3341 1997 
z
" transform="scale(0.015625)"/>
      <path id="DejaVuSans-68" d="M 3513 2113 
L 3513 0 
L 2938 0 
L 2938 2094 
Q 2938 2591 2744 2837 
Q 2550 3084 2163 3084 
Q 1697 3084 1428 2787 
Q 1159 2491 1159 1978 
L 1159 0 
L 581 0 
L 581 4863 
L 1159 4863 
L 1159 2956 
Q 1366 3272 1645 3428 
Q 1925 3584 2291 3584 
Q 2894 3584 3203 3211 
Q 3513 2838 3513 2113 
z
" transform="scale(0.015625)"/>
      <path id="DejaVuSans-62" d="M 3116 1747 
Q 3116 2381 2855 2742 
Q 2594 3103 2138 3103 
Q 1681 3103 1420 2742 
Q 1159 2381 1159 1747 
Q 1159 1113 1420 752 
Q 1681 391 2138 391 
Q 2594 391 2855 752 
Q 3116 1113 3116 1747 
z
M 1159 2969 
Q 1341 3281 1617 3432 
Q 1894 3584 2278 3584 
Q 2916 3584 3314 3078 
Q 3713 2572 3713 1747 
Q 3713 922 3314 415 
Q 2916 -91 2278 -91 
Q 1894 -91 1617 61 
Q 1341 213 1159 525 
L 1159 0 
L 581 0 
L 581 4863 
L 1159 4863 
L 1159 2969 
z
" transform="scale(0.015625)"/>
      <path id="DejaVuSans-72" d="M 2631 2963 
Q 2534 3019 2420 3045 
Q 2306 3072 2169 3072 
Q 1681 3072 1420 2755 
Q 1159 2438 1159 1844 
L 1159 0 
L 581 0 
L 581 3500 
L 1159 3500 
L 1159 2956 
Q 1341 3275 1631 3429 
Q 1922 3584 2338 3584 
Q 2397 3584 2469 3576 
Q 2541 3569 2628 3553 
L 2631 2963 
z
" transform="scale(0.015625)"/>
      <path id="DejaVuSans-64" d="M 2906 2969 
L 2906 4863 
L 3481 4863 
L 3481 0 
L 2906 0 
L 2906 525 
Q 2725 213 2448 61 
Q 2172 -91 1784 -91 
Q 1150 -91 751 415 
Q 353 922 353 1747 
Q 353 2572 751 3078 
Q 1150 3584 1784 3584 
Q 2172 3584 2448 3432 
Q 2725 3281 2906 2969 
z
M 947 1747 
Q 947 1113 1208 752 
Q 1469 391 1925 391 
Q 2381 391 2643 752 
Q 2906 1113 2906 1747 
Q 2906 2381 2643 2742 
Q 2381 3103 1925 3103 
Q 1469 3103 1208 2742 
Q 947 2381 947 1747 
z
" transform="scale(0.015625)"/>
      <path id="DejaVuSans-66" d="M 2375 4863 
L 2375 4384 
L 1825 4384 
Q 1516 4384 1395 4259 
Q 1275 4134 1275 3809 
L 1275 3500 
L 2222 3500 
L 2222 3053 
L 1275 3053 
L 1275 0 
L 697 0 
L 697 3053 
L 147 3053 
L 147 3500 
L 697 3500 
L 697 3744 
Q 697 4328 969 4595 
Q 1241 4863 1831 4863 
L 2375 4863 
z
" transform="scale(0.015625)"/>
     </defs>
     <use xlink:href="#DejaVuSans-52"/>
     <use xlink:href="#DejaVuSans-65" x="64.982422"/>
     <use xlink:href="#DejaVuSans-6c" x="126.505859"/>
     <use xlink:href="#DejaVuSans-61" x="154.289062"/>
     <use xlink:href="#DejaVuSans-74" x="215.568359"/>
     <use xlink:href="#DejaVuSans-69" x="254.777344"/>
     <use xlink:href="#DejaVuSans-6f" x="282.560547"/>
     <use xlink:href="#DejaVuSans-6e" x="343.742188"/>
     <use xlink:href="#DejaVuSans-73" x="407.121094"/>
     <use xlink:href="#DejaVuSans-68" x="459.220703"/>
     <use xlink:href="#DejaVuSans-69" x="522.599609"/>
     <use xlink:href="#DejaVuSans-70" x="550.382812"/>
     <use xlink:href="#DejaVuSans-20" x="613.859375"/>
     <use xlink:href="#DejaVuSans-62" x="645.646484"/>
     <use xlink:href="#DejaVuSans-65" x="709.123047"/>
     <use xlink:href="#DejaVuSans-74" x="770.646484"/>
     <use xlink:href="#DejaVuSans-77" x="809.855469"/>
     <use xlink:href="#DejaVuSans-65" x="891.642578"/>
     <use xlink:href="#DejaVuSans-65" x="953.166016"/>
     <use xlink:href="#DejaVuSans-6e" x="1014.689453"/>
     <use xlink:href="#DejaVuSans-20" x="1078.068359"/>
     <use xlink:href="#DejaVuSans-70" x="1109.855469"/>
     <use xlink:href="#DejaVuSans-72" x="1173.332031"/>
     <use xlink:href="#DejaVuSans-65" x="1212.195312"/>
     <use xlink:href="#DejaVuSans-64" x="1273.71875"/>
     <use xlink:href="#DejaVuSans-69" x="1337.195312"/>
     <use xlink:href="#DejaVuSans-63" x="1364.978516"/>
     <use xlink:href="#DejaVuSans-74" x="1419.958984"/>
     <use xlink:href="#DejaVuSans-69" x="1459.167969"/>
     <use xlink:href="#DejaVuSans-6f" x="1486.951172"/>
     <use xlink:href="#DejaVuSans-6e" x="1548.132812"/>
     <use xlink:href="#DejaVuSans-20" x="1611.511719"/>
     <use xlink:href="#DejaVuSans-61" x="1643.298828"/>
     <use xlink:href="#DejaVuSans-6e" x="1704.578125"/>
     <use xlink:href="#DejaVuSans-64" x="1767.957031"/>
     <use xlink:href="#DejaVuSans-20" x="1831.433594"/>
     <use xlink:href="#DejaVuSans-72" x="1863.220703"/>
     <use xlink:href="#DejaVuSans-65" x="1902.083984"/>
     <use xlink:href="#DejaVuSans-61" x="1963.607422"/>
     <use xlink:href="#DejaVuSans-6c" x="2024.886719"/>
     <use xlink:href="#DejaVuSans-20" x="2052.669922"/>
     <use xlink:href="#DejaVuSans-64" x="2084.457031"/>
     <use xlink:href="#DejaVuSans-61" x="2147.933594"/>
     <use xlink:href="#DejaVuSans-74" x="2209.212891"/>
     <use xlink:href="#DejaVuSans-61" x="2248.421875"/>
     <use xlink:href="#DejaVuSans-20" x="2309.701172"/>
     <use xlink:href="#DejaVuSans-66" x="2341.488281"/>
     <use xlink:href="#DejaVuSans-6f" x="2376.693359"/>
     <use xlink:href="#DejaVuSans-72" x="2437.875"/>
     <use xlink:href="#DejaVuSans-20" x="2478.988281"/>
     <use xlink:href="#DejaVuSans-62" x="2510.775391"/>
     <use xlink:href="#DejaVuSans-61" x="2574.251953"/>
     <use xlink:href="#DejaVuSans-73" x="2635.53125"/>
     <use xlink:href="#DejaVuSans-65" x="2687.630859"/>
     <use xlink:href="#DejaVuSans-6c" x="2749.154297"/>
     <use xlink:href="#DejaVuSans-69" x="2776.9375"/>
     <use xlink:href="#DejaVuSans-6e" x="2804.720703"/>
     <use xlink:href="#DejaVuSans-65" x="2868.099609"/>
     <use xlink:href="#DejaVuSans-20" x="2929.623047"/>
     <use xlink:href="#DejaVuSans-6d" x="2961.410156"/>
     <use xlink:href="#DejaVuSans-6f" x="3058.822266"/>
     <use xlink:href="#DejaVuSans-64" x="3120.003906"/>
     <use xlink:href="#DejaVuSans-65" x="3183.480469"/>
     <use xlink:href="#DejaVuSans-6c" x="3245.003906"/>
     <use xlink:href="#DejaVuSans-73" x="3272.787109"/>
    </g>
   </g>
   <g id="legend_1">
    <g id="patch_7">
     <path d="M 983.642188 124.666406 
L 1161.082813 124.666406 
Q 1164.082813 124.666406 1164.082813 121.666406 
L 1164.082813 35.097656 
Q 1164.082813 32.097656 1161.082813 32.097656 
L 983.642188 32.097656 
Q 980.642188 32.097656 980.642188 35.097656 
L 980.642188 121.666406 
Q 980.642188 124.666406 983.642188 124.666406 
z
" style="fill: #ffffff; opacity: 0.8; stroke: #cccccc; stroke-linejoin: miter"/>
    </g>
    <g id="line2d_17">
     <path d="M 986.642188 44.245312 
L 1001.642188 44.245312 
L 1016.642188 44.245312 
" style="fill: none; stroke: #1f77b4; stroke-width: 1.5; stroke-linecap: square"/>
     <g>
      <use xlink:href="#m0b48fce9fe" x="1001.642188" y="44.245312" style="fill: #1f77b4; stroke: #1f77b4; stroke-linejoin: miter"/>
     </g>
    </g>
    <g id="text_16">
     <!-- real -->
     <g transform="translate(1028.642188 49.495312)scale(0.15 -0.15)">
      <use xlink:href="#DejaVuSans-72"/>
      <use xlink:href="#DejaVuSans-65" x="38.863281"/>
      <use xlink:href="#DejaVuSans-61" x="100.386719"/>
      <use xlink:href="#DejaVuSans-6c" x="161.666016"/>
     </g>
    </g>
    <g id="line2d_18">
     <path d="M 986.642188 66.2625 
L 1001.642188 66.2625 
L 1016.642188 66.2625 
" style="fill: none; stroke: #a52a2a; stroke-width: 1.5; stroke-linecap: square"/>
     <g>
      <use xlink:href="#m9b4c3695b4" x="1001.642188" y="66.2625" style="fill: #a52a2a; stroke: #a52a2a"/>
     </g>
    </g>
    <g id="text_17">
     <!-- GRU - Prediction -->
     <g transform="translate(1028.642188 71.5125)scale(0.15 -0.15)">
      <defs>
       <path id="DejaVuSans-47" d="M 3809 666 
L 3809 1919 
L 2778 1919 
L 2778 2438 
L 4434 2438 
L 4434 434 
Q 4069 175 3628 42 
Q 3188 -91 2688 -91 
Q 1594 -91 976 548 
Q 359 1188 359 2328 
Q 359 3472 976 4111 
Q 1594 4750 2688 4750 
Q 3144 4750 3555 4637 
Q 3966 4525 4313 4306 
L 4313 3634 
Q 3963 3931 3569 4081 
Q 3175 4231 2741 4231 
Q 1884 4231 1454 3753 
Q 1025 3275 1025 2328 
Q 1025 1384 1454 906 
Q 1884 428 2741 428 
Q 3075 428 3337 486 
Q 3600 544 3809 666 
z
" transform="scale(0.015625)"/>
       <path id="DejaVuSans-55" d="M 556 4666 
L 1191 4666 
L 1191 1831 
Q 1191 1081 1462 751 
Q 1734 422 2344 422 
Q 2950 422 3222 751 
Q 3494 1081 3494 1831 
L 3494 4666 
L 4128 4666 
L 4128 1753 
Q 4128 841 3676 375 
Q 3225 -91 2344 -91 
Q 1459 -91 1007 375 
Q 556 841 556 1753 
L 556 4666 
z
" transform="scale(0.015625)"/>
       <path id="DejaVuSans-2d" d="M 313 2009 
L 1997 2009 
L 1997 1497 
L 313 1497 
L 313 2009 
z
" transform="scale(0.015625)"/>
       <path id="DejaVuSans-50" d="M 1259 4147 
L 1259 2394 
L 2053 2394 
Q 2494 2394 2734 2622 
Q 2975 2850 2975 3272 
Q 2975 3691 2734 3919 
Q 2494 4147 2053 4147 
L 1259 4147 
z
M 628 4666 
L 2053 4666 
Q 2838 4666 3239 4311 
Q 3641 3956 3641 3272 
Q 3641 2581 3239 2228 
Q 2838 1875 2053 1875 
L 1259 1875 
L 1259 0 
L 628 0 
L 628 4666 
z
" transform="scale(0.015625)"/>
      </defs>
      <use xlink:href="#DejaVuSans-47"/>
      <use xlink:href="#DejaVuSans-52" x="77.490234"/>
      <use xlink:href="#DejaVuSans-55" x="146.972656"/>
      <use xlink:href="#DejaVuSans-20" x="220.166016"/>
      <use xlink:href="#DejaVuSans-2d" x="251.953125"/>
      <use xlink:href="#DejaVuSans-20" x="288.037109"/>
      <use xlink:href="#DejaVuSans-50" x="319.824219"/>
      <use xlink:href="#DejaVuSans-72" x="378.376953"/>
      <use xlink:href="#DejaVuSans-65" x="417.240234"/>
      <use xlink:href="#DejaVuSans-64" x="478.763672"/>
      <use xlink:href="#DejaVuSans-69" x="542.240234"/>
      <use xlink:href="#DejaVuSans-63" x="570.023438"/>
      <use xlink:href="#DejaVuSans-74" x="625.003906"/>
      <use xlink:href="#DejaVuSans-69" x="664.212891"/>
      <use xlink:href="#DejaVuSans-6f" x="691.996094"/>
      <use xlink:href="#DejaVuSans-6e" x="753.177734"/>
     </g>
    </g>
    <g id="line2d_19">
     <path d="M 986.642188 88.279687 
L 1001.642188 88.279687 
L 1016.642188 88.279687 
" style="fill: none; stroke: #7fff00; stroke-width: 1.5; stroke-linecap: square"/>
     <g>
      <use xlink:href="#me55d37cf58" x="1001.642188" y="88.279687" style="fill: #7fff00; stroke: #7fff00"/>
     </g>
    </g>
    <g id="text_18">
     <!-- LSTM - Prediction -->
     <g transform="translate(1028.642188 93.529687)scale(0.15 -0.15)">
      <defs>
       <path id="DejaVuSans-4c" d="M 628 4666 
L 1259 4666 
L 1259 531 
L 3531 531 
L 3531 0 
L 628 0 
L 628 4666 
z
" transform="scale(0.015625)"/>
       <path id="DejaVuSans-53" d="M 3425 4513 
L 3425 3897 
Q 3066 4069 2747 4153 
Q 2428 4238 2131 4238 
Q 1616 4238 1336 4038 
Q 1056 3838 1056 3469 
Q 1056 3159 1242 3001 
Q 1428 2844 1947 2747 
L 2328 2669 
Q 3034 2534 3370 2195 
Q 3706 1856 3706 1288 
Q 3706 609 3251 259 
Q 2797 -91 1919 -91 
Q 1588 -91 1214 -16 
Q 841 59 441 206 
L 441 856 
Q 825 641 1194 531 
Q 1563 422 1919 422 
Q 2459 422 2753 634 
Q 3047 847 3047 1241 
Q 3047 1584 2836 1778 
Q 2625 1972 2144 2069 
L 1759 2144 
Q 1053 2284 737 2584 
Q 422 2884 422 3419 
Q 422 4038 858 4394 
Q 1294 4750 2059 4750 
Q 2388 4750 2728 4690 
Q 3069 4631 3425 4513 
z
" transform="scale(0.015625)"/>
       <path id="DejaVuSans-54" d="M -19 4666 
L 3928 4666 
L 3928 4134 
L 2272 4134 
L 2272 0 
L 1638 0 
L 1638 4134 
L -19 4134 
L -19 4666 
z
" transform="scale(0.015625)"/>
       <path id="DejaVuSans-4d" d="M 628 4666 
L 1569 4666 
L 2759 1491 
L 3956 4666 
L 4897 4666 
L 4897 0 
L 4281 0 
L 4281 4097 
L 3078 897 
L 2444 897 
L 1241 4097 
L 1241 0 
L 628 0 
L 628 4666 
z
" transform="scale(0.015625)"/>
      </defs>
      <use xlink:href="#DejaVuSans-4c"/>
      <use xlink:href="#DejaVuSans-53" x="55.712891"/>
      <use xlink:href="#DejaVuSans-54" x="119.189453"/>
      <use xlink:href="#DejaVuSans-4d" x="180.273438"/>
      <use xlink:href="#DejaVuSans-20" x="266.552734"/>
      <use xlink:href="#DejaVuSans-2d" x="298.339844"/>
      <use xlink:href="#DejaVuSans-20" x="334.423828"/>
      <use xlink:href="#DejaVuSans-50" x="366.210938"/>
      <use xlink:href="#DejaVuSans-72" x="424.763672"/>
      <use xlink:href="#DejaVuSans-65" x="463.626953"/>
      <use xlink:href="#DejaVuSans-64" x="525.150391"/>
      <use xlink:href="#DejaVuSans-69" x="588.626953"/>
      <use xlink:href="#DejaVuSans-63" x="616.410156"/>
      <use xlink:href="#DejaVuSans-74" x="671.390625"/>
      <use xlink:href="#DejaVuSans-69" x="710.599609"/>
      <use xlink:href="#DejaVuSans-6f" x="738.382812"/>
      <use xlink:href="#DejaVuSans-6e" x="799.564453"/>
     </g>
    </g>
    <g id="line2d_20">
     <path d="M 986.642188 110.296875 
L 1001.642188 110.296875 
L 1016.642188 110.296875 
" style="fill: none; stroke: #2e8b57; stroke-width: 1.5; stroke-linecap: square"/>
     <g>
      <use xlink:href="#md8ac9987ba" x="1001.642188" y="110.296875" style="fill: #2e8b57"/>
     </g>
    </g>
    <g id="text_19">
     <!-- RNN - Prediction -->
     <g transform="translate(1028.642188 115.546875)scale(0.15 -0.15)">
      <defs>
       <path id="DejaVuSans-4e" d="M 628 4666 
L 1478 4666 
L 3547 763 
L 3547 4666 
L 4159 4666 
L 4159 0 
L 3309 0 
L 1241 3903 
L 1241 0 
L 628 0 
L 628 4666 
z
" transform="scale(0.015625)"/>
      </defs>
      <use xlink:href="#DejaVuSans-52"/>
      <use xlink:href="#DejaVuSans-4e" x="69.482422"/>
      <use xlink:href="#DejaVuSans-4e" x="144.287109"/>
      <use xlink:href="#DejaVuSans-20" x="219.091797"/>
      <use xlink:href="#DejaVuSans-2d" x="250.878906"/>
      <use xlink:href="#DejaVuSans-20" x="286.962891"/>
      <use xlink:href="#DejaVuSans-50" x="318.75"/>
      <use xlink:href="#DejaVuSans-72" x="377.302734"/>
      <use xlink:href="#DejaVuSans-65" x="416.166016"/>
      <use xlink:href="#DejaVuSans-64" x="477.689453"/>
      <use xlink:href="#DejaVuSans-69" x="541.166016"/>
      <use xlink:href="#DejaVuSans-63" x="568.949219"/>
      <use xlink:href="#DejaVuSans-74" x="623.929688"/>
      <use xlink:href="#DejaVuSans-69" x="663.138672"/>
      <use xlink:href="#DejaVuSans-6f" x="690.921875"/>
      <use xlink:href="#DejaVuSans-6e" x="752.103516"/>
     </g>
    </g>
   </g>
  </g>
 </g>
 <defs>
  <clipPath id="p678ece05cf">
   <rect x="55.582813" y="24.597656" width="1116" height="543.6"/>
  </clipPath>
 </defs>
</svg>
