<?xml version="1.0" encoding="utf-8" standalone="no"?>
<!DOCTYPE svg PUBLIC "-//W3C//DTD SVG 1.1//EN"
  "http://www.w3.org/Graphics/SVG/1.1/DTD/svg11.dtd">
<svg xmlns:xlink="http://www.w3.org/1999/xlink" width="1175.604687pt" height="610.592969pt" viewBox="0 0 1175.604687 610.592969" xmlns="http://www.w3.org/2000/svg" version="1.1">
 <metadata>
  <rdf:RDF xmlns:dc="http://purl.org/dc/elements/1.1/" xmlns:cc="http://creativecommons.org/ns#" xmlns:rdf="http://www.w3.org/1999/02/22-rdf-syntax-ns#">
   <cc:Work>
    <dc:type rdf:resource="http://purl.org/dc/dcmitype/StillImage"/>
    <dc:date>2022-07-29T13:00:38.146205</dc:date>
    <dc:format>image/svg+xml</dc:format>
    <dc:creator>
     <cc:Agent>
      <dc:title>Matplotlib v3.5.2, https://matplotlib.org/</dc:title>
     </cc:Agent>
    </dc:creator>
   </cc:Work>
  </rdf:RDF>
 </metadata>
 <defs>
  <style type="text/css">*{stroke-linejoin: round; stroke-linecap: butt}</style>
 </defs>
 <g id="figure_1">
  <g id="patch_1">
   <path d="M 0 610.592969 
L 1175.604687 610.592969 
L 1175.604687 0 
L 0 0 
L 0 610.592969 
z
" style="fill: none"/>
  </g>
  <g id="axes_1">
   <g id="patch_2">
    <path d="M 52.404688 568.197656 
L 1168.404687 568.197656 
L 1168.404687 24.597656 
L 52.404688 24.597656 
z
" style="fill: #ffffff"/>
   </g>
   <g id="matplotlib.axis_1">
    <g id="xtick_1">
     <g id="line2d_1">
      <defs>
       <path id="m737fca6722" d="M 0 0 
L 0 3.5 
" style="stroke: #000000; stroke-width: 0.8"/>
      </defs>
      <g>
       <use xlink:href="#m737fca6722" x="103.13196" y="568.197656" style="stroke: #000000; stroke-width: 0.8"/>
      </g>
     </g>
     <g id="text_1">
      <!-- 0 -->
      <g transform="translate(99.95071 582.796094)scale(0.1 -0.1)">
       <defs>
        <path id="DejaVuSans-30" d="M 2034 4250 
Q 1547 4250 1301 3770 
Q 1056 3291 1056 2328 
Q 1056 1369 1301 889 
Q 1547 409 2034 409 
Q 2525 409 2770 889 
Q 3016 1369 3016 2328 
Q 3016 3291 2770 3770 
Q 2525 4250 2034 4250 
z
M 2034 4750 
Q 2819 4750 3233 4129 
Q 3647 3509 3647 2328 
Q 3647 1150 3233 529 
Q 2819 -91 2034 -91 
Q 1250 -91 836 529 
Q 422 1150 422 2328 
Q 422 3509 836 4129 
Q 1250 4750 2034 4750 
z
" transform="scale(0.015625)"/>
       </defs>
       <use xlink:href="#DejaVuSans-30"/>
      </g>
     </g>
    </g>
    <g id="xtick_2">
     <g id="line2d_2">
      <g>
       <use xlink:href="#m737fca6722" x="275.088817" y="568.197656" style="stroke: #000000; stroke-width: 0.8"/>
      </g>
     </g>
     <g id="text_2">
      <!-- 10 -->
      <g transform="translate(268.726317 582.796094)scale(0.1 -0.1)">
       <defs>
        <path id="DejaVuSans-31" d="M 794 531 
L 1825 531 
L 1825 4091 
L 703 3866 
L 703 4441 
L 1819 4666 
L 2450 4666 
L 2450 531 
L 3481 531 
L 3481 0 
L 794 0 
L 794 531 
z
" transform="scale(0.015625)"/>
       </defs>
       <use xlink:href="#DejaVuSans-31"/>
       <use xlink:href="#DejaVuSans-30" x="63.623047"/>
      </g>
     </g>
    </g>
    <g id="xtick_3">
     <g id="line2d_3">
      <g>
       <use xlink:href="#m737fca6722" x="447.045674" y="568.197656" style="stroke: #000000; stroke-width: 0.8"/>
      </g>
     </g>
     <g id="text_3">
      <!-- 20 -->
      <g transform="translate(440.683174 582.796094)scale(0.1 -0.1)">
       <defs>
        <path id="DejaVuSans-32" d="M 1228 531 
L 3431 531 
L 3431 0 
L 469 0 
L 469 531 
Q 828 903 1448 1529 
Q 2069 2156 2228 2338 
Q 2531 2678 2651 2914 
Q 2772 3150 2772 3378 
Q 2772 3750 2511 3984 
Q 2250 4219 1831 4219 
Q 1534 4219 1204 4116 
Q 875 4013 500 3803 
L 500 4441 
Q 881 4594 1212 4672 
Q 1544 4750 1819 4750 
Q 2544 4750 2975 4387 
Q 3406 4025 3406 3419 
Q 3406 3131 3298 2873 
Q 3191 2616 2906 2266 
Q 2828 2175 2409 1742 
Q 1991 1309 1228 531 
z
" transform="scale(0.015625)"/>
       </defs>
       <use xlink:href="#DejaVuSans-32"/>
       <use xlink:href="#DejaVuSans-30" x="63.623047"/>
      </g>
     </g>
    </g>
    <g id="xtick_4">
     <g id="line2d_4">
      <g>
       <use xlink:href="#m737fca6722" x="619.00253" y="568.197656" style="stroke: #000000; stroke-width: 0.8"/>
      </g>
     </g>
     <g id="text_4">
      <!-- 30 -->
      <g transform="translate(612.64003 582.796094)scale(0.1 -0.1)">
       <defs>
        <path id="DejaVuSans-33" d="M 2597 2516 
Q 3050 2419 3304 2112 
Q 3559 1806 3559 1356 
Q 3559 666 3084 287 
Q 2609 -91 1734 -91 
Q 1441 -91 1130 -33 
Q 819 25 488 141 
L 488 750 
Q 750 597 1062 519 
Q 1375 441 1716 441 
Q 2309 441 2620 675 
Q 2931 909 2931 1356 
Q 2931 1769 2642 2001 
Q 2353 2234 1838 2234 
L 1294 2234 
L 1294 2753 
L 1863 2753 
Q 2328 2753 2575 2939 
Q 2822 3125 2822 3475 
Q 2822 3834 2567 4026 
Q 2313 4219 1838 4219 
Q 1578 4219 1281 4162 
Q 984 4106 628 3988 
L 628 4550 
Q 988 4650 1302 4700 
Q 1616 4750 1894 4750 
Q 2613 4750 3031 4423 
Q 3450 4097 3450 3541 
Q 3450 3153 3228 2886 
Q 3006 2619 2597 2516 
z
" transform="scale(0.015625)"/>
       </defs>
       <use xlink:href="#DejaVuSans-33"/>
       <use xlink:href="#DejaVuSans-30" x="63.623047"/>
      </g>
     </g>
    </g>
    <g id="xtick_5">
     <g id="line2d_5">
      <g>
       <use xlink:href="#m737fca6722" x="790.959387" y="568.197656" style="stroke: #000000; stroke-width: 0.8"/>
      </g>
     </g>
     <g id="text_5">
      <!-- 40 -->
      <g transform="translate(784.596887 582.796094)scale(0.1 -0.1)">
       <defs>
        <path id="DejaVuSans-34" d="M 2419 4116 
L 825 1625 
L 2419 1625 
L 2419 4116 
z
M 2253 4666 
L 3047 4666 
L 3047 1625 
L 3713 1625 
L 3713 1100 
L 3047 1100 
L 3047 0 
L 2419 0 
L 2419 1100 
L 313 1100 
L 313 1709 
L 2253 4666 
z
" transform="scale(0.015625)"/>
       </defs>
       <use xlink:href="#DejaVuSans-34"/>
       <use xlink:href="#DejaVuSans-30" x="63.623047"/>
      </g>
     </g>
    </g>
    <g id="xtick_6">
     <g id="line2d_6">
      <g>
       <use xlink:href="#m737fca6722" x="962.916244" y="568.197656" style="stroke: #000000; stroke-width: 0.8"/>
      </g>
     </g>
     <g id="text_6">
      <!-- 50 -->
      <g transform="translate(956.553744 582.796094)scale(0.1 -0.1)">
       <defs>
        <path id="DejaVuSans-35" d="M 691 4666 
L 3169 4666 
L 3169 4134 
L 1269 4134 
L 1269 2991 
Q 1406 3038 1543 3061 
Q 1681 3084 1819 3084 
Q 2600 3084 3056 2656 
Q 3513 2228 3513 1497 
Q 3513 744 3044 326 
Q 2575 -91 1722 -91 
Q 1428 -91 1123 -41 
Q 819 9 494 109 
L 494 744 
Q 775 591 1075 516 
Q 1375 441 1709 441 
Q 2250 441 2565 725 
Q 2881 1009 2881 1497 
Q 2881 1984 2565 2268 
Q 2250 2553 1709 2553 
Q 1456 2553 1204 2497 
Q 953 2441 691 2322 
L 691 4666 
z
" transform="scale(0.015625)"/>
       </defs>
       <use xlink:href="#DejaVuSans-35"/>
       <use xlink:href="#DejaVuSans-30" x="63.623047"/>
      </g>
     </g>
    </g>
    <g id="xtick_7">
     <g id="line2d_7">
      <g>
       <use xlink:href="#m737fca6722" x="1134.8731" y="568.197656" style="stroke: #000000; stroke-width: 0.8"/>
      </g>
     </g>
     <g id="text_7">
      <!-- 60 -->
      <g transform="translate(1128.5106 582.796094)scale(0.1 -0.1)">
       <defs>
        <path id="DejaVuSans-36" d="M 2113 2584 
Q 1688 2584 1439 2293 
Q 1191 2003 1191 1497 
Q 1191 994 1439 701 
Q 1688 409 2113 409 
Q 2538 409 2786 701 
Q 3034 994 3034 1497 
Q 3034 2003 2786 2293 
Q 2538 2584 2113 2584 
z
M 3366 4563 
L 3366 3988 
Q 3128 4100 2886 4159 
Q 2644 4219 2406 4219 
Q 1781 4219 1451 3797 
Q 1122 3375 1075 2522 
Q 1259 2794 1537 2939 
Q 1816 3084 2150 3084 
Q 2853 3084 3261 2657 
Q 3669 2231 3669 1497 
Q 3669 778 3244 343 
Q 2819 -91 2113 -91 
Q 1303 -91 875 529 
Q 447 1150 447 2328 
Q 447 3434 972 4092 
Q 1497 4750 2381 4750 
Q 2619 4750 2861 4703 
Q 3103 4656 3366 4563 
z
" transform="scale(0.015625)"/>
       </defs>
       <use xlink:href="#DejaVuSans-36"/>
       <use xlink:href="#DejaVuSans-30" x="63.623047"/>
      </g>
     </g>
    </g>
    <g id="text_8">
     <!-- time [`min`] -->
     <g transform="translate(563.582422 600.273438)scale(0.15 -0.15)">
      <defs>
       <path id="DejaVuSans-74" d="M 1172 4494 
L 1172 3500 
L 2356 3500 
L 2356 3053 
L 1172 3053 
L 1172 1153 
Q 1172 725 1289 603 
Q 1406 481 1766 481 
L 2356 481 
L 2356 0 
L 1766 0 
Q 1100 0 847 248 
Q 594 497 594 1153 
L 594 3053 
L 172 3053 
L 172 3500 
L 594 3500 
L 594 4494 
L 1172 4494 
z
" transform="scale(0.015625)"/>
       <path id="DejaVuSans-69" d="M 603 3500 
L 1178 3500 
L 1178 0 
L 603 0 
L 603 3500 
z
M 603 4863 
L 1178 4863 
L 1178 4134 
L 603 4134 
L 603 4863 
z
" transform="scale(0.015625)"/>
       <path id="DejaVuSans-6d" d="M 3328 2828 
Q 3544 3216 3844 3400 
Q 4144 3584 4550 3584 
Q 5097 3584 5394 3201 
Q 5691 2819 5691 2113 
L 5691 0 
L 5113 0 
L 5113 2094 
Q 5113 2597 4934 2840 
Q 4756 3084 4391 3084 
Q 3944 3084 3684 2787 
Q 3425 2491 3425 1978 
L 3425 0 
L 2847 0 
L 2847 2094 
Q 2847 2600 2669 2842 
Q 2491 3084 2119 3084 
Q 1678 3084 1418 2786 
Q 1159 2488 1159 1978 
L 1159 0 
L 581 0 
L 581 3500 
L 1159 3500 
L 1159 2956 
Q 1356 3278 1631 3431 
Q 1906 3584 2284 3584 
Q 2666 3584 2933 3390 
Q 3200 3197 3328 2828 
z
" transform="scale(0.015625)"/>
       <path id="DejaVuSans-65" d="M 3597 1894 
L 3597 1613 
L 953 1613 
Q 991 1019 1311 708 
Q 1631 397 2203 397 
Q 2534 397 2845 478 
Q 3156 559 3463 722 
L 3463 178 
Q 3153 47 2828 -22 
Q 2503 -91 2169 -91 
Q 1331 -91 842 396 
Q 353 884 353 1716 
Q 353 2575 817 3079 
Q 1281 3584 2069 3584 
Q 2775 3584 3186 3129 
Q 3597 2675 3597 1894 
z
M 3022 2063 
Q 3016 2534 2758 2815 
Q 2500 3097 2075 3097 
Q 1594 3097 1305 2825 
Q 1016 2553 972 2059 
L 3022 2063 
z
" transform="scale(0.015625)"/>
       <path id="DejaVuSans-20" transform="scale(0.015625)"/>
       <path id="DejaVuSans-5b" d="M 550 4863 
L 1875 4863 
L 1875 4416 
L 1125 4416 
L 1125 -397 
L 1875 -397 
L 1875 -844 
L 550 -844 
L 550 4863 
z
" transform="scale(0.015625)"/>
       <path id="DejaVuSans-60" d="M 1147 5119 
L 2028 3950 
L 1550 3950 
L 531 5119 
L 1147 5119 
z
" transform="scale(0.015625)"/>
       <path id="DejaVuSans-6e" d="M 3513 2113 
L 3513 0 
L 2938 0 
L 2938 2094 
Q 2938 2591 2744 2837 
Q 2550 3084 2163 3084 
Q 1697 3084 1428 2787 
Q 1159 2491 1159 1978 
L 1159 0 
L 581 0 
L 581 3500 
L 1159 3500 
L 1159 2956 
Q 1366 3272 1645 3428 
Q 1925 3584 2291 3584 
Q 2894 3584 3203 3211 
Q 3513 2838 3513 2113 
z
" transform="scale(0.015625)"/>
       <path id="DejaVuSans-5d" d="M 1947 4863 
L 1947 -844 
L 622 -844 
L 622 -397 
L 1369 -397 
L 1369 4416 
L 622 4416 
L 622 4863 
L 1947 4863 
z
" transform="scale(0.015625)"/>
      </defs>
      <use xlink:href="#DejaVuSans-74"/>
      <use xlink:href="#DejaVuSans-69" x="39.208984"/>
      <use xlink:href="#DejaVuSans-6d" x="66.992188"/>
      <use xlink:href="#DejaVuSans-65" x="164.404297"/>
      <use xlink:href="#DejaVuSans-20" x="225.927734"/>
      <use xlink:href="#DejaVuSans-5b" x="257.714844"/>
      <use xlink:href="#DejaVuSans-60" x="296.728516"/>
      <use xlink:href="#DejaVuSans-6d" x="346.728516"/>
      <use xlink:href="#DejaVuSans-69" x="444.140625"/>
      <use xlink:href="#DejaVuSans-6e" x="471.923828"/>
      <use xlink:href="#DejaVuSans-60" x="535.302734"/>
      <use xlink:href="#DejaVuSans-5d" x="585.302734"/>
     </g>
    </g>
   </g>
   <g id="matplotlib.axis_2">
    <g id="ytick_1">
     <g id="line2d_8">
      <defs>
       <path id="m3fef723ddb" d="M 0 0 
L -3.5 0 
" style="stroke: #000000; stroke-width: 0.8"/>
      </defs>
      <g>
       <use xlink:href="#m3fef723ddb" x="52.404688" y="488.562569" style="stroke: #000000; stroke-width: 0.8"/>
      </g>
     </g>
     <g id="text_9">
      <!-- 80 -->
      <g transform="translate(32.679688 492.361788)scale(0.1 -0.1)">
       <defs>
        <path id="DejaVuSans-38" d="M 2034 2216 
Q 1584 2216 1326 1975 
Q 1069 1734 1069 1313 
Q 1069 891 1326 650 
Q 1584 409 2034 409 
Q 2484 409 2743 651 
Q 3003 894 3003 1313 
Q 3003 1734 2745 1975 
Q 2488 2216 2034 2216 
z
M 1403 2484 
Q 997 2584 770 2862 
Q 544 3141 544 3541 
Q 544 4100 942 4425 
Q 1341 4750 2034 4750 
Q 2731 4750 3128 4425 
Q 3525 4100 3525 3541 
Q 3525 3141 3298 2862 
Q 3072 2584 2669 2484 
Q 3125 2378 3379 2068 
Q 3634 1759 3634 1313 
Q 3634 634 3220 271 
Q 2806 -91 2034 -91 
Q 1263 -91 848 271 
Q 434 634 434 1313 
Q 434 1759 690 2068 
Q 947 2378 1403 2484 
z
M 1172 3481 
Q 1172 3119 1398 2916 
Q 1625 2713 2034 2713 
Q 2441 2713 2670 2916 
Q 2900 3119 2900 3481 
Q 2900 3844 2670 4047 
Q 2441 4250 2034 4250 
Q 1625 4250 1398 4047 
Q 1172 3844 1172 3481 
z
" transform="scale(0.015625)"/>
       </defs>
       <use xlink:href="#DejaVuSans-38"/>
       <use xlink:href="#DejaVuSans-30" x="63.623047"/>
      </g>
     </g>
    </g>
    <g id="ytick_2">
     <g id="line2d_9">
      <g>
       <use xlink:href="#m3fef723ddb" x="52.404688" y="389.462977" style="stroke: #000000; stroke-width: 0.8"/>
      </g>
     </g>
     <g id="text_10">
      <!-- 85 -->
      <g transform="translate(32.679688 393.262196)scale(0.1 -0.1)">
       <use xlink:href="#DejaVuSans-38"/>
       <use xlink:href="#DejaVuSans-35" x="63.623047"/>
      </g>
     </g>
    </g>
    <g id="ytick_3">
     <g id="line2d_10">
      <g>
       <use xlink:href="#m3fef723ddb" x="52.404688" y="290.363386" style="stroke: #000000; stroke-width: 0.8"/>
      </g>
     </g>
     <g id="text_11">
      <!-- 90 -->
      <g transform="translate(32.679688 294.162604)scale(0.1 -0.1)">
       <defs>
        <path id="DejaVuSans-39" d="M 703 97 
L 703 672 
Q 941 559 1184 500 
Q 1428 441 1663 441 
Q 2288 441 2617 861 
Q 2947 1281 2994 2138 
Q 2813 1869 2534 1725 
Q 2256 1581 1919 1581 
Q 1219 1581 811 2004 
Q 403 2428 403 3163 
Q 403 3881 828 4315 
Q 1253 4750 1959 4750 
Q 2769 4750 3195 4129 
Q 3622 3509 3622 2328 
Q 3622 1225 3098 567 
Q 2575 -91 1691 -91 
Q 1453 -91 1209 -44 
Q 966 3 703 97 
z
M 1959 2075 
Q 2384 2075 2632 2365 
Q 2881 2656 2881 3163 
Q 2881 3666 2632 3958 
Q 2384 4250 1959 4250 
Q 1534 4250 1286 3958 
Q 1038 3666 1038 3163 
Q 1038 2656 1286 2365 
Q 1534 2075 1959 2075 
z
" transform="scale(0.015625)"/>
       </defs>
       <use xlink:href="#DejaVuSans-39"/>
       <use xlink:href="#DejaVuSans-30" x="63.623047"/>
      </g>
     </g>
    </g>
    <g id="ytick_4">
     <g id="line2d_11">
      <g>
       <use xlink:href="#m3fef723ddb" x="52.404688" y="191.263794" style="stroke: #000000; stroke-width: 0.8"/>
      </g>
     </g>
     <g id="text_12">
      <!-- 95 -->
      <g transform="translate(32.679688 195.063013)scale(0.1 -0.1)">
       <use xlink:href="#DejaVuSans-39"/>
       <use xlink:href="#DejaVuSans-35" x="63.623047"/>
      </g>
     </g>
    </g>
    <g id="ytick_5">
     <g id="line2d_12">
      <g>
       <use xlink:href="#m3fef723ddb" x="52.404688" y="92.164202" style="stroke: #000000; stroke-width: 0.8"/>
      </g>
     </g>
     <g id="text_13">
      <!-- 100 -->
      <g transform="translate(26.317188 95.963421)scale(0.1 -0.1)">
       <use xlink:href="#DejaVuSans-31"/>
       <use xlink:href="#DejaVuSans-30" x="63.623047"/>
       <use xlink:href="#DejaVuSans-30" x="127.246094"/>
      </g>
     </g>
    </g>
    <g id="text_14">
     <!-- consumption [`kw`] -->
     <g transform="translate(19.197656 371.169141)rotate(-90)scale(0.15 -0.15)">
      <defs>
       <path id="DejaVuSans-63" d="M 3122 3366 
L 3122 2828 
Q 2878 2963 2633 3030 
Q 2388 3097 2138 3097 
Q 1578 3097 1268 2742 
Q 959 2388 959 1747 
Q 959 1106 1268 751 
Q 1578 397 2138 397 
Q 2388 397 2633 464 
Q 2878 531 3122 666 
L 3122 134 
Q 2881 22 2623 -34 
Q 2366 -91 2075 -91 
Q 1284 -91 818 406 
Q 353 903 353 1747 
Q 353 2603 823 3093 
Q 1294 3584 2113 3584 
Q 2378 3584 2631 3529 
Q 2884 3475 3122 3366 
z
" transform="scale(0.015625)"/>
       <path id="DejaVuSans-6f" d="M 1959 3097 
Q 1497 3097 1228 2736 
Q 959 2375 959 1747 
Q 959 1119 1226 758 
Q 1494 397 1959 397 
Q 2419 397 2687 759 
Q 2956 1122 2956 1747 
Q 2956 2369 2687 2733 
Q 2419 3097 1959 3097 
z
M 1959 3584 
Q 2709 3584 3137 3096 
Q 3566 2609 3566 1747 
Q 3566 888 3137 398 
Q 2709 -91 1959 -91 
Q 1206 -91 779 398 
Q 353 888 353 1747 
Q 353 2609 779 3096 
Q 1206 3584 1959 3584 
z
" transform="scale(0.015625)"/>
       <path id="DejaVuSans-73" d="M 2834 3397 
L 2834 2853 
Q 2591 2978 2328 3040 
Q 2066 3103 1784 3103 
Q 1356 3103 1142 2972 
Q 928 2841 928 2578 
Q 928 2378 1081 2264 
Q 1234 2150 1697 2047 
L 1894 2003 
Q 2506 1872 2764 1633 
Q 3022 1394 3022 966 
Q 3022 478 2636 193 
Q 2250 -91 1575 -91 
Q 1294 -91 989 -36 
Q 684 19 347 128 
L 347 722 
Q 666 556 975 473 
Q 1284 391 1588 391 
Q 1994 391 2212 530 
Q 2431 669 2431 922 
Q 2431 1156 2273 1281 
Q 2116 1406 1581 1522 
L 1381 1569 
Q 847 1681 609 1914 
Q 372 2147 372 2553 
Q 372 3047 722 3315 
Q 1072 3584 1716 3584 
Q 2034 3584 2315 3537 
Q 2597 3491 2834 3397 
z
" transform="scale(0.015625)"/>
       <path id="DejaVuSans-75" d="M 544 1381 
L 544 3500 
L 1119 3500 
L 1119 1403 
Q 1119 906 1312 657 
Q 1506 409 1894 409 
Q 2359 409 2629 706 
Q 2900 1003 2900 1516 
L 2900 3500 
L 3475 3500 
L 3475 0 
L 2900 0 
L 2900 538 
Q 2691 219 2414 64 
Q 2138 -91 1772 -91 
Q 1169 -91 856 284 
Q 544 659 544 1381 
z
M 1991 3584 
L 1991 3584 
z
" transform="scale(0.015625)"/>
       <path id="DejaVuSans-70" d="M 1159 525 
L 1159 -1331 
L 581 -1331 
L 581 3500 
L 1159 3500 
L 1159 2969 
Q 1341 3281 1617 3432 
Q 1894 3584 2278 3584 
Q 2916 3584 3314 3078 
Q 3713 2572 3713 1747 
Q 3713 922 3314 415 
Q 2916 -91 2278 -91 
Q 1894 -91 1617 61 
Q 1341 213 1159 525 
z
M 3116 1747 
Q 3116 2381 2855 2742 
Q 2594 3103 2138 3103 
Q 1681 3103 1420 2742 
Q 1159 2381 1159 1747 
Q 1159 1113 1420 752 
Q 1681 391 2138 391 
Q 2594 391 2855 752 
Q 3116 1113 3116 1747 
z
" transform="scale(0.015625)"/>
       <path id="DejaVuSans-6b" d="M 581 4863 
L 1159 4863 
L 1159 1991 
L 2875 3500 
L 3609 3500 
L 1753 1863 
L 3688 0 
L 2938 0 
L 1159 1709 
L 1159 0 
L 581 0 
L 581 4863 
z
" transform="scale(0.015625)"/>
       <path id="DejaVuSans-77" d="M 269 3500 
L 844 3500 
L 1563 769 
L 2278 3500 
L 2956 3500 
L 3675 769 
L 4391 3500 
L 4966 3500 
L 4050 0 
L 3372 0 
L 2619 2869 
L 1863 0 
L 1184 0 
L 269 3500 
z
" transform="scale(0.015625)"/>
      </defs>
      <use xlink:href="#DejaVuSans-63"/>
      <use xlink:href="#DejaVuSans-6f" x="54.980469"/>
      <use xlink:href="#DejaVuSans-6e" x="116.162109"/>
      <use xlink:href="#DejaVuSans-73" x="179.541016"/>
      <use xlink:href="#DejaVuSans-75" x="231.640625"/>
      <use xlink:href="#DejaVuSans-6d" x="295.019531"/>
      <use xlink:href="#DejaVuSans-70" x="392.431641"/>
      <use xlink:href="#DejaVuSans-74" x="455.908203"/>
      <use xlink:href="#DejaVuSans-69" x="495.117188"/>
      <use xlink:href="#DejaVuSans-6f" x="522.900391"/>
      <use xlink:href="#DejaVuSans-6e" x="584.082031"/>
      <use xlink:href="#DejaVuSans-20" x="647.460938"/>
      <use xlink:href="#DejaVuSans-5b" x="679.248047"/>
      <use xlink:href="#DejaVuSans-60" x="718.261719"/>
      <use xlink:href="#DejaVuSans-6b" x="768.261719"/>
      <use xlink:href="#DejaVuSans-77" x="826.171875"/>
      <use xlink:href="#DejaVuSans-60" x="907.958984"/>
      <use xlink:href="#DejaVuSans-5d" x="957.958984"/>
     </g>
    </g>
   </g>
   <g id="line2d_13">
    <path d="M 103.13196 401.85957 
L 120.327646 396.838605 
L 137.523332 389.454732 
L 154.719017 384.729129 
L 171.914703 382.661585 
L 189.110389 374.982349 
L 206.306074 368.484566 
L 223.50176 395.657151 
L 240.697446 431.099699 
L 257.893131 425.488006 
L 275.088817 425.488006 
L 292.284503 420.467041 
L 309.480188 416.036589 
L 326.675874 405.994658 
L 343.87156 395.066424 
L 361.067245 387.092037 
L 378.262931 380.594041 
L 395.458617 373.800895 
L 412.654302 365.531145 
L 429.849988 354.602911 
L 447.045674 346.923674 
L 464.241359 344.856343 
L 481.437045 340.721255 
L 498.632731 274.857231 
L 515.828416 108.86809 
L 533.024102 109.163453 
L 550.219788 109.458816 
L 567.415473 107.391379 
L 584.611159 139.585035 
L 601.806845 322.113997 
L 619.00253 317.979122 
L 636.198216 314.139397 
L 653.393902 309.118432 
L 670.589587 303.211376 
L 687.785273 297.894834 
L 704.980959 295.532139 
L 722.176644 292.283142 
L 739.37233 288.148266 
L 756.568016 283.717921 
L 773.763701 278.992213 
L 790.959387 274.857231 
L 808.155073 271.313083 
L 825.350758 269.540902 
L 842.546444 267.178101 
L 859.74213 265.110557 
L 876.937815 263.043119 
L 894.133501 259.794228 
L 911.329187 257.136064 
L 928.524872 254.773156 
L 945.720558 252.114992 
L 962.916244 159.66911 
L 980.111929 160.555094 
L 997.307615 163.508728 
L 1014.503301 162.327275 
L 1031.698986 161.441185 
L 1048.894672 160.555094 
L 1066.090358 158.78302 
L 1083.286043 158.487657 
L 1100.481729 157.010946 
L 1117.677415 156.420219 
" clip-path="url(#pf267db6b16)" style="fill: none; stroke: #1f77b4; stroke-width: 1.5; stroke-linecap: square"/>
    <defs>
     <path id="m66d161a0c9" d="M 0 -3 
L -3 3 
L 3 3 
z
" style="stroke: #1f77b4; stroke-linejoin: miter"/>
    </defs>
    <g clip-path="url(#pf267db6b16)">
     <use xlink:href="#m66d161a0c9" x="103.13196" y="401.85957" style="fill: #1f77b4; stroke: #1f77b4; stroke-linejoin: miter"/>
     <use xlink:href="#m66d161a0c9" x="120.327646" y="396.838605" style="fill: #1f77b4; stroke: #1f77b4; stroke-linejoin: miter"/>
     <use xlink:href="#m66d161a0c9" x="137.523332" y="389.454732" style="fill: #1f77b4; stroke: #1f77b4; stroke-linejoin: miter"/>
     <use xlink:href="#m66d161a0c9" x="154.719017" y="384.729129" style="fill: #1f77b4; stroke: #1f77b4; stroke-linejoin: miter"/>
     <use xlink:href="#m66d161a0c9" x="171.914703" y="382.661585" style="fill: #1f77b4; stroke: #1f77b4; stroke-linejoin: miter"/>
     <use xlink:href="#m66d161a0c9" x="189.110389" y="374.982349" style="fill: #1f77b4; stroke: #1f77b4; stroke-linejoin: miter"/>
     <use xlink:href="#m66d161a0c9" x="206.306074" y="368.484566" style="fill: #1f77b4; stroke: #1f77b4; stroke-linejoin: miter"/>
     <use xlink:href="#m66d161a0c9" x="223.50176" y="395.657151" style="fill: #1f77b4; stroke: #1f77b4; stroke-linejoin: miter"/>
     <use xlink:href="#m66d161a0c9" x="240.697446" y="431.099699" style="fill: #1f77b4; stroke: #1f77b4; stroke-linejoin: miter"/>
     <use xlink:href="#m66d161a0c9" x="257.893131" y="425.488006" style="fill: #1f77b4; stroke: #1f77b4; stroke-linejoin: miter"/>
     <use xlink:href="#m66d161a0c9" x="275.088817" y="425.488006" style="fill: #1f77b4; stroke: #1f77b4; stroke-linejoin: miter"/>
     <use xlink:href="#m66d161a0c9" x="292.284503" y="420.467041" style="fill: #1f77b4; stroke: #1f77b4; stroke-linejoin: miter"/>
     <use xlink:href="#m66d161a0c9" x="309.480188" y="416.036589" style="fill: #1f77b4; stroke: #1f77b4; stroke-linejoin: miter"/>
     <use xlink:href="#m66d161a0c9" x="326.675874" y="405.994658" style="fill: #1f77b4; stroke: #1f77b4; stroke-linejoin: miter"/>
     <use xlink:href="#m66d161a0c9" x="343.87156" y="395.066424" style="fill: #1f77b4; stroke: #1f77b4; stroke-linejoin: miter"/>
     <use xlink:href="#m66d161a0c9" x="361.067245" y="387.092037" style="fill: #1f77b4; stroke: #1f77b4; stroke-linejoin: miter"/>
     <use xlink:href="#m66d161a0c9" x="378.262931" y="380.594041" style="fill: #1f77b4; stroke: #1f77b4; stroke-linejoin: miter"/>
     <use xlink:href="#m66d161a0c9" x="395.458617" y="373.800895" style="fill: #1f77b4; stroke: #1f77b4; stroke-linejoin: miter"/>
     <use xlink:href="#m66d161a0c9" x="412.654302" y="365.531145" style="fill: #1f77b4; stroke: #1f77b4; stroke-linejoin: miter"/>
     <use xlink:href="#m66d161a0c9" x="429.849988" y="354.602911" style="fill: #1f77b4; stroke: #1f77b4; stroke-linejoin: miter"/>
     <use xlink:href="#m66d161a0c9" x="447.045674" y="346.923674" style="fill: #1f77b4; stroke: #1f77b4; stroke-linejoin: miter"/>
     <use xlink:href="#m66d161a0c9" x="464.241359" y="344.856343" style="fill: #1f77b4; stroke: #1f77b4; stroke-linejoin: miter"/>
     <use xlink:href="#m66d161a0c9" x="481.437045" y="340.721255" style="fill: #1f77b4; stroke: #1f77b4; stroke-linejoin: miter"/>
     <use xlink:href="#m66d161a0c9" x="498.632731" y="274.857231" style="fill: #1f77b4; stroke: #1f77b4; stroke-linejoin: miter"/>
     <use xlink:href="#m66d161a0c9" x="515.828416" y="108.86809" style="fill: #1f77b4; stroke: #1f77b4; stroke-linejoin: miter"/>
     <use xlink:href="#m66d161a0c9" x="533.024102" y="109.163453" style="fill: #1f77b4; stroke: #1f77b4; stroke-linejoin: miter"/>
     <use xlink:href="#m66d161a0c9" x="550.219788" y="109.458816" style="fill: #1f77b4; stroke: #1f77b4; stroke-linejoin: miter"/>
     <use xlink:href="#m66d161a0c9" x="567.415473" y="107.391379" style="fill: #1f77b4; stroke: #1f77b4; stroke-linejoin: miter"/>
     <use xlink:href="#m66d161a0c9" x="584.611159" y="139.585035" style="fill: #1f77b4; stroke: #1f77b4; stroke-linejoin: miter"/>
     <use xlink:href="#m66d161a0c9" x="601.806845" y="322.113997" style="fill: #1f77b4; stroke: #1f77b4; stroke-linejoin: miter"/>
     <use xlink:href="#m66d161a0c9" x="619.00253" y="317.979122" style="fill: #1f77b4; stroke: #1f77b4; stroke-linejoin: miter"/>
     <use xlink:href="#m66d161a0c9" x="636.198216" y="314.139397" style="fill: #1f77b4; stroke: #1f77b4; stroke-linejoin: miter"/>
     <use xlink:href="#m66d161a0c9" x="653.393902" y="309.118432" style="fill: #1f77b4; stroke: #1f77b4; stroke-linejoin: miter"/>
     <use xlink:href="#m66d161a0c9" x="670.589587" y="303.211376" style="fill: #1f77b4; stroke: #1f77b4; stroke-linejoin: miter"/>
     <use xlink:href="#m66d161a0c9" x="687.785273" y="297.894834" style="fill: #1f77b4; stroke: #1f77b4; stroke-linejoin: miter"/>
     <use xlink:href="#m66d161a0c9" x="704.980959" y="295.532139" style="fill: #1f77b4; stroke: #1f77b4; stroke-linejoin: miter"/>
     <use xlink:href="#m66d161a0c9" x="722.176644" y="292.283142" style="fill: #1f77b4; stroke: #1f77b4; stroke-linejoin: miter"/>
     <use xlink:href="#m66d161a0c9" x="739.37233" y="288.148266" style="fill: #1f77b4; stroke: #1f77b4; stroke-linejoin: miter"/>
     <use xlink:href="#m66d161a0c9" x="756.568016" y="283.717921" style="fill: #1f77b4; stroke: #1f77b4; stroke-linejoin: miter"/>
     <use xlink:href="#m66d161a0c9" x="773.763701" y="278.992213" style="fill: #1f77b4; stroke: #1f77b4; stroke-linejoin: miter"/>
     <use xlink:href="#m66d161a0c9" x="790.959387" y="274.857231" style="fill: #1f77b4; stroke: #1f77b4; stroke-linejoin: miter"/>
     <use xlink:href="#m66d161a0c9" x="808.155073" y="271.313083" style="fill: #1f77b4; stroke: #1f77b4; stroke-linejoin: miter"/>
     <use xlink:href="#m66d161a0c9" x="825.350758" y="269.540902" style="fill: #1f77b4; stroke: #1f77b4; stroke-linejoin: miter"/>
     <use xlink:href="#m66d161a0c9" x="842.546444" y="267.178101" style="fill: #1f77b4; stroke: #1f77b4; stroke-linejoin: miter"/>
     <use xlink:href="#m66d161a0c9" x="859.74213" y="265.110557" style="fill: #1f77b4; stroke: #1f77b4; stroke-linejoin: miter"/>
     <use xlink:href="#m66d161a0c9" x="876.937815" y="263.043119" style="fill: #1f77b4; stroke: #1f77b4; stroke-linejoin: miter"/>
     <use xlink:href="#m66d161a0c9" x="894.133501" y="259.794228" style="fill: #1f77b4; stroke: #1f77b4; stroke-linejoin: miter"/>
     <use xlink:href="#m66d161a0c9" x="911.329187" y="257.136064" style="fill: #1f77b4; stroke: #1f77b4; stroke-linejoin: miter"/>
     <use xlink:href="#m66d161a0c9" x="928.524872" y="254.773156" style="fill: #1f77b4; stroke: #1f77b4; stroke-linejoin: miter"/>
     <use xlink:href="#m66d161a0c9" x="945.720558" y="252.114992" style="fill: #1f77b4; stroke: #1f77b4; stroke-linejoin: miter"/>
     <use xlink:href="#m66d161a0c9" x="962.916244" y="159.66911" style="fill: #1f77b4; stroke: #1f77b4; stroke-linejoin: miter"/>
     <use xlink:href="#m66d161a0c9" x="980.111929" y="160.555094" style="fill: #1f77b4; stroke: #1f77b4; stroke-linejoin: miter"/>
     <use xlink:href="#m66d161a0c9" x="997.307615" y="163.508728" style="fill: #1f77b4; stroke: #1f77b4; stroke-linejoin: miter"/>
     <use xlink:href="#m66d161a0c9" x="1014.503301" y="162.327275" style="fill: #1f77b4; stroke: #1f77b4; stroke-linejoin: miter"/>
     <use xlink:href="#m66d161a0c9" x="1031.698986" y="161.441185" style="fill: #1f77b4; stroke: #1f77b4; stroke-linejoin: miter"/>
     <use xlink:href="#m66d161a0c9" x="1048.894672" y="160.555094" style="fill: #1f77b4; stroke: #1f77b4; stroke-linejoin: miter"/>
     <use xlink:href="#m66d161a0c9" x="1066.090358" y="158.78302" style="fill: #1f77b4; stroke: #1f77b4; stroke-linejoin: miter"/>
     <use xlink:href="#m66d161a0c9" x="1083.286043" y="158.487657" style="fill: #1f77b4; stroke: #1f77b4; stroke-linejoin: miter"/>
     <use xlink:href="#m66d161a0c9" x="1100.481729" y="157.010946" style="fill: #1f77b4; stroke: #1f77b4; stroke-linejoin: miter"/>
     <use xlink:href="#m66d161a0c9" x="1117.677415" y="156.420219" style="fill: #1f77b4; stroke: #1f77b4; stroke-linejoin: miter"/>
    </g>
   </g>
   <g id="line2d_14">
    <path d="M 103.13196 410.718471 
L 120.327646 409.029372 
L 137.523332 390.817434 
L 154.719017 389.192724 
L 171.914703 382.031865 
L 189.110389 383.518055 
L 206.306074 379.686396 
L 223.50176 366.766001 
L 240.697446 395.346952 
L 257.893131 424.845053 
L 275.088817 410.863642 
L 292.284503 407.261211 
L 309.480188 401.237178 
L 326.675874 392.664782 
L 343.87156 385.828202 
L 361.067245 372.434835 
L 378.262931 364.884094 
L 395.458617 358.236434 
L 412.654302 350.098138 
L 429.849988 342.236134 
L 447.045674 330.86712 
L 464.241359 323.517698 
L 481.437045 321.635926 
L 498.632731 316.264101 
L 515.828416 245.302355 
L 533.024102 66.030307 
L 550.219788 117.720215 
L 567.415473 124.960824 
L 584.611159 118.090264 
L 601.806845 174.25927 
L 619.00253 325.777419 
L 636.198216 314.602168 
L 653.393902 278.842138 
L 670.589587 292.623506 
L 687.785273 269.470088 
L 704.980959 277.569415 
L 722.176644 273.452741 
L 739.37233 261.160836 
L 756.568016 263.849094 
L 773.763701 252.261051 
L 790.959387 249.796729 
L 808.155073 246.762961 
L 825.350758 239.483829 
L 842.546444 238.869815 
L 859.74213 216.776642 
L 876.937815 233.568396 
L 894.133501 235.812075 
L 911.329187 233.418693 
L 928.524872 238.877875 
L 945.720558 229.147401 
L 962.916244 233.508477 
L 980.111929 142.099781 
L 997.307615 151.756668 
L 1014.503301 172.076009 
L 1031.698986 156.201336 
L 1048.894672 167.239855 
L 1066.090358 161.441961 
L 1083.286043 156.461079 
L 1100.481729 161.620926 
L 1117.677415 156.22364 
" clip-path="url(#pf267db6b16)" style="fill: none; stroke: #ffc300; stroke-width: 1.5; stroke-linecap: square"/>
   </g>
   <g id="line2d_15">
    <path d="M 103.13196 411.276964 
L 120.327646 411.135343 
L 137.523332 386.03413 
L 154.719017 386.262935 
L 171.914703 378.157984 
L 189.110389 381.559023 
L 206.306074 379.561864 
L 223.50176 364.674399 
L 240.697446 397.253474 
L 257.893131 427.242537 
L 275.088817 410.729617 
L 292.284503 404.337093 
L 309.480188 399.364185 
L 326.675874 390.310201 
L 343.87156 383.272088 
L 361.067245 368.90135 
L 378.262931 361.339919 
L 395.458617 355.369282 
L 412.654302 347.051261 
L 429.849988 338.866781 
L 447.045674 327.262337 
L 464.241359 320.799853 
L 481.437045 320.097913 
L 498.632731 313.764505 
L 515.828416 237.980289 
L 533.024102 49.306747 
L 550.219788 114.563032 
L 567.415473 119.258652 
L 584.611159 110.093242 
L 601.806845 174.674061 
L 619.00253 325.66495 
L 636.198216 312.518194 
L 653.393902 266.263304 
L 670.589587 288.845953 
L 687.785273 263.108933 
L 704.980959 274.226846 
L 722.176644 269.916964 
L 739.37233 253.657941 
L 756.568016 259.091863 
L 773.763701 244.094461 
L 790.959387 242.812426 
L 808.155073 240.102483 
L 825.350758 231.015113 
L 842.546444 233.055864 
L 859.74213 210.570818 
L 876.937815 235.465341 
L 894.133501 241.896353 
L 911.329187 235.690744 
L 928.524872 243.482895 
L 945.720558 229.090254 
L 962.916244 239.294645 
L 980.111929 144.670539 
L 997.307615 151.389897 
L 1014.503301 178.683264 
L 1031.698986 154.893005 
L 1048.894672 167.656362 
L 1066.090358 161.356127 
L 1083.286043 154.611995 
L 1100.481729 162.755116 
L 1117.677415 154.038386 
" clip-path="url(#pf267db6b16)" style="fill: none; stroke: #7fff00; stroke-width: 1.5; stroke-linecap: square"/>
    <defs>
     <path id="ma3408b563f" d="M 0 2.5 
C 0.663008 2.5 1.29895 2.236584 1.767767 1.767767 
C 2.236584 1.29895 2.5 0.663008 2.5 0 
C 2.5 -0.663008 2.236584 -1.29895 1.767767 -1.767767 
C 1.29895 -2.236584 0.663008 -2.5 0 -2.5 
C -0.663008 -2.5 -1.29895 -2.236584 -1.767767 -1.767767 
C -2.236584 -1.29895 -2.5 -0.663008 -2.5 0 
C -2.5 0.663008 -2.236584 1.29895 -1.767767 1.767767 
C -1.29895 2.236584 -0.663008 2.5 0 2.5 
z
" style="stroke: #7fff00"/>
    </defs>
    <g clip-path="url(#pf267db6b16)">
     <use xlink:href="#ma3408b563f" x="103.13196" y="411.276964" style="fill: #7fff00; stroke: #7fff00"/>
     <use xlink:href="#ma3408b563f" x="120.327646" y="411.135343" style="fill: #7fff00; stroke: #7fff00"/>
     <use xlink:href="#ma3408b563f" x="137.523332" y="386.03413" style="fill: #7fff00; stroke: #7fff00"/>
     <use xlink:href="#ma3408b563f" x="154.719017" y="386.262935" style="fill: #7fff00; stroke: #7fff00"/>
     <use xlink:href="#ma3408b563f" x="171.914703" y="378.157984" style="fill: #7fff00; stroke: #7fff00"/>
     <use xlink:href="#ma3408b563f" x="189.110389" y="381.559023" style="fill: #7fff00; stroke: #7fff00"/>
     <use xlink:href="#ma3408b563f" x="206.306074" y="379.561864" style="fill: #7fff00; stroke: #7fff00"/>
     <use xlink:href="#ma3408b563f" x="223.50176" y="364.674399" style="fill: #7fff00; stroke: #7fff00"/>
     <use xlink:href="#ma3408b563f" x="240.697446" y="397.253474" style="fill: #7fff00; stroke: #7fff00"/>
     <use xlink:href="#ma3408b563f" x="257.893131" y="427.242537" style="fill: #7fff00; stroke: #7fff00"/>
     <use xlink:href="#ma3408b563f" x="275.088817" y="410.729617" style="fill: #7fff00; stroke: #7fff00"/>
     <use xlink:href="#ma3408b563f" x="292.284503" y="404.337093" style="fill: #7fff00; stroke: #7fff00"/>
     <use xlink:href="#ma3408b563f" x="309.480188" y="399.364185" style="fill: #7fff00; stroke: #7fff00"/>
     <use xlink:href="#ma3408b563f" x="326.675874" y="390.310201" style="fill: #7fff00; stroke: #7fff00"/>
     <use xlink:href="#ma3408b563f" x="343.87156" y="383.272088" style="fill: #7fff00; stroke: #7fff00"/>
     <use xlink:href="#ma3408b563f" x="361.067245" y="368.90135" style="fill: #7fff00; stroke: #7fff00"/>
     <use xlink:href="#ma3408b563f" x="378.262931" y="361.339919" style="fill: #7fff00; stroke: #7fff00"/>
     <use xlink:href="#ma3408b563f" x="395.458617" y="355.369282" style="fill: #7fff00; stroke: #7fff00"/>
     <use xlink:href="#ma3408b563f" x="412.654302" y="347.051261" style="fill: #7fff00; stroke: #7fff00"/>
     <use xlink:href="#ma3408b563f" x="429.849988" y="338.866781" style="fill: #7fff00; stroke: #7fff00"/>
     <use xlink:href="#ma3408b563f" x="447.045674" y="327.262337" style="fill: #7fff00; stroke: #7fff00"/>
     <use xlink:href="#ma3408b563f" x="464.241359" y="320.799853" style="fill: #7fff00; stroke: #7fff00"/>
     <use xlink:href="#ma3408b563f" x="481.437045" y="320.097913" style="fill: #7fff00; stroke: #7fff00"/>
     <use xlink:href="#ma3408b563f" x="498.632731" y="313.764505" style="fill: #7fff00; stroke: #7fff00"/>
     <use xlink:href="#ma3408b563f" x="515.828416" y="237.980289" style="fill: #7fff00; stroke: #7fff00"/>
     <use xlink:href="#ma3408b563f" x="533.024102" y="49.306747" style="fill: #7fff00; stroke: #7fff00"/>
     <use xlink:href="#ma3408b563f" x="550.219788" y="114.563032" style="fill: #7fff00; stroke: #7fff00"/>
     <use xlink:href="#ma3408b563f" x="567.415473" y="119.258652" style="fill: #7fff00; stroke: #7fff00"/>
     <use xlink:href="#ma3408b563f" x="584.611159" y="110.093242" style="fill: #7fff00; stroke: #7fff00"/>
     <use xlink:href="#ma3408b563f" x="601.806845" y="174.674061" style="fill: #7fff00; stroke: #7fff00"/>
     <use xlink:href="#ma3408b563f" x="619.00253" y="325.66495" style="fill: #7fff00; stroke: #7fff00"/>
     <use xlink:href="#ma3408b563f" x="636.198216" y="312.518194" style="fill: #7fff00; stroke: #7fff00"/>
     <use xlink:href="#ma3408b563f" x="653.393902" y="266.263304" style="fill: #7fff00; stroke: #7fff00"/>
     <use xlink:href="#ma3408b563f" x="670.589587" y="288.845953" style="fill: #7fff00; stroke: #7fff00"/>
     <use xlink:href="#ma3408b563f" x="687.785273" y="263.108933" style="fill: #7fff00; stroke: #7fff00"/>
     <use xlink:href="#ma3408b563f" x="704.980959" y="274.226846" style="fill: #7fff00; stroke: #7fff00"/>
     <use xlink:href="#ma3408b563f" x="722.176644" y="269.916964" style="fill: #7fff00; stroke: #7fff00"/>
     <use xlink:href="#ma3408b563f" x="739.37233" y="253.657941" style="fill: #7fff00; stroke: #7fff00"/>
     <use xlink:href="#ma3408b563f" x="756.568016" y="259.091863" style="fill: #7fff00; stroke: #7fff00"/>
     <use xlink:href="#ma3408b563f" x="773.763701" y="244.094461" style="fill: #7fff00; stroke: #7fff00"/>
     <use xlink:href="#ma3408b563f" x="790.959387" y="242.812426" style="fill: #7fff00; stroke: #7fff00"/>
     <use xlink:href="#ma3408b563f" x="808.155073" y="240.102483" style="fill: #7fff00; stroke: #7fff00"/>
     <use xlink:href="#ma3408b563f" x="825.350758" y="231.015113" style="fill: #7fff00; stroke: #7fff00"/>
     <use xlink:href="#ma3408b563f" x="842.546444" y="233.055864" style="fill: #7fff00; stroke: #7fff00"/>
     <use xlink:href="#ma3408b563f" x="859.74213" y="210.570818" style="fill: #7fff00; stroke: #7fff00"/>
     <use xlink:href="#ma3408b563f" x="876.937815" y="235.465341" style="fill: #7fff00; stroke: #7fff00"/>
     <use xlink:href="#ma3408b563f" x="894.133501" y="241.896353" style="fill: #7fff00; stroke: #7fff00"/>
     <use xlink:href="#ma3408b563f" x="911.329187" y="235.690744" style="fill: #7fff00; stroke: #7fff00"/>
     <use xlink:href="#ma3408b563f" x="928.524872" y="243.482895" style="fill: #7fff00; stroke: #7fff00"/>
     <use xlink:href="#ma3408b563f" x="945.720558" y="229.090254" style="fill: #7fff00; stroke: #7fff00"/>
     <use xlink:href="#ma3408b563f" x="962.916244" y="239.294645" style="fill: #7fff00; stroke: #7fff00"/>
     <use xlink:href="#ma3408b563f" x="980.111929" y="144.670539" style="fill: #7fff00; stroke: #7fff00"/>
     <use xlink:href="#ma3408b563f" x="997.307615" y="151.389897" style="fill: #7fff00; stroke: #7fff00"/>
     <use xlink:href="#ma3408b563f" x="1014.503301" y="178.683264" style="fill: #7fff00; stroke: #7fff00"/>
     <use xlink:href="#ma3408b563f" x="1031.698986" y="154.893005" style="fill: #7fff00; stroke: #7fff00"/>
     <use xlink:href="#ma3408b563f" x="1048.894672" y="167.656362" style="fill: #7fff00; stroke: #7fff00"/>
     <use xlink:href="#ma3408b563f" x="1066.090358" y="161.356127" style="fill: #7fff00; stroke: #7fff00"/>
     <use xlink:href="#ma3408b563f" x="1083.286043" y="154.611995" style="fill: #7fff00; stroke: #7fff00"/>
     <use xlink:href="#ma3408b563f" x="1100.481729" y="162.755116" style="fill: #7fff00; stroke: #7fff00"/>
     <use xlink:href="#ma3408b563f" x="1117.677415" y="154.038386" style="fill: #7fff00; stroke: #7fff00"/>
    </g>
   </g>
   <g id="line2d_16">
    <path d="M 103.13196 437.67616 
L 120.327646 437.031209 
L 137.523332 425.487368 
L 154.719017 420.779416 
L 171.914703 415.374201 
L 189.110389 412.742936 
L 206.306074 403.480348 
L 223.50176 397.727672 
L 240.697446 423.393456 
L 257.893131 453.924338 
L 275.088817 443.735469 
L 292.284503 442.989087 
L 309.480188 434.405898 
L 326.675874 427.606372 
L 343.87156 417.12852 
L 361.067245 405.451351 
L 378.262931 397.91969 
L 395.458617 390.212384 
L 412.654302 383.103036 
L 429.849988 374.185782 
L 447.045674 362.566453 
L 464.241359 355.838163 
L 481.437045 353.680883 
L 498.632731 348.125754 
L 515.828416 279.711271 
L 533.024102 103.142632 
L 550.219788 145.160153 
L 567.415473 152.024535 
L 584.611159 148.29698 
L 601.806845 200.303377 
L 619.00253 368.470106 
L 636.198216 347.289423 
L 653.393902 329.96505 
L 670.589587 326.367315 
L 687.785273 303.178203 
L 704.980959 305.124114 
L 722.176644 299.937499 
L 739.37233 295.091752 
L 756.568016 290.33436 
L 773.763701 283.990213 
L 790.959387 278.583616 
L 808.155073 273.899799 
L 825.350758 270.168417 
L 842.546444 267.985407 
L 859.74213 249.97047 
L 876.937815 253.96904 
L 894.133501 244.774605 
L 911.329187 257.507554 
L 928.524872 258.727496 
L 945.720558 253.589363 
L 962.916244 254.842904 
L 980.111929 157.217743 
L 997.307615 177.400804 
L 1014.503301 183.24279 
L 1031.698986 178.116034 
L 1048.894672 188.997061 
L 1066.090358 184.531736 
L 1083.286043 185.43824 
L 1100.481729 185.755081 
L 1117.677415 184.227122 
" clip-path="url(#pf267db6b16)" style="fill: none; stroke: #6c3483; stroke-width: 1.5; stroke-linecap: square"/>
    <defs>
     <path id="m689c3d6461" d="M 0 2.5 
C 0.663008 2.5 1.29895 2.236584 1.767767 1.767767 
C 2.236584 1.29895 2.5 0.663008 2.5 0 
C 2.5 -0.663008 2.236584 -1.29895 1.767767 -1.767767 
C 1.29895 -2.236584 0.663008 -2.5 0 -2.5 
C -0.663008 -2.5 -1.29895 -2.236584 -1.767767 -1.767767 
C -2.236584 -1.29895 -2.5 -0.663008 -2.5 0 
C -2.5 0.663008 -2.236584 1.29895 -1.767767 1.767767 
C -1.29895 2.236584 -0.663008 2.5 0 2.5 
z
" style="stroke: #6c3483"/>
    </defs>
    <g clip-path="url(#pf267db6b16)">
     <use xlink:href="#m689c3d6461" x="103.13196" y="437.67616" style="fill: #6c3483; stroke: #6c3483"/>
     <use xlink:href="#m689c3d6461" x="120.327646" y="437.031209" style="fill: #6c3483; stroke: #6c3483"/>
     <use xlink:href="#m689c3d6461" x="137.523332" y="425.487368" style="fill: #6c3483; stroke: #6c3483"/>
     <use xlink:href="#m689c3d6461" x="154.719017" y="420.779416" style="fill: #6c3483; stroke: #6c3483"/>
     <use xlink:href="#m689c3d6461" x="171.914703" y="415.374201" style="fill: #6c3483; stroke: #6c3483"/>
     <use xlink:href="#m689c3d6461" x="189.110389" y="412.742936" style="fill: #6c3483; stroke: #6c3483"/>
     <use xlink:href="#m689c3d6461" x="206.306074" y="403.480348" style="fill: #6c3483; stroke: #6c3483"/>
     <use xlink:href="#m689c3d6461" x="223.50176" y="397.727672" style="fill: #6c3483; stroke: #6c3483"/>
     <use xlink:href="#m689c3d6461" x="240.697446" y="423.393456" style="fill: #6c3483; stroke: #6c3483"/>
     <use xlink:href="#m689c3d6461" x="257.893131" y="453.924338" style="fill: #6c3483; stroke: #6c3483"/>
     <use xlink:href="#m689c3d6461" x="275.088817" y="443.735469" style="fill: #6c3483; stroke: #6c3483"/>
     <use xlink:href="#m689c3d6461" x="292.284503" y="442.989087" style="fill: #6c3483; stroke: #6c3483"/>
     <use xlink:href="#m689c3d6461" x="309.480188" y="434.405898" style="fill: #6c3483; stroke: #6c3483"/>
     <use xlink:href="#m689c3d6461" x="326.675874" y="427.606372" style="fill: #6c3483; stroke: #6c3483"/>
     <use xlink:href="#m689c3d6461" x="343.87156" y="417.12852" style="fill: #6c3483; stroke: #6c3483"/>
     <use xlink:href="#m689c3d6461" x="361.067245" y="405.451351" style="fill: #6c3483; stroke: #6c3483"/>
     <use xlink:href="#m689c3d6461" x="378.262931" y="397.91969" style="fill: #6c3483; stroke: #6c3483"/>
     <use xlink:href="#m689c3d6461" x="395.458617" y="390.212384" style="fill: #6c3483; stroke: #6c3483"/>
     <use xlink:href="#m689c3d6461" x="412.654302" y="383.103036" style="fill: #6c3483; stroke: #6c3483"/>
     <use xlink:href="#m689c3d6461" x="429.849988" y="374.185782" style="fill: #6c3483; stroke: #6c3483"/>
     <use xlink:href="#m689c3d6461" x="447.045674" y="362.566453" style="fill: #6c3483; stroke: #6c3483"/>
     <use xlink:href="#m689c3d6461" x="464.241359" y="355.838163" style="fill: #6c3483; stroke: #6c3483"/>
     <use xlink:href="#m689c3d6461" x="481.437045" y="353.680883" style="fill: #6c3483; stroke: #6c3483"/>
     <use xlink:href="#m689c3d6461" x="498.632731" y="348.125754" style="fill: #6c3483; stroke: #6c3483"/>
     <use xlink:href="#m689c3d6461" x="515.828416" y="279.711271" style="fill: #6c3483; stroke: #6c3483"/>
     <use xlink:href="#m689c3d6461" x="533.024102" y="103.142632" style="fill: #6c3483; stroke: #6c3483"/>
     <use xlink:href="#m689c3d6461" x="550.219788" y="145.160153" style="fill: #6c3483; stroke: #6c3483"/>
     <use xlink:href="#m689c3d6461" x="567.415473" y="152.024535" style="fill: #6c3483; stroke: #6c3483"/>
     <use xlink:href="#m689c3d6461" x="584.611159" y="148.29698" style="fill: #6c3483; stroke: #6c3483"/>
     <use xlink:href="#m689c3d6461" x="601.806845" y="200.303377" style="fill: #6c3483; stroke: #6c3483"/>
     <use xlink:href="#m689c3d6461" x="619.00253" y="368.470106" style="fill: #6c3483; stroke: #6c3483"/>
     <use xlink:href="#m689c3d6461" x="636.198216" y="347.289423" style="fill: #6c3483; stroke: #6c3483"/>
     <use xlink:href="#m689c3d6461" x="653.393902" y="329.96505" style="fill: #6c3483; stroke: #6c3483"/>
     <use xlink:href="#m689c3d6461" x="670.589587" y="326.367315" style="fill: #6c3483; stroke: #6c3483"/>
     <use xlink:href="#m689c3d6461" x="687.785273" y="303.178203" style="fill: #6c3483; stroke: #6c3483"/>
     <use xlink:href="#m689c3d6461" x="704.980959" y="305.124114" style="fill: #6c3483; stroke: #6c3483"/>
     <use xlink:href="#m689c3d6461" x="722.176644" y="299.937499" style="fill: #6c3483; stroke: #6c3483"/>
     <use xlink:href="#m689c3d6461" x="739.37233" y="295.091752" style="fill: #6c3483; stroke: #6c3483"/>
     <use xlink:href="#m689c3d6461" x="756.568016" y="290.33436" style="fill: #6c3483; stroke: #6c3483"/>
     <use xlink:href="#m689c3d6461" x="773.763701" y="283.990213" style="fill: #6c3483; stroke: #6c3483"/>
     <use xlink:href="#m689c3d6461" x="790.959387" y="278.583616" style="fill: #6c3483; stroke: #6c3483"/>
     <use xlink:href="#m689c3d6461" x="808.155073" y="273.899799" style="fill: #6c3483; stroke: #6c3483"/>
     <use xlink:href="#m689c3d6461" x="825.350758" y="270.168417" style="fill: #6c3483; stroke: #6c3483"/>
     <use xlink:href="#m689c3d6461" x="842.546444" y="267.985407" style="fill: #6c3483; stroke: #6c3483"/>
     <use xlink:href="#m689c3d6461" x="859.74213" y="249.97047" style="fill: #6c3483; stroke: #6c3483"/>
     <use xlink:href="#m689c3d6461" x="876.937815" y="253.96904" style="fill: #6c3483; stroke: #6c3483"/>
     <use xlink:href="#m689c3d6461" x="894.133501" y="244.774605" style="fill: #6c3483; stroke: #6c3483"/>
     <use xlink:href="#m689c3d6461" x="911.329187" y="257.507554" style="fill: #6c3483; stroke: #6c3483"/>
     <use xlink:href="#m689c3d6461" x="928.524872" y="258.727496" style="fill: #6c3483; stroke: #6c3483"/>
     <use xlink:href="#m689c3d6461" x="945.720558" y="253.589363" style="fill: #6c3483; stroke: #6c3483"/>
     <use xlink:href="#m689c3d6461" x="962.916244" y="254.842904" style="fill: #6c3483; stroke: #6c3483"/>
     <use xlink:href="#m689c3d6461" x="980.111929" y="157.217743" style="fill: #6c3483; stroke: #6c3483"/>
     <use xlink:href="#m689c3d6461" x="997.307615" y="177.400804" style="fill: #6c3483; stroke: #6c3483"/>
     <use xlink:href="#m689c3d6461" x="1014.503301" y="183.24279" style="fill: #6c3483; stroke: #6c3483"/>
     <use xlink:href="#m689c3d6461" x="1031.698986" y="178.116034" style="fill: #6c3483; stroke: #6c3483"/>
     <use xlink:href="#m689c3d6461" x="1048.894672" y="188.997061" style="fill: #6c3483; stroke: #6c3483"/>
     <use xlink:href="#m689c3d6461" x="1066.090358" y="184.531736" style="fill: #6c3483; stroke: #6c3483"/>
     <use xlink:href="#m689c3d6461" x="1083.286043" y="185.43824" style="fill: #6c3483; stroke: #6c3483"/>
     <use xlink:href="#m689c3d6461" x="1100.481729" y="185.755081" style="fill: #6c3483; stroke: #6c3483"/>
     <use xlink:href="#m689c3d6461" x="1117.677415" y="184.227122" style="fill: #6c3483; stroke: #6c3483"/>
    </g>
   </g>
   <g id="line2d_17">
    <path d="M 103.13196 521.961058 
L 120.327646 516.674287 
L 137.523332 509.819899 
L 154.719017 500.32404 
L 171.914703 495.705398 
L 189.110389 493.862619 
L 206.306074 483.694377 
L 223.50176 476.598637 
L 240.697446 497.588791 
L 257.893131 524.340765 
L 275.088817 517.80343 
L 292.284503 518.644227 
L 309.480188 511.686069 
L 326.675874 506.247894 
L 343.87156 493.685486 
L 361.067245 481.833524 
L 378.262931 474.427748 
L 395.458617 467.756873 
L 412.654302 460.502288 
L 429.849988 451.228429 
L 447.045674 438.856976 
L 464.241359 431.952404 
L 481.437045 430.843037 
L 498.632731 425.243465 
L 515.828416 365.863508 
L 533.024102 219.598541 
L 550.219788 226.621237 
L 567.415473 228.491021 
L 584.611159 225.501556 
L 601.806845 254.770817 
L 619.00253 414.791555 
L 636.198216 401.745593 
L 653.393902 395.349454 
L 670.589587 387.314038 
L 687.785273 378.700653 
L 704.980959 370.912968 
L 722.176644 368.601734 
L 739.37233 364.57552 
L 756.568016 359.954964 
L 773.763701 355.75906 
L 790.959387 350.988377 
L 808.155073 347.099957 
L 825.350758 344.361731 
L 842.546444 342.574028 
L 859.74213 315.465875 
L 876.937815 315.286615 
L 894.133501 321.705932 
L 911.329187 319.613509 
L 928.524872 318.310635 
L 945.720558 317.646758 
L 962.916244 317.09856 
L 980.111929 236.268712 
L 997.307615 241.023978 
L 1014.503301 245.402438 
L 1031.698986 246.083539 
L 1048.894672 246.956658 
L 1066.090358 247.594911 
L 1083.286043 246.786329 
L 1100.481729 246.703079 
L 1117.677415 245.128658 
" clip-path="url(#pf267db6b16)" style="fill: none; stroke: #00ffb2; stroke-width: 1.5; stroke-linecap: square"/>
    <defs>
     <path id="m5e7ca9d431" d="M 0 2.5 
C 0.663008 2.5 1.29895 2.236584 1.767767 1.767767 
C 2.236584 1.29895 2.5 0.663008 2.5 0 
C 2.5 -0.663008 2.236584 -1.29895 1.767767 -1.767767 
C 1.29895 -2.236584 0.663008 -2.5 0 -2.5 
C -0.663008 -2.5 -1.29895 -2.236584 -1.767767 -1.767767 
C -2.236584 -1.29895 -2.5 -0.663008 -2.5 0 
C -2.5 0.663008 -2.236584 1.29895 -1.767767 1.767767 
C -1.29895 2.236584 -0.663008 2.5 0 2.5 
z
" style="stroke: #00ffb2"/>
    </defs>
    <g clip-path="url(#pf267db6b16)">
     <use xlink:href="#m5e7ca9d431" x="103.13196" y="521.961058" style="fill: #00ffb2; stroke: #00ffb2"/>
     <use xlink:href="#m5e7ca9d431" x="120.327646" y="516.674287" style="fill: #00ffb2; stroke: #00ffb2"/>
     <use xlink:href="#m5e7ca9d431" x="137.523332" y="509.819899" style="fill: #00ffb2; stroke: #00ffb2"/>
     <use xlink:href="#m5e7ca9d431" x="154.719017" y="500.32404" style="fill: #00ffb2; stroke: #00ffb2"/>
     <use xlink:href="#m5e7ca9d431" x="171.914703" y="495.705398" style="fill: #00ffb2; stroke: #00ffb2"/>
     <use xlink:href="#m5e7ca9d431" x="189.110389" y="493.862619" style="fill: #00ffb2; stroke: #00ffb2"/>
     <use xlink:href="#m5e7ca9d431" x="206.306074" y="483.694377" style="fill: #00ffb2; stroke: #00ffb2"/>
     <use xlink:href="#m5e7ca9d431" x="223.50176" y="476.598637" style="fill: #00ffb2; stroke: #00ffb2"/>
     <use xlink:href="#m5e7ca9d431" x="240.697446" y="497.588791" style="fill: #00ffb2; stroke: #00ffb2"/>
     <use xlink:href="#m5e7ca9d431" x="257.893131" y="524.340765" style="fill: #00ffb2; stroke: #00ffb2"/>
     <use xlink:href="#m5e7ca9d431" x="275.088817" y="517.80343" style="fill: #00ffb2; stroke: #00ffb2"/>
     <use xlink:href="#m5e7ca9d431" x="292.284503" y="518.644227" style="fill: #00ffb2; stroke: #00ffb2"/>
     <use xlink:href="#m5e7ca9d431" x="309.480188" y="511.686069" style="fill: #00ffb2; stroke: #00ffb2"/>
     <use xlink:href="#m5e7ca9d431" x="326.675874" y="506.247894" style="fill: #00ffb2; stroke: #00ffb2"/>
     <use xlink:href="#m5e7ca9d431" x="343.87156" y="493.685486" style="fill: #00ffb2; stroke: #00ffb2"/>
     <use xlink:href="#m5e7ca9d431" x="361.067245" y="481.833524" style="fill: #00ffb2; stroke: #00ffb2"/>
     <use xlink:href="#m5e7ca9d431" x="378.262931" y="474.427748" style="fill: #00ffb2; stroke: #00ffb2"/>
     <use xlink:href="#m5e7ca9d431" x="395.458617" y="467.756873" style="fill: #00ffb2; stroke: #00ffb2"/>
     <use xlink:href="#m5e7ca9d431" x="412.654302" y="460.502288" style="fill: #00ffb2; stroke: #00ffb2"/>
     <use xlink:href="#m5e7ca9d431" x="429.849988" y="451.228429" style="fill: #00ffb2; stroke: #00ffb2"/>
     <use xlink:href="#m5e7ca9d431" x="447.045674" y="438.856976" style="fill: #00ffb2; stroke: #00ffb2"/>
     <use xlink:href="#m5e7ca9d431" x="464.241359" y="431.952404" style="fill: #00ffb2; stroke: #00ffb2"/>
     <use xlink:href="#m5e7ca9d431" x="481.437045" y="430.843037" style="fill: #00ffb2; stroke: #00ffb2"/>
     <use xlink:href="#m5e7ca9d431" x="498.632731" y="425.243465" style="fill: #00ffb2; stroke: #00ffb2"/>
     <use xlink:href="#m5e7ca9d431" x="515.828416" y="365.863508" style="fill: #00ffb2; stroke: #00ffb2"/>
     <use xlink:href="#m5e7ca9d431" x="533.024102" y="219.598541" style="fill: #00ffb2; stroke: #00ffb2"/>
     <use xlink:href="#m5e7ca9d431" x="550.219788" y="226.621237" style="fill: #00ffb2; stroke: #00ffb2"/>
     <use xlink:href="#m5e7ca9d431" x="567.415473" y="228.491021" style="fill: #00ffb2; stroke: #00ffb2"/>
     <use xlink:href="#m5e7ca9d431" x="584.611159" y="225.501556" style="fill: #00ffb2; stroke: #00ffb2"/>
     <use xlink:href="#m5e7ca9d431" x="601.806845" y="254.770817" style="fill: #00ffb2; stroke: #00ffb2"/>
     <use xlink:href="#m5e7ca9d431" x="619.00253" y="414.791555" style="fill: #00ffb2; stroke: #00ffb2"/>
     <use xlink:href="#m5e7ca9d431" x="636.198216" y="401.745593" style="fill: #00ffb2; stroke: #00ffb2"/>
     <use xlink:href="#m5e7ca9d431" x="653.393902" y="395.349454" style="fill: #00ffb2; stroke: #00ffb2"/>
     <use xlink:href="#m5e7ca9d431" x="670.589587" y="387.314038" style="fill: #00ffb2; stroke: #00ffb2"/>
     <use xlink:href="#m5e7ca9d431" x="687.785273" y="378.700653" style="fill: #00ffb2; stroke: #00ffb2"/>
     <use xlink:href="#m5e7ca9d431" x="704.980959" y="370.912968" style="fill: #00ffb2; stroke: #00ffb2"/>
     <use xlink:href="#m5e7ca9d431" x="722.176644" y="368.601734" style="fill: #00ffb2; stroke: #00ffb2"/>
     <use xlink:href="#m5e7ca9d431" x="739.37233" y="364.57552" style="fill: #00ffb2; stroke: #00ffb2"/>
     <use xlink:href="#m5e7ca9d431" x="756.568016" y="359.954964" style="fill: #00ffb2; stroke: #00ffb2"/>
     <use xlink:href="#m5e7ca9d431" x="773.763701" y="355.75906" style="fill: #00ffb2; stroke: #00ffb2"/>
     <use xlink:href="#m5e7ca9d431" x="790.959387" y="350.988377" style="fill: #00ffb2; stroke: #00ffb2"/>
     <use xlink:href="#m5e7ca9d431" x="808.155073" y="347.099957" style="fill: #00ffb2; stroke: #00ffb2"/>
     <use xlink:href="#m5e7ca9d431" x="825.350758" y="344.361731" style="fill: #00ffb2; stroke: #00ffb2"/>
     <use xlink:href="#m5e7ca9d431" x="842.546444" y="342.574028" style="fill: #00ffb2; stroke: #00ffb2"/>
     <use xlink:href="#m5e7ca9d431" x="859.74213" y="315.465875" style="fill: #00ffb2; stroke: #00ffb2"/>
     <use xlink:href="#m5e7ca9d431" x="876.937815" y="315.286615" style="fill: #00ffb2; stroke: #00ffb2"/>
     <use xlink:href="#m5e7ca9d431" x="894.133501" y="321.705932" style="fill: #00ffb2; stroke: #00ffb2"/>
     <use xlink:href="#m5e7ca9d431" x="911.329187" y="319.613509" style="fill: #00ffb2; stroke: #00ffb2"/>
     <use xlink:href="#m5e7ca9d431" x="928.524872" y="318.310635" style="fill: #00ffb2; stroke: #00ffb2"/>
     <use xlink:href="#m5e7ca9d431" x="945.720558" y="317.646758" style="fill: #00ffb2; stroke: #00ffb2"/>
     <use xlink:href="#m5e7ca9d431" x="962.916244" y="317.09856" style="fill: #00ffb2; stroke: #00ffb2"/>
     <use xlink:href="#m5e7ca9d431" x="980.111929" y="236.268712" style="fill: #00ffb2; stroke: #00ffb2"/>
     <use xlink:href="#m5e7ca9d431" x="997.307615" y="241.023978" style="fill: #00ffb2; stroke: #00ffb2"/>
     <use xlink:href="#m5e7ca9d431" x="1014.503301" y="245.402438" style="fill: #00ffb2; stroke: #00ffb2"/>
     <use xlink:href="#m5e7ca9d431" x="1031.698986" y="246.083539" style="fill: #00ffb2; stroke: #00ffb2"/>
     <use xlink:href="#m5e7ca9d431" x="1048.894672" y="246.956658" style="fill: #00ffb2; stroke: #00ffb2"/>
     <use xlink:href="#m5e7ca9d431" x="1066.090358" y="247.594911" style="fill: #00ffb2; stroke: #00ffb2"/>
     <use xlink:href="#m5e7ca9d431" x="1083.286043" y="246.786329" style="fill: #00ffb2; stroke: #00ffb2"/>
     <use xlink:href="#m5e7ca9d431" x="1100.481729" y="246.703079" style="fill: #00ffb2; stroke: #00ffb2"/>
     <use xlink:href="#m5e7ca9d431" x="1117.677415" y="245.128658" style="fill: #00ffb2; stroke: #00ffb2"/>
    </g>
   </g>
   <g id="line2d_18">
    <path d="M 103.13196 527.729895 
L 120.327646 523.969275 
L 137.523332 538.268139 
L 154.719017 543.110271 
L 171.914703 536.578252 
L 189.110389 531.675729 
L 206.306074 533.87809 
L 223.50176 534.02843 
L 240.697446 536.250141 
L 257.893131 543.488565 
L 275.088817 535.989439 
L 292.284503 532.475699 
L 309.480188 530.473649 
L 326.675874 512.799689 
L 343.87156 512.309968 
L 361.067245 498.832763 
L 378.262931 489.705203 
L 395.458617 479.652215 
L 412.654302 479.078925 
L 429.849988 465.404385 
L 447.045674 457.612022 
L 464.241359 448.174852 
L 481.437045 440.451173 
L 498.632731 430.118344 
L 515.828416 427.712482 
L 533.024102 399.96363 
L 550.219788 371.89007 
L 567.415473 330.936624 
L 584.611159 285.568887 
L 601.806845 263.083416 
L 619.00253 263.286279 
L 636.198216 275.811474 
L 653.393902 298.354572 
L 670.589587 359.501606 
L 687.785273 384.639819 
L 704.980959 442.660338 
L 722.176644 478.829067 
L 739.37233 491.9973 
L 756.568016 512.009076 
L 773.763701 506.800558 
L 790.959387 501.866989 
L 808.155073 483.536595 
L 825.350758 460.459971 
L 842.546444 423.868079 
L 859.74213 402.118571 
L 876.937815 375.196907 
L 894.133501 367.127468 
L 911.329187 361.138969 
L 928.524872 354.32711 
L 945.720558 344.560767 
L 962.916244 332.760477 
L 980.111929 322.817851 
L 997.307615 321.528799 
L 1014.503301 315.566243 
L 1031.698986 329.473629 
L 1048.894672 331.800386 
L 1066.090358 331.914364 
L 1083.286043 323.434946 
L 1100.481729 326.338821 
L 1117.677415 338.456164 
" clip-path="url(#pf267db6b16)" style="fill: none; stroke: #e508ff; stroke-width: 1.5; stroke-linecap: square"/>
    <defs>
     <path id="mc604961ebe" d="M 0 2.5 
C 0.663008 2.5 1.29895 2.236584 1.767767 1.767767 
C 2.236584 1.29895 2.5 0.663008 2.5 0 
C 2.5 -0.663008 2.236584 -1.29895 1.767767 -1.767767 
C 1.29895 -2.236584 0.663008 -2.5 0 -2.5 
C -0.663008 -2.5 -1.29895 -2.236584 -1.767767 -1.767767 
C -2.236584 -1.29895 -2.5 -0.663008 -2.5 0 
C -2.5 0.663008 -2.236584 1.29895 -1.767767 1.767767 
C -1.29895 2.236584 -0.663008 2.5 0 2.5 
z
" style="stroke: #e508ff"/>
    </defs>
    <g clip-path="url(#pf267db6b16)">
     <use xlink:href="#mc604961ebe" x="103.13196" y="527.729895" style="fill: #e508ff; stroke: #e508ff"/>
     <use xlink:href="#mc604961ebe" x="120.327646" y="523.969275" style="fill: #e508ff; stroke: #e508ff"/>
     <use xlink:href="#mc604961ebe" x="137.523332" y="538.268139" style="fill: #e508ff; stroke: #e508ff"/>
     <use xlink:href="#mc604961ebe" x="154.719017" y="543.110271" style="fill: #e508ff; stroke: #e508ff"/>
     <use xlink:href="#mc604961ebe" x="171.914703" y="536.578252" style="fill: #e508ff; stroke: #e508ff"/>
     <use xlink:href="#mc604961ebe" x="189.110389" y="531.675729" style="fill: #e508ff; stroke: #e508ff"/>
     <use xlink:href="#mc604961ebe" x="206.306074" y="533.87809" style="fill: #e508ff; stroke: #e508ff"/>
     <use xlink:href="#mc604961ebe" x="223.50176" y="534.02843" style="fill: #e508ff; stroke: #e508ff"/>
     <use xlink:href="#mc604961ebe" x="240.697446" y="536.250141" style="fill: #e508ff; stroke: #e508ff"/>
     <use xlink:href="#mc604961ebe" x="257.893131" y="543.488565" style="fill: #e508ff; stroke: #e508ff"/>
     <use xlink:href="#mc604961ebe" x="275.088817" y="535.989439" style="fill: #e508ff; stroke: #e508ff"/>
     <use xlink:href="#mc604961ebe" x="292.284503" y="532.475699" style="fill: #e508ff; stroke: #e508ff"/>
     <use xlink:href="#mc604961ebe" x="309.480188" y="530.473649" style="fill: #e508ff; stroke: #e508ff"/>
     <use xlink:href="#mc604961ebe" x="326.675874" y="512.799689" style="fill: #e508ff; stroke: #e508ff"/>
     <use xlink:href="#mc604961ebe" x="343.87156" y="512.309968" style="fill: #e508ff; stroke: #e508ff"/>
     <use xlink:href="#mc604961ebe" x="361.067245" y="498.832763" style="fill: #e508ff; stroke: #e508ff"/>
     <use xlink:href="#mc604961ebe" x="378.262931" y="489.705203" style="fill: #e508ff; stroke: #e508ff"/>
     <use xlink:href="#mc604961ebe" x="395.458617" y="479.652215" style="fill: #e508ff; stroke: #e508ff"/>
     <use xlink:href="#mc604961ebe" x="412.654302" y="479.078925" style="fill: #e508ff; stroke: #e508ff"/>
     <use xlink:href="#mc604961ebe" x="429.849988" y="465.404385" style="fill: #e508ff; stroke: #e508ff"/>
     <use xlink:href="#mc604961ebe" x="447.045674" y="457.612022" style="fill: #e508ff; stroke: #e508ff"/>
     <use xlink:href="#mc604961ebe" x="464.241359" y="448.174852" style="fill: #e508ff; stroke: #e508ff"/>
     <use xlink:href="#mc604961ebe" x="481.437045" y="440.451173" style="fill: #e508ff; stroke: #e508ff"/>
     <use xlink:href="#mc604961ebe" x="498.632731" y="430.118344" style="fill: #e508ff; stroke: #e508ff"/>
     <use xlink:href="#mc604961ebe" x="515.828416" y="427.712482" style="fill: #e508ff; stroke: #e508ff"/>
     <use xlink:href="#mc604961ebe" x="533.024102" y="399.96363" style="fill: #e508ff; stroke: #e508ff"/>
     <use xlink:href="#mc604961ebe" x="550.219788" y="371.89007" style="fill: #e508ff; stroke: #e508ff"/>
     <use xlink:href="#mc604961ebe" x="567.415473" y="330.936624" style="fill: #e508ff; stroke: #e508ff"/>
     <use xlink:href="#mc604961ebe" x="584.611159" y="285.568887" style="fill: #e508ff; stroke: #e508ff"/>
     <use xlink:href="#mc604961ebe" x="601.806845" y="263.083416" style="fill: #e508ff; stroke: #e508ff"/>
     <use xlink:href="#mc604961ebe" x="619.00253" y="263.286279" style="fill: #e508ff; stroke: #e508ff"/>
     <use xlink:href="#mc604961ebe" x="636.198216" y="275.811474" style="fill: #e508ff; stroke: #e508ff"/>
     <use xlink:href="#mc604961ebe" x="653.393902" y="298.354572" style="fill: #e508ff; stroke: #e508ff"/>
     <use xlink:href="#mc604961ebe" x="670.589587" y="359.501606" style="fill: #e508ff; stroke: #e508ff"/>
     <use xlink:href="#mc604961ebe" x="687.785273" y="384.639819" style="fill: #e508ff; stroke: #e508ff"/>
     <use xlink:href="#mc604961ebe" x="704.980959" y="442.660338" style="fill: #e508ff; stroke: #e508ff"/>
     <use xlink:href="#mc604961ebe" x="722.176644" y="478.829067" style="fill: #e508ff; stroke: #e508ff"/>
     <use xlink:href="#mc604961ebe" x="739.37233" y="491.9973" style="fill: #e508ff; stroke: #e508ff"/>
     <use xlink:href="#mc604961ebe" x="756.568016" y="512.009076" style="fill: #e508ff; stroke: #e508ff"/>
     <use xlink:href="#mc604961ebe" x="773.763701" y="506.800558" style="fill: #e508ff; stroke: #e508ff"/>
     <use xlink:href="#mc604961ebe" x="790.959387" y="501.866989" style="fill: #e508ff; stroke: #e508ff"/>
     <use xlink:href="#mc604961ebe" x="808.155073" y="483.536595" style="fill: #e508ff; stroke: #e508ff"/>
     <use xlink:href="#mc604961ebe" x="825.350758" y="460.459971" style="fill: #e508ff; stroke: #e508ff"/>
     <use xlink:href="#mc604961ebe" x="842.546444" y="423.868079" style="fill: #e508ff; stroke: #e508ff"/>
     <use xlink:href="#mc604961ebe" x="859.74213" y="402.118571" style="fill: #e508ff; stroke: #e508ff"/>
     <use xlink:href="#mc604961ebe" x="876.937815" y="375.196907" style="fill: #e508ff; stroke: #e508ff"/>
     <use xlink:href="#mc604961ebe" x="894.133501" y="367.127468" style="fill: #e508ff; stroke: #e508ff"/>
     <use xlink:href="#mc604961ebe" x="911.329187" y="361.138969" style="fill: #e508ff; stroke: #e508ff"/>
     <use xlink:href="#mc604961ebe" x="928.524872" y="354.32711" style="fill: #e508ff; stroke: #e508ff"/>
     <use xlink:href="#mc604961ebe" x="945.720558" y="344.560767" style="fill: #e508ff; stroke: #e508ff"/>
     <use xlink:href="#mc604961ebe" x="962.916244" y="332.760477" style="fill: #e508ff; stroke: #e508ff"/>
     <use xlink:href="#mc604961ebe" x="980.111929" y="322.817851" style="fill: #e508ff; stroke: #e508ff"/>
     <use xlink:href="#mc604961ebe" x="997.307615" y="321.528799" style="fill: #e508ff; stroke: #e508ff"/>
     <use xlink:href="#mc604961ebe" x="1014.503301" y="315.566243" style="fill: #e508ff; stroke: #e508ff"/>
     <use xlink:href="#mc604961ebe" x="1031.698986" y="329.473629" style="fill: #e508ff; stroke: #e508ff"/>
     <use xlink:href="#mc604961ebe" x="1048.894672" y="331.800386" style="fill: #e508ff; stroke: #e508ff"/>
     <use xlink:href="#mc604961ebe" x="1066.090358" y="331.914364" style="fill: #e508ff; stroke: #e508ff"/>
     <use xlink:href="#mc604961ebe" x="1083.286043" y="323.434946" style="fill: #e508ff; stroke: #e508ff"/>
     <use xlink:href="#mc604961ebe" x="1100.481729" y="326.338821" style="fill: #e508ff; stroke: #e508ff"/>
     <use xlink:href="#mc604961ebe" x="1117.677415" y="338.456164" style="fill: #e508ff; stroke: #e508ff"/>
    </g>
   </g>
   <g id="patch_3">
    <path d="M 52.404688 568.197656 
L 52.404688 24.597656 
" style="fill: none; stroke: #000000; stroke-width: 0.8; stroke-linejoin: miter; stroke-linecap: square"/>
   </g>
   <g id="patch_4">
    <path d="M 1168.404687 568.197656 
L 1168.404687 24.597656 
" style="fill: none; stroke: #000000; stroke-width: 0.8; stroke-linejoin: miter; stroke-linecap: square"/>
   </g>
   <g id="patch_5">
    <path d="M 52.404688 568.197656 
L 1168.404687 568.197656 
" style="fill: none; stroke: #000000; stroke-width: 0.8; stroke-linejoin: miter; stroke-linecap: square"/>
   </g>
   <g id="patch_6">
    <path d="M 52.404688 24.597656 
L 1168.404687 24.597656 
" style="fill: none; stroke: #000000; stroke-width: 0.8; stroke-linejoin: miter; stroke-linecap: square"/>
   </g>
   <g id="text_15">
    <!-- Relationship between prediction and real data for ensemble -->
    <g transform="translate(385.441016 18.597656)scale(0.15 -0.15)">
     <defs>
      <path id="DejaVuSans-52" d="M 2841 2188 
Q 3044 2119 3236 1894 
Q 3428 1669 3622 1275 
L 4263 0 
L 3584 0 
L 2988 1197 
Q 2756 1666 2539 1819 
Q 2322 1972 1947 1972 
L 1259 1972 
L 1259 0 
L 628 0 
L 628 4666 
L 2053 4666 
Q 2853 4666 3247 4331 
Q 3641 3997 3641 3322 
Q 3641 2881 3436 2590 
Q 3231 2300 2841 2188 
z
M 1259 4147 
L 1259 2491 
L 2053 2491 
Q 2509 2491 2742 2702 
Q 2975 2913 2975 3322 
Q 2975 3731 2742 3939 
Q 2509 4147 2053 4147 
L 1259 4147 
z
" transform="scale(0.015625)"/>
      <path id="DejaVuSans-6c" d="M 603 4863 
L 1178 4863 
L 1178 0 
L 603 0 
L 603 4863 
z
" transform="scale(0.015625)"/>
      <path id="DejaVuSans-61" d="M 2194 1759 
Q 1497 1759 1228 1600 
Q 959 1441 959 1056 
Q 959 750 1161 570 
Q 1363 391 1709 391 
Q 2188 391 2477 730 
Q 2766 1069 2766 1631 
L 2766 1759 
L 2194 1759 
z
M 3341 1997 
L 3341 0 
L 2766 0 
L 2766 531 
Q 2569 213 2275 61 
Q 1981 -91 1556 -91 
Q 1019 -91 701 211 
Q 384 513 384 1019 
Q 384 1609 779 1909 
Q 1175 2209 1959 2209 
L 2766 2209 
L 2766 2266 
Q 2766 2663 2505 2880 
Q 2244 3097 1772 3097 
Q 1472 3097 1187 3025 
Q 903 2953 641 2809 
L 641 3341 
Q 956 3463 1253 3523 
Q 1550 3584 1831 3584 
Q 2591 3584 2966 3190 
Q 3341 2797 3341 1997 
z
" transform="scale(0.015625)"/>
      <path id="DejaVuSans-68" d="M 3513 2113 
L 3513 0 
L 2938 0 
L 2938 2094 
Q 2938 2591 2744 2837 
Q 2550 3084 2163 3084 
Q 1697 3084 1428 2787 
Q 1159 2491 1159 1978 
L 1159 0 
L 581 0 
L 581 4863 
L 1159 4863 
L 1159 2956 
Q 1366 3272 1645 3428 
Q 1925 3584 2291 3584 
Q 2894 3584 3203 3211 
Q 3513 2838 3513 2113 
z
" transform="scale(0.015625)"/>
      <path id="DejaVuSans-62" d="M 3116 1747 
Q 3116 2381 2855 2742 
Q 2594 3103 2138 3103 
Q 1681 3103 1420 2742 
Q 1159 2381 1159 1747 
Q 1159 1113 1420 752 
Q 1681 391 2138 391 
Q 2594 391 2855 752 
Q 3116 1113 3116 1747 
z
M 1159 2969 
Q 1341 3281 1617 3432 
Q 1894 3584 2278 3584 
Q 2916 3584 3314 3078 
Q 3713 2572 3713 1747 
Q 3713 922 3314 415 
Q 2916 -91 2278 -91 
Q 1894 -91 1617 61 
Q 1341 213 1159 525 
L 1159 0 
L 581 0 
L 581 4863 
L 1159 4863 
L 1159 2969 
z
" transform="scale(0.015625)"/>
      <path id="DejaVuSans-72" d="M 2631 2963 
Q 2534 3019 2420 3045 
Q 2306 3072 2169 3072 
Q 1681 3072 1420 2755 
Q 1159 2438 1159 1844 
L 1159 0 
L 581 0 
L 581 3500 
L 1159 3500 
L 1159 2956 
Q 1341 3275 1631 3429 
Q 1922 3584 2338 3584 
Q 2397 3584 2469 3576 
Q 2541 3569 2628 3553 
L 2631 2963 
z
" transform="scale(0.015625)"/>
      <path id="DejaVuSans-64" d="M 2906 2969 
L 2906 4863 
L 3481 4863 
L 3481 0 
L 2906 0 
L 2906 525 
Q 2725 213 2448 61 
Q 2172 -91 1784 -91 
Q 1150 -91 751 415 
Q 353 922 353 1747 
Q 353 2572 751 3078 
Q 1150 3584 1784 3584 
Q 2172 3584 2448 3432 
Q 2725 3281 2906 2969 
z
M 947 1747 
Q 947 1113 1208 752 
Q 1469 391 1925 391 
Q 2381 391 2643 752 
Q 2906 1113 2906 1747 
Q 2906 2381 2643 2742 
Q 2381 3103 1925 3103 
Q 1469 3103 1208 2742 
Q 947 2381 947 1747 
z
" transform="scale(0.015625)"/>
      <path id="DejaVuSans-66" d="M 2375 4863 
L 2375 4384 
L 1825 4384 
Q 1516 4384 1395 4259 
Q 1275 4134 1275 3809 
L 1275 3500 
L 2222 3500 
L 2222 3053 
L 1275 3053 
L 1275 0 
L 697 0 
L 697 3053 
L 147 3053 
L 147 3500 
L 697 3500 
L 697 3744 
Q 697 4328 969 4595 
Q 1241 4863 1831 4863 
L 2375 4863 
z
" transform="scale(0.015625)"/>
     </defs>
     <use xlink:href="#DejaVuSans-52"/>
     <use xlink:href="#DejaVuSans-65" x="64.982422"/>
     <use xlink:href="#DejaVuSans-6c" x="126.505859"/>
     <use xlink:href="#DejaVuSans-61" x="154.289062"/>
     <use xlink:href="#DejaVuSans-74" x="215.568359"/>
     <use xlink:href="#DejaVuSans-69" x="254.777344"/>
     <use xlink:href="#DejaVuSans-6f" x="282.560547"/>
     <use xlink:href="#DejaVuSans-6e" x="343.742188"/>
     <use xlink:href="#DejaVuSans-73" x="407.121094"/>
     <use xlink:href="#DejaVuSans-68" x="459.220703"/>
     <use xlink:href="#DejaVuSans-69" x="522.599609"/>
     <use xlink:href="#DejaVuSans-70" x="550.382812"/>
     <use xlink:href="#DejaVuSans-20" x="613.859375"/>
     <use xlink:href="#DejaVuSans-62" x="645.646484"/>
     <use xlink:href="#DejaVuSans-65" x="709.123047"/>
     <use xlink:href="#DejaVuSans-74" x="770.646484"/>
     <use xlink:href="#DejaVuSans-77" x="809.855469"/>
     <use xlink:href="#DejaVuSans-65" x="891.642578"/>
     <use xlink:href="#DejaVuSans-65" x="953.166016"/>
     <use xlink:href="#DejaVuSans-6e" x="1014.689453"/>
     <use xlink:href="#DejaVuSans-20" x="1078.068359"/>
     <use xlink:href="#DejaVuSans-70" x="1109.855469"/>
     <use xlink:href="#DejaVuSans-72" x="1173.332031"/>
     <use xlink:href="#DejaVuSans-65" x="1212.195312"/>
     <use xlink:href="#DejaVuSans-64" x="1273.71875"/>
     <use xlink:href="#DejaVuSans-69" x="1337.195312"/>
     <use xlink:href="#DejaVuSans-63" x="1364.978516"/>
     <use xlink:href="#DejaVuSans-74" x="1419.958984"/>
     <use xlink:href="#DejaVuSans-69" x="1459.167969"/>
     <use xlink:href="#DejaVuSans-6f" x="1486.951172"/>
     <use xlink:href="#DejaVuSans-6e" x="1548.132812"/>
     <use xlink:href="#DejaVuSans-20" x="1611.511719"/>
     <use xlink:href="#DejaVuSans-61" x="1643.298828"/>
     <use xlink:href="#DejaVuSans-6e" x="1704.578125"/>
     <use xlink:href="#DejaVuSans-64" x="1767.957031"/>
     <use xlink:href="#DejaVuSans-20" x="1831.433594"/>
     <use xlink:href="#DejaVuSans-72" x="1863.220703"/>
     <use xlink:href="#DejaVuSans-65" x="1902.083984"/>
     <use xlink:href="#DejaVuSans-61" x="1963.607422"/>
     <use xlink:href="#DejaVuSans-6c" x="2024.886719"/>
     <use xlink:href="#DejaVuSans-20" x="2052.669922"/>
     <use xlink:href="#DejaVuSans-64" x="2084.457031"/>
     <use xlink:href="#DejaVuSans-61" x="2147.933594"/>
     <use xlink:href="#DejaVuSans-74" x="2209.212891"/>
     <use xlink:href="#DejaVuSans-61" x="2248.421875"/>
     <use xlink:href="#DejaVuSans-20" x="2309.701172"/>
     <use xlink:href="#DejaVuSans-66" x="2341.488281"/>
     <use xlink:href="#DejaVuSans-6f" x="2376.693359"/>
     <use xlink:href="#DejaVuSans-72" x="2437.875"/>
     <use xlink:href="#DejaVuSans-20" x="2478.988281"/>
     <use xlink:href="#DejaVuSans-65" x="2510.775391"/>
     <use xlink:href="#DejaVuSans-6e" x="2572.298828"/>
     <use xlink:href="#DejaVuSans-73" x="2635.677734"/>
     <use xlink:href="#DejaVuSans-65" x="2687.777344"/>
     <use xlink:href="#DejaVuSans-6d" x="2749.300781"/>
     <use xlink:href="#DejaVuSans-62" x="2846.712891"/>
     <use xlink:href="#DejaVuSans-6c" x="2910.189453"/>
     <use xlink:href="#DejaVuSans-65" x="2937.972656"/>
    </g>
   </g>
   <g id="legend_1">
    <g id="patch_7">
     <path d="M 62.904688 168.700781 
L 282.354688 168.700781 
Q 285.354688 168.700781 285.354688 165.700781 
L 285.354688 35.097656 
Q 285.354688 32.097656 282.354688 32.097656 
L 62.904688 32.097656 
Q 59.904688 32.097656 59.904688 35.097656 
L 59.904688 165.700781 
Q 59.904688 168.700781 62.904688 168.700781 
z
" style="fill: #ffffff; opacity: 0.8; stroke: #cccccc; stroke-linejoin: miter"/>
    </g>
    <g id="line2d_19">
     <path d="M 65.904688 44.245312 
L 80.904688 44.245312 
L 95.904688 44.245312 
" style="fill: none; stroke: #1f77b4; stroke-width: 1.5; stroke-linecap: square"/>
     <g>
      <use xlink:href="#m66d161a0c9" x="80.904688" y="44.245312" style="fill: #1f77b4; stroke: #1f77b4; stroke-linejoin: miter"/>
     </g>
    </g>
    <g id="text_16">
     <!-- real -->
     <g transform="translate(107.904688 49.495312)scale(0.15 -0.15)">
      <use xlink:href="#DejaVuSans-72"/>
      <use xlink:href="#DejaVuSans-65" x="38.863281"/>
      <use xlink:href="#DejaVuSans-61" x="100.386719"/>
      <use xlink:href="#DejaVuSans-6c" x="161.666016"/>
     </g>
    </g>
    <g id="line2d_20">
     <path d="M 65.904688 66.2625 
L 80.904688 66.2625 
L 95.904688 66.2625 
" style="fill: none; stroke: #ffc300; stroke-width: 1.5; stroke-linecap: square"/>
    </g>
    <g id="text_17">
     <!-- SA-RecorrentEnsemble -->
     <g transform="translate(107.904688 71.5125)scale(0.15 -0.15)">
      <defs>
       <path id="DejaVuSans-53" d="M 3425 4513 
L 3425 3897 
Q 3066 4069 2747 4153 
Q 2428 4238 2131 4238 
Q 1616 4238 1336 4038 
Q 1056 3838 1056 3469 
Q 1056 3159 1242 3001 
Q 1428 2844 1947 2747 
L 2328 2669 
Q 3034 2534 3370 2195 
Q 3706 1856 3706 1288 
Q 3706 609 3251 259 
Q 2797 -91 1919 -91 
Q 1588 -91 1214 -16 
Q 841 59 441 206 
L 441 856 
Q 825 641 1194 531 
Q 1563 422 1919 422 
Q 2459 422 2753 634 
Q 3047 847 3047 1241 
Q 3047 1584 2836 1778 
Q 2625 1972 2144 2069 
L 1759 2144 
Q 1053 2284 737 2584 
Q 422 2884 422 3419 
Q 422 4038 858 4394 
Q 1294 4750 2059 4750 
Q 2388 4750 2728 4690 
Q 3069 4631 3425 4513 
z
" transform="scale(0.015625)"/>
       <path id="DejaVuSans-41" d="M 2188 4044 
L 1331 1722 
L 3047 1722 
L 2188 4044 
z
M 1831 4666 
L 2547 4666 
L 4325 0 
L 3669 0 
L 3244 1197 
L 1141 1197 
L 716 0 
L 50 0 
L 1831 4666 
z
" transform="scale(0.015625)"/>
       <path id="DejaVuSans-2d" d="M 313 2009 
L 1997 2009 
L 1997 1497 
L 313 1497 
L 313 2009 
z
" transform="scale(0.015625)"/>
       <path id="DejaVuSans-45" d="M 628 4666 
L 3578 4666 
L 3578 4134 
L 1259 4134 
L 1259 2753 
L 3481 2753 
L 3481 2222 
L 1259 2222 
L 1259 531 
L 3634 531 
L 3634 0 
L 628 0 
L 628 4666 
z
" transform="scale(0.015625)"/>
      </defs>
      <use xlink:href="#DejaVuSans-53"/>
      <use xlink:href="#DejaVuSans-41" x="65.351562"/>
      <use xlink:href="#DejaVuSans-2d" x="131.509766"/>
      <use xlink:href="#DejaVuSans-52" x="167.59375"/>
      <use xlink:href="#DejaVuSans-65" x="232.576172"/>
      <use xlink:href="#DejaVuSans-63" x="294.099609"/>
      <use xlink:href="#DejaVuSans-6f" x="349.080078"/>
      <use xlink:href="#DejaVuSans-72" x="410.261719"/>
      <use xlink:href="#DejaVuSans-72" x="449.625"/>
      <use xlink:href="#DejaVuSans-65" x="488.488281"/>
      <use xlink:href="#DejaVuSans-6e" x="550.011719"/>
      <use xlink:href="#DejaVuSans-74" x="613.390625"/>
      <use xlink:href="#DejaVuSans-45" x="652.599609"/>
      <use xlink:href="#DejaVuSans-6e" x="715.783203"/>
      <use xlink:href="#DejaVuSans-73" x="779.162109"/>
      <use xlink:href="#DejaVuSans-65" x="831.261719"/>
      <use xlink:href="#DejaVuSans-6d" x="892.785156"/>
      <use xlink:href="#DejaVuSans-62" x="990.197266"/>
      <use xlink:href="#DejaVuSans-6c" x="1053.673828"/>
      <use xlink:href="#DejaVuSans-65" x="1081.457031"/>
     </g>
    </g>
    <g id="line2d_21">
     <path d="M 65.904688 88.279687 
L 80.904688 88.279687 
L 95.904688 88.279687 
" style="fill: none; stroke: #7fff00; stroke-width: 1.5; stroke-linecap: square"/>
     <g>
      <use xlink:href="#ma3408b563f" x="80.904688" y="88.279687" style="fill: #7fff00; stroke: #7fff00"/>
     </g>
    </g>
    <g id="text_18">
     <!-- RNN -->
     <g transform="translate(107.904688 93.529687)scale(0.15 -0.15)">
      <defs>
       <path id="DejaVuSans-4e" d="M 628 4666 
L 1478 4666 
L 3547 763 
L 3547 4666 
L 4159 4666 
L 4159 0 
L 3309 0 
L 1241 3903 
L 1241 0 
L 628 0 
L 628 4666 
z
" transform="scale(0.015625)"/>
      </defs>
      <use xlink:href="#DejaVuSans-52"/>
      <use xlink:href="#DejaVuSans-4e" x="69.482422"/>
      <use xlink:href="#DejaVuSans-4e" x="144.287109"/>
     </g>
    </g>
    <g id="line2d_22">
     <path d="M 65.904688 110.296875 
L 80.904688 110.296875 
L 95.904688 110.296875 
" style="fill: none; stroke: #6c3483; stroke-width: 1.5; stroke-linecap: square"/>
     <g>
      <use xlink:href="#m689c3d6461" x="80.904688" y="110.296875" style="fill: #6c3483; stroke: #6c3483"/>
     </g>
    </g>
    <g id="text_19">
     <!-- GRU -->
     <g transform="translate(107.904688 115.546875)scale(0.15 -0.15)">
      <defs>
       <path id="DejaVuSans-47" d="M 3809 666 
L 3809 1919 
L 2778 1919 
L 2778 2438 
L 4434 2438 
L 4434 434 
Q 4069 175 3628 42 
Q 3188 -91 2688 -91 
Q 1594 -91 976 548 
Q 359 1188 359 2328 
Q 359 3472 976 4111 
Q 1594 4750 2688 4750 
Q 3144 4750 3555 4637 
Q 3966 4525 4313 4306 
L 4313 3634 
Q 3963 3931 3569 4081 
Q 3175 4231 2741 4231 
Q 1884 4231 1454 3753 
Q 1025 3275 1025 2328 
Q 1025 1384 1454 906 
Q 1884 428 2741 428 
Q 3075 428 3337 486 
Q 3600 544 3809 666 
z
" transform="scale(0.015625)"/>
       <path id="DejaVuSans-55" d="M 556 4666 
L 1191 4666 
L 1191 1831 
Q 1191 1081 1462 751 
Q 1734 422 2344 422 
Q 2950 422 3222 751 
Q 3494 1081 3494 1831 
L 3494 4666 
L 4128 4666 
L 4128 1753 
Q 4128 841 3676 375 
Q 3225 -91 2344 -91 
Q 1459 -91 1007 375 
Q 556 841 556 1753 
L 556 4666 
z
" transform="scale(0.015625)"/>
      </defs>
      <use xlink:href="#DejaVuSans-47"/>
      <use xlink:href="#DejaVuSans-52" x="77.490234"/>
      <use xlink:href="#DejaVuSans-55" x="146.972656"/>
     </g>
    </g>
    <g id="line2d_23">
     <path d="M 65.904688 132.314062 
L 80.904688 132.314062 
L 95.904688 132.314062 
" style="fill: none; stroke: #00ffb2; stroke-width: 1.5; stroke-linecap: square"/>
     <g>
      <use xlink:href="#m5e7ca9d431" x="80.904688" y="132.314062" style="fill: #00ffb2; stroke: #00ffb2"/>
     </g>
    </g>
    <g id="text_20">
     <!-- LSTM -->
     <g transform="translate(107.904688 137.564062)scale(0.15 -0.15)">
      <defs>
       <path id="DejaVuSans-4c" d="M 628 4666 
L 1259 4666 
L 1259 531 
L 3531 531 
L 3531 0 
L 628 0 
L 628 4666 
z
" transform="scale(0.015625)"/>
       <path id="DejaVuSans-54" d="M -19 4666 
L 3928 4666 
L 3928 4134 
L 2272 4134 
L 2272 0 
L 1638 0 
L 1638 4134 
L -19 4134 
L -19 4666 
z
" transform="scale(0.015625)"/>
       <path id="DejaVuSans-4d" d="M 628 4666 
L 1569 4666 
L 2759 1491 
L 3956 4666 
L 4897 4666 
L 4897 0 
L 4281 0 
L 4281 4097 
L 3078 897 
L 2444 897 
L 1241 4097 
L 1241 0 
L 628 0 
L 628 4666 
z
" transform="scale(0.015625)"/>
      </defs>
      <use xlink:href="#DejaVuSans-4c"/>
      <use xlink:href="#DejaVuSans-53" x="55.712891"/>
      <use xlink:href="#DejaVuSans-54" x="119.189453"/>
      <use xlink:href="#DejaVuSans-4d" x="180.273438"/>
     </g>
    </g>
    <g id="line2d_24">
     <path d="M 65.904688 154.33125 
L 80.904688 154.33125 
L 95.904688 154.33125 
" style="fill: none; stroke: #e508ff; stroke-width: 1.5; stroke-linecap: square"/>
     <g>
      <use xlink:href="#mc604961ebe" x="80.904688" y="154.33125" style="fill: #e508ff; stroke: #e508ff"/>
     </g>
    </g>
    <g id="text_21">
     <!-- MLP -->
     <g transform="translate(107.904688 159.58125)scale(0.15 -0.15)">
      <defs>
       <path id="DejaVuSans-50" d="M 1259 4147 
L 1259 2394 
L 2053 2394 
Q 2494 2394 2734 2622 
Q 2975 2850 2975 3272 
Q 2975 3691 2734 3919 
Q 2494 4147 2053 4147 
L 1259 4147 
z
M 628 4666 
L 2053 4666 
Q 2838 4666 3239 4311 
Q 3641 3956 3641 3272 
Q 3641 2581 3239 2228 
Q 2838 1875 2053 1875 
L 1259 1875 
L 1259 0 
L 628 0 
L 628 4666 
z
" transform="scale(0.015625)"/>
      </defs>
      <use xlink:href="#DejaVuSans-4d"/>
      <use xlink:href="#DejaVuSans-4c" x="86.279297"/>
      <use xlink:href="#DejaVuSans-50" x="141.992188"/>
     </g>
    </g>
   </g>
  </g>
 </g>
 <defs>
  <clipPath id="pf267db6b16">
   <rect x="52.404688" y="24.597656" width="1116" height="543.6"/>
  </clipPath>
 </defs>
</svg>
