<?xml version="1.0" encoding="utf-8" standalone="no"?>
<!DOCTYPE svg PUBLIC "-//W3C//DTD SVG 1.1//EN"
  "http://www.w3.org/Graphics/SVG/1.1/DTD/svg11.dtd">
<svg xmlns:xlink="http://www.w3.org/1999/xlink" width="1178.782813pt" height="610.592969pt" viewBox="0 0 1178.782813 610.592969" xmlns="http://www.w3.org/2000/svg" version="1.1">
 <metadata>
  <rdf:RDF xmlns:dc="http://purl.org/dc/elements/1.1/" xmlns:cc="http://creativecommons.org/ns#" xmlns:rdf="http://www.w3.org/1999/02/22-rdf-syntax-ns#">
   <cc:Work>
    <dc:type rdf:resource="http://purl.org/dc/dcmitype/StillImage"/>
    <dc:date>2022-06-10T13:33:49.523866</dc:date>
    <dc:format>image/svg+xml</dc:format>
    <dc:creator>
     <cc:Agent>
      <dc:title>Matplotlib v3.5.2, https://matplotlib.org/</dc:title>
     </cc:Agent>
    </dc:creator>
   </cc:Work>
  </rdf:RDF>
 </metadata>
 <defs>
  <style type="text/css">*{stroke-linejoin: round; stroke-linecap: butt}</style>
 </defs>
 <g id="figure_1">
  <g id="patch_1">
   <path d="M 0 610.592969 
L 1178.782813 610.592969 
L 1178.782813 0 
L 0 0 
L 0 610.592969 
z
" style="fill: none"/>
  </g>
  <g id="axes_1">
   <g id="patch_2">
    <path d="M 55.582813 568.197656 
L 1171.582813 568.197656 
L 1171.582813 24.597656 
L 55.582813 24.597656 
z
" style="fill: #ffffff"/>
   </g>
   <g id="matplotlib.axis_1">
    <g id="xtick_1">
     <g id="line2d_1">
      <defs>
       <path id="m6145b493a5" d="M 0 0 
L 0 3.5 
" style="stroke: #000000; stroke-width: 0.8"/>
      </defs>
      <g>
       <use xlink:href="#m6145b493a5" x="106.310085" y="568.197656" style="stroke: #000000; stroke-width: 0.8"/>
      </g>
     </g>
     <g id="text_1">
      <!-- 0 -->
      <g transform="translate(103.128835 582.796094)scale(0.1 -0.1)">
       <defs>
        <path id="DejaVuSans-30" d="M 2034 4250 
Q 1547 4250 1301 3770 
Q 1056 3291 1056 2328 
Q 1056 1369 1301 889 
Q 1547 409 2034 409 
Q 2525 409 2770 889 
Q 3016 1369 3016 2328 
Q 3016 3291 2770 3770 
Q 2525 4250 2034 4250 
z
M 2034 4750 
Q 2819 4750 3233 4129 
Q 3647 3509 3647 2328 
Q 3647 1150 3233 529 
Q 2819 -91 2034 -91 
Q 1250 -91 836 529 
Q 422 1150 422 2328 
Q 422 3509 836 4129 
Q 1250 4750 2034 4750 
z
" transform="scale(0.015625)"/>
       </defs>
       <use xlink:href="#DejaVuSans-30"/>
      </g>
     </g>
    </g>
    <g id="xtick_2">
     <g id="line2d_2">
      <g>
       <use xlink:href="#m6145b493a5" x="278.266942" y="568.197656" style="stroke: #000000; stroke-width: 0.8"/>
      </g>
     </g>
     <g id="text_2">
      <!-- 10 -->
      <g transform="translate(271.904442 582.796094)scale(0.1 -0.1)">
       <defs>
        <path id="DejaVuSans-31" d="M 794 531 
L 1825 531 
L 1825 4091 
L 703 3866 
L 703 4441 
L 1819 4666 
L 2450 4666 
L 2450 531 
L 3481 531 
L 3481 0 
L 794 0 
L 794 531 
z
" transform="scale(0.015625)"/>
       </defs>
       <use xlink:href="#DejaVuSans-31"/>
       <use xlink:href="#DejaVuSans-30" x="63.623047"/>
      </g>
     </g>
    </g>
    <g id="xtick_3">
     <g id="line2d_3">
      <g>
       <use xlink:href="#m6145b493a5" x="450.223799" y="568.197656" style="stroke: #000000; stroke-width: 0.8"/>
      </g>
     </g>
     <g id="text_3">
      <!-- 20 -->
      <g transform="translate(443.861299 582.796094)scale(0.1 -0.1)">
       <defs>
        <path id="DejaVuSans-32" d="M 1228 531 
L 3431 531 
L 3431 0 
L 469 0 
L 469 531 
Q 828 903 1448 1529 
Q 2069 2156 2228 2338 
Q 2531 2678 2651 2914 
Q 2772 3150 2772 3378 
Q 2772 3750 2511 3984 
Q 2250 4219 1831 4219 
Q 1534 4219 1204 4116 
Q 875 4013 500 3803 
L 500 4441 
Q 881 4594 1212 4672 
Q 1544 4750 1819 4750 
Q 2544 4750 2975 4387 
Q 3406 4025 3406 3419 
Q 3406 3131 3298 2873 
Q 3191 2616 2906 2266 
Q 2828 2175 2409 1742 
Q 1991 1309 1228 531 
z
" transform="scale(0.015625)"/>
       </defs>
       <use xlink:href="#DejaVuSans-32"/>
       <use xlink:href="#DejaVuSans-30" x="63.623047"/>
      </g>
     </g>
    </g>
    <g id="xtick_4">
     <g id="line2d_4">
      <g>
       <use xlink:href="#m6145b493a5" x="622.180655" y="568.197656" style="stroke: #000000; stroke-width: 0.8"/>
      </g>
     </g>
     <g id="text_4">
      <!-- 30 -->
      <g transform="translate(615.818155 582.796094)scale(0.1 -0.1)">
       <defs>
        <path id="DejaVuSans-33" d="M 2597 2516 
Q 3050 2419 3304 2112 
Q 3559 1806 3559 1356 
Q 3559 666 3084 287 
Q 2609 -91 1734 -91 
Q 1441 -91 1130 -33 
Q 819 25 488 141 
L 488 750 
Q 750 597 1062 519 
Q 1375 441 1716 441 
Q 2309 441 2620 675 
Q 2931 909 2931 1356 
Q 2931 1769 2642 2001 
Q 2353 2234 1838 2234 
L 1294 2234 
L 1294 2753 
L 1863 2753 
Q 2328 2753 2575 2939 
Q 2822 3125 2822 3475 
Q 2822 3834 2567 4026 
Q 2313 4219 1838 4219 
Q 1578 4219 1281 4162 
Q 984 4106 628 3988 
L 628 4550 
Q 988 4650 1302 4700 
Q 1616 4750 1894 4750 
Q 2613 4750 3031 4423 
Q 3450 4097 3450 3541 
Q 3450 3153 3228 2886 
Q 3006 2619 2597 2516 
z
" transform="scale(0.015625)"/>
       </defs>
       <use xlink:href="#DejaVuSans-33"/>
       <use xlink:href="#DejaVuSans-30" x="63.623047"/>
      </g>
     </g>
    </g>
    <g id="xtick_5">
     <g id="line2d_5">
      <g>
       <use xlink:href="#m6145b493a5" x="794.137512" y="568.197656" style="stroke: #000000; stroke-width: 0.8"/>
      </g>
     </g>
     <g id="text_5">
      <!-- 40 -->
      <g transform="translate(787.775012 582.796094)scale(0.1 -0.1)">
       <defs>
        <path id="DejaVuSans-34" d="M 2419 4116 
L 825 1625 
L 2419 1625 
L 2419 4116 
z
M 2253 4666 
L 3047 4666 
L 3047 1625 
L 3713 1625 
L 3713 1100 
L 3047 1100 
L 3047 0 
L 2419 0 
L 2419 1100 
L 313 1100 
L 313 1709 
L 2253 4666 
z
" transform="scale(0.015625)"/>
       </defs>
       <use xlink:href="#DejaVuSans-34"/>
       <use xlink:href="#DejaVuSans-30" x="63.623047"/>
      </g>
     </g>
    </g>
    <g id="xtick_6">
     <g id="line2d_6">
      <g>
       <use xlink:href="#m6145b493a5" x="966.094369" y="568.197656" style="stroke: #000000; stroke-width: 0.8"/>
      </g>
     </g>
     <g id="text_6">
      <!-- 50 -->
      <g transform="translate(959.731869 582.796094)scale(0.1 -0.1)">
       <defs>
        <path id="DejaVuSans-35" d="M 691 4666 
L 3169 4666 
L 3169 4134 
L 1269 4134 
L 1269 2991 
Q 1406 3038 1543 3061 
Q 1681 3084 1819 3084 
Q 2600 3084 3056 2656 
Q 3513 2228 3513 1497 
Q 3513 744 3044 326 
Q 2575 -91 1722 -91 
Q 1428 -91 1123 -41 
Q 819 9 494 109 
L 494 744 
Q 775 591 1075 516 
Q 1375 441 1709 441 
Q 2250 441 2565 725 
Q 2881 1009 2881 1497 
Q 2881 1984 2565 2268 
Q 2250 2553 1709 2553 
Q 1456 2553 1204 2497 
Q 953 2441 691 2322 
L 691 4666 
z
" transform="scale(0.015625)"/>
       </defs>
       <use xlink:href="#DejaVuSans-35"/>
       <use xlink:href="#DejaVuSans-30" x="63.623047"/>
      </g>
     </g>
    </g>
    <g id="xtick_7">
     <g id="line2d_7">
      <g>
       <use xlink:href="#m6145b493a5" x="1138.051225" y="568.197656" style="stroke: #000000; stroke-width: 0.8"/>
      </g>
     </g>
     <g id="text_7">
      <!-- 60 -->
      <g transform="translate(1131.688725 582.796094)scale(0.1 -0.1)">
       <defs>
        <path id="DejaVuSans-36" d="M 2113 2584 
Q 1688 2584 1439 2293 
Q 1191 2003 1191 1497 
Q 1191 994 1439 701 
Q 1688 409 2113 409 
Q 2538 409 2786 701 
Q 3034 994 3034 1497 
Q 3034 2003 2786 2293 
Q 2538 2584 2113 2584 
z
M 3366 4563 
L 3366 3988 
Q 3128 4100 2886 4159 
Q 2644 4219 2406 4219 
Q 1781 4219 1451 3797 
Q 1122 3375 1075 2522 
Q 1259 2794 1537 2939 
Q 1816 3084 2150 3084 
Q 2853 3084 3261 2657 
Q 3669 2231 3669 1497 
Q 3669 778 3244 343 
Q 2819 -91 2113 -91 
Q 1303 -91 875 529 
Q 447 1150 447 2328 
Q 447 3434 972 4092 
Q 1497 4750 2381 4750 
Q 2619 4750 2861 4703 
Q 3103 4656 3366 4563 
z
" transform="scale(0.015625)"/>
       </defs>
       <use xlink:href="#DejaVuSans-36"/>
       <use xlink:href="#DejaVuSans-30" x="63.623047"/>
      </g>
     </g>
    </g>
    <g id="text_8">
     <!-- time [`min`] -->
     <g transform="translate(566.760547 600.273438)scale(0.15 -0.15)">
      <defs>
       <path id="DejaVuSans-74" d="M 1172 4494 
L 1172 3500 
L 2356 3500 
L 2356 3053 
L 1172 3053 
L 1172 1153 
Q 1172 725 1289 603 
Q 1406 481 1766 481 
L 2356 481 
L 2356 0 
L 1766 0 
Q 1100 0 847 248 
Q 594 497 594 1153 
L 594 3053 
L 172 3053 
L 172 3500 
L 594 3500 
L 594 4494 
L 1172 4494 
z
" transform="scale(0.015625)"/>
       <path id="DejaVuSans-69" d="M 603 3500 
L 1178 3500 
L 1178 0 
L 603 0 
L 603 3500 
z
M 603 4863 
L 1178 4863 
L 1178 4134 
L 603 4134 
L 603 4863 
z
" transform="scale(0.015625)"/>
       <path id="DejaVuSans-6d" d="M 3328 2828 
Q 3544 3216 3844 3400 
Q 4144 3584 4550 3584 
Q 5097 3584 5394 3201 
Q 5691 2819 5691 2113 
L 5691 0 
L 5113 0 
L 5113 2094 
Q 5113 2597 4934 2840 
Q 4756 3084 4391 3084 
Q 3944 3084 3684 2787 
Q 3425 2491 3425 1978 
L 3425 0 
L 2847 0 
L 2847 2094 
Q 2847 2600 2669 2842 
Q 2491 3084 2119 3084 
Q 1678 3084 1418 2786 
Q 1159 2488 1159 1978 
L 1159 0 
L 581 0 
L 581 3500 
L 1159 3500 
L 1159 2956 
Q 1356 3278 1631 3431 
Q 1906 3584 2284 3584 
Q 2666 3584 2933 3390 
Q 3200 3197 3328 2828 
z
" transform="scale(0.015625)"/>
       <path id="DejaVuSans-65" d="M 3597 1894 
L 3597 1613 
L 953 1613 
Q 991 1019 1311 708 
Q 1631 397 2203 397 
Q 2534 397 2845 478 
Q 3156 559 3463 722 
L 3463 178 
Q 3153 47 2828 -22 
Q 2503 -91 2169 -91 
Q 1331 -91 842 396 
Q 353 884 353 1716 
Q 353 2575 817 3079 
Q 1281 3584 2069 3584 
Q 2775 3584 3186 3129 
Q 3597 2675 3597 1894 
z
M 3022 2063 
Q 3016 2534 2758 2815 
Q 2500 3097 2075 3097 
Q 1594 3097 1305 2825 
Q 1016 2553 972 2059 
L 3022 2063 
z
" transform="scale(0.015625)"/>
       <path id="DejaVuSans-20" transform="scale(0.015625)"/>
       <path id="DejaVuSans-5b" d="M 550 4863 
L 1875 4863 
L 1875 4416 
L 1125 4416 
L 1125 -397 
L 1875 -397 
L 1875 -844 
L 550 -844 
L 550 4863 
z
" transform="scale(0.015625)"/>
       <path id="DejaVuSans-60" d="M 1147 5119 
L 2028 3950 
L 1550 3950 
L 531 5119 
L 1147 5119 
z
" transform="scale(0.015625)"/>
       <path id="DejaVuSans-6e" d="M 3513 2113 
L 3513 0 
L 2938 0 
L 2938 2094 
Q 2938 2591 2744 2837 
Q 2550 3084 2163 3084 
Q 1697 3084 1428 2787 
Q 1159 2491 1159 1978 
L 1159 0 
L 581 0 
L 581 3500 
L 1159 3500 
L 1159 2956 
Q 1366 3272 1645 3428 
Q 1925 3584 2291 3584 
Q 2894 3584 3203 3211 
Q 3513 2838 3513 2113 
z
" transform="scale(0.015625)"/>
       <path id="DejaVuSans-5d" d="M 1947 4863 
L 1947 -844 
L 622 -844 
L 622 -397 
L 1369 -397 
L 1369 4416 
L 622 4416 
L 622 4863 
L 1947 4863 
z
" transform="scale(0.015625)"/>
      </defs>
      <use xlink:href="#DejaVuSans-74"/>
      <use xlink:href="#DejaVuSans-69" x="39.208984"/>
      <use xlink:href="#DejaVuSans-6d" x="66.992188"/>
      <use xlink:href="#DejaVuSans-65" x="164.404297"/>
      <use xlink:href="#DejaVuSans-20" x="225.927734"/>
      <use xlink:href="#DejaVuSans-5b" x="257.714844"/>
      <use xlink:href="#DejaVuSans-60" x="296.728516"/>
      <use xlink:href="#DejaVuSans-6d" x="346.728516"/>
      <use xlink:href="#DejaVuSans-69" x="444.140625"/>
      <use xlink:href="#DejaVuSans-6e" x="471.923828"/>
      <use xlink:href="#DejaVuSans-60" x="535.302734"/>
      <use xlink:href="#DejaVuSans-5d" x="585.302734"/>
     </g>
    </g>
   </g>
   <g id="matplotlib.axis_2">
    <g id="ytick_1">
     <g id="line2d_8">
      <defs>
       <path id="m887ee42a9c" d="M 0 0 
L -3.5 0 
" style="stroke: #000000; stroke-width: 0.8"/>
      </defs>
      <g>
       <use xlink:href="#m887ee42a9c" x="55.582813" y="518.251835" style="stroke: #000000; stroke-width: 0.8"/>
      </g>
     </g>
     <g id="text_9">
      <!-- 8.0 -->
      <g transform="translate(32.679688 522.051053)scale(0.1 -0.1)">
       <defs>
        <path id="DejaVuSans-38" d="M 2034 2216 
Q 1584 2216 1326 1975 
Q 1069 1734 1069 1313 
Q 1069 891 1326 650 
Q 1584 409 2034 409 
Q 2484 409 2743 651 
Q 3003 894 3003 1313 
Q 3003 1734 2745 1975 
Q 2488 2216 2034 2216 
z
M 1403 2484 
Q 997 2584 770 2862 
Q 544 3141 544 3541 
Q 544 4100 942 4425 
Q 1341 4750 2034 4750 
Q 2731 4750 3128 4425 
Q 3525 4100 3525 3541 
Q 3525 3141 3298 2862 
Q 3072 2584 2669 2484 
Q 3125 2378 3379 2068 
Q 3634 1759 3634 1313 
Q 3634 634 3220 271 
Q 2806 -91 2034 -91 
Q 1263 -91 848 271 
Q 434 634 434 1313 
Q 434 1759 690 2068 
Q 947 2378 1403 2484 
z
M 1172 3481 
Q 1172 3119 1398 2916 
Q 1625 2713 2034 2713 
Q 2441 2713 2670 2916 
Q 2900 3119 2900 3481 
Q 2900 3844 2670 4047 
Q 2441 4250 2034 4250 
Q 1625 4250 1398 4047 
Q 1172 3844 1172 3481 
z
" transform="scale(0.015625)"/>
        <path id="DejaVuSans-2e" d="M 684 794 
L 1344 794 
L 1344 0 
L 684 0 
L 684 794 
z
" transform="scale(0.015625)"/>
       </defs>
       <use xlink:href="#DejaVuSans-38"/>
       <use xlink:href="#DejaVuSans-2e" x="63.623047"/>
       <use xlink:href="#DejaVuSans-30" x="95.410156"/>
      </g>
     </g>
    </g>
    <g id="ytick_2">
     <g id="line2d_9">
      <g>
       <use xlink:href="#m887ee42a9c" x="55.582813" y="452.702411" style="stroke: #000000; stroke-width: 0.8"/>
      </g>
     </g>
     <g id="text_10">
      <!-- 8.5 -->
      <g transform="translate(32.679688 456.50163)scale(0.1 -0.1)">
       <use xlink:href="#DejaVuSans-38"/>
       <use xlink:href="#DejaVuSans-2e" x="63.623047"/>
       <use xlink:href="#DejaVuSans-35" x="95.410156"/>
      </g>
     </g>
    </g>
    <g id="ytick_3">
     <g id="line2d_10">
      <g>
       <use xlink:href="#m887ee42a9c" x="55.582813" y="387.152988" style="stroke: #000000; stroke-width: 0.8"/>
      </g>
     </g>
     <g id="text_11">
      <!-- 9.0 -->
      <g transform="translate(32.679688 390.952206)scale(0.1 -0.1)">
       <defs>
        <path id="DejaVuSans-39" d="M 703 97 
L 703 672 
Q 941 559 1184 500 
Q 1428 441 1663 441 
Q 2288 441 2617 861 
Q 2947 1281 2994 2138 
Q 2813 1869 2534 1725 
Q 2256 1581 1919 1581 
Q 1219 1581 811 2004 
Q 403 2428 403 3163 
Q 403 3881 828 4315 
Q 1253 4750 1959 4750 
Q 2769 4750 3195 4129 
Q 3622 3509 3622 2328 
Q 3622 1225 3098 567 
Q 2575 -91 1691 -91 
Q 1453 -91 1209 -44 
Q 966 3 703 97 
z
M 1959 2075 
Q 2384 2075 2632 2365 
Q 2881 2656 2881 3163 
Q 2881 3666 2632 3958 
Q 2384 4250 1959 4250 
Q 1534 4250 1286 3958 
Q 1038 3666 1038 3163 
Q 1038 2656 1286 2365 
Q 1534 2075 1959 2075 
z
" transform="scale(0.015625)"/>
       </defs>
       <use xlink:href="#DejaVuSans-39"/>
       <use xlink:href="#DejaVuSans-2e" x="63.623047"/>
       <use xlink:href="#DejaVuSans-30" x="95.410156"/>
      </g>
     </g>
    </g>
    <g id="ytick_4">
     <g id="line2d_11">
      <g>
       <use xlink:href="#m887ee42a9c" x="55.582813" y="321.603564" style="stroke: #000000; stroke-width: 0.8"/>
      </g>
     </g>
     <g id="text_12">
      <!-- 9.5 -->
      <g transform="translate(32.679688 325.402783)scale(0.1 -0.1)">
       <use xlink:href="#DejaVuSans-39"/>
       <use xlink:href="#DejaVuSans-2e" x="63.623047"/>
       <use xlink:href="#DejaVuSans-35" x="95.410156"/>
      </g>
     </g>
    </g>
    <g id="ytick_5">
     <g id="line2d_12">
      <g>
       <use xlink:href="#m887ee42a9c" x="55.582813" y="256.054141" style="stroke: #000000; stroke-width: 0.8"/>
      </g>
     </g>
     <g id="text_13">
      <!-- 10.0 -->
      <g transform="translate(26.317188 259.853359)scale(0.1 -0.1)">
       <use xlink:href="#DejaVuSans-31"/>
       <use xlink:href="#DejaVuSans-30" x="63.623047"/>
       <use xlink:href="#DejaVuSans-2e" x="127.246094"/>
       <use xlink:href="#DejaVuSans-30" x="159.033203"/>
      </g>
     </g>
    </g>
    <g id="ytick_6">
     <g id="line2d_13">
      <g>
       <use xlink:href="#m887ee42a9c" x="55.582813" y="190.504717" style="stroke: #000000; stroke-width: 0.8"/>
      </g>
     </g>
     <g id="text_14">
      <!-- 10.5 -->
      <g transform="translate(26.317188 194.303936)scale(0.1 -0.1)">
       <use xlink:href="#DejaVuSans-31"/>
       <use xlink:href="#DejaVuSans-30" x="63.623047"/>
       <use xlink:href="#DejaVuSans-2e" x="127.246094"/>
       <use xlink:href="#DejaVuSans-35" x="159.033203"/>
      </g>
     </g>
    </g>
    <g id="ytick_7">
     <g id="line2d_14">
      <g>
       <use xlink:href="#m887ee42a9c" x="55.582813" y="124.955294" style="stroke: #000000; stroke-width: 0.8"/>
      </g>
     </g>
     <g id="text_15">
      <!-- 11.0 -->
      <g transform="translate(26.317188 128.754512)scale(0.1 -0.1)">
       <use xlink:href="#DejaVuSans-31"/>
       <use xlink:href="#DejaVuSans-31" x="63.623047"/>
       <use xlink:href="#DejaVuSans-2e" x="127.246094"/>
       <use xlink:href="#DejaVuSans-30" x="159.033203"/>
      </g>
     </g>
    </g>
    <g id="ytick_8">
     <g id="line2d_15">
      <g>
       <use xlink:href="#m887ee42a9c" x="55.582813" y="59.40587" style="stroke: #000000; stroke-width: 0.8"/>
      </g>
     </g>
     <g id="text_16">
      <!-- 11.5 -->
      <g transform="translate(26.317188 63.205089)scale(0.1 -0.1)">
       <use xlink:href="#DejaVuSans-31"/>
       <use xlink:href="#DejaVuSans-31" x="63.623047"/>
       <use xlink:href="#DejaVuSans-2e" x="127.246094"/>
       <use xlink:href="#DejaVuSans-35" x="159.033203"/>
      </g>
     </g>
    </g>
    <g id="text_17">
     <!-- consumption [`kw`] -->
     <g transform="translate(19.197656 371.169141)rotate(-90)scale(0.15 -0.15)">
      <defs>
       <path id="DejaVuSans-63" d="M 3122 3366 
L 3122 2828 
Q 2878 2963 2633 3030 
Q 2388 3097 2138 3097 
Q 1578 3097 1268 2742 
Q 959 2388 959 1747 
Q 959 1106 1268 751 
Q 1578 397 2138 397 
Q 2388 397 2633 464 
Q 2878 531 3122 666 
L 3122 134 
Q 2881 22 2623 -34 
Q 2366 -91 2075 -91 
Q 1284 -91 818 406 
Q 353 903 353 1747 
Q 353 2603 823 3093 
Q 1294 3584 2113 3584 
Q 2378 3584 2631 3529 
Q 2884 3475 3122 3366 
z
" transform="scale(0.015625)"/>
       <path id="DejaVuSans-6f" d="M 1959 3097 
Q 1497 3097 1228 2736 
Q 959 2375 959 1747 
Q 959 1119 1226 758 
Q 1494 397 1959 397 
Q 2419 397 2687 759 
Q 2956 1122 2956 1747 
Q 2956 2369 2687 2733 
Q 2419 3097 1959 3097 
z
M 1959 3584 
Q 2709 3584 3137 3096 
Q 3566 2609 3566 1747 
Q 3566 888 3137 398 
Q 2709 -91 1959 -91 
Q 1206 -91 779 398 
Q 353 888 353 1747 
Q 353 2609 779 3096 
Q 1206 3584 1959 3584 
z
" transform="scale(0.015625)"/>
       <path id="DejaVuSans-73" d="M 2834 3397 
L 2834 2853 
Q 2591 2978 2328 3040 
Q 2066 3103 1784 3103 
Q 1356 3103 1142 2972 
Q 928 2841 928 2578 
Q 928 2378 1081 2264 
Q 1234 2150 1697 2047 
L 1894 2003 
Q 2506 1872 2764 1633 
Q 3022 1394 3022 966 
Q 3022 478 2636 193 
Q 2250 -91 1575 -91 
Q 1294 -91 989 -36 
Q 684 19 347 128 
L 347 722 
Q 666 556 975 473 
Q 1284 391 1588 391 
Q 1994 391 2212 530 
Q 2431 669 2431 922 
Q 2431 1156 2273 1281 
Q 2116 1406 1581 1522 
L 1381 1569 
Q 847 1681 609 1914 
Q 372 2147 372 2553 
Q 372 3047 722 3315 
Q 1072 3584 1716 3584 
Q 2034 3584 2315 3537 
Q 2597 3491 2834 3397 
z
" transform="scale(0.015625)"/>
       <path id="DejaVuSans-75" d="M 544 1381 
L 544 3500 
L 1119 3500 
L 1119 1403 
Q 1119 906 1312 657 
Q 1506 409 1894 409 
Q 2359 409 2629 706 
Q 2900 1003 2900 1516 
L 2900 3500 
L 3475 3500 
L 3475 0 
L 2900 0 
L 2900 538 
Q 2691 219 2414 64 
Q 2138 -91 1772 -91 
Q 1169 -91 856 284 
Q 544 659 544 1381 
z
M 1991 3584 
L 1991 3584 
z
" transform="scale(0.015625)"/>
       <path id="DejaVuSans-70" d="M 1159 525 
L 1159 -1331 
L 581 -1331 
L 581 3500 
L 1159 3500 
L 1159 2969 
Q 1341 3281 1617 3432 
Q 1894 3584 2278 3584 
Q 2916 3584 3314 3078 
Q 3713 2572 3713 1747 
Q 3713 922 3314 415 
Q 2916 -91 2278 -91 
Q 1894 -91 1617 61 
Q 1341 213 1159 525 
z
M 3116 1747 
Q 3116 2381 2855 2742 
Q 2594 3103 2138 3103 
Q 1681 3103 1420 2742 
Q 1159 2381 1159 1747 
Q 1159 1113 1420 752 
Q 1681 391 2138 391 
Q 2594 391 2855 752 
Q 3116 1113 3116 1747 
z
" transform="scale(0.015625)"/>
       <path id="DejaVuSans-6b" d="M 581 4863 
L 1159 4863 
L 1159 1991 
L 2875 3500 
L 3609 3500 
L 1753 1863 
L 3688 0 
L 2938 0 
L 1159 1709 
L 1159 0 
L 581 0 
L 581 4863 
z
" transform="scale(0.015625)"/>
       <path id="DejaVuSans-77" d="M 269 3500 
L 844 3500 
L 1563 769 
L 2278 3500 
L 2956 3500 
L 3675 769 
L 4391 3500 
L 4966 3500 
L 4050 0 
L 3372 0 
L 2619 2869 
L 1863 0 
L 1184 0 
L 269 3500 
z
" transform="scale(0.015625)"/>
      </defs>
      <use xlink:href="#DejaVuSans-63"/>
      <use xlink:href="#DejaVuSans-6f" x="54.980469"/>
      <use xlink:href="#DejaVuSans-6e" x="116.162109"/>
      <use xlink:href="#DejaVuSans-73" x="179.541016"/>
      <use xlink:href="#DejaVuSans-75" x="231.640625"/>
      <use xlink:href="#DejaVuSans-6d" x="295.019531"/>
      <use xlink:href="#DejaVuSans-70" x="392.431641"/>
      <use xlink:href="#DejaVuSans-74" x="455.908203"/>
      <use xlink:href="#DejaVuSans-69" x="495.117188"/>
      <use xlink:href="#DejaVuSans-6f" x="522.900391"/>
      <use xlink:href="#DejaVuSans-6e" x="584.082031"/>
      <use xlink:href="#DejaVuSans-20" x="647.460938"/>
      <use xlink:href="#DejaVuSans-5b" x="679.248047"/>
      <use xlink:href="#DejaVuSans-60" x="718.261719"/>
      <use xlink:href="#DejaVuSans-6b" x="768.261719"/>
      <use xlink:href="#DejaVuSans-77" x="826.171875"/>
      <use xlink:href="#DejaVuSans-60" x="907.958984"/>
      <use xlink:href="#DejaVuSans-5d" x="957.958984"/>
     </g>
    </g>
   </g>
   <g id="line2d_16">
    <path d="M 106.310085 276.545392 
L 123.505771 272.670754 
L 140.701457 266.972681 
L 157.897142 263.325974 
L 175.092828 261.730467 
L 192.288514 255.804464 
L 209.484199 250.79018 
L 226.679885 271.759036 
L 243.875571 299.109755 
L 261.071256 294.779258 
L 278.266942 294.779258 
L 295.462628 290.904621 
L 312.658313 287.485679 
L 329.853999 279.736404 
L 347.049685 271.303177 
L 364.24537 265.149409 
L 381.441056 260.134961 
L 398.636742 254.892747 
L 415.832427 248.511049 
L 433.028113 240.077822 
L 450.223799 234.151819 
L 467.419484 232.556477 
L 484.61517 229.365464 
L 501.810856 178.538747 
L 519.006541 50.446313 
L 536.202227 50.674242 
L 553.397913 50.902172 
L 570.593598 49.306747 
L 587.789284 74.150323 
L 604.98497 215.006399 
L 622.180655 211.81555 
L 639.376341 208.852467 
L 656.572027 204.977829 
L 673.767712 200.419404 
L 690.963398 196.316673 
L 708.159084 194.493401 
L 725.354769 191.986177 
L 742.550455 188.795328 
L 759.746141 185.376468 
L 776.941826 181.729678 
L 794.137512 178.538747 
L 811.333198 175.803757 
L 828.528883 174.43618 
L 845.724569 172.612827 
L 862.920255 171.01732 
L 880.11594 169.421896 
L 897.311626 166.914753 
L 914.507312 164.86347 
L 931.702997 163.040034 
L 948.898683 160.988751 
L 966.094369 89.649036 
L 983.290054 90.332742 
L 1000.48574 92.612037 
L 1017.681426 91.700319 
L 1034.877111 91.016531 
L 1052.072797 90.332742 
L 1069.268483 88.965248 
L 1086.464168 88.737318 
L 1103.659854 87.597753 
L 1120.85554 87.141894 
" clip-path="url(#pd0b66bc1db)" style="fill: none; stroke: #1f77b4; stroke-width: 1.5; stroke-linecap: square"/>
    <defs>
     <path id="m836850cbc3" d="M 0 -3 
L -3 3 
L 3 3 
z
" style="stroke: #1f77b4; stroke-linejoin: miter"/>
    </defs>
    <g clip-path="url(#pd0b66bc1db)">
     <use xlink:href="#m836850cbc3" x="106.310085" y="276.545392" style="fill: #1f77b4; stroke: #1f77b4; stroke-linejoin: miter"/>
     <use xlink:href="#m836850cbc3" x="123.505771" y="272.670754" style="fill: #1f77b4; stroke: #1f77b4; stroke-linejoin: miter"/>
     <use xlink:href="#m836850cbc3" x="140.701457" y="266.972681" style="fill: #1f77b4; stroke: #1f77b4; stroke-linejoin: miter"/>
     <use xlink:href="#m836850cbc3" x="157.897142" y="263.325974" style="fill: #1f77b4; stroke: #1f77b4; stroke-linejoin: miter"/>
     <use xlink:href="#m836850cbc3" x="175.092828" y="261.730467" style="fill: #1f77b4; stroke: #1f77b4; stroke-linejoin: miter"/>
     <use xlink:href="#m836850cbc3" x="192.288514" y="255.804464" style="fill: #1f77b4; stroke: #1f77b4; stroke-linejoin: miter"/>
     <use xlink:href="#m836850cbc3" x="209.484199" y="250.79018" style="fill: #1f77b4; stroke: #1f77b4; stroke-linejoin: miter"/>
     <use xlink:href="#m836850cbc3" x="226.679885" y="271.759036" style="fill: #1f77b4; stroke: #1f77b4; stroke-linejoin: miter"/>
     <use xlink:href="#m836850cbc3" x="243.875571" y="299.109755" style="fill: #1f77b4; stroke: #1f77b4; stroke-linejoin: miter"/>
     <use xlink:href="#m836850cbc3" x="261.071256" y="294.779258" style="fill: #1f77b4; stroke: #1f77b4; stroke-linejoin: miter"/>
     <use xlink:href="#m836850cbc3" x="278.266942" y="294.779258" style="fill: #1f77b4; stroke: #1f77b4; stroke-linejoin: miter"/>
     <use xlink:href="#m836850cbc3" x="295.462628" y="290.904621" style="fill: #1f77b4; stroke: #1f77b4; stroke-linejoin: miter"/>
     <use xlink:href="#m836850cbc3" x="312.658313" y="287.485679" style="fill: #1f77b4; stroke: #1f77b4; stroke-linejoin: miter"/>
     <use xlink:href="#m836850cbc3" x="329.853999" y="279.736404" style="fill: #1f77b4; stroke: #1f77b4; stroke-linejoin: miter"/>
     <use xlink:href="#m836850cbc3" x="347.049685" y="271.303177" style="fill: #1f77b4; stroke: #1f77b4; stroke-linejoin: miter"/>
     <use xlink:href="#m836850cbc3" x="364.24537" y="265.149409" style="fill: #1f77b4; stroke: #1f77b4; stroke-linejoin: miter"/>
     <use xlink:href="#m836850cbc3" x="381.441056" y="260.134961" style="fill: #1f77b4; stroke: #1f77b4; stroke-linejoin: miter"/>
     <use xlink:href="#m836850cbc3" x="398.636742" y="254.892747" style="fill: #1f77b4; stroke: #1f77b4; stroke-linejoin: miter"/>
     <use xlink:href="#m836850cbc3" x="415.832427" y="248.511049" style="fill: #1f77b4; stroke: #1f77b4; stroke-linejoin: miter"/>
     <use xlink:href="#m836850cbc3" x="433.028113" y="240.077822" style="fill: #1f77b4; stroke: #1f77b4; stroke-linejoin: miter"/>
     <use xlink:href="#m836850cbc3" x="450.223799" y="234.151819" style="fill: #1f77b4; stroke: #1f77b4; stroke-linejoin: miter"/>
     <use xlink:href="#m836850cbc3" x="467.419484" y="232.556477" style="fill: #1f77b4; stroke: #1f77b4; stroke-linejoin: miter"/>
     <use xlink:href="#m836850cbc3" x="484.61517" y="229.365464" style="fill: #1f77b4; stroke: #1f77b4; stroke-linejoin: miter"/>
     <use xlink:href="#m836850cbc3" x="501.810856" y="178.538747" style="fill: #1f77b4; stroke: #1f77b4; stroke-linejoin: miter"/>
     <use xlink:href="#m836850cbc3" x="519.006541" y="50.446313" style="fill: #1f77b4; stroke: #1f77b4; stroke-linejoin: miter"/>
     <use xlink:href="#m836850cbc3" x="536.202227" y="50.674242" style="fill: #1f77b4; stroke: #1f77b4; stroke-linejoin: miter"/>
     <use xlink:href="#m836850cbc3" x="553.397913" y="50.902172" style="fill: #1f77b4; stroke: #1f77b4; stroke-linejoin: miter"/>
     <use xlink:href="#m836850cbc3" x="570.593598" y="49.306747" style="fill: #1f77b4; stroke: #1f77b4; stroke-linejoin: miter"/>
     <use xlink:href="#m836850cbc3" x="587.789284" y="74.150323" style="fill: #1f77b4; stroke: #1f77b4; stroke-linejoin: miter"/>
     <use xlink:href="#m836850cbc3" x="604.98497" y="215.006399" style="fill: #1f77b4; stroke: #1f77b4; stroke-linejoin: miter"/>
     <use xlink:href="#m836850cbc3" x="622.180655" y="211.81555" style="fill: #1f77b4; stroke: #1f77b4; stroke-linejoin: miter"/>
     <use xlink:href="#m836850cbc3" x="639.376341" y="208.852467" style="fill: #1f77b4; stroke: #1f77b4; stroke-linejoin: miter"/>
     <use xlink:href="#m836850cbc3" x="656.572027" y="204.977829" style="fill: #1f77b4; stroke: #1f77b4; stroke-linejoin: miter"/>
     <use xlink:href="#m836850cbc3" x="673.767712" y="200.419404" style="fill: #1f77b4; stroke: #1f77b4; stroke-linejoin: miter"/>
     <use xlink:href="#m836850cbc3" x="690.963398" y="196.316673" style="fill: #1f77b4; stroke: #1f77b4; stroke-linejoin: miter"/>
     <use xlink:href="#m836850cbc3" x="708.159084" y="194.493401" style="fill: #1f77b4; stroke: #1f77b4; stroke-linejoin: miter"/>
     <use xlink:href="#m836850cbc3" x="725.354769" y="191.986177" style="fill: #1f77b4; stroke: #1f77b4; stroke-linejoin: miter"/>
     <use xlink:href="#m836850cbc3" x="742.550455" y="188.795328" style="fill: #1f77b4; stroke: #1f77b4; stroke-linejoin: miter"/>
     <use xlink:href="#m836850cbc3" x="759.746141" y="185.376468" style="fill: #1f77b4; stroke: #1f77b4; stroke-linejoin: miter"/>
     <use xlink:href="#m836850cbc3" x="776.941826" y="181.729678" style="fill: #1f77b4; stroke: #1f77b4; stroke-linejoin: miter"/>
     <use xlink:href="#m836850cbc3" x="794.137512" y="178.538747" style="fill: #1f77b4; stroke: #1f77b4; stroke-linejoin: miter"/>
     <use xlink:href="#m836850cbc3" x="811.333198" y="175.803757" style="fill: #1f77b4; stroke: #1f77b4; stroke-linejoin: miter"/>
     <use xlink:href="#m836850cbc3" x="828.528883" y="174.43618" style="fill: #1f77b4; stroke: #1f77b4; stroke-linejoin: miter"/>
     <use xlink:href="#m836850cbc3" x="845.724569" y="172.612827" style="fill: #1f77b4; stroke: #1f77b4; stroke-linejoin: miter"/>
     <use xlink:href="#m836850cbc3" x="862.920255" y="171.01732" style="fill: #1f77b4; stroke: #1f77b4; stroke-linejoin: miter"/>
     <use xlink:href="#m836850cbc3" x="880.11594" y="169.421896" style="fill: #1f77b4; stroke: #1f77b4; stroke-linejoin: miter"/>
     <use xlink:href="#m836850cbc3" x="897.311626" y="166.914753" style="fill: #1f77b4; stroke: #1f77b4; stroke-linejoin: miter"/>
     <use xlink:href="#m836850cbc3" x="914.507312" y="164.86347" style="fill: #1f77b4; stroke: #1f77b4; stroke-linejoin: miter"/>
     <use xlink:href="#m836850cbc3" x="931.702997" y="163.040034" style="fill: #1f77b4; stroke: #1f77b4; stroke-linejoin: miter"/>
     <use xlink:href="#m836850cbc3" x="948.898683" y="160.988751" style="fill: #1f77b4; stroke: #1f77b4; stroke-linejoin: miter"/>
     <use xlink:href="#m836850cbc3" x="966.094369" y="89.649036" style="fill: #1f77b4; stroke: #1f77b4; stroke-linejoin: miter"/>
     <use xlink:href="#m836850cbc3" x="983.290054" y="90.332742" style="fill: #1f77b4; stroke: #1f77b4; stroke-linejoin: miter"/>
     <use xlink:href="#m836850cbc3" x="1000.48574" y="92.612037" style="fill: #1f77b4; stroke: #1f77b4; stroke-linejoin: miter"/>
     <use xlink:href="#m836850cbc3" x="1017.681426" y="91.700319" style="fill: #1f77b4; stroke: #1f77b4; stroke-linejoin: miter"/>
     <use xlink:href="#m836850cbc3" x="1034.877111" y="91.016531" style="fill: #1f77b4; stroke: #1f77b4; stroke-linejoin: miter"/>
     <use xlink:href="#m836850cbc3" x="1052.072797" y="90.332742" style="fill: #1f77b4; stroke: #1f77b4; stroke-linejoin: miter"/>
     <use xlink:href="#m836850cbc3" x="1069.268483" y="88.965248" style="fill: #1f77b4; stroke: #1f77b4; stroke-linejoin: miter"/>
     <use xlink:href="#m836850cbc3" x="1086.464168" y="88.737318" style="fill: #1f77b4; stroke: #1f77b4; stroke-linejoin: miter"/>
     <use xlink:href="#m836850cbc3" x="1103.659854" y="87.597753" style="fill: #1f77b4; stroke: #1f77b4; stroke-linejoin: miter"/>
     <use xlink:href="#m836850cbc3" x="1120.85554" y="87.141894" style="fill: #1f77b4; stroke: #1f77b4; stroke-linejoin: miter"/>
    </g>
   </g>
   <g id="line2d_17">
    <path d="M 106.310085 358.246052 
L 123.505771 354.971515 
L 140.701457 358.852716 
L 157.897142 349.857295 
L 175.092828 353.674335 
L 192.288514 353.989235 
L 209.484199 354.75901 
L 226.679885 346.294933 
L 243.875571 361.229976 
L 261.071256 368.129725 
L 278.266942 363.935264 
L 295.462628 361.352884 
L 312.658313 359.76148 
L 329.853999 359.309887 
L 347.049685 352.464454 
L 364.24537 342.712223 
L 381.441056 341.80313 
L 398.636742 335.51267 
L 415.832427 331.68759 
L 433.028113 328.618993 
L 450.223799 317.21497 
L 467.419484 316.563344 
L 484.61517 310.563663 
L 501.810856 302.595648 
L 519.006541 266.907535 
L 536.202227 177.919284 
L 553.397913 183.763075 
L 570.593598 180.68857 
L 587.789284 173.088131 
L 604.98497 188.094063 
L 622.180655 273.631045 
L 639.376341 269.43642 
L 656.572027 273.559991 
L 673.767712 279.888357 
L 690.963398 272.170261 
L 708.159084 270.773147 
L 725.354769 277.216709 
L 742.550455 266.772812 
L 759.746141 269.798416 
L 776.941826 272.771181 
L 794.137512 280.095775 
L 811.333198 274.815819 
L 828.528883 275.2213 
L 845.724569 271.458248 
L 862.920255 254.147258 
L 880.11594 258.668926 
L 897.311626 255.284608 
L 914.507312 253.181552 
L 931.702997 247.996936 
L 948.898683 242.218292 
L 966.094369 238.008406 
L 983.290054 188.687763 
L 1000.48574 189.14674 
L 1017.681426 194.299111 
L 1034.877111 193.114173 
L 1052.072797 196.855072 
L 1069.268483 192.943677 
L 1086.464168 191.370816 
L 1103.659854 195.639941 
L 1120.85554 193.870328 
" clip-path="url(#pd0b66bc1db)" style="fill: none; stroke: #b03a2e; stroke-width: 1.5; stroke-linecap: square"/>
    <defs>
     <path id="m5804cd16ff" d="M 0 2.5 
C 0.663008 2.5 1.29895 2.236584 1.767767 1.767767 
C 2.236584 1.29895 2.5 0.663008 2.5 0 
C 2.5 -0.663008 2.236584 -1.29895 1.767767 -1.767767 
C 1.29895 -2.236584 0.663008 -2.5 0 -2.5 
C -0.663008 -2.5 -1.29895 -2.236584 -1.767767 -1.767767 
C -2.236584 -1.29895 -2.5 -0.663008 -2.5 0 
C -2.5 0.663008 -2.236584 1.29895 -1.767767 1.767767 
C -1.29895 2.236584 -0.663008 2.5 0 2.5 
z
" style="stroke: #b03a2e"/>
    </defs>
    <g clip-path="url(#pd0b66bc1db)">
     <use xlink:href="#m5804cd16ff" x="106.310085" y="358.246052" style="fill: #b03a2e; stroke: #b03a2e"/>
     <use xlink:href="#m5804cd16ff" x="123.505771" y="354.971515" style="fill: #b03a2e; stroke: #b03a2e"/>
     <use xlink:href="#m5804cd16ff" x="140.701457" y="358.852716" style="fill: #b03a2e; stroke: #b03a2e"/>
     <use xlink:href="#m5804cd16ff" x="157.897142" y="349.857295" style="fill: #b03a2e; stroke: #b03a2e"/>
     <use xlink:href="#m5804cd16ff" x="175.092828" y="353.674335" style="fill: #b03a2e; stroke: #b03a2e"/>
     <use xlink:href="#m5804cd16ff" x="192.288514" y="353.989235" style="fill: #b03a2e; stroke: #b03a2e"/>
     <use xlink:href="#m5804cd16ff" x="209.484199" y="354.75901" style="fill: #b03a2e; stroke: #b03a2e"/>
     <use xlink:href="#m5804cd16ff" x="226.679885" y="346.294933" style="fill: #b03a2e; stroke: #b03a2e"/>
     <use xlink:href="#m5804cd16ff" x="243.875571" y="361.229976" style="fill: #b03a2e; stroke: #b03a2e"/>
     <use xlink:href="#m5804cd16ff" x="261.071256" y="368.129725" style="fill: #b03a2e; stroke: #b03a2e"/>
     <use xlink:href="#m5804cd16ff" x="278.266942" y="363.935264" style="fill: #b03a2e; stroke: #b03a2e"/>
     <use xlink:href="#m5804cd16ff" x="295.462628" y="361.352884" style="fill: #b03a2e; stroke: #b03a2e"/>
     <use xlink:href="#m5804cd16ff" x="312.658313" y="359.76148" style="fill: #b03a2e; stroke: #b03a2e"/>
     <use xlink:href="#m5804cd16ff" x="329.853999" y="359.309887" style="fill: #b03a2e; stroke: #b03a2e"/>
     <use xlink:href="#m5804cd16ff" x="347.049685" y="352.464454" style="fill: #b03a2e; stroke: #b03a2e"/>
     <use xlink:href="#m5804cd16ff" x="364.24537" y="342.712223" style="fill: #b03a2e; stroke: #b03a2e"/>
     <use xlink:href="#m5804cd16ff" x="381.441056" y="341.80313" style="fill: #b03a2e; stroke: #b03a2e"/>
     <use xlink:href="#m5804cd16ff" x="398.636742" y="335.51267" style="fill: #b03a2e; stroke: #b03a2e"/>
     <use xlink:href="#m5804cd16ff" x="415.832427" y="331.68759" style="fill: #b03a2e; stroke: #b03a2e"/>
     <use xlink:href="#m5804cd16ff" x="433.028113" y="328.618993" style="fill: #b03a2e; stroke: #b03a2e"/>
     <use xlink:href="#m5804cd16ff" x="450.223799" y="317.21497" style="fill: #b03a2e; stroke: #b03a2e"/>
     <use xlink:href="#m5804cd16ff" x="467.419484" y="316.563344" style="fill: #b03a2e; stroke: #b03a2e"/>
     <use xlink:href="#m5804cd16ff" x="484.61517" y="310.563663" style="fill: #b03a2e; stroke: #b03a2e"/>
     <use xlink:href="#m5804cd16ff" x="501.810856" y="302.595648" style="fill: #b03a2e; stroke: #b03a2e"/>
     <use xlink:href="#m5804cd16ff" x="519.006541" y="266.907535" style="fill: #b03a2e; stroke: #b03a2e"/>
     <use xlink:href="#m5804cd16ff" x="536.202227" y="177.919284" style="fill: #b03a2e; stroke: #b03a2e"/>
     <use xlink:href="#m5804cd16ff" x="553.397913" y="183.763075" style="fill: #b03a2e; stroke: #b03a2e"/>
     <use xlink:href="#m5804cd16ff" x="570.593598" y="180.68857" style="fill: #b03a2e; stroke: #b03a2e"/>
     <use xlink:href="#m5804cd16ff" x="587.789284" y="173.088131" style="fill: #b03a2e; stroke: #b03a2e"/>
     <use xlink:href="#m5804cd16ff" x="604.98497" y="188.094063" style="fill: #b03a2e; stroke: #b03a2e"/>
     <use xlink:href="#m5804cd16ff" x="622.180655" y="273.631045" style="fill: #b03a2e; stroke: #b03a2e"/>
     <use xlink:href="#m5804cd16ff" x="639.376341" y="269.43642" style="fill: #b03a2e; stroke: #b03a2e"/>
     <use xlink:href="#m5804cd16ff" x="656.572027" y="273.559991" style="fill: #b03a2e; stroke: #b03a2e"/>
     <use xlink:href="#m5804cd16ff" x="673.767712" y="279.888357" style="fill: #b03a2e; stroke: #b03a2e"/>
     <use xlink:href="#m5804cd16ff" x="690.963398" y="272.170261" style="fill: #b03a2e; stroke: #b03a2e"/>
     <use xlink:href="#m5804cd16ff" x="708.159084" y="270.773147" style="fill: #b03a2e; stroke: #b03a2e"/>
     <use xlink:href="#m5804cd16ff" x="725.354769" y="277.216709" style="fill: #b03a2e; stroke: #b03a2e"/>
     <use xlink:href="#m5804cd16ff" x="742.550455" y="266.772812" style="fill: #b03a2e; stroke: #b03a2e"/>
     <use xlink:href="#m5804cd16ff" x="759.746141" y="269.798416" style="fill: #b03a2e; stroke: #b03a2e"/>
     <use xlink:href="#m5804cd16ff" x="776.941826" y="272.771181" style="fill: #b03a2e; stroke: #b03a2e"/>
     <use xlink:href="#m5804cd16ff" x="794.137512" y="280.095775" style="fill: #b03a2e; stroke: #b03a2e"/>
     <use xlink:href="#m5804cd16ff" x="811.333198" y="274.815819" style="fill: #b03a2e; stroke: #b03a2e"/>
     <use xlink:href="#m5804cd16ff" x="828.528883" y="275.2213" style="fill: #b03a2e; stroke: #b03a2e"/>
     <use xlink:href="#m5804cd16ff" x="845.724569" y="271.458248" style="fill: #b03a2e; stroke: #b03a2e"/>
     <use xlink:href="#m5804cd16ff" x="862.920255" y="254.147258" style="fill: #b03a2e; stroke: #b03a2e"/>
     <use xlink:href="#m5804cd16ff" x="880.11594" y="258.668926" style="fill: #b03a2e; stroke: #b03a2e"/>
     <use xlink:href="#m5804cd16ff" x="897.311626" y="255.284608" style="fill: #b03a2e; stroke: #b03a2e"/>
     <use xlink:href="#m5804cd16ff" x="914.507312" y="253.181552" style="fill: #b03a2e; stroke: #b03a2e"/>
     <use xlink:href="#m5804cd16ff" x="931.702997" y="247.996936" style="fill: #b03a2e; stroke: #b03a2e"/>
     <use xlink:href="#m5804cd16ff" x="948.898683" y="242.218292" style="fill: #b03a2e; stroke: #b03a2e"/>
     <use xlink:href="#m5804cd16ff" x="966.094369" y="238.008406" style="fill: #b03a2e; stroke: #b03a2e"/>
     <use xlink:href="#m5804cd16ff" x="983.290054" y="188.687763" style="fill: #b03a2e; stroke: #b03a2e"/>
     <use xlink:href="#m5804cd16ff" x="1000.48574" y="189.14674" style="fill: #b03a2e; stroke: #b03a2e"/>
     <use xlink:href="#m5804cd16ff" x="1017.681426" y="194.299111" style="fill: #b03a2e; stroke: #b03a2e"/>
     <use xlink:href="#m5804cd16ff" x="1034.877111" y="193.114173" style="fill: #b03a2e; stroke: #b03a2e"/>
     <use xlink:href="#m5804cd16ff" x="1052.072797" y="196.855072" style="fill: #b03a2e; stroke: #b03a2e"/>
     <use xlink:href="#m5804cd16ff" x="1069.268483" y="192.943677" style="fill: #b03a2e; stroke: #b03a2e"/>
     <use xlink:href="#m5804cd16ff" x="1086.464168" y="191.370816" style="fill: #b03a2e; stroke: #b03a2e"/>
     <use xlink:href="#m5804cd16ff" x="1103.659854" y="195.639941" style="fill: #b03a2e; stroke: #b03a2e"/>
     <use xlink:href="#m5804cd16ff" x="1120.85554" y="193.870328" style="fill: #b03a2e; stroke: #b03a2e"/>
    </g>
   </g>
   <g id="line2d_18">
    <path d="M 106.310085 319.168206 
L 123.505771 314.892354 
L 140.701457 310.088933 
L 157.897142 303.893977 
L 175.092828 300.395776 
L 192.288514 298.695412 
L 209.484199 292.057396 
L 226.679885 287.06789 
L 243.875571 306.363295 
L 261.071256 327.016759 
L 278.266942 317.777656 
L 295.462628 318.18806 
L 312.658313 313.015094 
L 329.853999 308.937799 
L 347.049685 300.193773 
L 364.24537 291.633372 
L 381.441056 285.625485 
L 398.636742 280.443002 
L 415.832427 274.941352 
L 433.028113 268.29185 
L 450.223799 259.609361 
L 467.419484 254.004166 
L 484.61517 252.489231 
L 501.810856 248.526802 
L 519.006541 197.300265 
L 536.202227 72.260428 
L 553.397913 101.973802 
L 570.593598 100.332841 
L 587.789284 100.711493 
L 604.98497 127.87309 
L 622.180655 258.641358 
L 639.376341 232.93718 
L 656.572027 229.304749 
L 673.767712 223.480978 
L 690.963398 217.14014 
L 708.159084 211.815386 
L 725.354769 209.710689 
L 742.550455 206.885447 
L 759.746141 203.623052 
L 776.941826 200.265646 
L 794.137512 196.621399 
L 811.333198 193.487164 
L 828.528883 190.868026 
L 845.724569 189.569451 
L 862.920255 189.949826 
L 880.11594 192.74988 
L 897.311626 191.542625 
L 914.507312 187.635579 
L 931.702997 183.691693 
L 948.898683 180.007571 
L 966.094369 176.626289 
L 983.290054 104.29207 
L 1000.48574 118.680427 
L 1017.681426 119.59075 
L 1034.877111 119.576719 
L 1052.072797 120.556537 
L 1069.268483 121.289226 
L 1086.464168 120.864792 
L 1103.659854 121.326394 
L 1120.85554 120.40803 
" clip-path="url(#pd0b66bc1db)" style="fill: none; stroke: #7fff00; stroke-width: 1.5; stroke-linecap: square"/>
    <defs>
     <path id="mcfee1d04df" d="M 0 2.5 
C 0.663008 2.5 1.29895 2.236584 1.767767 1.767767 
C 2.236584 1.29895 2.5 0.663008 2.5 0 
C 2.5 -0.663008 2.236584 -1.29895 1.767767 -1.767767 
C 1.29895 -2.236584 0.663008 -2.5 0 -2.5 
C -0.663008 -2.5 -1.29895 -2.236584 -1.767767 -1.767767 
C -2.236584 -1.29895 -2.5 -0.663008 -2.5 0 
C -2.5 0.663008 -2.236584 1.29895 -1.767767 1.767767 
C -1.29895 2.236584 -0.663008 2.5 0 2.5 
z
" style="stroke: #7fff00"/>
    </defs>
    <g clip-path="url(#pd0b66bc1db)">
     <use xlink:href="#mcfee1d04df" x="106.310085" y="319.168206" style="fill: #7fff00; stroke: #7fff00"/>
     <use xlink:href="#mcfee1d04df" x="123.505771" y="314.892354" style="fill: #7fff00; stroke: #7fff00"/>
     <use xlink:href="#mcfee1d04df" x="140.701457" y="310.088933" style="fill: #7fff00; stroke: #7fff00"/>
     <use xlink:href="#mcfee1d04df" x="157.897142" y="303.893977" style="fill: #7fff00; stroke: #7fff00"/>
     <use xlink:href="#mcfee1d04df" x="175.092828" y="300.395776" style="fill: #7fff00; stroke: #7fff00"/>
     <use xlink:href="#mcfee1d04df" x="192.288514" y="298.695412" style="fill: #7fff00; stroke: #7fff00"/>
     <use xlink:href="#mcfee1d04df" x="209.484199" y="292.057396" style="fill: #7fff00; stroke: #7fff00"/>
     <use xlink:href="#mcfee1d04df" x="226.679885" y="287.06789" style="fill: #7fff00; stroke: #7fff00"/>
     <use xlink:href="#mcfee1d04df" x="243.875571" y="306.363295" style="fill: #7fff00; stroke: #7fff00"/>
     <use xlink:href="#mcfee1d04df" x="261.071256" y="327.016759" style="fill: #7fff00; stroke: #7fff00"/>
     <use xlink:href="#mcfee1d04df" x="278.266942" y="317.777656" style="fill: #7fff00; stroke: #7fff00"/>
     <use xlink:href="#mcfee1d04df" x="295.462628" y="318.18806" style="fill: #7fff00; stroke: #7fff00"/>
     <use xlink:href="#mcfee1d04df" x="312.658313" y="313.015094" style="fill: #7fff00; stroke: #7fff00"/>
     <use xlink:href="#mcfee1d04df" x="329.853999" y="308.937799" style="fill: #7fff00; stroke: #7fff00"/>
     <use xlink:href="#mcfee1d04df" x="347.049685" y="300.193773" style="fill: #7fff00; stroke: #7fff00"/>
     <use xlink:href="#mcfee1d04df" x="364.24537" y="291.633372" style="fill: #7fff00; stroke: #7fff00"/>
     <use xlink:href="#mcfee1d04df" x="381.441056" y="285.625485" style="fill: #7fff00; stroke: #7fff00"/>
     <use xlink:href="#mcfee1d04df" x="398.636742" y="280.443002" style="fill: #7fff00; stroke: #7fff00"/>
     <use xlink:href="#mcfee1d04df" x="415.832427" y="274.941352" style="fill: #7fff00; stroke: #7fff00"/>
     <use xlink:href="#mcfee1d04df" x="433.028113" y="268.29185" style="fill: #7fff00; stroke: #7fff00"/>
     <use xlink:href="#mcfee1d04df" x="450.223799" y="259.609361" style="fill: #7fff00; stroke: #7fff00"/>
     <use xlink:href="#mcfee1d04df" x="467.419484" y="254.004166" style="fill: #7fff00; stroke: #7fff00"/>
     <use xlink:href="#mcfee1d04df" x="484.61517" y="252.489231" style="fill: #7fff00; stroke: #7fff00"/>
     <use xlink:href="#mcfee1d04df" x="501.810856" y="248.526802" style="fill: #7fff00; stroke: #7fff00"/>
     <use xlink:href="#mcfee1d04df" x="519.006541" y="197.300265" style="fill: #7fff00; stroke: #7fff00"/>
     <use xlink:href="#mcfee1d04df" x="536.202227" y="72.260428" style="fill: #7fff00; stroke: #7fff00"/>
     <use xlink:href="#mcfee1d04df" x="553.397913" y="101.973802" style="fill: #7fff00; stroke: #7fff00"/>
     <use xlink:href="#mcfee1d04df" x="570.593598" y="100.332841" style="fill: #7fff00; stroke: #7fff00"/>
     <use xlink:href="#mcfee1d04df" x="587.789284" y="100.711493" style="fill: #7fff00; stroke: #7fff00"/>
     <use xlink:href="#mcfee1d04df" x="604.98497" y="127.87309" style="fill: #7fff00; stroke: #7fff00"/>
     <use xlink:href="#mcfee1d04df" x="622.180655" y="258.641358" style="fill: #7fff00; stroke: #7fff00"/>
     <use xlink:href="#mcfee1d04df" x="639.376341" y="232.93718" style="fill: #7fff00; stroke: #7fff00"/>
     <use xlink:href="#mcfee1d04df" x="656.572027" y="229.304749" style="fill: #7fff00; stroke: #7fff00"/>
     <use xlink:href="#mcfee1d04df" x="673.767712" y="223.480978" style="fill: #7fff00; stroke: #7fff00"/>
     <use xlink:href="#mcfee1d04df" x="690.963398" y="217.14014" style="fill: #7fff00; stroke: #7fff00"/>
     <use xlink:href="#mcfee1d04df" x="708.159084" y="211.815386" style="fill: #7fff00; stroke: #7fff00"/>
     <use xlink:href="#mcfee1d04df" x="725.354769" y="209.710689" style="fill: #7fff00; stroke: #7fff00"/>
     <use xlink:href="#mcfee1d04df" x="742.550455" y="206.885447" style="fill: #7fff00; stroke: #7fff00"/>
     <use xlink:href="#mcfee1d04df" x="759.746141" y="203.623052" style="fill: #7fff00; stroke: #7fff00"/>
     <use xlink:href="#mcfee1d04df" x="776.941826" y="200.265646" style="fill: #7fff00; stroke: #7fff00"/>
     <use xlink:href="#mcfee1d04df" x="794.137512" y="196.621399" style="fill: #7fff00; stroke: #7fff00"/>
     <use xlink:href="#mcfee1d04df" x="811.333198" y="193.487164" style="fill: #7fff00; stroke: #7fff00"/>
     <use xlink:href="#mcfee1d04df" x="828.528883" y="190.868026" style="fill: #7fff00; stroke: #7fff00"/>
     <use xlink:href="#mcfee1d04df" x="845.724569" y="189.569451" style="fill: #7fff00; stroke: #7fff00"/>
     <use xlink:href="#mcfee1d04df" x="862.920255" y="189.949826" style="fill: #7fff00; stroke: #7fff00"/>
     <use xlink:href="#mcfee1d04df" x="880.11594" y="192.74988" style="fill: #7fff00; stroke: #7fff00"/>
     <use xlink:href="#mcfee1d04df" x="897.311626" y="191.542625" style="fill: #7fff00; stroke: #7fff00"/>
     <use xlink:href="#mcfee1d04df" x="914.507312" y="187.635579" style="fill: #7fff00; stroke: #7fff00"/>
     <use xlink:href="#mcfee1d04df" x="931.702997" y="183.691693" style="fill: #7fff00; stroke: #7fff00"/>
     <use xlink:href="#mcfee1d04df" x="948.898683" y="180.007571" style="fill: #7fff00; stroke: #7fff00"/>
     <use xlink:href="#mcfee1d04df" x="966.094369" y="176.626289" style="fill: #7fff00; stroke: #7fff00"/>
     <use xlink:href="#mcfee1d04df" x="983.290054" y="104.29207" style="fill: #7fff00; stroke: #7fff00"/>
     <use xlink:href="#mcfee1d04df" x="1000.48574" y="118.680427" style="fill: #7fff00; stroke: #7fff00"/>
     <use xlink:href="#mcfee1d04df" x="1017.681426" y="119.59075" style="fill: #7fff00; stroke: #7fff00"/>
     <use xlink:href="#mcfee1d04df" x="1034.877111" y="119.576719" style="fill: #7fff00; stroke: #7fff00"/>
     <use xlink:href="#mcfee1d04df" x="1052.072797" y="120.556537" style="fill: #7fff00; stroke: #7fff00"/>
     <use xlink:href="#mcfee1d04df" x="1069.268483" y="121.289226" style="fill: #7fff00; stroke: #7fff00"/>
     <use xlink:href="#mcfee1d04df" x="1086.464168" y="120.864792" style="fill: #7fff00; stroke: #7fff00"/>
     <use xlink:href="#mcfee1d04df" x="1103.659854" y="121.326394" style="fill: #7fff00; stroke: #7fff00"/>
     <use xlink:href="#mcfee1d04df" x="1120.85554" y="120.40803" style="fill: #7fff00; stroke: #7fff00"/>
    </g>
   </g>
   <g id="line2d_19">
    <path d="M 106.310085 362.97924 
L 123.505771 254.131012 
L 140.701457 234.267835 
L 157.897142 295.659798 
L 175.092828 346.397985 
L 192.288514 344.647408 
L 209.484199 464.804647 
L 226.679885 477.860954 
L 243.875571 543.488565 
L 261.071256 478.715402 
L 278.266942 273.130223 
L 295.462628 300.973722 
L 312.658313 310.603538 
L 329.853999 193.322904 
L 347.049685 404.625027 
L 364.24537 300.15997 
L 381.441056 394.767281 
L 398.636742 398.255472 
L 415.832427 343.34547 
L 433.028113 396.115331 
L 450.223799 392.219525 
L 467.419484 357.938044 
L 484.61517 367.84108 
L 501.810856 367.722274 
L 519.006541 346.142324 
L 536.202227 336.231247 
L 553.397913 288.337502 
L 570.593598 276.505188 
L 587.789284 318.266662 
L 604.98497 342.310187 
L 622.180655 346.278359 
L 639.376341 334.648376 
L 656.572027 327.933071 
L 673.767712 320.582058 
L 690.963398 315.139318 
L 708.159084 309.180497 
L 725.354769 303.075465 
L 742.550455 294.820611 
L 759.746141 240.906015 
L 776.941826 88.664213 
L 794.137512 208.811114 
L 811.333198 263.618721 
L 828.528883 269.586076 
L 845.724569 327.784892 
L 862.920255 329.553848 
L 880.11594 317.632923 
L 897.311626 297.928755 
L 914.507312 281.329942 
L 931.702997 270.573278 
L 948.898683 259.39341 
L 966.094369 251.15874 
L 983.290054 241.563056 
L 1000.48574 235.158221 
L 1017.681426 116.034623 
L 1034.877111 87.664294 
L 1052.072797 213.490971 
L 1069.268483 221.238112 
L 1086.464168 211.004259 
L 1103.659854 199.027212 
L 1120.85554 192.034913 
" clip-path="url(#pd0b66bc1db)" style="fill: none; stroke: #6c3483; stroke-width: 1.5; stroke-linecap: square"/>
    <defs>
     <path id="m6475b3e52b" d="M 0 2.5 
C 0.663008 2.5 1.29895 2.236584 1.767767 1.767767 
C 2.236584 1.29895 2.5 0.663008 2.5 0 
C 2.5 -0.663008 2.236584 -1.29895 1.767767 -1.767767 
C 1.29895 -2.236584 0.663008 -2.5 0 -2.5 
C -0.663008 -2.5 -1.29895 -2.236584 -1.767767 -1.767767 
C -2.236584 -1.29895 -2.5 -0.663008 -2.5 0 
C -2.5 0.663008 -2.236584 1.29895 -1.767767 1.767767 
C -1.29895 2.236584 -0.663008 2.5 0 2.5 
z
" style="stroke: #6c3483"/>
    </defs>
    <g clip-path="url(#pd0b66bc1db)">
     <use xlink:href="#m6475b3e52b" x="106.310085" y="362.97924" style="fill: #6c3483; stroke: #6c3483"/>
     <use xlink:href="#m6475b3e52b" x="123.505771" y="254.131012" style="fill: #6c3483; stroke: #6c3483"/>
     <use xlink:href="#m6475b3e52b" x="140.701457" y="234.267835" style="fill: #6c3483; stroke: #6c3483"/>
     <use xlink:href="#m6475b3e52b" x="157.897142" y="295.659798" style="fill: #6c3483; stroke: #6c3483"/>
     <use xlink:href="#m6475b3e52b" x="175.092828" y="346.397985" style="fill: #6c3483; stroke: #6c3483"/>
     <use xlink:href="#m6475b3e52b" x="192.288514" y="344.647408" style="fill: #6c3483; stroke: #6c3483"/>
     <use xlink:href="#m6475b3e52b" x="209.484199" y="464.804647" style="fill: #6c3483; stroke: #6c3483"/>
     <use xlink:href="#m6475b3e52b" x="226.679885" y="477.860954" style="fill: #6c3483; stroke: #6c3483"/>
     <use xlink:href="#m6475b3e52b" x="243.875571" y="543.488565" style="fill: #6c3483; stroke: #6c3483"/>
     <use xlink:href="#m6475b3e52b" x="261.071256" y="478.715402" style="fill: #6c3483; stroke: #6c3483"/>
     <use xlink:href="#m6475b3e52b" x="278.266942" y="273.130223" style="fill: #6c3483; stroke: #6c3483"/>
     <use xlink:href="#m6475b3e52b" x="295.462628" y="300.973722" style="fill: #6c3483; stroke: #6c3483"/>
     <use xlink:href="#m6475b3e52b" x="312.658313" y="310.603538" style="fill: #6c3483; stroke: #6c3483"/>
     <use xlink:href="#m6475b3e52b" x="329.853999" y="193.322904" style="fill: #6c3483; stroke: #6c3483"/>
     <use xlink:href="#m6475b3e52b" x="347.049685" y="404.625027" style="fill: #6c3483; stroke: #6c3483"/>
     <use xlink:href="#m6475b3e52b" x="364.24537" y="300.15997" style="fill: #6c3483; stroke: #6c3483"/>
     <use xlink:href="#m6475b3e52b" x="381.441056" y="394.767281" style="fill: #6c3483; stroke: #6c3483"/>
     <use xlink:href="#m6475b3e52b" x="398.636742" y="398.255472" style="fill: #6c3483; stroke: #6c3483"/>
     <use xlink:href="#m6475b3e52b" x="415.832427" y="343.34547" style="fill: #6c3483; stroke: #6c3483"/>
     <use xlink:href="#m6475b3e52b" x="433.028113" y="396.115331" style="fill: #6c3483; stroke: #6c3483"/>
     <use xlink:href="#m6475b3e52b" x="450.223799" y="392.219525" style="fill: #6c3483; stroke: #6c3483"/>
     <use xlink:href="#m6475b3e52b" x="467.419484" y="357.938044" style="fill: #6c3483; stroke: #6c3483"/>
     <use xlink:href="#m6475b3e52b" x="484.61517" y="367.84108" style="fill: #6c3483; stroke: #6c3483"/>
     <use xlink:href="#m6475b3e52b" x="501.810856" y="367.722274" style="fill: #6c3483; stroke: #6c3483"/>
     <use xlink:href="#m6475b3e52b" x="519.006541" y="346.142324" style="fill: #6c3483; stroke: #6c3483"/>
     <use xlink:href="#m6475b3e52b" x="536.202227" y="336.231247" style="fill: #6c3483; stroke: #6c3483"/>
     <use xlink:href="#m6475b3e52b" x="553.397913" y="288.337502" style="fill: #6c3483; stroke: #6c3483"/>
     <use xlink:href="#m6475b3e52b" x="570.593598" y="276.505188" style="fill: #6c3483; stroke: #6c3483"/>
     <use xlink:href="#m6475b3e52b" x="587.789284" y="318.266662" style="fill: #6c3483; stroke: #6c3483"/>
     <use xlink:href="#m6475b3e52b" x="604.98497" y="342.310187" style="fill: #6c3483; stroke: #6c3483"/>
     <use xlink:href="#m6475b3e52b" x="622.180655" y="346.278359" style="fill: #6c3483; stroke: #6c3483"/>
     <use xlink:href="#m6475b3e52b" x="639.376341" y="334.648376" style="fill: #6c3483; stroke: #6c3483"/>
     <use xlink:href="#m6475b3e52b" x="656.572027" y="327.933071" style="fill: #6c3483; stroke: #6c3483"/>
     <use xlink:href="#m6475b3e52b" x="673.767712" y="320.582058" style="fill: #6c3483; stroke: #6c3483"/>
     <use xlink:href="#m6475b3e52b" x="690.963398" y="315.139318" style="fill: #6c3483; stroke: #6c3483"/>
     <use xlink:href="#m6475b3e52b" x="708.159084" y="309.180497" style="fill: #6c3483; stroke: #6c3483"/>
     <use xlink:href="#m6475b3e52b" x="725.354769" y="303.075465" style="fill: #6c3483; stroke: #6c3483"/>
     <use xlink:href="#m6475b3e52b" x="742.550455" y="294.820611" style="fill: #6c3483; stroke: #6c3483"/>
     <use xlink:href="#m6475b3e52b" x="759.746141" y="240.906015" style="fill: #6c3483; stroke: #6c3483"/>
     <use xlink:href="#m6475b3e52b" x="776.941826" y="88.664213" style="fill: #6c3483; stroke: #6c3483"/>
     <use xlink:href="#m6475b3e52b" x="794.137512" y="208.811114" style="fill: #6c3483; stroke: #6c3483"/>
     <use xlink:href="#m6475b3e52b" x="811.333198" y="263.618721" style="fill: #6c3483; stroke: #6c3483"/>
     <use xlink:href="#m6475b3e52b" x="828.528883" y="269.586076" style="fill: #6c3483; stroke: #6c3483"/>
     <use xlink:href="#m6475b3e52b" x="845.724569" y="327.784892" style="fill: #6c3483; stroke: #6c3483"/>
     <use xlink:href="#m6475b3e52b" x="862.920255" y="329.553848" style="fill: #6c3483; stroke: #6c3483"/>
     <use xlink:href="#m6475b3e52b" x="880.11594" y="317.632923" style="fill: #6c3483; stroke: #6c3483"/>
     <use xlink:href="#m6475b3e52b" x="897.311626" y="297.928755" style="fill: #6c3483; stroke: #6c3483"/>
     <use xlink:href="#m6475b3e52b" x="914.507312" y="281.329942" style="fill: #6c3483; stroke: #6c3483"/>
     <use xlink:href="#m6475b3e52b" x="931.702997" y="270.573278" style="fill: #6c3483; stroke: #6c3483"/>
     <use xlink:href="#m6475b3e52b" x="948.898683" y="259.39341" style="fill: #6c3483; stroke: #6c3483"/>
     <use xlink:href="#m6475b3e52b" x="966.094369" y="251.15874" style="fill: #6c3483; stroke: #6c3483"/>
     <use xlink:href="#m6475b3e52b" x="983.290054" y="241.563056" style="fill: #6c3483; stroke: #6c3483"/>
     <use xlink:href="#m6475b3e52b" x="1000.48574" y="235.158221" style="fill: #6c3483; stroke: #6c3483"/>
     <use xlink:href="#m6475b3e52b" x="1017.681426" y="116.034623" style="fill: #6c3483; stroke: #6c3483"/>
     <use xlink:href="#m6475b3e52b" x="1034.877111" y="87.664294" style="fill: #6c3483; stroke: #6c3483"/>
     <use xlink:href="#m6475b3e52b" x="1052.072797" y="213.490971" style="fill: #6c3483; stroke: #6c3483"/>
     <use xlink:href="#m6475b3e52b" x="1069.268483" y="221.238112" style="fill: #6c3483; stroke: #6c3483"/>
     <use xlink:href="#m6475b3e52b" x="1086.464168" y="211.004259" style="fill: #6c3483; stroke: #6c3483"/>
     <use xlink:href="#m6475b3e52b" x="1103.659854" y="199.027212" style="fill: #6c3483; stroke: #6c3483"/>
     <use xlink:href="#m6475b3e52b" x="1120.85554" y="192.034913" style="fill: #6c3483; stroke: #6c3483"/>
    </g>
   </g>
   <g id="patch_3">
    <path d="M 55.582813 568.197656 
L 55.582813 24.597656 
" style="fill: none; stroke: #000000; stroke-width: 0.8; stroke-linejoin: miter; stroke-linecap: square"/>
   </g>
   <g id="patch_4">
    <path d="M 1171.582813 568.197656 
L 1171.582813 24.597656 
" style="fill: none; stroke: #000000; stroke-width: 0.8; stroke-linejoin: miter; stroke-linecap: square"/>
   </g>
   <g id="patch_5">
    <path d="M 55.582813 568.197656 
L 1171.582813 568.197656 
" style="fill: none; stroke: #000000; stroke-width: 0.8; stroke-linejoin: miter; stroke-linecap: square"/>
   </g>
   <g id="patch_6">
    <path d="M 55.582813 24.597656 
L 1171.582813 24.597656 
" style="fill: none; stroke: #000000; stroke-width: 0.8; stroke-linejoin: miter; stroke-linecap: square"/>
   </g>
   <g id="text_18">
    <!-- Relationship between prediction and real data for recorrent models -->
    <g transform="translate(361.2125 18.597656)scale(0.15 -0.15)">
     <defs>
      <path id="DejaVuSans-52" d="M 2841 2188 
Q 3044 2119 3236 1894 
Q 3428 1669 3622 1275 
L 4263 0 
L 3584 0 
L 2988 1197 
Q 2756 1666 2539 1819 
Q 2322 1972 1947 1972 
L 1259 1972 
L 1259 0 
L 628 0 
L 628 4666 
L 2053 4666 
Q 2853 4666 3247 4331 
Q 3641 3997 3641 3322 
Q 3641 2881 3436 2590 
Q 3231 2300 2841 2188 
z
M 1259 4147 
L 1259 2491 
L 2053 2491 
Q 2509 2491 2742 2702 
Q 2975 2913 2975 3322 
Q 2975 3731 2742 3939 
Q 2509 4147 2053 4147 
L 1259 4147 
z
" transform="scale(0.015625)"/>
      <path id="DejaVuSans-6c" d="M 603 4863 
L 1178 4863 
L 1178 0 
L 603 0 
L 603 4863 
z
" transform="scale(0.015625)"/>
      <path id="DejaVuSans-61" d="M 2194 1759 
Q 1497 1759 1228 1600 
Q 959 1441 959 1056 
Q 959 750 1161 570 
Q 1363 391 1709 391 
Q 2188 391 2477 730 
Q 2766 1069 2766 1631 
L 2766 1759 
L 2194 1759 
z
M 3341 1997 
L 3341 0 
L 2766 0 
L 2766 531 
Q 2569 213 2275 61 
Q 1981 -91 1556 -91 
Q 1019 -91 701 211 
Q 384 513 384 1019 
Q 384 1609 779 1909 
Q 1175 2209 1959 2209 
L 2766 2209 
L 2766 2266 
Q 2766 2663 2505 2880 
Q 2244 3097 1772 3097 
Q 1472 3097 1187 3025 
Q 903 2953 641 2809 
L 641 3341 
Q 956 3463 1253 3523 
Q 1550 3584 1831 3584 
Q 2591 3584 2966 3190 
Q 3341 2797 3341 1997 
z
" transform="scale(0.015625)"/>
      <path id="DejaVuSans-68" d="M 3513 2113 
L 3513 0 
L 2938 0 
L 2938 2094 
Q 2938 2591 2744 2837 
Q 2550 3084 2163 3084 
Q 1697 3084 1428 2787 
Q 1159 2491 1159 1978 
L 1159 0 
L 581 0 
L 581 4863 
L 1159 4863 
L 1159 2956 
Q 1366 3272 1645 3428 
Q 1925 3584 2291 3584 
Q 2894 3584 3203 3211 
Q 3513 2838 3513 2113 
z
" transform="scale(0.015625)"/>
      <path id="DejaVuSans-62" d="M 3116 1747 
Q 3116 2381 2855 2742 
Q 2594 3103 2138 3103 
Q 1681 3103 1420 2742 
Q 1159 2381 1159 1747 
Q 1159 1113 1420 752 
Q 1681 391 2138 391 
Q 2594 391 2855 752 
Q 3116 1113 3116 1747 
z
M 1159 2969 
Q 1341 3281 1617 3432 
Q 1894 3584 2278 3584 
Q 2916 3584 3314 3078 
Q 3713 2572 3713 1747 
Q 3713 922 3314 415 
Q 2916 -91 2278 -91 
Q 1894 -91 1617 61 
Q 1341 213 1159 525 
L 1159 0 
L 581 0 
L 581 4863 
L 1159 4863 
L 1159 2969 
z
" transform="scale(0.015625)"/>
      <path id="DejaVuSans-72" d="M 2631 2963 
Q 2534 3019 2420 3045 
Q 2306 3072 2169 3072 
Q 1681 3072 1420 2755 
Q 1159 2438 1159 1844 
L 1159 0 
L 581 0 
L 581 3500 
L 1159 3500 
L 1159 2956 
Q 1341 3275 1631 3429 
Q 1922 3584 2338 3584 
Q 2397 3584 2469 3576 
Q 2541 3569 2628 3553 
L 2631 2963 
z
" transform="scale(0.015625)"/>
      <path id="DejaVuSans-64" d="M 2906 2969 
L 2906 4863 
L 3481 4863 
L 3481 0 
L 2906 0 
L 2906 525 
Q 2725 213 2448 61 
Q 2172 -91 1784 -91 
Q 1150 -91 751 415 
Q 353 922 353 1747 
Q 353 2572 751 3078 
Q 1150 3584 1784 3584 
Q 2172 3584 2448 3432 
Q 2725 3281 2906 2969 
z
M 947 1747 
Q 947 1113 1208 752 
Q 1469 391 1925 391 
Q 2381 391 2643 752 
Q 2906 1113 2906 1747 
Q 2906 2381 2643 2742 
Q 2381 3103 1925 3103 
Q 1469 3103 1208 2742 
Q 947 2381 947 1747 
z
" transform="scale(0.015625)"/>
      <path id="DejaVuSans-66" d="M 2375 4863 
L 2375 4384 
L 1825 4384 
Q 1516 4384 1395 4259 
Q 1275 4134 1275 3809 
L 1275 3500 
L 2222 3500 
L 2222 3053 
L 1275 3053 
L 1275 0 
L 697 0 
L 697 3053 
L 147 3053 
L 147 3500 
L 697 3500 
L 697 3744 
Q 697 4328 969 4595 
Q 1241 4863 1831 4863 
L 2375 4863 
z
" transform="scale(0.015625)"/>
     </defs>
     <use xlink:href="#DejaVuSans-52"/>
     <use xlink:href="#DejaVuSans-65" x="64.982422"/>
     <use xlink:href="#DejaVuSans-6c" x="126.505859"/>
     <use xlink:href="#DejaVuSans-61" x="154.289062"/>
     <use xlink:href="#DejaVuSans-74" x="215.568359"/>
     <use xlink:href="#DejaVuSans-69" x="254.777344"/>
     <use xlink:href="#DejaVuSans-6f" x="282.560547"/>
     <use xlink:href="#DejaVuSans-6e" x="343.742188"/>
     <use xlink:href="#DejaVuSans-73" x="407.121094"/>
     <use xlink:href="#DejaVuSans-68" x="459.220703"/>
     <use xlink:href="#DejaVuSans-69" x="522.599609"/>
     <use xlink:href="#DejaVuSans-70" x="550.382812"/>
     <use xlink:href="#DejaVuSans-20" x="613.859375"/>
     <use xlink:href="#DejaVuSans-62" x="645.646484"/>
     <use xlink:href="#DejaVuSans-65" x="709.123047"/>
     <use xlink:href="#DejaVuSans-74" x="770.646484"/>
     <use xlink:href="#DejaVuSans-77" x="809.855469"/>
     <use xlink:href="#DejaVuSans-65" x="891.642578"/>
     <use xlink:href="#DejaVuSans-65" x="953.166016"/>
     <use xlink:href="#DejaVuSans-6e" x="1014.689453"/>
     <use xlink:href="#DejaVuSans-20" x="1078.068359"/>
     <use xlink:href="#DejaVuSans-70" x="1109.855469"/>
     <use xlink:href="#DejaVuSans-72" x="1173.332031"/>
     <use xlink:href="#DejaVuSans-65" x="1212.195312"/>
     <use xlink:href="#DejaVuSans-64" x="1273.71875"/>
     <use xlink:href="#DejaVuSans-69" x="1337.195312"/>
     <use xlink:href="#DejaVuSans-63" x="1364.978516"/>
     <use xlink:href="#DejaVuSans-74" x="1419.958984"/>
     <use xlink:href="#DejaVuSans-69" x="1459.167969"/>
     <use xlink:href="#DejaVuSans-6f" x="1486.951172"/>
     <use xlink:href="#DejaVuSans-6e" x="1548.132812"/>
     <use xlink:href="#DejaVuSans-20" x="1611.511719"/>
     <use xlink:href="#DejaVuSans-61" x="1643.298828"/>
     <use xlink:href="#DejaVuSans-6e" x="1704.578125"/>
     <use xlink:href="#DejaVuSans-64" x="1767.957031"/>
     <use xlink:href="#DejaVuSans-20" x="1831.433594"/>
     <use xlink:href="#DejaVuSans-72" x="1863.220703"/>
     <use xlink:href="#DejaVuSans-65" x="1902.083984"/>
     <use xlink:href="#DejaVuSans-61" x="1963.607422"/>
     <use xlink:href="#DejaVuSans-6c" x="2024.886719"/>
     <use xlink:href="#DejaVuSans-20" x="2052.669922"/>
     <use xlink:href="#DejaVuSans-64" x="2084.457031"/>
     <use xlink:href="#DejaVuSans-61" x="2147.933594"/>
     <use xlink:href="#DejaVuSans-74" x="2209.212891"/>
     <use xlink:href="#DejaVuSans-61" x="2248.421875"/>
     <use xlink:href="#DejaVuSans-20" x="2309.701172"/>
     <use xlink:href="#DejaVuSans-66" x="2341.488281"/>
     <use xlink:href="#DejaVuSans-6f" x="2376.693359"/>
     <use xlink:href="#DejaVuSans-72" x="2437.875"/>
     <use xlink:href="#DejaVuSans-20" x="2478.988281"/>
     <use xlink:href="#DejaVuSans-72" x="2510.775391"/>
     <use xlink:href="#DejaVuSans-65" x="2549.638672"/>
     <use xlink:href="#DejaVuSans-63" x="2611.162109"/>
     <use xlink:href="#DejaVuSans-6f" x="2666.142578"/>
     <use xlink:href="#DejaVuSans-72" x="2727.324219"/>
     <use xlink:href="#DejaVuSans-72" x="2766.6875"/>
     <use xlink:href="#DejaVuSans-65" x="2805.550781"/>
     <use xlink:href="#DejaVuSans-6e" x="2867.074219"/>
     <use xlink:href="#DejaVuSans-74" x="2930.453125"/>
     <use xlink:href="#DejaVuSans-20" x="2969.662109"/>
     <use xlink:href="#DejaVuSans-6d" x="3001.449219"/>
     <use xlink:href="#DejaVuSans-6f" x="3098.861328"/>
     <use xlink:href="#DejaVuSans-64" x="3160.042969"/>
     <use xlink:href="#DejaVuSans-65" x="3223.519531"/>
     <use xlink:href="#DejaVuSans-6c" x="3285.042969"/>
     <use xlink:href="#DejaVuSans-73" x="3312.826172"/>
    </g>
   </g>
   <g id="legend_1">
    <g id="patch_7">
     <path d="M 66.082813 124.666406 
L 243.523438 124.666406 
Q 246.523438 124.666406 246.523438 121.666406 
L 246.523438 35.097656 
Q 246.523438 32.097656 243.523438 32.097656 
L 66.082813 32.097656 
Q 63.082813 32.097656 63.082813 35.097656 
L 63.082813 121.666406 
Q 63.082813 124.666406 66.082813 124.666406 
z
" style="fill: #ffffff; opacity: 0.8; stroke: #cccccc; stroke-linejoin: miter"/>
    </g>
    <g id="line2d_20">
     <path d="M 69.082813 44.245312 
L 84.082813 44.245312 
L 99.082813 44.245312 
" style="fill: none; stroke: #1f77b4; stroke-width: 1.5; stroke-linecap: square"/>
     <g>
      <use xlink:href="#m836850cbc3" x="84.082813" y="44.245312" style="fill: #1f77b4; stroke: #1f77b4; stroke-linejoin: miter"/>
     </g>
    </g>
    <g id="text_19">
     <!-- real -->
     <g transform="translate(111.082813 49.495312)scale(0.15 -0.15)">
      <use xlink:href="#DejaVuSans-72"/>
      <use xlink:href="#DejaVuSans-65" x="38.863281"/>
      <use xlink:href="#DejaVuSans-61" x="100.386719"/>
      <use xlink:href="#DejaVuSans-6c" x="161.666016"/>
     </g>
    </g>
    <g id="line2d_21">
     <path d="M 69.082813 66.2625 
L 84.082813 66.2625 
L 99.082813 66.2625 
" style="fill: none; stroke: #b03a2e; stroke-width: 1.5; stroke-linecap: square"/>
     <g>
      <use xlink:href="#m5804cd16ff" x="84.082813" y="66.2625" style="fill: #b03a2e; stroke: #b03a2e"/>
     </g>
    </g>
    <g id="text_20">
     <!-- TST - Prediction -->
     <g transform="translate(111.082813 71.5125)scale(0.15 -0.15)">
      <defs>
       <path id="DejaVuSans-54" d="M -19 4666 
L 3928 4666 
L 3928 4134 
L 2272 4134 
L 2272 0 
L 1638 0 
L 1638 4134 
L -19 4134 
L -19 4666 
z
" transform="scale(0.015625)"/>
       <path id="DejaVuSans-53" d="M 3425 4513 
L 3425 3897 
Q 3066 4069 2747 4153 
Q 2428 4238 2131 4238 
Q 1616 4238 1336 4038 
Q 1056 3838 1056 3469 
Q 1056 3159 1242 3001 
Q 1428 2844 1947 2747 
L 2328 2669 
Q 3034 2534 3370 2195 
Q 3706 1856 3706 1288 
Q 3706 609 3251 259 
Q 2797 -91 1919 -91 
Q 1588 -91 1214 -16 
Q 841 59 441 206 
L 441 856 
Q 825 641 1194 531 
Q 1563 422 1919 422 
Q 2459 422 2753 634 
Q 3047 847 3047 1241 
Q 3047 1584 2836 1778 
Q 2625 1972 2144 2069 
L 1759 2144 
Q 1053 2284 737 2584 
Q 422 2884 422 3419 
Q 422 4038 858 4394 
Q 1294 4750 2059 4750 
Q 2388 4750 2728 4690 
Q 3069 4631 3425 4513 
z
" transform="scale(0.015625)"/>
       <path id="DejaVuSans-2d" d="M 313 2009 
L 1997 2009 
L 1997 1497 
L 313 1497 
L 313 2009 
z
" transform="scale(0.015625)"/>
       <path id="DejaVuSans-50" d="M 1259 4147 
L 1259 2394 
L 2053 2394 
Q 2494 2394 2734 2622 
Q 2975 2850 2975 3272 
Q 2975 3691 2734 3919 
Q 2494 4147 2053 4147 
L 1259 4147 
z
M 628 4666 
L 2053 4666 
Q 2838 4666 3239 4311 
Q 3641 3956 3641 3272 
Q 3641 2581 3239 2228 
Q 2838 1875 2053 1875 
L 1259 1875 
L 1259 0 
L 628 0 
L 628 4666 
z
" transform="scale(0.015625)"/>
      </defs>
      <use xlink:href="#DejaVuSans-54"/>
      <use xlink:href="#DejaVuSans-53" x="61.083984"/>
      <use xlink:href="#DejaVuSans-54" x="124.560547"/>
      <use xlink:href="#DejaVuSans-20" x="185.644531"/>
      <use xlink:href="#DejaVuSans-2d" x="217.431641"/>
      <use xlink:href="#DejaVuSans-20" x="253.515625"/>
      <use xlink:href="#DejaVuSans-50" x="285.302734"/>
      <use xlink:href="#DejaVuSans-72" x="343.855469"/>
      <use xlink:href="#DejaVuSans-65" x="382.71875"/>
      <use xlink:href="#DejaVuSans-64" x="444.242188"/>
      <use xlink:href="#DejaVuSans-69" x="507.71875"/>
      <use xlink:href="#DejaVuSans-63" x="535.501953"/>
      <use xlink:href="#DejaVuSans-74" x="590.482422"/>
      <use xlink:href="#DejaVuSans-69" x="629.691406"/>
      <use xlink:href="#DejaVuSans-6f" x="657.474609"/>
      <use xlink:href="#DejaVuSans-6e" x="718.65625"/>
     </g>
    </g>
    <g id="line2d_22">
     <path d="M 69.082813 88.279687 
L 84.082813 88.279687 
L 99.082813 88.279687 
" style="fill: none; stroke: #7fff00; stroke-width: 1.5; stroke-linecap: square"/>
     <g>
      <use xlink:href="#mcfee1d04df" x="84.082813" y="88.279687" style="fill: #7fff00; stroke: #7fff00"/>
     </g>
    </g>
    <g id="text_21">
     <!-- LSTM - Prediction -->
     <g transform="translate(111.082813 93.529687)scale(0.15 -0.15)">
      <defs>
       <path id="DejaVuSans-4c" d="M 628 4666 
L 1259 4666 
L 1259 531 
L 3531 531 
L 3531 0 
L 628 0 
L 628 4666 
z
" transform="scale(0.015625)"/>
       <path id="DejaVuSans-4d" d="M 628 4666 
L 1569 4666 
L 2759 1491 
L 3956 4666 
L 4897 4666 
L 4897 0 
L 4281 0 
L 4281 4097 
L 3078 897 
L 2444 897 
L 1241 4097 
L 1241 0 
L 628 0 
L 628 4666 
z
" transform="scale(0.015625)"/>
      </defs>
      <use xlink:href="#DejaVuSans-4c"/>
      <use xlink:href="#DejaVuSans-53" x="55.712891"/>
      <use xlink:href="#DejaVuSans-54" x="119.189453"/>
      <use xlink:href="#DejaVuSans-4d" x="180.273438"/>
      <use xlink:href="#DejaVuSans-20" x="266.552734"/>
      <use xlink:href="#DejaVuSans-2d" x="298.339844"/>
      <use xlink:href="#DejaVuSans-20" x="334.423828"/>
      <use xlink:href="#DejaVuSans-50" x="366.210938"/>
      <use xlink:href="#DejaVuSans-72" x="424.763672"/>
      <use xlink:href="#DejaVuSans-65" x="463.626953"/>
      <use xlink:href="#DejaVuSans-64" x="525.150391"/>
      <use xlink:href="#DejaVuSans-69" x="588.626953"/>
      <use xlink:href="#DejaVuSans-63" x="616.410156"/>
      <use xlink:href="#DejaVuSans-74" x="671.390625"/>
      <use xlink:href="#DejaVuSans-69" x="710.599609"/>
      <use xlink:href="#DejaVuSans-6f" x="738.382812"/>
      <use xlink:href="#DejaVuSans-6e" x="799.564453"/>
     </g>
    </g>
    <g id="line2d_23">
     <path d="M 69.082813 110.296875 
L 84.082813 110.296875 
L 99.082813 110.296875 
" style="fill: none; stroke: #6c3483; stroke-width: 1.5; stroke-linecap: square"/>
     <g>
      <use xlink:href="#m6475b3e52b" x="84.082813" y="110.296875" style="fill: #6c3483; stroke: #6c3483"/>
     </g>
    </g>
    <g id="text_22">
     <!-- MLP - Prediction -->
     <g transform="translate(111.082813 115.546875)scale(0.15 -0.15)">
      <use xlink:href="#DejaVuSans-4d"/>
      <use xlink:href="#DejaVuSans-4c" x="86.279297"/>
      <use xlink:href="#DejaVuSans-50" x="141.992188"/>
      <use xlink:href="#DejaVuSans-20" x="202.294922"/>
      <use xlink:href="#DejaVuSans-2d" x="234.082031"/>
      <use xlink:href="#DejaVuSans-20" x="270.166016"/>
      <use xlink:href="#DejaVuSans-50" x="301.953125"/>
      <use xlink:href="#DejaVuSans-72" x="360.505859"/>
      <use xlink:href="#DejaVuSans-65" x="399.369141"/>
      <use xlink:href="#DejaVuSans-64" x="460.892578"/>
      <use xlink:href="#DejaVuSans-69" x="524.369141"/>
      <use xlink:href="#DejaVuSans-63" x="552.152344"/>
      <use xlink:href="#DejaVuSans-74" x="607.132812"/>
      <use xlink:href="#DejaVuSans-69" x="646.341797"/>
      <use xlink:href="#DejaVuSans-6f" x="674.125"/>
      <use xlink:href="#DejaVuSans-6e" x="735.306641"/>
     </g>
    </g>
   </g>
  </g>
 </g>
 <defs>
  <clipPath id="pd0b66bc1db">
   <rect x="55.582813" y="24.597656" width="1116" height="543.6"/>
  </clipPath>
 </defs>
</svg>
