<?xml version="1.0" encoding="utf-8" standalone="no"?>
<!DOCTYPE svg PUBLIC "-//W3C//DTD SVG 1.1//EN"
  "http://www.w3.org/Graphics/SVG/1.1/DTD/svg11.dtd">
<svg xmlns:xlink="http://www.w3.org/1999/xlink" width="1175.604687pt" height="611.192969pt" viewBox="0 0 1175.604687 611.192969" xmlns="http://www.w3.org/2000/svg" version="1.1">
 <metadata>
  <rdf:RDF xmlns:dc="http://purl.org/dc/elements/1.1/" xmlns:cc="http://creativecommons.org/ns#" xmlns:rdf="http://www.w3.org/1999/02/22-rdf-syntax-ns#">
   <cc:Work>
    <dc:type rdf:resource="http://purl.org/dc/dcmitype/StillImage"/>
    <dc:date>2022-07-13T11:00:10.044513</dc:date>
    <dc:format>image/svg+xml</dc:format>
    <dc:creator>
     <cc:Agent>
      <dc:title>Matplotlib v3.5.2, https://matplotlib.org/</dc:title>
     </cc:Agent>
    </dc:creator>
   </cc:Work>
  </rdf:RDF>
 </metadata>
 <defs>
  <style type="text/css">*{stroke-linejoin: round; stroke-linecap: butt}</style>
 </defs>
 <g id="figure_1">
  <g id="patch_1">
   <path d="M 0 611.192969 
L 1175.604687 611.192969 
L 1175.604687 0 
L 0 0 
L 0 611.192969 
z
" style="fill: none"/>
  </g>
  <g id="axes_1">
   <g id="patch_2">
    <path d="M 52.404688 568.797656 
L 1168.404687 568.797656 
L 1168.404687 25.197656 
L 52.404688 25.197656 
z
" style="fill: #ffffff"/>
   </g>
   <g id="matplotlib.axis_1">
    <g id="xtick_1">
     <g id="line2d_1">
      <defs>
       <path id="m2fc741297c" d="M 0 0 
L 0 3.5 
" style="stroke: #000000; stroke-width: 0.8"/>
      </defs>
      <g>
       <use xlink:href="#m2fc741297c" x="103.13196" y="568.797656" style="stroke: #000000; stroke-width: 0.8"/>
      </g>
     </g>
     <g id="text_1">
      <!-- 0 -->
      <g transform="translate(99.95071 583.396094)scale(0.1 -0.1)">
       <defs>
        <path id="DejaVuSans-30" d="M 2034 4250 
Q 1547 4250 1301 3770 
Q 1056 3291 1056 2328 
Q 1056 1369 1301 889 
Q 1547 409 2034 409 
Q 2525 409 2770 889 
Q 3016 1369 3016 2328 
Q 3016 3291 2770 3770 
Q 2525 4250 2034 4250 
z
M 2034 4750 
Q 2819 4750 3233 4129 
Q 3647 3509 3647 2328 
Q 3647 1150 3233 529 
Q 2819 -91 2034 -91 
Q 1250 -91 836 529 
Q 422 1150 422 2328 
Q 422 3509 836 4129 
Q 1250 4750 2034 4750 
z
" transform="scale(0.015625)"/>
       </defs>
       <use xlink:href="#DejaVuSans-30"/>
      </g>
     </g>
    </g>
    <g id="xtick_2">
     <g id="line2d_2">
      <g>
       <use xlink:href="#m2fc741297c" x="275.088817" y="568.797656" style="stroke: #000000; stroke-width: 0.8"/>
      </g>
     </g>
     <g id="text_2">
      <!-- 10 -->
      <g transform="translate(268.726317 583.396094)scale(0.1 -0.1)">
       <defs>
        <path id="DejaVuSans-31" d="M 794 531 
L 1825 531 
L 1825 4091 
L 703 3866 
L 703 4441 
L 1819 4666 
L 2450 4666 
L 2450 531 
L 3481 531 
L 3481 0 
L 794 0 
L 794 531 
z
" transform="scale(0.015625)"/>
       </defs>
       <use xlink:href="#DejaVuSans-31"/>
       <use xlink:href="#DejaVuSans-30" x="63.623047"/>
      </g>
     </g>
    </g>
    <g id="xtick_3">
     <g id="line2d_3">
      <g>
       <use xlink:href="#m2fc741297c" x="447.045674" y="568.797656" style="stroke: #000000; stroke-width: 0.8"/>
      </g>
     </g>
     <g id="text_3">
      <!-- 20 -->
      <g transform="translate(440.683174 583.396094)scale(0.1 -0.1)">
       <defs>
        <path id="DejaVuSans-32" d="M 1228 531 
L 3431 531 
L 3431 0 
L 469 0 
L 469 531 
Q 828 903 1448 1529 
Q 2069 2156 2228 2338 
Q 2531 2678 2651 2914 
Q 2772 3150 2772 3378 
Q 2772 3750 2511 3984 
Q 2250 4219 1831 4219 
Q 1534 4219 1204 4116 
Q 875 4013 500 3803 
L 500 4441 
Q 881 4594 1212 4672 
Q 1544 4750 1819 4750 
Q 2544 4750 2975 4387 
Q 3406 4025 3406 3419 
Q 3406 3131 3298 2873 
Q 3191 2616 2906 2266 
Q 2828 2175 2409 1742 
Q 1991 1309 1228 531 
z
" transform="scale(0.015625)"/>
       </defs>
       <use xlink:href="#DejaVuSans-32"/>
       <use xlink:href="#DejaVuSans-30" x="63.623047"/>
      </g>
     </g>
    </g>
    <g id="xtick_4">
     <g id="line2d_4">
      <g>
       <use xlink:href="#m2fc741297c" x="619.00253" y="568.797656" style="stroke: #000000; stroke-width: 0.8"/>
      </g>
     </g>
     <g id="text_4">
      <!-- 30 -->
      <g transform="translate(612.64003 583.396094)scale(0.1 -0.1)">
       <defs>
        <path id="DejaVuSans-33" d="M 2597 2516 
Q 3050 2419 3304 2112 
Q 3559 1806 3559 1356 
Q 3559 666 3084 287 
Q 2609 -91 1734 -91 
Q 1441 -91 1130 -33 
Q 819 25 488 141 
L 488 750 
Q 750 597 1062 519 
Q 1375 441 1716 441 
Q 2309 441 2620 675 
Q 2931 909 2931 1356 
Q 2931 1769 2642 2001 
Q 2353 2234 1838 2234 
L 1294 2234 
L 1294 2753 
L 1863 2753 
Q 2328 2753 2575 2939 
Q 2822 3125 2822 3475 
Q 2822 3834 2567 4026 
Q 2313 4219 1838 4219 
Q 1578 4219 1281 4162 
Q 984 4106 628 3988 
L 628 4550 
Q 988 4650 1302 4700 
Q 1616 4750 1894 4750 
Q 2613 4750 3031 4423 
Q 3450 4097 3450 3541 
Q 3450 3153 3228 2886 
Q 3006 2619 2597 2516 
z
" transform="scale(0.015625)"/>
       </defs>
       <use xlink:href="#DejaVuSans-33"/>
       <use xlink:href="#DejaVuSans-30" x="63.623047"/>
      </g>
     </g>
    </g>
    <g id="xtick_5">
     <g id="line2d_5">
      <g>
       <use xlink:href="#m2fc741297c" x="790.959387" y="568.797656" style="stroke: #000000; stroke-width: 0.8"/>
      </g>
     </g>
     <g id="text_5">
      <!-- 40 -->
      <g transform="translate(784.596887 583.396094)scale(0.1 -0.1)">
       <defs>
        <path id="DejaVuSans-34" d="M 2419 4116 
L 825 1625 
L 2419 1625 
L 2419 4116 
z
M 2253 4666 
L 3047 4666 
L 3047 1625 
L 3713 1625 
L 3713 1100 
L 3047 1100 
L 3047 0 
L 2419 0 
L 2419 1100 
L 313 1100 
L 313 1709 
L 2253 4666 
z
" transform="scale(0.015625)"/>
       </defs>
       <use xlink:href="#DejaVuSans-34"/>
       <use xlink:href="#DejaVuSans-30" x="63.623047"/>
      </g>
     </g>
    </g>
    <g id="xtick_6">
     <g id="line2d_6">
      <g>
       <use xlink:href="#m2fc741297c" x="962.916244" y="568.797656" style="stroke: #000000; stroke-width: 0.8"/>
      </g>
     </g>
     <g id="text_6">
      <!-- 50 -->
      <g transform="translate(956.553744 583.396094)scale(0.1 -0.1)">
       <defs>
        <path id="DejaVuSans-35" d="M 691 4666 
L 3169 4666 
L 3169 4134 
L 1269 4134 
L 1269 2991 
Q 1406 3038 1543 3061 
Q 1681 3084 1819 3084 
Q 2600 3084 3056 2656 
Q 3513 2228 3513 1497 
Q 3513 744 3044 326 
Q 2575 -91 1722 -91 
Q 1428 -91 1123 -41 
Q 819 9 494 109 
L 494 744 
Q 775 591 1075 516 
Q 1375 441 1709 441 
Q 2250 441 2565 725 
Q 2881 1009 2881 1497 
Q 2881 1984 2565 2268 
Q 2250 2553 1709 2553 
Q 1456 2553 1204 2497 
Q 953 2441 691 2322 
L 691 4666 
z
" transform="scale(0.015625)"/>
       </defs>
       <use xlink:href="#DejaVuSans-35"/>
       <use xlink:href="#DejaVuSans-30" x="63.623047"/>
      </g>
     </g>
    </g>
    <g id="xtick_7">
     <g id="line2d_7">
      <g>
       <use xlink:href="#m2fc741297c" x="1134.8731" y="568.797656" style="stroke: #000000; stroke-width: 0.8"/>
      </g>
     </g>
     <g id="text_7">
      <!-- 60 -->
      <g transform="translate(1128.5106 583.396094)scale(0.1 -0.1)">
       <defs>
        <path id="DejaVuSans-36" d="M 2113 2584 
Q 1688 2584 1439 2293 
Q 1191 2003 1191 1497 
Q 1191 994 1439 701 
Q 1688 409 2113 409 
Q 2538 409 2786 701 
Q 3034 994 3034 1497 
Q 3034 2003 2786 2293 
Q 2538 2584 2113 2584 
z
M 3366 4563 
L 3366 3988 
Q 3128 4100 2886 4159 
Q 2644 4219 2406 4219 
Q 1781 4219 1451 3797 
Q 1122 3375 1075 2522 
Q 1259 2794 1537 2939 
Q 1816 3084 2150 3084 
Q 2853 3084 3261 2657 
Q 3669 2231 3669 1497 
Q 3669 778 3244 343 
Q 2819 -91 2113 -91 
Q 1303 -91 875 529 
Q 447 1150 447 2328 
Q 447 3434 972 4092 
Q 1497 4750 2381 4750 
Q 2619 4750 2861 4703 
Q 3103 4656 3366 4563 
z
" transform="scale(0.015625)"/>
       </defs>
       <use xlink:href="#DejaVuSans-36"/>
       <use xlink:href="#DejaVuSans-30" x="63.623047"/>
      </g>
     </g>
    </g>
    <g id="text_8">
     <!-- time [`min`] -->
     <g transform="translate(563.582422 600.873438)scale(0.15 -0.15)">
      <defs>
       <path id="DejaVuSans-74" d="M 1172 4494 
L 1172 3500 
L 2356 3500 
L 2356 3053 
L 1172 3053 
L 1172 1153 
Q 1172 725 1289 603 
Q 1406 481 1766 481 
L 2356 481 
L 2356 0 
L 1766 0 
Q 1100 0 847 248 
Q 594 497 594 1153 
L 594 3053 
L 172 3053 
L 172 3500 
L 594 3500 
L 594 4494 
L 1172 4494 
z
" transform="scale(0.015625)"/>
       <path id="DejaVuSans-69" d="M 603 3500 
L 1178 3500 
L 1178 0 
L 603 0 
L 603 3500 
z
M 603 4863 
L 1178 4863 
L 1178 4134 
L 603 4134 
L 603 4863 
z
" transform="scale(0.015625)"/>
       <path id="DejaVuSans-6d" d="M 3328 2828 
Q 3544 3216 3844 3400 
Q 4144 3584 4550 3584 
Q 5097 3584 5394 3201 
Q 5691 2819 5691 2113 
L 5691 0 
L 5113 0 
L 5113 2094 
Q 5113 2597 4934 2840 
Q 4756 3084 4391 3084 
Q 3944 3084 3684 2787 
Q 3425 2491 3425 1978 
L 3425 0 
L 2847 0 
L 2847 2094 
Q 2847 2600 2669 2842 
Q 2491 3084 2119 3084 
Q 1678 3084 1418 2786 
Q 1159 2488 1159 1978 
L 1159 0 
L 581 0 
L 581 3500 
L 1159 3500 
L 1159 2956 
Q 1356 3278 1631 3431 
Q 1906 3584 2284 3584 
Q 2666 3584 2933 3390 
Q 3200 3197 3328 2828 
z
" transform="scale(0.015625)"/>
       <path id="DejaVuSans-65" d="M 3597 1894 
L 3597 1613 
L 953 1613 
Q 991 1019 1311 708 
Q 1631 397 2203 397 
Q 2534 397 2845 478 
Q 3156 559 3463 722 
L 3463 178 
Q 3153 47 2828 -22 
Q 2503 -91 2169 -91 
Q 1331 -91 842 396 
Q 353 884 353 1716 
Q 353 2575 817 3079 
Q 1281 3584 2069 3584 
Q 2775 3584 3186 3129 
Q 3597 2675 3597 1894 
z
M 3022 2063 
Q 3016 2534 2758 2815 
Q 2500 3097 2075 3097 
Q 1594 3097 1305 2825 
Q 1016 2553 972 2059 
L 3022 2063 
z
" transform="scale(0.015625)"/>
       <path id="DejaVuSans-20" transform="scale(0.015625)"/>
       <path id="DejaVuSans-5b" d="M 550 4863 
L 1875 4863 
L 1875 4416 
L 1125 4416 
L 1125 -397 
L 1875 -397 
L 1875 -844 
L 550 -844 
L 550 4863 
z
" transform="scale(0.015625)"/>
       <path id="DejaVuSans-60" d="M 1147 5119 
L 2028 3950 
L 1550 3950 
L 531 5119 
L 1147 5119 
z
" transform="scale(0.015625)"/>
       <path id="DejaVuSans-6e" d="M 3513 2113 
L 3513 0 
L 2938 0 
L 2938 2094 
Q 2938 2591 2744 2837 
Q 2550 3084 2163 3084 
Q 1697 3084 1428 2787 
Q 1159 2491 1159 1978 
L 1159 0 
L 581 0 
L 581 3500 
L 1159 3500 
L 1159 2956 
Q 1366 3272 1645 3428 
Q 1925 3584 2291 3584 
Q 2894 3584 3203 3211 
Q 3513 2838 3513 2113 
z
" transform="scale(0.015625)"/>
       <path id="DejaVuSans-5d" d="M 1947 4863 
L 1947 -844 
L 622 -844 
L 622 -397 
L 1369 -397 
L 1369 4416 
L 622 4416 
L 622 4863 
L 1947 4863 
z
" transform="scale(0.015625)"/>
      </defs>
      <use xlink:href="#DejaVuSans-74"/>
      <use xlink:href="#DejaVuSans-69" x="39.208984"/>
      <use xlink:href="#DejaVuSans-6d" x="66.992188"/>
      <use xlink:href="#DejaVuSans-65" x="164.404297"/>
      <use xlink:href="#DejaVuSans-20" x="225.927734"/>
      <use xlink:href="#DejaVuSans-5b" x="257.714844"/>
      <use xlink:href="#DejaVuSans-60" x="296.728516"/>
      <use xlink:href="#DejaVuSans-6d" x="346.728516"/>
      <use xlink:href="#DejaVuSans-69" x="444.140625"/>
      <use xlink:href="#DejaVuSans-6e" x="471.923828"/>
      <use xlink:href="#DejaVuSans-60" x="535.302734"/>
      <use xlink:href="#DejaVuSans-5d" x="585.302734"/>
     </g>
    </g>
   </g>
   <g id="matplotlib.axis_2">
    <g id="ytick_1">
     <g id="line2d_8">
      <defs>
       <path id="m67f9f428cd" d="M 0 0 
L -3.5 0 
" style="stroke: #000000; stroke-width: 0.8"/>
      </defs>
      <g>
       <use xlink:href="#m67f9f428cd" x="52.404688" y="506.868213" style="stroke: #000000; stroke-width: 0.8"/>
      </g>
     </g>
     <g id="text_9">
      <!-- 80 -->
      <g transform="translate(32.679688 510.667431)scale(0.1 -0.1)">
       <defs>
        <path id="DejaVuSans-38" d="M 2034 2216 
Q 1584 2216 1326 1975 
Q 1069 1734 1069 1313 
Q 1069 891 1326 650 
Q 1584 409 2034 409 
Q 2484 409 2743 651 
Q 3003 894 3003 1313 
Q 3003 1734 2745 1975 
Q 2488 2216 2034 2216 
z
M 1403 2484 
Q 997 2584 770 2862 
Q 544 3141 544 3541 
Q 544 4100 942 4425 
Q 1341 4750 2034 4750 
Q 2731 4750 3128 4425 
Q 3525 4100 3525 3541 
Q 3525 3141 3298 2862 
Q 3072 2584 2669 2484 
Q 3125 2378 3379 2068 
Q 3634 1759 3634 1313 
Q 3634 634 3220 271 
Q 2806 -91 2034 -91 
Q 1263 -91 848 271 
Q 434 634 434 1313 
Q 434 1759 690 2068 
Q 947 2378 1403 2484 
z
M 1172 3481 
Q 1172 3119 1398 2916 
Q 1625 2713 2034 2713 
Q 2441 2713 2670 2916 
Q 2900 3119 2900 3481 
Q 2900 3844 2670 4047 
Q 2441 4250 2034 4250 
Q 1625 4250 1398 4047 
Q 1172 3844 1172 3481 
z
" transform="scale(0.015625)"/>
       </defs>
       <use xlink:href="#DejaVuSans-38"/>
       <use xlink:href="#DejaVuSans-30" x="63.623047"/>
      </g>
     </g>
    </g>
    <g id="ytick_2">
     <g id="line2d_9">
      <g>
       <use xlink:href="#m67f9f428cd" x="52.404688" y="403.774087" style="stroke: #000000; stroke-width: 0.8"/>
      </g>
     </g>
     <g id="text_10">
      <!-- 85 -->
      <g transform="translate(32.679688 407.573306)scale(0.1 -0.1)">
       <use xlink:href="#DejaVuSans-38"/>
       <use xlink:href="#DejaVuSans-35" x="63.623047"/>
      </g>
     </g>
    </g>
    <g id="ytick_3">
     <g id="line2d_10">
      <g>
       <use xlink:href="#m67f9f428cd" x="52.404688" y="300.679962" style="stroke: #000000; stroke-width: 0.8"/>
      </g>
     </g>
     <g id="text_11">
      <!-- 90 -->
      <g transform="translate(32.679688 304.479181)scale(0.1 -0.1)">
       <defs>
        <path id="DejaVuSans-39" d="M 703 97 
L 703 672 
Q 941 559 1184 500 
Q 1428 441 1663 441 
Q 2288 441 2617 861 
Q 2947 1281 2994 2138 
Q 2813 1869 2534 1725 
Q 2256 1581 1919 1581 
Q 1219 1581 811 2004 
Q 403 2428 403 3163 
Q 403 3881 828 4315 
Q 1253 4750 1959 4750 
Q 2769 4750 3195 4129 
Q 3622 3509 3622 2328 
Q 3622 1225 3098 567 
Q 2575 -91 1691 -91 
Q 1453 -91 1209 -44 
Q 966 3 703 97 
z
M 1959 2075 
Q 2384 2075 2632 2365 
Q 2881 2656 2881 3163 
Q 2881 3666 2632 3958 
Q 2384 4250 1959 4250 
Q 1534 4250 1286 3958 
Q 1038 3666 1038 3163 
Q 1038 2656 1286 2365 
Q 1534 2075 1959 2075 
z
" transform="scale(0.015625)"/>
       </defs>
       <use xlink:href="#DejaVuSans-39"/>
       <use xlink:href="#DejaVuSans-30" x="63.623047"/>
      </g>
     </g>
    </g>
    <g id="ytick_4">
     <g id="line2d_11">
      <g>
       <use xlink:href="#m67f9f428cd" x="52.404688" y="197.585837" style="stroke: #000000; stroke-width: 0.8"/>
      </g>
     </g>
     <g id="text_12">
      <!-- 95 -->
      <g transform="translate(32.679688 201.385056)scale(0.1 -0.1)">
       <use xlink:href="#DejaVuSans-39"/>
       <use xlink:href="#DejaVuSans-35" x="63.623047"/>
      </g>
     </g>
    </g>
    <g id="ytick_5">
     <g id="line2d_12">
      <g>
       <use xlink:href="#m67f9f428cd" x="52.404688" y="94.491712" style="stroke: #000000; stroke-width: 0.8"/>
      </g>
     </g>
     <g id="text_13">
      <!-- 100 -->
      <g transform="translate(26.317188 98.290931)scale(0.1 -0.1)">
       <use xlink:href="#DejaVuSans-31"/>
       <use xlink:href="#DejaVuSans-30" x="63.623047"/>
       <use xlink:href="#DejaVuSans-30" x="127.246094"/>
      </g>
     </g>
    </g>
    <g id="text_14">
     <!-- consumption [`kw`] -->
     <g transform="translate(19.197656 371.769141)rotate(-90)scale(0.15 -0.15)">
      <defs>
       <path id="DejaVuSans-63" d="M 3122 3366 
L 3122 2828 
Q 2878 2963 2633 3030 
Q 2388 3097 2138 3097 
Q 1578 3097 1268 2742 
Q 959 2388 959 1747 
Q 959 1106 1268 751 
Q 1578 397 2138 397 
Q 2388 397 2633 464 
Q 2878 531 3122 666 
L 3122 134 
Q 2881 22 2623 -34 
Q 2366 -91 2075 -91 
Q 1284 -91 818 406 
Q 353 903 353 1747 
Q 353 2603 823 3093 
Q 1294 3584 2113 3584 
Q 2378 3584 2631 3529 
Q 2884 3475 3122 3366 
z
" transform="scale(0.015625)"/>
       <path id="DejaVuSans-6f" d="M 1959 3097 
Q 1497 3097 1228 2736 
Q 959 2375 959 1747 
Q 959 1119 1226 758 
Q 1494 397 1959 397 
Q 2419 397 2687 759 
Q 2956 1122 2956 1747 
Q 2956 2369 2687 2733 
Q 2419 3097 1959 3097 
z
M 1959 3584 
Q 2709 3584 3137 3096 
Q 3566 2609 3566 1747 
Q 3566 888 3137 398 
Q 2709 -91 1959 -91 
Q 1206 -91 779 398 
Q 353 888 353 1747 
Q 353 2609 779 3096 
Q 1206 3584 1959 3584 
z
" transform="scale(0.015625)"/>
       <path id="DejaVuSans-73" d="M 2834 3397 
L 2834 2853 
Q 2591 2978 2328 3040 
Q 2066 3103 1784 3103 
Q 1356 3103 1142 2972 
Q 928 2841 928 2578 
Q 928 2378 1081 2264 
Q 1234 2150 1697 2047 
L 1894 2003 
Q 2506 1872 2764 1633 
Q 3022 1394 3022 966 
Q 3022 478 2636 193 
Q 2250 -91 1575 -91 
Q 1294 -91 989 -36 
Q 684 19 347 128 
L 347 722 
Q 666 556 975 473 
Q 1284 391 1588 391 
Q 1994 391 2212 530 
Q 2431 669 2431 922 
Q 2431 1156 2273 1281 
Q 2116 1406 1581 1522 
L 1381 1569 
Q 847 1681 609 1914 
Q 372 2147 372 2553 
Q 372 3047 722 3315 
Q 1072 3584 1716 3584 
Q 2034 3584 2315 3537 
Q 2597 3491 2834 3397 
z
" transform="scale(0.015625)"/>
       <path id="DejaVuSans-75" d="M 544 1381 
L 544 3500 
L 1119 3500 
L 1119 1403 
Q 1119 906 1312 657 
Q 1506 409 1894 409 
Q 2359 409 2629 706 
Q 2900 1003 2900 1516 
L 2900 3500 
L 3475 3500 
L 3475 0 
L 2900 0 
L 2900 538 
Q 2691 219 2414 64 
Q 2138 -91 1772 -91 
Q 1169 -91 856 284 
Q 544 659 544 1381 
z
M 1991 3584 
L 1991 3584 
z
" transform="scale(0.015625)"/>
       <path id="DejaVuSans-70" d="M 1159 525 
L 1159 -1331 
L 581 -1331 
L 581 3500 
L 1159 3500 
L 1159 2969 
Q 1341 3281 1617 3432 
Q 1894 3584 2278 3584 
Q 2916 3584 3314 3078 
Q 3713 2572 3713 1747 
Q 3713 922 3314 415 
Q 2916 -91 2278 -91 
Q 1894 -91 1617 61 
Q 1341 213 1159 525 
z
M 3116 1747 
Q 3116 2381 2855 2742 
Q 2594 3103 2138 3103 
Q 1681 3103 1420 2742 
Q 1159 2381 1159 1747 
Q 1159 1113 1420 752 
Q 1681 391 2138 391 
Q 2594 391 2855 752 
Q 3116 1113 3116 1747 
z
" transform="scale(0.015625)"/>
       <path id="DejaVuSans-6b" d="M 581 4863 
L 1159 4863 
L 1159 1991 
L 2875 3500 
L 3609 3500 
L 1753 1863 
L 3688 0 
L 2938 0 
L 1159 1709 
L 1159 0 
L 581 0 
L 581 4863 
z
" transform="scale(0.015625)"/>
       <path id="DejaVuSans-77" d="M 269 3500 
L 844 3500 
L 1563 769 
L 2278 3500 
L 2956 3500 
L 3675 769 
L 4391 3500 
L 4966 3500 
L 4050 0 
L 3372 0 
L 2619 2869 
L 1863 0 
L 1184 0 
L 269 3500 
z
" transform="scale(0.015625)"/>
      </defs>
      <use xlink:href="#DejaVuSans-63"/>
      <use xlink:href="#DejaVuSans-6f" x="54.980469"/>
      <use xlink:href="#DejaVuSans-6e" x="116.162109"/>
      <use xlink:href="#DejaVuSans-73" x="179.541016"/>
      <use xlink:href="#DejaVuSans-75" x="231.640625"/>
      <use xlink:href="#DejaVuSans-6d" x="295.019531"/>
      <use xlink:href="#DejaVuSans-70" x="392.431641"/>
      <use xlink:href="#DejaVuSans-74" x="455.908203"/>
      <use xlink:href="#DejaVuSans-69" x="495.117188"/>
      <use xlink:href="#DejaVuSans-6f" x="522.900391"/>
      <use xlink:href="#DejaVuSans-6e" x="584.082031"/>
      <use xlink:href="#DejaVuSans-20" x="647.460938"/>
      <use xlink:href="#DejaVuSans-5b" x="679.248047"/>
      <use xlink:href="#DejaVuSans-60" x="718.261719"/>
      <use xlink:href="#DejaVuSans-6b" x="768.261719"/>
      <use xlink:href="#DejaVuSans-77" x="826.171875"/>
      <use xlink:href="#DejaVuSans-60" x="907.958984"/>
      <use xlink:href="#DejaVuSans-5d" x="957.958984"/>
     </g>
    </g>
   </g>
   <g id="line2d_13">
    <path d="M 103.13196 416.670365 
L 120.327646 411.447013 
L 137.523332 403.765509 
L 154.719017 398.849426 
L 171.914703 396.698543 
L 189.110389 388.70977 
L 206.306074 381.950073 
L 223.50176 410.217937 
L 240.697446 447.089113 
L 257.893131 441.251223 
L 275.088817 441.251223 
L 292.284503 436.027871 
L 309.480188 431.418836 
L 326.675874 420.972132 
L 343.87156 409.603399 
L 361.067245 401.307578 
L 378.262931 394.54766 
L 395.458617 387.480694 
L 412.654302 378.877604 
L 429.849988 367.508872 
L 447.045674 359.520098 
L 464.241359 357.369436 
L 481.437045 353.06767 
L 498.632731 284.548782 
L 515.828416 111.868904 
L 533.024102 112.176173 
L 550.219788 112.483442 
L 567.415473 110.33267 
L 584.611159 143.823997 
L 601.806845 333.710386 
L 619.00253 329.408841 
L 636.198216 325.414344 
L 653.393902 320.190992 
L 670.589587 314.045833 
L 687.785273 308.51499 
L 704.980959 306.05706 
L 722.176644 302.6771 
L 739.37233 298.375555 
L 756.568016 293.766631 
L 773.763701 288.850437 
L 790.959387 284.548782 
L 808.155073 280.861775 
L 825.350758 279.01816 
L 842.546444 276.560119 
L 859.74213 274.409236 
L 876.937815 272.258463 
L 894.133501 268.878615 
L 911.329187 266.113304 
L 928.524872 263.655152 
L 945.720558 260.889842 
L 962.916244 164.717626 
L 980.111929 165.639323 
L 997.307615 168.712013 
L 1014.503301 167.482937 
L 1031.698986 166.56113 
L 1048.894672 165.639323 
L 1066.090358 163.795819 
L 1083.286043 163.48855 
L 1100.481729 161.952316 
L 1117.677415 161.337778 
" clip-path="url(#pd86d264299)" style="fill: none; stroke: #1f77b4; stroke-width: 1.5; stroke-linecap: square"/>
    <defs>
     <path id="m23e55ce0fd" d="M 0 -3 
L -3 3 
L 3 3 
z
" style="stroke: #1f77b4; stroke-linejoin: miter"/>
    </defs>
    <g clip-path="url(#pd86d264299)">
     <use xlink:href="#m23e55ce0fd" x="103.13196" y="416.670365" style="fill: #1f77b4; stroke: #1f77b4; stroke-linejoin: miter"/>
     <use xlink:href="#m23e55ce0fd" x="120.327646" y="411.447013" style="fill: #1f77b4; stroke: #1f77b4; stroke-linejoin: miter"/>
     <use xlink:href="#m23e55ce0fd" x="137.523332" y="403.765509" style="fill: #1f77b4; stroke: #1f77b4; stroke-linejoin: miter"/>
     <use xlink:href="#m23e55ce0fd" x="154.719017" y="398.849426" style="fill: #1f77b4; stroke: #1f77b4; stroke-linejoin: miter"/>
     <use xlink:href="#m23e55ce0fd" x="171.914703" y="396.698543" style="fill: #1f77b4; stroke: #1f77b4; stroke-linejoin: miter"/>
     <use xlink:href="#m23e55ce0fd" x="189.110389" y="388.70977" style="fill: #1f77b4; stroke: #1f77b4; stroke-linejoin: miter"/>
     <use xlink:href="#m23e55ce0fd" x="206.306074" y="381.950073" style="fill: #1f77b4; stroke: #1f77b4; stroke-linejoin: miter"/>
     <use xlink:href="#m23e55ce0fd" x="223.50176" y="410.217937" style="fill: #1f77b4; stroke: #1f77b4; stroke-linejoin: miter"/>
     <use xlink:href="#m23e55ce0fd" x="240.697446" y="447.089113" style="fill: #1f77b4; stroke: #1f77b4; stroke-linejoin: miter"/>
     <use xlink:href="#m23e55ce0fd" x="257.893131" y="441.251223" style="fill: #1f77b4; stroke: #1f77b4; stroke-linejoin: miter"/>
     <use xlink:href="#m23e55ce0fd" x="275.088817" y="441.251223" style="fill: #1f77b4; stroke: #1f77b4; stroke-linejoin: miter"/>
     <use xlink:href="#m23e55ce0fd" x="292.284503" y="436.027871" style="fill: #1f77b4; stroke: #1f77b4; stroke-linejoin: miter"/>
     <use xlink:href="#m23e55ce0fd" x="309.480188" y="431.418836" style="fill: #1f77b4; stroke: #1f77b4; stroke-linejoin: miter"/>
     <use xlink:href="#m23e55ce0fd" x="326.675874" y="420.972132" style="fill: #1f77b4; stroke: #1f77b4; stroke-linejoin: miter"/>
     <use xlink:href="#m23e55ce0fd" x="343.87156" y="409.603399" style="fill: #1f77b4; stroke: #1f77b4; stroke-linejoin: miter"/>
     <use xlink:href="#m23e55ce0fd" x="361.067245" y="401.307578" style="fill: #1f77b4; stroke: #1f77b4; stroke-linejoin: miter"/>
     <use xlink:href="#m23e55ce0fd" x="378.262931" y="394.54766" style="fill: #1f77b4; stroke: #1f77b4; stroke-linejoin: miter"/>
     <use xlink:href="#m23e55ce0fd" x="395.458617" y="387.480694" style="fill: #1f77b4; stroke: #1f77b4; stroke-linejoin: miter"/>
     <use xlink:href="#m23e55ce0fd" x="412.654302" y="378.877604" style="fill: #1f77b4; stroke: #1f77b4; stroke-linejoin: miter"/>
     <use xlink:href="#m23e55ce0fd" x="429.849988" y="367.508872" style="fill: #1f77b4; stroke: #1f77b4; stroke-linejoin: miter"/>
     <use xlink:href="#m23e55ce0fd" x="447.045674" y="359.520098" style="fill: #1f77b4; stroke: #1f77b4; stroke-linejoin: miter"/>
     <use xlink:href="#m23e55ce0fd" x="464.241359" y="357.369436" style="fill: #1f77b4; stroke: #1f77b4; stroke-linejoin: miter"/>
     <use xlink:href="#m23e55ce0fd" x="481.437045" y="353.06767" style="fill: #1f77b4; stroke: #1f77b4; stroke-linejoin: miter"/>
     <use xlink:href="#m23e55ce0fd" x="498.632731" y="284.548782" style="fill: #1f77b4; stroke: #1f77b4; stroke-linejoin: miter"/>
     <use xlink:href="#m23e55ce0fd" x="515.828416" y="111.868904" style="fill: #1f77b4; stroke: #1f77b4; stroke-linejoin: miter"/>
     <use xlink:href="#m23e55ce0fd" x="533.024102" y="112.176173" style="fill: #1f77b4; stroke: #1f77b4; stroke-linejoin: miter"/>
     <use xlink:href="#m23e55ce0fd" x="550.219788" y="112.483442" style="fill: #1f77b4; stroke: #1f77b4; stroke-linejoin: miter"/>
     <use xlink:href="#m23e55ce0fd" x="567.415473" y="110.33267" style="fill: #1f77b4; stroke: #1f77b4; stroke-linejoin: miter"/>
     <use xlink:href="#m23e55ce0fd" x="584.611159" y="143.823997" style="fill: #1f77b4; stroke: #1f77b4; stroke-linejoin: miter"/>
     <use xlink:href="#m23e55ce0fd" x="601.806845" y="333.710386" style="fill: #1f77b4; stroke: #1f77b4; stroke-linejoin: miter"/>
     <use xlink:href="#m23e55ce0fd" x="619.00253" y="329.408841" style="fill: #1f77b4; stroke: #1f77b4; stroke-linejoin: miter"/>
     <use xlink:href="#m23e55ce0fd" x="636.198216" y="325.414344" style="fill: #1f77b4; stroke: #1f77b4; stroke-linejoin: miter"/>
     <use xlink:href="#m23e55ce0fd" x="653.393902" y="320.190992" style="fill: #1f77b4; stroke: #1f77b4; stroke-linejoin: miter"/>
     <use xlink:href="#m23e55ce0fd" x="670.589587" y="314.045833" style="fill: #1f77b4; stroke: #1f77b4; stroke-linejoin: miter"/>
     <use xlink:href="#m23e55ce0fd" x="687.785273" y="308.51499" style="fill: #1f77b4; stroke: #1f77b4; stroke-linejoin: miter"/>
     <use xlink:href="#m23e55ce0fd" x="704.980959" y="306.05706" style="fill: #1f77b4; stroke: #1f77b4; stroke-linejoin: miter"/>
     <use xlink:href="#m23e55ce0fd" x="722.176644" y="302.6771" style="fill: #1f77b4; stroke: #1f77b4; stroke-linejoin: miter"/>
     <use xlink:href="#m23e55ce0fd" x="739.37233" y="298.375555" style="fill: #1f77b4; stroke: #1f77b4; stroke-linejoin: miter"/>
     <use xlink:href="#m23e55ce0fd" x="756.568016" y="293.766631" style="fill: #1f77b4; stroke: #1f77b4; stroke-linejoin: miter"/>
     <use xlink:href="#m23e55ce0fd" x="773.763701" y="288.850437" style="fill: #1f77b4; stroke: #1f77b4; stroke-linejoin: miter"/>
     <use xlink:href="#m23e55ce0fd" x="790.959387" y="284.548782" style="fill: #1f77b4; stroke: #1f77b4; stroke-linejoin: miter"/>
     <use xlink:href="#m23e55ce0fd" x="808.155073" y="280.861775" style="fill: #1f77b4; stroke: #1f77b4; stroke-linejoin: miter"/>
     <use xlink:href="#m23e55ce0fd" x="825.350758" y="279.01816" style="fill: #1f77b4; stroke: #1f77b4; stroke-linejoin: miter"/>
     <use xlink:href="#m23e55ce0fd" x="842.546444" y="276.560119" style="fill: #1f77b4; stroke: #1f77b4; stroke-linejoin: miter"/>
     <use xlink:href="#m23e55ce0fd" x="859.74213" y="274.409236" style="fill: #1f77b4; stroke: #1f77b4; stroke-linejoin: miter"/>
     <use xlink:href="#m23e55ce0fd" x="876.937815" y="272.258463" style="fill: #1f77b4; stroke: #1f77b4; stroke-linejoin: miter"/>
     <use xlink:href="#m23e55ce0fd" x="894.133501" y="268.878615" style="fill: #1f77b4; stroke: #1f77b4; stroke-linejoin: miter"/>
     <use xlink:href="#m23e55ce0fd" x="911.329187" y="266.113304" style="fill: #1f77b4; stroke: #1f77b4; stroke-linejoin: miter"/>
     <use xlink:href="#m23e55ce0fd" x="928.524872" y="263.655152" style="fill: #1f77b4; stroke: #1f77b4; stroke-linejoin: miter"/>
     <use xlink:href="#m23e55ce0fd" x="945.720558" y="260.889842" style="fill: #1f77b4; stroke: #1f77b4; stroke-linejoin: miter"/>
     <use xlink:href="#m23e55ce0fd" x="962.916244" y="164.717626" style="fill: #1f77b4; stroke: #1f77b4; stroke-linejoin: miter"/>
     <use xlink:href="#m23e55ce0fd" x="980.111929" y="165.639323" style="fill: #1f77b4; stroke: #1f77b4; stroke-linejoin: miter"/>
     <use xlink:href="#m23e55ce0fd" x="997.307615" y="168.712013" style="fill: #1f77b4; stroke: #1f77b4; stroke-linejoin: miter"/>
     <use xlink:href="#m23e55ce0fd" x="1014.503301" y="167.482937" style="fill: #1f77b4; stroke: #1f77b4; stroke-linejoin: miter"/>
     <use xlink:href="#m23e55ce0fd" x="1031.698986" y="166.56113" style="fill: #1f77b4; stroke: #1f77b4; stroke-linejoin: miter"/>
     <use xlink:href="#m23e55ce0fd" x="1048.894672" y="165.639323" style="fill: #1f77b4; stroke: #1f77b4; stroke-linejoin: miter"/>
     <use xlink:href="#m23e55ce0fd" x="1066.090358" y="163.795819" style="fill: #1f77b4; stroke: #1f77b4; stroke-linejoin: miter"/>
     <use xlink:href="#m23e55ce0fd" x="1083.286043" y="163.48855" style="fill: #1f77b4; stroke: #1f77b4; stroke-linejoin: miter"/>
     <use xlink:href="#m23e55ce0fd" x="1100.481729" y="161.952316" style="fill: #1f77b4; stroke: #1f77b4; stroke-linejoin: miter"/>
     <use xlink:href="#m23e55ce0fd" x="1117.677415" y="161.337778" style="fill: #1f77b4; stroke: #1f77b4; stroke-linejoin: miter"/>
    </g>
   </g>
   <g id="line2d_14">
    <path d="M 103.13196 426.467358 
L 120.327646 426.320028 
L 137.523332 400.207029 
L 154.719017 400.445057 
L 171.914703 392.01341 
L 189.110389 395.551538 
L 206.306074 393.473878 
L 223.50176 377.986325 
L 240.697446 411.878606 
L 257.893131 443.076476 
L 275.088817 425.897948 
L 292.284503 419.247753 
L 309.480188 414.074396 
L 326.675874 404.655461 
L 343.87156 397.333654 
L 361.067245 382.383656 
L 378.262931 374.517437 
L 395.458617 368.306134 
L 412.654302 359.652828 
L 429.849988 351.138446 
L 447.045674 339.066246 
L 464.241359 332.343271 
L 481.437045 331.613037 
L 498.632731 325.02434 
L 515.828416 246.185393 
L 533.024102 49.906747 
L 550.219788 117.793401 
L 567.415473 122.678292 
L 584.611159 113.14344 
L 601.806845 180.327401 
L 619.00253 337.404472 
L 636.198216 323.727793 
L 653.393902 275.608448 
L 670.589587 299.101365 
L 687.785273 272.32693 
L 704.980959 283.892987 
L 722.176644 279.409381 
L 739.37233 262.494985 
L 756.568016 268.147938 
L 773.763701 252.546017 
L 790.959387 251.212306 
L 808.155073 248.393129 
L 825.350758 238.939464 
L 842.546444 241.062473 
L 859.74213 217.671094 
L 876.937815 243.569072 
L 894.133501 250.259307 
L 911.329187 243.803561 
L 928.524872 251.9098 
L 945.720558 236.937016 
L 962.916244 247.552729 
L 980.111929 149.114488 
L 997.307615 156.104692 
L 1014.503301 184.498208 
L 1031.698986 159.749005 
L 1048.894672 173.026831 
L 1066.090358 166.472644 
L 1083.286043 159.456668 
L 1100.481729 167.928024 
L 1117.677415 158.859938 
" clip-path="url(#pd86d264299)" style="fill: none; stroke: #7fff00; stroke-width: 1.5; stroke-linecap: square"/>
    <defs>
     <path id="mc7f63bb7ba" d="M 0 2.5 
C 0.663008 2.5 1.29895 2.236584 1.767767 1.767767 
C 2.236584 1.29895 2.5 0.663008 2.5 0 
C 2.5 -0.663008 2.236584 -1.29895 1.767767 -1.767767 
C 1.29895 -2.236584 0.663008 -2.5 0 -2.5 
C -0.663008 -2.5 -1.29895 -2.236584 -1.767767 -1.767767 
C -2.236584 -1.29895 -2.5 -0.663008 -2.5 0 
C -2.5 0.663008 -2.236584 1.29895 -1.767767 1.767767 
C -1.29895 2.236584 -0.663008 2.5 0 2.5 
z
" style="stroke: #7fff00"/>
    </defs>
    <g clip-path="url(#pd86d264299)">
     <use xlink:href="#mc7f63bb7ba" x="103.13196" y="426.467358" style="fill: #7fff00; stroke: #7fff00"/>
     <use xlink:href="#mc7f63bb7ba" x="120.327646" y="426.320028" style="fill: #7fff00; stroke: #7fff00"/>
     <use xlink:href="#mc7f63bb7ba" x="137.523332" y="400.207029" style="fill: #7fff00; stroke: #7fff00"/>
     <use xlink:href="#mc7f63bb7ba" x="154.719017" y="400.445057" style="fill: #7fff00; stroke: #7fff00"/>
     <use xlink:href="#mc7f63bb7ba" x="171.914703" y="392.01341" style="fill: #7fff00; stroke: #7fff00"/>
     <use xlink:href="#mc7f63bb7ba" x="189.110389" y="395.551538" style="fill: #7fff00; stroke: #7fff00"/>
     <use xlink:href="#mc7f63bb7ba" x="206.306074" y="393.473878" style="fill: #7fff00; stroke: #7fff00"/>
     <use xlink:href="#mc7f63bb7ba" x="223.50176" y="377.986325" style="fill: #7fff00; stroke: #7fff00"/>
     <use xlink:href="#mc7f63bb7ba" x="240.697446" y="411.878606" style="fill: #7fff00; stroke: #7fff00"/>
     <use xlink:href="#mc7f63bb7ba" x="257.893131" y="443.076476" style="fill: #7fff00; stroke: #7fff00"/>
     <use xlink:href="#mc7f63bb7ba" x="275.088817" y="425.897948" style="fill: #7fff00; stroke: #7fff00"/>
     <use xlink:href="#mc7f63bb7ba" x="292.284503" y="419.247753" style="fill: #7fff00; stroke: #7fff00"/>
     <use xlink:href="#mc7f63bb7ba" x="309.480188" y="414.074396" style="fill: #7fff00; stroke: #7fff00"/>
     <use xlink:href="#mc7f63bb7ba" x="326.675874" y="404.655461" style="fill: #7fff00; stroke: #7fff00"/>
     <use xlink:href="#mc7f63bb7ba" x="343.87156" y="397.333654" style="fill: #7fff00; stroke: #7fff00"/>
     <use xlink:href="#mc7f63bb7ba" x="361.067245" y="382.383656" style="fill: #7fff00; stroke: #7fff00"/>
     <use xlink:href="#mc7f63bb7ba" x="378.262931" y="374.517437" style="fill: #7fff00; stroke: #7fff00"/>
     <use xlink:href="#mc7f63bb7ba" x="395.458617" y="368.306134" style="fill: #7fff00; stroke: #7fff00"/>
     <use xlink:href="#mc7f63bb7ba" x="412.654302" y="359.652828" style="fill: #7fff00; stroke: #7fff00"/>
     <use xlink:href="#mc7f63bb7ba" x="429.849988" y="351.138446" style="fill: #7fff00; stroke: #7fff00"/>
     <use xlink:href="#mc7f63bb7ba" x="447.045674" y="339.066246" style="fill: #7fff00; stroke: #7fff00"/>
     <use xlink:href="#mc7f63bb7ba" x="464.241359" y="332.343271" style="fill: #7fff00; stroke: #7fff00"/>
     <use xlink:href="#mc7f63bb7ba" x="481.437045" y="331.613037" style="fill: #7fff00; stroke: #7fff00"/>
     <use xlink:href="#mc7f63bb7ba" x="498.632731" y="325.02434" style="fill: #7fff00; stroke: #7fff00"/>
     <use xlink:href="#mc7f63bb7ba" x="515.828416" y="246.185393" style="fill: #7fff00; stroke: #7fff00"/>
     <use xlink:href="#mc7f63bb7ba" x="533.024102" y="49.906747" style="fill: #7fff00; stroke: #7fff00"/>
     <use xlink:href="#mc7f63bb7ba" x="550.219788" y="117.793401" style="fill: #7fff00; stroke: #7fff00"/>
     <use xlink:href="#mc7f63bb7ba" x="567.415473" y="122.678292" style="fill: #7fff00; stroke: #7fff00"/>
     <use xlink:href="#mc7f63bb7ba" x="584.611159" y="113.14344" style="fill: #7fff00; stroke: #7fff00"/>
     <use xlink:href="#mc7f63bb7ba" x="601.806845" y="180.327401" style="fill: #7fff00; stroke: #7fff00"/>
     <use xlink:href="#mc7f63bb7ba" x="619.00253" y="337.404472" style="fill: #7fff00; stroke: #7fff00"/>
     <use xlink:href="#mc7f63bb7ba" x="636.198216" y="323.727793" style="fill: #7fff00; stroke: #7fff00"/>
     <use xlink:href="#mc7f63bb7ba" x="653.393902" y="275.608448" style="fill: #7fff00; stroke: #7fff00"/>
     <use xlink:href="#mc7f63bb7ba" x="670.589587" y="299.101365" style="fill: #7fff00; stroke: #7fff00"/>
     <use xlink:href="#mc7f63bb7ba" x="687.785273" y="272.32693" style="fill: #7fff00; stroke: #7fff00"/>
     <use xlink:href="#mc7f63bb7ba" x="704.980959" y="283.892987" style="fill: #7fff00; stroke: #7fff00"/>
     <use xlink:href="#mc7f63bb7ba" x="722.176644" y="279.409381" style="fill: #7fff00; stroke: #7fff00"/>
     <use xlink:href="#mc7f63bb7ba" x="739.37233" y="262.494985" style="fill: #7fff00; stroke: #7fff00"/>
     <use xlink:href="#mc7f63bb7ba" x="756.568016" y="268.147938" style="fill: #7fff00; stroke: #7fff00"/>
     <use xlink:href="#mc7f63bb7ba" x="773.763701" y="252.546017" style="fill: #7fff00; stroke: #7fff00"/>
     <use xlink:href="#mc7f63bb7ba" x="790.959387" y="251.212306" style="fill: #7fff00; stroke: #7fff00"/>
     <use xlink:href="#mc7f63bb7ba" x="808.155073" y="248.393129" style="fill: #7fff00; stroke: #7fff00"/>
     <use xlink:href="#mc7f63bb7ba" x="825.350758" y="238.939464" style="fill: #7fff00; stroke: #7fff00"/>
     <use xlink:href="#mc7f63bb7ba" x="842.546444" y="241.062473" style="fill: #7fff00; stroke: #7fff00"/>
     <use xlink:href="#mc7f63bb7ba" x="859.74213" y="217.671094" style="fill: #7fff00; stroke: #7fff00"/>
     <use xlink:href="#mc7f63bb7ba" x="876.937815" y="243.569072" style="fill: #7fff00; stroke: #7fff00"/>
     <use xlink:href="#mc7f63bb7ba" x="894.133501" y="250.259307" style="fill: #7fff00; stroke: #7fff00"/>
     <use xlink:href="#mc7f63bb7ba" x="911.329187" y="243.803561" style="fill: #7fff00; stroke: #7fff00"/>
     <use xlink:href="#mc7f63bb7ba" x="928.524872" y="251.9098" style="fill: #7fff00; stroke: #7fff00"/>
     <use xlink:href="#mc7f63bb7ba" x="945.720558" y="236.937016" style="fill: #7fff00; stroke: #7fff00"/>
     <use xlink:href="#mc7f63bb7ba" x="962.916244" y="247.552729" style="fill: #7fff00; stroke: #7fff00"/>
     <use xlink:href="#mc7f63bb7ba" x="980.111929" y="149.114488" style="fill: #7fff00; stroke: #7fff00"/>
     <use xlink:href="#mc7f63bb7ba" x="997.307615" y="156.104692" style="fill: #7fff00; stroke: #7fff00"/>
     <use xlink:href="#mc7f63bb7ba" x="1014.503301" y="184.498208" style="fill: #7fff00; stroke: #7fff00"/>
     <use xlink:href="#mc7f63bb7ba" x="1031.698986" y="159.749005" style="fill: #7fff00; stroke: #7fff00"/>
     <use xlink:href="#mc7f63bb7ba" x="1048.894672" y="173.026831" style="fill: #7fff00; stroke: #7fff00"/>
     <use xlink:href="#mc7f63bb7ba" x="1066.090358" y="166.472644" style="fill: #7fff00; stroke: #7fff00"/>
     <use xlink:href="#mc7f63bb7ba" x="1083.286043" y="159.456668" style="fill: #7fff00; stroke: #7fff00"/>
     <use xlink:href="#mc7f63bb7ba" x="1100.481729" y="167.928024" style="fill: #7fff00; stroke: #7fff00"/>
     <use xlink:href="#mc7f63bb7ba" x="1117.677415" y="158.859938" style="fill: #7fff00; stroke: #7fff00"/>
    </g>
   </g>
   <g id="line2d_15">
    <path d="M 103.13196 453.93066 
L 120.327646 453.259712 
L 137.523332 441.250559 
L 154.719017 436.352837 
L 171.914703 430.729748 
L 189.110389 427.992421 
L 206.306074 418.356474 
L 223.50176 412.371917 
L 240.697446 439.072245 
L 257.893131 470.833774 
L 275.088817 460.23421 
L 292.284503 459.457742 
L 309.480188 450.528579 
L 326.675874 443.454977 
L 343.87156 432.55478 
L 361.067245 420.406925 
L 378.262931 412.571675 
L 395.458617 404.553702 
L 412.654302 397.157787 
L 429.849988 387.881095 
L 447.045674 375.79341 
L 464.241359 368.793915 
L 481.437045 366.549679 
L 498.632731 360.770632 
L 515.828416 289.598479 
L 533.024102 105.912664 
L 550.219788 149.623838 
L 567.415473 156.764912 
L 584.611159 152.887106 
L 601.806845 206.989791 
L 619.00253 381.93503 
L 636.198216 359.90059 
L 653.393902 341.877902 
L 670.589587 338.135148 
L 687.785273 314.011323 
L 704.980959 316.035671 
L 722.176644 310.639991 
L 739.37233 305.598921 
L 756.568016 300.649766 
L 773.763701 294.049898 
L 790.959387 288.425371 
L 808.155073 283.552757 
L 825.350758 279.670969 
L 842.546444 277.399965 
L 859.74213 258.658878 
L 876.937815 262.818624 
L 894.133501 253.253576 
L 911.329187 266.499769 
L 928.524872 267.768885 
L 945.720558 262.423643 
L 962.916244 263.727711 
L 980.111929 162.167448 
L 997.307615 183.164054 
L 1014.503301 189.241521 
L 1031.698986 183.908114 
L 1048.894672 195.227736 
L 1066.090358 190.582422 
L 1083.286043 191.525465 
L 1100.481729 191.855077 
L 1117.677415 190.26553 
" clip-path="url(#pd86d264299)" style="fill: none; stroke: #6c3483; stroke-width: 1.5; stroke-linecap: square"/>
    <defs>
     <path id="md67dfa9982" d="M 0 2.5 
C 0.663008 2.5 1.29895 2.236584 1.767767 1.767767 
C 2.236584 1.29895 2.5 0.663008 2.5 0 
C 2.5 -0.663008 2.236584 -1.29895 1.767767 -1.767767 
C 1.29895 -2.236584 0.663008 -2.5 0 -2.5 
C -0.663008 -2.5 -1.29895 -2.236584 -1.767767 -1.767767 
C -2.236584 -1.29895 -2.5 -0.663008 -2.5 0 
C -2.5 0.663008 -2.236584 1.29895 -1.767767 1.767767 
C -1.29895 2.236584 -0.663008 2.5 0 2.5 
z
" style="stroke: #6c3483"/>
    </defs>
    <g clip-path="url(#pd86d264299)">
     <use xlink:href="#md67dfa9982" x="103.13196" y="453.93066" style="fill: #6c3483; stroke: #6c3483"/>
     <use xlink:href="#md67dfa9982" x="120.327646" y="453.259712" style="fill: #6c3483; stroke: #6c3483"/>
     <use xlink:href="#md67dfa9982" x="137.523332" y="441.250559" style="fill: #6c3483; stroke: #6c3483"/>
     <use xlink:href="#md67dfa9982" x="154.719017" y="436.352837" style="fill: #6c3483; stroke: #6c3483"/>
     <use xlink:href="#md67dfa9982" x="171.914703" y="430.729748" style="fill: #6c3483; stroke: #6c3483"/>
     <use xlink:href="#md67dfa9982" x="189.110389" y="427.992421" style="fill: #6c3483; stroke: #6c3483"/>
     <use xlink:href="#md67dfa9982" x="206.306074" y="418.356474" style="fill: #6c3483; stroke: #6c3483"/>
     <use xlink:href="#md67dfa9982" x="223.50176" y="412.371917" style="fill: #6c3483; stroke: #6c3483"/>
     <use xlink:href="#md67dfa9982" x="240.697446" y="439.072245" style="fill: #6c3483; stroke: #6c3483"/>
     <use xlink:href="#md67dfa9982" x="257.893131" y="470.833774" style="fill: #6c3483; stroke: #6c3483"/>
     <use xlink:href="#md67dfa9982" x="275.088817" y="460.23421" style="fill: #6c3483; stroke: #6c3483"/>
     <use xlink:href="#md67dfa9982" x="292.284503" y="459.457742" style="fill: #6c3483; stroke: #6c3483"/>
     <use xlink:href="#md67dfa9982" x="309.480188" y="450.528579" style="fill: #6c3483; stroke: #6c3483"/>
     <use xlink:href="#md67dfa9982" x="326.675874" y="443.454977" style="fill: #6c3483; stroke: #6c3483"/>
     <use xlink:href="#md67dfa9982" x="343.87156" y="432.55478" style="fill: #6c3483; stroke: #6c3483"/>
     <use xlink:href="#md67dfa9982" x="361.067245" y="420.406925" style="fill: #6c3483; stroke: #6c3483"/>
     <use xlink:href="#md67dfa9982" x="378.262931" y="412.571675" style="fill: #6c3483; stroke: #6c3483"/>
     <use xlink:href="#md67dfa9982" x="395.458617" y="404.553702" style="fill: #6c3483; stroke: #6c3483"/>
     <use xlink:href="#md67dfa9982" x="412.654302" y="397.157787" style="fill: #6c3483; stroke: #6c3483"/>
     <use xlink:href="#md67dfa9982" x="429.849988" y="387.881095" style="fill: #6c3483; stroke: #6c3483"/>
     <use xlink:href="#md67dfa9982" x="447.045674" y="375.79341" style="fill: #6c3483; stroke: #6c3483"/>
     <use xlink:href="#md67dfa9982" x="464.241359" y="368.793915" style="fill: #6c3483; stroke: #6c3483"/>
     <use xlink:href="#md67dfa9982" x="481.437045" y="366.549679" style="fill: #6c3483; stroke: #6c3483"/>
     <use xlink:href="#md67dfa9982" x="498.632731" y="360.770632" style="fill: #6c3483; stroke: #6c3483"/>
     <use xlink:href="#md67dfa9982" x="515.828416" y="289.598479" style="fill: #6c3483; stroke: #6c3483"/>
     <use xlink:href="#md67dfa9982" x="533.024102" y="105.912664" style="fill: #6c3483; stroke: #6c3483"/>
     <use xlink:href="#md67dfa9982" x="550.219788" y="149.623838" style="fill: #6c3483; stroke: #6c3483"/>
     <use xlink:href="#md67dfa9982" x="567.415473" y="156.764912" style="fill: #6c3483; stroke: #6c3483"/>
     <use xlink:href="#md67dfa9982" x="584.611159" y="152.887106" style="fill: #6c3483; stroke: #6c3483"/>
     <use xlink:href="#md67dfa9982" x="601.806845" y="206.989791" style="fill: #6c3483; stroke: #6c3483"/>
     <use xlink:href="#md67dfa9982" x="619.00253" y="381.93503" style="fill: #6c3483; stroke: #6c3483"/>
     <use xlink:href="#md67dfa9982" x="636.198216" y="359.90059" style="fill: #6c3483; stroke: #6c3483"/>
     <use xlink:href="#md67dfa9982" x="653.393902" y="341.877902" style="fill: #6c3483; stroke: #6c3483"/>
     <use xlink:href="#md67dfa9982" x="670.589587" y="338.135148" style="fill: #6c3483; stroke: #6c3483"/>
     <use xlink:href="#md67dfa9982" x="687.785273" y="314.011323" style="fill: #6c3483; stroke: #6c3483"/>
     <use xlink:href="#md67dfa9982" x="704.980959" y="316.035671" style="fill: #6c3483; stroke: #6c3483"/>
     <use xlink:href="#md67dfa9982" x="722.176644" y="310.639991" style="fill: #6c3483; stroke: #6c3483"/>
     <use xlink:href="#md67dfa9982" x="739.37233" y="305.598921" style="fill: #6c3483; stroke: #6c3483"/>
     <use xlink:href="#md67dfa9982" x="756.568016" y="300.649766" style="fill: #6c3483; stroke: #6c3483"/>
     <use xlink:href="#md67dfa9982" x="773.763701" y="294.049898" style="fill: #6c3483; stroke: #6c3483"/>
     <use xlink:href="#md67dfa9982" x="790.959387" y="288.425371" style="fill: #6c3483; stroke: #6c3483"/>
     <use xlink:href="#md67dfa9982" x="808.155073" y="283.552757" style="fill: #6c3483; stroke: #6c3483"/>
     <use xlink:href="#md67dfa9982" x="825.350758" y="279.670969" style="fill: #6c3483; stroke: #6c3483"/>
     <use xlink:href="#md67dfa9982" x="842.546444" y="277.399965" style="fill: #6c3483; stroke: #6c3483"/>
     <use xlink:href="#md67dfa9982" x="859.74213" y="258.658878" style="fill: #6c3483; stroke: #6c3483"/>
     <use xlink:href="#md67dfa9982" x="876.937815" y="262.818624" style="fill: #6c3483; stroke: #6c3483"/>
     <use xlink:href="#md67dfa9982" x="894.133501" y="253.253576" style="fill: #6c3483; stroke: #6c3483"/>
     <use xlink:href="#md67dfa9982" x="911.329187" y="266.499769" style="fill: #6c3483; stroke: #6c3483"/>
     <use xlink:href="#md67dfa9982" x="928.524872" y="267.768885" style="fill: #6c3483; stroke: #6c3483"/>
     <use xlink:href="#md67dfa9982" x="945.720558" y="262.423643" style="fill: #6c3483; stroke: #6c3483"/>
     <use xlink:href="#md67dfa9982" x="962.916244" y="263.727711" style="fill: #6c3483; stroke: #6c3483"/>
     <use xlink:href="#md67dfa9982" x="980.111929" y="162.167448" style="fill: #6c3483; stroke: #6c3483"/>
     <use xlink:href="#md67dfa9982" x="997.307615" y="183.164054" style="fill: #6c3483; stroke: #6c3483"/>
     <use xlink:href="#md67dfa9982" x="1014.503301" y="189.241521" style="fill: #6c3483; stroke: #6c3483"/>
     <use xlink:href="#md67dfa9982" x="1031.698986" y="183.908114" style="fill: #6c3483; stroke: #6c3483"/>
     <use xlink:href="#md67dfa9982" x="1048.894672" y="195.227736" style="fill: #6c3483; stroke: #6c3483"/>
     <use xlink:href="#md67dfa9982" x="1066.090358" y="190.582422" style="fill: #6c3483; stroke: #6c3483"/>
     <use xlink:href="#md67dfa9982" x="1083.286043" y="191.525465" style="fill: #6c3483; stroke: #6c3483"/>
     <use xlink:href="#md67dfa9982" x="1100.481729" y="191.855077" style="fill: #6c3483; stroke: #6c3483"/>
     <use xlink:href="#md67dfa9982" x="1117.677415" y="190.26553" style="fill: #6c3483; stroke: #6c3483"/>
    </g>
   </g>
   <g id="line2d_16">
    <path d="M 103.13196 541.612937 
L 120.327646 536.113065 
L 137.523332 528.982389 
L 154.719017 519.103767 
L 171.914703 514.298956 
L 189.110389 512.381898 
L 206.306074 501.803792 
L 223.50176 494.422035 
L 240.697446 516.258266 
L 257.893131 544.088565 
L 275.088817 537.287722 
L 292.284503 538.16241 
L 309.480188 530.92378 
L 326.675874 525.266403 
L 343.87156 512.197625 
L 361.067245 499.867931 
L 378.262931 492.163641 
L 395.458617 485.223874 
L 412.654302 477.67687 
L 429.849988 468.029198 
L 447.045674 455.159072 
L 464.241359 447.976189 
L 481.437045 446.822105 
L 498.632731 440.996824 
L 515.828416 379.223364 
L 533.024102 227.062709 
L 550.219788 234.368477 
L 567.415473 236.31363 
L 584.611159 233.203665 
L 601.806845 263.652719 
L 619.00253 430.123616 
L 636.198216 416.551794 
L 653.393902 409.897838 
L 670.589587 401.538528 
L 687.785273 392.577953 
L 704.980959 384.476359 
L 722.176644 382.071963 
L 739.37233 377.883459 
L 756.568016 373.076657 
L 773.763701 368.711623 
L 790.959387 363.748642 
L 808.155073 359.703486 
L 825.350758 356.854888 
L 842.546444 354.995125 
L 859.74213 326.794289 
L 876.937815 326.607804 
L 894.133501 333.285872 
L 911.329187 331.109107 
L 928.524872 329.753717 
L 945.720558 329.06308 
L 962.916244 328.492786 
L 980.111929 244.404826 
L 997.307615 249.351768 
L 1014.503301 253.906716 
L 1031.698986 254.615271 
L 1048.894672 255.523584 
L 1066.090358 256.187564 
L 1083.286043 255.34639 
L 1100.481729 255.259784 
L 1117.677415 253.621901 
" clip-path="url(#pd86d264299)" style="fill: none; stroke: #00ffb2; stroke-width: 1.5; stroke-linecap: square"/>
    <defs>
     <path id="m93fbfa556c" d="M 0 2.5 
C 0.663008 2.5 1.29895 2.236584 1.767767 1.767767 
C 2.236584 1.29895 2.5 0.663008 2.5 0 
C 2.5 -0.663008 2.236584 -1.29895 1.767767 -1.767767 
C 1.29895 -2.236584 0.663008 -2.5 0 -2.5 
C -0.663008 -2.5 -1.29895 -2.236584 -1.767767 -1.767767 
C -2.236584 -1.29895 -2.5 -0.663008 -2.5 0 
C -2.5 0.663008 -2.236584 1.29895 -1.767767 1.767767 
C -1.29895 2.236584 -0.663008 2.5 0 2.5 
z
" style="stroke: #00ffb2"/>
    </defs>
    <g clip-path="url(#pd86d264299)">
     <use xlink:href="#m93fbfa556c" x="103.13196" y="541.612937" style="fill: #00ffb2; stroke: #00ffb2"/>
     <use xlink:href="#m93fbfa556c" x="120.327646" y="536.113065" style="fill: #00ffb2; stroke: #00ffb2"/>
     <use xlink:href="#m93fbfa556c" x="137.523332" y="528.982389" style="fill: #00ffb2; stroke: #00ffb2"/>
     <use xlink:href="#m93fbfa556c" x="154.719017" y="519.103767" style="fill: #00ffb2; stroke: #00ffb2"/>
     <use xlink:href="#m93fbfa556c" x="171.914703" y="514.298956" style="fill: #00ffb2; stroke: #00ffb2"/>
     <use xlink:href="#m93fbfa556c" x="189.110389" y="512.381898" style="fill: #00ffb2; stroke: #00ffb2"/>
     <use xlink:href="#m93fbfa556c" x="206.306074" y="501.803792" style="fill: #00ffb2; stroke: #00ffb2"/>
     <use xlink:href="#m93fbfa556c" x="223.50176" y="494.422035" style="fill: #00ffb2; stroke: #00ffb2"/>
     <use xlink:href="#m93fbfa556c" x="240.697446" y="516.258266" style="fill: #00ffb2; stroke: #00ffb2"/>
     <use xlink:href="#m93fbfa556c" x="257.893131" y="544.088565" style="fill: #00ffb2; stroke: #00ffb2"/>
     <use xlink:href="#m93fbfa556c" x="275.088817" y="537.287722" style="fill: #00ffb2; stroke: #00ffb2"/>
     <use xlink:href="#m93fbfa556c" x="292.284503" y="538.16241" style="fill: #00ffb2; stroke: #00ffb2"/>
     <use xlink:href="#m93fbfa556c" x="309.480188" y="530.92378" style="fill: #00ffb2; stroke: #00ffb2"/>
     <use xlink:href="#m93fbfa556c" x="326.675874" y="525.266403" style="fill: #00ffb2; stroke: #00ffb2"/>
     <use xlink:href="#m93fbfa556c" x="343.87156" y="512.197625" style="fill: #00ffb2; stroke: #00ffb2"/>
     <use xlink:href="#m93fbfa556c" x="361.067245" y="499.867931" style="fill: #00ffb2; stroke: #00ffb2"/>
     <use xlink:href="#m93fbfa556c" x="378.262931" y="492.163641" style="fill: #00ffb2; stroke: #00ffb2"/>
     <use xlink:href="#m93fbfa556c" x="395.458617" y="485.223874" style="fill: #00ffb2; stroke: #00ffb2"/>
     <use xlink:href="#m93fbfa556c" x="412.654302" y="477.67687" style="fill: #00ffb2; stroke: #00ffb2"/>
     <use xlink:href="#m93fbfa556c" x="429.849988" y="468.029198" style="fill: #00ffb2; stroke: #00ffb2"/>
     <use xlink:href="#m93fbfa556c" x="447.045674" y="455.159072" style="fill: #00ffb2; stroke: #00ffb2"/>
     <use xlink:href="#m93fbfa556c" x="464.241359" y="447.976189" style="fill: #00ffb2; stroke: #00ffb2"/>
     <use xlink:href="#m93fbfa556c" x="481.437045" y="446.822105" style="fill: #00ffb2; stroke: #00ffb2"/>
     <use xlink:href="#m93fbfa556c" x="498.632731" y="440.996824" style="fill: #00ffb2; stroke: #00ffb2"/>
     <use xlink:href="#m93fbfa556c" x="515.828416" y="379.223364" style="fill: #00ffb2; stroke: #00ffb2"/>
     <use xlink:href="#m93fbfa556c" x="533.024102" y="227.062709" style="fill: #00ffb2; stroke: #00ffb2"/>
     <use xlink:href="#m93fbfa556c" x="550.219788" y="234.368477" style="fill: #00ffb2; stroke: #00ffb2"/>
     <use xlink:href="#m93fbfa556c" x="567.415473" y="236.31363" style="fill: #00ffb2; stroke: #00ffb2"/>
     <use xlink:href="#m93fbfa556c" x="584.611159" y="233.203665" style="fill: #00ffb2; stroke: #00ffb2"/>
     <use xlink:href="#m93fbfa556c" x="601.806845" y="263.652719" style="fill: #00ffb2; stroke: #00ffb2"/>
     <use xlink:href="#m93fbfa556c" x="619.00253" y="430.123616" style="fill: #00ffb2; stroke: #00ffb2"/>
     <use xlink:href="#m93fbfa556c" x="636.198216" y="416.551794" style="fill: #00ffb2; stroke: #00ffb2"/>
     <use xlink:href="#m93fbfa556c" x="653.393902" y="409.897838" style="fill: #00ffb2; stroke: #00ffb2"/>
     <use xlink:href="#m93fbfa556c" x="670.589587" y="401.538528" style="fill: #00ffb2; stroke: #00ffb2"/>
     <use xlink:href="#m93fbfa556c" x="687.785273" y="392.577953" style="fill: #00ffb2; stroke: #00ffb2"/>
     <use xlink:href="#m93fbfa556c" x="704.980959" y="384.476359" style="fill: #00ffb2; stroke: #00ffb2"/>
     <use xlink:href="#m93fbfa556c" x="722.176644" y="382.071963" style="fill: #00ffb2; stroke: #00ffb2"/>
     <use xlink:href="#m93fbfa556c" x="739.37233" y="377.883459" style="fill: #00ffb2; stroke: #00ffb2"/>
     <use xlink:href="#m93fbfa556c" x="756.568016" y="373.076657" style="fill: #00ffb2; stroke: #00ffb2"/>
     <use xlink:href="#m93fbfa556c" x="773.763701" y="368.711623" style="fill: #00ffb2; stroke: #00ffb2"/>
     <use xlink:href="#m93fbfa556c" x="790.959387" y="363.748642" style="fill: #00ffb2; stroke: #00ffb2"/>
     <use xlink:href="#m93fbfa556c" x="808.155073" y="359.703486" style="fill: #00ffb2; stroke: #00ffb2"/>
     <use xlink:href="#m93fbfa556c" x="825.350758" y="356.854888" style="fill: #00ffb2; stroke: #00ffb2"/>
     <use xlink:href="#m93fbfa556c" x="842.546444" y="354.995125" style="fill: #00ffb2; stroke: #00ffb2"/>
     <use xlink:href="#m93fbfa556c" x="859.74213" y="326.794289" style="fill: #00ffb2; stroke: #00ffb2"/>
     <use xlink:href="#m93fbfa556c" x="876.937815" y="326.607804" style="fill: #00ffb2; stroke: #00ffb2"/>
     <use xlink:href="#m93fbfa556c" x="894.133501" y="333.285872" style="fill: #00ffb2; stroke: #00ffb2"/>
     <use xlink:href="#m93fbfa556c" x="911.329187" y="331.109107" style="fill: #00ffb2; stroke: #00ffb2"/>
     <use xlink:href="#m93fbfa556c" x="928.524872" y="329.753717" style="fill: #00ffb2; stroke: #00ffb2"/>
     <use xlink:href="#m93fbfa556c" x="945.720558" y="329.06308" style="fill: #00ffb2; stroke: #00ffb2"/>
     <use xlink:href="#m93fbfa556c" x="962.916244" y="328.492786" style="fill: #00ffb2; stroke: #00ffb2"/>
     <use xlink:href="#m93fbfa556c" x="980.111929" y="244.404826" style="fill: #00ffb2; stroke: #00ffb2"/>
     <use xlink:href="#m93fbfa556c" x="997.307615" y="249.351768" style="fill: #00ffb2; stroke: #00ffb2"/>
     <use xlink:href="#m93fbfa556c" x="1014.503301" y="253.906716" style="fill: #00ffb2; stroke: #00ffb2"/>
     <use xlink:href="#m93fbfa556c" x="1031.698986" y="254.615271" style="fill: #00ffb2; stroke: #00ffb2"/>
     <use xlink:href="#m93fbfa556c" x="1048.894672" y="255.523584" style="fill: #00ffb2; stroke: #00ffb2"/>
     <use xlink:href="#m93fbfa556c" x="1066.090358" y="256.187564" style="fill: #00ffb2; stroke: #00ffb2"/>
     <use xlink:href="#m93fbfa556c" x="1083.286043" y="255.34639" style="fill: #00ffb2; stroke: #00ffb2"/>
     <use xlink:href="#m93fbfa556c" x="1100.481729" y="255.259784" style="fill: #00ffb2; stroke: #00ffb2"/>
     <use xlink:href="#m93fbfa556c" x="1117.677415" y="253.621901" style="fill: #00ffb2; stroke: #00ffb2"/>
    </g>
   </g>
   <g id="patch_3">
    <path d="M 52.404688 568.797656 
L 52.404688 25.197656 
" style="fill: none; stroke: #000000; stroke-width: 0.8; stroke-linejoin: miter; stroke-linecap: square"/>
   </g>
   <g id="patch_4">
    <path d="M 1168.404687 568.797656 
L 1168.404687 25.197656 
" style="fill: none; stroke: #000000; stroke-width: 0.8; stroke-linejoin: miter; stroke-linecap: square"/>
   </g>
   <g id="patch_5">
    <path d="M 52.404688 568.797656 
L 1168.404687 568.797656 
" style="fill: none; stroke: #000000; stroke-width: 0.8; stroke-linejoin: miter; stroke-linecap: square"/>
   </g>
   <g id="patch_6">
    <path d="M 52.404688 25.197656 
L 1168.404687 25.197656 
" style="fill: none; stroke: #000000; stroke-width: 0.8; stroke-linejoin: miter; stroke-linecap: square"/>
   </g>
   <g id="text_15">
    <!-- [`PCA Processing`] - Relationship between prediction and real data for recorrent models -->
    <g transform="translate(279.890234 19.197656)scale(0.15 -0.15)">
     <defs>
      <path id="DejaVuSans-50" d="M 1259 4147 
L 1259 2394 
L 2053 2394 
Q 2494 2394 2734 2622 
Q 2975 2850 2975 3272 
Q 2975 3691 2734 3919 
Q 2494 4147 2053 4147 
L 1259 4147 
z
M 628 4666 
L 2053 4666 
Q 2838 4666 3239 4311 
Q 3641 3956 3641 3272 
Q 3641 2581 3239 2228 
Q 2838 1875 2053 1875 
L 1259 1875 
L 1259 0 
L 628 0 
L 628 4666 
z
" transform="scale(0.015625)"/>
      <path id="DejaVuSans-43" d="M 4122 4306 
L 4122 3641 
Q 3803 3938 3442 4084 
Q 3081 4231 2675 4231 
Q 1875 4231 1450 3742 
Q 1025 3253 1025 2328 
Q 1025 1406 1450 917 
Q 1875 428 2675 428 
Q 3081 428 3442 575 
Q 3803 722 4122 1019 
L 4122 359 
Q 3791 134 3420 21 
Q 3050 -91 2638 -91 
Q 1578 -91 968 557 
Q 359 1206 359 2328 
Q 359 3453 968 4101 
Q 1578 4750 2638 4750 
Q 3056 4750 3426 4639 
Q 3797 4528 4122 4306 
z
" transform="scale(0.015625)"/>
      <path id="DejaVuSans-41" d="M 2188 4044 
L 1331 1722 
L 3047 1722 
L 2188 4044 
z
M 1831 4666 
L 2547 4666 
L 4325 0 
L 3669 0 
L 3244 1197 
L 1141 1197 
L 716 0 
L 50 0 
L 1831 4666 
z
" transform="scale(0.015625)"/>
      <path id="DejaVuSans-72" d="M 2631 2963 
Q 2534 3019 2420 3045 
Q 2306 3072 2169 3072 
Q 1681 3072 1420 2755 
Q 1159 2438 1159 1844 
L 1159 0 
L 581 0 
L 581 3500 
L 1159 3500 
L 1159 2956 
Q 1341 3275 1631 3429 
Q 1922 3584 2338 3584 
Q 2397 3584 2469 3576 
Q 2541 3569 2628 3553 
L 2631 2963 
z
" transform="scale(0.015625)"/>
      <path id="DejaVuSans-67" d="M 2906 1791 
Q 2906 2416 2648 2759 
Q 2391 3103 1925 3103 
Q 1463 3103 1205 2759 
Q 947 2416 947 1791 
Q 947 1169 1205 825 
Q 1463 481 1925 481 
Q 2391 481 2648 825 
Q 2906 1169 2906 1791 
z
M 3481 434 
Q 3481 -459 3084 -895 
Q 2688 -1331 1869 -1331 
Q 1566 -1331 1297 -1286 
Q 1028 -1241 775 -1147 
L 775 -588 
Q 1028 -725 1275 -790 
Q 1522 -856 1778 -856 
Q 2344 -856 2625 -561 
Q 2906 -266 2906 331 
L 2906 616 
Q 2728 306 2450 153 
Q 2172 0 1784 0 
Q 1141 0 747 490 
Q 353 981 353 1791 
Q 353 2603 747 3093 
Q 1141 3584 1784 3584 
Q 2172 3584 2450 3431 
Q 2728 3278 2906 2969 
L 2906 3500 
L 3481 3500 
L 3481 434 
z
" transform="scale(0.015625)"/>
      <path id="DejaVuSans-2d" d="M 313 2009 
L 1997 2009 
L 1997 1497 
L 313 1497 
L 313 2009 
z
" transform="scale(0.015625)"/>
      <path id="DejaVuSans-52" d="M 2841 2188 
Q 3044 2119 3236 1894 
Q 3428 1669 3622 1275 
L 4263 0 
L 3584 0 
L 2988 1197 
Q 2756 1666 2539 1819 
Q 2322 1972 1947 1972 
L 1259 1972 
L 1259 0 
L 628 0 
L 628 4666 
L 2053 4666 
Q 2853 4666 3247 4331 
Q 3641 3997 3641 3322 
Q 3641 2881 3436 2590 
Q 3231 2300 2841 2188 
z
M 1259 4147 
L 1259 2491 
L 2053 2491 
Q 2509 2491 2742 2702 
Q 2975 2913 2975 3322 
Q 2975 3731 2742 3939 
Q 2509 4147 2053 4147 
L 1259 4147 
z
" transform="scale(0.015625)"/>
      <path id="DejaVuSans-6c" d="M 603 4863 
L 1178 4863 
L 1178 0 
L 603 0 
L 603 4863 
z
" transform="scale(0.015625)"/>
      <path id="DejaVuSans-61" d="M 2194 1759 
Q 1497 1759 1228 1600 
Q 959 1441 959 1056 
Q 959 750 1161 570 
Q 1363 391 1709 391 
Q 2188 391 2477 730 
Q 2766 1069 2766 1631 
L 2766 1759 
L 2194 1759 
z
M 3341 1997 
L 3341 0 
L 2766 0 
L 2766 531 
Q 2569 213 2275 61 
Q 1981 -91 1556 -91 
Q 1019 -91 701 211 
Q 384 513 384 1019 
Q 384 1609 779 1909 
Q 1175 2209 1959 2209 
L 2766 2209 
L 2766 2266 
Q 2766 2663 2505 2880 
Q 2244 3097 1772 3097 
Q 1472 3097 1187 3025 
Q 903 2953 641 2809 
L 641 3341 
Q 956 3463 1253 3523 
Q 1550 3584 1831 3584 
Q 2591 3584 2966 3190 
Q 3341 2797 3341 1997 
z
" transform="scale(0.015625)"/>
      <path id="DejaVuSans-68" d="M 3513 2113 
L 3513 0 
L 2938 0 
L 2938 2094 
Q 2938 2591 2744 2837 
Q 2550 3084 2163 3084 
Q 1697 3084 1428 2787 
Q 1159 2491 1159 1978 
L 1159 0 
L 581 0 
L 581 4863 
L 1159 4863 
L 1159 2956 
Q 1366 3272 1645 3428 
Q 1925 3584 2291 3584 
Q 2894 3584 3203 3211 
Q 3513 2838 3513 2113 
z
" transform="scale(0.015625)"/>
      <path id="DejaVuSans-62" d="M 3116 1747 
Q 3116 2381 2855 2742 
Q 2594 3103 2138 3103 
Q 1681 3103 1420 2742 
Q 1159 2381 1159 1747 
Q 1159 1113 1420 752 
Q 1681 391 2138 391 
Q 2594 391 2855 752 
Q 3116 1113 3116 1747 
z
M 1159 2969 
Q 1341 3281 1617 3432 
Q 1894 3584 2278 3584 
Q 2916 3584 3314 3078 
Q 3713 2572 3713 1747 
Q 3713 922 3314 415 
Q 2916 -91 2278 -91 
Q 1894 -91 1617 61 
Q 1341 213 1159 525 
L 1159 0 
L 581 0 
L 581 4863 
L 1159 4863 
L 1159 2969 
z
" transform="scale(0.015625)"/>
      <path id="DejaVuSans-64" d="M 2906 2969 
L 2906 4863 
L 3481 4863 
L 3481 0 
L 2906 0 
L 2906 525 
Q 2725 213 2448 61 
Q 2172 -91 1784 -91 
Q 1150 -91 751 415 
Q 353 922 353 1747 
Q 353 2572 751 3078 
Q 1150 3584 1784 3584 
Q 2172 3584 2448 3432 
Q 2725 3281 2906 2969 
z
M 947 1747 
Q 947 1113 1208 752 
Q 1469 391 1925 391 
Q 2381 391 2643 752 
Q 2906 1113 2906 1747 
Q 2906 2381 2643 2742 
Q 2381 3103 1925 3103 
Q 1469 3103 1208 2742 
Q 947 2381 947 1747 
z
" transform="scale(0.015625)"/>
      <path id="DejaVuSans-66" d="M 2375 4863 
L 2375 4384 
L 1825 4384 
Q 1516 4384 1395 4259 
Q 1275 4134 1275 3809 
L 1275 3500 
L 2222 3500 
L 2222 3053 
L 1275 3053 
L 1275 0 
L 697 0 
L 697 3053 
L 147 3053 
L 147 3500 
L 697 3500 
L 697 3744 
Q 697 4328 969 4595 
Q 1241 4863 1831 4863 
L 2375 4863 
z
" transform="scale(0.015625)"/>
     </defs>
     <use xlink:href="#DejaVuSans-5b"/>
     <use xlink:href="#DejaVuSans-60" x="39.013672"/>
     <use xlink:href="#DejaVuSans-50" x="89.013672"/>
     <use xlink:href="#DejaVuSans-43" x="149.316406"/>
     <use xlink:href="#DejaVuSans-41" x="219.140625"/>
     <use xlink:href="#DejaVuSans-20" x="287.548828"/>
     <use xlink:href="#DejaVuSans-50" x="319.335938"/>
     <use xlink:href="#DejaVuSans-72" x="377.888672"/>
     <use xlink:href="#DejaVuSans-6f" x="416.751953"/>
     <use xlink:href="#DejaVuSans-63" x="477.933594"/>
     <use xlink:href="#DejaVuSans-65" x="532.914062"/>
     <use xlink:href="#DejaVuSans-73" x="594.4375"/>
     <use xlink:href="#DejaVuSans-73" x="646.537109"/>
     <use xlink:href="#DejaVuSans-69" x="698.636719"/>
     <use xlink:href="#DejaVuSans-6e" x="726.419922"/>
     <use xlink:href="#DejaVuSans-67" x="789.798828"/>
     <use xlink:href="#DejaVuSans-60" x="853.275391"/>
     <use xlink:href="#DejaVuSans-5d" x="903.275391"/>
     <use xlink:href="#DejaVuSans-20" x="942.289062"/>
     <use xlink:href="#DejaVuSans-2d" x="974.076172"/>
     <use xlink:href="#DejaVuSans-20" x="1010.160156"/>
     <use xlink:href="#DejaVuSans-52" x="1041.947266"/>
     <use xlink:href="#DejaVuSans-65" x="1106.929688"/>
     <use xlink:href="#DejaVuSans-6c" x="1168.453125"/>
     <use xlink:href="#DejaVuSans-61" x="1196.236328"/>
     <use xlink:href="#DejaVuSans-74" x="1257.515625"/>
     <use xlink:href="#DejaVuSans-69" x="1296.724609"/>
     <use xlink:href="#DejaVuSans-6f" x="1324.507812"/>
     <use xlink:href="#DejaVuSans-6e" x="1385.689453"/>
     <use xlink:href="#DejaVuSans-73" x="1449.068359"/>
     <use xlink:href="#DejaVuSans-68" x="1501.167969"/>
     <use xlink:href="#DejaVuSans-69" x="1564.546875"/>
     <use xlink:href="#DejaVuSans-70" x="1592.330078"/>
     <use xlink:href="#DejaVuSans-20" x="1655.806641"/>
     <use xlink:href="#DejaVuSans-62" x="1687.59375"/>
     <use xlink:href="#DejaVuSans-65" x="1751.070312"/>
     <use xlink:href="#DejaVuSans-74" x="1812.59375"/>
     <use xlink:href="#DejaVuSans-77" x="1851.802734"/>
     <use xlink:href="#DejaVuSans-65" x="1933.589844"/>
     <use xlink:href="#DejaVuSans-65" x="1995.113281"/>
     <use xlink:href="#DejaVuSans-6e" x="2056.636719"/>
     <use xlink:href="#DejaVuSans-20" x="2120.015625"/>
     <use xlink:href="#DejaVuSans-70" x="2151.802734"/>
     <use xlink:href="#DejaVuSans-72" x="2215.279297"/>
     <use xlink:href="#DejaVuSans-65" x="2254.142578"/>
     <use xlink:href="#DejaVuSans-64" x="2315.666016"/>
     <use xlink:href="#DejaVuSans-69" x="2379.142578"/>
     <use xlink:href="#DejaVuSans-63" x="2406.925781"/>
     <use xlink:href="#DejaVuSans-74" x="2461.90625"/>
     <use xlink:href="#DejaVuSans-69" x="2501.115234"/>
     <use xlink:href="#DejaVuSans-6f" x="2528.898438"/>
     <use xlink:href="#DejaVuSans-6e" x="2590.080078"/>
     <use xlink:href="#DejaVuSans-20" x="2653.458984"/>
     <use xlink:href="#DejaVuSans-61" x="2685.246094"/>
     <use xlink:href="#DejaVuSans-6e" x="2746.525391"/>
     <use xlink:href="#DejaVuSans-64" x="2809.904297"/>
     <use xlink:href="#DejaVuSans-20" x="2873.380859"/>
     <use xlink:href="#DejaVuSans-72" x="2905.167969"/>
     <use xlink:href="#DejaVuSans-65" x="2944.03125"/>
     <use xlink:href="#DejaVuSans-61" x="3005.554688"/>
     <use xlink:href="#DejaVuSans-6c" x="3066.833984"/>
     <use xlink:href="#DejaVuSans-20" x="3094.617188"/>
     <use xlink:href="#DejaVuSans-64" x="3126.404297"/>
     <use xlink:href="#DejaVuSans-61" x="3189.880859"/>
     <use xlink:href="#DejaVuSans-74" x="3251.160156"/>
     <use xlink:href="#DejaVuSans-61" x="3290.369141"/>
     <use xlink:href="#DejaVuSans-20" x="3351.648438"/>
     <use xlink:href="#DejaVuSans-66" x="3383.435547"/>
     <use xlink:href="#DejaVuSans-6f" x="3418.640625"/>
     <use xlink:href="#DejaVuSans-72" x="3479.822266"/>
     <use xlink:href="#DejaVuSans-20" x="3520.935547"/>
     <use xlink:href="#DejaVuSans-72" x="3552.722656"/>
     <use xlink:href="#DejaVuSans-65" x="3591.585938"/>
     <use xlink:href="#DejaVuSans-63" x="3653.109375"/>
     <use xlink:href="#DejaVuSans-6f" x="3708.089844"/>
     <use xlink:href="#DejaVuSans-72" x="3769.271484"/>
     <use xlink:href="#DejaVuSans-72" x="3808.634766"/>
     <use xlink:href="#DejaVuSans-65" x="3847.498047"/>
     <use xlink:href="#DejaVuSans-6e" x="3909.021484"/>
     <use xlink:href="#DejaVuSans-74" x="3972.400391"/>
     <use xlink:href="#DejaVuSans-20" x="4011.609375"/>
     <use xlink:href="#DejaVuSans-6d" x="4043.396484"/>
     <use xlink:href="#DejaVuSans-6f" x="4140.808594"/>
     <use xlink:href="#DejaVuSans-64" x="4201.990234"/>
     <use xlink:href="#DejaVuSans-65" x="4265.466797"/>
     <use xlink:href="#DejaVuSans-6c" x="4326.990234"/>
     <use xlink:href="#DejaVuSans-73" x="4354.773438"/>
    </g>
   </g>
   <g id="legend_1">
    <g id="patch_7">
     <path d="M 1069.920312 125.266406 
L 1157.904687 125.266406 
Q 1160.904687 125.266406 1160.904687 122.266406 
L 1160.904687 35.697656 
Q 1160.904687 32.697656 1157.904687 32.697656 
L 1069.920312 32.697656 
Q 1066.920312 32.697656 1066.920312 35.697656 
L 1066.920312 122.266406 
Q 1066.920312 125.266406 1069.920312 125.266406 
z
" style="fill: #ffffff; opacity: 0.8; stroke: #cccccc; stroke-linejoin: miter"/>
    </g>
    <g id="line2d_17">
     <path d="M 1072.920312 44.845312 
L 1087.920312 44.845312 
L 1102.920312 44.845312 
" style="fill: none; stroke: #1f77b4; stroke-width: 1.5; stroke-linecap: square"/>
     <g>
      <use xlink:href="#m23e55ce0fd" x="1087.920312" y="44.845312" style="fill: #1f77b4; stroke: #1f77b4; stroke-linejoin: miter"/>
     </g>
    </g>
    <g id="text_16">
     <!-- real -->
     <g transform="translate(1114.920312 50.095312)scale(0.15 -0.15)">
      <use xlink:href="#DejaVuSans-72"/>
      <use xlink:href="#DejaVuSans-65" x="38.863281"/>
      <use xlink:href="#DejaVuSans-61" x="100.386719"/>
      <use xlink:href="#DejaVuSans-6c" x="161.666016"/>
     </g>
    </g>
    <g id="line2d_18">
     <path d="M 1072.920312 66.8625 
L 1087.920312 66.8625 
L 1102.920312 66.8625 
" style="fill: none; stroke: #7fff00; stroke-width: 1.5; stroke-linecap: square"/>
     <g>
      <use xlink:href="#mc7f63bb7ba" x="1087.920312" y="66.8625" style="fill: #7fff00; stroke: #7fff00"/>
     </g>
    </g>
    <g id="text_17">
     <!-- RNN -->
     <g transform="translate(1114.920312 72.1125)scale(0.15 -0.15)">
      <defs>
       <path id="DejaVuSans-4e" d="M 628 4666 
L 1478 4666 
L 3547 763 
L 3547 4666 
L 4159 4666 
L 4159 0 
L 3309 0 
L 1241 3903 
L 1241 0 
L 628 0 
L 628 4666 
z
" transform="scale(0.015625)"/>
      </defs>
      <use xlink:href="#DejaVuSans-52"/>
      <use xlink:href="#DejaVuSans-4e" x="69.482422"/>
      <use xlink:href="#DejaVuSans-4e" x="144.287109"/>
     </g>
    </g>
    <g id="line2d_19">
     <path d="M 1072.920312 88.879687 
L 1087.920312 88.879687 
L 1102.920312 88.879687 
" style="fill: none; stroke: #6c3483; stroke-width: 1.5; stroke-linecap: square"/>
     <g>
      <use xlink:href="#md67dfa9982" x="1087.920312" y="88.879687" style="fill: #6c3483; stroke: #6c3483"/>
     </g>
    </g>
    <g id="text_18">
     <!-- GRU -->
     <g transform="translate(1114.920312 94.129687)scale(0.15 -0.15)">
      <defs>
       <path id="DejaVuSans-47" d="M 3809 666 
L 3809 1919 
L 2778 1919 
L 2778 2438 
L 4434 2438 
L 4434 434 
Q 4069 175 3628 42 
Q 3188 -91 2688 -91 
Q 1594 -91 976 548 
Q 359 1188 359 2328 
Q 359 3472 976 4111 
Q 1594 4750 2688 4750 
Q 3144 4750 3555 4637 
Q 3966 4525 4313 4306 
L 4313 3634 
Q 3963 3931 3569 4081 
Q 3175 4231 2741 4231 
Q 1884 4231 1454 3753 
Q 1025 3275 1025 2328 
Q 1025 1384 1454 906 
Q 1884 428 2741 428 
Q 3075 428 3337 486 
Q 3600 544 3809 666 
z
" transform="scale(0.015625)"/>
       <path id="DejaVuSans-55" d="M 556 4666 
L 1191 4666 
L 1191 1831 
Q 1191 1081 1462 751 
Q 1734 422 2344 422 
Q 2950 422 3222 751 
Q 3494 1081 3494 1831 
L 3494 4666 
L 4128 4666 
L 4128 1753 
Q 4128 841 3676 375 
Q 3225 -91 2344 -91 
Q 1459 -91 1007 375 
Q 556 841 556 1753 
L 556 4666 
z
" transform="scale(0.015625)"/>
      </defs>
      <use xlink:href="#DejaVuSans-47"/>
      <use xlink:href="#DejaVuSans-52" x="77.490234"/>
      <use xlink:href="#DejaVuSans-55" x="146.972656"/>
     </g>
    </g>
    <g id="line2d_20">
     <path d="M 1072.920312 110.896875 
L 1087.920312 110.896875 
L 1102.920312 110.896875 
" style="fill: none; stroke: #00ffb2; stroke-width: 1.5; stroke-linecap: square"/>
     <g>
      <use xlink:href="#m93fbfa556c" x="1087.920312" y="110.896875" style="fill: #00ffb2; stroke: #00ffb2"/>
     </g>
    </g>
    <g id="text_19">
     <!-- LSTM -->
     <g transform="translate(1114.920312 116.146875)scale(0.15 -0.15)">
      <defs>
       <path id="DejaVuSans-4c" d="M 628 4666 
L 1259 4666 
L 1259 531 
L 3531 531 
L 3531 0 
L 628 0 
L 628 4666 
z
" transform="scale(0.015625)"/>
       <path id="DejaVuSans-53" d="M 3425 4513 
L 3425 3897 
Q 3066 4069 2747 4153 
Q 2428 4238 2131 4238 
Q 1616 4238 1336 4038 
Q 1056 3838 1056 3469 
Q 1056 3159 1242 3001 
Q 1428 2844 1947 2747 
L 2328 2669 
Q 3034 2534 3370 2195 
Q 3706 1856 3706 1288 
Q 3706 609 3251 259 
Q 2797 -91 1919 -91 
Q 1588 -91 1214 -16 
Q 841 59 441 206 
L 441 856 
Q 825 641 1194 531 
Q 1563 422 1919 422 
Q 2459 422 2753 634 
Q 3047 847 3047 1241 
Q 3047 1584 2836 1778 
Q 2625 1972 2144 2069 
L 1759 2144 
Q 1053 2284 737 2584 
Q 422 2884 422 3419 
Q 422 4038 858 4394 
Q 1294 4750 2059 4750 
Q 2388 4750 2728 4690 
Q 3069 4631 3425 4513 
z
" transform="scale(0.015625)"/>
       <path id="DejaVuSans-54" d="M -19 4666 
L 3928 4666 
L 3928 4134 
L 2272 4134 
L 2272 0 
L 1638 0 
L 1638 4134 
L -19 4134 
L -19 4666 
z
" transform="scale(0.015625)"/>
       <path id="DejaVuSans-4d" d="M 628 4666 
L 1569 4666 
L 2759 1491 
L 3956 4666 
L 4897 4666 
L 4897 0 
L 4281 0 
L 4281 4097 
L 3078 897 
L 2444 897 
L 1241 4097 
L 1241 0 
L 628 0 
L 628 4666 
z
" transform="scale(0.015625)"/>
      </defs>
      <use xlink:href="#DejaVuSans-4c"/>
      <use xlink:href="#DejaVuSans-53" x="55.712891"/>
      <use xlink:href="#DejaVuSans-54" x="119.189453"/>
      <use xlink:href="#DejaVuSans-4d" x="180.273438"/>
     </g>
    </g>
   </g>
  </g>
 </g>
 <defs>
  <clipPath id="pd86d264299">
   <rect x="52.404688" y="25.197656" width="1116" height="543.6"/>
  </clipPath>
 </defs>
</svg>
