<?xml version="1.0" encoding="utf-8" standalone="no"?>
<!DOCTYPE svg PUBLIC "-//W3C//DTD SVG 1.1//EN"
  "http://www.w3.org/Graphics/SVG/1.1/DTD/svg11.dtd">
<svg xmlns:xlink="http://www.w3.org/1999/xlink" width="1175.604687pt" height="611.192969pt" viewBox="0 0 1175.604687 611.192969" xmlns="http://www.w3.org/2000/svg" version="1.1">
 <metadata>
  <rdf:RDF xmlns:dc="http://purl.org/dc/elements/1.1/" xmlns:cc="http://creativecommons.org/ns#" xmlns:rdf="http://www.w3.org/1999/02/22-rdf-syntax-ns#">
   <cc:Work>
    <dc:type rdf:resource="http://purl.org/dc/dcmitype/StillImage"/>
    <dc:date>2022-07-28T10:59:12.861836</dc:date>
    <dc:format>image/svg+xml</dc:format>
    <dc:creator>
     <cc:Agent>
      <dc:title>Matplotlib v3.5.2, https://matplotlib.org/</dc:title>
     </cc:Agent>
    </dc:creator>
   </cc:Work>
  </rdf:RDF>
 </metadata>
 <defs>
  <style type="text/css">*{stroke-linejoin: round; stroke-linecap: butt}</style>
 </defs>
 <g id="figure_1">
  <g id="patch_1">
   <path d="M 0 611.192969 
L 1175.604687 611.192969 
L 1175.604687 0 
L 0 0 
L 0 611.192969 
z
" style="fill: none"/>
  </g>
  <g id="axes_1">
   <g id="patch_2">
    <path d="M 52.404688 568.797656 
L 1168.404687 568.797656 
L 1168.404687 25.197656 
L 52.404688 25.197656 
z
" style="fill: #ffffff"/>
   </g>
   <g id="matplotlib.axis_1">
    <g id="xtick_1">
     <g id="line2d_1">
      <defs>
       <path id="m180eefbd6a" d="M 0 0 
L 0 3.5 
" style="stroke: #000000; stroke-width: 0.8"/>
      </defs>
      <g>
       <use xlink:href="#m180eefbd6a" x="103.13196" y="568.797656" style="stroke: #000000; stroke-width: 0.8"/>
      </g>
     </g>
     <g id="text_1">
      <!-- 0 -->
      <g transform="translate(99.95071 583.396094)scale(0.1 -0.1)">
       <defs>
        <path id="DejaVuSans-30" d="M 2034 4250 
Q 1547 4250 1301 3770 
Q 1056 3291 1056 2328 
Q 1056 1369 1301 889 
Q 1547 409 2034 409 
Q 2525 409 2770 889 
Q 3016 1369 3016 2328 
Q 3016 3291 2770 3770 
Q 2525 4250 2034 4250 
z
M 2034 4750 
Q 2819 4750 3233 4129 
Q 3647 3509 3647 2328 
Q 3647 1150 3233 529 
Q 2819 -91 2034 -91 
Q 1250 -91 836 529 
Q 422 1150 422 2328 
Q 422 3509 836 4129 
Q 1250 4750 2034 4750 
z
" transform="scale(0.015625)"/>
       </defs>
       <use xlink:href="#DejaVuSans-30"/>
      </g>
     </g>
    </g>
    <g id="xtick_2">
     <g id="line2d_2">
      <g>
       <use xlink:href="#m180eefbd6a" x="275.088817" y="568.797656" style="stroke: #000000; stroke-width: 0.8"/>
      </g>
     </g>
     <g id="text_2">
      <!-- 10 -->
      <g transform="translate(268.726317 583.396094)scale(0.1 -0.1)">
       <defs>
        <path id="DejaVuSans-31" d="M 794 531 
L 1825 531 
L 1825 4091 
L 703 3866 
L 703 4441 
L 1819 4666 
L 2450 4666 
L 2450 531 
L 3481 531 
L 3481 0 
L 794 0 
L 794 531 
z
" transform="scale(0.015625)"/>
       </defs>
       <use xlink:href="#DejaVuSans-31"/>
       <use xlink:href="#DejaVuSans-30" x="63.623047"/>
      </g>
     </g>
    </g>
    <g id="xtick_3">
     <g id="line2d_3">
      <g>
       <use xlink:href="#m180eefbd6a" x="447.045674" y="568.797656" style="stroke: #000000; stroke-width: 0.8"/>
      </g>
     </g>
     <g id="text_3">
      <!-- 20 -->
      <g transform="translate(440.683174 583.396094)scale(0.1 -0.1)">
       <defs>
        <path id="DejaVuSans-32" d="M 1228 531 
L 3431 531 
L 3431 0 
L 469 0 
L 469 531 
Q 828 903 1448 1529 
Q 2069 2156 2228 2338 
Q 2531 2678 2651 2914 
Q 2772 3150 2772 3378 
Q 2772 3750 2511 3984 
Q 2250 4219 1831 4219 
Q 1534 4219 1204 4116 
Q 875 4013 500 3803 
L 500 4441 
Q 881 4594 1212 4672 
Q 1544 4750 1819 4750 
Q 2544 4750 2975 4387 
Q 3406 4025 3406 3419 
Q 3406 3131 3298 2873 
Q 3191 2616 2906 2266 
Q 2828 2175 2409 1742 
Q 1991 1309 1228 531 
z
" transform="scale(0.015625)"/>
       </defs>
       <use xlink:href="#DejaVuSans-32"/>
       <use xlink:href="#DejaVuSans-30" x="63.623047"/>
      </g>
     </g>
    </g>
    <g id="xtick_4">
     <g id="line2d_4">
      <g>
       <use xlink:href="#m180eefbd6a" x="619.00253" y="568.797656" style="stroke: #000000; stroke-width: 0.8"/>
      </g>
     </g>
     <g id="text_4">
      <!-- 30 -->
      <g transform="translate(612.64003 583.396094)scale(0.1 -0.1)">
       <defs>
        <path id="DejaVuSans-33" d="M 2597 2516 
Q 3050 2419 3304 2112 
Q 3559 1806 3559 1356 
Q 3559 666 3084 287 
Q 2609 -91 1734 -91 
Q 1441 -91 1130 -33 
Q 819 25 488 141 
L 488 750 
Q 750 597 1062 519 
Q 1375 441 1716 441 
Q 2309 441 2620 675 
Q 2931 909 2931 1356 
Q 2931 1769 2642 2001 
Q 2353 2234 1838 2234 
L 1294 2234 
L 1294 2753 
L 1863 2753 
Q 2328 2753 2575 2939 
Q 2822 3125 2822 3475 
Q 2822 3834 2567 4026 
Q 2313 4219 1838 4219 
Q 1578 4219 1281 4162 
Q 984 4106 628 3988 
L 628 4550 
Q 988 4650 1302 4700 
Q 1616 4750 1894 4750 
Q 2613 4750 3031 4423 
Q 3450 4097 3450 3541 
Q 3450 3153 3228 2886 
Q 3006 2619 2597 2516 
z
" transform="scale(0.015625)"/>
       </defs>
       <use xlink:href="#DejaVuSans-33"/>
       <use xlink:href="#DejaVuSans-30" x="63.623047"/>
      </g>
     </g>
    </g>
    <g id="xtick_5">
     <g id="line2d_5">
      <g>
       <use xlink:href="#m180eefbd6a" x="790.959387" y="568.797656" style="stroke: #000000; stroke-width: 0.8"/>
      </g>
     </g>
     <g id="text_5">
      <!-- 40 -->
      <g transform="translate(784.596887 583.396094)scale(0.1 -0.1)">
       <defs>
        <path id="DejaVuSans-34" d="M 2419 4116 
L 825 1625 
L 2419 1625 
L 2419 4116 
z
M 2253 4666 
L 3047 4666 
L 3047 1625 
L 3713 1625 
L 3713 1100 
L 3047 1100 
L 3047 0 
L 2419 0 
L 2419 1100 
L 313 1100 
L 313 1709 
L 2253 4666 
z
" transform="scale(0.015625)"/>
       </defs>
       <use xlink:href="#DejaVuSans-34"/>
       <use xlink:href="#DejaVuSans-30" x="63.623047"/>
      </g>
     </g>
    </g>
    <g id="xtick_6">
     <g id="line2d_6">
      <g>
       <use xlink:href="#m180eefbd6a" x="962.916244" y="568.797656" style="stroke: #000000; stroke-width: 0.8"/>
      </g>
     </g>
     <g id="text_6">
      <!-- 50 -->
      <g transform="translate(956.553744 583.396094)scale(0.1 -0.1)">
       <defs>
        <path id="DejaVuSans-35" d="M 691 4666 
L 3169 4666 
L 3169 4134 
L 1269 4134 
L 1269 2991 
Q 1406 3038 1543 3061 
Q 1681 3084 1819 3084 
Q 2600 3084 3056 2656 
Q 3513 2228 3513 1497 
Q 3513 744 3044 326 
Q 2575 -91 1722 -91 
Q 1428 -91 1123 -41 
Q 819 9 494 109 
L 494 744 
Q 775 591 1075 516 
Q 1375 441 1709 441 
Q 2250 441 2565 725 
Q 2881 1009 2881 1497 
Q 2881 1984 2565 2268 
Q 2250 2553 1709 2553 
Q 1456 2553 1204 2497 
Q 953 2441 691 2322 
L 691 4666 
z
" transform="scale(0.015625)"/>
       </defs>
       <use xlink:href="#DejaVuSans-35"/>
       <use xlink:href="#DejaVuSans-30" x="63.623047"/>
      </g>
     </g>
    </g>
    <g id="xtick_7">
     <g id="line2d_7">
      <g>
       <use xlink:href="#m180eefbd6a" x="1134.8731" y="568.797656" style="stroke: #000000; stroke-width: 0.8"/>
      </g>
     </g>
     <g id="text_7">
      <!-- 60 -->
      <g transform="translate(1128.5106 583.396094)scale(0.1 -0.1)">
       <defs>
        <path id="DejaVuSans-36" d="M 2113 2584 
Q 1688 2584 1439 2293 
Q 1191 2003 1191 1497 
Q 1191 994 1439 701 
Q 1688 409 2113 409 
Q 2538 409 2786 701 
Q 3034 994 3034 1497 
Q 3034 2003 2786 2293 
Q 2538 2584 2113 2584 
z
M 3366 4563 
L 3366 3988 
Q 3128 4100 2886 4159 
Q 2644 4219 2406 4219 
Q 1781 4219 1451 3797 
Q 1122 3375 1075 2522 
Q 1259 2794 1537 2939 
Q 1816 3084 2150 3084 
Q 2853 3084 3261 2657 
Q 3669 2231 3669 1497 
Q 3669 778 3244 343 
Q 2819 -91 2113 -91 
Q 1303 -91 875 529 
Q 447 1150 447 2328 
Q 447 3434 972 4092 
Q 1497 4750 2381 4750 
Q 2619 4750 2861 4703 
Q 3103 4656 3366 4563 
z
" transform="scale(0.015625)"/>
       </defs>
       <use xlink:href="#DejaVuSans-36"/>
       <use xlink:href="#DejaVuSans-30" x="63.623047"/>
      </g>
     </g>
    </g>
    <g id="text_8">
     <!-- time [`min`] -->
     <g transform="translate(563.582422 600.873438)scale(0.15 -0.15)">
      <defs>
       <path id="DejaVuSans-74" d="M 1172 4494 
L 1172 3500 
L 2356 3500 
L 2356 3053 
L 1172 3053 
L 1172 1153 
Q 1172 725 1289 603 
Q 1406 481 1766 481 
L 2356 481 
L 2356 0 
L 1766 0 
Q 1100 0 847 248 
Q 594 497 594 1153 
L 594 3053 
L 172 3053 
L 172 3500 
L 594 3500 
L 594 4494 
L 1172 4494 
z
" transform="scale(0.015625)"/>
       <path id="DejaVuSans-69" d="M 603 3500 
L 1178 3500 
L 1178 0 
L 603 0 
L 603 3500 
z
M 603 4863 
L 1178 4863 
L 1178 4134 
L 603 4134 
L 603 4863 
z
" transform="scale(0.015625)"/>
       <path id="DejaVuSans-6d" d="M 3328 2828 
Q 3544 3216 3844 3400 
Q 4144 3584 4550 3584 
Q 5097 3584 5394 3201 
Q 5691 2819 5691 2113 
L 5691 0 
L 5113 0 
L 5113 2094 
Q 5113 2597 4934 2840 
Q 4756 3084 4391 3084 
Q 3944 3084 3684 2787 
Q 3425 2491 3425 1978 
L 3425 0 
L 2847 0 
L 2847 2094 
Q 2847 2600 2669 2842 
Q 2491 3084 2119 3084 
Q 1678 3084 1418 2786 
Q 1159 2488 1159 1978 
L 1159 0 
L 581 0 
L 581 3500 
L 1159 3500 
L 1159 2956 
Q 1356 3278 1631 3431 
Q 1906 3584 2284 3584 
Q 2666 3584 2933 3390 
Q 3200 3197 3328 2828 
z
" transform="scale(0.015625)"/>
       <path id="DejaVuSans-65" d="M 3597 1894 
L 3597 1613 
L 953 1613 
Q 991 1019 1311 708 
Q 1631 397 2203 397 
Q 2534 397 2845 478 
Q 3156 559 3463 722 
L 3463 178 
Q 3153 47 2828 -22 
Q 2503 -91 2169 -91 
Q 1331 -91 842 396 
Q 353 884 353 1716 
Q 353 2575 817 3079 
Q 1281 3584 2069 3584 
Q 2775 3584 3186 3129 
Q 3597 2675 3597 1894 
z
M 3022 2063 
Q 3016 2534 2758 2815 
Q 2500 3097 2075 3097 
Q 1594 3097 1305 2825 
Q 1016 2553 972 2059 
L 3022 2063 
z
" transform="scale(0.015625)"/>
       <path id="DejaVuSans-20" transform="scale(0.015625)"/>
       <path id="DejaVuSans-5b" d="M 550 4863 
L 1875 4863 
L 1875 4416 
L 1125 4416 
L 1125 -397 
L 1875 -397 
L 1875 -844 
L 550 -844 
L 550 4863 
z
" transform="scale(0.015625)"/>
       <path id="DejaVuSans-60" d="M 1147 5119 
L 2028 3950 
L 1550 3950 
L 531 5119 
L 1147 5119 
z
" transform="scale(0.015625)"/>
       <path id="DejaVuSans-6e" d="M 3513 2113 
L 3513 0 
L 2938 0 
L 2938 2094 
Q 2938 2591 2744 2837 
Q 2550 3084 2163 3084 
Q 1697 3084 1428 2787 
Q 1159 2491 1159 1978 
L 1159 0 
L 581 0 
L 581 3500 
L 1159 3500 
L 1159 2956 
Q 1366 3272 1645 3428 
Q 1925 3584 2291 3584 
Q 2894 3584 3203 3211 
Q 3513 2838 3513 2113 
z
" transform="scale(0.015625)"/>
       <path id="DejaVuSans-5d" d="M 1947 4863 
L 1947 -844 
L 622 -844 
L 622 -397 
L 1369 -397 
L 1369 4416 
L 622 4416 
L 622 4863 
L 1947 4863 
z
" transform="scale(0.015625)"/>
      </defs>
      <use xlink:href="#DejaVuSans-74"/>
      <use xlink:href="#DejaVuSans-69" x="39.208984"/>
      <use xlink:href="#DejaVuSans-6d" x="66.992188"/>
      <use xlink:href="#DejaVuSans-65" x="164.404297"/>
      <use xlink:href="#DejaVuSans-20" x="225.927734"/>
      <use xlink:href="#DejaVuSans-5b" x="257.714844"/>
      <use xlink:href="#DejaVuSans-60" x="296.728516"/>
      <use xlink:href="#DejaVuSans-6d" x="346.728516"/>
      <use xlink:href="#DejaVuSans-69" x="444.140625"/>
      <use xlink:href="#DejaVuSans-6e" x="471.923828"/>
      <use xlink:href="#DejaVuSans-60" x="535.302734"/>
      <use xlink:href="#DejaVuSans-5d" x="585.302734"/>
     </g>
    </g>
   </g>
   <g id="matplotlib.axis_2">
    <g id="ytick_1">
     <g id="line2d_8">
      <defs>
       <path id="mafb4ed09cb" d="M 0 0 
L -3.5 0 
" style="stroke: #000000; stroke-width: 0.8"/>
      </defs>
      <g>
       <use xlink:href="#mafb4ed09cb" x="52.404688" y="508.380166" style="stroke: #000000; stroke-width: 0.8"/>
      </g>
     </g>
     <g id="text_9">
      <!-- 80 -->
      <g transform="translate(32.679688 512.179385)scale(0.1 -0.1)">
       <defs>
        <path id="DejaVuSans-38" d="M 2034 2216 
Q 1584 2216 1326 1975 
Q 1069 1734 1069 1313 
Q 1069 891 1326 650 
Q 1584 409 2034 409 
Q 2484 409 2743 651 
Q 3003 894 3003 1313 
Q 3003 1734 2745 1975 
Q 2488 2216 2034 2216 
z
M 1403 2484 
Q 997 2584 770 2862 
Q 544 3141 544 3541 
Q 544 4100 942 4425 
Q 1341 4750 2034 4750 
Q 2731 4750 3128 4425 
Q 3525 4100 3525 3541 
Q 3525 3141 3298 2862 
Q 3072 2584 2669 2484 
Q 3125 2378 3379 2068 
Q 3634 1759 3634 1313 
Q 3634 634 3220 271 
Q 2806 -91 2034 -91 
Q 1263 -91 848 271 
Q 434 634 434 1313 
Q 434 1759 690 2068 
Q 947 2378 1403 2484 
z
M 1172 3481 
Q 1172 3119 1398 2916 
Q 1625 2713 2034 2713 
Q 2441 2713 2670 2916 
Q 2900 3119 2900 3481 
Q 2900 3844 2670 4047 
Q 2441 4250 2034 4250 
Q 1625 4250 1398 4047 
Q 1172 3844 1172 3481 
z
" transform="scale(0.015625)"/>
       </defs>
       <use xlink:href="#DejaVuSans-38"/>
       <use xlink:href="#DejaVuSans-30" x="63.623047"/>
      </g>
     </g>
    </g>
    <g id="ytick_2">
     <g id="line2d_9">
      <g>
       <use xlink:href="#mafb4ed09cb" x="52.404688" y="409.473899" style="stroke: #000000; stroke-width: 0.8"/>
      </g>
     </g>
     <g id="text_10">
      <!-- 85 -->
      <g transform="translate(32.679688 413.273117)scale(0.1 -0.1)">
       <use xlink:href="#DejaVuSans-38"/>
       <use xlink:href="#DejaVuSans-35" x="63.623047"/>
      </g>
     </g>
    </g>
    <g id="ytick_3">
     <g id="line2d_10">
      <g>
       <use xlink:href="#mafb4ed09cb" x="52.404688" y="310.567631" style="stroke: #000000; stroke-width: 0.8"/>
      </g>
     </g>
     <g id="text_11">
      <!-- 90 -->
      <g transform="translate(32.679688 314.36685)scale(0.1 -0.1)">
       <defs>
        <path id="DejaVuSans-39" d="M 703 97 
L 703 672 
Q 941 559 1184 500 
Q 1428 441 1663 441 
Q 2288 441 2617 861 
Q 2947 1281 2994 2138 
Q 2813 1869 2534 1725 
Q 2256 1581 1919 1581 
Q 1219 1581 811 2004 
Q 403 2428 403 3163 
Q 403 3881 828 4315 
Q 1253 4750 1959 4750 
Q 2769 4750 3195 4129 
Q 3622 3509 3622 2328 
Q 3622 1225 3098 567 
Q 2575 -91 1691 -91 
Q 1453 -91 1209 -44 
Q 966 3 703 97 
z
M 1959 2075 
Q 2384 2075 2632 2365 
Q 2881 2656 2881 3163 
Q 2881 3666 2632 3958 
Q 2384 4250 1959 4250 
Q 1534 4250 1286 3958 
Q 1038 3666 1038 3163 
Q 1038 2656 1286 2365 
Q 1534 2075 1959 2075 
z
" transform="scale(0.015625)"/>
       </defs>
       <use xlink:href="#DejaVuSans-39"/>
       <use xlink:href="#DejaVuSans-30" x="63.623047"/>
      </g>
     </g>
    </g>
    <g id="ytick_4">
     <g id="line2d_11">
      <g>
       <use xlink:href="#mafb4ed09cb" x="52.404688" y="211.661364" style="stroke: #000000; stroke-width: 0.8"/>
      </g>
     </g>
     <g id="text_12">
      <!-- 95 -->
      <g transform="translate(32.679688 215.460583)scale(0.1 -0.1)">
       <use xlink:href="#DejaVuSans-39"/>
       <use xlink:href="#DejaVuSans-35" x="63.623047"/>
      </g>
     </g>
    </g>
    <g id="ytick_5">
     <g id="line2d_12">
      <g>
       <use xlink:href="#mafb4ed09cb" x="52.404688" y="112.755096" style="stroke: #000000; stroke-width: 0.8"/>
      </g>
     </g>
     <g id="text_13">
      <!-- 100 -->
      <g transform="translate(26.317188 116.554315)scale(0.1 -0.1)">
       <use xlink:href="#DejaVuSans-31"/>
       <use xlink:href="#DejaVuSans-30" x="63.623047"/>
       <use xlink:href="#DejaVuSans-30" x="127.246094"/>
      </g>
     </g>
    </g>
    <g id="text_14">
     <!-- consumption [`kw`] -->
     <g transform="translate(19.197656 371.769141)rotate(-90)scale(0.15 -0.15)">
      <defs>
       <path id="DejaVuSans-63" d="M 3122 3366 
L 3122 2828 
Q 2878 2963 2633 3030 
Q 2388 3097 2138 3097 
Q 1578 3097 1268 2742 
Q 959 2388 959 1747 
Q 959 1106 1268 751 
Q 1578 397 2138 397 
Q 2388 397 2633 464 
Q 2878 531 3122 666 
L 3122 134 
Q 2881 22 2623 -34 
Q 2366 -91 2075 -91 
Q 1284 -91 818 406 
Q 353 903 353 1747 
Q 353 2603 823 3093 
Q 1294 3584 2113 3584 
Q 2378 3584 2631 3529 
Q 2884 3475 3122 3366 
z
" transform="scale(0.015625)"/>
       <path id="DejaVuSans-6f" d="M 1959 3097 
Q 1497 3097 1228 2736 
Q 959 2375 959 1747 
Q 959 1119 1226 758 
Q 1494 397 1959 397 
Q 2419 397 2687 759 
Q 2956 1122 2956 1747 
Q 2956 2369 2687 2733 
Q 2419 3097 1959 3097 
z
M 1959 3584 
Q 2709 3584 3137 3096 
Q 3566 2609 3566 1747 
Q 3566 888 3137 398 
Q 2709 -91 1959 -91 
Q 1206 -91 779 398 
Q 353 888 353 1747 
Q 353 2609 779 3096 
Q 1206 3584 1959 3584 
z
" transform="scale(0.015625)"/>
       <path id="DejaVuSans-73" d="M 2834 3397 
L 2834 2853 
Q 2591 2978 2328 3040 
Q 2066 3103 1784 3103 
Q 1356 3103 1142 2972 
Q 928 2841 928 2578 
Q 928 2378 1081 2264 
Q 1234 2150 1697 2047 
L 1894 2003 
Q 2506 1872 2764 1633 
Q 3022 1394 3022 966 
Q 3022 478 2636 193 
Q 2250 -91 1575 -91 
Q 1294 -91 989 -36 
Q 684 19 347 128 
L 347 722 
Q 666 556 975 473 
Q 1284 391 1588 391 
Q 1994 391 2212 530 
Q 2431 669 2431 922 
Q 2431 1156 2273 1281 
Q 2116 1406 1581 1522 
L 1381 1569 
Q 847 1681 609 1914 
Q 372 2147 372 2553 
Q 372 3047 722 3315 
Q 1072 3584 1716 3584 
Q 2034 3584 2315 3537 
Q 2597 3491 2834 3397 
z
" transform="scale(0.015625)"/>
       <path id="DejaVuSans-75" d="M 544 1381 
L 544 3500 
L 1119 3500 
L 1119 1403 
Q 1119 906 1312 657 
Q 1506 409 1894 409 
Q 2359 409 2629 706 
Q 2900 1003 2900 1516 
L 2900 3500 
L 3475 3500 
L 3475 0 
L 2900 0 
L 2900 538 
Q 2691 219 2414 64 
Q 2138 -91 1772 -91 
Q 1169 -91 856 284 
Q 544 659 544 1381 
z
M 1991 3584 
L 1991 3584 
z
" transform="scale(0.015625)"/>
       <path id="DejaVuSans-70" d="M 1159 525 
L 1159 -1331 
L 581 -1331 
L 581 3500 
L 1159 3500 
L 1159 2969 
Q 1341 3281 1617 3432 
Q 1894 3584 2278 3584 
Q 2916 3584 3314 3078 
Q 3713 2572 3713 1747 
Q 3713 922 3314 415 
Q 2916 -91 2278 -91 
Q 1894 -91 1617 61 
Q 1341 213 1159 525 
z
M 3116 1747 
Q 3116 2381 2855 2742 
Q 2594 3103 2138 3103 
Q 1681 3103 1420 2742 
Q 1159 2381 1159 1747 
Q 1159 1113 1420 752 
Q 1681 391 2138 391 
Q 2594 391 2855 752 
Q 3116 1113 3116 1747 
z
" transform="scale(0.015625)"/>
       <path id="DejaVuSans-6b" d="M 581 4863 
L 1159 4863 
L 1159 1991 
L 2875 3500 
L 3609 3500 
L 1753 1863 
L 3688 0 
L 2938 0 
L 1159 1709 
L 1159 0 
L 581 0 
L 581 4863 
z
" transform="scale(0.015625)"/>
       <path id="DejaVuSans-77" d="M 269 3500 
L 844 3500 
L 1563 769 
L 2278 3500 
L 2956 3500 
L 3675 769 
L 4391 3500 
L 4966 3500 
L 4050 0 
L 3372 0 
L 2619 2869 
L 1863 0 
L 1184 0 
L 269 3500 
z
" transform="scale(0.015625)"/>
      </defs>
      <use xlink:href="#DejaVuSans-63"/>
      <use xlink:href="#DejaVuSans-6f" x="54.980469"/>
      <use xlink:href="#DejaVuSans-6e" x="116.162109"/>
      <use xlink:href="#DejaVuSans-73" x="179.541016"/>
      <use xlink:href="#DejaVuSans-75" x="231.640625"/>
      <use xlink:href="#DejaVuSans-6d" x="295.019531"/>
      <use xlink:href="#DejaVuSans-70" x="392.431641"/>
      <use xlink:href="#DejaVuSans-74" x="455.908203"/>
      <use xlink:href="#DejaVuSans-69" x="495.117188"/>
      <use xlink:href="#DejaVuSans-6f" x="522.900391"/>
      <use xlink:href="#DejaVuSans-6e" x="584.082031"/>
      <use xlink:href="#DejaVuSans-20" x="647.460938"/>
      <use xlink:href="#DejaVuSans-5b" x="679.248047"/>
      <use xlink:href="#DejaVuSans-60" x="718.261719"/>
      <use xlink:href="#DejaVuSans-6b" x="768.261719"/>
      <use xlink:href="#DejaVuSans-77" x="826.171875"/>
      <use xlink:href="#DejaVuSans-60" x="907.958984"/>
      <use xlink:href="#DejaVuSans-5d" x="957.958984"/>
     </g>
    </g>
   </g>
   <g id="line2d_13">
    <path d="M 103.13196 421.846308 
L 120.327646 416.835137 
L 137.523332 409.465669 
L 154.719017 404.749286 
L 171.914703 402.685775 
L 189.110389 395.021519 
L 206.306074 388.536412 
L 223.50176 415.655988 
L 240.697446 451.029395 
L 257.893131 445.42865 
L 275.088817 445.42865 
L 292.284503 440.417479 
L 309.480188 435.995671 
L 326.675874 425.973329 
L 343.87156 415.066414 
L 361.067245 407.107583 
L 378.262931 400.622264 
L 395.458617 393.84237 
L 412.654302 385.588752 
L 429.849988 374.681837 
L 447.045674 367.017581 
L 464.241359 364.954283 
L 481.437045 360.827262 
L 498.632731 295.091726 
L 515.828416 129.426398 
L 533.024102 129.721185 
L 550.219788 130.015972 
L 567.415473 127.952568 
L 584.611159 160.083421 
L 601.806845 342.256303 
L 619.00253 338.129494 
L 636.198216 334.29726 
L 653.393902 329.28609 
L 670.589587 323.390557 
L 687.785273 318.084387 
L 704.980959 315.726302 
L 722.176644 312.483642 
L 739.37233 308.356833 
L 756.568016 303.935131 
L 773.763701 299.218641 
L 790.959387 295.091726 
L 808.155073 291.554492 
L 825.350758 289.785768 
L 842.546444 287.427577 
L 859.74213 285.364066 
L 876.937815 283.300662 
L 894.133501 280.058108 
L 911.329187 277.405129 
L 928.524872 275.046831 
L 945.720558 272.393853 
L 962.916244 180.128315 
L 980.111929 181.012571 
L 997.307615 183.960443 
L 1014.503301 182.781294 
L 1031.698986 181.896933 
L 1048.894672 181.012571 
L 1066.090358 179.243954 
L 1083.286043 178.949166 
L 1100.481729 177.475336 
L 1117.677415 176.885762 
" clip-path="url(#p10528668ef)" style="fill: none; stroke: #1f77b4; stroke-width: 1.5; stroke-linecap: square"/>
    <defs>
     <path id="m53fc541a09" d="M 0 -3 
L -3 3 
L 3 3 
z
" style="stroke: #1f77b4; stroke-linejoin: miter"/>
    </defs>
    <g clip-path="url(#p10528668ef)">
     <use xlink:href="#m53fc541a09" x="103.13196" y="421.846308" style="fill: #1f77b4; stroke: #1f77b4; stroke-linejoin: miter"/>
     <use xlink:href="#m53fc541a09" x="120.327646" y="416.835137" style="fill: #1f77b4; stroke: #1f77b4; stroke-linejoin: miter"/>
     <use xlink:href="#m53fc541a09" x="137.523332" y="409.465669" style="fill: #1f77b4; stroke: #1f77b4; stroke-linejoin: miter"/>
     <use xlink:href="#m53fc541a09" x="154.719017" y="404.749286" style="fill: #1f77b4; stroke: #1f77b4; stroke-linejoin: miter"/>
     <use xlink:href="#m53fc541a09" x="171.914703" y="402.685775" style="fill: #1f77b4; stroke: #1f77b4; stroke-linejoin: miter"/>
     <use xlink:href="#m53fc541a09" x="189.110389" y="395.021519" style="fill: #1f77b4; stroke: #1f77b4; stroke-linejoin: miter"/>
     <use xlink:href="#m53fc541a09" x="206.306074" y="388.536412" style="fill: #1f77b4; stroke: #1f77b4; stroke-linejoin: miter"/>
     <use xlink:href="#m53fc541a09" x="223.50176" y="415.655988" style="fill: #1f77b4; stroke: #1f77b4; stroke-linejoin: miter"/>
     <use xlink:href="#m53fc541a09" x="240.697446" y="451.029395" style="fill: #1f77b4; stroke: #1f77b4; stroke-linejoin: miter"/>
     <use xlink:href="#m53fc541a09" x="257.893131" y="445.42865" style="fill: #1f77b4; stroke: #1f77b4; stroke-linejoin: miter"/>
     <use xlink:href="#m53fc541a09" x="275.088817" y="445.42865" style="fill: #1f77b4; stroke: #1f77b4; stroke-linejoin: miter"/>
     <use xlink:href="#m53fc541a09" x="292.284503" y="440.417479" style="fill: #1f77b4; stroke: #1f77b4; stroke-linejoin: miter"/>
     <use xlink:href="#m53fc541a09" x="309.480188" y="435.995671" style="fill: #1f77b4; stroke: #1f77b4; stroke-linejoin: miter"/>
     <use xlink:href="#m53fc541a09" x="326.675874" y="425.973329" style="fill: #1f77b4; stroke: #1f77b4; stroke-linejoin: miter"/>
     <use xlink:href="#m53fc541a09" x="343.87156" y="415.066414" style="fill: #1f77b4; stroke: #1f77b4; stroke-linejoin: miter"/>
     <use xlink:href="#m53fc541a09" x="361.067245" y="407.107583" style="fill: #1f77b4; stroke: #1f77b4; stroke-linejoin: miter"/>
     <use xlink:href="#m53fc541a09" x="378.262931" y="400.622264" style="fill: #1f77b4; stroke: #1f77b4; stroke-linejoin: miter"/>
     <use xlink:href="#m53fc541a09" x="395.458617" y="393.84237" style="fill: #1f77b4; stroke: #1f77b4; stroke-linejoin: miter"/>
     <use xlink:href="#m53fc541a09" x="412.654302" y="385.588752" style="fill: #1f77b4; stroke: #1f77b4; stroke-linejoin: miter"/>
     <use xlink:href="#m53fc541a09" x="429.849988" y="374.681837" style="fill: #1f77b4; stroke: #1f77b4; stroke-linejoin: miter"/>
     <use xlink:href="#m53fc541a09" x="447.045674" y="367.017581" style="fill: #1f77b4; stroke: #1f77b4; stroke-linejoin: miter"/>
     <use xlink:href="#m53fc541a09" x="464.241359" y="364.954283" style="fill: #1f77b4; stroke: #1f77b4; stroke-linejoin: miter"/>
     <use xlink:href="#m53fc541a09" x="481.437045" y="360.827262" style="fill: #1f77b4; stroke: #1f77b4; stroke-linejoin: miter"/>
     <use xlink:href="#m53fc541a09" x="498.632731" y="295.091726" style="fill: #1f77b4; stroke: #1f77b4; stroke-linejoin: miter"/>
     <use xlink:href="#m53fc541a09" x="515.828416" y="129.426398" style="fill: #1f77b4; stroke: #1f77b4; stroke-linejoin: miter"/>
     <use xlink:href="#m53fc541a09" x="533.024102" y="129.721185" style="fill: #1f77b4; stroke: #1f77b4; stroke-linejoin: miter"/>
     <use xlink:href="#m53fc541a09" x="550.219788" y="130.015972" style="fill: #1f77b4; stroke: #1f77b4; stroke-linejoin: miter"/>
     <use xlink:href="#m53fc541a09" x="567.415473" y="127.952568" style="fill: #1f77b4; stroke: #1f77b4; stroke-linejoin: miter"/>
     <use xlink:href="#m53fc541a09" x="584.611159" y="160.083421" style="fill: #1f77b4; stroke: #1f77b4; stroke-linejoin: miter"/>
     <use xlink:href="#m53fc541a09" x="601.806845" y="342.256303" style="fill: #1f77b4; stroke: #1f77b4; stroke-linejoin: miter"/>
     <use xlink:href="#m53fc541a09" x="619.00253" y="338.129494" style="fill: #1f77b4; stroke: #1f77b4; stroke-linejoin: miter"/>
     <use xlink:href="#m53fc541a09" x="636.198216" y="334.29726" style="fill: #1f77b4; stroke: #1f77b4; stroke-linejoin: miter"/>
     <use xlink:href="#m53fc541a09" x="653.393902" y="329.28609" style="fill: #1f77b4; stroke: #1f77b4; stroke-linejoin: miter"/>
     <use xlink:href="#m53fc541a09" x="670.589587" y="323.390557" style="fill: #1f77b4; stroke: #1f77b4; stroke-linejoin: miter"/>
     <use xlink:href="#m53fc541a09" x="687.785273" y="318.084387" style="fill: #1f77b4; stroke: #1f77b4; stroke-linejoin: miter"/>
     <use xlink:href="#m53fc541a09" x="704.980959" y="315.726302" style="fill: #1f77b4; stroke: #1f77b4; stroke-linejoin: miter"/>
     <use xlink:href="#m53fc541a09" x="722.176644" y="312.483642" style="fill: #1f77b4; stroke: #1f77b4; stroke-linejoin: miter"/>
     <use xlink:href="#m53fc541a09" x="739.37233" y="308.356833" style="fill: #1f77b4; stroke: #1f77b4; stroke-linejoin: miter"/>
     <use xlink:href="#m53fc541a09" x="756.568016" y="303.935131" style="fill: #1f77b4; stroke: #1f77b4; stroke-linejoin: miter"/>
     <use xlink:href="#m53fc541a09" x="773.763701" y="299.218641" style="fill: #1f77b4; stroke: #1f77b4; stroke-linejoin: miter"/>
     <use xlink:href="#m53fc541a09" x="790.959387" y="295.091726" style="fill: #1f77b4; stroke: #1f77b4; stroke-linejoin: miter"/>
     <use xlink:href="#m53fc541a09" x="808.155073" y="291.554492" style="fill: #1f77b4; stroke: #1f77b4; stroke-linejoin: miter"/>
     <use xlink:href="#m53fc541a09" x="825.350758" y="289.785768" style="fill: #1f77b4; stroke: #1f77b4; stroke-linejoin: miter"/>
     <use xlink:href="#m53fc541a09" x="842.546444" y="287.427577" style="fill: #1f77b4; stroke: #1f77b4; stroke-linejoin: miter"/>
     <use xlink:href="#m53fc541a09" x="859.74213" y="285.364066" style="fill: #1f77b4; stroke: #1f77b4; stroke-linejoin: miter"/>
     <use xlink:href="#m53fc541a09" x="876.937815" y="283.300662" style="fill: #1f77b4; stroke: #1f77b4; stroke-linejoin: miter"/>
     <use xlink:href="#m53fc541a09" x="894.133501" y="280.058108" style="fill: #1f77b4; stroke: #1f77b4; stroke-linejoin: miter"/>
     <use xlink:href="#m53fc541a09" x="911.329187" y="277.405129" style="fill: #1f77b4; stroke: #1f77b4; stroke-linejoin: miter"/>
     <use xlink:href="#m53fc541a09" x="928.524872" y="275.046831" style="fill: #1f77b4; stroke: #1f77b4; stroke-linejoin: miter"/>
     <use xlink:href="#m53fc541a09" x="945.720558" y="272.393853" style="fill: #1f77b4; stroke: #1f77b4; stroke-linejoin: miter"/>
     <use xlink:href="#m53fc541a09" x="962.916244" y="180.128315" style="fill: #1f77b4; stroke: #1f77b4; stroke-linejoin: miter"/>
     <use xlink:href="#m53fc541a09" x="980.111929" y="181.012571" style="fill: #1f77b4; stroke: #1f77b4; stroke-linejoin: miter"/>
     <use xlink:href="#m53fc541a09" x="997.307615" y="183.960443" style="fill: #1f77b4; stroke: #1f77b4; stroke-linejoin: miter"/>
     <use xlink:href="#m53fc541a09" x="1014.503301" y="182.781294" style="fill: #1f77b4; stroke: #1f77b4; stroke-linejoin: miter"/>
     <use xlink:href="#m53fc541a09" x="1031.698986" y="181.896933" style="fill: #1f77b4; stroke: #1f77b4; stroke-linejoin: miter"/>
     <use xlink:href="#m53fc541a09" x="1048.894672" y="181.012571" style="fill: #1f77b4; stroke: #1f77b4; stroke-linejoin: miter"/>
     <use xlink:href="#m53fc541a09" x="1066.090358" y="179.243954" style="fill: #1f77b4; stroke: #1f77b4; stroke-linejoin: miter"/>
     <use xlink:href="#m53fc541a09" x="1083.286043" y="178.949166" style="fill: #1f77b4; stroke: #1f77b4; stroke-linejoin: miter"/>
     <use xlink:href="#m53fc541a09" x="1100.481729" y="177.475336" style="fill: #1f77b4; stroke: #1f77b4; stroke-linejoin: miter"/>
     <use xlink:href="#m53fc541a09" x="1117.677415" y="176.885762" style="fill: #1f77b4; stroke: #1f77b4; stroke-linejoin: miter"/>
    </g>
   </g>
   <g id="line2d_14">
    <path d="M 103.13196 541.713501 
L 120.327646 536.437043 
L 137.523332 529.596027 
L 154.719017 520.118692 
L 171.914703 515.50906 
L 189.110389 513.669877 
L 206.306074 503.521471 
L 223.50176 496.439574 
L 240.697446 517.38878 
L 257.893131 544.088565 
L 275.088817 537.563984 
L 292.284503 538.403141 
L 309.480188 531.458556 
L 326.675874 526.030991 
L 343.87156 513.493089 
L 361.067245 501.664248 
L 378.262931 494.27292 
L 395.458617 487.615058 
L 412.654302 480.374625 
L 429.849988 471.118858 
L 447.045674 458.771539 
L 464.241359 451.880436 
L 481.437045 450.773233 
L 498.632731 445.184585 
L 515.828416 385.920468 
L 533.024102 239.940835 
L 550.219788 246.949831 
L 567.415473 248.815968 
L 584.611159 245.832335 
L 601.806845 275.044497 
L 619.00253 434.753065 
L 636.198216 421.732553 
L 653.393902 415.348892 
L 670.589587 407.329151 
L 687.785273 398.73257 
L 704.980959 390.960077 
L 722.176644 388.653351 
L 739.37233 384.634992 
L 756.568016 380.02345 
L 773.763701 375.835731 
L 790.959387 371.074355 
L 808.155073 367.19352 
L 825.350758 364.460637 
L 842.546444 362.67642 
L 859.74213 335.62115 
L 876.937815 335.44224 
L 894.133501 341.849034 
L 911.329187 339.760693 
L 928.524872 338.460361 
L 945.720558 337.797779 
L 962.916244 337.250651 
L 980.111929 256.578486 
L 997.307615 261.324475 
L 1014.503301 265.694394 
L 1031.698986 266.374166 
L 1048.894672 267.245581 
L 1066.090358 267.882589 
L 1083.286043 267.075585 
L 1100.481729 266.992497 
L 1117.677415 265.421148 
" clip-path="url(#p10528668ef)" style="fill: none; stroke: #00ffb2; stroke-width: 1.5; stroke-linecap: square"/>
    <defs>
     <path id="m1a91824a8c" d="M 0 2.5 
C 0.663008 2.5 1.29895 2.236584 1.767767 1.767767 
C 2.236584 1.29895 2.5 0.663008 2.5 0 
C 2.5 -0.663008 2.236584 -1.29895 1.767767 -1.767767 
C 1.29895 -2.236584 0.663008 -2.5 0 -2.5 
C -0.663008 -2.5 -1.29895 -2.236584 -1.767767 -1.767767 
C -2.236584 -1.29895 -2.5 -0.663008 -2.5 0 
C -2.5 0.663008 -2.236584 1.29895 -1.767767 1.767767 
C -1.29895 2.236584 -0.663008 2.5 0 2.5 
z
" style="stroke: #00ffb2"/>
    </defs>
    <g clip-path="url(#p10528668ef)">
     <use xlink:href="#m1a91824a8c" x="103.13196" y="541.713501" style="fill: #00ffb2; stroke: #00ffb2"/>
     <use xlink:href="#m1a91824a8c" x="120.327646" y="536.437043" style="fill: #00ffb2; stroke: #00ffb2"/>
     <use xlink:href="#m1a91824a8c" x="137.523332" y="529.596027" style="fill: #00ffb2; stroke: #00ffb2"/>
     <use xlink:href="#m1a91824a8c" x="154.719017" y="520.118692" style="fill: #00ffb2; stroke: #00ffb2"/>
     <use xlink:href="#m1a91824a8c" x="171.914703" y="515.50906" style="fill: #00ffb2; stroke: #00ffb2"/>
     <use xlink:href="#m1a91824a8c" x="189.110389" y="513.669877" style="fill: #00ffb2; stroke: #00ffb2"/>
     <use xlink:href="#m1a91824a8c" x="206.306074" y="503.521471" style="fill: #00ffb2; stroke: #00ffb2"/>
     <use xlink:href="#m1a91824a8c" x="223.50176" y="496.439574" style="fill: #00ffb2; stroke: #00ffb2"/>
     <use xlink:href="#m1a91824a8c" x="240.697446" y="517.38878" style="fill: #00ffb2; stroke: #00ffb2"/>
     <use xlink:href="#m1a91824a8c" x="257.893131" y="544.088565" style="fill: #00ffb2; stroke: #00ffb2"/>
     <use xlink:href="#m1a91824a8c" x="275.088817" y="537.563984" style="fill: #00ffb2; stroke: #00ffb2"/>
     <use xlink:href="#m1a91824a8c" x="292.284503" y="538.403141" style="fill: #00ffb2; stroke: #00ffb2"/>
     <use xlink:href="#m1a91824a8c" x="309.480188" y="531.458556" style="fill: #00ffb2; stroke: #00ffb2"/>
     <use xlink:href="#m1a91824a8c" x="326.675874" y="526.030991" style="fill: #00ffb2; stroke: #00ffb2"/>
     <use xlink:href="#m1a91824a8c" x="343.87156" y="513.493089" style="fill: #00ffb2; stroke: #00ffb2"/>
     <use xlink:href="#m1a91824a8c" x="361.067245" y="501.664248" style="fill: #00ffb2; stroke: #00ffb2"/>
     <use xlink:href="#m1a91824a8c" x="378.262931" y="494.27292" style="fill: #00ffb2; stroke: #00ffb2"/>
     <use xlink:href="#m1a91824a8c" x="395.458617" y="487.615058" style="fill: #00ffb2; stroke: #00ffb2"/>
     <use xlink:href="#m1a91824a8c" x="412.654302" y="480.374625" style="fill: #00ffb2; stroke: #00ffb2"/>
     <use xlink:href="#m1a91824a8c" x="429.849988" y="471.118858" style="fill: #00ffb2; stroke: #00ffb2"/>
     <use xlink:href="#m1a91824a8c" x="447.045674" y="458.771539" style="fill: #00ffb2; stroke: #00ffb2"/>
     <use xlink:href="#m1a91824a8c" x="464.241359" y="451.880436" style="fill: #00ffb2; stroke: #00ffb2"/>
     <use xlink:href="#m1a91824a8c" x="481.437045" y="450.773233" style="fill: #00ffb2; stroke: #00ffb2"/>
     <use xlink:href="#m1a91824a8c" x="498.632731" y="445.184585" style="fill: #00ffb2; stroke: #00ffb2"/>
     <use xlink:href="#m1a91824a8c" x="515.828416" y="385.920468" style="fill: #00ffb2; stroke: #00ffb2"/>
     <use xlink:href="#m1a91824a8c" x="533.024102" y="239.940835" style="fill: #00ffb2; stroke: #00ffb2"/>
     <use xlink:href="#m1a91824a8c" x="550.219788" y="246.949831" style="fill: #00ffb2; stroke: #00ffb2"/>
     <use xlink:href="#m1a91824a8c" x="567.415473" y="248.815968" style="fill: #00ffb2; stroke: #00ffb2"/>
     <use xlink:href="#m1a91824a8c" x="584.611159" y="245.832335" style="fill: #00ffb2; stroke: #00ffb2"/>
     <use xlink:href="#m1a91824a8c" x="601.806845" y="275.044497" style="fill: #00ffb2; stroke: #00ffb2"/>
     <use xlink:href="#m1a91824a8c" x="619.00253" y="434.753065" style="fill: #00ffb2; stroke: #00ffb2"/>
     <use xlink:href="#m1a91824a8c" x="636.198216" y="421.732553" style="fill: #00ffb2; stroke: #00ffb2"/>
     <use xlink:href="#m1a91824a8c" x="653.393902" y="415.348892" style="fill: #00ffb2; stroke: #00ffb2"/>
     <use xlink:href="#m1a91824a8c" x="670.589587" y="407.329151" style="fill: #00ffb2; stroke: #00ffb2"/>
     <use xlink:href="#m1a91824a8c" x="687.785273" y="398.73257" style="fill: #00ffb2; stroke: #00ffb2"/>
     <use xlink:href="#m1a91824a8c" x="704.980959" y="390.960077" style="fill: #00ffb2; stroke: #00ffb2"/>
     <use xlink:href="#m1a91824a8c" x="722.176644" y="388.653351" style="fill: #00ffb2; stroke: #00ffb2"/>
     <use xlink:href="#m1a91824a8c" x="739.37233" y="384.634992" style="fill: #00ffb2; stroke: #00ffb2"/>
     <use xlink:href="#m1a91824a8c" x="756.568016" y="380.02345" style="fill: #00ffb2; stroke: #00ffb2"/>
     <use xlink:href="#m1a91824a8c" x="773.763701" y="375.835731" style="fill: #00ffb2; stroke: #00ffb2"/>
     <use xlink:href="#m1a91824a8c" x="790.959387" y="371.074355" style="fill: #00ffb2; stroke: #00ffb2"/>
     <use xlink:href="#m1a91824a8c" x="808.155073" y="367.19352" style="fill: #00ffb2; stroke: #00ffb2"/>
     <use xlink:href="#m1a91824a8c" x="825.350758" y="364.460637" style="fill: #00ffb2; stroke: #00ffb2"/>
     <use xlink:href="#m1a91824a8c" x="842.546444" y="362.67642" style="fill: #00ffb2; stroke: #00ffb2"/>
     <use xlink:href="#m1a91824a8c" x="859.74213" y="335.62115" style="fill: #00ffb2; stroke: #00ffb2"/>
     <use xlink:href="#m1a91824a8c" x="876.937815" y="335.44224" style="fill: #00ffb2; stroke: #00ffb2"/>
     <use xlink:href="#m1a91824a8c" x="894.133501" y="341.849034" style="fill: #00ffb2; stroke: #00ffb2"/>
     <use xlink:href="#m1a91824a8c" x="911.329187" y="339.760693" style="fill: #00ffb2; stroke: #00ffb2"/>
     <use xlink:href="#m1a91824a8c" x="928.524872" y="338.460361" style="fill: #00ffb2; stroke: #00ffb2"/>
     <use xlink:href="#m1a91824a8c" x="945.720558" y="337.797779" style="fill: #00ffb2; stroke: #00ffb2"/>
     <use xlink:href="#m1a91824a8c" x="962.916244" y="337.250651" style="fill: #00ffb2; stroke: #00ffb2"/>
     <use xlink:href="#m1a91824a8c" x="980.111929" y="256.578486" style="fill: #00ffb2; stroke: #00ffb2"/>
     <use xlink:href="#m1a91824a8c" x="997.307615" y="261.324475" style="fill: #00ffb2; stroke: #00ffb2"/>
     <use xlink:href="#m1a91824a8c" x="1014.503301" y="265.694394" style="fill: #00ffb2; stroke: #00ffb2"/>
     <use xlink:href="#m1a91824a8c" x="1031.698986" y="266.374166" style="fill: #00ffb2; stroke: #00ffb2"/>
     <use xlink:href="#m1a91824a8c" x="1048.894672" y="267.245581" style="fill: #00ffb2; stroke: #00ffb2"/>
     <use xlink:href="#m1a91824a8c" x="1066.090358" y="267.882589" style="fill: #00ffb2; stroke: #00ffb2"/>
     <use xlink:href="#m1a91824a8c" x="1083.286043" y="267.075585" style="fill: #00ffb2; stroke: #00ffb2"/>
     <use xlink:href="#m1a91824a8c" x="1100.481729" y="266.992497" style="fill: #00ffb2; stroke: #00ffb2"/>
     <use xlink:href="#m1a91824a8c" x="1117.677415" y="265.421148" style="fill: #00ffb2; stroke: #00ffb2"/>
    </g>
   </g>
   <g id="line2d_15">
    <path d="M 103.13196 385.447407 
L 120.327646 378.413262 
L 137.523332 371.448728 
L 154.719017 362.580705 
L 171.914703 358.750805 
L 189.110389 356.828852 
L 206.306074 346.383961 
L 223.50176 340.3543 
L 240.697446 368.262734 
L 257.893131 399.184195 
L 275.088817 387.852183 
L 292.284503 388.96639 
L 309.480188 379.560576 
L 326.675874 373.883641 
L 343.87156 361.148153 
L 361.067245 350.33377 
L 378.262931 343.49615 
L 395.458617 336.929547 
L 412.654302 329.927873 
L 429.849988 321.02759 
L 447.045674 309.100911 
L 464.241359 302.868358 
L 481.437045 301.953647 
L 498.632731 296.199248 
L 515.828416 224.292175 
L 533.024102 49.906747 
L 550.219788 84.61545 
L 567.415473 86.814151 
L 584.611159 90.466201 
L 601.806845 133.745169 
L 619.00253 326.348192 
L 636.198216 282.721168 
L 653.393902 279.695832 
L 670.589587 266.237065 
L 687.785273 253.914789 
L 704.980959 246.395487 
L 722.176644 245.844114 
L 739.37233 243.034615 
L 756.568016 239.749297 
L 773.763701 236.295894 
L 790.959387 231.883636 
L 808.155073 228.407311 
L 825.350758 225.786485 
L 842.546444 224.550034 
L 859.74213 216.159528 
L 876.937815 222.241822 
L 894.133501 219.997492 
L 911.329187 217.463892 
L 928.524872 215.084159 
L 945.720558 212.7057 
L 962.916244 210.365866 
L 980.111929 109.632889 
L 997.307615 127.503914 
L 1014.503301 130.672505 
L 1031.698986 132.660462 
L 1048.894672 136.117474 
L 1066.090358 137.559151 
L 1083.286043 136.477415 
L 1100.481729 136.555516 
L 1117.677415 134.830936 
" clip-path="url(#p10528668ef)" style="fill: none; stroke: #6c3483; stroke-width: 1.5; stroke-linecap: square"/>
    <defs>
     <path id="m48e0580c3d" d="M 0 2.5 
C 0.663008 2.5 1.29895 2.236584 1.767767 1.767767 
C 2.236584 1.29895 2.5 0.663008 2.5 0 
C 2.5 -0.663008 2.236584 -1.29895 1.767767 -1.767767 
C 1.29895 -2.236584 0.663008 -2.5 0 -2.5 
C -0.663008 -2.5 -1.29895 -2.236584 -1.767767 -1.767767 
C -2.236584 -1.29895 -2.5 -0.663008 -2.5 0 
C -2.5 0.663008 -2.236584 1.29895 -1.767767 1.767767 
C -1.29895 2.236584 -0.663008 2.5 0 2.5 
z
" style="stroke: #6c3483"/>
    </defs>
    <g clip-path="url(#p10528668ef)">
     <use xlink:href="#m48e0580c3d" x="103.13196" y="385.447407" style="fill: #6c3483; stroke: #6c3483"/>
     <use xlink:href="#m48e0580c3d" x="120.327646" y="378.413262" style="fill: #6c3483; stroke: #6c3483"/>
     <use xlink:href="#m48e0580c3d" x="137.523332" y="371.448728" style="fill: #6c3483; stroke: #6c3483"/>
     <use xlink:href="#m48e0580c3d" x="154.719017" y="362.580705" style="fill: #6c3483; stroke: #6c3483"/>
     <use xlink:href="#m48e0580c3d" x="171.914703" y="358.750805" style="fill: #6c3483; stroke: #6c3483"/>
     <use xlink:href="#m48e0580c3d" x="189.110389" y="356.828852" style="fill: #6c3483; stroke: #6c3483"/>
     <use xlink:href="#m48e0580c3d" x="206.306074" y="346.383961" style="fill: #6c3483; stroke: #6c3483"/>
     <use xlink:href="#m48e0580c3d" x="223.50176" y="340.3543" style="fill: #6c3483; stroke: #6c3483"/>
     <use xlink:href="#m48e0580c3d" x="240.697446" y="368.262734" style="fill: #6c3483; stroke: #6c3483"/>
     <use xlink:href="#m48e0580c3d" x="257.893131" y="399.184195" style="fill: #6c3483; stroke: #6c3483"/>
     <use xlink:href="#m48e0580c3d" x="275.088817" y="387.852183" style="fill: #6c3483; stroke: #6c3483"/>
     <use xlink:href="#m48e0580c3d" x="292.284503" y="388.96639" style="fill: #6c3483; stroke: #6c3483"/>
     <use xlink:href="#m48e0580c3d" x="309.480188" y="379.560576" style="fill: #6c3483; stroke: #6c3483"/>
     <use xlink:href="#m48e0580c3d" x="326.675874" y="373.883641" style="fill: #6c3483; stroke: #6c3483"/>
     <use xlink:href="#m48e0580c3d" x="343.87156" y="361.148153" style="fill: #6c3483; stroke: #6c3483"/>
     <use xlink:href="#m48e0580c3d" x="361.067245" y="350.33377" style="fill: #6c3483; stroke: #6c3483"/>
     <use xlink:href="#m48e0580c3d" x="378.262931" y="343.49615" style="fill: #6c3483; stroke: #6c3483"/>
     <use xlink:href="#m48e0580c3d" x="395.458617" y="336.929547" style="fill: #6c3483; stroke: #6c3483"/>
     <use xlink:href="#m48e0580c3d" x="412.654302" y="329.927873" style="fill: #6c3483; stroke: #6c3483"/>
     <use xlink:href="#m48e0580c3d" x="429.849988" y="321.02759" style="fill: #6c3483; stroke: #6c3483"/>
     <use xlink:href="#m48e0580c3d" x="447.045674" y="309.100911" style="fill: #6c3483; stroke: #6c3483"/>
     <use xlink:href="#m48e0580c3d" x="464.241359" y="302.868358" style="fill: #6c3483; stroke: #6c3483"/>
     <use xlink:href="#m48e0580c3d" x="481.437045" y="301.953647" style="fill: #6c3483; stroke: #6c3483"/>
     <use xlink:href="#m48e0580c3d" x="498.632731" y="296.199248" style="fill: #6c3483; stroke: #6c3483"/>
     <use xlink:href="#m48e0580c3d" x="515.828416" y="224.292175" style="fill: #6c3483; stroke: #6c3483"/>
     <use xlink:href="#m48e0580c3d" x="533.024102" y="49.906747" style="fill: #6c3483; stroke: #6c3483"/>
     <use xlink:href="#m48e0580c3d" x="550.219788" y="84.61545" style="fill: #6c3483; stroke: #6c3483"/>
     <use xlink:href="#m48e0580c3d" x="567.415473" y="86.814151" style="fill: #6c3483; stroke: #6c3483"/>
     <use xlink:href="#m48e0580c3d" x="584.611159" y="90.466201" style="fill: #6c3483; stroke: #6c3483"/>
     <use xlink:href="#m48e0580c3d" x="601.806845" y="133.745169" style="fill: #6c3483; stroke: #6c3483"/>
     <use xlink:href="#m48e0580c3d" x="619.00253" y="326.348192" style="fill: #6c3483; stroke: #6c3483"/>
     <use xlink:href="#m48e0580c3d" x="636.198216" y="282.721168" style="fill: #6c3483; stroke: #6c3483"/>
     <use xlink:href="#m48e0580c3d" x="653.393902" y="279.695832" style="fill: #6c3483; stroke: #6c3483"/>
     <use xlink:href="#m48e0580c3d" x="670.589587" y="266.237065" style="fill: #6c3483; stroke: #6c3483"/>
     <use xlink:href="#m48e0580c3d" x="687.785273" y="253.914789" style="fill: #6c3483; stroke: #6c3483"/>
     <use xlink:href="#m48e0580c3d" x="704.980959" y="246.395487" style="fill: #6c3483; stroke: #6c3483"/>
     <use xlink:href="#m48e0580c3d" x="722.176644" y="245.844114" style="fill: #6c3483; stroke: #6c3483"/>
     <use xlink:href="#m48e0580c3d" x="739.37233" y="243.034615" style="fill: #6c3483; stroke: #6c3483"/>
     <use xlink:href="#m48e0580c3d" x="756.568016" y="239.749297" style="fill: #6c3483; stroke: #6c3483"/>
     <use xlink:href="#m48e0580c3d" x="773.763701" y="236.295894" style="fill: #6c3483; stroke: #6c3483"/>
     <use xlink:href="#m48e0580c3d" x="790.959387" y="231.883636" style="fill: #6c3483; stroke: #6c3483"/>
     <use xlink:href="#m48e0580c3d" x="808.155073" y="228.407311" style="fill: #6c3483; stroke: #6c3483"/>
     <use xlink:href="#m48e0580c3d" x="825.350758" y="225.786485" style="fill: #6c3483; stroke: #6c3483"/>
     <use xlink:href="#m48e0580c3d" x="842.546444" y="224.550034" style="fill: #6c3483; stroke: #6c3483"/>
     <use xlink:href="#m48e0580c3d" x="859.74213" y="216.159528" style="fill: #6c3483; stroke: #6c3483"/>
     <use xlink:href="#m48e0580c3d" x="876.937815" y="222.241822" style="fill: #6c3483; stroke: #6c3483"/>
     <use xlink:href="#m48e0580c3d" x="894.133501" y="219.997492" style="fill: #6c3483; stroke: #6c3483"/>
     <use xlink:href="#m48e0580c3d" x="911.329187" y="217.463892" style="fill: #6c3483; stroke: #6c3483"/>
     <use xlink:href="#m48e0580c3d" x="928.524872" y="215.084159" style="fill: #6c3483; stroke: #6c3483"/>
     <use xlink:href="#m48e0580c3d" x="945.720558" y="212.7057" style="fill: #6c3483; stroke: #6c3483"/>
     <use xlink:href="#m48e0580c3d" x="962.916244" y="210.365866" style="fill: #6c3483; stroke: #6c3483"/>
     <use xlink:href="#m48e0580c3d" x="980.111929" y="109.632889" style="fill: #6c3483; stroke: #6c3483"/>
     <use xlink:href="#m48e0580c3d" x="997.307615" y="127.503914" style="fill: #6c3483; stroke: #6c3483"/>
     <use xlink:href="#m48e0580c3d" x="1014.503301" y="130.672505" style="fill: #6c3483; stroke: #6c3483"/>
     <use xlink:href="#m48e0580c3d" x="1031.698986" y="132.660462" style="fill: #6c3483; stroke: #6c3483"/>
     <use xlink:href="#m48e0580c3d" x="1048.894672" y="136.117474" style="fill: #6c3483; stroke: #6c3483"/>
     <use xlink:href="#m48e0580c3d" x="1066.090358" y="137.559151" style="fill: #6c3483; stroke: #6c3483"/>
     <use xlink:href="#m48e0580c3d" x="1083.286043" y="136.477415" style="fill: #6c3483; stroke: #6c3483"/>
     <use xlink:href="#m48e0580c3d" x="1100.481729" y="136.555516" style="fill: #6c3483; stroke: #6c3483"/>
     <use xlink:href="#m48e0580c3d" x="1117.677415" y="134.830936" style="fill: #6c3483; stroke: #6c3483"/>
    </g>
   </g>
   <g id="patch_3">
    <path d="M 52.404688 568.797656 
L 52.404688 25.197656 
" style="fill: none; stroke: #000000; stroke-width: 0.8; stroke-linejoin: miter; stroke-linecap: square"/>
   </g>
   <g id="patch_4">
    <path d="M 1168.404687 568.797656 
L 1168.404687 25.197656 
" style="fill: none; stroke: #000000; stroke-width: 0.8; stroke-linejoin: miter; stroke-linecap: square"/>
   </g>
   <g id="patch_5">
    <path d="M 52.404688 568.797656 
L 1168.404687 568.797656 
" style="fill: none; stroke: #000000; stroke-width: 0.8; stroke-linejoin: miter; stroke-linecap: square"/>
   </g>
   <g id="patch_6">
    <path d="M 52.404688 25.197656 
L 1168.404687 25.197656 
" style="fill: none; stroke: #000000; stroke-width: 0.8; stroke-linejoin: miter; stroke-linecap: square"/>
   </g>
   <g id="text_15">
    <!-- [`SHAP Analysis`] - Relationship between PCA and SHAP predictions on LSTM model -->
    <g transform="translate(295.424609 19.197656)scale(0.15 -0.15)">
     <defs>
      <path id="DejaVuSans-53" d="M 3425 4513 
L 3425 3897 
Q 3066 4069 2747 4153 
Q 2428 4238 2131 4238 
Q 1616 4238 1336 4038 
Q 1056 3838 1056 3469 
Q 1056 3159 1242 3001 
Q 1428 2844 1947 2747 
L 2328 2669 
Q 3034 2534 3370 2195 
Q 3706 1856 3706 1288 
Q 3706 609 3251 259 
Q 2797 -91 1919 -91 
Q 1588 -91 1214 -16 
Q 841 59 441 206 
L 441 856 
Q 825 641 1194 531 
Q 1563 422 1919 422 
Q 2459 422 2753 634 
Q 3047 847 3047 1241 
Q 3047 1584 2836 1778 
Q 2625 1972 2144 2069 
L 1759 2144 
Q 1053 2284 737 2584 
Q 422 2884 422 3419 
Q 422 4038 858 4394 
Q 1294 4750 2059 4750 
Q 2388 4750 2728 4690 
Q 3069 4631 3425 4513 
z
" transform="scale(0.015625)"/>
      <path id="DejaVuSans-48" d="M 628 4666 
L 1259 4666 
L 1259 2753 
L 3553 2753 
L 3553 4666 
L 4184 4666 
L 4184 0 
L 3553 0 
L 3553 2222 
L 1259 2222 
L 1259 0 
L 628 0 
L 628 4666 
z
" transform="scale(0.015625)"/>
      <path id="DejaVuSans-41" d="M 2188 4044 
L 1331 1722 
L 3047 1722 
L 2188 4044 
z
M 1831 4666 
L 2547 4666 
L 4325 0 
L 3669 0 
L 3244 1197 
L 1141 1197 
L 716 0 
L 50 0 
L 1831 4666 
z
" transform="scale(0.015625)"/>
      <path id="DejaVuSans-50" d="M 1259 4147 
L 1259 2394 
L 2053 2394 
Q 2494 2394 2734 2622 
Q 2975 2850 2975 3272 
Q 2975 3691 2734 3919 
Q 2494 4147 2053 4147 
L 1259 4147 
z
M 628 4666 
L 2053 4666 
Q 2838 4666 3239 4311 
Q 3641 3956 3641 3272 
Q 3641 2581 3239 2228 
Q 2838 1875 2053 1875 
L 1259 1875 
L 1259 0 
L 628 0 
L 628 4666 
z
" transform="scale(0.015625)"/>
      <path id="DejaVuSans-61" d="M 2194 1759 
Q 1497 1759 1228 1600 
Q 959 1441 959 1056 
Q 959 750 1161 570 
Q 1363 391 1709 391 
Q 2188 391 2477 730 
Q 2766 1069 2766 1631 
L 2766 1759 
L 2194 1759 
z
M 3341 1997 
L 3341 0 
L 2766 0 
L 2766 531 
Q 2569 213 2275 61 
Q 1981 -91 1556 -91 
Q 1019 -91 701 211 
Q 384 513 384 1019 
Q 384 1609 779 1909 
Q 1175 2209 1959 2209 
L 2766 2209 
L 2766 2266 
Q 2766 2663 2505 2880 
Q 2244 3097 1772 3097 
Q 1472 3097 1187 3025 
Q 903 2953 641 2809 
L 641 3341 
Q 956 3463 1253 3523 
Q 1550 3584 1831 3584 
Q 2591 3584 2966 3190 
Q 3341 2797 3341 1997 
z
" transform="scale(0.015625)"/>
      <path id="DejaVuSans-6c" d="M 603 4863 
L 1178 4863 
L 1178 0 
L 603 0 
L 603 4863 
z
" transform="scale(0.015625)"/>
      <path id="DejaVuSans-79" d="M 2059 -325 
Q 1816 -950 1584 -1140 
Q 1353 -1331 966 -1331 
L 506 -1331 
L 506 -850 
L 844 -850 
Q 1081 -850 1212 -737 
Q 1344 -625 1503 -206 
L 1606 56 
L 191 3500 
L 800 3500 
L 1894 763 
L 2988 3500 
L 3597 3500 
L 2059 -325 
z
" transform="scale(0.015625)"/>
      <path id="DejaVuSans-2d" d="M 313 2009 
L 1997 2009 
L 1997 1497 
L 313 1497 
L 313 2009 
z
" transform="scale(0.015625)"/>
      <path id="DejaVuSans-52" d="M 2841 2188 
Q 3044 2119 3236 1894 
Q 3428 1669 3622 1275 
L 4263 0 
L 3584 0 
L 2988 1197 
Q 2756 1666 2539 1819 
Q 2322 1972 1947 1972 
L 1259 1972 
L 1259 0 
L 628 0 
L 628 4666 
L 2053 4666 
Q 2853 4666 3247 4331 
Q 3641 3997 3641 3322 
Q 3641 2881 3436 2590 
Q 3231 2300 2841 2188 
z
M 1259 4147 
L 1259 2491 
L 2053 2491 
Q 2509 2491 2742 2702 
Q 2975 2913 2975 3322 
Q 2975 3731 2742 3939 
Q 2509 4147 2053 4147 
L 1259 4147 
z
" transform="scale(0.015625)"/>
      <path id="DejaVuSans-68" d="M 3513 2113 
L 3513 0 
L 2938 0 
L 2938 2094 
Q 2938 2591 2744 2837 
Q 2550 3084 2163 3084 
Q 1697 3084 1428 2787 
Q 1159 2491 1159 1978 
L 1159 0 
L 581 0 
L 581 4863 
L 1159 4863 
L 1159 2956 
Q 1366 3272 1645 3428 
Q 1925 3584 2291 3584 
Q 2894 3584 3203 3211 
Q 3513 2838 3513 2113 
z
" transform="scale(0.015625)"/>
      <path id="DejaVuSans-62" d="M 3116 1747 
Q 3116 2381 2855 2742 
Q 2594 3103 2138 3103 
Q 1681 3103 1420 2742 
Q 1159 2381 1159 1747 
Q 1159 1113 1420 752 
Q 1681 391 2138 391 
Q 2594 391 2855 752 
Q 3116 1113 3116 1747 
z
M 1159 2969 
Q 1341 3281 1617 3432 
Q 1894 3584 2278 3584 
Q 2916 3584 3314 3078 
Q 3713 2572 3713 1747 
Q 3713 922 3314 415 
Q 2916 -91 2278 -91 
Q 1894 -91 1617 61 
Q 1341 213 1159 525 
L 1159 0 
L 581 0 
L 581 4863 
L 1159 4863 
L 1159 2969 
z
" transform="scale(0.015625)"/>
      <path id="DejaVuSans-43" d="M 4122 4306 
L 4122 3641 
Q 3803 3938 3442 4084 
Q 3081 4231 2675 4231 
Q 1875 4231 1450 3742 
Q 1025 3253 1025 2328 
Q 1025 1406 1450 917 
Q 1875 428 2675 428 
Q 3081 428 3442 575 
Q 3803 722 4122 1019 
L 4122 359 
Q 3791 134 3420 21 
Q 3050 -91 2638 -91 
Q 1578 -91 968 557 
Q 359 1206 359 2328 
Q 359 3453 968 4101 
Q 1578 4750 2638 4750 
Q 3056 4750 3426 4639 
Q 3797 4528 4122 4306 
z
" transform="scale(0.015625)"/>
      <path id="DejaVuSans-64" d="M 2906 2969 
L 2906 4863 
L 3481 4863 
L 3481 0 
L 2906 0 
L 2906 525 
Q 2725 213 2448 61 
Q 2172 -91 1784 -91 
Q 1150 -91 751 415 
Q 353 922 353 1747 
Q 353 2572 751 3078 
Q 1150 3584 1784 3584 
Q 2172 3584 2448 3432 
Q 2725 3281 2906 2969 
z
M 947 1747 
Q 947 1113 1208 752 
Q 1469 391 1925 391 
Q 2381 391 2643 752 
Q 2906 1113 2906 1747 
Q 2906 2381 2643 2742 
Q 2381 3103 1925 3103 
Q 1469 3103 1208 2742 
Q 947 2381 947 1747 
z
" transform="scale(0.015625)"/>
      <path id="DejaVuSans-72" d="M 2631 2963 
Q 2534 3019 2420 3045 
Q 2306 3072 2169 3072 
Q 1681 3072 1420 2755 
Q 1159 2438 1159 1844 
L 1159 0 
L 581 0 
L 581 3500 
L 1159 3500 
L 1159 2956 
Q 1341 3275 1631 3429 
Q 1922 3584 2338 3584 
Q 2397 3584 2469 3576 
Q 2541 3569 2628 3553 
L 2631 2963 
z
" transform="scale(0.015625)"/>
      <path id="DejaVuSans-4c" d="M 628 4666 
L 1259 4666 
L 1259 531 
L 3531 531 
L 3531 0 
L 628 0 
L 628 4666 
z
" transform="scale(0.015625)"/>
      <path id="DejaVuSans-54" d="M -19 4666 
L 3928 4666 
L 3928 4134 
L 2272 4134 
L 2272 0 
L 1638 0 
L 1638 4134 
L -19 4134 
L -19 4666 
z
" transform="scale(0.015625)"/>
      <path id="DejaVuSans-4d" d="M 628 4666 
L 1569 4666 
L 2759 1491 
L 3956 4666 
L 4897 4666 
L 4897 0 
L 4281 0 
L 4281 4097 
L 3078 897 
L 2444 897 
L 1241 4097 
L 1241 0 
L 628 0 
L 628 4666 
z
" transform="scale(0.015625)"/>
     </defs>
     <use xlink:href="#DejaVuSans-5b"/>
     <use xlink:href="#DejaVuSans-60" x="39.013672"/>
     <use xlink:href="#DejaVuSans-53" x="89.013672"/>
     <use xlink:href="#DejaVuSans-48" x="152.490234"/>
     <use xlink:href="#DejaVuSans-41" x="227.685547"/>
     <use xlink:href="#DejaVuSans-50" x="296.09375"/>
     <use xlink:href="#DejaVuSans-20" x="356.396484"/>
     <use xlink:href="#DejaVuSans-41" x="388.183594"/>
     <use xlink:href="#DejaVuSans-6e" x="456.591797"/>
     <use xlink:href="#DejaVuSans-61" x="519.970703"/>
     <use xlink:href="#DejaVuSans-6c" x="581.25"/>
     <use xlink:href="#DejaVuSans-79" x="609.033203"/>
     <use xlink:href="#DejaVuSans-73" x="668.212891"/>
     <use xlink:href="#DejaVuSans-69" x="720.3125"/>
     <use xlink:href="#DejaVuSans-73" x="748.095703"/>
     <use xlink:href="#DejaVuSans-60" x="800.195312"/>
     <use xlink:href="#DejaVuSans-5d" x="850.195312"/>
     <use xlink:href="#DejaVuSans-20" x="889.208984"/>
     <use xlink:href="#DejaVuSans-2d" x="920.996094"/>
     <use xlink:href="#DejaVuSans-20" x="957.080078"/>
     <use xlink:href="#DejaVuSans-52" x="988.867188"/>
     <use xlink:href="#DejaVuSans-65" x="1053.849609"/>
     <use xlink:href="#DejaVuSans-6c" x="1115.373047"/>
     <use xlink:href="#DejaVuSans-61" x="1143.15625"/>
     <use xlink:href="#DejaVuSans-74" x="1204.435547"/>
     <use xlink:href="#DejaVuSans-69" x="1243.644531"/>
     <use xlink:href="#DejaVuSans-6f" x="1271.427734"/>
     <use xlink:href="#DejaVuSans-6e" x="1332.609375"/>
     <use xlink:href="#DejaVuSans-73" x="1395.988281"/>
     <use xlink:href="#DejaVuSans-68" x="1448.087891"/>
     <use xlink:href="#DejaVuSans-69" x="1511.466797"/>
     <use xlink:href="#DejaVuSans-70" x="1539.25"/>
     <use xlink:href="#DejaVuSans-20" x="1602.726562"/>
     <use xlink:href="#DejaVuSans-62" x="1634.513672"/>
     <use xlink:href="#DejaVuSans-65" x="1697.990234"/>
     <use xlink:href="#DejaVuSans-74" x="1759.513672"/>
     <use xlink:href="#DejaVuSans-77" x="1798.722656"/>
     <use xlink:href="#DejaVuSans-65" x="1880.509766"/>
     <use xlink:href="#DejaVuSans-65" x="1942.033203"/>
     <use xlink:href="#DejaVuSans-6e" x="2003.556641"/>
     <use xlink:href="#DejaVuSans-20" x="2066.935547"/>
     <use xlink:href="#DejaVuSans-50" x="2098.722656"/>
     <use xlink:href="#DejaVuSans-43" x="2159.025391"/>
     <use xlink:href="#DejaVuSans-41" x="2228.849609"/>
     <use xlink:href="#DejaVuSans-20" x="2297.257812"/>
     <use xlink:href="#DejaVuSans-61" x="2329.044922"/>
     <use xlink:href="#DejaVuSans-6e" x="2390.324219"/>
     <use xlink:href="#DejaVuSans-64" x="2453.703125"/>
     <use xlink:href="#DejaVuSans-20" x="2517.179688"/>
     <use xlink:href="#DejaVuSans-53" x="2548.966797"/>
     <use xlink:href="#DejaVuSans-48" x="2612.443359"/>
     <use xlink:href="#DejaVuSans-41" x="2687.638672"/>
     <use xlink:href="#DejaVuSans-50" x="2756.046875"/>
     <use xlink:href="#DejaVuSans-20" x="2816.349609"/>
     <use xlink:href="#DejaVuSans-70" x="2848.136719"/>
     <use xlink:href="#DejaVuSans-72" x="2911.613281"/>
     <use xlink:href="#DejaVuSans-65" x="2950.476562"/>
     <use xlink:href="#DejaVuSans-64" x="3012"/>
     <use xlink:href="#DejaVuSans-69" x="3075.476562"/>
     <use xlink:href="#DejaVuSans-63" x="3103.259766"/>
     <use xlink:href="#DejaVuSans-74" x="3158.240234"/>
     <use xlink:href="#DejaVuSans-69" x="3197.449219"/>
     <use xlink:href="#DejaVuSans-6f" x="3225.232422"/>
     <use xlink:href="#DejaVuSans-6e" x="3286.414062"/>
     <use xlink:href="#DejaVuSans-73" x="3349.792969"/>
     <use xlink:href="#DejaVuSans-20" x="3401.892578"/>
     <use xlink:href="#DejaVuSans-6f" x="3433.679688"/>
     <use xlink:href="#DejaVuSans-6e" x="3494.861328"/>
     <use xlink:href="#DejaVuSans-20" x="3558.240234"/>
     <use xlink:href="#DejaVuSans-4c" x="3590.027344"/>
     <use xlink:href="#DejaVuSans-53" x="3645.740234"/>
     <use xlink:href="#DejaVuSans-54" x="3709.216797"/>
     <use xlink:href="#DejaVuSans-4d" x="3770.300781"/>
     <use xlink:href="#DejaVuSans-20" x="3856.580078"/>
     <use xlink:href="#DejaVuSans-6d" x="3888.367188"/>
     <use xlink:href="#DejaVuSans-6f" x="3985.779297"/>
     <use xlink:href="#DejaVuSans-64" x="4046.960938"/>
     <use xlink:href="#DejaVuSans-65" x="4110.4375"/>
     <use xlink:href="#DejaVuSans-6c" x="4171.960938"/>
    </g>
   </g>
   <g id="legend_1">
    <g id="patch_7">
     <path d="M 1024.7375 103.249219 
L 1157.904688 103.249219 
Q 1160.904688 103.249219 1160.904688 100.249219 
L 1160.904688 35.697656 
Q 1160.904688 32.697656 1157.904688 32.697656 
L 1024.7375 32.697656 
Q 1021.7375 32.697656 1021.7375 35.697656 
L 1021.7375 100.249219 
Q 1021.7375 103.249219 1024.7375 103.249219 
z
" style="fill: #ffffff; opacity: 0.8; stroke: #cccccc; stroke-linejoin: miter"/>
    </g>
    <g id="line2d_16">
     <path d="M 1027.7375 44.845312 
L 1042.7375 44.845312 
L 1057.7375 44.845312 
" style="fill: none; stroke: #1f77b4; stroke-width: 1.5; stroke-linecap: square"/>
     <g>
      <use xlink:href="#m53fc541a09" x="1042.7375" y="44.845312" style="fill: #1f77b4; stroke: #1f77b4; stroke-linejoin: miter"/>
     </g>
    </g>
    <g id="text_16">
     <!-- real -->
     <g transform="translate(1069.7375 50.095312)scale(0.15 -0.15)">
      <use xlink:href="#DejaVuSans-72"/>
      <use xlink:href="#DejaVuSans-65" x="38.863281"/>
      <use xlink:href="#DejaVuSans-61" x="100.386719"/>
      <use xlink:href="#DejaVuSans-6c" x="161.666016"/>
     </g>
    </g>
    <g id="line2d_17">
     <path d="M 1027.7375 66.8625 
L 1042.7375 66.8625 
L 1057.7375 66.8625 
" style="fill: none; stroke: #00ffb2; stroke-width: 1.5; stroke-linecap: square"/>
     <g>
      <use xlink:href="#m1a91824a8c" x="1042.7375" y="66.8625" style="fill: #00ffb2; stroke: #00ffb2"/>
     </g>
    </g>
    <g id="text_17">
     <!-- PCA-LSTM -->
     <g transform="translate(1069.7375 72.1125)scale(0.15 -0.15)">
      <use xlink:href="#DejaVuSans-50"/>
      <use xlink:href="#DejaVuSans-43" x="60.302734"/>
      <use xlink:href="#DejaVuSans-41" x="130.126953"/>
      <use xlink:href="#DejaVuSans-2d" x="196.285156"/>
      <use xlink:href="#DejaVuSans-4c" x="232.369141"/>
      <use xlink:href="#DejaVuSans-53" x="288.082031"/>
      <use xlink:href="#DejaVuSans-54" x="351.558594"/>
      <use xlink:href="#DejaVuSans-4d" x="412.642578"/>
     </g>
    </g>
    <g id="line2d_18">
     <path d="M 1027.7375 88.879687 
L 1042.7375 88.879687 
L 1057.7375 88.879687 
" style="fill: none; stroke: #6c3483; stroke-width: 1.5; stroke-linecap: square"/>
     <g>
      <use xlink:href="#m48e0580c3d" x="1042.7375" y="88.879687" style="fill: #6c3483; stroke: #6c3483"/>
     </g>
    </g>
    <g id="text_18">
     <!-- SHAP-LSTM -->
     <g transform="translate(1069.7375 94.129687)scale(0.15 -0.15)">
      <use xlink:href="#DejaVuSans-53"/>
      <use xlink:href="#DejaVuSans-48" x="63.476562"/>
      <use xlink:href="#DejaVuSans-41" x="138.671875"/>
      <use xlink:href="#DejaVuSans-50" x="207.080078"/>
      <use xlink:href="#DejaVuSans-2d" x="265.132812"/>
      <use xlink:href="#DejaVuSans-4c" x="301.216797"/>
      <use xlink:href="#DejaVuSans-53" x="356.929688"/>
      <use xlink:href="#DejaVuSans-54" x="420.40625"/>
      <use xlink:href="#DejaVuSans-4d" x="481.490234"/>
     </g>
    </g>
   </g>
  </g>
 </g>
 <defs>
  <clipPath id="p10528668ef">
   <rect x="52.404688" y="25.197656" width="1116" height="543.6"/>
  </clipPath>
 </defs>
</svg>
